G04 #@! TF.FileFunction,Soldermask,Top*
%FSLAX46Y46*%
G04 Gerber Fmt 4.6, Leading zero omitted, Abs format (unit mm)*
G04 Created by KiCad (PCBNEW 4.0.4-stable) date 12/21/17 08:36:57*
%MOMM*%
%LPD*%
G01*
G04 APERTURE LIST*
%ADD10C,0.250000*%
%ADD11C,4.900000*%
%ADD12R,3.400000X3.400000*%
%ADD13C,3.600000*%
%ADD14R,2.800000X2.100000*%
%ADD15O,2.800000X2.100000*%
%ADD16O,2.200000X2.100000*%
%ADD17R,1.400000X2.000000*%
%ADD18R,1.400000X1.650000*%
%ADD19R,2.600000X2.600000*%
%ADD20O,2.600000X2.600000*%
%ADD21O,4.400000X8.400000*%
%ADD22R,5.400000X5.400000*%
%ADD23R,4.400000X4.400000*%
%ADD24O,2.432000X2.127200*%
%ADD25R,2.432000X2.127200*%
%ADD26C,3.200000*%
%ADD27R,1.300000X1.200000*%
%ADD28R,2.100000X1.300000*%
%ADD29R,2.200000X2.200000*%
%ADD30O,2.200000X2.200000*%
%ADD31R,1.600000X1.300000*%
%ADD32R,4.200000X2.400000*%
%ADD33R,1.900000X2.400000*%
%ADD34R,1.370000X1.670000*%
G04 APERTURE END LIST*
D10*
D11*
X129070100Y-114020600D03*
X145249900Y-84099400D03*
D12*
X128346200Y-118999000D03*
X145973800Y-118999000D03*
X145973800Y-79121000D03*
X128346200Y-79121000D03*
D13*
X135890000Y-67310000D03*
X135890000Y-158750000D03*
X77470000Y-158750000D03*
D14*
X97790000Y-104140000D03*
D15*
X97790000Y-101600000D03*
X97790000Y-99060000D03*
X97790000Y-96520000D03*
X97790000Y-93980000D03*
D16*
X75180000Y-83820000D03*
D15*
X97790000Y-91440000D03*
X74930000Y-86360000D03*
X97790000Y-88900000D03*
X74930000Y-88900000D03*
D14*
X97790000Y-86360000D03*
D15*
X74930000Y-91440000D03*
X97790000Y-83820000D03*
D14*
X74930000Y-93980000D03*
D15*
X97790000Y-81280000D03*
X74930000Y-96520000D03*
X97790000Y-78740000D03*
X74930000Y-99060000D03*
X97790000Y-76200000D03*
X74930000Y-101600000D03*
X97790000Y-73660000D03*
D14*
X74930000Y-104140000D03*
D15*
X97790000Y-71120000D03*
X74930000Y-106680000D03*
X97790000Y-106680000D03*
D13*
X96520000Y-67310000D03*
X96520000Y-110490000D03*
X76200000Y-110490000D03*
D17*
X89130000Y-148590000D03*
X86130000Y-148590000D03*
D18*
X88630000Y-153670000D03*
X86630000Y-153670000D03*
D19*
X118745000Y-121285000D03*
D20*
X118745000Y-108585000D03*
D21*
X162560000Y-150400000D03*
D22*
X162560000Y-158400000D03*
D23*
X157860000Y-155400000D03*
D24*
X117625000Y-101175000D03*
X117625000Y-98635000D03*
X117625000Y-96095000D03*
X117625000Y-93555000D03*
X117625000Y-91015000D03*
D25*
X117625000Y-88475000D03*
D26*
X102455980Y-68336160D03*
X107535980Y-68336160D03*
X102453440Y-81798160D03*
X107533440Y-81798160D03*
X102453440Y-108976160D03*
X107533440Y-108976160D03*
X102453440Y-120660160D03*
X107533440Y-120660160D03*
X102453440Y-147584160D03*
X107533440Y-147584160D03*
D24*
X117625000Y-140550000D03*
X117625000Y-138010000D03*
X117625000Y-135470000D03*
X117625000Y-132930000D03*
X117625000Y-130390000D03*
D25*
X117625000Y-127850000D03*
D24*
X170200000Y-101175000D03*
X170200000Y-98635000D03*
X170200000Y-96095000D03*
X170200000Y-93555000D03*
X170200000Y-91015000D03*
D25*
X170200000Y-88475000D03*
D24*
X170200000Y-140525000D03*
X170200000Y-137985000D03*
X170200000Y-135445000D03*
X170200000Y-132905000D03*
X170200000Y-130365000D03*
D25*
X170200000Y-127825000D03*
D27*
X106950000Y-100650000D03*
X106950000Y-102550000D03*
X108950000Y-101600000D03*
X106950000Y-94300000D03*
X106950000Y-96200000D03*
X108950000Y-95250000D03*
X106950000Y-87950000D03*
X106950000Y-89850000D03*
X108950000Y-88900000D03*
X106950000Y-73980000D03*
X106950000Y-75880000D03*
X108950000Y-74930000D03*
D28*
X102870000Y-100150000D03*
X102870000Y-103050000D03*
X102870000Y-93800000D03*
X102870000Y-96700000D03*
X102870000Y-87450000D03*
X102870000Y-90350000D03*
X102870000Y-73480000D03*
X102870000Y-76380000D03*
X113030000Y-100150000D03*
X113030000Y-103050000D03*
X113030000Y-93800000D03*
X113030000Y-96700000D03*
X113030000Y-87450000D03*
X113030000Y-90350000D03*
X113030000Y-73480000D03*
X113030000Y-76380000D03*
D29*
X86360000Y-142240000D03*
D30*
X88900000Y-142240000D03*
X91440000Y-142240000D03*
D31*
X118745000Y-116585000D03*
X118745000Y-113285000D03*
D32*
X88900000Y-130200000D03*
D33*
X88900000Y-136500000D03*
X91200000Y-136500000D03*
X86600000Y-136500000D03*
D21*
X147320000Y-150400000D03*
D22*
X147320000Y-158400000D03*
D23*
X152020000Y-155400000D03*
D13*
X168910000Y-67310000D03*
D34*
X104770000Y-98425000D03*
X106050000Y-98425000D03*
X104770000Y-92075000D03*
X106050000Y-92075000D03*
X104770000Y-104775000D03*
X106050000Y-104775000D03*
X104770000Y-78105000D03*
X106050000Y-78105000D03*
M02*
