G04 #@! TF.FileFunction,Legend,Top*
%FSLAX46Y46*%
G04 Gerber Fmt 4.6, Leading zero omitted, Abs format (unit mm)*
G04 Created by KiCad (PCBNEW 4.0.4-stable) date 01/08/18 17:18:11*
%MOMM*%
%LPD*%
G01*
G04 APERTURE LIST*
%ADD10C,0.250000*%
%ADD11C,0.300000*%
%ADD12C,0.100000*%
%ADD13C,0.120000*%
%ADD14C,0.150000*%
G04 APERTURE END LIST*
D10*
D11*
X145105715Y-149737857D02*
X145320001Y-149809286D01*
X145391429Y-149880714D01*
X145462858Y-150023571D01*
X145462858Y-150237857D01*
X145391429Y-150380714D01*
X145320001Y-150452143D01*
X145177143Y-150523571D01*
X144605715Y-150523571D01*
X144605715Y-149023571D01*
X145105715Y-149023571D01*
X145248572Y-149095000D01*
X145320001Y-149166429D01*
X145391429Y-149309286D01*
X145391429Y-149452143D01*
X145320001Y-149595000D01*
X145248572Y-149666429D01*
X145105715Y-149737857D01*
X144605715Y-149737857D01*
X146320001Y-150523571D02*
X146177143Y-150452143D01*
X146105715Y-150309286D01*
X146105715Y-149023571D01*
X147534286Y-150523571D02*
X147534286Y-149737857D01*
X147462857Y-149595000D01*
X147320000Y-149523571D01*
X147034286Y-149523571D01*
X146891429Y-149595000D01*
X147534286Y-150452143D02*
X147391429Y-150523571D01*
X147034286Y-150523571D01*
X146891429Y-150452143D01*
X146820000Y-150309286D01*
X146820000Y-150166429D01*
X146891429Y-150023571D01*
X147034286Y-149952143D01*
X147391429Y-149952143D01*
X147534286Y-149880714D01*
X148891429Y-150452143D02*
X148748572Y-150523571D01*
X148462858Y-150523571D01*
X148320000Y-150452143D01*
X148248572Y-150380714D01*
X148177143Y-150237857D01*
X148177143Y-149809286D01*
X148248572Y-149666429D01*
X148320000Y-149595000D01*
X148462858Y-149523571D01*
X148748572Y-149523571D01*
X148891429Y-149595000D01*
X149534286Y-150523571D02*
X149534286Y-149023571D01*
X149677143Y-149952143D02*
X150105714Y-150523571D01*
X150105714Y-149523571D02*
X149534286Y-150095000D01*
X145284286Y-151645000D02*
X145141429Y-151573571D01*
X144927143Y-151573571D01*
X144712858Y-151645000D01*
X144570000Y-151787857D01*
X144498572Y-151930714D01*
X144427143Y-152216429D01*
X144427143Y-152430714D01*
X144498572Y-152716429D01*
X144570000Y-152859286D01*
X144712858Y-153002143D01*
X144927143Y-153073571D01*
X145070000Y-153073571D01*
X145284286Y-153002143D01*
X145355715Y-152930714D01*
X145355715Y-152430714D01*
X145070000Y-152430714D01*
X145998572Y-153073571D02*
X145998572Y-152073571D01*
X145998572Y-152359286D02*
X146070000Y-152216429D01*
X146141429Y-152145000D01*
X146284286Y-152073571D01*
X146427143Y-152073571D01*
X147498571Y-153002143D02*
X147355714Y-153073571D01*
X147070000Y-153073571D01*
X146927143Y-153002143D01*
X146855714Y-152859286D01*
X146855714Y-152287857D01*
X146927143Y-152145000D01*
X147070000Y-152073571D01*
X147355714Y-152073571D01*
X147498571Y-152145000D01*
X147570000Y-152287857D01*
X147570000Y-152430714D01*
X146855714Y-152573571D01*
X148784285Y-153002143D02*
X148641428Y-153073571D01*
X148355714Y-153073571D01*
X148212857Y-153002143D01*
X148141428Y-152859286D01*
X148141428Y-152287857D01*
X148212857Y-152145000D01*
X148355714Y-152073571D01*
X148641428Y-152073571D01*
X148784285Y-152145000D01*
X148855714Y-152287857D01*
X148855714Y-152430714D01*
X148141428Y-152573571D01*
X149498571Y-152073571D02*
X149498571Y-153073571D01*
X149498571Y-152216429D02*
X149569999Y-152145000D01*
X149712857Y-152073571D01*
X149927142Y-152073571D01*
X150069999Y-152145000D01*
X150141428Y-152287857D01*
X150141428Y-153073571D01*
X145712858Y-154837857D02*
X145927144Y-154909286D01*
X145998572Y-154980714D01*
X146070001Y-155123571D01*
X146070001Y-155337857D01*
X145998572Y-155480714D01*
X145927144Y-155552143D01*
X145784286Y-155623571D01*
X145212858Y-155623571D01*
X145212858Y-154123571D01*
X145712858Y-154123571D01*
X145855715Y-154195000D01*
X145927144Y-154266429D01*
X145998572Y-154409286D01*
X145998572Y-154552143D01*
X145927144Y-154695000D01*
X145855715Y-154766429D01*
X145712858Y-154837857D01*
X145212858Y-154837857D01*
X146927144Y-155623571D02*
X146784286Y-155552143D01*
X146712858Y-155409286D01*
X146712858Y-154123571D01*
X148141429Y-154623571D02*
X148141429Y-155623571D01*
X147498572Y-154623571D02*
X147498572Y-155409286D01*
X147570000Y-155552143D01*
X147712858Y-155623571D01*
X147927143Y-155623571D01*
X148070000Y-155552143D01*
X148141429Y-155480714D01*
X149427143Y-155552143D02*
X149284286Y-155623571D01*
X148998572Y-155623571D01*
X148855715Y-155552143D01*
X148784286Y-155409286D01*
X148784286Y-154837857D01*
X148855715Y-154695000D01*
X148998572Y-154623571D01*
X149284286Y-154623571D01*
X149427143Y-154695000D01*
X149498572Y-154837857D01*
X149498572Y-154980714D01*
X148784286Y-155123571D01*
X146462858Y-158173571D02*
X145962858Y-157459286D01*
X145605715Y-158173571D02*
X145605715Y-156673571D01*
X146177143Y-156673571D01*
X146320001Y-156745000D01*
X146391429Y-156816429D01*
X146462858Y-156959286D01*
X146462858Y-157173571D01*
X146391429Y-157316429D01*
X146320001Y-157387857D01*
X146177143Y-157459286D01*
X145605715Y-157459286D01*
X147677143Y-158102143D02*
X147534286Y-158173571D01*
X147248572Y-158173571D01*
X147105715Y-158102143D01*
X147034286Y-157959286D01*
X147034286Y-157387857D01*
X147105715Y-157245000D01*
X147248572Y-157173571D01*
X147534286Y-157173571D01*
X147677143Y-157245000D01*
X147748572Y-157387857D01*
X147748572Y-157530714D01*
X147034286Y-157673571D01*
X149034286Y-158173571D02*
X149034286Y-156673571D01*
X149034286Y-158102143D02*
X148891429Y-158173571D01*
X148605715Y-158173571D01*
X148462857Y-158102143D01*
X148391429Y-158030714D01*
X148320000Y-157887857D01*
X148320000Y-157459286D01*
X148391429Y-157316429D01*
X148462857Y-157245000D01*
X148605715Y-157173571D01*
X148891429Y-157173571D01*
X149034286Y-157245000D01*
X138557143Y-149095000D02*
X138414286Y-149023571D01*
X138200000Y-149023571D01*
X137985715Y-149095000D01*
X137842857Y-149237857D01*
X137771429Y-149380714D01*
X137700000Y-149666429D01*
X137700000Y-149880714D01*
X137771429Y-150166429D01*
X137842857Y-150309286D01*
X137985715Y-150452143D01*
X138200000Y-150523571D01*
X138342857Y-150523571D01*
X138557143Y-150452143D01*
X138628572Y-150380714D01*
X138628572Y-149880714D01*
X138342857Y-149880714D01*
X139271429Y-150523571D02*
X139271429Y-149023571D01*
X140128572Y-150523571D01*
X140128572Y-149023571D01*
X140842858Y-150523571D02*
X140842858Y-149023571D01*
X141200001Y-149023571D01*
X141414286Y-149095000D01*
X141557144Y-149237857D01*
X141628572Y-149380714D01*
X141700001Y-149666429D01*
X141700001Y-149880714D01*
X141628572Y-150166429D01*
X141557144Y-150309286D01*
X141414286Y-150452143D01*
X141200001Y-150523571D01*
X140842858Y-150523571D01*
X138378572Y-153073571D02*
X138378572Y-151573571D01*
X138735715Y-151573571D01*
X138950000Y-151645000D01*
X139092858Y-151787857D01*
X139164286Y-151930714D01*
X139235715Y-152216429D01*
X139235715Y-152430714D01*
X139164286Y-152716429D01*
X139092858Y-152859286D01*
X138950000Y-153002143D01*
X138735715Y-153073571D01*
X138378572Y-153073571D01*
X139878572Y-152502143D02*
X141021429Y-152502143D01*
X140450000Y-153073571D02*
X140450000Y-151930714D01*
X138378572Y-155623571D02*
X138378572Y-154123571D01*
X138735715Y-154123571D01*
X138950000Y-154195000D01*
X139092858Y-154337857D01*
X139164286Y-154480714D01*
X139235715Y-154766429D01*
X139235715Y-154980714D01*
X139164286Y-155266429D01*
X139092858Y-155409286D01*
X138950000Y-155552143D01*
X138735715Y-155623571D01*
X138378572Y-155623571D01*
X139878572Y-155052143D02*
X141021429Y-155052143D01*
X139414287Y-156673571D02*
X138700001Y-156673571D01*
X138628572Y-157387857D01*
X138700001Y-157316429D01*
X138842858Y-157245000D01*
X139200001Y-157245000D01*
X139342858Y-157316429D01*
X139414287Y-157387857D01*
X139485715Y-157530714D01*
X139485715Y-157887857D01*
X139414287Y-158030714D01*
X139342858Y-158102143D01*
X139200001Y-158173571D01*
X138842858Y-158173571D01*
X138700001Y-158102143D01*
X138628572Y-158030714D01*
X139914286Y-156673571D02*
X140414286Y-158173571D01*
X140914286Y-156673571D01*
X125414286Y-100983571D02*
X125414286Y-99483571D01*
X125414286Y-100197857D02*
X126271429Y-100197857D01*
X126271429Y-100983571D02*
X126271429Y-99483571D01*
X127628572Y-100983571D02*
X127628572Y-100197857D01*
X127557143Y-100055000D01*
X127414286Y-99983571D01*
X127128572Y-99983571D01*
X126985715Y-100055000D01*
X127628572Y-100912143D02*
X127485715Y-100983571D01*
X127128572Y-100983571D01*
X126985715Y-100912143D01*
X126914286Y-100769286D01*
X126914286Y-100626429D01*
X126985715Y-100483571D01*
X127128572Y-100412143D01*
X127485715Y-100412143D01*
X127628572Y-100340714D01*
X128342858Y-99983571D02*
X128342858Y-100983571D01*
X128342858Y-100126429D02*
X128414286Y-100055000D01*
X128557144Y-99983571D01*
X128771429Y-99983571D01*
X128914286Y-100055000D01*
X128985715Y-100197857D01*
X128985715Y-100983571D01*
X130342858Y-99983571D02*
X130342858Y-101197857D01*
X130271429Y-101340714D01*
X130200001Y-101412143D01*
X130057144Y-101483571D01*
X129842858Y-101483571D01*
X129700001Y-101412143D01*
X130342858Y-100912143D02*
X130200001Y-100983571D01*
X129914287Y-100983571D01*
X129771429Y-100912143D01*
X129700001Y-100840714D01*
X129628572Y-100697857D01*
X129628572Y-100269286D01*
X129700001Y-100126429D01*
X129771429Y-100055000D01*
X129914287Y-99983571D01*
X130200001Y-99983571D01*
X130342858Y-100055000D01*
X131700001Y-99983571D02*
X131700001Y-100983571D01*
X131057144Y-99983571D02*
X131057144Y-100769286D01*
X131128572Y-100912143D01*
X131271430Y-100983571D01*
X131485715Y-100983571D01*
X131628572Y-100912143D01*
X131700001Y-100840714D01*
X132628573Y-100983571D02*
X132485715Y-100912143D01*
X132414287Y-100769286D01*
X132414287Y-99483571D01*
X134200001Y-99483571D02*
X134557144Y-100983571D01*
X134842858Y-99912143D01*
X135128572Y-100983571D01*
X135485715Y-99483571D01*
X136271430Y-100983571D02*
X136128572Y-100912143D01*
X136057144Y-100840714D01*
X135985715Y-100697857D01*
X135985715Y-100269286D01*
X136057144Y-100126429D01*
X136128572Y-100055000D01*
X136271430Y-99983571D01*
X136485715Y-99983571D01*
X136628572Y-100055000D01*
X136700001Y-100126429D01*
X136771430Y-100269286D01*
X136771430Y-100697857D01*
X136700001Y-100840714D01*
X136628572Y-100912143D01*
X136485715Y-100983571D01*
X136271430Y-100983571D01*
X137414287Y-100983571D02*
X137414287Y-99983571D01*
X137414287Y-100269286D02*
X137485715Y-100126429D01*
X137557144Y-100055000D01*
X137700001Y-99983571D01*
X137842858Y-99983571D01*
X138985715Y-100983571D02*
X138985715Y-99483571D01*
X138985715Y-100912143D02*
X138842858Y-100983571D01*
X138557144Y-100983571D01*
X138414286Y-100912143D01*
X138342858Y-100840714D01*
X138271429Y-100697857D01*
X138271429Y-100269286D01*
X138342858Y-100126429D01*
X138414286Y-100055000D01*
X138557144Y-99983571D01*
X138842858Y-99983571D01*
X138985715Y-100055000D01*
X141700001Y-100840714D02*
X141628572Y-100912143D01*
X141414286Y-100983571D01*
X141271429Y-100983571D01*
X141057144Y-100912143D01*
X140914286Y-100769286D01*
X140842858Y-100626429D01*
X140771429Y-100340714D01*
X140771429Y-100126429D01*
X140842858Y-99840714D01*
X140914286Y-99697857D01*
X141057144Y-99555000D01*
X141271429Y-99483571D01*
X141414286Y-99483571D01*
X141628572Y-99555000D01*
X141700001Y-99626429D01*
X142557144Y-100983571D02*
X142414286Y-100912143D01*
X142342858Y-100769286D01*
X142342858Y-99483571D01*
X143342858Y-100983571D02*
X143200000Y-100912143D01*
X143128572Y-100840714D01*
X143057143Y-100697857D01*
X143057143Y-100269286D01*
X143128572Y-100126429D01*
X143200000Y-100055000D01*
X143342858Y-99983571D01*
X143557143Y-99983571D01*
X143700000Y-100055000D01*
X143771429Y-100126429D01*
X143842858Y-100269286D01*
X143842858Y-100697857D01*
X143771429Y-100840714D01*
X143700000Y-100912143D01*
X143557143Y-100983571D01*
X143342858Y-100983571D01*
X145128572Y-100912143D02*
X144985715Y-100983571D01*
X144700001Y-100983571D01*
X144557143Y-100912143D01*
X144485715Y-100840714D01*
X144414286Y-100697857D01*
X144414286Y-100269286D01*
X144485715Y-100126429D01*
X144557143Y-100055000D01*
X144700001Y-99983571D01*
X144985715Y-99983571D01*
X145128572Y-100055000D01*
X145771429Y-100983571D02*
X145771429Y-99483571D01*
X145914286Y-100412143D02*
X146342857Y-100983571D01*
X146342857Y-99983571D02*
X145771429Y-100555000D01*
X148985715Y-100983571D02*
X148485715Y-100269286D01*
X148128572Y-100983571D02*
X148128572Y-99483571D01*
X148700000Y-99483571D01*
X148842858Y-99555000D01*
X148914286Y-99626429D01*
X148985715Y-99769286D01*
X148985715Y-99983571D01*
X148914286Y-100126429D01*
X148842858Y-100197857D01*
X148700000Y-100269286D01*
X148128572Y-100269286D01*
X150200000Y-100912143D02*
X150057143Y-100983571D01*
X149771429Y-100983571D01*
X149628572Y-100912143D01*
X149557143Y-100769286D01*
X149557143Y-100197857D01*
X149628572Y-100055000D01*
X149771429Y-99983571D01*
X150057143Y-99983571D01*
X150200000Y-100055000D01*
X150271429Y-100197857D01*
X150271429Y-100340714D01*
X149557143Y-100483571D01*
X150771429Y-99983571D02*
X151128572Y-100983571D01*
X151485714Y-99983571D01*
X153200000Y-100983571D02*
X153200000Y-99483571D01*
X153557143Y-99483571D01*
X153771428Y-99555000D01*
X153914286Y-99697857D01*
X153985714Y-99840714D01*
X154057143Y-100126429D01*
X154057143Y-100340714D01*
X153985714Y-100626429D01*
X153914286Y-100769286D01*
X153771428Y-100912143D01*
X153557143Y-100983571D01*
X153200000Y-100983571D01*
X133592857Y-103533571D02*
X133592857Y-102033571D01*
X134450000Y-103533571D01*
X134450000Y-102033571D01*
X135378572Y-103533571D02*
X135235714Y-103462143D01*
X135164286Y-103390714D01*
X135092857Y-103247857D01*
X135092857Y-102819286D01*
X135164286Y-102676429D01*
X135235714Y-102605000D01*
X135378572Y-102533571D01*
X135592857Y-102533571D01*
X135735714Y-102605000D01*
X135807143Y-102676429D01*
X135878572Y-102819286D01*
X135878572Y-103247857D01*
X135807143Y-103390714D01*
X135735714Y-103462143D01*
X135592857Y-103533571D01*
X135378572Y-103533571D01*
X137164286Y-103533571D02*
X137164286Y-102033571D01*
X137164286Y-103462143D02*
X137021429Y-103533571D01*
X136735715Y-103533571D01*
X136592857Y-103462143D01*
X136521429Y-103390714D01*
X136450000Y-103247857D01*
X136450000Y-102819286D01*
X136521429Y-102676429D01*
X136592857Y-102605000D01*
X136735715Y-102533571D01*
X137021429Y-102533571D01*
X137164286Y-102605000D01*
X138450000Y-103462143D02*
X138307143Y-103533571D01*
X138021429Y-103533571D01*
X137878572Y-103462143D01*
X137807143Y-103319286D01*
X137807143Y-102747857D01*
X137878572Y-102605000D01*
X138021429Y-102533571D01*
X138307143Y-102533571D01*
X138450000Y-102605000D01*
X138521429Y-102747857D01*
X138521429Y-102890714D01*
X137807143Y-103033571D01*
X139164286Y-103533571D02*
X139164286Y-102033571D01*
X139664286Y-103105000D01*
X140164286Y-102033571D01*
X140164286Y-103533571D01*
X141735715Y-103390714D02*
X141664286Y-103462143D01*
X141450000Y-103533571D01*
X141307143Y-103533571D01*
X141092858Y-103462143D01*
X140950000Y-103319286D01*
X140878572Y-103176429D01*
X140807143Y-102890714D01*
X140807143Y-102676429D01*
X140878572Y-102390714D01*
X140950000Y-102247857D01*
X141092858Y-102105000D01*
X141307143Y-102033571D01*
X141450000Y-102033571D01*
X141664286Y-102105000D01*
X141735715Y-102176429D01*
X142378572Y-102033571D02*
X142378572Y-103247857D01*
X142450000Y-103390714D01*
X142521429Y-103462143D01*
X142664286Y-103533571D01*
X142950000Y-103533571D01*
X143092858Y-103462143D01*
X143164286Y-103390714D01*
X143235715Y-103247857D01*
X143235715Y-102033571D01*
X143807144Y-102533571D02*
X144164287Y-103533571D01*
X144521429Y-102533571D01*
X145021429Y-102176429D02*
X145092858Y-102105000D01*
X145235715Y-102033571D01*
X145592858Y-102033571D01*
X145735715Y-102105000D01*
X145807144Y-102176429D01*
X145878572Y-102319286D01*
X145878572Y-102462143D01*
X145807144Y-102676429D01*
X144950001Y-103533571D01*
X145878572Y-103533571D01*
X130914287Y-106083571D02*
X130914287Y-104583571D01*
X131414287Y-105655000D01*
X131914287Y-104583571D01*
X131914287Y-106083571D01*
X133128573Y-105297857D02*
X133342859Y-105369286D01*
X133414287Y-105440714D01*
X133485716Y-105583571D01*
X133485716Y-105797857D01*
X133414287Y-105940714D01*
X133342859Y-106012143D01*
X133200001Y-106083571D01*
X132628573Y-106083571D01*
X132628573Y-104583571D01*
X133128573Y-104583571D01*
X133271430Y-104655000D01*
X133342859Y-104726429D01*
X133414287Y-104869286D01*
X133414287Y-105012143D01*
X133342859Y-105155000D01*
X133271430Y-105226429D01*
X133128573Y-105297857D01*
X132628573Y-105297857D01*
X134128573Y-106083571D02*
X134128573Y-104583571D01*
X135557145Y-104583571D02*
X134842859Y-104583571D01*
X134771430Y-105297857D01*
X134842859Y-105226429D01*
X134985716Y-105155000D01*
X135342859Y-105155000D01*
X135485716Y-105226429D01*
X135557145Y-105297857D01*
X135628573Y-105440714D01*
X135628573Y-105797857D01*
X135557145Y-105940714D01*
X135485716Y-106012143D01*
X135342859Y-106083571D01*
X134985716Y-106083571D01*
X134842859Y-106012143D01*
X134771430Y-105940714D01*
X136557144Y-104583571D02*
X136700001Y-104583571D01*
X136842858Y-104655000D01*
X136914287Y-104726429D01*
X136985716Y-104869286D01*
X137057144Y-105155000D01*
X137057144Y-105512143D01*
X136985716Y-105797857D01*
X136914287Y-105940714D01*
X136842858Y-106012143D01*
X136700001Y-106083571D01*
X136557144Y-106083571D01*
X136414287Y-106012143D01*
X136342858Y-105940714D01*
X136271430Y-105797857D01*
X136200001Y-105512143D01*
X136200001Y-105155000D01*
X136271430Y-104869286D01*
X136342858Y-104726429D01*
X136414287Y-104655000D01*
X136557144Y-104583571D01*
X137628572Y-104726429D02*
X137700001Y-104655000D01*
X137842858Y-104583571D01*
X138200001Y-104583571D01*
X138342858Y-104655000D01*
X138414287Y-104726429D01*
X138485715Y-104869286D01*
X138485715Y-105012143D01*
X138414287Y-105226429D01*
X137557144Y-106083571D01*
X138485715Y-106083571D01*
X139771429Y-104583571D02*
X139485715Y-104583571D01*
X139342858Y-104655000D01*
X139271429Y-104726429D01*
X139128572Y-104940714D01*
X139057143Y-105226429D01*
X139057143Y-105797857D01*
X139128572Y-105940714D01*
X139200000Y-106012143D01*
X139342858Y-106083571D01*
X139628572Y-106083571D01*
X139771429Y-106012143D01*
X139842858Y-105940714D01*
X139914286Y-105797857D01*
X139914286Y-105440714D01*
X139842858Y-105297857D01*
X139771429Y-105226429D01*
X139628572Y-105155000D01*
X139342858Y-105155000D01*
X139200000Y-105226429D01*
X139128572Y-105297857D01*
X139057143Y-105440714D01*
X141700000Y-106083571D02*
X141700000Y-104583571D01*
X142271428Y-104583571D01*
X142414286Y-104655000D01*
X142485714Y-104726429D01*
X142557143Y-104869286D01*
X142557143Y-105083571D01*
X142485714Y-105226429D01*
X142414286Y-105297857D01*
X142271428Y-105369286D01*
X141700000Y-105369286D01*
X143842857Y-106083571D02*
X143842857Y-105297857D01*
X143771428Y-105155000D01*
X143628571Y-105083571D01*
X143342857Y-105083571D01*
X143200000Y-105155000D01*
X143842857Y-106012143D02*
X143700000Y-106083571D01*
X143342857Y-106083571D01*
X143200000Y-106012143D01*
X143128571Y-105869286D01*
X143128571Y-105726429D01*
X143200000Y-105583571D01*
X143342857Y-105512143D01*
X143700000Y-105512143D01*
X143842857Y-105440714D01*
X144557143Y-105083571D02*
X144557143Y-106083571D01*
X144557143Y-105226429D02*
X144628571Y-105155000D01*
X144771429Y-105083571D01*
X144985714Y-105083571D01*
X145128571Y-105155000D01*
X145200000Y-105297857D01*
X145200000Y-106083571D01*
X146485714Y-106012143D02*
X146342857Y-106083571D01*
X146057143Y-106083571D01*
X145914286Y-106012143D01*
X145842857Y-105869286D01*
X145842857Y-105297857D01*
X145914286Y-105155000D01*
X146057143Y-105083571D01*
X146342857Y-105083571D01*
X146485714Y-105155000D01*
X146557143Y-105297857D01*
X146557143Y-105440714D01*
X145842857Y-105583571D01*
X147414286Y-106083571D02*
X147271428Y-106012143D01*
X147200000Y-105869286D01*
X147200000Y-104583571D01*
X147914285Y-106012143D02*
X148057142Y-106083571D01*
X148342857Y-106083571D01*
X148485714Y-106012143D01*
X148557142Y-105869286D01*
X148557142Y-105797857D01*
X148485714Y-105655000D01*
X148342857Y-105583571D01*
X148128571Y-105583571D01*
X147985714Y-105512143D01*
X147914285Y-105369286D01*
X147914285Y-105297857D01*
X147985714Y-105155000D01*
X148128571Y-105083571D01*
X148342857Y-105083571D01*
X148485714Y-105155000D01*
X131307143Y-108633571D02*
X131307143Y-107133571D01*
X131807143Y-108205000D01*
X132307143Y-107133571D01*
X132307143Y-108633571D01*
X133664286Y-108633571D02*
X133664286Y-107847857D01*
X133592857Y-107705000D01*
X133450000Y-107633571D01*
X133164286Y-107633571D01*
X133021429Y-107705000D01*
X133664286Y-108562143D02*
X133521429Y-108633571D01*
X133164286Y-108633571D01*
X133021429Y-108562143D01*
X132950000Y-108419286D01*
X132950000Y-108276429D01*
X133021429Y-108133571D01*
X133164286Y-108062143D01*
X133521429Y-108062143D01*
X133664286Y-107990714D01*
X134164286Y-107633571D02*
X134735715Y-107633571D01*
X134378572Y-107133571D02*
X134378572Y-108419286D01*
X134450000Y-108562143D01*
X134592858Y-108633571D01*
X134735715Y-108633571D01*
X135021429Y-107633571D02*
X135592858Y-107633571D01*
X135235715Y-107133571D02*
X135235715Y-108419286D01*
X135307143Y-108562143D01*
X135450001Y-108633571D01*
X135592858Y-108633571D01*
X136092858Y-108633571D02*
X136092858Y-107133571D01*
X136735715Y-108633571D02*
X136735715Y-107847857D01*
X136664286Y-107705000D01*
X136521429Y-107633571D01*
X136307144Y-107633571D01*
X136164286Y-107705000D01*
X136092858Y-107776429D01*
X138021429Y-108562143D02*
X137878572Y-108633571D01*
X137592858Y-108633571D01*
X137450001Y-108562143D01*
X137378572Y-108419286D01*
X137378572Y-107847857D01*
X137450001Y-107705000D01*
X137592858Y-107633571D01*
X137878572Y-107633571D01*
X138021429Y-107705000D01*
X138092858Y-107847857D01*
X138092858Y-107990714D01*
X137378572Y-108133571D01*
X138592858Y-107633571D02*
X138878572Y-108633571D01*
X139164286Y-107919286D01*
X139450001Y-108633571D01*
X139735715Y-107633571D01*
X141378572Y-108562143D02*
X141592858Y-108633571D01*
X141950001Y-108633571D01*
X142092858Y-108562143D01*
X142164287Y-108490714D01*
X142235715Y-108347857D01*
X142235715Y-108205000D01*
X142164287Y-108062143D01*
X142092858Y-107990714D01*
X141950001Y-107919286D01*
X141664287Y-107847857D01*
X141521429Y-107776429D01*
X141450001Y-107705000D01*
X141378572Y-107562143D01*
X141378572Y-107419286D01*
X141450001Y-107276429D01*
X141521429Y-107205000D01*
X141664287Y-107133571D01*
X142021429Y-107133571D01*
X142235715Y-107205000D01*
X142735715Y-107633571D02*
X143021429Y-108633571D01*
X143307143Y-107919286D01*
X143592858Y-108633571D01*
X143878572Y-107633571D01*
X145092858Y-108633571D02*
X145092858Y-107847857D01*
X145021429Y-107705000D01*
X144878572Y-107633571D01*
X144592858Y-107633571D01*
X144450001Y-107705000D01*
X145092858Y-108562143D02*
X144950001Y-108633571D01*
X144592858Y-108633571D01*
X144450001Y-108562143D01*
X144378572Y-108419286D01*
X144378572Y-108276429D01*
X144450001Y-108133571D01*
X144592858Y-108062143D01*
X144950001Y-108062143D01*
X145092858Y-107990714D01*
X145807144Y-108633571D02*
X145807144Y-107633571D01*
X145807144Y-107919286D02*
X145878572Y-107776429D01*
X145950001Y-107705000D01*
X146092858Y-107633571D01*
X146235715Y-107633571D01*
X146521429Y-107633571D02*
X147092858Y-107633571D01*
X146735715Y-107133571D02*
X146735715Y-108419286D01*
X146807143Y-108562143D01*
X146950001Y-108633571D01*
X147092858Y-108633571D01*
X147521429Y-108562143D02*
X147664286Y-108633571D01*
X147950001Y-108633571D01*
X148092858Y-108562143D01*
X148164286Y-108419286D01*
X148164286Y-108347857D01*
X148092858Y-108205000D01*
X147950001Y-108133571D01*
X147735715Y-108133571D01*
X147592858Y-108062143D01*
X147521429Y-107919286D01*
X147521429Y-107847857D01*
X147592858Y-107705000D01*
X147735715Y-107633571D01*
X147950001Y-107633571D01*
X148092858Y-107705000D01*
X133557144Y-109826429D02*
X133628573Y-109755000D01*
X133771430Y-109683571D01*
X134128573Y-109683571D01*
X134271430Y-109755000D01*
X134342859Y-109826429D01*
X134414287Y-109969286D01*
X134414287Y-110112143D01*
X134342859Y-110326429D01*
X133485716Y-111183571D01*
X134414287Y-111183571D01*
X135342858Y-109683571D02*
X135485715Y-109683571D01*
X135628572Y-109755000D01*
X135700001Y-109826429D01*
X135771430Y-109969286D01*
X135842858Y-110255000D01*
X135842858Y-110612143D01*
X135771430Y-110897857D01*
X135700001Y-111040714D01*
X135628572Y-111112143D01*
X135485715Y-111183571D01*
X135342858Y-111183571D01*
X135200001Y-111112143D01*
X135128572Y-111040714D01*
X135057144Y-110897857D01*
X134985715Y-110612143D01*
X134985715Y-110255000D01*
X135057144Y-109969286D01*
X135128572Y-109826429D01*
X135200001Y-109755000D01*
X135342858Y-109683571D01*
X137271429Y-111183571D02*
X136414286Y-111183571D01*
X136842858Y-111183571D02*
X136842858Y-109683571D01*
X136700001Y-109897857D01*
X136557143Y-110040714D01*
X136414286Y-110112143D01*
X138128572Y-110326429D02*
X137985714Y-110255000D01*
X137914286Y-110183571D01*
X137842857Y-110040714D01*
X137842857Y-109969286D01*
X137914286Y-109826429D01*
X137985714Y-109755000D01*
X138128572Y-109683571D01*
X138414286Y-109683571D01*
X138557143Y-109755000D01*
X138628572Y-109826429D01*
X138700000Y-109969286D01*
X138700000Y-110040714D01*
X138628572Y-110183571D01*
X138557143Y-110255000D01*
X138414286Y-110326429D01*
X138128572Y-110326429D01*
X137985714Y-110397857D01*
X137914286Y-110469286D01*
X137842857Y-110612143D01*
X137842857Y-110897857D01*
X137914286Y-111040714D01*
X137985714Y-111112143D01*
X138128572Y-111183571D01*
X138414286Y-111183571D01*
X138557143Y-111112143D01*
X138628572Y-111040714D01*
X138700000Y-110897857D01*
X138700000Y-110612143D01*
X138628572Y-110469286D01*
X138557143Y-110397857D01*
X138414286Y-110326429D01*
X139342857Y-111040714D02*
X139414285Y-111112143D01*
X139342857Y-111183571D01*
X139271428Y-111112143D01*
X139342857Y-111040714D01*
X139342857Y-111183571D01*
X140342857Y-109683571D02*
X140485714Y-109683571D01*
X140628571Y-109755000D01*
X140700000Y-109826429D01*
X140771429Y-109969286D01*
X140842857Y-110255000D01*
X140842857Y-110612143D01*
X140771429Y-110897857D01*
X140700000Y-111040714D01*
X140628571Y-111112143D01*
X140485714Y-111183571D01*
X140342857Y-111183571D01*
X140200000Y-111112143D01*
X140128571Y-111040714D01*
X140057143Y-110897857D01*
X139985714Y-110612143D01*
X139985714Y-110255000D01*
X140057143Y-109969286D01*
X140128571Y-109826429D01*
X140200000Y-109755000D01*
X140342857Y-109683571D01*
X142271428Y-111183571D02*
X141414285Y-111183571D01*
X141842857Y-111183571D02*
X141842857Y-109683571D01*
X141700000Y-109897857D01*
X141557142Y-110040714D01*
X141414285Y-110112143D01*
X142914285Y-111040714D02*
X142985713Y-111112143D01*
X142914285Y-111183571D01*
X142842856Y-111112143D01*
X142914285Y-111040714D01*
X142914285Y-111183571D01*
X143914285Y-109683571D02*
X144057142Y-109683571D01*
X144199999Y-109755000D01*
X144271428Y-109826429D01*
X144342857Y-109969286D01*
X144414285Y-110255000D01*
X144414285Y-110612143D01*
X144342857Y-110897857D01*
X144271428Y-111040714D01*
X144199999Y-111112143D01*
X144057142Y-111183571D01*
X143914285Y-111183571D01*
X143771428Y-111112143D01*
X143699999Y-111040714D01*
X143628571Y-110897857D01*
X143557142Y-110612143D01*
X143557142Y-110255000D01*
X143628571Y-109969286D01*
X143699999Y-109826429D01*
X143771428Y-109755000D01*
X143914285Y-109683571D01*
X145271428Y-110326429D02*
X145128570Y-110255000D01*
X145057142Y-110183571D01*
X144985713Y-110040714D01*
X144985713Y-109969286D01*
X145057142Y-109826429D01*
X145128570Y-109755000D01*
X145271428Y-109683571D01*
X145557142Y-109683571D01*
X145699999Y-109755000D01*
X145771428Y-109826429D01*
X145842856Y-109969286D01*
X145842856Y-110040714D01*
X145771428Y-110183571D01*
X145699999Y-110255000D01*
X145557142Y-110326429D01*
X145271428Y-110326429D01*
X145128570Y-110397857D01*
X145057142Y-110469286D01*
X144985713Y-110612143D01*
X144985713Y-110897857D01*
X145057142Y-111040714D01*
X145128570Y-111112143D01*
X145271428Y-111183571D01*
X145557142Y-111183571D01*
X145699999Y-111112143D01*
X145771428Y-111040714D01*
X145842856Y-110897857D01*
X145842856Y-110612143D01*
X145771428Y-110469286D01*
X145699999Y-110397857D01*
X145557142Y-110326429D01*
X109949998Y-113733571D02*
X109949998Y-112233571D01*
X110592855Y-113733571D02*
X110592855Y-112947857D01*
X110521426Y-112805000D01*
X110378569Y-112733571D01*
X110164284Y-112733571D01*
X110021426Y-112805000D01*
X109949998Y-112876429D01*
X111092855Y-112733571D02*
X111664284Y-112733571D01*
X111307141Y-112233571D02*
X111307141Y-113519286D01*
X111378569Y-113662143D01*
X111521427Y-113733571D01*
X111664284Y-113733571D01*
X111949998Y-112733571D02*
X112521427Y-112733571D01*
X112164284Y-112233571D02*
X112164284Y-113519286D01*
X112235712Y-113662143D01*
X112378570Y-113733571D01*
X112521427Y-113733571D01*
X113021427Y-112733571D02*
X113021427Y-114233571D01*
X113021427Y-112805000D02*
X113164284Y-112733571D01*
X113449998Y-112733571D01*
X113592855Y-112805000D01*
X113664284Y-112876429D01*
X113735713Y-113019286D01*
X113735713Y-113447857D01*
X113664284Y-113590714D01*
X113592855Y-113662143D01*
X113449998Y-113733571D01*
X113164284Y-113733571D01*
X113021427Y-113662143D01*
X114307141Y-113662143D02*
X114449998Y-113733571D01*
X114735713Y-113733571D01*
X114878570Y-113662143D01*
X114949998Y-113519286D01*
X114949998Y-113447857D01*
X114878570Y-113305000D01*
X114735713Y-113233571D01*
X114521427Y-113233571D01*
X114378570Y-113162143D01*
X114307141Y-113019286D01*
X114307141Y-112947857D01*
X114378570Y-112805000D01*
X114521427Y-112733571D01*
X114735713Y-112733571D01*
X114878570Y-112805000D01*
X115592856Y-113590714D02*
X115664284Y-113662143D01*
X115592856Y-113733571D01*
X115521427Y-113662143D01*
X115592856Y-113590714D01*
X115592856Y-113733571D01*
X115592856Y-112805000D02*
X115664284Y-112876429D01*
X115592856Y-112947857D01*
X115521427Y-112876429D01*
X115592856Y-112805000D01*
X115592856Y-112947857D01*
X117378570Y-112162143D02*
X116092856Y-114090714D01*
X118949999Y-112162143D02*
X117664285Y-114090714D01*
X120092857Y-112733571D02*
X120092857Y-113947857D01*
X120021428Y-114090714D01*
X119950000Y-114162143D01*
X119807143Y-114233571D01*
X119592857Y-114233571D01*
X119450000Y-114162143D01*
X120092857Y-113662143D02*
X119950000Y-113733571D01*
X119664286Y-113733571D01*
X119521428Y-113662143D01*
X119450000Y-113590714D01*
X119378571Y-113447857D01*
X119378571Y-113019286D01*
X119450000Y-112876429D01*
X119521428Y-112805000D01*
X119664286Y-112733571D01*
X119950000Y-112733571D01*
X120092857Y-112805000D01*
X120807143Y-113733571D02*
X120807143Y-112733571D01*
X120807143Y-112233571D02*
X120735714Y-112305000D01*
X120807143Y-112376429D01*
X120878571Y-112305000D01*
X120807143Y-112233571D01*
X120807143Y-112376429D01*
X121307143Y-112733571D02*
X121878572Y-112733571D01*
X121521429Y-112233571D02*
X121521429Y-113519286D01*
X121592857Y-113662143D01*
X121735715Y-113733571D01*
X121878572Y-113733571D01*
X122378572Y-113733571D02*
X122378572Y-112233571D01*
X123021429Y-113733571D02*
X123021429Y-112947857D01*
X122950000Y-112805000D01*
X122807143Y-112733571D01*
X122592858Y-112733571D01*
X122450000Y-112805000D01*
X122378572Y-112876429D01*
X124378572Y-112733571D02*
X124378572Y-113733571D01*
X123735715Y-112733571D02*
X123735715Y-113519286D01*
X123807143Y-113662143D01*
X123950001Y-113733571D01*
X124164286Y-113733571D01*
X124307143Y-113662143D01*
X124378572Y-113590714D01*
X125092858Y-113733571D02*
X125092858Y-112233571D01*
X125092858Y-112805000D02*
X125235715Y-112733571D01*
X125521429Y-112733571D01*
X125664286Y-112805000D01*
X125735715Y-112876429D01*
X125807144Y-113019286D01*
X125807144Y-113447857D01*
X125735715Y-113590714D01*
X125664286Y-113662143D01*
X125521429Y-113733571D01*
X125235715Y-113733571D01*
X125092858Y-113662143D01*
X126450001Y-113590714D02*
X126521429Y-113662143D01*
X126450001Y-113733571D01*
X126378572Y-113662143D01*
X126450001Y-113590714D01*
X126450001Y-113733571D01*
X127807144Y-113662143D02*
X127664287Y-113733571D01*
X127378573Y-113733571D01*
X127235715Y-113662143D01*
X127164287Y-113590714D01*
X127092858Y-113447857D01*
X127092858Y-113019286D01*
X127164287Y-112876429D01*
X127235715Y-112805000D01*
X127378573Y-112733571D01*
X127664287Y-112733571D01*
X127807144Y-112805000D01*
X128664287Y-113733571D02*
X128521429Y-113662143D01*
X128450001Y-113590714D01*
X128378572Y-113447857D01*
X128378572Y-113019286D01*
X128450001Y-112876429D01*
X128521429Y-112805000D01*
X128664287Y-112733571D01*
X128878572Y-112733571D01*
X129021429Y-112805000D01*
X129092858Y-112876429D01*
X129164287Y-113019286D01*
X129164287Y-113447857D01*
X129092858Y-113590714D01*
X129021429Y-113662143D01*
X128878572Y-113733571D01*
X128664287Y-113733571D01*
X129807144Y-113733571D02*
X129807144Y-112733571D01*
X129807144Y-112876429D02*
X129878572Y-112805000D01*
X130021430Y-112733571D01*
X130235715Y-112733571D01*
X130378572Y-112805000D01*
X130450001Y-112947857D01*
X130450001Y-113733571D01*
X130450001Y-112947857D02*
X130521430Y-112805000D01*
X130664287Y-112733571D01*
X130878572Y-112733571D01*
X131021430Y-112805000D01*
X131092858Y-112947857D01*
X131092858Y-113733571D01*
X132878572Y-112162143D02*
X131592858Y-114090714D01*
X133307144Y-113662143D02*
X133450001Y-113733571D01*
X133735716Y-113733571D01*
X133878573Y-113662143D01*
X133950001Y-113519286D01*
X133950001Y-113447857D01*
X133878573Y-113305000D01*
X133735716Y-113233571D01*
X133521430Y-113233571D01*
X133378573Y-113162143D01*
X133307144Y-113019286D01*
X133307144Y-112947857D01*
X133378573Y-112805000D01*
X133521430Y-112733571D01*
X133735716Y-112733571D01*
X133878573Y-112805000D01*
X134378573Y-112733571D02*
X134950002Y-112733571D01*
X134592859Y-112233571D02*
X134592859Y-113519286D01*
X134664287Y-113662143D01*
X134807145Y-113733571D01*
X134950002Y-113733571D01*
X135450002Y-113733571D02*
X135450002Y-112733571D01*
X135450002Y-113019286D02*
X135521430Y-112876429D01*
X135592859Y-112805000D01*
X135735716Y-112733571D01*
X135878573Y-112733571D01*
X136592859Y-113733571D02*
X136450001Y-113662143D01*
X136378573Y-113590714D01*
X136307144Y-113447857D01*
X136307144Y-113019286D01*
X136378573Y-112876429D01*
X136450001Y-112805000D01*
X136592859Y-112733571D01*
X136807144Y-112733571D01*
X136950001Y-112805000D01*
X137021430Y-112876429D01*
X137092859Y-113019286D01*
X137092859Y-113447857D01*
X137021430Y-113590714D01*
X136950001Y-113662143D01*
X136807144Y-113733571D01*
X136592859Y-113733571D01*
X137735716Y-112733571D02*
X137735716Y-113733571D01*
X137735716Y-112876429D02*
X137807144Y-112805000D01*
X137950002Y-112733571D01*
X138164287Y-112733571D01*
X138307144Y-112805000D01*
X138378573Y-112947857D01*
X138378573Y-113733571D01*
X138878573Y-112733571D02*
X139450002Y-112733571D01*
X139092859Y-112233571D02*
X139092859Y-113519286D01*
X139164287Y-113662143D01*
X139307145Y-113733571D01*
X139450002Y-113733571D01*
X139950002Y-113733571D02*
X139950002Y-112733571D01*
X139950002Y-112233571D02*
X139878573Y-112305000D01*
X139950002Y-112376429D01*
X140021430Y-112305000D01*
X139950002Y-112233571D01*
X139950002Y-112376429D01*
X141307145Y-112733571D02*
X141307145Y-113733571D01*
X140664288Y-112733571D02*
X140664288Y-113519286D01*
X140735716Y-113662143D01*
X140878574Y-113733571D01*
X141092859Y-113733571D01*
X141235716Y-113662143D01*
X141307145Y-113590714D01*
X142021431Y-113733571D02*
X142021431Y-112733571D01*
X142021431Y-112876429D02*
X142092859Y-112805000D01*
X142235717Y-112733571D01*
X142450002Y-112733571D01*
X142592859Y-112805000D01*
X142664288Y-112947857D01*
X142664288Y-113733571D01*
X142664288Y-112947857D02*
X142735717Y-112805000D01*
X142878574Y-112733571D01*
X143092859Y-112733571D01*
X143235717Y-112805000D01*
X143307145Y-112947857D01*
X143307145Y-113733571D01*
X144735717Y-112233571D02*
X144021431Y-112233571D01*
X143950002Y-112947857D01*
X144021431Y-112876429D01*
X144164288Y-112805000D01*
X144521431Y-112805000D01*
X144664288Y-112876429D01*
X144735717Y-112947857D01*
X144807145Y-113090714D01*
X144807145Y-113447857D01*
X144735717Y-113590714D01*
X144664288Y-113662143D01*
X144521431Y-113733571D01*
X144164288Y-113733571D01*
X144021431Y-113662143D01*
X143950002Y-113590714D01*
X146521430Y-112162143D02*
X145235716Y-114090714D01*
X147592859Y-113662143D02*
X147450002Y-113733571D01*
X147164288Y-113733571D01*
X147021431Y-113662143D01*
X146950002Y-113519286D01*
X146950002Y-112947857D01*
X147021431Y-112805000D01*
X147164288Y-112733571D01*
X147450002Y-112733571D01*
X147592859Y-112805000D01*
X147664288Y-112947857D01*
X147664288Y-113090714D01*
X146950002Y-113233571D01*
X148235716Y-113662143D02*
X148378573Y-113733571D01*
X148664288Y-113733571D01*
X148807145Y-113662143D01*
X148878573Y-113519286D01*
X148878573Y-113447857D01*
X148807145Y-113305000D01*
X148664288Y-113233571D01*
X148450002Y-113233571D01*
X148307145Y-113162143D01*
X148235716Y-113019286D01*
X148235716Y-112947857D01*
X148307145Y-112805000D01*
X148450002Y-112733571D01*
X148664288Y-112733571D01*
X148807145Y-112805000D01*
X149521431Y-112733571D02*
X149521431Y-114233571D01*
X149521431Y-112805000D02*
X149664288Y-112733571D01*
X149950002Y-112733571D01*
X150092859Y-112805000D01*
X150164288Y-112876429D01*
X150235717Y-113019286D01*
X150235717Y-113447857D01*
X150164288Y-113590714D01*
X150092859Y-113662143D01*
X149950002Y-113733571D01*
X149664288Y-113733571D01*
X149521431Y-113662143D01*
X150878574Y-113733571D02*
X150878574Y-112233571D01*
X150878574Y-112947857D02*
X151735717Y-112947857D01*
X151735717Y-113733571D02*
X151735717Y-112233571D01*
X153092860Y-113733571D02*
X153092860Y-112947857D01*
X153021431Y-112805000D01*
X152878574Y-112733571D01*
X152592860Y-112733571D01*
X152450003Y-112805000D01*
X153092860Y-113662143D02*
X152950003Y-113733571D01*
X152592860Y-113733571D01*
X152450003Y-113662143D01*
X152378574Y-113519286D01*
X152378574Y-113376429D01*
X152450003Y-113233571D01*
X152592860Y-113162143D01*
X152950003Y-113162143D01*
X153092860Y-113090714D01*
X153807146Y-112733571D02*
X153807146Y-113733571D01*
X153807146Y-112876429D02*
X153878574Y-112805000D01*
X154021432Y-112733571D01*
X154235717Y-112733571D01*
X154378574Y-112805000D01*
X154450003Y-112947857D01*
X154450003Y-113733571D01*
X155807146Y-112733571D02*
X155807146Y-113947857D01*
X155735717Y-114090714D01*
X155664289Y-114162143D01*
X155521432Y-114233571D01*
X155307146Y-114233571D01*
X155164289Y-114162143D01*
X155807146Y-113662143D02*
X155664289Y-113733571D01*
X155378575Y-113733571D01*
X155235717Y-113662143D01*
X155164289Y-113590714D01*
X155092860Y-113447857D01*
X155092860Y-113019286D01*
X155164289Y-112876429D01*
X155235717Y-112805000D01*
X155378575Y-112733571D01*
X155664289Y-112733571D01*
X155807146Y-112805000D01*
X157164289Y-112733571D02*
X157164289Y-113733571D01*
X156521432Y-112733571D02*
X156521432Y-113519286D01*
X156592860Y-113662143D01*
X156735718Y-113733571D01*
X156950003Y-113733571D01*
X157092860Y-113662143D01*
X157164289Y-113590714D01*
X158092861Y-113733571D02*
X157950003Y-113662143D01*
X157878575Y-113519286D01*
X157878575Y-112233571D01*
X158521432Y-112233571D02*
X158878575Y-113733571D01*
X159164289Y-112662143D01*
X159450003Y-113733571D01*
X159807146Y-112233571D01*
X160592861Y-113733571D02*
X160450003Y-113662143D01*
X160378575Y-113590714D01*
X160307146Y-113447857D01*
X160307146Y-113019286D01*
X160378575Y-112876429D01*
X160450003Y-112805000D01*
X160592861Y-112733571D01*
X160807146Y-112733571D01*
X160950003Y-112805000D01*
X161021432Y-112876429D01*
X161092861Y-113019286D01*
X161092861Y-113447857D01*
X161021432Y-113590714D01*
X160950003Y-113662143D01*
X160807146Y-113733571D01*
X160592861Y-113733571D01*
X161735718Y-113733571D02*
X161735718Y-112733571D01*
X161735718Y-113019286D02*
X161807146Y-112876429D01*
X161878575Y-112805000D01*
X162021432Y-112733571D01*
X162164289Y-112733571D01*
X163307146Y-113733571D02*
X163307146Y-112233571D01*
X163307146Y-113662143D02*
X163164289Y-113733571D01*
X162878575Y-113733571D01*
X162735717Y-113662143D01*
X162664289Y-113590714D01*
X162592860Y-113447857D01*
X162592860Y-113019286D01*
X162664289Y-112876429D01*
X162735717Y-112805000D01*
X162878575Y-112733571D01*
X163164289Y-112733571D01*
X163307146Y-112805000D01*
X164878575Y-113590714D02*
X164807146Y-113662143D01*
X164592860Y-113733571D01*
X164450003Y-113733571D01*
X164235718Y-113662143D01*
X164092860Y-113519286D01*
X164021432Y-113376429D01*
X163950003Y-113090714D01*
X163950003Y-112876429D01*
X164021432Y-112590714D01*
X164092860Y-112447857D01*
X164235718Y-112305000D01*
X164450003Y-112233571D01*
X164592860Y-112233571D01*
X164807146Y-112305000D01*
X164878575Y-112376429D01*
X165735718Y-113733571D02*
X165592860Y-113662143D01*
X165521432Y-113519286D01*
X165521432Y-112233571D01*
X166521432Y-113733571D02*
X166378574Y-113662143D01*
X166307146Y-113590714D01*
X166235717Y-113447857D01*
X166235717Y-113019286D01*
X166307146Y-112876429D01*
X166378574Y-112805000D01*
X166521432Y-112733571D01*
X166735717Y-112733571D01*
X166878574Y-112805000D01*
X166950003Y-112876429D01*
X167021432Y-113019286D01*
X167021432Y-113447857D01*
X166950003Y-113590714D01*
X166878574Y-113662143D01*
X166735717Y-113733571D01*
X166521432Y-113733571D01*
X168307146Y-113662143D02*
X168164289Y-113733571D01*
X167878575Y-113733571D01*
X167735717Y-113662143D01*
X167664289Y-113590714D01*
X167592860Y-113447857D01*
X167592860Y-113019286D01*
X167664289Y-112876429D01*
X167735717Y-112805000D01*
X167878575Y-112733571D01*
X168164289Y-112733571D01*
X168307146Y-112805000D01*
X168950003Y-113733571D02*
X168950003Y-112233571D01*
X169092860Y-113162143D02*
X169521431Y-113733571D01*
X169521431Y-112733571D02*
X168950003Y-113305000D01*
D12*
X85090000Y-88900000D02*
X87630000Y-88900000D01*
X86360000Y-87630000D02*
X86360000Y-90170000D01*
X78740000Y-64770000D02*
X78740000Y-71120000D01*
X78740000Y-71120000D02*
X93980000Y-71120000D01*
X93980000Y-71120000D02*
X93980000Y-64770000D01*
X90170000Y-113030000D02*
X96520000Y-113030000D01*
X76200000Y-113030000D02*
X82550000Y-113030000D01*
X82550000Y-110490000D02*
X82550000Y-114300000D01*
X82550000Y-114300000D02*
X90170000Y-114300000D01*
X90170000Y-114300000D02*
X90170000Y-110490000D01*
X90170000Y-110490000D02*
X82550000Y-110490000D01*
X99060000Y-69850000D02*
X96520000Y-69850000D01*
X96520000Y-69850000D02*
X96520000Y-107950000D01*
X96520000Y-107950000D02*
X99060000Y-107950000D01*
X73660000Y-69850000D02*
X76200000Y-69850000D01*
X76200000Y-69850000D02*
X76200000Y-107950000D01*
X76200000Y-107950000D02*
X73660000Y-107950000D01*
X96520000Y-64770000D02*
X76200000Y-64770000D01*
X99060000Y-110490000D02*
X99060000Y-67310000D01*
X73660000Y-67310000D02*
X73660000Y-110490000D01*
X99060000Y-67310000D02*
G75*
G03X96520000Y-64770000I-2540000J0D01*
G01*
X76200000Y-64770000D02*
G75*
G03X73660000Y-67310000I0J-2540000D01*
G01*
X96520000Y-113030000D02*
G75*
G03X99060000Y-110490000I0J2540000D01*
G01*
X73660000Y-110490000D02*
G75*
G03X76200000Y-113030000I2540000J0D01*
G01*
D13*
X108710000Y-103180000D02*
X108710000Y-102250000D01*
X108710000Y-100020000D02*
X108710000Y-100950000D01*
X108710000Y-100020000D02*
X106550000Y-100020000D01*
X108710000Y-103180000D02*
X107250000Y-103180000D01*
X108710000Y-96830000D02*
X108710000Y-95900000D01*
X108710000Y-93670000D02*
X108710000Y-94600000D01*
X108710000Y-93670000D02*
X106550000Y-93670000D01*
X108710000Y-96830000D02*
X107250000Y-96830000D01*
X108710000Y-90480000D02*
X108710000Y-89550000D01*
X108710000Y-87320000D02*
X108710000Y-88250000D01*
X108710000Y-87320000D02*
X106550000Y-87320000D01*
X108710000Y-90480000D02*
X107250000Y-90480000D01*
X108710000Y-76510000D02*
X108710000Y-75580000D01*
X108710000Y-73350000D02*
X108710000Y-74280000D01*
X108710000Y-73350000D02*
X106550000Y-73350000D01*
X108710000Y-76510000D02*
X107250000Y-76510000D01*
X101800000Y-102600000D02*
X101800000Y-100600000D01*
X103940000Y-100600000D02*
X103940000Y-102600000D01*
X101800000Y-96250000D02*
X101800000Y-94250000D01*
X103940000Y-94250000D02*
X103940000Y-96250000D01*
X101800000Y-89900000D02*
X101800000Y-87900000D01*
X103940000Y-87900000D02*
X103940000Y-89900000D01*
X101800000Y-75930000D02*
X101800000Y-73930000D01*
X103940000Y-73930000D02*
X103940000Y-75930000D01*
X111960000Y-102600000D02*
X111960000Y-100600000D01*
X114100000Y-100600000D02*
X114100000Y-102600000D01*
X111960000Y-96250000D02*
X111960000Y-94250000D01*
X114100000Y-94250000D02*
X114100000Y-96250000D01*
X111960000Y-89900000D02*
X111960000Y-87900000D01*
X114100000Y-87900000D02*
X114100000Y-89900000D01*
X111960000Y-75930000D02*
X111960000Y-73930000D01*
X114100000Y-73930000D02*
X114100000Y-75930000D01*
X104140000Y-99315000D02*
X106680000Y-99315000D01*
X106680000Y-97535000D02*
X104140000Y-97535000D01*
X106680000Y-97535000D02*
X106680000Y-99315000D01*
X104140000Y-99315000D02*
X104140000Y-97535000D01*
X104140000Y-92965000D02*
X106680000Y-92965000D01*
X106680000Y-91185000D02*
X104140000Y-91185000D01*
X106680000Y-91185000D02*
X106680000Y-92965000D01*
X104140000Y-92965000D02*
X104140000Y-91185000D01*
X104140000Y-105665000D02*
X106680000Y-105665000D01*
X106680000Y-103885000D02*
X104140000Y-103885000D01*
X106680000Y-103885000D02*
X106680000Y-105665000D01*
X104140000Y-105665000D02*
X104140000Y-103885000D01*
X104140000Y-78995000D02*
X106680000Y-78995000D01*
X106680000Y-77215000D02*
X104140000Y-77215000D01*
X106680000Y-77215000D02*
X106680000Y-78995000D01*
X104140000Y-78995000D02*
X104140000Y-77215000D01*
X82550000Y-145030000D02*
X73910000Y-145030000D01*
X90930000Y-145030000D02*
X85850000Y-145030000D01*
X82550000Y-157230000D02*
X73910000Y-157230000D01*
X90930000Y-157230000D02*
X85850000Y-157230000D01*
X73910000Y-157230000D02*
X73910000Y-145030000D01*
X90930000Y-145030000D02*
X90930000Y-157230000D01*
D14*
X135890000Y-156210000D02*
X135890000Y-148590000D01*
X133350000Y-156210000D02*
X133350000Y-148590000D01*
X133070000Y-159030000D02*
X133070000Y-157480000D01*
X135890000Y-148590000D02*
X133350000Y-148590000D01*
X133350000Y-156210000D02*
X135890000Y-156210000D01*
X136170000Y-157480000D02*
X136170000Y-159030000D01*
X136170000Y-159030000D02*
X133070000Y-159030000D01*
X85598095Y-65492381D02*
X85598095Y-66301905D01*
X85645714Y-66397143D01*
X85693333Y-66444762D01*
X85788571Y-66492381D01*
X85979048Y-66492381D01*
X86074286Y-66444762D01*
X86121905Y-66397143D01*
X86169524Y-66301905D01*
X86169524Y-65492381D01*
X86598095Y-65587619D02*
X86645714Y-65540000D01*
X86740952Y-65492381D01*
X86979048Y-65492381D01*
X87074286Y-65540000D01*
X87121905Y-65587619D01*
X87169524Y-65682857D01*
X87169524Y-65778095D01*
X87121905Y-65920952D01*
X86550476Y-66492381D01*
X87169524Y-66492381D01*
X82288571Y-86812381D02*
X82288571Y-85812381D01*
X82860000Y-86812381D01*
X82860000Y-85812381D01*
X83479047Y-86812381D02*
X83383809Y-86764762D01*
X83336190Y-86717143D01*
X83288571Y-86621905D01*
X83288571Y-86336190D01*
X83336190Y-86240952D01*
X83383809Y-86193333D01*
X83479047Y-86145714D01*
X83621905Y-86145714D01*
X83717143Y-86193333D01*
X83764762Y-86240952D01*
X83812381Y-86336190D01*
X83812381Y-86621905D01*
X83764762Y-86717143D01*
X83717143Y-86764762D01*
X83621905Y-86812381D01*
X83479047Y-86812381D01*
X84669524Y-86812381D02*
X84669524Y-85812381D01*
X84669524Y-86764762D02*
X84574286Y-86812381D01*
X84383809Y-86812381D01*
X84288571Y-86764762D01*
X84240952Y-86717143D01*
X84193333Y-86621905D01*
X84193333Y-86336190D01*
X84240952Y-86240952D01*
X84288571Y-86193333D01*
X84383809Y-86145714D01*
X84574286Y-86145714D01*
X84669524Y-86193333D01*
X85526667Y-86764762D02*
X85431429Y-86812381D01*
X85240952Y-86812381D01*
X85145714Y-86764762D01*
X85098095Y-86669524D01*
X85098095Y-86288571D01*
X85145714Y-86193333D01*
X85240952Y-86145714D01*
X85431429Y-86145714D01*
X85526667Y-86193333D01*
X85574286Y-86288571D01*
X85574286Y-86383810D01*
X85098095Y-86479048D01*
X86002857Y-86812381D02*
X86002857Y-85812381D01*
X86336191Y-86526667D01*
X86669524Y-85812381D01*
X86669524Y-86812381D01*
X87717143Y-86717143D02*
X87669524Y-86764762D01*
X87526667Y-86812381D01*
X87431429Y-86812381D01*
X87288571Y-86764762D01*
X87193333Y-86669524D01*
X87145714Y-86574286D01*
X87098095Y-86383810D01*
X87098095Y-86240952D01*
X87145714Y-86050476D01*
X87193333Y-85955238D01*
X87288571Y-85860000D01*
X87431429Y-85812381D01*
X87526667Y-85812381D01*
X87669524Y-85860000D01*
X87717143Y-85907619D01*
X88145714Y-85812381D02*
X88145714Y-86621905D01*
X88193333Y-86717143D01*
X88240952Y-86764762D01*
X88336190Y-86812381D01*
X88526667Y-86812381D01*
X88621905Y-86764762D01*
X88669524Y-86717143D01*
X88717143Y-86621905D01*
X88717143Y-85812381D01*
X89098095Y-86145714D02*
X89336190Y-86812381D01*
X89574286Y-86145714D01*
X89907619Y-85907619D02*
X89955238Y-85860000D01*
X90050476Y-85812381D01*
X90288572Y-85812381D01*
X90383810Y-85860000D01*
X90431429Y-85907619D01*
X90479048Y-86002857D01*
X90479048Y-86098095D01*
X90431429Y-86240952D01*
X89860000Y-86812381D01*
X90479048Y-86812381D01*
X77755715Y-71572381D02*
X77184286Y-71572381D01*
X77470000Y-71572381D02*
X77470000Y-70572381D01*
X77374762Y-70715238D01*
X77279524Y-70810476D01*
X77184286Y-70858095D01*
X107854762Y-99647619D02*
X107759524Y-99600000D01*
X107664286Y-99504762D01*
X107521429Y-99361905D01*
X107426190Y-99314286D01*
X107330952Y-99314286D01*
X107378571Y-99552381D02*
X107283333Y-99504762D01*
X107188095Y-99409524D01*
X107140476Y-99219048D01*
X107140476Y-98885714D01*
X107188095Y-98695238D01*
X107283333Y-98600000D01*
X107378571Y-98552381D01*
X107569048Y-98552381D01*
X107664286Y-98600000D01*
X107759524Y-98695238D01*
X107807143Y-98885714D01*
X107807143Y-99219048D01*
X107759524Y-99409524D01*
X107664286Y-99504762D01*
X107569048Y-99552381D01*
X107378571Y-99552381D01*
X108759524Y-99552381D02*
X108188095Y-99552381D01*
X108473809Y-99552381D02*
X108473809Y-98552381D01*
X108378571Y-98695238D01*
X108283333Y-98790476D01*
X108188095Y-98838095D01*
D12*
X107430239Y-104104286D02*
X107501668Y-104128095D01*
X107525477Y-104151905D01*
X107549287Y-104199524D01*
X107549287Y-104270952D01*
X107525477Y-104318571D01*
X107501668Y-104342381D01*
X107454049Y-104366190D01*
X107263573Y-104366190D01*
X107263573Y-103866190D01*
X107430239Y-103866190D01*
X107477858Y-103890000D01*
X107501668Y-103913810D01*
X107525477Y-103961429D01*
X107525477Y-104009048D01*
X107501668Y-104056667D01*
X107477858Y-104080476D01*
X107430239Y-104104286D01*
X107263573Y-104104286D01*
X107739763Y-104342381D02*
X107811192Y-104366190D01*
X107930239Y-104366190D01*
X107977858Y-104342381D01*
X108001668Y-104318571D01*
X108025477Y-104270952D01*
X108025477Y-104223333D01*
X108001668Y-104175714D01*
X107977858Y-104151905D01*
X107930239Y-104128095D01*
X107835001Y-104104286D01*
X107787382Y-104080476D01*
X107763573Y-104056667D01*
X107739763Y-104009048D01*
X107739763Y-103961429D01*
X107763573Y-103913810D01*
X107787382Y-103890000D01*
X107835001Y-103866190D01*
X107954049Y-103866190D01*
X108025477Y-103890000D01*
X108215953Y-104342381D02*
X108287382Y-104366190D01*
X108406429Y-104366190D01*
X108454048Y-104342381D01*
X108477858Y-104318571D01*
X108501667Y-104270952D01*
X108501667Y-104223333D01*
X108477858Y-104175714D01*
X108454048Y-104151905D01*
X108406429Y-104128095D01*
X108311191Y-104104286D01*
X108263572Y-104080476D01*
X108239763Y-104056667D01*
X108215953Y-104009048D01*
X108215953Y-103961429D01*
X108239763Y-103913810D01*
X108263572Y-103890000D01*
X108311191Y-103866190D01*
X108430239Y-103866190D01*
X108501667Y-103890000D01*
X108977857Y-104366190D02*
X108692143Y-104366190D01*
X108835000Y-104366190D02*
X108835000Y-103866190D01*
X108787381Y-103937619D01*
X108739762Y-103985238D01*
X108692143Y-104009048D01*
X109144524Y-103866190D02*
X109454047Y-103866190D01*
X109287381Y-104056667D01*
X109358809Y-104056667D01*
X109406428Y-104080476D01*
X109430238Y-104104286D01*
X109454047Y-104151905D01*
X109454047Y-104270952D01*
X109430238Y-104318571D01*
X109406428Y-104342381D01*
X109358809Y-104366190D01*
X109215952Y-104366190D01*
X109168333Y-104342381D01*
X109144524Y-104318571D01*
X109739761Y-104080476D02*
X109692142Y-104056667D01*
X109668333Y-104032857D01*
X109644523Y-103985238D01*
X109644523Y-103961429D01*
X109668333Y-103913810D01*
X109692142Y-103890000D01*
X109739761Y-103866190D01*
X109834999Y-103866190D01*
X109882618Y-103890000D01*
X109906428Y-103913810D01*
X109930237Y-103961429D01*
X109930237Y-103985238D01*
X109906428Y-104032857D01*
X109882618Y-104056667D01*
X109834999Y-104080476D01*
X109739761Y-104080476D01*
X109692142Y-104104286D01*
X109668333Y-104128095D01*
X109644523Y-104175714D01*
X109644523Y-104270952D01*
X109668333Y-104318571D01*
X109692142Y-104342381D01*
X109739761Y-104366190D01*
X109834999Y-104366190D01*
X109882618Y-104342381D01*
X109906428Y-104318571D01*
X109930237Y-104270952D01*
X109930237Y-104175714D01*
X109906428Y-104128095D01*
X109882618Y-104104286D01*
X109834999Y-104080476D01*
D14*
X107854762Y-93297619D02*
X107759524Y-93250000D01*
X107664286Y-93154762D01*
X107521429Y-93011905D01*
X107426190Y-92964286D01*
X107330952Y-92964286D01*
X107378571Y-93202381D02*
X107283333Y-93154762D01*
X107188095Y-93059524D01*
X107140476Y-92869048D01*
X107140476Y-92535714D01*
X107188095Y-92345238D01*
X107283333Y-92250000D01*
X107378571Y-92202381D01*
X107569048Y-92202381D01*
X107664286Y-92250000D01*
X107759524Y-92345238D01*
X107807143Y-92535714D01*
X107807143Y-92869048D01*
X107759524Y-93059524D01*
X107664286Y-93154762D01*
X107569048Y-93202381D01*
X107378571Y-93202381D01*
X108188095Y-92297619D02*
X108235714Y-92250000D01*
X108330952Y-92202381D01*
X108569048Y-92202381D01*
X108664286Y-92250000D01*
X108711905Y-92297619D01*
X108759524Y-92392857D01*
X108759524Y-92488095D01*
X108711905Y-92630952D01*
X108140476Y-93202381D01*
X108759524Y-93202381D01*
D12*
X107430239Y-97754286D02*
X107501668Y-97778095D01*
X107525477Y-97801905D01*
X107549287Y-97849524D01*
X107549287Y-97920952D01*
X107525477Y-97968571D01*
X107501668Y-97992381D01*
X107454049Y-98016190D01*
X107263573Y-98016190D01*
X107263573Y-97516190D01*
X107430239Y-97516190D01*
X107477858Y-97540000D01*
X107501668Y-97563810D01*
X107525477Y-97611429D01*
X107525477Y-97659048D01*
X107501668Y-97706667D01*
X107477858Y-97730476D01*
X107430239Y-97754286D01*
X107263573Y-97754286D01*
X107739763Y-97992381D02*
X107811192Y-98016190D01*
X107930239Y-98016190D01*
X107977858Y-97992381D01*
X108001668Y-97968571D01*
X108025477Y-97920952D01*
X108025477Y-97873333D01*
X108001668Y-97825714D01*
X107977858Y-97801905D01*
X107930239Y-97778095D01*
X107835001Y-97754286D01*
X107787382Y-97730476D01*
X107763573Y-97706667D01*
X107739763Y-97659048D01*
X107739763Y-97611429D01*
X107763573Y-97563810D01*
X107787382Y-97540000D01*
X107835001Y-97516190D01*
X107954049Y-97516190D01*
X108025477Y-97540000D01*
X108215953Y-97992381D02*
X108287382Y-98016190D01*
X108406429Y-98016190D01*
X108454048Y-97992381D01*
X108477858Y-97968571D01*
X108501667Y-97920952D01*
X108501667Y-97873333D01*
X108477858Y-97825714D01*
X108454048Y-97801905D01*
X108406429Y-97778095D01*
X108311191Y-97754286D01*
X108263572Y-97730476D01*
X108239763Y-97706667D01*
X108215953Y-97659048D01*
X108215953Y-97611429D01*
X108239763Y-97563810D01*
X108263572Y-97540000D01*
X108311191Y-97516190D01*
X108430239Y-97516190D01*
X108501667Y-97540000D01*
X108977857Y-98016190D02*
X108692143Y-98016190D01*
X108835000Y-98016190D02*
X108835000Y-97516190D01*
X108787381Y-97587619D01*
X108739762Y-97635238D01*
X108692143Y-97659048D01*
X109144524Y-97516190D02*
X109454047Y-97516190D01*
X109287381Y-97706667D01*
X109358809Y-97706667D01*
X109406428Y-97730476D01*
X109430238Y-97754286D01*
X109454047Y-97801905D01*
X109454047Y-97920952D01*
X109430238Y-97968571D01*
X109406428Y-97992381D01*
X109358809Y-98016190D01*
X109215952Y-98016190D01*
X109168333Y-97992381D01*
X109144524Y-97968571D01*
X109739761Y-97730476D02*
X109692142Y-97706667D01*
X109668333Y-97682857D01*
X109644523Y-97635238D01*
X109644523Y-97611429D01*
X109668333Y-97563810D01*
X109692142Y-97540000D01*
X109739761Y-97516190D01*
X109834999Y-97516190D01*
X109882618Y-97540000D01*
X109906428Y-97563810D01*
X109930237Y-97611429D01*
X109930237Y-97635238D01*
X109906428Y-97682857D01*
X109882618Y-97706667D01*
X109834999Y-97730476D01*
X109739761Y-97730476D01*
X109692142Y-97754286D01*
X109668333Y-97778095D01*
X109644523Y-97825714D01*
X109644523Y-97920952D01*
X109668333Y-97968571D01*
X109692142Y-97992381D01*
X109739761Y-98016190D01*
X109834999Y-98016190D01*
X109882618Y-97992381D01*
X109906428Y-97968571D01*
X109930237Y-97920952D01*
X109930237Y-97825714D01*
X109906428Y-97778095D01*
X109882618Y-97754286D01*
X109834999Y-97730476D01*
D14*
X107854762Y-86947619D02*
X107759524Y-86900000D01*
X107664286Y-86804762D01*
X107521429Y-86661905D01*
X107426190Y-86614286D01*
X107330952Y-86614286D01*
X107378571Y-86852381D02*
X107283333Y-86804762D01*
X107188095Y-86709524D01*
X107140476Y-86519048D01*
X107140476Y-86185714D01*
X107188095Y-85995238D01*
X107283333Y-85900000D01*
X107378571Y-85852381D01*
X107569048Y-85852381D01*
X107664286Y-85900000D01*
X107759524Y-85995238D01*
X107807143Y-86185714D01*
X107807143Y-86519048D01*
X107759524Y-86709524D01*
X107664286Y-86804762D01*
X107569048Y-86852381D01*
X107378571Y-86852381D01*
X108140476Y-85852381D02*
X108759524Y-85852381D01*
X108426190Y-86233333D01*
X108569048Y-86233333D01*
X108664286Y-86280952D01*
X108711905Y-86328571D01*
X108759524Y-86423810D01*
X108759524Y-86661905D01*
X108711905Y-86757143D01*
X108664286Y-86804762D01*
X108569048Y-86852381D01*
X108283333Y-86852381D01*
X108188095Y-86804762D01*
X108140476Y-86757143D01*
D12*
X107430239Y-91404286D02*
X107501668Y-91428095D01*
X107525477Y-91451905D01*
X107549287Y-91499524D01*
X107549287Y-91570952D01*
X107525477Y-91618571D01*
X107501668Y-91642381D01*
X107454049Y-91666190D01*
X107263573Y-91666190D01*
X107263573Y-91166190D01*
X107430239Y-91166190D01*
X107477858Y-91190000D01*
X107501668Y-91213810D01*
X107525477Y-91261429D01*
X107525477Y-91309048D01*
X107501668Y-91356667D01*
X107477858Y-91380476D01*
X107430239Y-91404286D01*
X107263573Y-91404286D01*
X107739763Y-91642381D02*
X107811192Y-91666190D01*
X107930239Y-91666190D01*
X107977858Y-91642381D01*
X108001668Y-91618571D01*
X108025477Y-91570952D01*
X108025477Y-91523333D01*
X108001668Y-91475714D01*
X107977858Y-91451905D01*
X107930239Y-91428095D01*
X107835001Y-91404286D01*
X107787382Y-91380476D01*
X107763573Y-91356667D01*
X107739763Y-91309048D01*
X107739763Y-91261429D01*
X107763573Y-91213810D01*
X107787382Y-91190000D01*
X107835001Y-91166190D01*
X107954049Y-91166190D01*
X108025477Y-91190000D01*
X108215953Y-91642381D02*
X108287382Y-91666190D01*
X108406429Y-91666190D01*
X108454048Y-91642381D01*
X108477858Y-91618571D01*
X108501667Y-91570952D01*
X108501667Y-91523333D01*
X108477858Y-91475714D01*
X108454048Y-91451905D01*
X108406429Y-91428095D01*
X108311191Y-91404286D01*
X108263572Y-91380476D01*
X108239763Y-91356667D01*
X108215953Y-91309048D01*
X108215953Y-91261429D01*
X108239763Y-91213810D01*
X108263572Y-91190000D01*
X108311191Y-91166190D01*
X108430239Y-91166190D01*
X108501667Y-91190000D01*
X108977857Y-91666190D02*
X108692143Y-91666190D01*
X108835000Y-91666190D02*
X108835000Y-91166190D01*
X108787381Y-91237619D01*
X108739762Y-91285238D01*
X108692143Y-91309048D01*
X109144524Y-91166190D02*
X109454047Y-91166190D01*
X109287381Y-91356667D01*
X109358809Y-91356667D01*
X109406428Y-91380476D01*
X109430238Y-91404286D01*
X109454047Y-91451905D01*
X109454047Y-91570952D01*
X109430238Y-91618571D01*
X109406428Y-91642381D01*
X109358809Y-91666190D01*
X109215952Y-91666190D01*
X109168333Y-91642381D01*
X109144524Y-91618571D01*
X109739761Y-91380476D02*
X109692142Y-91356667D01*
X109668333Y-91332857D01*
X109644523Y-91285238D01*
X109644523Y-91261429D01*
X109668333Y-91213810D01*
X109692142Y-91190000D01*
X109739761Y-91166190D01*
X109834999Y-91166190D01*
X109882618Y-91190000D01*
X109906428Y-91213810D01*
X109930237Y-91261429D01*
X109930237Y-91285238D01*
X109906428Y-91332857D01*
X109882618Y-91356667D01*
X109834999Y-91380476D01*
X109739761Y-91380476D01*
X109692142Y-91404286D01*
X109668333Y-91428095D01*
X109644523Y-91475714D01*
X109644523Y-91570952D01*
X109668333Y-91618571D01*
X109692142Y-91642381D01*
X109739761Y-91666190D01*
X109834999Y-91666190D01*
X109882618Y-91642381D01*
X109906428Y-91618571D01*
X109930237Y-91570952D01*
X109930237Y-91475714D01*
X109906428Y-91428095D01*
X109882618Y-91404286D01*
X109834999Y-91380476D01*
D14*
X107854762Y-72977619D02*
X107759524Y-72930000D01*
X107664286Y-72834762D01*
X107521429Y-72691905D01*
X107426190Y-72644286D01*
X107330952Y-72644286D01*
X107378571Y-72882381D02*
X107283333Y-72834762D01*
X107188095Y-72739524D01*
X107140476Y-72549048D01*
X107140476Y-72215714D01*
X107188095Y-72025238D01*
X107283333Y-71930000D01*
X107378571Y-71882381D01*
X107569048Y-71882381D01*
X107664286Y-71930000D01*
X107759524Y-72025238D01*
X107807143Y-72215714D01*
X107807143Y-72549048D01*
X107759524Y-72739524D01*
X107664286Y-72834762D01*
X107569048Y-72882381D01*
X107378571Y-72882381D01*
X108664286Y-72215714D02*
X108664286Y-72882381D01*
X108426190Y-71834762D02*
X108188095Y-72549048D01*
X108807143Y-72549048D01*
D12*
X107430239Y-77434286D02*
X107501668Y-77458095D01*
X107525477Y-77481905D01*
X107549287Y-77529524D01*
X107549287Y-77600952D01*
X107525477Y-77648571D01*
X107501668Y-77672381D01*
X107454049Y-77696190D01*
X107263573Y-77696190D01*
X107263573Y-77196190D01*
X107430239Y-77196190D01*
X107477858Y-77220000D01*
X107501668Y-77243810D01*
X107525477Y-77291429D01*
X107525477Y-77339048D01*
X107501668Y-77386667D01*
X107477858Y-77410476D01*
X107430239Y-77434286D01*
X107263573Y-77434286D01*
X107739763Y-77672381D02*
X107811192Y-77696190D01*
X107930239Y-77696190D01*
X107977858Y-77672381D01*
X108001668Y-77648571D01*
X108025477Y-77600952D01*
X108025477Y-77553333D01*
X108001668Y-77505714D01*
X107977858Y-77481905D01*
X107930239Y-77458095D01*
X107835001Y-77434286D01*
X107787382Y-77410476D01*
X107763573Y-77386667D01*
X107739763Y-77339048D01*
X107739763Y-77291429D01*
X107763573Y-77243810D01*
X107787382Y-77220000D01*
X107835001Y-77196190D01*
X107954049Y-77196190D01*
X108025477Y-77220000D01*
X108215953Y-77672381D02*
X108287382Y-77696190D01*
X108406429Y-77696190D01*
X108454048Y-77672381D01*
X108477858Y-77648571D01*
X108501667Y-77600952D01*
X108501667Y-77553333D01*
X108477858Y-77505714D01*
X108454048Y-77481905D01*
X108406429Y-77458095D01*
X108311191Y-77434286D01*
X108263572Y-77410476D01*
X108239763Y-77386667D01*
X108215953Y-77339048D01*
X108215953Y-77291429D01*
X108239763Y-77243810D01*
X108263572Y-77220000D01*
X108311191Y-77196190D01*
X108430239Y-77196190D01*
X108501667Y-77220000D01*
X108977857Y-77696190D02*
X108692143Y-77696190D01*
X108835000Y-77696190D02*
X108835000Y-77196190D01*
X108787381Y-77267619D01*
X108739762Y-77315238D01*
X108692143Y-77339048D01*
X109144524Y-77196190D02*
X109454047Y-77196190D01*
X109287381Y-77386667D01*
X109358809Y-77386667D01*
X109406428Y-77410476D01*
X109430238Y-77434286D01*
X109454047Y-77481905D01*
X109454047Y-77600952D01*
X109430238Y-77648571D01*
X109406428Y-77672381D01*
X109358809Y-77696190D01*
X109215952Y-77696190D01*
X109168333Y-77672381D01*
X109144524Y-77648571D01*
X109739761Y-77410476D02*
X109692142Y-77386667D01*
X109668333Y-77362857D01*
X109644523Y-77315238D01*
X109644523Y-77291429D01*
X109668333Y-77243810D01*
X109692142Y-77220000D01*
X109739761Y-77196190D01*
X109834999Y-77196190D01*
X109882618Y-77220000D01*
X109906428Y-77243810D01*
X109930237Y-77291429D01*
X109930237Y-77315238D01*
X109906428Y-77362857D01*
X109882618Y-77386667D01*
X109834999Y-77410476D01*
X109739761Y-77410476D01*
X109692142Y-77434286D01*
X109668333Y-77458095D01*
X109644523Y-77505714D01*
X109644523Y-77600952D01*
X109668333Y-77648571D01*
X109692142Y-77672381D01*
X109739761Y-77696190D01*
X109834999Y-77696190D01*
X109882618Y-77672381D01*
X109906428Y-77648571D01*
X109930237Y-77600952D01*
X109930237Y-77505714D01*
X109906428Y-77458095D01*
X109882618Y-77434286D01*
X109834999Y-77410476D01*
D14*
X105172381Y-101766666D02*
X104696190Y-102100000D01*
X105172381Y-102338095D02*
X104172381Y-102338095D01*
X104172381Y-101957142D01*
X104220000Y-101861904D01*
X104267619Y-101814285D01*
X104362857Y-101766666D01*
X104505714Y-101766666D01*
X104600952Y-101814285D01*
X104648571Y-101861904D01*
X104696190Y-101957142D01*
X104696190Y-102338095D01*
X105172381Y-100814285D02*
X105172381Y-101385714D01*
X105172381Y-101100000D02*
X104172381Y-101100000D01*
X104315238Y-101195238D01*
X104410476Y-101290476D01*
X104458095Y-101385714D01*
D12*
X103096190Y-101707143D02*
X103096190Y-101992857D01*
X103096190Y-101850000D02*
X102596190Y-101850000D01*
X102667619Y-101897619D01*
X102715238Y-101945238D01*
X102739048Y-101992857D01*
X103096190Y-101492857D02*
X102596190Y-101492857D01*
X103096190Y-101207143D02*
X102810476Y-101421429D01*
X102596190Y-101207143D02*
X102881905Y-101492857D01*
D14*
X105172381Y-95416666D02*
X104696190Y-95750000D01*
X105172381Y-95988095D02*
X104172381Y-95988095D01*
X104172381Y-95607142D01*
X104220000Y-95511904D01*
X104267619Y-95464285D01*
X104362857Y-95416666D01*
X104505714Y-95416666D01*
X104600952Y-95464285D01*
X104648571Y-95511904D01*
X104696190Y-95607142D01*
X104696190Y-95988095D01*
X104267619Y-95035714D02*
X104220000Y-94988095D01*
X104172381Y-94892857D01*
X104172381Y-94654761D01*
X104220000Y-94559523D01*
X104267619Y-94511904D01*
X104362857Y-94464285D01*
X104458095Y-94464285D01*
X104600952Y-94511904D01*
X105172381Y-95083333D01*
X105172381Y-94464285D01*
D12*
X103096190Y-95357143D02*
X103096190Y-95642857D01*
X103096190Y-95500000D02*
X102596190Y-95500000D01*
X102667619Y-95547619D01*
X102715238Y-95595238D01*
X102739048Y-95642857D01*
X103096190Y-95142857D02*
X102596190Y-95142857D01*
X103096190Y-94857143D02*
X102810476Y-95071429D01*
X102596190Y-94857143D02*
X102881905Y-95142857D01*
D14*
X105172381Y-89066666D02*
X104696190Y-89400000D01*
X105172381Y-89638095D02*
X104172381Y-89638095D01*
X104172381Y-89257142D01*
X104220000Y-89161904D01*
X104267619Y-89114285D01*
X104362857Y-89066666D01*
X104505714Y-89066666D01*
X104600952Y-89114285D01*
X104648571Y-89161904D01*
X104696190Y-89257142D01*
X104696190Y-89638095D01*
X104172381Y-88733333D02*
X104172381Y-88114285D01*
X104553333Y-88447619D01*
X104553333Y-88304761D01*
X104600952Y-88209523D01*
X104648571Y-88161904D01*
X104743810Y-88114285D01*
X104981905Y-88114285D01*
X105077143Y-88161904D01*
X105124762Y-88209523D01*
X105172381Y-88304761D01*
X105172381Y-88590476D01*
X105124762Y-88685714D01*
X105077143Y-88733333D01*
D12*
X103096190Y-89007143D02*
X103096190Y-89292857D01*
X103096190Y-89150000D02*
X102596190Y-89150000D01*
X102667619Y-89197619D01*
X102715238Y-89245238D01*
X102739048Y-89292857D01*
X103096190Y-88792857D02*
X102596190Y-88792857D01*
X103096190Y-88507143D02*
X102810476Y-88721429D01*
X102596190Y-88507143D02*
X102881905Y-88792857D01*
D14*
X105172381Y-75096666D02*
X104696190Y-75430000D01*
X105172381Y-75668095D02*
X104172381Y-75668095D01*
X104172381Y-75287142D01*
X104220000Y-75191904D01*
X104267619Y-75144285D01*
X104362857Y-75096666D01*
X104505714Y-75096666D01*
X104600952Y-75144285D01*
X104648571Y-75191904D01*
X104696190Y-75287142D01*
X104696190Y-75668095D01*
X104505714Y-74239523D02*
X105172381Y-74239523D01*
X104124762Y-74477619D02*
X104839048Y-74715714D01*
X104839048Y-74096666D01*
D12*
X103096190Y-75037143D02*
X103096190Y-75322857D01*
X103096190Y-75180000D02*
X102596190Y-75180000D01*
X102667619Y-75227619D01*
X102715238Y-75275238D01*
X102739048Y-75322857D01*
X103096190Y-74822857D02*
X102596190Y-74822857D01*
X103096190Y-74537143D02*
X102810476Y-74751429D01*
X102596190Y-74537143D02*
X102881905Y-74822857D01*
D14*
X115332381Y-101766666D02*
X114856190Y-102100000D01*
X115332381Y-102338095D02*
X114332381Y-102338095D01*
X114332381Y-101957142D01*
X114380000Y-101861904D01*
X114427619Y-101814285D01*
X114522857Y-101766666D01*
X114665714Y-101766666D01*
X114760952Y-101814285D01*
X114808571Y-101861904D01*
X114856190Y-101957142D01*
X114856190Y-102338095D01*
X114332381Y-100861904D02*
X114332381Y-101338095D01*
X114808571Y-101385714D01*
X114760952Y-101338095D01*
X114713333Y-101242857D01*
X114713333Y-101004761D01*
X114760952Y-100909523D01*
X114808571Y-100861904D01*
X114903810Y-100814285D01*
X115141905Y-100814285D01*
X115237143Y-100861904D01*
X115284762Y-100909523D01*
X115332381Y-101004761D01*
X115332381Y-101242857D01*
X115284762Y-101338095D01*
X115237143Y-101385714D01*
D12*
X113256190Y-101707143D02*
X113256190Y-101992857D01*
X113256190Y-101850000D02*
X112756190Y-101850000D01*
X112827619Y-101897619D01*
X112875238Y-101945238D01*
X112899048Y-101992857D01*
X113256190Y-101492857D02*
X112756190Y-101492857D01*
X113256190Y-101207143D02*
X112970476Y-101421429D01*
X112756190Y-101207143D02*
X113041905Y-101492857D01*
D14*
X115332381Y-95416666D02*
X114856190Y-95750000D01*
X115332381Y-95988095D02*
X114332381Y-95988095D01*
X114332381Y-95607142D01*
X114380000Y-95511904D01*
X114427619Y-95464285D01*
X114522857Y-95416666D01*
X114665714Y-95416666D01*
X114760952Y-95464285D01*
X114808571Y-95511904D01*
X114856190Y-95607142D01*
X114856190Y-95988095D01*
X114332381Y-94559523D02*
X114332381Y-94750000D01*
X114380000Y-94845238D01*
X114427619Y-94892857D01*
X114570476Y-94988095D01*
X114760952Y-95035714D01*
X115141905Y-95035714D01*
X115237143Y-94988095D01*
X115284762Y-94940476D01*
X115332381Y-94845238D01*
X115332381Y-94654761D01*
X115284762Y-94559523D01*
X115237143Y-94511904D01*
X115141905Y-94464285D01*
X114903810Y-94464285D01*
X114808571Y-94511904D01*
X114760952Y-94559523D01*
X114713333Y-94654761D01*
X114713333Y-94845238D01*
X114760952Y-94940476D01*
X114808571Y-94988095D01*
X114903810Y-95035714D01*
D12*
X113256190Y-95357143D02*
X113256190Y-95642857D01*
X113256190Y-95500000D02*
X112756190Y-95500000D01*
X112827619Y-95547619D01*
X112875238Y-95595238D01*
X112899048Y-95642857D01*
X113256190Y-95142857D02*
X112756190Y-95142857D01*
X113256190Y-94857143D02*
X112970476Y-95071429D01*
X112756190Y-94857143D02*
X113041905Y-95142857D01*
D14*
X115332381Y-89066666D02*
X114856190Y-89400000D01*
X115332381Y-89638095D02*
X114332381Y-89638095D01*
X114332381Y-89257142D01*
X114380000Y-89161904D01*
X114427619Y-89114285D01*
X114522857Y-89066666D01*
X114665714Y-89066666D01*
X114760952Y-89114285D01*
X114808571Y-89161904D01*
X114856190Y-89257142D01*
X114856190Y-89638095D01*
X114332381Y-88733333D02*
X114332381Y-88066666D01*
X115332381Y-88495238D01*
D12*
X113256190Y-89007143D02*
X113256190Y-89292857D01*
X113256190Y-89150000D02*
X112756190Y-89150000D01*
X112827619Y-89197619D01*
X112875238Y-89245238D01*
X112899048Y-89292857D01*
X113256190Y-88792857D02*
X112756190Y-88792857D01*
X113256190Y-88507143D02*
X112970476Y-88721429D01*
X112756190Y-88507143D02*
X113041905Y-88792857D01*
D14*
X115332381Y-75096666D02*
X114856190Y-75430000D01*
X115332381Y-75668095D02*
X114332381Y-75668095D01*
X114332381Y-75287142D01*
X114380000Y-75191904D01*
X114427619Y-75144285D01*
X114522857Y-75096666D01*
X114665714Y-75096666D01*
X114760952Y-75144285D01*
X114808571Y-75191904D01*
X114856190Y-75287142D01*
X114856190Y-75668095D01*
X114760952Y-74525238D02*
X114713333Y-74620476D01*
X114665714Y-74668095D01*
X114570476Y-74715714D01*
X114522857Y-74715714D01*
X114427619Y-74668095D01*
X114380000Y-74620476D01*
X114332381Y-74525238D01*
X114332381Y-74334761D01*
X114380000Y-74239523D01*
X114427619Y-74191904D01*
X114522857Y-74144285D01*
X114570476Y-74144285D01*
X114665714Y-74191904D01*
X114713333Y-74239523D01*
X114760952Y-74334761D01*
X114760952Y-74525238D01*
X114808571Y-74620476D01*
X114856190Y-74668095D01*
X114951429Y-74715714D01*
X115141905Y-74715714D01*
X115237143Y-74668095D01*
X115284762Y-74620476D01*
X115332381Y-74525238D01*
X115332381Y-74334761D01*
X115284762Y-74239523D01*
X115237143Y-74191904D01*
X115141905Y-74144285D01*
X114951429Y-74144285D01*
X114856190Y-74191904D01*
X114808571Y-74239523D01*
X114760952Y-74334761D01*
D12*
X113256190Y-75037143D02*
X113256190Y-75322857D01*
X113256190Y-75180000D02*
X112756190Y-75180000D01*
X112827619Y-75227619D01*
X112875238Y-75275238D01*
X112899048Y-75322857D01*
X113256190Y-74822857D02*
X112756190Y-74822857D01*
X113256190Y-74537143D02*
X112970476Y-74751429D01*
X112756190Y-74537143D02*
X113041905Y-74822857D01*
D14*
X104576667Y-96097381D02*
X104576667Y-96811667D01*
X104529047Y-96954524D01*
X104433809Y-97049762D01*
X104290952Y-97097381D01*
X104195714Y-97097381D01*
X105052857Y-97097381D02*
X105052857Y-96097381D01*
X105433810Y-96097381D01*
X105529048Y-96145000D01*
X105576667Y-96192619D01*
X105624286Y-96287857D01*
X105624286Y-96430714D01*
X105576667Y-96525952D01*
X105529048Y-96573571D01*
X105433810Y-96621190D01*
X105052857Y-96621190D01*
X106576667Y-97097381D02*
X106005238Y-97097381D01*
X106290952Y-97097381D02*
X106290952Y-96097381D01*
X106195714Y-96240238D01*
X106100476Y-96335476D01*
X106005238Y-96383095D01*
X104576667Y-89747381D02*
X104576667Y-90461667D01*
X104529047Y-90604524D01*
X104433809Y-90699762D01*
X104290952Y-90747381D01*
X104195714Y-90747381D01*
X105052857Y-90747381D02*
X105052857Y-89747381D01*
X105433810Y-89747381D01*
X105529048Y-89795000D01*
X105576667Y-89842619D01*
X105624286Y-89937857D01*
X105624286Y-90080714D01*
X105576667Y-90175952D01*
X105529048Y-90223571D01*
X105433810Y-90271190D01*
X105052857Y-90271190D01*
X106005238Y-89842619D02*
X106052857Y-89795000D01*
X106148095Y-89747381D01*
X106386191Y-89747381D01*
X106481429Y-89795000D01*
X106529048Y-89842619D01*
X106576667Y-89937857D01*
X106576667Y-90033095D01*
X106529048Y-90175952D01*
X105957619Y-90747381D01*
X106576667Y-90747381D01*
X104576667Y-102447381D02*
X104576667Y-103161667D01*
X104529047Y-103304524D01*
X104433809Y-103399762D01*
X104290952Y-103447381D01*
X104195714Y-103447381D01*
X105052857Y-103447381D02*
X105052857Y-102447381D01*
X105433810Y-102447381D01*
X105529048Y-102495000D01*
X105576667Y-102542619D01*
X105624286Y-102637857D01*
X105624286Y-102780714D01*
X105576667Y-102875952D01*
X105529048Y-102923571D01*
X105433810Y-102971190D01*
X105052857Y-102971190D01*
X105957619Y-102447381D02*
X106576667Y-102447381D01*
X106243333Y-102828333D01*
X106386191Y-102828333D01*
X106481429Y-102875952D01*
X106529048Y-102923571D01*
X106576667Y-103018810D01*
X106576667Y-103256905D01*
X106529048Y-103352143D01*
X106481429Y-103399762D01*
X106386191Y-103447381D01*
X106100476Y-103447381D01*
X106005238Y-103399762D01*
X105957619Y-103352143D01*
X104576667Y-75777381D02*
X104576667Y-76491667D01*
X104529047Y-76634524D01*
X104433809Y-76729762D01*
X104290952Y-76777381D01*
X104195714Y-76777381D01*
X105052857Y-76777381D02*
X105052857Y-75777381D01*
X105433810Y-75777381D01*
X105529048Y-75825000D01*
X105576667Y-75872619D01*
X105624286Y-75967857D01*
X105624286Y-76110714D01*
X105576667Y-76205952D01*
X105529048Y-76253571D01*
X105433810Y-76301190D01*
X105052857Y-76301190D01*
X106481429Y-76110714D02*
X106481429Y-76777381D01*
X106243333Y-75729762D02*
X106005238Y-76444048D01*
X106624286Y-76444048D01*
X77302381Y-151463333D02*
X78016667Y-151463333D01*
X78159524Y-151510953D01*
X78254762Y-151606191D01*
X78302381Y-151749048D01*
X78302381Y-151844286D01*
X77302381Y-151082381D02*
X77302381Y-150463333D01*
X77683333Y-150796667D01*
X77683333Y-150653809D01*
X77730952Y-150558571D01*
X77778571Y-150510952D01*
X77873810Y-150463333D01*
X78111905Y-150463333D01*
X78207143Y-150510952D01*
X78254762Y-150558571D01*
X78302381Y-150653809D01*
X78302381Y-150939524D01*
X78254762Y-151034762D01*
X78207143Y-151082381D01*
X134286667Y-146772381D02*
X134286667Y-147486667D01*
X134239047Y-147629524D01*
X134143809Y-147724762D01*
X134000952Y-147772381D01*
X133905714Y-147772381D01*
X135286667Y-147772381D02*
X134715238Y-147772381D01*
X135000952Y-147772381D02*
X135000952Y-146772381D01*
X134905714Y-146915238D01*
X134810476Y-147010476D01*
X134715238Y-147058095D01*
X129691428Y-160032381D02*
X129691428Y-160841905D01*
X129739047Y-160937143D01*
X129786666Y-160984762D01*
X129881904Y-161032381D01*
X130072381Y-161032381D01*
X130167619Y-160984762D01*
X130215238Y-160937143D01*
X130262857Y-160841905D01*
X130262857Y-160032381D01*
X130691428Y-160984762D02*
X130834285Y-161032381D01*
X131072381Y-161032381D01*
X131167619Y-160984762D01*
X131215238Y-160937143D01*
X131262857Y-160841905D01*
X131262857Y-160746667D01*
X131215238Y-160651429D01*
X131167619Y-160603810D01*
X131072381Y-160556190D01*
X130881904Y-160508571D01*
X130786666Y-160460952D01*
X130739047Y-160413333D01*
X130691428Y-160318095D01*
X130691428Y-160222857D01*
X130739047Y-160127619D01*
X130786666Y-160080000D01*
X130881904Y-160032381D01*
X131120000Y-160032381D01*
X131262857Y-160080000D01*
X132024762Y-160508571D02*
X132167619Y-160556190D01*
X132215238Y-160603810D01*
X132262857Y-160699048D01*
X132262857Y-160841905D01*
X132215238Y-160937143D01*
X132167619Y-160984762D01*
X132072381Y-161032381D01*
X131691428Y-161032381D01*
X131691428Y-160032381D01*
X132024762Y-160032381D01*
X132120000Y-160080000D01*
X132167619Y-160127619D01*
X132215238Y-160222857D01*
X132215238Y-160318095D01*
X132167619Y-160413333D01*
X132120000Y-160460952D01*
X132024762Y-160508571D01*
X131691428Y-160508571D01*
X132453333Y-161127619D02*
X133215238Y-161127619D01*
X133786667Y-160508571D02*
X133929524Y-160556190D01*
X133977143Y-160603810D01*
X134024762Y-160699048D01*
X134024762Y-160841905D01*
X133977143Y-160937143D01*
X133929524Y-160984762D01*
X133834286Y-161032381D01*
X133453333Y-161032381D01*
X133453333Y-160032381D01*
X133786667Y-160032381D01*
X133881905Y-160080000D01*
X133929524Y-160127619D01*
X133977143Y-160222857D01*
X133977143Y-160318095D01*
X133929524Y-160413333D01*
X133881905Y-160460952D01*
X133786667Y-160508571D01*
X133453333Y-160508571D01*
X134453333Y-161032381D02*
X134453333Y-160365714D01*
X134453333Y-160556190D02*
X134500952Y-160460952D01*
X134548571Y-160413333D01*
X134643809Y-160365714D01*
X134739048Y-160365714D01*
X135453334Y-160984762D02*
X135358096Y-161032381D01*
X135167619Y-161032381D01*
X135072381Y-160984762D01*
X135024762Y-160889524D01*
X135024762Y-160508571D01*
X135072381Y-160413333D01*
X135167619Y-160365714D01*
X135358096Y-160365714D01*
X135453334Y-160413333D01*
X135500953Y-160508571D01*
X135500953Y-160603810D01*
X135024762Y-160699048D01*
X136358096Y-161032381D02*
X136358096Y-160508571D01*
X136310477Y-160413333D01*
X136215239Y-160365714D01*
X136024762Y-160365714D01*
X135929524Y-160413333D01*
X136358096Y-160984762D02*
X136262858Y-161032381D01*
X136024762Y-161032381D01*
X135929524Y-160984762D01*
X135881905Y-160889524D01*
X135881905Y-160794286D01*
X135929524Y-160699048D01*
X136024762Y-160651429D01*
X136262858Y-160651429D01*
X136358096Y-160603810D01*
X136834286Y-161032381D02*
X136834286Y-160032381D01*
X136929524Y-160651429D02*
X137215239Y-161032381D01*
X137215239Y-160365714D02*
X136834286Y-160746667D01*
X137786667Y-161032381D02*
X137691429Y-160984762D01*
X137643810Y-160937143D01*
X137596191Y-160841905D01*
X137596191Y-160556190D01*
X137643810Y-160460952D01*
X137691429Y-160413333D01*
X137786667Y-160365714D01*
X137929525Y-160365714D01*
X138024763Y-160413333D01*
X138072382Y-160460952D01*
X138120001Y-160556190D01*
X138120001Y-160841905D01*
X138072382Y-160937143D01*
X138024763Y-160984762D01*
X137929525Y-161032381D01*
X137786667Y-161032381D01*
X138977144Y-160365714D02*
X138977144Y-161032381D01*
X138548572Y-160365714D02*
X138548572Y-160889524D01*
X138596191Y-160984762D01*
X138691429Y-161032381D01*
X138834287Y-161032381D01*
X138929525Y-160984762D01*
X138977144Y-160937143D01*
X139310477Y-160365714D02*
X139691429Y-160365714D01*
X139453334Y-160032381D02*
X139453334Y-160889524D01*
X139500953Y-160984762D01*
X139596191Y-161032381D01*
X139691429Y-161032381D01*
M02*
