G04 #@! TF.FileFunction,Other,User*
%FSLAX46Y46*%
G04 Gerber Fmt 4.6, Leading zero omitted, Abs format (unit mm)*
G04 Created by KiCad (PCBNEW 4.0.4-stable) date 01/08/18 17:18:11*
%MOMM*%
%LPD*%
G01*
G04 APERTURE LIST*
%ADD10C,0.250000*%
%ADD11C,0.050000*%
G04 APERTURE END LIST*
D10*
D11*
X82190000Y-119380000D02*
G75*
G03X82190000Y-119380000I-3450000J0D01*
G01*
X145690000Y-119380000D02*
G75*
G03X145690000Y-119380000I-3450000J0D01*
G01*
X145690000Y-93980000D02*
G75*
G03X145690000Y-93980000I-3450000J0D01*
G01*
X145690000Y-68580000D02*
G75*
G03X145690000Y-68580000I-3450000J0D01*
G01*
X171090000Y-157480000D02*
G75*
G03X171090000Y-157480000I-3450000J0D01*
G01*
X106250000Y-99850000D02*
X109650000Y-99850000D01*
X109650000Y-99850000D02*
X109650000Y-103350000D01*
X109650000Y-103350000D02*
X106250000Y-103350000D01*
X106250000Y-103350000D02*
X106250000Y-99850000D01*
X106250000Y-93500000D02*
X109650000Y-93500000D01*
X109650000Y-93500000D02*
X109650000Y-97000000D01*
X109650000Y-97000000D02*
X106250000Y-97000000D01*
X106250000Y-97000000D02*
X106250000Y-93500000D01*
X106250000Y-87150000D02*
X109650000Y-87150000D01*
X109650000Y-87150000D02*
X109650000Y-90650000D01*
X109650000Y-90650000D02*
X106250000Y-90650000D01*
X106250000Y-90650000D02*
X106250000Y-87150000D01*
X106250000Y-73180000D02*
X109650000Y-73180000D01*
X109650000Y-73180000D02*
X109650000Y-76680000D01*
X109650000Y-76680000D02*
X106250000Y-76680000D01*
X106250000Y-76680000D02*
X106250000Y-73180000D01*
X103980000Y-99450000D02*
X103980000Y-103750000D01*
X103980000Y-99450000D02*
X101770000Y-99450000D01*
X101770000Y-103750000D02*
X103980000Y-103750000D01*
X101770000Y-103750000D02*
X101770000Y-99450000D01*
X103980000Y-93100000D02*
X103980000Y-97400000D01*
X103980000Y-93100000D02*
X101770000Y-93100000D01*
X101770000Y-97400000D02*
X103980000Y-97400000D01*
X101770000Y-97400000D02*
X101770000Y-93100000D01*
X103980000Y-86750000D02*
X103980000Y-91050000D01*
X103980000Y-86750000D02*
X101770000Y-86750000D01*
X101770000Y-91050000D02*
X103980000Y-91050000D01*
X101770000Y-91050000D02*
X101770000Y-86750000D01*
X103980000Y-72780000D02*
X103980000Y-77080000D01*
X103980000Y-72780000D02*
X101770000Y-72780000D01*
X101770000Y-77080000D02*
X103980000Y-77080000D01*
X101770000Y-77080000D02*
X101770000Y-72780000D01*
X114140000Y-99450000D02*
X114140000Y-103750000D01*
X114140000Y-99450000D02*
X111930000Y-99450000D01*
X111930000Y-103750000D02*
X114140000Y-103750000D01*
X111930000Y-103750000D02*
X111930000Y-99450000D01*
X114140000Y-93100000D02*
X114140000Y-97400000D01*
X114140000Y-93100000D02*
X111930000Y-93100000D01*
X111930000Y-97400000D02*
X114140000Y-97400000D01*
X111930000Y-97400000D02*
X111930000Y-93100000D01*
X114140000Y-86750000D02*
X114140000Y-91050000D01*
X114140000Y-86750000D02*
X111930000Y-86750000D01*
X111930000Y-91050000D02*
X114140000Y-91050000D01*
X111930000Y-91050000D02*
X111930000Y-86750000D01*
X114140000Y-72780000D02*
X114140000Y-77080000D01*
X114140000Y-72780000D02*
X111930000Y-72780000D01*
X111930000Y-77080000D02*
X114140000Y-77080000D01*
X111930000Y-77080000D02*
X111930000Y-72780000D01*
X103960000Y-97325000D02*
X106910000Y-97325000D01*
X106910000Y-97325000D02*
X106910000Y-99525000D01*
X106910000Y-99525000D02*
X103960000Y-99525000D01*
X103960000Y-99525000D02*
X103960000Y-97325000D01*
X103960000Y-90975000D02*
X106910000Y-90975000D01*
X106910000Y-90975000D02*
X106910000Y-93175000D01*
X106910000Y-93175000D02*
X103960000Y-93175000D01*
X103960000Y-93175000D02*
X103960000Y-90975000D01*
X103960000Y-103675000D02*
X106910000Y-103675000D01*
X106910000Y-103675000D02*
X106910000Y-105875000D01*
X106910000Y-105875000D02*
X103960000Y-105875000D01*
X103960000Y-105875000D02*
X103960000Y-103675000D01*
X103960000Y-77005000D02*
X106910000Y-77005000D01*
X106910000Y-77005000D02*
X106910000Y-79205000D01*
X106910000Y-79205000D02*
X103960000Y-79205000D01*
X103960000Y-79205000D02*
X103960000Y-77005000D01*
X73650000Y-143500000D02*
X91200000Y-143500000D01*
X91200000Y-143500000D02*
X91200000Y-158750000D01*
X91200000Y-158750000D02*
X73650000Y-158750000D01*
X73650000Y-158750000D02*
X73650000Y-143500000D01*
X136370000Y-159230000D02*
X136370000Y-148080000D01*
X132870000Y-159230000D02*
X132870000Y-148080000D01*
X136370000Y-159230000D02*
X132870000Y-159230000D01*
X136370000Y-148080000D02*
X132870000Y-148080000D01*
X171090000Y-68580000D02*
G75*
G03X171090000Y-68580000I-3450000J0D01*
G01*
M02*
