G04 #@! TF.FileFunction,Other,Fab,Top*
%FSLAX46Y46*%
G04 Gerber Fmt 4.6, Leading zero omitted, Abs format (unit mm)*
G04 Created by KiCad (PCBNEW 4.0.4-stable) date 01/08/18 17:18:12*
%MOMM*%
%LPD*%
G01*
G04 APERTURE LIST*
%ADD10C,0.250000*%
%ADD11C,0.100000*%
%ADD12C,0.150000*%
%ADD13C,0.075000*%
%ADD14C,0.105000*%
G04 APERTURE END LIST*
D10*
D11*
X107250000Y-100650000D02*
X107250000Y-103100000D01*
X107800000Y-100080000D02*
X108650000Y-100080000D01*
X107250000Y-100650000D02*
X107800000Y-100080000D01*
X108650000Y-100080000D02*
X108650000Y-103120000D01*
X107250000Y-103120000D02*
X108650000Y-103120000D01*
X107250000Y-94300000D02*
X107250000Y-96750000D01*
X107800000Y-93730000D02*
X108650000Y-93730000D01*
X107250000Y-94300000D02*
X107800000Y-93730000D01*
X108650000Y-93730000D02*
X108650000Y-96770000D01*
X107250000Y-96770000D02*
X108650000Y-96770000D01*
X107250000Y-87950000D02*
X107250000Y-90400000D01*
X107800000Y-87380000D02*
X108650000Y-87380000D01*
X107250000Y-87950000D02*
X107800000Y-87380000D01*
X108650000Y-87380000D02*
X108650000Y-90420000D01*
X107250000Y-90420000D02*
X108650000Y-90420000D01*
X107250000Y-73980000D02*
X107250000Y-76430000D01*
X107800000Y-73410000D02*
X108650000Y-73410000D01*
X107250000Y-73980000D02*
X107800000Y-73410000D01*
X108650000Y-73410000D02*
X108650000Y-76450000D01*
X107250000Y-76450000D02*
X108650000Y-76450000D01*
X102070000Y-100000000D02*
X103670000Y-100000000D01*
X102070000Y-103200000D02*
X102070000Y-100000000D01*
X103670000Y-103200000D02*
X102070000Y-103200000D01*
X103670000Y-100000000D02*
X103670000Y-103200000D01*
X102070000Y-93650000D02*
X103670000Y-93650000D01*
X102070000Y-96850000D02*
X102070000Y-93650000D01*
X103670000Y-96850000D02*
X102070000Y-96850000D01*
X103670000Y-93650000D02*
X103670000Y-96850000D01*
X102070000Y-87300000D02*
X103670000Y-87300000D01*
X102070000Y-90500000D02*
X102070000Y-87300000D01*
X103670000Y-90500000D02*
X102070000Y-90500000D01*
X103670000Y-87300000D02*
X103670000Y-90500000D01*
X102070000Y-73330000D02*
X103670000Y-73330000D01*
X102070000Y-76530000D02*
X102070000Y-73330000D01*
X103670000Y-76530000D02*
X102070000Y-76530000D01*
X103670000Y-73330000D02*
X103670000Y-76530000D01*
X112230000Y-100000000D02*
X113830000Y-100000000D01*
X112230000Y-103200000D02*
X112230000Y-100000000D01*
X113830000Y-103200000D02*
X112230000Y-103200000D01*
X113830000Y-100000000D02*
X113830000Y-103200000D01*
X112230000Y-93650000D02*
X113830000Y-93650000D01*
X112230000Y-96850000D02*
X112230000Y-93650000D01*
X113830000Y-96850000D02*
X112230000Y-96850000D01*
X113830000Y-93650000D02*
X113830000Y-96850000D01*
X112230000Y-87300000D02*
X113830000Y-87300000D01*
X112230000Y-90500000D02*
X112230000Y-87300000D01*
X113830000Y-90500000D02*
X112230000Y-90500000D01*
X113830000Y-87300000D02*
X113830000Y-90500000D01*
X112230000Y-73330000D02*
X113830000Y-73330000D01*
X112230000Y-76530000D02*
X112230000Y-73330000D01*
X113830000Y-76530000D02*
X112230000Y-76530000D01*
X113830000Y-73330000D02*
X113830000Y-76530000D01*
D12*
X69620952Y-124032381D02*
X69620952Y-123032381D01*
X69954286Y-123746667D01*
X70287619Y-123032381D01*
X70287619Y-124032381D01*
X70906666Y-124032381D02*
X70811428Y-123984762D01*
X70763809Y-123937143D01*
X70716190Y-123841905D01*
X70716190Y-123556190D01*
X70763809Y-123460952D01*
X70811428Y-123413333D01*
X70906666Y-123365714D01*
X71049524Y-123365714D01*
X71144762Y-123413333D01*
X71192381Y-123460952D01*
X71240000Y-123556190D01*
X71240000Y-123841905D01*
X71192381Y-123937143D01*
X71144762Y-123984762D01*
X71049524Y-124032381D01*
X70906666Y-124032381D01*
X72097143Y-123365714D02*
X72097143Y-124032381D01*
X71668571Y-123365714D02*
X71668571Y-123889524D01*
X71716190Y-123984762D01*
X71811428Y-124032381D01*
X71954286Y-124032381D01*
X72049524Y-123984762D01*
X72097143Y-123937143D01*
X72573333Y-123365714D02*
X72573333Y-124032381D01*
X72573333Y-123460952D02*
X72620952Y-123413333D01*
X72716190Y-123365714D01*
X72859048Y-123365714D01*
X72954286Y-123413333D01*
X73001905Y-123508571D01*
X73001905Y-124032381D01*
X73335238Y-123365714D02*
X73716190Y-123365714D01*
X73478095Y-123032381D02*
X73478095Y-123889524D01*
X73525714Y-123984762D01*
X73620952Y-124032381D01*
X73716190Y-124032381D01*
X74049524Y-124032381D02*
X74049524Y-123365714D01*
X74049524Y-123032381D02*
X74001905Y-123080000D01*
X74049524Y-123127619D01*
X74097143Y-123080000D01*
X74049524Y-123032381D01*
X74049524Y-123127619D01*
X74525714Y-123365714D02*
X74525714Y-124032381D01*
X74525714Y-123460952D02*
X74573333Y-123413333D01*
X74668571Y-123365714D01*
X74811429Y-123365714D01*
X74906667Y-123413333D01*
X74954286Y-123508571D01*
X74954286Y-124032381D01*
X75859048Y-123365714D02*
X75859048Y-124175238D01*
X75811429Y-124270476D01*
X75763810Y-124318095D01*
X75668571Y-124365714D01*
X75525714Y-124365714D01*
X75430476Y-124318095D01*
X75859048Y-123984762D02*
X75763810Y-124032381D01*
X75573333Y-124032381D01*
X75478095Y-123984762D01*
X75430476Y-123937143D01*
X75382857Y-123841905D01*
X75382857Y-123556190D01*
X75430476Y-123460952D01*
X75478095Y-123413333D01*
X75573333Y-123365714D01*
X75763810Y-123365714D01*
X75859048Y-123413333D01*
X76335238Y-124032381D02*
X76335238Y-123032381D01*
X76335238Y-123508571D02*
X76906667Y-123508571D01*
X76906667Y-124032381D02*
X76906667Y-123032381D01*
X77525714Y-124032381D02*
X77430476Y-123984762D01*
X77382857Y-123937143D01*
X77335238Y-123841905D01*
X77335238Y-123556190D01*
X77382857Y-123460952D01*
X77430476Y-123413333D01*
X77525714Y-123365714D01*
X77668572Y-123365714D01*
X77763810Y-123413333D01*
X77811429Y-123460952D01*
X77859048Y-123556190D01*
X77859048Y-123841905D01*
X77811429Y-123937143D01*
X77763810Y-123984762D01*
X77668572Y-124032381D01*
X77525714Y-124032381D01*
X78430476Y-124032381D02*
X78335238Y-123984762D01*
X78287619Y-123889524D01*
X78287619Y-123032381D01*
X79192382Y-123984762D02*
X79097144Y-124032381D01*
X78906667Y-124032381D01*
X78811429Y-123984762D01*
X78763810Y-123889524D01*
X78763810Y-123508571D01*
X78811429Y-123413333D01*
X78906667Y-123365714D01*
X79097144Y-123365714D01*
X79192382Y-123413333D01*
X79240001Y-123508571D01*
X79240001Y-123603810D01*
X78763810Y-123699048D01*
X79430477Y-124127619D02*
X80192382Y-124127619D01*
X80335239Y-123032381D02*
X80954287Y-123032381D01*
X80620953Y-123413333D01*
X80763811Y-123413333D01*
X80859049Y-123460952D01*
X80906668Y-123508571D01*
X80954287Y-123603810D01*
X80954287Y-123841905D01*
X80906668Y-123937143D01*
X80859049Y-123984762D01*
X80763811Y-124032381D01*
X80478096Y-124032381D01*
X80382858Y-123984762D01*
X80335239Y-123937143D01*
X81382858Y-123937143D02*
X81430477Y-123984762D01*
X81382858Y-124032381D01*
X81335239Y-123984762D01*
X81382858Y-123937143D01*
X81382858Y-124032381D01*
X81811429Y-123127619D02*
X81859048Y-123080000D01*
X81954286Y-123032381D01*
X82192382Y-123032381D01*
X82287620Y-123080000D01*
X82335239Y-123127619D01*
X82382858Y-123222857D01*
X82382858Y-123318095D01*
X82335239Y-123460952D01*
X81763810Y-124032381D01*
X82382858Y-124032381D01*
X82811429Y-124032381D02*
X82811429Y-123365714D01*
X82811429Y-123460952D02*
X82859048Y-123413333D01*
X82954286Y-123365714D01*
X83097144Y-123365714D01*
X83192382Y-123413333D01*
X83240001Y-123508571D01*
X83240001Y-124032381D01*
X83240001Y-123508571D02*
X83287620Y-123413333D01*
X83382858Y-123365714D01*
X83525715Y-123365714D01*
X83620953Y-123413333D01*
X83668572Y-123508571D01*
X83668572Y-124032381D01*
X84144762Y-124032381D02*
X84144762Y-123365714D01*
X84144762Y-123460952D02*
X84192381Y-123413333D01*
X84287619Y-123365714D01*
X84430477Y-123365714D01*
X84525715Y-123413333D01*
X84573334Y-123508571D01*
X84573334Y-124032381D01*
X84573334Y-123508571D02*
X84620953Y-123413333D01*
X84716191Y-123365714D01*
X84859048Y-123365714D01*
X84954286Y-123413333D01*
X85001905Y-123508571D01*
X85001905Y-124032381D01*
X85240000Y-124127619D02*
X86001905Y-124127619D01*
X86240000Y-124032381D02*
X86240000Y-123032381D01*
X86573334Y-123746667D01*
X86906667Y-123032381D01*
X86906667Y-124032381D01*
X87287619Y-123032381D02*
X87906667Y-123032381D01*
X87573333Y-123413333D01*
X87716191Y-123413333D01*
X87811429Y-123460952D01*
X87859048Y-123508571D01*
X87906667Y-123603810D01*
X87906667Y-123841905D01*
X87859048Y-123937143D01*
X87811429Y-123984762D01*
X87716191Y-124032381D01*
X87430476Y-124032381D01*
X87335238Y-123984762D01*
X87287619Y-123937143D01*
X133120952Y-124032381D02*
X133120952Y-123032381D01*
X133454286Y-123746667D01*
X133787619Y-123032381D01*
X133787619Y-124032381D01*
X134406666Y-124032381D02*
X134311428Y-123984762D01*
X134263809Y-123937143D01*
X134216190Y-123841905D01*
X134216190Y-123556190D01*
X134263809Y-123460952D01*
X134311428Y-123413333D01*
X134406666Y-123365714D01*
X134549524Y-123365714D01*
X134644762Y-123413333D01*
X134692381Y-123460952D01*
X134740000Y-123556190D01*
X134740000Y-123841905D01*
X134692381Y-123937143D01*
X134644762Y-123984762D01*
X134549524Y-124032381D01*
X134406666Y-124032381D01*
X135597143Y-123365714D02*
X135597143Y-124032381D01*
X135168571Y-123365714D02*
X135168571Y-123889524D01*
X135216190Y-123984762D01*
X135311428Y-124032381D01*
X135454286Y-124032381D01*
X135549524Y-123984762D01*
X135597143Y-123937143D01*
X136073333Y-123365714D02*
X136073333Y-124032381D01*
X136073333Y-123460952D02*
X136120952Y-123413333D01*
X136216190Y-123365714D01*
X136359048Y-123365714D01*
X136454286Y-123413333D01*
X136501905Y-123508571D01*
X136501905Y-124032381D01*
X136835238Y-123365714D02*
X137216190Y-123365714D01*
X136978095Y-123032381D02*
X136978095Y-123889524D01*
X137025714Y-123984762D01*
X137120952Y-124032381D01*
X137216190Y-124032381D01*
X137549524Y-124032381D02*
X137549524Y-123365714D01*
X137549524Y-123032381D02*
X137501905Y-123080000D01*
X137549524Y-123127619D01*
X137597143Y-123080000D01*
X137549524Y-123032381D01*
X137549524Y-123127619D01*
X138025714Y-123365714D02*
X138025714Y-124032381D01*
X138025714Y-123460952D02*
X138073333Y-123413333D01*
X138168571Y-123365714D01*
X138311429Y-123365714D01*
X138406667Y-123413333D01*
X138454286Y-123508571D01*
X138454286Y-124032381D01*
X139359048Y-123365714D02*
X139359048Y-124175238D01*
X139311429Y-124270476D01*
X139263810Y-124318095D01*
X139168571Y-124365714D01*
X139025714Y-124365714D01*
X138930476Y-124318095D01*
X139359048Y-123984762D02*
X139263810Y-124032381D01*
X139073333Y-124032381D01*
X138978095Y-123984762D01*
X138930476Y-123937143D01*
X138882857Y-123841905D01*
X138882857Y-123556190D01*
X138930476Y-123460952D01*
X138978095Y-123413333D01*
X139073333Y-123365714D01*
X139263810Y-123365714D01*
X139359048Y-123413333D01*
X139835238Y-124032381D02*
X139835238Y-123032381D01*
X139835238Y-123508571D02*
X140406667Y-123508571D01*
X140406667Y-124032381D02*
X140406667Y-123032381D01*
X141025714Y-124032381D02*
X140930476Y-123984762D01*
X140882857Y-123937143D01*
X140835238Y-123841905D01*
X140835238Y-123556190D01*
X140882857Y-123460952D01*
X140930476Y-123413333D01*
X141025714Y-123365714D01*
X141168572Y-123365714D01*
X141263810Y-123413333D01*
X141311429Y-123460952D01*
X141359048Y-123556190D01*
X141359048Y-123841905D01*
X141311429Y-123937143D01*
X141263810Y-123984762D01*
X141168572Y-124032381D01*
X141025714Y-124032381D01*
X141930476Y-124032381D02*
X141835238Y-123984762D01*
X141787619Y-123889524D01*
X141787619Y-123032381D01*
X142692382Y-123984762D02*
X142597144Y-124032381D01*
X142406667Y-124032381D01*
X142311429Y-123984762D01*
X142263810Y-123889524D01*
X142263810Y-123508571D01*
X142311429Y-123413333D01*
X142406667Y-123365714D01*
X142597144Y-123365714D01*
X142692382Y-123413333D01*
X142740001Y-123508571D01*
X142740001Y-123603810D01*
X142263810Y-123699048D01*
X142930477Y-124127619D02*
X143692382Y-124127619D01*
X143835239Y-123032381D02*
X144454287Y-123032381D01*
X144120953Y-123413333D01*
X144263811Y-123413333D01*
X144359049Y-123460952D01*
X144406668Y-123508571D01*
X144454287Y-123603810D01*
X144454287Y-123841905D01*
X144406668Y-123937143D01*
X144359049Y-123984762D01*
X144263811Y-124032381D01*
X143978096Y-124032381D01*
X143882858Y-123984762D01*
X143835239Y-123937143D01*
X144882858Y-123937143D02*
X144930477Y-123984762D01*
X144882858Y-124032381D01*
X144835239Y-123984762D01*
X144882858Y-123937143D01*
X144882858Y-124032381D01*
X145311429Y-123127619D02*
X145359048Y-123080000D01*
X145454286Y-123032381D01*
X145692382Y-123032381D01*
X145787620Y-123080000D01*
X145835239Y-123127619D01*
X145882858Y-123222857D01*
X145882858Y-123318095D01*
X145835239Y-123460952D01*
X145263810Y-124032381D01*
X145882858Y-124032381D01*
X146311429Y-124032381D02*
X146311429Y-123365714D01*
X146311429Y-123460952D02*
X146359048Y-123413333D01*
X146454286Y-123365714D01*
X146597144Y-123365714D01*
X146692382Y-123413333D01*
X146740001Y-123508571D01*
X146740001Y-124032381D01*
X146740001Y-123508571D02*
X146787620Y-123413333D01*
X146882858Y-123365714D01*
X147025715Y-123365714D01*
X147120953Y-123413333D01*
X147168572Y-123508571D01*
X147168572Y-124032381D01*
X147644762Y-124032381D02*
X147644762Y-123365714D01*
X147644762Y-123460952D02*
X147692381Y-123413333D01*
X147787619Y-123365714D01*
X147930477Y-123365714D01*
X148025715Y-123413333D01*
X148073334Y-123508571D01*
X148073334Y-124032381D01*
X148073334Y-123508571D02*
X148120953Y-123413333D01*
X148216191Y-123365714D01*
X148359048Y-123365714D01*
X148454286Y-123413333D01*
X148501905Y-123508571D01*
X148501905Y-124032381D01*
X148740000Y-124127619D02*
X149501905Y-124127619D01*
X149740000Y-124032381D02*
X149740000Y-123032381D01*
X150073334Y-123746667D01*
X150406667Y-123032381D01*
X150406667Y-124032381D01*
X150787619Y-123032381D02*
X151406667Y-123032381D01*
X151073333Y-123413333D01*
X151216191Y-123413333D01*
X151311429Y-123460952D01*
X151359048Y-123508571D01*
X151406667Y-123603810D01*
X151406667Y-123841905D01*
X151359048Y-123937143D01*
X151311429Y-123984762D01*
X151216191Y-124032381D01*
X150930476Y-124032381D01*
X150835238Y-123984762D01*
X150787619Y-123937143D01*
X133120952Y-98632381D02*
X133120952Y-97632381D01*
X133454286Y-98346667D01*
X133787619Y-97632381D01*
X133787619Y-98632381D01*
X134406666Y-98632381D02*
X134311428Y-98584762D01*
X134263809Y-98537143D01*
X134216190Y-98441905D01*
X134216190Y-98156190D01*
X134263809Y-98060952D01*
X134311428Y-98013333D01*
X134406666Y-97965714D01*
X134549524Y-97965714D01*
X134644762Y-98013333D01*
X134692381Y-98060952D01*
X134740000Y-98156190D01*
X134740000Y-98441905D01*
X134692381Y-98537143D01*
X134644762Y-98584762D01*
X134549524Y-98632381D01*
X134406666Y-98632381D01*
X135597143Y-97965714D02*
X135597143Y-98632381D01*
X135168571Y-97965714D02*
X135168571Y-98489524D01*
X135216190Y-98584762D01*
X135311428Y-98632381D01*
X135454286Y-98632381D01*
X135549524Y-98584762D01*
X135597143Y-98537143D01*
X136073333Y-97965714D02*
X136073333Y-98632381D01*
X136073333Y-98060952D02*
X136120952Y-98013333D01*
X136216190Y-97965714D01*
X136359048Y-97965714D01*
X136454286Y-98013333D01*
X136501905Y-98108571D01*
X136501905Y-98632381D01*
X136835238Y-97965714D02*
X137216190Y-97965714D01*
X136978095Y-97632381D02*
X136978095Y-98489524D01*
X137025714Y-98584762D01*
X137120952Y-98632381D01*
X137216190Y-98632381D01*
X137549524Y-98632381D02*
X137549524Y-97965714D01*
X137549524Y-97632381D02*
X137501905Y-97680000D01*
X137549524Y-97727619D01*
X137597143Y-97680000D01*
X137549524Y-97632381D01*
X137549524Y-97727619D01*
X138025714Y-97965714D02*
X138025714Y-98632381D01*
X138025714Y-98060952D02*
X138073333Y-98013333D01*
X138168571Y-97965714D01*
X138311429Y-97965714D01*
X138406667Y-98013333D01*
X138454286Y-98108571D01*
X138454286Y-98632381D01*
X139359048Y-97965714D02*
X139359048Y-98775238D01*
X139311429Y-98870476D01*
X139263810Y-98918095D01*
X139168571Y-98965714D01*
X139025714Y-98965714D01*
X138930476Y-98918095D01*
X139359048Y-98584762D02*
X139263810Y-98632381D01*
X139073333Y-98632381D01*
X138978095Y-98584762D01*
X138930476Y-98537143D01*
X138882857Y-98441905D01*
X138882857Y-98156190D01*
X138930476Y-98060952D01*
X138978095Y-98013333D01*
X139073333Y-97965714D01*
X139263810Y-97965714D01*
X139359048Y-98013333D01*
X139835238Y-98632381D02*
X139835238Y-97632381D01*
X139835238Y-98108571D02*
X140406667Y-98108571D01*
X140406667Y-98632381D02*
X140406667Y-97632381D01*
X141025714Y-98632381D02*
X140930476Y-98584762D01*
X140882857Y-98537143D01*
X140835238Y-98441905D01*
X140835238Y-98156190D01*
X140882857Y-98060952D01*
X140930476Y-98013333D01*
X141025714Y-97965714D01*
X141168572Y-97965714D01*
X141263810Y-98013333D01*
X141311429Y-98060952D01*
X141359048Y-98156190D01*
X141359048Y-98441905D01*
X141311429Y-98537143D01*
X141263810Y-98584762D01*
X141168572Y-98632381D01*
X141025714Y-98632381D01*
X141930476Y-98632381D02*
X141835238Y-98584762D01*
X141787619Y-98489524D01*
X141787619Y-97632381D01*
X142692382Y-98584762D02*
X142597144Y-98632381D01*
X142406667Y-98632381D01*
X142311429Y-98584762D01*
X142263810Y-98489524D01*
X142263810Y-98108571D01*
X142311429Y-98013333D01*
X142406667Y-97965714D01*
X142597144Y-97965714D01*
X142692382Y-98013333D01*
X142740001Y-98108571D01*
X142740001Y-98203810D01*
X142263810Y-98299048D01*
X142930477Y-98727619D02*
X143692382Y-98727619D01*
X143835239Y-97632381D02*
X144454287Y-97632381D01*
X144120953Y-98013333D01*
X144263811Y-98013333D01*
X144359049Y-98060952D01*
X144406668Y-98108571D01*
X144454287Y-98203810D01*
X144454287Y-98441905D01*
X144406668Y-98537143D01*
X144359049Y-98584762D01*
X144263811Y-98632381D01*
X143978096Y-98632381D01*
X143882858Y-98584762D01*
X143835239Y-98537143D01*
X144882858Y-98537143D02*
X144930477Y-98584762D01*
X144882858Y-98632381D01*
X144835239Y-98584762D01*
X144882858Y-98537143D01*
X144882858Y-98632381D01*
X145311429Y-97727619D02*
X145359048Y-97680000D01*
X145454286Y-97632381D01*
X145692382Y-97632381D01*
X145787620Y-97680000D01*
X145835239Y-97727619D01*
X145882858Y-97822857D01*
X145882858Y-97918095D01*
X145835239Y-98060952D01*
X145263810Y-98632381D01*
X145882858Y-98632381D01*
X146311429Y-98632381D02*
X146311429Y-97965714D01*
X146311429Y-98060952D02*
X146359048Y-98013333D01*
X146454286Y-97965714D01*
X146597144Y-97965714D01*
X146692382Y-98013333D01*
X146740001Y-98108571D01*
X146740001Y-98632381D01*
X146740001Y-98108571D02*
X146787620Y-98013333D01*
X146882858Y-97965714D01*
X147025715Y-97965714D01*
X147120953Y-98013333D01*
X147168572Y-98108571D01*
X147168572Y-98632381D01*
X147644762Y-98632381D02*
X147644762Y-97965714D01*
X147644762Y-98060952D02*
X147692381Y-98013333D01*
X147787619Y-97965714D01*
X147930477Y-97965714D01*
X148025715Y-98013333D01*
X148073334Y-98108571D01*
X148073334Y-98632381D01*
X148073334Y-98108571D02*
X148120953Y-98013333D01*
X148216191Y-97965714D01*
X148359048Y-97965714D01*
X148454286Y-98013333D01*
X148501905Y-98108571D01*
X148501905Y-98632381D01*
X148740000Y-98727619D02*
X149501905Y-98727619D01*
X149740000Y-98632381D02*
X149740000Y-97632381D01*
X150073334Y-98346667D01*
X150406667Y-97632381D01*
X150406667Y-98632381D01*
X150787619Y-97632381D02*
X151406667Y-97632381D01*
X151073333Y-98013333D01*
X151216191Y-98013333D01*
X151311429Y-98060952D01*
X151359048Y-98108571D01*
X151406667Y-98203810D01*
X151406667Y-98441905D01*
X151359048Y-98537143D01*
X151311429Y-98584762D01*
X151216191Y-98632381D01*
X150930476Y-98632381D01*
X150835238Y-98584762D01*
X150787619Y-98537143D01*
X133120952Y-73232381D02*
X133120952Y-72232381D01*
X133454286Y-72946667D01*
X133787619Y-72232381D01*
X133787619Y-73232381D01*
X134406666Y-73232381D02*
X134311428Y-73184762D01*
X134263809Y-73137143D01*
X134216190Y-73041905D01*
X134216190Y-72756190D01*
X134263809Y-72660952D01*
X134311428Y-72613333D01*
X134406666Y-72565714D01*
X134549524Y-72565714D01*
X134644762Y-72613333D01*
X134692381Y-72660952D01*
X134740000Y-72756190D01*
X134740000Y-73041905D01*
X134692381Y-73137143D01*
X134644762Y-73184762D01*
X134549524Y-73232381D01*
X134406666Y-73232381D01*
X135597143Y-72565714D02*
X135597143Y-73232381D01*
X135168571Y-72565714D02*
X135168571Y-73089524D01*
X135216190Y-73184762D01*
X135311428Y-73232381D01*
X135454286Y-73232381D01*
X135549524Y-73184762D01*
X135597143Y-73137143D01*
X136073333Y-72565714D02*
X136073333Y-73232381D01*
X136073333Y-72660952D02*
X136120952Y-72613333D01*
X136216190Y-72565714D01*
X136359048Y-72565714D01*
X136454286Y-72613333D01*
X136501905Y-72708571D01*
X136501905Y-73232381D01*
X136835238Y-72565714D02*
X137216190Y-72565714D01*
X136978095Y-72232381D02*
X136978095Y-73089524D01*
X137025714Y-73184762D01*
X137120952Y-73232381D01*
X137216190Y-73232381D01*
X137549524Y-73232381D02*
X137549524Y-72565714D01*
X137549524Y-72232381D02*
X137501905Y-72280000D01*
X137549524Y-72327619D01*
X137597143Y-72280000D01*
X137549524Y-72232381D01*
X137549524Y-72327619D01*
X138025714Y-72565714D02*
X138025714Y-73232381D01*
X138025714Y-72660952D02*
X138073333Y-72613333D01*
X138168571Y-72565714D01*
X138311429Y-72565714D01*
X138406667Y-72613333D01*
X138454286Y-72708571D01*
X138454286Y-73232381D01*
X139359048Y-72565714D02*
X139359048Y-73375238D01*
X139311429Y-73470476D01*
X139263810Y-73518095D01*
X139168571Y-73565714D01*
X139025714Y-73565714D01*
X138930476Y-73518095D01*
X139359048Y-73184762D02*
X139263810Y-73232381D01*
X139073333Y-73232381D01*
X138978095Y-73184762D01*
X138930476Y-73137143D01*
X138882857Y-73041905D01*
X138882857Y-72756190D01*
X138930476Y-72660952D01*
X138978095Y-72613333D01*
X139073333Y-72565714D01*
X139263810Y-72565714D01*
X139359048Y-72613333D01*
X139835238Y-73232381D02*
X139835238Y-72232381D01*
X139835238Y-72708571D02*
X140406667Y-72708571D01*
X140406667Y-73232381D02*
X140406667Y-72232381D01*
X141025714Y-73232381D02*
X140930476Y-73184762D01*
X140882857Y-73137143D01*
X140835238Y-73041905D01*
X140835238Y-72756190D01*
X140882857Y-72660952D01*
X140930476Y-72613333D01*
X141025714Y-72565714D01*
X141168572Y-72565714D01*
X141263810Y-72613333D01*
X141311429Y-72660952D01*
X141359048Y-72756190D01*
X141359048Y-73041905D01*
X141311429Y-73137143D01*
X141263810Y-73184762D01*
X141168572Y-73232381D01*
X141025714Y-73232381D01*
X141930476Y-73232381D02*
X141835238Y-73184762D01*
X141787619Y-73089524D01*
X141787619Y-72232381D01*
X142692382Y-73184762D02*
X142597144Y-73232381D01*
X142406667Y-73232381D01*
X142311429Y-73184762D01*
X142263810Y-73089524D01*
X142263810Y-72708571D01*
X142311429Y-72613333D01*
X142406667Y-72565714D01*
X142597144Y-72565714D01*
X142692382Y-72613333D01*
X142740001Y-72708571D01*
X142740001Y-72803810D01*
X142263810Y-72899048D01*
X142930477Y-73327619D02*
X143692382Y-73327619D01*
X143835239Y-72232381D02*
X144454287Y-72232381D01*
X144120953Y-72613333D01*
X144263811Y-72613333D01*
X144359049Y-72660952D01*
X144406668Y-72708571D01*
X144454287Y-72803810D01*
X144454287Y-73041905D01*
X144406668Y-73137143D01*
X144359049Y-73184762D01*
X144263811Y-73232381D01*
X143978096Y-73232381D01*
X143882858Y-73184762D01*
X143835239Y-73137143D01*
X144882858Y-73137143D02*
X144930477Y-73184762D01*
X144882858Y-73232381D01*
X144835239Y-73184762D01*
X144882858Y-73137143D01*
X144882858Y-73232381D01*
X145311429Y-72327619D02*
X145359048Y-72280000D01*
X145454286Y-72232381D01*
X145692382Y-72232381D01*
X145787620Y-72280000D01*
X145835239Y-72327619D01*
X145882858Y-72422857D01*
X145882858Y-72518095D01*
X145835239Y-72660952D01*
X145263810Y-73232381D01*
X145882858Y-73232381D01*
X146311429Y-73232381D02*
X146311429Y-72565714D01*
X146311429Y-72660952D02*
X146359048Y-72613333D01*
X146454286Y-72565714D01*
X146597144Y-72565714D01*
X146692382Y-72613333D01*
X146740001Y-72708571D01*
X146740001Y-73232381D01*
X146740001Y-72708571D02*
X146787620Y-72613333D01*
X146882858Y-72565714D01*
X147025715Y-72565714D01*
X147120953Y-72613333D01*
X147168572Y-72708571D01*
X147168572Y-73232381D01*
X147644762Y-73232381D02*
X147644762Y-72565714D01*
X147644762Y-72660952D02*
X147692381Y-72613333D01*
X147787619Y-72565714D01*
X147930477Y-72565714D01*
X148025715Y-72613333D01*
X148073334Y-72708571D01*
X148073334Y-73232381D01*
X148073334Y-72708571D02*
X148120953Y-72613333D01*
X148216191Y-72565714D01*
X148359048Y-72565714D01*
X148454286Y-72613333D01*
X148501905Y-72708571D01*
X148501905Y-73232381D01*
X148740000Y-73327619D02*
X149501905Y-73327619D01*
X149740000Y-73232381D02*
X149740000Y-72232381D01*
X150073334Y-72946667D01*
X150406667Y-72232381D01*
X150406667Y-73232381D01*
X150787619Y-72232381D02*
X151406667Y-72232381D01*
X151073333Y-72613333D01*
X151216191Y-72613333D01*
X151311429Y-72660952D01*
X151359048Y-72708571D01*
X151406667Y-72803810D01*
X151406667Y-73041905D01*
X151359048Y-73137143D01*
X151311429Y-73184762D01*
X151216191Y-73232381D01*
X150930476Y-73232381D01*
X150835238Y-73184762D01*
X150787619Y-73137143D01*
X158520952Y-162132381D02*
X158520952Y-161132381D01*
X158854286Y-161846667D01*
X159187619Y-161132381D01*
X159187619Y-162132381D01*
X159806666Y-162132381D02*
X159711428Y-162084762D01*
X159663809Y-162037143D01*
X159616190Y-161941905D01*
X159616190Y-161656190D01*
X159663809Y-161560952D01*
X159711428Y-161513333D01*
X159806666Y-161465714D01*
X159949524Y-161465714D01*
X160044762Y-161513333D01*
X160092381Y-161560952D01*
X160140000Y-161656190D01*
X160140000Y-161941905D01*
X160092381Y-162037143D01*
X160044762Y-162084762D01*
X159949524Y-162132381D01*
X159806666Y-162132381D01*
X160997143Y-161465714D02*
X160997143Y-162132381D01*
X160568571Y-161465714D02*
X160568571Y-161989524D01*
X160616190Y-162084762D01*
X160711428Y-162132381D01*
X160854286Y-162132381D01*
X160949524Y-162084762D01*
X160997143Y-162037143D01*
X161473333Y-161465714D02*
X161473333Y-162132381D01*
X161473333Y-161560952D02*
X161520952Y-161513333D01*
X161616190Y-161465714D01*
X161759048Y-161465714D01*
X161854286Y-161513333D01*
X161901905Y-161608571D01*
X161901905Y-162132381D01*
X162235238Y-161465714D02*
X162616190Y-161465714D01*
X162378095Y-161132381D02*
X162378095Y-161989524D01*
X162425714Y-162084762D01*
X162520952Y-162132381D01*
X162616190Y-162132381D01*
X162949524Y-162132381D02*
X162949524Y-161465714D01*
X162949524Y-161132381D02*
X162901905Y-161180000D01*
X162949524Y-161227619D01*
X162997143Y-161180000D01*
X162949524Y-161132381D01*
X162949524Y-161227619D01*
X163425714Y-161465714D02*
X163425714Y-162132381D01*
X163425714Y-161560952D02*
X163473333Y-161513333D01*
X163568571Y-161465714D01*
X163711429Y-161465714D01*
X163806667Y-161513333D01*
X163854286Y-161608571D01*
X163854286Y-162132381D01*
X164759048Y-161465714D02*
X164759048Y-162275238D01*
X164711429Y-162370476D01*
X164663810Y-162418095D01*
X164568571Y-162465714D01*
X164425714Y-162465714D01*
X164330476Y-162418095D01*
X164759048Y-162084762D02*
X164663810Y-162132381D01*
X164473333Y-162132381D01*
X164378095Y-162084762D01*
X164330476Y-162037143D01*
X164282857Y-161941905D01*
X164282857Y-161656190D01*
X164330476Y-161560952D01*
X164378095Y-161513333D01*
X164473333Y-161465714D01*
X164663810Y-161465714D01*
X164759048Y-161513333D01*
X165235238Y-162132381D02*
X165235238Y-161132381D01*
X165235238Y-161608571D02*
X165806667Y-161608571D01*
X165806667Y-162132381D02*
X165806667Y-161132381D01*
X166425714Y-162132381D02*
X166330476Y-162084762D01*
X166282857Y-162037143D01*
X166235238Y-161941905D01*
X166235238Y-161656190D01*
X166282857Y-161560952D01*
X166330476Y-161513333D01*
X166425714Y-161465714D01*
X166568572Y-161465714D01*
X166663810Y-161513333D01*
X166711429Y-161560952D01*
X166759048Y-161656190D01*
X166759048Y-161941905D01*
X166711429Y-162037143D01*
X166663810Y-162084762D01*
X166568572Y-162132381D01*
X166425714Y-162132381D01*
X167330476Y-162132381D02*
X167235238Y-162084762D01*
X167187619Y-161989524D01*
X167187619Y-161132381D01*
X168092382Y-162084762D02*
X167997144Y-162132381D01*
X167806667Y-162132381D01*
X167711429Y-162084762D01*
X167663810Y-161989524D01*
X167663810Y-161608571D01*
X167711429Y-161513333D01*
X167806667Y-161465714D01*
X167997144Y-161465714D01*
X168092382Y-161513333D01*
X168140001Y-161608571D01*
X168140001Y-161703810D01*
X167663810Y-161799048D01*
X168330477Y-162227619D02*
X169092382Y-162227619D01*
X169235239Y-161132381D02*
X169854287Y-161132381D01*
X169520953Y-161513333D01*
X169663811Y-161513333D01*
X169759049Y-161560952D01*
X169806668Y-161608571D01*
X169854287Y-161703810D01*
X169854287Y-161941905D01*
X169806668Y-162037143D01*
X169759049Y-162084762D01*
X169663811Y-162132381D01*
X169378096Y-162132381D01*
X169282858Y-162084762D01*
X169235239Y-162037143D01*
X170282858Y-162037143D02*
X170330477Y-162084762D01*
X170282858Y-162132381D01*
X170235239Y-162084762D01*
X170282858Y-162037143D01*
X170282858Y-162132381D01*
X170711429Y-161227619D02*
X170759048Y-161180000D01*
X170854286Y-161132381D01*
X171092382Y-161132381D01*
X171187620Y-161180000D01*
X171235239Y-161227619D01*
X171282858Y-161322857D01*
X171282858Y-161418095D01*
X171235239Y-161560952D01*
X170663810Y-162132381D01*
X171282858Y-162132381D01*
X171711429Y-162132381D02*
X171711429Y-161465714D01*
X171711429Y-161560952D02*
X171759048Y-161513333D01*
X171854286Y-161465714D01*
X171997144Y-161465714D01*
X172092382Y-161513333D01*
X172140001Y-161608571D01*
X172140001Y-162132381D01*
X172140001Y-161608571D02*
X172187620Y-161513333D01*
X172282858Y-161465714D01*
X172425715Y-161465714D01*
X172520953Y-161513333D01*
X172568572Y-161608571D01*
X172568572Y-162132381D01*
X173044762Y-162132381D02*
X173044762Y-161465714D01*
X173044762Y-161560952D02*
X173092381Y-161513333D01*
X173187619Y-161465714D01*
X173330477Y-161465714D01*
X173425715Y-161513333D01*
X173473334Y-161608571D01*
X173473334Y-162132381D01*
X173473334Y-161608571D02*
X173520953Y-161513333D01*
X173616191Y-161465714D01*
X173759048Y-161465714D01*
X173854286Y-161513333D01*
X173901905Y-161608571D01*
X173901905Y-162132381D01*
X174140000Y-162227619D02*
X174901905Y-162227619D01*
X175140000Y-162132381D02*
X175140000Y-161132381D01*
X175473334Y-161846667D01*
X175806667Y-161132381D01*
X175806667Y-162132381D01*
X176187619Y-161132381D02*
X176806667Y-161132381D01*
X176473333Y-161513333D01*
X176616191Y-161513333D01*
X176711429Y-161560952D01*
X176759048Y-161608571D01*
X176806667Y-161703810D01*
X176806667Y-161941905D01*
X176759048Y-162037143D01*
X176711429Y-162084762D01*
X176616191Y-162132381D01*
X176330476Y-162132381D01*
X176235238Y-162084762D01*
X176187619Y-162037143D01*
D13*
X108223810Y-101647619D02*
X108200000Y-101695238D01*
X108152381Y-101742857D01*
X108080952Y-101814286D01*
X108057143Y-101861905D01*
X108057143Y-101909524D01*
X108176190Y-101885714D02*
X108152381Y-101933333D01*
X108104762Y-101980952D01*
X108009524Y-102004762D01*
X107842857Y-102004762D01*
X107747619Y-101980952D01*
X107700000Y-101933333D01*
X107676190Y-101885714D01*
X107676190Y-101790476D01*
X107700000Y-101742857D01*
X107747619Y-101695238D01*
X107842857Y-101671429D01*
X108009524Y-101671429D01*
X108104762Y-101695238D01*
X108152381Y-101742857D01*
X108176190Y-101790476D01*
X108176190Y-101885714D01*
X108176190Y-101195238D02*
X108176190Y-101480952D01*
X108176190Y-101338095D02*
X107676190Y-101338095D01*
X107747619Y-101385714D01*
X107795238Y-101433333D01*
X107819048Y-101480952D01*
X108223810Y-95297619D02*
X108200000Y-95345238D01*
X108152381Y-95392857D01*
X108080952Y-95464286D01*
X108057143Y-95511905D01*
X108057143Y-95559524D01*
X108176190Y-95535714D02*
X108152381Y-95583333D01*
X108104762Y-95630952D01*
X108009524Y-95654762D01*
X107842857Y-95654762D01*
X107747619Y-95630952D01*
X107700000Y-95583333D01*
X107676190Y-95535714D01*
X107676190Y-95440476D01*
X107700000Y-95392857D01*
X107747619Y-95345238D01*
X107842857Y-95321429D01*
X108009524Y-95321429D01*
X108104762Y-95345238D01*
X108152381Y-95392857D01*
X108176190Y-95440476D01*
X108176190Y-95535714D01*
X107723810Y-95130952D02*
X107700000Y-95107142D01*
X107676190Y-95059523D01*
X107676190Y-94940476D01*
X107700000Y-94892857D01*
X107723810Y-94869047D01*
X107771429Y-94845238D01*
X107819048Y-94845238D01*
X107890476Y-94869047D01*
X108176190Y-95154761D01*
X108176190Y-94845238D01*
X108223810Y-88947619D02*
X108200000Y-88995238D01*
X108152381Y-89042857D01*
X108080952Y-89114286D01*
X108057143Y-89161905D01*
X108057143Y-89209524D01*
X108176190Y-89185714D02*
X108152381Y-89233333D01*
X108104762Y-89280952D01*
X108009524Y-89304762D01*
X107842857Y-89304762D01*
X107747619Y-89280952D01*
X107700000Y-89233333D01*
X107676190Y-89185714D01*
X107676190Y-89090476D01*
X107700000Y-89042857D01*
X107747619Y-88995238D01*
X107842857Y-88971429D01*
X108009524Y-88971429D01*
X108104762Y-88995238D01*
X108152381Y-89042857D01*
X108176190Y-89090476D01*
X108176190Y-89185714D01*
X107676190Y-88804761D02*
X107676190Y-88495238D01*
X107866667Y-88661904D01*
X107866667Y-88590476D01*
X107890476Y-88542857D01*
X107914286Y-88519047D01*
X107961905Y-88495238D01*
X108080952Y-88495238D01*
X108128571Y-88519047D01*
X108152381Y-88542857D01*
X108176190Y-88590476D01*
X108176190Y-88733333D01*
X108152381Y-88780952D01*
X108128571Y-88804761D01*
X108223810Y-74977619D02*
X108200000Y-75025238D01*
X108152381Y-75072857D01*
X108080952Y-75144286D01*
X108057143Y-75191905D01*
X108057143Y-75239524D01*
X108176190Y-75215714D02*
X108152381Y-75263333D01*
X108104762Y-75310952D01*
X108009524Y-75334762D01*
X107842857Y-75334762D01*
X107747619Y-75310952D01*
X107700000Y-75263333D01*
X107676190Y-75215714D01*
X107676190Y-75120476D01*
X107700000Y-75072857D01*
X107747619Y-75025238D01*
X107842857Y-75001429D01*
X108009524Y-75001429D01*
X108104762Y-75025238D01*
X108152381Y-75072857D01*
X108176190Y-75120476D01*
X108176190Y-75215714D01*
X107842857Y-74572857D02*
X108176190Y-74572857D01*
X107652381Y-74691904D02*
X108009524Y-74810952D01*
X108009524Y-74501428D01*
D14*
X103186667Y-101716666D02*
X102853333Y-101950000D01*
X103186667Y-102116666D02*
X102486667Y-102116666D01*
X102486667Y-101850000D01*
X102520000Y-101783333D01*
X102553333Y-101750000D01*
X102620000Y-101716666D01*
X102720000Y-101716666D01*
X102786667Y-101750000D01*
X102820000Y-101783333D01*
X102853333Y-101850000D01*
X102853333Y-102116666D01*
X103186667Y-101050000D02*
X103186667Y-101450000D01*
X103186667Y-101250000D02*
X102486667Y-101250000D01*
X102586667Y-101316666D01*
X102653333Y-101383333D01*
X102686667Y-101450000D01*
X103186667Y-95366666D02*
X102853333Y-95600000D01*
X103186667Y-95766666D02*
X102486667Y-95766666D01*
X102486667Y-95500000D01*
X102520000Y-95433333D01*
X102553333Y-95400000D01*
X102620000Y-95366666D01*
X102720000Y-95366666D01*
X102786667Y-95400000D01*
X102820000Y-95433333D01*
X102853333Y-95500000D01*
X102853333Y-95766666D01*
X102553333Y-95100000D02*
X102520000Y-95066666D01*
X102486667Y-95000000D01*
X102486667Y-94833333D01*
X102520000Y-94766666D01*
X102553333Y-94733333D01*
X102620000Y-94700000D01*
X102686667Y-94700000D01*
X102786667Y-94733333D01*
X103186667Y-95133333D01*
X103186667Y-94700000D01*
X103186667Y-89016666D02*
X102853333Y-89250000D01*
X103186667Y-89416666D02*
X102486667Y-89416666D01*
X102486667Y-89150000D01*
X102520000Y-89083333D01*
X102553333Y-89050000D01*
X102620000Y-89016666D01*
X102720000Y-89016666D01*
X102786667Y-89050000D01*
X102820000Y-89083333D01*
X102853333Y-89150000D01*
X102853333Y-89416666D01*
X102486667Y-88783333D02*
X102486667Y-88350000D01*
X102753333Y-88583333D01*
X102753333Y-88483333D01*
X102786667Y-88416666D01*
X102820000Y-88383333D01*
X102886667Y-88350000D01*
X103053333Y-88350000D01*
X103120000Y-88383333D01*
X103153333Y-88416666D01*
X103186667Y-88483333D01*
X103186667Y-88683333D01*
X103153333Y-88750000D01*
X103120000Y-88783333D01*
X103186667Y-75046666D02*
X102853333Y-75280000D01*
X103186667Y-75446666D02*
X102486667Y-75446666D01*
X102486667Y-75180000D01*
X102520000Y-75113333D01*
X102553333Y-75080000D01*
X102620000Y-75046666D01*
X102720000Y-75046666D01*
X102786667Y-75080000D01*
X102820000Y-75113333D01*
X102853333Y-75180000D01*
X102853333Y-75446666D01*
X102720000Y-74446666D02*
X103186667Y-74446666D01*
X102453333Y-74613333D02*
X102953333Y-74780000D01*
X102953333Y-74346666D01*
X113346667Y-101716666D02*
X113013333Y-101950000D01*
X113346667Y-102116666D02*
X112646667Y-102116666D01*
X112646667Y-101850000D01*
X112680000Y-101783333D01*
X112713333Y-101750000D01*
X112780000Y-101716666D01*
X112880000Y-101716666D01*
X112946667Y-101750000D01*
X112980000Y-101783333D01*
X113013333Y-101850000D01*
X113013333Y-102116666D01*
X112646667Y-101083333D02*
X112646667Y-101416666D01*
X112980000Y-101450000D01*
X112946667Y-101416666D01*
X112913333Y-101350000D01*
X112913333Y-101183333D01*
X112946667Y-101116666D01*
X112980000Y-101083333D01*
X113046667Y-101050000D01*
X113213333Y-101050000D01*
X113280000Y-101083333D01*
X113313333Y-101116666D01*
X113346667Y-101183333D01*
X113346667Y-101350000D01*
X113313333Y-101416666D01*
X113280000Y-101450000D01*
X113346667Y-95366666D02*
X113013333Y-95600000D01*
X113346667Y-95766666D02*
X112646667Y-95766666D01*
X112646667Y-95500000D01*
X112680000Y-95433333D01*
X112713333Y-95400000D01*
X112780000Y-95366666D01*
X112880000Y-95366666D01*
X112946667Y-95400000D01*
X112980000Y-95433333D01*
X113013333Y-95500000D01*
X113013333Y-95766666D01*
X112646667Y-94766666D02*
X112646667Y-94900000D01*
X112680000Y-94966666D01*
X112713333Y-95000000D01*
X112813333Y-95066666D01*
X112946667Y-95100000D01*
X113213333Y-95100000D01*
X113280000Y-95066666D01*
X113313333Y-95033333D01*
X113346667Y-94966666D01*
X113346667Y-94833333D01*
X113313333Y-94766666D01*
X113280000Y-94733333D01*
X113213333Y-94700000D01*
X113046667Y-94700000D01*
X112980000Y-94733333D01*
X112946667Y-94766666D01*
X112913333Y-94833333D01*
X112913333Y-94966666D01*
X112946667Y-95033333D01*
X112980000Y-95066666D01*
X113046667Y-95100000D01*
X113346667Y-89016666D02*
X113013333Y-89250000D01*
X113346667Y-89416666D02*
X112646667Y-89416666D01*
X112646667Y-89150000D01*
X112680000Y-89083333D01*
X112713333Y-89050000D01*
X112780000Y-89016666D01*
X112880000Y-89016666D01*
X112946667Y-89050000D01*
X112980000Y-89083333D01*
X113013333Y-89150000D01*
X113013333Y-89416666D01*
X112646667Y-88783333D02*
X112646667Y-88316666D01*
X113346667Y-88616666D01*
X113346667Y-75046666D02*
X113013333Y-75280000D01*
X113346667Y-75446666D02*
X112646667Y-75446666D01*
X112646667Y-75180000D01*
X112680000Y-75113333D01*
X112713333Y-75080000D01*
X112780000Y-75046666D01*
X112880000Y-75046666D01*
X112946667Y-75080000D01*
X112980000Y-75113333D01*
X113013333Y-75180000D01*
X113013333Y-75446666D01*
X112946667Y-74646666D02*
X112913333Y-74713333D01*
X112880000Y-74746666D01*
X112813333Y-74780000D01*
X112780000Y-74780000D01*
X112713333Y-74746666D01*
X112680000Y-74713333D01*
X112646667Y-74646666D01*
X112646667Y-74513333D01*
X112680000Y-74446666D01*
X112713333Y-74413333D01*
X112780000Y-74380000D01*
X112813333Y-74380000D01*
X112880000Y-74413333D01*
X112913333Y-74446666D01*
X112946667Y-74513333D01*
X112946667Y-74646666D01*
X112980000Y-74713333D01*
X113013333Y-74746666D01*
X113080000Y-74780000D01*
X113213333Y-74780000D01*
X113280000Y-74746666D01*
X113313333Y-74713333D01*
X113346667Y-74646666D01*
X113346667Y-74513333D01*
X113313333Y-74446666D01*
X113280000Y-74413333D01*
X113213333Y-74380000D01*
X113080000Y-74380000D01*
X113013333Y-74413333D01*
X112980000Y-74446666D01*
X112946667Y-74513333D01*
D12*
X99314762Y-99677381D02*
X99314762Y-100391667D01*
X99267142Y-100534524D01*
X99171904Y-100629762D01*
X99029047Y-100677381D01*
X98933809Y-100677381D01*
X100219524Y-100010714D02*
X100219524Y-100677381D01*
X99790952Y-100010714D02*
X99790952Y-100534524D01*
X99838571Y-100629762D01*
X99933809Y-100677381D01*
X100076667Y-100677381D01*
X100171905Y-100629762D01*
X100219524Y-100582143D01*
X100695714Y-100677381D02*
X100695714Y-100010714D01*
X100695714Y-100105952D02*
X100743333Y-100058333D01*
X100838571Y-100010714D01*
X100981429Y-100010714D01*
X101076667Y-100058333D01*
X101124286Y-100153571D01*
X101124286Y-100677381D01*
X101124286Y-100153571D02*
X101171905Y-100058333D01*
X101267143Y-100010714D01*
X101410000Y-100010714D01*
X101505238Y-100058333D01*
X101552857Y-100153571D01*
X101552857Y-100677381D01*
X102029047Y-100010714D02*
X102029047Y-101010714D01*
X102029047Y-100058333D02*
X102124285Y-100010714D01*
X102314762Y-100010714D01*
X102410000Y-100058333D01*
X102457619Y-100105952D01*
X102505238Y-100201190D01*
X102505238Y-100486905D01*
X102457619Y-100582143D01*
X102410000Y-100629762D01*
X102314762Y-100677381D01*
X102124285Y-100677381D01*
X102029047Y-100629762D01*
X103314762Y-100629762D02*
X103219524Y-100677381D01*
X103029047Y-100677381D01*
X102933809Y-100629762D01*
X102886190Y-100534524D01*
X102886190Y-100153571D01*
X102933809Y-100058333D01*
X103029047Y-100010714D01*
X103219524Y-100010714D01*
X103314762Y-100058333D01*
X103362381Y-100153571D01*
X103362381Y-100248810D01*
X102886190Y-100344048D01*
X103790952Y-100677381D02*
X103790952Y-100010714D01*
X103790952Y-100201190D02*
X103838571Y-100105952D01*
X103886190Y-100058333D01*
X103981428Y-100010714D01*
X104076667Y-100010714D01*
X104171905Y-100772619D02*
X104933810Y-100772619D01*
X105171905Y-100677381D02*
X105171905Y-99677381D01*
X105743334Y-100677381D01*
X105743334Y-99677381D01*
X106410000Y-99677381D02*
X106600477Y-99677381D01*
X106695715Y-99725000D01*
X106790953Y-99820238D01*
X106838572Y-100010714D01*
X106838572Y-100344048D01*
X106790953Y-100534524D01*
X106695715Y-100629762D01*
X106600477Y-100677381D01*
X106410000Y-100677381D01*
X106314762Y-100629762D01*
X106219524Y-100534524D01*
X106171905Y-100344048D01*
X106171905Y-100010714D01*
X106219524Y-99820238D01*
X106314762Y-99725000D01*
X106410000Y-99677381D01*
X107029048Y-100772619D02*
X107790953Y-100772619D01*
X107981429Y-100629762D02*
X108124286Y-100677381D01*
X108362382Y-100677381D01*
X108457620Y-100629762D01*
X108505239Y-100582143D01*
X108552858Y-100486905D01*
X108552858Y-100391667D01*
X108505239Y-100296429D01*
X108457620Y-100248810D01*
X108362382Y-100201190D01*
X108171905Y-100153571D01*
X108076667Y-100105952D01*
X108029048Y-100058333D01*
X107981429Y-99963095D01*
X107981429Y-99867857D01*
X108029048Y-99772619D01*
X108076667Y-99725000D01*
X108171905Y-99677381D01*
X108410001Y-99677381D01*
X108552858Y-99725000D01*
X108981429Y-100677381D02*
X108981429Y-100010714D01*
X108981429Y-100105952D02*
X109029048Y-100058333D01*
X109124286Y-100010714D01*
X109267144Y-100010714D01*
X109362382Y-100058333D01*
X109410001Y-100153571D01*
X109410001Y-100677381D01*
X109410001Y-100153571D02*
X109457620Y-100058333D01*
X109552858Y-100010714D01*
X109695715Y-100010714D01*
X109790953Y-100058333D01*
X109838572Y-100153571D01*
X109838572Y-100677381D01*
X110743334Y-100677381D02*
X110743334Y-100153571D01*
X110695715Y-100058333D01*
X110600477Y-100010714D01*
X110410000Y-100010714D01*
X110314762Y-100058333D01*
X110743334Y-100629762D02*
X110648096Y-100677381D01*
X110410000Y-100677381D01*
X110314762Y-100629762D01*
X110267143Y-100534524D01*
X110267143Y-100439286D01*
X110314762Y-100344048D01*
X110410000Y-100296429D01*
X110648096Y-100296429D01*
X110743334Y-100248810D01*
X111362381Y-100677381D02*
X111267143Y-100629762D01*
X111219524Y-100534524D01*
X111219524Y-99677381D01*
X111886191Y-100677381D02*
X111790953Y-100629762D01*
X111743334Y-100534524D01*
X111743334Y-99677381D01*
X99314762Y-93327381D02*
X99314762Y-94041667D01*
X99267142Y-94184524D01*
X99171904Y-94279762D01*
X99029047Y-94327381D01*
X98933809Y-94327381D01*
X100219524Y-93660714D02*
X100219524Y-94327381D01*
X99790952Y-93660714D02*
X99790952Y-94184524D01*
X99838571Y-94279762D01*
X99933809Y-94327381D01*
X100076667Y-94327381D01*
X100171905Y-94279762D01*
X100219524Y-94232143D01*
X100695714Y-94327381D02*
X100695714Y-93660714D01*
X100695714Y-93755952D02*
X100743333Y-93708333D01*
X100838571Y-93660714D01*
X100981429Y-93660714D01*
X101076667Y-93708333D01*
X101124286Y-93803571D01*
X101124286Y-94327381D01*
X101124286Y-93803571D02*
X101171905Y-93708333D01*
X101267143Y-93660714D01*
X101410000Y-93660714D01*
X101505238Y-93708333D01*
X101552857Y-93803571D01*
X101552857Y-94327381D01*
X102029047Y-93660714D02*
X102029047Y-94660714D01*
X102029047Y-93708333D02*
X102124285Y-93660714D01*
X102314762Y-93660714D01*
X102410000Y-93708333D01*
X102457619Y-93755952D01*
X102505238Y-93851190D01*
X102505238Y-94136905D01*
X102457619Y-94232143D01*
X102410000Y-94279762D01*
X102314762Y-94327381D01*
X102124285Y-94327381D01*
X102029047Y-94279762D01*
X103314762Y-94279762D02*
X103219524Y-94327381D01*
X103029047Y-94327381D01*
X102933809Y-94279762D01*
X102886190Y-94184524D01*
X102886190Y-93803571D01*
X102933809Y-93708333D01*
X103029047Y-93660714D01*
X103219524Y-93660714D01*
X103314762Y-93708333D01*
X103362381Y-93803571D01*
X103362381Y-93898810D01*
X102886190Y-93994048D01*
X103790952Y-94327381D02*
X103790952Y-93660714D01*
X103790952Y-93851190D02*
X103838571Y-93755952D01*
X103886190Y-93708333D01*
X103981428Y-93660714D01*
X104076667Y-93660714D01*
X104171905Y-94422619D02*
X104933810Y-94422619D01*
X105171905Y-94327381D02*
X105171905Y-93327381D01*
X105743334Y-94327381D01*
X105743334Y-93327381D01*
X106410000Y-93327381D02*
X106600477Y-93327381D01*
X106695715Y-93375000D01*
X106790953Y-93470238D01*
X106838572Y-93660714D01*
X106838572Y-93994048D01*
X106790953Y-94184524D01*
X106695715Y-94279762D01*
X106600477Y-94327381D01*
X106410000Y-94327381D01*
X106314762Y-94279762D01*
X106219524Y-94184524D01*
X106171905Y-93994048D01*
X106171905Y-93660714D01*
X106219524Y-93470238D01*
X106314762Y-93375000D01*
X106410000Y-93327381D01*
X107029048Y-94422619D02*
X107790953Y-94422619D01*
X107981429Y-94279762D02*
X108124286Y-94327381D01*
X108362382Y-94327381D01*
X108457620Y-94279762D01*
X108505239Y-94232143D01*
X108552858Y-94136905D01*
X108552858Y-94041667D01*
X108505239Y-93946429D01*
X108457620Y-93898810D01*
X108362382Y-93851190D01*
X108171905Y-93803571D01*
X108076667Y-93755952D01*
X108029048Y-93708333D01*
X107981429Y-93613095D01*
X107981429Y-93517857D01*
X108029048Y-93422619D01*
X108076667Y-93375000D01*
X108171905Y-93327381D01*
X108410001Y-93327381D01*
X108552858Y-93375000D01*
X108981429Y-94327381D02*
X108981429Y-93660714D01*
X108981429Y-93755952D02*
X109029048Y-93708333D01*
X109124286Y-93660714D01*
X109267144Y-93660714D01*
X109362382Y-93708333D01*
X109410001Y-93803571D01*
X109410001Y-94327381D01*
X109410001Y-93803571D02*
X109457620Y-93708333D01*
X109552858Y-93660714D01*
X109695715Y-93660714D01*
X109790953Y-93708333D01*
X109838572Y-93803571D01*
X109838572Y-94327381D01*
X110743334Y-94327381D02*
X110743334Y-93803571D01*
X110695715Y-93708333D01*
X110600477Y-93660714D01*
X110410000Y-93660714D01*
X110314762Y-93708333D01*
X110743334Y-94279762D02*
X110648096Y-94327381D01*
X110410000Y-94327381D01*
X110314762Y-94279762D01*
X110267143Y-94184524D01*
X110267143Y-94089286D01*
X110314762Y-93994048D01*
X110410000Y-93946429D01*
X110648096Y-93946429D01*
X110743334Y-93898810D01*
X111362381Y-94327381D02*
X111267143Y-94279762D01*
X111219524Y-94184524D01*
X111219524Y-93327381D01*
X111886191Y-94327381D02*
X111790953Y-94279762D01*
X111743334Y-94184524D01*
X111743334Y-93327381D01*
X99314762Y-106027381D02*
X99314762Y-106741667D01*
X99267142Y-106884524D01*
X99171904Y-106979762D01*
X99029047Y-107027381D01*
X98933809Y-107027381D01*
X100219524Y-106360714D02*
X100219524Y-107027381D01*
X99790952Y-106360714D02*
X99790952Y-106884524D01*
X99838571Y-106979762D01*
X99933809Y-107027381D01*
X100076667Y-107027381D01*
X100171905Y-106979762D01*
X100219524Y-106932143D01*
X100695714Y-107027381D02*
X100695714Y-106360714D01*
X100695714Y-106455952D02*
X100743333Y-106408333D01*
X100838571Y-106360714D01*
X100981429Y-106360714D01*
X101076667Y-106408333D01*
X101124286Y-106503571D01*
X101124286Y-107027381D01*
X101124286Y-106503571D02*
X101171905Y-106408333D01*
X101267143Y-106360714D01*
X101410000Y-106360714D01*
X101505238Y-106408333D01*
X101552857Y-106503571D01*
X101552857Y-107027381D01*
X102029047Y-106360714D02*
X102029047Y-107360714D01*
X102029047Y-106408333D02*
X102124285Y-106360714D01*
X102314762Y-106360714D01*
X102410000Y-106408333D01*
X102457619Y-106455952D01*
X102505238Y-106551190D01*
X102505238Y-106836905D01*
X102457619Y-106932143D01*
X102410000Y-106979762D01*
X102314762Y-107027381D01*
X102124285Y-107027381D01*
X102029047Y-106979762D01*
X103314762Y-106979762D02*
X103219524Y-107027381D01*
X103029047Y-107027381D01*
X102933809Y-106979762D01*
X102886190Y-106884524D01*
X102886190Y-106503571D01*
X102933809Y-106408333D01*
X103029047Y-106360714D01*
X103219524Y-106360714D01*
X103314762Y-106408333D01*
X103362381Y-106503571D01*
X103362381Y-106598810D01*
X102886190Y-106694048D01*
X103790952Y-107027381D02*
X103790952Y-106360714D01*
X103790952Y-106551190D02*
X103838571Y-106455952D01*
X103886190Y-106408333D01*
X103981428Y-106360714D01*
X104076667Y-106360714D01*
X104171905Y-107122619D02*
X104933810Y-107122619D01*
X105171905Y-107027381D02*
X105171905Y-106027381D01*
X105743334Y-107027381D01*
X105743334Y-106027381D01*
X106410000Y-106027381D02*
X106600477Y-106027381D01*
X106695715Y-106075000D01*
X106790953Y-106170238D01*
X106838572Y-106360714D01*
X106838572Y-106694048D01*
X106790953Y-106884524D01*
X106695715Y-106979762D01*
X106600477Y-107027381D01*
X106410000Y-107027381D01*
X106314762Y-106979762D01*
X106219524Y-106884524D01*
X106171905Y-106694048D01*
X106171905Y-106360714D01*
X106219524Y-106170238D01*
X106314762Y-106075000D01*
X106410000Y-106027381D01*
X107029048Y-107122619D02*
X107790953Y-107122619D01*
X107981429Y-106979762D02*
X108124286Y-107027381D01*
X108362382Y-107027381D01*
X108457620Y-106979762D01*
X108505239Y-106932143D01*
X108552858Y-106836905D01*
X108552858Y-106741667D01*
X108505239Y-106646429D01*
X108457620Y-106598810D01*
X108362382Y-106551190D01*
X108171905Y-106503571D01*
X108076667Y-106455952D01*
X108029048Y-106408333D01*
X107981429Y-106313095D01*
X107981429Y-106217857D01*
X108029048Y-106122619D01*
X108076667Y-106075000D01*
X108171905Y-106027381D01*
X108410001Y-106027381D01*
X108552858Y-106075000D01*
X108981429Y-107027381D02*
X108981429Y-106360714D01*
X108981429Y-106455952D02*
X109029048Y-106408333D01*
X109124286Y-106360714D01*
X109267144Y-106360714D01*
X109362382Y-106408333D01*
X109410001Y-106503571D01*
X109410001Y-107027381D01*
X109410001Y-106503571D02*
X109457620Y-106408333D01*
X109552858Y-106360714D01*
X109695715Y-106360714D01*
X109790953Y-106408333D01*
X109838572Y-106503571D01*
X109838572Y-107027381D01*
X110743334Y-107027381D02*
X110743334Y-106503571D01*
X110695715Y-106408333D01*
X110600477Y-106360714D01*
X110410000Y-106360714D01*
X110314762Y-106408333D01*
X110743334Y-106979762D02*
X110648096Y-107027381D01*
X110410000Y-107027381D01*
X110314762Y-106979762D01*
X110267143Y-106884524D01*
X110267143Y-106789286D01*
X110314762Y-106694048D01*
X110410000Y-106646429D01*
X110648096Y-106646429D01*
X110743334Y-106598810D01*
X111362381Y-107027381D02*
X111267143Y-106979762D01*
X111219524Y-106884524D01*
X111219524Y-106027381D01*
X111886191Y-107027381D02*
X111790953Y-106979762D01*
X111743334Y-106884524D01*
X111743334Y-106027381D01*
X99314762Y-79357381D02*
X99314762Y-80071667D01*
X99267142Y-80214524D01*
X99171904Y-80309762D01*
X99029047Y-80357381D01*
X98933809Y-80357381D01*
X100219524Y-79690714D02*
X100219524Y-80357381D01*
X99790952Y-79690714D02*
X99790952Y-80214524D01*
X99838571Y-80309762D01*
X99933809Y-80357381D01*
X100076667Y-80357381D01*
X100171905Y-80309762D01*
X100219524Y-80262143D01*
X100695714Y-80357381D02*
X100695714Y-79690714D01*
X100695714Y-79785952D02*
X100743333Y-79738333D01*
X100838571Y-79690714D01*
X100981429Y-79690714D01*
X101076667Y-79738333D01*
X101124286Y-79833571D01*
X101124286Y-80357381D01*
X101124286Y-79833571D02*
X101171905Y-79738333D01*
X101267143Y-79690714D01*
X101410000Y-79690714D01*
X101505238Y-79738333D01*
X101552857Y-79833571D01*
X101552857Y-80357381D01*
X102029047Y-79690714D02*
X102029047Y-80690714D01*
X102029047Y-79738333D02*
X102124285Y-79690714D01*
X102314762Y-79690714D01*
X102410000Y-79738333D01*
X102457619Y-79785952D01*
X102505238Y-79881190D01*
X102505238Y-80166905D01*
X102457619Y-80262143D01*
X102410000Y-80309762D01*
X102314762Y-80357381D01*
X102124285Y-80357381D01*
X102029047Y-80309762D01*
X103314762Y-80309762D02*
X103219524Y-80357381D01*
X103029047Y-80357381D01*
X102933809Y-80309762D01*
X102886190Y-80214524D01*
X102886190Y-79833571D01*
X102933809Y-79738333D01*
X103029047Y-79690714D01*
X103219524Y-79690714D01*
X103314762Y-79738333D01*
X103362381Y-79833571D01*
X103362381Y-79928810D01*
X102886190Y-80024048D01*
X103790952Y-80357381D02*
X103790952Y-79690714D01*
X103790952Y-79881190D02*
X103838571Y-79785952D01*
X103886190Y-79738333D01*
X103981428Y-79690714D01*
X104076667Y-79690714D01*
X104171905Y-80452619D02*
X104933810Y-80452619D01*
X105171905Y-80357381D02*
X105171905Y-79357381D01*
X105743334Y-80357381D01*
X105743334Y-79357381D01*
X106410000Y-79357381D02*
X106600477Y-79357381D01*
X106695715Y-79405000D01*
X106790953Y-79500238D01*
X106838572Y-79690714D01*
X106838572Y-80024048D01*
X106790953Y-80214524D01*
X106695715Y-80309762D01*
X106600477Y-80357381D01*
X106410000Y-80357381D01*
X106314762Y-80309762D01*
X106219524Y-80214524D01*
X106171905Y-80024048D01*
X106171905Y-79690714D01*
X106219524Y-79500238D01*
X106314762Y-79405000D01*
X106410000Y-79357381D01*
X107029048Y-80452619D02*
X107790953Y-80452619D01*
X107981429Y-80309762D02*
X108124286Y-80357381D01*
X108362382Y-80357381D01*
X108457620Y-80309762D01*
X108505239Y-80262143D01*
X108552858Y-80166905D01*
X108552858Y-80071667D01*
X108505239Y-79976429D01*
X108457620Y-79928810D01*
X108362382Y-79881190D01*
X108171905Y-79833571D01*
X108076667Y-79785952D01*
X108029048Y-79738333D01*
X107981429Y-79643095D01*
X107981429Y-79547857D01*
X108029048Y-79452619D01*
X108076667Y-79405000D01*
X108171905Y-79357381D01*
X108410001Y-79357381D01*
X108552858Y-79405000D01*
X108981429Y-80357381D02*
X108981429Y-79690714D01*
X108981429Y-79785952D02*
X109029048Y-79738333D01*
X109124286Y-79690714D01*
X109267144Y-79690714D01*
X109362382Y-79738333D01*
X109410001Y-79833571D01*
X109410001Y-80357381D01*
X109410001Y-79833571D02*
X109457620Y-79738333D01*
X109552858Y-79690714D01*
X109695715Y-79690714D01*
X109790953Y-79738333D01*
X109838572Y-79833571D01*
X109838572Y-80357381D01*
X110743334Y-80357381D02*
X110743334Y-79833571D01*
X110695715Y-79738333D01*
X110600477Y-79690714D01*
X110410000Y-79690714D01*
X110314762Y-79738333D01*
X110743334Y-80309762D02*
X110648096Y-80357381D01*
X110410000Y-80357381D01*
X110314762Y-80309762D01*
X110267143Y-80214524D01*
X110267143Y-80119286D01*
X110314762Y-80024048D01*
X110410000Y-79976429D01*
X110648096Y-79976429D01*
X110743334Y-79928810D01*
X111362381Y-80357381D02*
X111267143Y-80309762D01*
X111219524Y-80214524D01*
X111219524Y-79357381D01*
X111886191Y-80357381D02*
X111790953Y-80309762D01*
X111743334Y-80214524D01*
X111743334Y-79357381D01*
X83652381Y-153272857D02*
X84461905Y-153272857D01*
X84557143Y-153225238D01*
X84604762Y-153177619D01*
X84652381Y-153082381D01*
X84652381Y-152891904D01*
X84604762Y-152796666D01*
X84557143Y-152749047D01*
X84461905Y-152701428D01*
X83652381Y-152701428D01*
X84604762Y-152272857D02*
X84652381Y-152130000D01*
X84652381Y-151891904D01*
X84604762Y-151796666D01*
X84557143Y-151749047D01*
X84461905Y-151701428D01*
X84366667Y-151701428D01*
X84271429Y-151749047D01*
X84223810Y-151796666D01*
X84176190Y-151891904D01*
X84128571Y-152082381D01*
X84080952Y-152177619D01*
X84033333Y-152225238D01*
X83938095Y-152272857D01*
X83842857Y-152272857D01*
X83747619Y-152225238D01*
X83700000Y-152177619D01*
X83652381Y-152082381D01*
X83652381Y-151844285D01*
X83700000Y-151701428D01*
X84128571Y-150939523D02*
X84176190Y-150796666D01*
X84223810Y-150749047D01*
X84319048Y-150701428D01*
X84461905Y-150701428D01*
X84557143Y-150749047D01*
X84604762Y-150796666D01*
X84652381Y-150891904D01*
X84652381Y-151272857D01*
X83652381Y-151272857D01*
X83652381Y-150939523D01*
X83700000Y-150844285D01*
X83747619Y-150796666D01*
X83842857Y-150749047D01*
X83938095Y-150749047D01*
X84033333Y-150796666D01*
X84080952Y-150844285D01*
X84128571Y-150939523D01*
X84128571Y-151272857D01*
X84747619Y-150510952D02*
X84747619Y-149749047D01*
X84128571Y-149177618D02*
X84176190Y-149034761D01*
X84223810Y-148987142D01*
X84319048Y-148939523D01*
X84461905Y-148939523D01*
X84557143Y-148987142D01*
X84604762Y-149034761D01*
X84652381Y-149129999D01*
X84652381Y-149510952D01*
X83652381Y-149510952D01*
X83652381Y-149177618D01*
X83700000Y-149082380D01*
X83747619Y-149034761D01*
X83842857Y-148987142D01*
X83938095Y-148987142D01*
X84033333Y-149034761D01*
X84080952Y-149082380D01*
X84128571Y-149177618D01*
X84128571Y-149510952D01*
X158520952Y-73232381D02*
X158520952Y-72232381D01*
X158854286Y-72946667D01*
X159187619Y-72232381D01*
X159187619Y-73232381D01*
X159806666Y-73232381D02*
X159711428Y-73184762D01*
X159663809Y-73137143D01*
X159616190Y-73041905D01*
X159616190Y-72756190D01*
X159663809Y-72660952D01*
X159711428Y-72613333D01*
X159806666Y-72565714D01*
X159949524Y-72565714D01*
X160044762Y-72613333D01*
X160092381Y-72660952D01*
X160140000Y-72756190D01*
X160140000Y-73041905D01*
X160092381Y-73137143D01*
X160044762Y-73184762D01*
X159949524Y-73232381D01*
X159806666Y-73232381D01*
X160997143Y-72565714D02*
X160997143Y-73232381D01*
X160568571Y-72565714D02*
X160568571Y-73089524D01*
X160616190Y-73184762D01*
X160711428Y-73232381D01*
X160854286Y-73232381D01*
X160949524Y-73184762D01*
X160997143Y-73137143D01*
X161473333Y-72565714D02*
X161473333Y-73232381D01*
X161473333Y-72660952D02*
X161520952Y-72613333D01*
X161616190Y-72565714D01*
X161759048Y-72565714D01*
X161854286Y-72613333D01*
X161901905Y-72708571D01*
X161901905Y-73232381D01*
X162235238Y-72565714D02*
X162616190Y-72565714D01*
X162378095Y-72232381D02*
X162378095Y-73089524D01*
X162425714Y-73184762D01*
X162520952Y-73232381D01*
X162616190Y-73232381D01*
X162949524Y-73232381D02*
X162949524Y-72565714D01*
X162949524Y-72232381D02*
X162901905Y-72280000D01*
X162949524Y-72327619D01*
X162997143Y-72280000D01*
X162949524Y-72232381D01*
X162949524Y-72327619D01*
X163425714Y-72565714D02*
X163425714Y-73232381D01*
X163425714Y-72660952D02*
X163473333Y-72613333D01*
X163568571Y-72565714D01*
X163711429Y-72565714D01*
X163806667Y-72613333D01*
X163854286Y-72708571D01*
X163854286Y-73232381D01*
X164759048Y-72565714D02*
X164759048Y-73375238D01*
X164711429Y-73470476D01*
X164663810Y-73518095D01*
X164568571Y-73565714D01*
X164425714Y-73565714D01*
X164330476Y-73518095D01*
X164759048Y-73184762D02*
X164663810Y-73232381D01*
X164473333Y-73232381D01*
X164378095Y-73184762D01*
X164330476Y-73137143D01*
X164282857Y-73041905D01*
X164282857Y-72756190D01*
X164330476Y-72660952D01*
X164378095Y-72613333D01*
X164473333Y-72565714D01*
X164663810Y-72565714D01*
X164759048Y-72613333D01*
X165235238Y-73232381D02*
X165235238Y-72232381D01*
X165235238Y-72708571D02*
X165806667Y-72708571D01*
X165806667Y-73232381D02*
X165806667Y-72232381D01*
X166425714Y-73232381D02*
X166330476Y-73184762D01*
X166282857Y-73137143D01*
X166235238Y-73041905D01*
X166235238Y-72756190D01*
X166282857Y-72660952D01*
X166330476Y-72613333D01*
X166425714Y-72565714D01*
X166568572Y-72565714D01*
X166663810Y-72613333D01*
X166711429Y-72660952D01*
X166759048Y-72756190D01*
X166759048Y-73041905D01*
X166711429Y-73137143D01*
X166663810Y-73184762D01*
X166568572Y-73232381D01*
X166425714Y-73232381D01*
X167330476Y-73232381D02*
X167235238Y-73184762D01*
X167187619Y-73089524D01*
X167187619Y-72232381D01*
X168092382Y-73184762D02*
X167997144Y-73232381D01*
X167806667Y-73232381D01*
X167711429Y-73184762D01*
X167663810Y-73089524D01*
X167663810Y-72708571D01*
X167711429Y-72613333D01*
X167806667Y-72565714D01*
X167997144Y-72565714D01*
X168092382Y-72613333D01*
X168140001Y-72708571D01*
X168140001Y-72803810D01*
X167663810Y-72899048D01*
X168330477Y-73327619D02*
X169092382Y-73327619D01*
X169235239Y-72232381D02*
X169854287Y-72232381D01*
X169520953Y-72613333D01*
X169663811Y-72613333D01*
X169759049Y-72660952D01*
X169806668Y-72708571D01*
X169854287Y-72803810D01*
X169854287Y-73041905D01*
X169806668Y-73137143D01*
X169759049Y-73184762D01*
X169663811Y-73232381D01*
X169378096Y-73232381D01*
X169282858Y-73184762D01*
X169235239Y-73137143D01*
X170282858Y-73137143D02*
X170330477Y-73184762D01*
X170282858Y-73232381D01*
X170235239Y-73184762D01*
X170282858Y-73137143D01*
X170282858Y-73232381D01*
X170711429Y-72327619D02*
X170759048Y-72280000D01*
X170854286Y-72232381D01*
X171092382Y-72232381D01*
X171187620Y-72280000D01*
X171235239Y-72327619D01*
X171282858Y-72422857D01*
X171282858Y-72518095D01*
X171235239Y-72660952D01*
X170663810Y-73232381D01*
X171282858Y-73232381D01*
X171711429Y-73232381D02*
X171711429Y-72565714D01*
X171711429Y-72660952D02*
X171759048Y-72613333D01*
X171854286Y-72565714D01*
X171997144Y-72565714D01*
X172092382Y-72613333D01*
X172140001Y-72708571D01*
X172140001Y-73232381D01*
X172140001Y-72708571D02*
X172187620Y-72613333D01*
X172282858Y-72565714D01*
X172425715Y-72565714D01*
X172520953Y-72613333D01*
X172568572Y-72708571D01*
X172568572Y-73232381D01*
X173044762Y-73232381D02*
X173044762Y-72565714D01*
X173044762Y-72660952D02*
X173092381Y-72613333D01*
X173187619Y-72565714D01*
X173330477Y-72565714D01*
X173425715Y-72613333D01*
X173473334Y-72708571D01*
X173473334Y-73232381D01*
X173473334Y-72708571D02*
X173520953Y-72613333D01*
X173616191Y-72565714D01*
X173759048Y-72565714D01*
X173854286Y-72613333D01*
X173901905Y-72708571D01*
X173901905Y-73232381D01*
X174140000Y-73327619D02*
X174901905Y-73327619D01*
X175140000Y-73232381D02*
X175140000Y-72232381D01*
X175473334Y-72946667D01*
X175806667Y-72232381D01*
X175806667Y-73232381D01*
X176187619Y-72232381D02*
X176806667Y-72232381D01*
X176473333Y-72613333D01*
X176616191Y-72613333D01*
X176711429Y-72660952D01*
X176759048Y-72708571D01*
X176806667Y-72803810D01*
X176806667Y-73041905D01*
X176759048Y-73137143D01*
X176711429Y-73184762D01*
X176616191Y-73232381D01*
X176330476Y-73232381D01*
X176235238Y-73184762D01*
X176187619Y-73137143D01*
M02*
