G04 #@! TF.FileFunction,Legend,Bot*
%FSLAX46Y46*%
G04 Gerber Fmt 4.6, Leading zero omitted, Abs format (unit mm)*
G04 Created by KiCad (PCBNEW 4.0.4-stable) date 01/08/18 17:18:11*
%MOMM*%
%LPD*%
G01*
G04 APERTURE LIST*
%ADD10C,0.250000*%
%ADD11C,0.300000*%
%ADD12C,0.150000*%
%ADD13C,0.100000*%
G04 APERTURE END LIST*
D10*
D11*
X109639998Y-139103571D02*
X110497141Y-139103571D01*
X110068569Y-139103571D02*
X110068569Y-137603571D01*
X110211426Y-137817857D01*
X110354284Y-137960714D01*
X110497141Y-138032143D01*
X109068570Y-137746429D02*
X108997141Y-137675000D01*
X108854284Y-137603571D01*
X108497141Y-137603571D01*
X108354284Y-137675000D01*
X108282855Y-137746429D01*
X108211427Y-137889286D01*
X108211427Y-138032143D01*
X108282855Y-138246429D01*
X109139998Y-139103571D01*
X108211427Y-139103571D01*
X106782856Y-139103571D02*
X107639999Y-139103571D01*
X107211427Y-139103571D02*
X107211427Y-137603571D01*
X107354284Y-137817857D01*
X107497142Y-137960714D01*
X107639999Y-138032143D01*
X106282856Y-137603571D02*
X105282856Y-137603571D01*
X105925713Y-139103571D01*
X104425714Y-137603571D02*
X104282857Y-137603571D01*
X104140000Y-137675000D01*
X104068571Y-137746429D01*
X103997142Y-137889286D01*
X103925714Y-138175000D01*
X103925714Y-138532143D01*
X103997142Y-138817857D01*
X104068571Y-138960714D01*
X104140000Y-139032143D01*
X104282857Y-139103571D01*
X104425714Y-139103571D01*
X104568571Y-139032143D01*
X104640000Y-138960714D01*
X104711428Y-138817857D01*
X104782857Y-138532143D01*
X104782857Y-138175000D01*
X104711428Y-137889286D01*
X104640000Y-137746429D01*
X104568571Y-137675000D01*
X104425714Y-137603571D01*
X103068571Y-138246429D02*
X103211429Y-138175000D01*
X103282857Y-138103571D01*
X103354286Y-137960714D01*
X103354286Y-137889286D01*
X103282857Y-137746429D01*
X103211429Y-137675000D01*
X103068571Y-137603571D01*
X102782857Y-137603571D01*
X102640000Y-137675000D01*
X102568571Y-137746429D01*
X102497143Y-137889286D01*
X102497143Y-137960714D01*
X102568571Y-138103571D01*
X102640000Y-138175000D01*
X102782857Y-138246429D01*
X103068571Y-138246429D01*
X103211429Y-138317857D01*
X103282857Y-138389286D01*
X103354286Y-138532143D01*
X103354286Y-138817857D01*
X103282857Y-138960714D01*
X103211429Y-139032143D01*
X103068571Y-139103571D01*
X102782857Y-139103571D01*
X102640000Y-139032143D01*
X102568571Y-138960714D01*
X102497143Y-138817857D01*
X102497143Y-138532143D01*
X102568571Y-138389286D01*
X102640000Y-138317857D01*
X102782857Y-138246429D01*
X101568572Y-137603571D02*
X101425715Y-137603571D01*
X101282858Y-137675000D01*
X101211429Y-137746429D01*
X101140000Y-137889286D01*
X101068572Y-138175000D01*
X101068572Y-138532143D01*
X101140000Y-138817857D01*
X101211429Y-138960714D01*
X101282858Y-139032143D01*
X101425715Y-139103571D01*
X101568572Y-139103571D01*
X101711429Y-139032143D01*
X101782858Y-138960714D01*
X101854286Y-138817857D01*
X101925715Y-138532143D01*
X101925715Y-138175000D01*
X101854286Y-137889286D01*
X101782858Y-137746429D01*
X101711429Y-137675000D01*
X101568572Y-137603571D01*
X100425715Y-138532143D02*
X99282858Y-138532143D01*
X97782858Y-139103571D02*
X98640001Y-139103571D01*
X98211429Y-139103571D02*
X98211429Y-137603571D01*
X98354286Y-137817857D01*
X98497144Y-137960714D01*
X98640001Y-138032143D01*
X110139999Y-140867857D02*
X110639999Y-140867857D01*
X110639999Y-141653571D02*
X110639999Y-140153571D01*
X109925713Y-140153571D01*
X109425714Y-141225000D02*
X108711428Y-141225000D01*
X109568571Y-141653571D02*
X109068571Y-140153571D01*
X108568571Y-141653571D01*
X108140000Y-141582143D02*
X107925714Y-141653571D01*
X107568571Y-141653571D01*
X107425714Y-141582143D01*
X107354285Y-141510714D01*
X107282857Y-141367857D01*
X107282857Y-141225000D01*
X107354285Y-141082143D01*
X107425714Y-141010714D01*
X107568571Y-140939286D01*
X107854285Y-140867857D01*
X107997143Y-140796429D01*
X108068571Y-140725000D01*
X108140000Y-140582143D01*
X108140000Y-140439286D01*
X108068571Y-140296429D01*
X107997143Y-140225000D01*
X107854285Y-140153571D01*
X107497143Y-140153571D01*
X107282857Y-140225000D01*
X106854286Y-140153571D02*
X105997143Y-140153571D01*
X106425714Y-141653571D02*
X106425714Y-140153571D01*
X105211429Y-140153571D02*
X104925715Y-140153571D01*
X104782857Y-140225000D01*
X104640000Y-140367857D01*
X104568572Y-140653571D01*
X104568572Y-141153571D01*
X104640000Y-141439286D01*
X104782857Y-141582143D01*
X104925715Y-141653571D01*
X105211429Y-141653571D01*
X105354286Y-141582143D01*
X105497143Y-141439286D01*
X105568572Y-141153571D01*
X105568572Y-140653571D01*
X105497143Y-140367857D01*
X105354286Y-140225000D01*
X105211429Y-140153571D01*
X103925714Y-141653571D02*
X103925714Y-140153571D01*
X103068571Y-141653571D01*
X103068571Y-140153571D01*
X101282857Y-140296429D02*
X101211428Y-140225000D01*
X101068571Y-140153571D01*
X100711428Y-140153571D01*
X100568571Y-140225000D01*
X100497142Y-140296429D01*
X100425714Y-140439286D01*
X100425714Y-140582143D01*
X100497142Y-140796429D01*
X101354285Y-141653571D01*
X100425714Y-141653571D01*
X99068571Y-140153571D02*
X99782857Y-140153571D01*
X99854286Y-140867857D01*
X99782857Y-140796429D01*
X99640000Y-140725000D01*
X99282857Y-140725000D01*
X99140000Y-140796429D01*
X99068571Y-140867857D01*
X98997143Y-141010714D01*
X98997143Y-141367857D01*
X99068571Y-141510714D01*
X99140000Y-141582143D01*
X99282857Y-141653571D01*
X99640000Y-141653571D01*
X99782857Y-141582143D01*
X99854286Y-141510714D01*
X98068572Y-140153571D02*
X97925715Y-140153571D01*
X97782858Y-140225000D01*
X97711429Y-140296429D01*
X97640000Y-140439286D01*
X97568572Y-140725000D01*
X97568572Y-141082143D01*
X97640000Y-141367857D01*
X97711429Y-141510714D01*
X97782858Y-141582143D01*
X97925715Y-141653571D01*
X98068572Y-141653571D01*
X98211429Y-141582143D01*
X98282858Y-141510714D01*
X98354286Y-141367857D01*
X98425715Y-141082143D01*
X98425715Y-140725000D01*
X98354286Y-140439286D01*
X98282858Y-140296429D01*
X98211429Y-140225000D01*
X98068572Y-140153571D01*
D12*
X116355000Y-99905000D02*
X116355000Y-87205000D01*
X116355000Y-87205000D02*
X118895000Y-87205000D01*
X118895000Y-87205000D02*
X118895000Y-99905000D01*
X116075000Y-102725000D02*
X116075000Y-101175000D01*
X116355000Y-99905000D02*
X118895000Y-99905000D01*
X119175000Y-101175000D02*
X119175000Y-102725000D01*
X119175000Y-102725000D02*
X116075000Y-102725000D01*
D13*
X105757980Y-68640960D02*
X104233980Y-68640960D01*
X104995980Y-68894960D02*
X104995980Y-68386960D01*
X105523909Y-67142360D02*
G75*
G03X104468051Y-67142360I-527929J-304800D01*
G01*
X105523909Y-67142360D02*
X106037173Y-68031360D01*
X106037174Y-68031360D02*
G75*
G03X106565103Y-68336160I527929J304800D01*
G01*
X106565103Y-68336160D02*
X107891580Y-68336160D01*
X108501179Y-68944696D02*
G75*
G03X107891580Y-68336160I-609599J-1064D01*
G01*
X105897680Y-68945760D02*
G75*
G03X108501180Y-68945760I1301750J0D01*
G01*
X103426857Y-68336160D02*
X102100380Y-68336160D01*
X101490780Y-68945760D02*
G75*
G03X104094280Y-68945760I1301750J0D01*
G01*
X104468051Y-67142360D02*
X103954787Y-68031360D01*
X103426857Y-68336161D02*
G75*
G03X103954787Y-68031360I0J609601D01*
G01*
X102100380Y-68336160D02*
G75*
G03X101490780Y-68945760I0J-609600D01*
G01*
X105755440Y-82102960D02*
X104231440Y-82102960D01*
X104993440Y-82356960D02*
X104993440Y-81848960D01*
X105521369Y-80604360D02*
G75*
G03X104465511Y-80604360I-527929J-304800D01*
G01*
X105521369Y-80604360D02*
X106034633Y-81493360D01*
X106034634Y-81493360D02*
G75*
G03X106562563Y-81798160I527929J304800D01*
G01*
X106562563Y-81798160D02*
X107889040Y-81798160D01*
X108498639Y-82406696D02*
G75*
G03X107889040Y-81798160I-609599J-1064D01*
G01*
X105895140Y-82407760D02*
G75*
G03X108498640Y-82407760I1301750J0D01*
G01*
X103424317Y-81798160D02*
X102097840Y-81798160D01*
X101488240Y-82407760D02*
G75*
G03X104091740Y-82407760I1301750J0D01*
G01*
X104465511Y-80604360D02*
X103952247Y-81493360D01*
X103424317Y-81798161D02*
G75*
G03X103952247Y-81493360I0J609601D01*
G01*
X102097840Y-81798160D02*
G75*
G03X101488240Y-82407760I0J-609600D01*
G01*
X105755440Y-109280960D02*
X104231440Y-109280960D01*
X104993440Y-109534960D02*
X104993440Y-109026960D01*
X105521369Y-107782360D02*
G75*
G03X104465511Y-107782360I-527929J-304800D01*
G01*
X105521369Y-107782360D02*
X106034633Y-108671360D01*
X106034634Y-108671360D02*
G75*
G03X106562563Y-108976160I527929J304800D01*
G01*
X106562563Y-108976160D02*
X107889040Y-108976160D01*
X108498639Y-109584696D02*
G75*
G03X107889040Y-108976160I-609599J-1064D01*
G01*
X105895140Y-109585760D02*
G75*
G03X108498640Y-109585760I1301750J0D01*
G01*
X103424317Y-108976160D02*
X102097840Y-108976160D01*
X101488240Y-109585760D02*
G75*
G03X104091740Y-109585760I1301750J0D01*
G01*
X104465511Y-107782360D02*
X103952247Y-108671360D01*
X103424317Y-108976161D02*
G75*
G03X103952247Y-108671360I0J609601D01*
G01*
X102097840Y-108976160D02*
G75*
G03X101488240Y-109585760I0J-609600D01*
G01*
X105755440Y-120964960D02*
X104231440Y-120964960D01*
X104993440Y-121218960D02*
X104993440Y-120710960D01*
X105521369Y-119466360D02*
G75*
G03X104465511Y-119466360I-527929J-304800D01*
G01*
X105521369Y-119466360D02*
X106034633Y-120355360D01*
X106034634Y-120355360D02*
G75*
G03X106562563Y-120660160I527929J304800D01*
G01*
X106562563Y-120660160D02*
X107889040Y-120660160D01*
X108498639Y-121268696D02*
G75*
G03X107889040Y-120660160I-609599J-1064D01*
G01*
X105895140Y-121269760D02*
G75*
G03X108498640Y-121269760I1301750J0D01*
G01*
X103424317Y-120660160D02*
X102097840Y-120660160D01*
X101488240Y-121269760D02*
G75*
G03X104091740Y-121269760I1301750J0D01*
G01*
X104465511Y-119466360D02*
X103952247Y-120355360D01*
X103424317Y-120660161D02*
G75*
G03X103952247Y-120355360I0J609601D01*
G01*
X102097840Y-120660160D02*
G75*
G03X101488240Y-121269760I0J-609600D01*
G01*
X105755440Y-147888960D02*
X104231440Y-147888960D01*
X104993440Y-148142960D02*
X104993440Y-147634960D01*
X105521369Y-146390360D02*
G75*
G03X104465511Y-146390360I-527929J-304800D01*
G01*
X105521369Y-146390360D02*
X106034633Y-147279360D01*
X106034634Y-147279360D02*
G75*
G03X106562563Y-147584160I527929J304800D01*
G01*
X106562563Y-147584160D02*
X107889040Y-147584160D01*
X108498639Y-148192696D02*
G75*
G03X107889040Y-147584160I-609599J-1064D01*
G01*
X105895140Y-148193760D02*
G75*
G03X108498640Y-148193760I1301750J0D01*
G01*
X103424317Y-147584160D02*
X102097840Y-147584160D01*
X101488240Y-148193760D02*
G75*
G03X104091740Y-148193760I1301750J0D01*
G01*
X104465511Y-146390360D02*
X103952247Y-147279360D01*
X103424317Y-147584161D02*
G75*
G03X103952247Y-147279360I0J609601D01*
G01*
X102097840Y-147584160D02*
G75*
G03X101488240Y-148193760I0J-609600D01*
G01*
D12*
X116355000Y-139280000D02*
X116355000Y-126580000D01*
X116355000Y-126580000D02*
X118895000Y-126580000D01*
X118895000Y-126580000D02*
X118895000Y-139280000D01*
X116075000Y-142100000D02*
X116075000Y-140550000D01*
X116355000Y-139280000D02*
X118895000Y-139280000D01*
X119175000Y-140550000D02*
X119175000Y-142100000D01*
X119175000Y-142100000D02*
X116075000Y-142100000D01*
X168930000Y-99905000D02*
X168930000Y-87205000D01*
X168930000Y-87205000D02*
X171470000Y-87205000D01*
X171470000Y-87205000D02*
X171470000Y-99905000D01*
X168650000Y-102725000D02*
X168650000Y-101175000D01*
X168930000Y-99905000D02*
X171470000Y-99905000D01*
X171750000Y-101175000D02*
X171750000Y-102725000D01*
X171750000Y-102725000D02*
X168650000Y-102725000D01*
X168930000Y-139255000D02*
X168930000Y-126555000D01*
X168930000Y-126555000D02*
X171470000Y-126555000D01*
X171470000Y-126555000D02*
X171470000Y-139255000D01*
X168650000Y-142075000D02*
X168650000Y-140525000D01*
X168930000Y-139255000D02*
X171470000Y-139255000D01*
X171750000Y-140525000D02*
X171750000Y-142075000D01*
X171750000Y-142075000D02*
X168650000Y-142075000D01*
X122177381Y-100841667D02*
X122891667Y-100841667D01*
X123034524Y-100794047D01*
X123129762Y-100698809D01*
X123177381Y-100555952D01*
X123177381Y-100460714D01*
X122177381Y-101746429D02*
X122177381Y-101555952D01*
X122225000Y-101460714D01*
X122272619Y-101413095D01*
X122415476Y-101317857D01*
X122605952Y-101270238D01*
X122986905Y-101270238D01*
X123082143Y-101317857D01*
X123129762Y-101365476D01*
X123177381Y-101460714D01*
X123177381Y-101651191D01*
X123129762Y-101746429D01*
X123082143Y-101794048D01*
X122986905Y-101841667D01*
X122748810Y-101841667D01*
X122653571Y-101794048D01*
X122605952Y-101746429D01*
X122558333Y-101651191D01*
X122558333Y-101460714D01*
X122605952Y-101365476D01*
X122653571Y-101317857D01*
X122748810Y-101270238D01*
X105329313Y-65553341D02*
X105329313Y-66267627D01*
X105376933Y-66410484D01*
X105472171Y-66505722D01*
X105615028Y-66553341D01*
X105710266Y-66553341D01*
X104948361Y-65553341D02*
X104281694Y-65553341D01*
X104710266Y-66553341D01*
X105326773Y-79015341D02*
X105326773Y-79729627D01*
X105374393Y-79872484D01*
X105469631Y-79967722D01*
X105612488Y-80015341D01*
X105707726Y-80015341D01*
X104707726Y-79443912D02*
X104802964Y-79396293D01*
X104850583Y-79348674D01*
X104898202Y-79253436D01*
X104898202Y-79205817D01*
X104850583Y-79110579D01*
X104802964Y-79062960D01*
X104707726Y-79015341D01*
X104517249Y-79015341D01*
X104422011Y-79062960D01*
X104374392Y-79110579D01*
X104326773Y-79205817D01*
X104326773Y-79253436D01*
X104374392Y-79348674D01*
X104422011Y-79396293D01*
X104517249Y-79443912D01*
X104707726Y-79443912D01*
X104802964Y-79491531D01*
X104850583Y-79539150D01*
X104898202Y-79634389D01*
X104898202Y-79824865D01*
X104850583Y-79920103D01*
X104802964Y-79967722D01*
X104707726Y-80015341D01*
X104517249Y-80015341D01*
X104422011Y-79967722D01*
X104374392Y-79920103D01*
X104326773Y-79824865D01*
X104326773Y-79634389D01*
X104374392Y-79539150D01*
X104422011Y-79491531D01*
X104517249Y-79443912D01*
X105326773Y-106193341D02*
X105326773Y-106907627D01*
X105374393Y-107050484D01*
X105469631Y-107145722D01*
X105612488Y-107193341D01*
X105707726Y-107193341D01*
X104802964Y-107193341D02*
X104612488Y-107193341D01*
X104517249Y-107145722D01*
X104469630Y-107098103D01*
X104374392Y-106955246D01*
X104326773Y-106764770D01*
X104326773Y-106383817D01*
X104374392Y-106288579D01*
X104422011Y-106240960D01*
X104517249Y-106193341D01*
X104707726Y-106193341D01*
X104802964Y-106240960D01*
X104850583Y-106288579D01*
X104898202Y-106383817D01*
X104898202Y-106621912D01*
X104850583Y-106717150D01*
X104802964Y-106764770D01*
X104707726Y-106812389D01*
X104517249Y-106812389D01*
X104422011Y-106764770D01*
X104374392Y-106717150D01*
X104326773Y-106621912D01*
X105802963Y-117877341D02*
X105802963Y-118591627D01*
X105850583Y-118734484D01*
X105945821Y-118829722D01*
X106088678Y-118877341D01*
X106183916Y-118877341D01*
X104802963Y-118877341D02*
X105374392Y-118877341D01*
X105088678Y-118877341D02*
X105088678Y-117877341D01*
X105183916Y-118020198D01*
X105279154Y-118115436D01*
X105374392Y-118163055D01*
X104183916Y-117877341D02*
X104088677Y-117877341D01*
X103993439Y-117924960D01*
X103945820Y-117972579D01*
X103898201Y-118067817D01*
X103850582Y-118258293D01*
X103850582Y-118496389D01*
X103898201Y-118686865D01*
X103945820Y-118782103D01*
X103993439Y-118829722D01*
X104088677Y-118877341D01*
X104183916Y-118877341D01*
X104279154Y-118829722D01*
X104326773Y-118782103D01*
X104374392Y-118686865D01*
X104422011Y-118496389D01*
X104422011Y-118258293D01*
X104374392Y-118067817D01*
X104326773Y-117972579D01*
X104279154Y-117924960D01*
X104183916Y-117877341D01*
X105802963Y-144801341D02*
X105802963Y-145515627D01*
X105850583Y-145658484D01*
X105945821Y-145753722D01*
X106088678Y-145801341D01*
X106183916Y-145801341D01*
X104802963Y-145801341D02*
X105374392Y-145801341D01*
X105088678Y-145801341D02*
X105088678Y-144801341D01*
X105183916Y-144944198D01*
X105279154Y-145039436D01*
X105374392Y-145087055D01*
X103850582Y-145801341D02*
X104422011Y-145801341D01*
X104136297Y-145801341D02*
X104136297Y-144801341D01*
X104231535Y-144944198D01*
X104326773Y-145039436D01*
X104422011Y-145087055D01*
X122177381Y-139740477D02*
X122891667Y-139740477D01*
X123034524Y-139692857D01*
X123129762Y-139597619D01*
X123177381Y-139454762D01*
X123177381Y-139359524D01*
X123177381Y-140740477D02*
X123177381Y-140169048D01*
X123177381Y-140454762D02*
X122177381Y-140454762D01*
X122320238Y-140359524D01*
X122415476Y-140264286D01*
X122463095Y-140169048D01*
X122177381Y-141073810D02*
X122177381Y-141740477D01*
X123177381Y-141311905D01*
X174752381Y-100365477D02*
X175466667Y-100365477D01*
X175609524Y-100317857D01*
X175704762Y-100222619D01*
X175752381Y-100079762D01*
X175752381Y-99984524D01*
X175752381Y-101365477D02*
X175752381Y-100794048D01*
X175752381Y-101079762D02*
X174752381Y-101079762D01*
X174895238Y-100984524D01*
X174990476Y-100889286D01*
X175038095Y-100794048D01*
X175180952Y-101936905D02*
X175133333Y-101841667D01*
X175085714Y-101794048D01*
X174990476Y-101746429D01*
X174942857Y-101746429D01*
X174847619Y-101794048D01*
X174800000Y-101841667D01*
X174752381Y-101936905D01*
X174752381Y-102127382D01*
X174800000Y-102222620D01*
X174847619Y-102270239D01*
X174942857Y-102317858D01*
X174990476Y-102317858D01*
X175085714Y-102270239D01*
X175133333Y-102222620D01*
X175180952Y-102127382D01*
X175180952Y-101936905D01*
X175228571Y-101841667D01*
X175276190Y-101794048D01*
X175371429Y-101746429D01*
X175561905Y-101746429D01*
X175657143Y-101794048D01*
X175704762Y-101841667D01*
X175752381Y-101936905D01*
X175752381Y-102127382D01*
X175704762Y-102222620D01*
X175657143Y-102270239D01*
X175561905Y-102317858D01*
X175371429Y-102317858D01*
X175276190Y-102270239D01*
X175228571Y-102222620D01*
X175180952Y-102127382D01*
X174752381Y-139715477D02*
X175466667Y-139715477D01*
X175609524Y-139667857D01*
X175704762Y-139572619D01*
X175752381Y-139429762D01*
X175752381Y-139334524D01*
X175752381Y-140715477D02*
X175752381Y-140144048D01*
X175752381Y-140429762D02*
X174752381Y-140429762D01*
X174895238Y-140334524D01*
X174990476Y-140239286D01*
X175038095Y-140144048D01*
X175752381Y-141191667D02*
X175752381Y-141382143D01*
X175704762Y-141477382D01*
X175657143Y-141525001D01*
X175514286Y-141620239D01*
X175323810Y-141667858D01*
X174942857Y-141667858D01*
X174847619Y-141620239D01*
X174800000Y-141572620D01*
X174752381Y-141477382D01*
X174752381Y-141286905D01*
X174800000Y-141191667D01*
X174847619Y-141144048D01*
X174942857Y-141096429D01*
X175180952Y-141096429D01*
X175276190Y-141144048D01*
X175323810Y-141191667D01*
X175371429Y-141286905D01*
X175371429Y-141477382D01*
X175323810Y-141572620D01*
X175276190Y-141620239D01*
X175180952Y-141667858D01*
M02*
