M48
;DRILL file {KiCad 4.0.4-stable} date 01/08/18 17:18:13
;FORMAT={-:-/ absolute / inch / decimal}
FMAT,2
INCH,TZ
T1C0.016
T2C0.032
T3C0.033
T4C0.040
T5C0.047
T6C0.055
T7C0.091
T8C0.126
%
G90
G05
M72
T1
X3.935Y-2.895
X4.05Y-3.63
X4.05Y-3.885
X4.21Y-3.41
X4.35Y-2.89
X4.35Y-3.44
X4.35Y-3.69
X4.35Y-3.94
X4.425Y-4.225
X4.425Y-5.35
X4.475Y-3.625
X4.475Y-3.875
X4.475Y-5.45
X4.525Y-3.625
X4.525Y-5.15
T2
X3.4213Y-5.9
X3.4213Y-6.
X3.5Y-5.9
X3.5Y-6.
T3
X2.95Y-3.3
X2.95Y-3.4
X2.95Y-3.5
X2.95Y-3.6
X2.95Y-3.7
X2.95Y-3.8
X2.95Y-3.9
X2.95Y-4.
X2.95Y-4.1
X2.95Y-4.2
X3.85Y-2.8
X3.85Y-2.9
X3.85Y-3.
X3.85Y-3.1
X3.85Y-3.2
X3.85Y-3.3
X3.85Y-3.4
X3.85Y-3.5
X3.85Y-3.6
X3.85Y-3.7
X3.85Y-3.8
X3.85Y-3.9
X3.85Y-4.
X3.85Y-4.1
X3.85Y-4.2
T4
X4.6309Y-3.4833
X4.6309Y-3.5833
X4.6309Y-3.6833
X4.6309Y-3.7833
X4.6309Y-3.8833
X4.6309Y-3.9833
X4.6309Y-5.0335
X4.6309Y-5.1335
X4.6309Y-5.2335
X4.6309Y-5.3335
X4.6309Y-5.4335
X4.6309Y-5.5335
X6.7008Y-3.4833
X6.7008Y-3.5833
X6.7008Y-3.6833
X6.7008Y-3.7833
X6.7008Y-3.8833
X6.7008Y-3.9833
X6.7008Y-5.0325
X6.7008Y-5.1325
X6.7008Y-5.2325
X6.7008Y-5.3325
X6.7008Y-5.4325
X6.7008Y-5.5325
T5
X5.3Y-5.9
X5.3Y-6.
X5.3Y-6.1
X5.3Y-6.2
T6
X4.0336Y-3.2204
X4.0336Y-4.2904
X4.0336Y-4.7504
X4.0336Y-5.8104
X4.0337Y-2.6904
X4.2336Y-3.2204
X4.2336Y-4.2904
X4.2336Y-4.7504
X4.2336Y-5.8104
X4.2337Y-2.6904
T7
X3.315Y-5.7138
X3.315Y-6.1862
T8
X3.Y-4.35
X3.1Y-4.7
X3.8Y-2.65
X3.8Y-4.35
X5.6Y-2.7
X5.6Y-3.7
X5.6Y-4.7
X6.6Y-2.7
X6.6Y-6.2
T0
M30
