G04 #@! TF.FileFunction,Copper,L2,Bot,Signal*
%FSLAX46Y46*%
G04 Gerber Fmt 4.6, Leading zero omitted, Abs format (unit mm)*
G04 Created by KiCad (PCBNEW 4.0.4-stable) date 12/14/17 11:03:47*
%MOMM*%
%LPD*%
G01*
G04 APERTURE LIST*
%ADD10C,0.250000*%
%ADD11R,2.400000X1.700000*%
%ADD12O,2.400000X1.700000*%
%ADD13O,1.800000X1.700000*%
%ADD14C,3.000000*%
%ADD15R,3.000000X3.000000*%
%ADD16R,2.200000X2.200000*%
%ADD17O,2.200000X2.200000*%
%ADD18O,4.000000X8.000000*%
%ADD19R,5.000000X5.000000*%
%ADD20R,4.000000X4.000000*%
%ADD21O,2.032000X1.727200*%
%ADD22R,2.032000X1.727200*%
%ADD23C,2.800000*%
%ADD24R,1.800000X1.800000*%
%ADD25O,1.800000X1.800000*%
%ADD26C,0.600000*%
%ADD27C,2.000000*%
%ADD28C,3.000000*%
%ADD29C,0.900000*%
%ADD30C,0.300000*%
%ADD31C,0.600000*%
%ADD32C,0.254000*%
G04 APERTURE END LIST*
D10*
D11*
X97790000Y-104140000D03*
D12*
X97790000Y-101600000D03*
X97790000Y-99060000D03*
X97790000Y-96520000D03*
X97790000Y-93980000D03*
D13*
X75180000Y-83820000D03*
D12*
X97790000Y-91440000D03*
X74930000Y-86360000D03*
X97790000Y-88900000D03*
X74930000Y-88900000D03*
D11*
X97790000Y-86360000D03*
D12*
X74930000Y-91440000D03*
X97790000Y-83820000D03*
D11*
X74930000Y-93980000D03*
D12*
X97790000Y-81280000D03*
X74930000Y-96520000D03*
X97790000Y-78740000D03*
X74930000Y-99060000D03*
X97790000Y-76200000D03*
X74930000Y-101600000D03*
X97790000Y-73660000D03*
D11*
X74930000Y-104140000D03*
D12*
X97790000Y-71120000D03*
X74930000Y-106680000D03*
X97790000Y-106680000D03*
D14*
X127160000Y-121560000D03*
D15*
X147160000Y-121560000D03*
X147160000Y-76560000D03*
D14*
X127160000Y-76560000D03*
D16*
X118745000Y-121285000D03*
D17*
X118745000Y-108585000D03*
D18*
X162560000Y-150400000D03*
D19*
X162560000Y-158400000D03*
D20*
X157860000Y-155400000D03*
D21*
X117625000Y-101175000D03*
X117625000Y-98635000D03*
X117625000Y-96095000D03*
X117625000Y-93555000D03*
X117625000Y-91015000D03*
D22*
X117625000Y-88475000D03*
D23*
X102455980Y-68336160D03*
X107535980Y-68336160D03*
X102453440Y-81798160D03*
X107533440Y-81798160D03*
X102453440Y-108976160D03*
X107533440Y-108976160D03*
X102453440Y-120660160D03*
X107533440Y-120660160D03*
X102453440Y-147584160D03*
X107533440Y-147584160D03*
D21*
X117625000Y-140550000D03*
X117625000Y-138010000D03*
X117625000Y-135470000D03*
X117625000Y-132930000D03*
X117625000Y-130390000D03*
D22*
X117625000Y-127850000D03*
D21*
X170200000Y-101175000D03*
X170200000Y-98635000D03*
X170200000Y-96095000D03*
X170200000Y-93555000D03*
X170200000Y-91015000D03*
D22*
X170200000Y-88475000D03*
D21*
X170200000Y-140525000D03*
X170200000Y-137985000D03*
X170200000Y-135445000D03*
X170200000Y-132905000D03*
X170200000Y-130365000D03*
D22*
X170200000Y-127825000D03*
D24*
X86360000Y-142240000D03*
D25*
X88900000Y-142240000D03*
X91440000Y-142240000D03*
D18*
X147320000Y-150400000D03*
D19*
X147320000Y-158400000D03*
D20*
X152020000Y-155400000D03*
D26*
X149860000Y-133350000D03*
X110490000Y-115570000D03*
X110490000Y-73406000D03*
X110490000Y-100076000D03*
X110490000Y-93726000D03*
X110490000Y-87376000D03*
X113665000Y-98425000D03*
X113665000Y-138430000D03*
X113665000Y-92075000D03*
X114935000Y-130810000D03*
X114935000Y-92075000D03*
X106934000Y-86614000D03*
X102870000Y-98679000D03*
X102870000Y-92202000D03*
X99949000Y-73533000D03*
X112395000Y-135890000D03*
X112395000Y-107315000D03*
D27*
X149860000Y-133350000D02*
X165100000Y-133350000D01*
X170200000Y-101175000D02*
X168065000Y-101175000D01*
X168065000Y-101175000D02*
X165100000Y-104140000D01*
X165100000Y-104140000D02*
X165100000Y-133350000D01*
X168465000Y-140525000D02*
X170200000Y-140525000D01*
X165100000Y-133350000D02*
X165100000Y-137160000D01*
X165100000Y-137160000D02*
X168465000Y-140525000D01*
D28*
X98742500Y-140652500D02*
X100601780Y-140652500D01*
X100601780Y-140652500D02*
X107533440Y-147584160D01*
X102453440Y-147584160D02*
X102453440Y-144363440D01*
X102453440Y-144363440D02*
X98742500Y-140652500D01*
X98742500Y-140652500D02*
X88900000Y-130810000D01*
D27*
X117625000Y-140550000D02*
X98640000Y-140550000D01*
X98640000Y-140550000D02*
X88900000Y-130810000D01*
X88900000Y-116840000D02*
X88900000Y-114300000D01*
X88900000Y-142240000D02*
X88900000Y-130810000D01*
X88900000Y-130810000D02*
X88900000Y-116840000D01*
X88900000Y-116840000D02*
X90170000Y-115570000D01*
X110490000Y-115570000D02*
X90170000Y-115570000D01*
X81280000Y-106680000D02*
X74930000Y-106680000D01*
X88900000Y-114300000D02*
X81280000Y-106680000D01*
X90170000Y-115570000D02*
X88900000Y-114300000D01*
D29*
X110490000Y-104140000D02*
X110490000Y-115570000D01*
X110490000Y-104140000D02*
X110490000Y-100076000D01*
X110490000Y-100076000D02*
X110490000Y-93726000D01*
X110490000Y-93726000D02*
X110490000Y-87376000D01*
X110490000Y-87376000D02*
X110490000Y-73406000D01*
D28*
X102453440Y-108976160D02*
X107533440Y-108976160D01*
X102453440Y-120660160D02*
X107533440Y-120660160D01*
D29*
X107533440Y-108976160D02*
X107706160Y-108976160D01*
D27*
X127160000Y-121560000D02*
X127160000Y-155415000D01*
X91440000Y-153670000D02*
X91440000Y-142240000D01*
X95885000Y-158115000D02*
X91440000Y-153670000D01*
X124460000Y-158115000D02*
X95885000Y-158115000D01*
X127160000Y-155415000D02*
X124460000Y-158115000D01*
D28*
X152400000Y-139700000D02*
X152400000Y-144780000D01*
X162560000Y-152400000D02*
X162560000Y-149860000D01*
X162560000Y-149860000D02*
X157480000Y-144780000D01*
X157480000Y-144780000D02*
X152400000Y-144780000D01*
X152400000Y-144780000D02*
X147320000Y-149860000D01*
X147320000Y-149860000D02*
X147320000Y-152400000D01*
X147320000Y-152400000D02*
X147320000Y-139700000D01*
X162560000Y-152400000D02*
X162560000Y-144780000D01*
X162560000Y-144780000D02*
X157480000Y-139700000D01*
X157480000Y-139700000D02*
X152400000Y-139700000D01*
X152400000Y-139700000D02*
X147320000Y-139700000D01*
X145300000Y-139700000D02*
X127160000Y-121560000D01*
X147320000Y-139700000D02*
X145300000Y-139700000D01*
X118962500Y-68362500D02*
X124242500Y-68362500D01*
X127000000Y-71120000D02*
X127000000Y-76400000D01*
X124242500Y-68362500D02*
X127000000Y-71120000D01*
X127000000Y-76400000D02*
X127160000Y-76560000D01*
X127160000Y-76560000D02*
X118962500Y-68362500D01*
X118962500Y-68362500D02*
X118936160Y-68336160D01*
X118936160Y-68336160D02*
X107535980Y-68336160D01*
X107533440Y-81798160D02*
X107533440Y-68338700D01*
D27*
X107533440Y-68338700D02*
X107535980Y-68336160D01*
D28*
X102453440Y-81798160D02*
X102453440Y-68338700D01*
D27*
X102453440Y-68338700D02*
X102455980Y-68336160D01*
D30*
X113665000Y-92075000D02*
X113665000Y-98425000D01*
X113665000Y-98425000D02*
X113665000Y-138430000D01*
X114935000Y-92075000D02*
X114935000Y-130810000D01*
D27*
X80010000Y-96520000D02*
X90170000Y-106680000D01*
X90170000Y-106680000D02*
X97790000Y-106680000D01*
X74930000Y-96520000D02*
X80010000Y-96520000D01*
X92710000Y-83820000D02*
X97790000Y-83820000D01*
X80010000Y-96520000D02*
X92710000Y-83820000D01*
D30*
X105537000Y-86614000D02*
X105410000Y-86614000D01*
X105410000Y-86614000D02*
X105537000Y-86614000D01*
X106934000Y-86614000D02*
X105410000Y-86614000D01*
D29*
X105410000Y-86614000D02*
X105410000Y-86360000D01*
D27*
X97790000Y-106680000D02*
X99695000Y-106680000D01*
X105410000Y-104140000D02*
X105410000Y-98679000D01*
X104140000Y-105410000D02*
X105410000Y-104140000D01*
X100965000Y-105410000D02*
X104140000Y-105410000D01*
X99695000Y-106680000D02*
X100965000Y-105410000D01*
D30*
X102870000Y-98679000D02*
X105410000Y-98679000D01*
X105410000Y-98679000D02*
X105283000Y-98679000D01*
X105283000Y-98679000D02*
X105410000Y-98679000D01*
X102870000Y-92202000D02*
X105410000Y-92202000D01*
X105410000Y-92202000D02*
X105283000Y-92202000D01*
X105283000Y-92202000D02*
X105410000Y-92202000D01*
D31*
X99949000Y-73533000D02*
X99949000Y-83820000D01*
D30*
X99949000Y-83820000D02*
X100076000Y-83820000D01*
X100076000Y-83820000D02*
X99949000Y-83820000D01*
D27*
X105410000Y-98679000D02*
X105410000Y-92202000D01*
X105410000Y-92202000D02*
X105410000Y-86614000D01*
D29*
X105410000Y-86360000D02*
X105283000Y-86233000D01*
X100330000Y-83820000D02*
X99949000Y-83820000D01*
D27*
X105283000Y-86233000D02*
X104140000Y-85090000D01*
X104140000Y-85090000D02*
X101600000Y-85090000D01*
X101600000Y-85090000D02*
X100330000Y-83820000D01*
X99949000Y-83820000D02*
X97790000Y-83820000D01*
D30*
X112395000Y-107315000D02*
X112395000Y-135890000D01*
D32*
G36*
X95916998Y-82970000D02*
X96284928Y-82970000D01*
X96109367Y-83178951D01*
X96190026Y-83395000D01*
X97190000Y-83395000D01*
X97190000Y-83216340D01*
X97394411Y-83257000D01*
X98185589Y-83257000D01*
X98390000Y-83216340D01*
X98390000Y-83395000D01*
X99389974Y-83395000D01*
X99470633Y-83178951D01*
X99295072Y-82970000D01*
X99663002Y-82970000D01*
X99663002Y-82677000D01*
X100001252Y-82677000D01*
X100026408Y-82803469D01*
X100595870Y-83655730D01*
X101448131Y-84225192D01*
X102453440Y-84425160D01*
X103458749Y-84225192D01*
X103875093Y-83947000D01*
X106111787Y-83947000D01*
X106528131Y-84225192D01*
X107533440Y-84425160D01*
X107823000Y-84367563D01*
X107823000Y-106406757D01*
X107533440Y-106349160D01*
X102453440Y-106349160D01*
X101448131Y-106549128D01*
X100595870Y-107118590D01*
X100026408Y-107970851D01*
X99826440Y-108976160D01*
X99849681Y-109093000D01*
X98893389Y-109093000D01*
X98833186Y-108947297D01*
X98066738Y-108179510D01*
X98012528Y-108157000D01*
X99663002Y-108157000D01*
X99663002Y-107530000D01*
X99295072Y-107530000D01*
X99470633Y-107321049D01*
X99389974Y-107105000D01*
X98390000Y-107105000D01*
X98390000Y-107530000D01*
X97190000Y-107530000D01*
X97190000Y-107105000D01*
X96190026Y-107105000D01*
X96109367Y-107321049D01*
X96284928Y-107530000D01*
X95916998Y-107530000D01*
X95916998Y-107788538D01*
X94977297Y-108176814D01*
X94209510Y-108943262D01*
X94147333Y-109093000D01*
X86701032Y-109093000D01*
X82784016Y-105175984D01*
X82093968Y-104714908D01*
X81280000Y-104553000D01*
X77279079Y-104553000D01*
X77279079Y-103290000D01*
X77200494Y-102872359D01*
X77007676Y-102572710D01*
X77152099Y-102356565D01*
X77302589Y-101600000D01*
X77152099Y-100843435D01*
X76809033Y-100330000D01*
X77152099Y-99816565D01*
X77302589Y-99060000D01*
X77152099Y-98303435D01*
X76803002Y-97780975D01*
X76803002Y-97370000D01*
X76435072Y-97370000D01*
X76610633Y-97161049D01*
X76529974Y-96945000D01*
X75530000Y-96945000D01*
X75530000Y-97123660D01*
X75325589Y-97083000D01*
X74862000Y-97083000D01*
X74862000Y-95979079D01*
X75530000Y-95979079D01*
X75530000Y-96095000D01*
X76529974Y-96095000D01*
X76610633Y-95878951D01*
X76600276Y-95866624D01*
X76931219Y-95653669D01*
X77188548Y-95277056D01*
X77279079Y-94830000D01*
X77279079Y-93130000D01*
X77200494Y-92712359D01*
X77007676Y-92412710D01*
X77152099Y-92196565D01*
X77302589Y-91440000D01*
X77152099Y-90683435D01*
X76809033Y-90170000D01*
X77152099Y-89656565D01*
X77302589Y-88900000D01*
X95417411Y-88900000D01*
X95567901Y-89656565D01*
X95910967Y-90170000D01*
X95567901Y-90683435D01*
X95417411Y-91440000D01*
X95567901Y-92196565D01*
X95910967Y-92710000D01*
X95567901Y-93223435D01*
X95417411Y-93980000D01*
X95567901Y-94736565D01*
X95910967Y-95250000D01*
X95567901Y-95763435D01*
X95417411Y-96520000D01*
X95567901Y-97276565D01*
X95910967Y-97790000D01*
X95567901Y-98303435D01*
X95417411Y-99060000D01*
X95567901Y-99816565D01*
X95910967Y-100330000D01*
X95567901Y-100843435D01*
X95417411Y-101600000D01*
X95567901Y-102356565D01*
X95714189Y-102575500D01*
X95531452Y-102842944D01*
X95440921Y-103290000D01*
X95440921Y-104990000D01*
X95519506Y-105407641D01*
X95766331Y-105791219D01*
X96116490Y-106030473D01*
X96109367Y-106038951D01*
X96190026Y-106255000D01*
X97190000Y-106255000D01*
X97190000Y-106139079D01*
X98390000Y-106139079D01*
X98390000Y-106255000D01*
X99389974Y-106255000D01*
X99470633Y-106038951D01*
X99460276Y-106026624D01*
X99791219Y-105813669D01*
X100048548Y-105437056D01*
X100139079Y-104990000D01*
X100139079Y-103290000D01*
X100060494Y-102872359D01*
X99867676Y-102572710D01*
X100012099Y-102356565D01*
X100162589Y-101600000D01*
X100012099Y-100843435D01*
X99669033Y-100330000D01*
X100012099Y-99816565D01*
X100162589Y-99060000D01*
X100012099Y-98303435D01*
X99669033Y-97790000D01*
X100012099Y-97276565D01*
X100162589Y-96520000D01*
X100012099Y-95763435D01*
X99669033Y-95250000D01*
X100012099Y-94736565D01*
X100162589Y-93980000D01*
X100012099Y-93223435D01*
X99669033Y-92710000D01*
X100012099Y-92196565D01*
X100162589Y-91440000D01*
X100012099Y-90683435D01*
X99669033Y-90170000D01*
X100012099Y-89656565D01*
X100162589Y-88900000D01*
X100012099Y-88143435D01*
X99865811Y-87924500D01*
X100048548Y-87657056D01*
X100139079Y-87210000D01*
X100139079Y-85510000D01*
X100060494Y-85092359D01*
X99813669Y-84708781D01*
X99463510Y-84469527D01*
X99470633Y-84461049D01*
X99389974Y-84245000D01*
X98390000Y-84245000D01*
X98390000Y-84360921D01*
X97190000Y-84360921D01*
X97190000Y-84245000D01*
X96190026Y-84245000D01*
X96109367Y-84461049D01*
X96119724Y-84473376D01*
X95788781Y-84686331D01*
X95531452Y-85062944D01*
X95440921Y-85510000D01*
X95440921Y-87210000D01*
X95519506Y-87627641D01*
X95712324Y-87927290D01*
X95567901Y-88143435D01*
X95417411Y-88900000D01*
X77302589Y-88900000D01*
X77152099Y-88143435D01*
X76809033Y-87630000D01*
X77152099Y-87116565D01*
X77302589Y-86360000D01*
X77152099Y-85603435D01*
X76809033Y-85090000D01*
X77152099Y-84576565D01*
X77302589Y-83820000D01*
X77289063Y-83752000D01*
X91440000Y-83752000D01*
X91556111Y-83728904D01*
X91674499Y-83728904D01*
X92646515Y-83535558D01*
X92973919Y-83399942D01*
X93079812Y-83356080D01*
X93903847Y-82805477D01*
X94032324Y-82677000D01*
X95916998Y-82677000D01*
X95916998Y-82970000D01*
X95916998Y-82970000D01*
G37*
X95916998Y-82970000D02*
X96284928Y-82970000D01*
X96109367Y-83178951D01*
X96190026Y-83395000D01*
X97190000Y-83395000D01*
X97190000Y-83216340D01*
X97394411Y-83257000D01*
X98185589Y-83257000D01*
X98390000Y-83216340D01*
X98390000Y-83395000D01*
X99389974Y-83395000D01*
X99470633Y-83178951D01*
X99295072Y-82970000D01*
X99663002Y-82970000D01*
X99663002Y-82677000D01*
X100001252Y-82677000D01*
X100026408Y-82803469D01*
X100595870Y-83655730D01*
X101448131Y-84225192D01*
X102453440Y-84425160D01*
X103458749Y-84225192D01*
X103875093Y-83947000D01*
X106111787Y-83947000D01*
X106528131Y-84225192D01*
X107533440Y-84425160D01*
X107823000Y-84367563D01*
X107823000Y-106406757D01*
X107533440Y-106349160D01*
X102453440Y-106349160D01*
X101448131Y-106549128D01*
X100595870Y-107118590D01*
X100026408Y-107970851D01*
X99826440Y-108976160D01*
X99849681Y-109093000D01*
X98893389Y-109093000D01*
X98833186Y-108947297D01*
X98066738Y-108179510D01*
X98012528Y-108157000D01*
X99663002Y-108157000D01*
X99663002Y-107530000D01*
X99295072Y-107530000D01*
X99470633Y-107321049D01*
X99389974Y-107105000D01*
X98390000Y-107105000D01*
X98390000Y-107530000D01*
X97190000Y-107530000D01*
X97190000Y-107105000D01*
X96190026Y-107105000D01*
X96109367Y-107321049D01*
X96284928Y-107530000D01*
X95916998Y-107530000D01*
X95916998Y-107788538D01*
X94977297Y-108176814D01*
X94209510Y-108943262D01*
X94147333Y-109093000D01*
X86701032Y-109093000D01*
X82784016Y-105175984D01*
X82093968Y-104714908D01*
X81280000Y-104553000D01*
X77279079Y-104553000D01*
X77279079Y-103290000D01*
X77200494Y-102872359D01*
X77007676Y-102572710D01*
X77152099Y-102356565D01*
X77302589Y-101600000D01*
X77152099Y-100843435D01*
X76809033Y-100330000D01*
X77152099Y-99816565D01*
X77302589Y-99060000D01*
X77152099Y-98303435D01*
X76803002Y-97780975D01*
X76803002Y-97370000D01*
X76435072Y-97370000D01*
X76610633Y-97161049D01*
X76529974Y-96945000D01*
X75530000Y-96945000D01*
X75530000Y-97123660D01*
X75325589Y-97083000D01*
X74862000Y-97083000D01*
X74862000Y-95979079D01*
X75530000Y-95979079D01*
X75530000Y-96095000D01*
X76529974Y-96095000D01*
X76610633Y-95878951D01*
X76600276Y-95866624D01*
X76931219Y-95653669D01*
X77188548Y-95277056D01*
X77279079Y-94830000D01*
X77279079Y-93130000D01*
X77200494Y-92712359D01*
X77007676Y-92412710D01*
X77152099Y-92196565D01*
X77302589Y-91440000D01*
X77152099Y-90683435D01*
X76809033Y-90170000D01*
X77152099Y-89656565D01*
X77302589Y-88900000D01*
X95417411Y-88900000D01*
X95567901Y-89656565D01*
X95910967Y-90170000D01*
X95567901Y-90683435D01*
X95417411Y-91440000D01*
X95567901Y-92196565D01*
X95910967Y-92710000D01*
X95567901Y-93223435D01*
X95417411Y-93980000D01*
X95567901Y-94736565D01*
X95910967Y-95250000D01*
X95567901Y-95763435D01*
X95417411Y-96520000D01*
X95567901Y-97276565D01*
X95910967Y-97790000D01*
X95567901Y-98303435D01*
X95417411Y-99060000D01*
X95567901Y-99816565D01*
X95910967Y-100330000D01*
X95567901Y-100843435D01*
X95417411Y-101600000D01*
X95567901Y-102356565D01*
X95714189Y-102575500D01*
X95531452Y-102842944D01*
X95440921Y-103290000D01*
X95440921Y-104990000D01*
X95519506Y-105407641D01*
X95766331Y-105791219D01*
X96116490Y-106030473D01*
X96109367Y-106038951D01*
X96190026Y-106255000D01*
X97190000Y-106255000D01*
X97190000Y-106139079D01*
X98390000Y-106139079D01*
X98390000Y-106255000D01*
X99389974Y-106255000D01*
X99470633Y-106038951D01*
X99460276Y-106026624D01*
X99791219Y-105813669D01*
X100048548Y-105437056D01*
X100139079Y-104990000D01*
X100139079Y-103290000D01*
X100060494Y-102872359D01*
X99867676Y-102572710D01*
X100012099Y-102356565D01*
X100162589Y-101600000D01*
X100012099Y-100843435D01*
X99669033Y-100330000D01*
X100012099Y-99816565D01*
X100162589Y-99060000D01*
X100012099Y-98303435D01*
X99669033Y-97790000D01*
X100012099Y-97276565D01*
X100162589Y-96520000D01*
X100012099Y-95763435D01*
X99669033Y-95250000D01*
X100012099Y-94736565D01*
X100162589Y-93980000D01*
X100012099Y-93223435D01*
X99669033Y-92710000D01*
X100012099Y-92196565D01*
X100162589Y-91440000D01*
X100012099Y-90683435D01*
X99669033Y-90170000D01*
X100012099Y-89656565D01*
X100162589Y-88900000D01*
X100012099Y-88143435D01*
X99865811Y-87924500D01*
X100048548Y-87657056D01*
X100139079Y-87210000D01*
X100139079Y-85510000D01*
X100060494Y-85092359D01*
X99813669Y-84708781D01*
X99463510Y-84469527D01*
X99470633Y-84461049D01*
X99389974Y-84245000D01*
X98390000Y-84245000D01*
X98390000Y-84360921D01*
X97190000Y-84360921D01*
X97190000Y-84245000D01*
X96190026Y-84245000D01*
X96109367Y-84461049D01*
X96119724Y-84473376D01*
X95788781Y-84686331D01*
X95531452Y-85062944D01*
X95440921Y-85510000D01*
X95440921Y-87210000D01*
X95519506Y-87627641D01*
X95712324Y-87927290D01*
X95567901Y-88143435D01*
X95417411Y-88900000D01*
X77302589Y-88900000D01*
X77152099Y-88143435D01*
X76809033Y-87630000D01*
X77152099Y-87116565D01*
X77302589Y-86360000D01*
X77152099Y-85603435D01*
X76809033Y-85090000D01*
X77152099Y-84576565D01*
X77302589Y-83820000D01*
X77289063Y-83752000D01*
X91440000Y-83752000D01*
X91556111Y-83728904D01*
X91674499Y-83728904D01*
X92646515Y-83535558D01*
X92973919Y-83399942D01*
X93079812Y-83356080D01*
X93903847Y-82805477D01*
X94032324Y-82677000D01*
X95916998Y-82677000D01*
X95916998Y-82970000D01*
G36*
X114173000Y-82550000D02*
X114183006Y-82599410D01*
X114211447Y-82641035D01*
X114253841Y-82668315D01*
X114300000Y-82677000D01*
X121793000Y-82677000D01*
X121793000Y-155988000D01*
X96766032Y-155988000D01*
X93567000Y-152788968D01*
X93567000Y-149335707D01*
X101691842Y-149335707D01*
X101876771Y-149568787D01*
X102680151Y-149638399D01*
X103030109Y-149568787D01*
X103215038Y-149335707D01*
X106771842Y-149335707D01*
X106956771Y-149568787D01*
X107760151Y-149638399D01*
X108110109Y-149568787D01*
X108295038Y-149335707D01*
X107533440Y-148574109D01*
X106771842Y-149335707D01*
X103215038Y-149335707D01*
X102453440Y-148574109D01*
X101691842Y-149335707D01*
X93567000Y-149335707D01*
X93567000Y-147810871D01*
X100399201Y-147810871D01*
X100468813Y-148160829D01*
X100701893Y-148345758D01*
X101463491Y-147584160D01*
X103443389Y-147584160D01*
X104204987Y-148345758D01*
X104438067Y-148160829D01*
X104468390Y-147810871D01*
X105479201Y-147810871D01*
X105548813Y-148160829D01*
X105781893Y-148345758D01*
X106543491Y-147584160D01*
X108523389Y-147584160D01*
X109284987Y-148345758D01*
X109518067Y-148160829D01*
X109587679Y-147357449D01*
X109518067Y-147007491D01*
X109284987Y-146822562D01*
X108523389Y-147584160D01*
X106543491Y-147584160D01*
X105781893Y-146822562D01*
X105548813Y-147007491D01*
X105479201Y-147810871D01*
X104468390Y-147810871D01*
X104507679Y-147357449D01*
X104438067Y-147007491D01*
X104204987Y-146822562D01*
X103443389Y-147584160D01*
X101463491Y-147584160D01*
X100701893Y-146822562D01*
X100468813Y-147007491D01*
X100399201Y-147810871D01*
X93567000Y-147810871D01*
X93567000Y-145832613D01*
X101691842Y-145832613D01*
X102453440Y-146594211D01*
X103215038Y-145832613D01*
X106771842Y-145832613D01*
X107533440Y-146594211D01*
X108295038Y-145832613D01*
X108110109Y-145599533D01*
X107306729Y-145529921D01*
X106956771Y-145599533D01*
X106771842Y-145832613D01*
X103215038Y-145832613D01*
X103030109Y-145599533D01*
X102226729Y-145529921D01*
X101876771Y-145599533D01*
X101691842Y-145832613D01*
X93567000Y-145832613D01*
X93567000Y-142240000D01*
X93405092Y-141426032D01*
X93253840Y-141199667D01*
X116131026Y-141199667D01*
X116422881Y-141582408D01*
X116897872Y-141905531D01*
X117117000Y-141821999D01*
X117117000Y-140981800D01*
X118133000Y-140981800D01*
X118133000Y-141821999D01*
X118352128Y-141905531D01*
X118827119Y-141582408D01*
X119118974Y-141199667D01*
X119039424Y-140981800D01*
X118133000Y-140981800D01*
X117117000Y-140981800D01*
X116210576Y-140981800D01*
X116131026Y-141199667D01*
X93253840Y-141199667D01*
X92944016Y-140735984D01*
X92253968Y-140274908D01*
X91440000Y-140113000D01*
X90626032Y-140274908D01*
X90427000Y-140407897D01*
X90427000Y-140366998D01*
X89800000Y-140366998D01*
X89800000Y-140939498D01*
X89754296Y-141007899D01*
X89572732Y-140869139D01*
X89350000Y-140937528D01*
X89350000Y-141790000D01*
X89402510Y-141790000D01*
X89313000Y-142240000D01*
X89313000Y-153670000D01*
X89474908Y-154483968D01*
X89935984Y-155174016D01*
X94380984Y-159619016D01*
X95071032Y-160080092D01*
X95885000Y-160242000D01*
X121793000Y-160242000D01*
X121793000Y-161358000D01*
X78299198Y-161358000D01*
X79012703Y-161063186D01*
X79780490Y-160296738D01*
X80196526Y-159294814D01*
X80197472Y-158209946D01*
X79783186Y-157207297D01*
X79016738Y-156439510D01*
X78014814Y-156023474D01*
X76929946Y-156022528D01*
X75927297Y-156436814D01*
X75159510Y-157203262D01*
X74862000Y-157919744D01*
X74862000Y-141340000D01*
X84310921Y-141340000D01*
X84310921Y-143140000D01*
X84389506Y-143557641D01*
X84636331Y-143941219D01*
X85012944Y-144198548D01*
X85460000Y-144289079D01*
X87260000Y-144289079D01*
X87677641Y-144210494D01*
X87829148Y-144113002D01*
X88000000Y-144113002D01*
X88000000Y-144003062D01*
X88061219Y-143963669D01*
X88318548Y-143587056D01*
X88319460Y-143582554D01*
X88450000Y-143542472D01*
X88450000Y-142690000D01*
X88409079Y-142690000D01*
X88409079Y-141790000D01*
X88450000Y-141790000D01*
X88450000Y-140937528D01*
X88313233Y-140895534D01*
X88083669Y-140538781D01*
X88000000Y-140481612D01*
X88000000Y-140366998D01*
X87832257Y-140366998D01*
X87707056Y-140281452D01*
X87260000Y-140190921D01*
X85460000Y-140190921D01*
X85042359Y-140269506D01*
X84658781Y-140516331D01*
X84401452Y-140892944D01*
X84310921Y-141340000D01*
X74862000Y-141340000D01*
X74862000Y-120660160D01*
X99826440Y-120660160D01*
X100026408Y-121665469D01*
X100595870Y-122517730D01*
X101448131Y-123087192D01*
X102453440Y-123287160D01*
X107533440Y-123287160D01*
X108538749Y-123087192D01*
X109391010Y-122517730D01*
X109960472Y-121665469D01*
X110160440Y-120660160D01*
X109960472Y-119654851D01*
X109391010Y-118802590D01*
X108538749Y-118233128D01*
X107533440Y-118033160D01*
X102453440Y-118033160D01*
X101448131Y-118233128D01*
X100595870Y-118802590D01*
X100026408Y-119654851D01*
X99826440Y-120660160D01*
X74862000Y-120660160D01*
X74862000Y-112887166D01*
X75655186Y-113216526D01*
X76740054Y-113217472D01*
X77742703Y-112803186D01*
X78510490Y-112036738D01*
X78926526Y-111034814D01*
X78926890Y-110617000D01*
X93792888Y-110617000D01*
X93792528Y-111030054D01*
X94206814Y-112032703D01*
X94973262Y-112800490D01*
X95975186Y-113216526D01*
X97060054Y-113217472D01*
X98062703Y-112803186D01*
X98830490Y-112036738D01*
X99246526Y-111034814D01*
X99246890Y-110617000D01*
X100451056Y-110617000D01*
X100595870Y-110833730D01*
X101448131Y-111403192D01*
X102453440Y-111603160D01*
X107533440Y-111603160D01*
X108538749Y-111403192D01*
X109391010Y-110833730D01*
X109960472Y-109981469D01*
X110160440Y-108976160D01*
X109960472Y-107970851D01*
X109711076Y-107597603D01*
X110967752Y-107597603D01*
X111118000Y-107961229D01*
X111118000Y-135244263D01*
X110968248Y-135604907D01*
X110967752Y-136172603D01*
X111184543Y-136697275D01*
X111585614Y-137099047D01*
X112109907Y-137316752D01*
X112388000Y-137316995D01*
X112388000Y-137784263D01*
X112238248Y-138144907D01*
X112237752Y-138712603D01*
X112454543Y-139237275D01*
X112855614Y-139639047D01*
X113379907Y-139856752D01*
X113947603Y-139857248D01*
X114472275Y-139640457D01*
X114874047Y-139239386D01*
X115091752Y-138715093D01*
X115092248Y-138147397D01*
X114942000Y-137783771D01*
X114942000Y-132237007D01*
X115217603Y-132237248D01*
X115670450Y-132050135D01*
X115591541Y-132168230D01*
X115440016Y-132930000D01*
X115591541Y-133691770D01*
X115931130Y-134200000D01*
X115591541Y-134708230D01*
X115440016Y-135470000D01*
X115591541Y-136231770D01*
X115931130Y-136740000D01*
X115591541Y-137248230D01*
X115440016Y-138010000D01*
X115591541Y-138771770D01*
X115783729Y-139059400D01*
X115751998Y-139059400D01*
X115751998Y-139686400D01*
X116294158Y-139686400D01*
X116131026Y-139900333D01*
X116210576Y-140118200D01*
X117117000Y-140118200D01*
X117117000Y-139938218D01*
X117430616Y-140000600D01*
X117819384Y-140000600D01*
X118133000Y-139938218D01*
X118133000Y-140118200D01*
X119039424Y-140118200D01*
X119118974Y-139900333D01*
X118955842Y-139686400D01*
X119498002Y-139686400D01*
X119498002Y-139059400D01*
X119466271Y-139059400D01*
X119658459Y-138771770D01*
X119809984Y-138010000D01*
X119658459Y-137248230D01*
X119318870Y-136740000D01*
X119658459Y-136231770D01*
X119809984Y-135470000D01*
X119658459Y-134708230D01*
X119318870Y-134200000D01*
X119658459Y-133691770D01*
X119809984Y-132930000D01*
X119658459Y-132168230D01*
X119318870Y-131660000D01*
X119658459Y-131151770D01*
X119809984Y-130390000D01*
X119658459Y-129628230D01*
X119520818Y-129422236D01*
X119699548Y-129160656D01*
X119790079Y-128713600D01*
X119790079Y-126986400D01*
X119711494Y-126568759D01*
X119464669Y-126185181D01*
X119088056Y-125927852D01*
X118641000Y-125837321D01*
X116609000Y-125837321D01*
X116212000Y-125912022D01*
X116212000Y-120185000D01*
X116495921Y-120185000D01*
X116495921Y-122385000D01*
X116574506Y-122802641D01*
X116821331Y-123186219D01*
X117197944Y-123443548D01*
X117645000Y-123534079D01*
X119845000Y-123534079D01*
X120262641Y-123455494D01*
X120646219Y-123208669D01*
X120903548Y-122832056D01*
X120994079Y-122385000D01*
X120994079Y-120185000D01*
X120915494Y-119767359D01*
X120668669Y-119383781D01*
X120292056Y-119126452D01*
X119845000Y-119035921D01*
X117645000Y-119035921D01*
X117227359Y-119114506D01*
X116843781Y-119361331D01*
X116586452Y-119737944D01*
X116495921Y-120185000D01*
X116212000Y-120185000D01*
X116212000Y-109384330D01*
X117214078Y-109384330D01*
X117636503Y-109909343D01*
X117945676Y-110115885D01*
X118195000Y-110055777D01*
X118195000Y-109135000D01*
X119295000Y-109135000D01*
X119295000Y-110055777D01*
X119544324Y-110115885D01*
X119853497Y-109909343D01*
X120275922Y-109384330D01*
X120225367Y-109135000D01*
X119295000Y-109135000D01*
X118195000Y-109135000D01*
X117264633Y-109135000D01*
X117214078Y-109384330D01*
X116212000Y-109384330D01*
X116212000Y-107785670D01*
X117214078Y-107785670D01*
X117264633Y-108035000D01*
X118195000Y-108035000D01*
X118195000Y-107114223D01*
X119295000Y-107114223D01*
X119295000Y-108035000D01*
X120225367Y-108035000D01*
X120275922Y-107785670D01*
X119853497Y-107260657D01*
X119544324Y-107054115D01*
X119295000Y-107114223D01*
X118195000Y-107114223D01*
X117945676Y-107054115D01*
X117636503Y-107260657D01*
X117214078Y-107785670D01*
X116212000Y-107785670D01*
X116212000Y-103048002D01*
X116609000Y-103048002D01*
X116609000Y-102334020D01*
X116897872Y-102530531D01*
X117117000Y-102446999D01*
X117117000Y-101606800D01*
X118133000Y-101606800D01*
X118133000Y-102446999D01*
X118352128Y-102530531D01*
X118827119Y-102207408D01*
X119118974Y-101824667D01*
X119039424Y-101606800D01*
X118133000Y-101606800D01*
X117117000Y-101606800D01*
X116609000Y-101606800D01*
X116609000Y-100743200D01*
X117117000Y-100743200D01*
X117117000Y-100563218D01*
X117430616Y-100625600D01*
X117819384Y-100625600D01*
X118133000Y-100563218D01*
X118133000Y-100743200D01*
X119039424Y-100743200D01*
X119118974Y-100525333D01*
X118955842Y-100311400D01*
X119498002Y-100311400D01*
X119498002Y-99684400D01*
X119466271Y-99684400D01*
X119658459Y-99396770D01*
X119809984Y-98635000D01*
X119658459Y-97873230D01*
X119318870Y-97365000D01*
X119658459Y-96856770D01*
X119809984Y-96095000D01*
X119658459Y-95333230D01*
X119318870Y-94825000D01*
X119658459Y-94316770D01*
X119809984Y-93555000D01*
X119658459Y-92793230D01*
X119318870Y-92285000D01*
X119658459Y-91776770D01*
X119809984Y-91015000D01*
X119658459Y-90253230D01*
X119520818Y-90047236D01*
X119699548Y-89785656D01*
X119790079Y-89338600D01*
X119790079Y-87611400D01*
X119711494Y-87193759D01*
X119464669Y-86810181D01*
X119088056Y-86552852D01*
X118641000Y-86462321D01*
X116609000Y-86462321D01*
X116191359Y-86540906D01*
X115807781Y-86787731D01*
X115550452Y-87164344D01*
X115459921Y-87611400D01*
X115459921Y-89338600D01*
X115538506Y-89756241D01*
X115727436Y-90049848D01*
X115591541Y-90253230D01*
X115490623Y-90760582D01*
X115220093Y-90648248D01*
X114652397Y-90647752D01*
X114299781Y-90793451D01*
X113950093Y-90648248D01*
X113382397Y-90647752D01*
X112857725Y-90864543D01*
X112455953Y-91265614D01*
X112238248Y-91789907D01*
X112237752Y-92357603D01*
X112388000Y-92721229D01*
X112388000Y-97779263D01*
X112238248Y-98139907D01*
X112237752Y-98707603D01*
X112388000Y-99071229D01*
X112388000Y-105887993D01*
X112112397Y-105887752D01*
X111587725Y-106104543D01*
X111185953Y-106505614D01*
X110968248Y-107029907D01*
X110967752Y-107597603D01*
X109711076Y-107597603D01*
X109391010Y-107118590D01*
X109347000Y-107089183D01*
X109347000Y-83685137D01*
X109391010Y-83655730D01*
X109960472Y-82803469D01*
X110160440Y-81798160D01*
X110160440Y-72517000D01*
X114173000Y-72517000D01*
X114173000Y-82550000D01*
X114173000Y-82550000D01*
G37*
X114173000Y-82550000D02*
X114183006Y-82599410D01*
X114211447Y-82641035D01*
X114253841Y-82668315D01*
X114300000Y-82677000D01*
X121793000Y-82677000D01*
X121793000Y-155988000D01*
X96766032Y-155988000D01*
X93567000Y-152788968D01*
X93567000Y-149335707D01*
X101691842Y-149335707D01*
X101876771Y-149568787D01*
X102680151Y-149638399D01*
X103030109Y-149568787D01*
X103215038Y-149335707D01*
X106771842Y-149335707D01*
X106956771Y-149568787D01*
X107760151Y-149638399D01*
X108110109Y-149568787D01*
X108295038Y-149335707D01*
X107533440Y-148574109D01*
X106771842Y-149335707D01*
X103215038Y-149335707D01*
X102453440Y-148574109D01*
X101691842Y-149335707D01*
X93567000Y-149335707D01*
X93567000Y-147810871D01*
X100399201Y-147810871D01*
X100468813Y-148160829D01*
X100701893Y-148345758D01*
X101463491Y-147584160D01*
X103443389Y-147584160D01*
X104204987Y-148345758D01*
X104438067Y-148160829D01*
X104468390Y-147810871D01*
X105479201Y-147810871D01*
X105548813Y-148160829D01*
X105781893Y-148345758D01*
X106543491Y-147584160D01*
X108523389Y-147584160D01*
X109284987Y-148345758D01*
X109518067Y-148160829D01*
X109587679Y-147357449D01*
X109518067Y-147007491D01*
X109284987Y-146822562D01*
X108523389Y-147584160D01*
X106543491Y-147584160D01*
X105781893Y-146822562D01*
X105548813Y-147007491D01*
X105479201Y-147810871D01*
X104468390Y-147810871D01*
X104507679Y-147357449D01*
X104438067Y-147007491D01*
X104204987Y-146822562D01*
X103443389Y-147584160D01*
X101463491Y-147584160D01*
X100701893Y-146822562D01*
X100468813Y-147007491D01*
X100399201Y-147810871D01*
X93567000Y-147810871D01*
X93567000Y-145832613D01*
X101691842Y-145832613D01*
X102453440Y-146594211D01*
X103215038Y-145832613D01*
X106771842Y-145832613D01*
X107533440Y-146594211D01*
X108295038Y-145832613D01*
X108110109Y-145599533D01*
X107306729Y-145529921D01*
X106956771Y-145599533D01*
X106771842Y-145832613D01*
X103215038Y-145832613D01*
X103030109Y-145599533D01*
X102226729Y-145529921D01*
X101876771Y-145599533D01*
X101691842Y-145832613D01*
X93567000Y-145832613D01*
X93567000Y-142240000D01*
X93405092Y-141426032D01*
X93253840Y-141199667D01*
X116131026Y-141199667D01*
X116422881Y-141582408D01*
X116897872Y-141905531D01*
X117117000Y-141821999D01*
X117117000Y-140981800D01*
X118133000Y-140981800D01*
X118133000Y-141821999D01*
X118352128Y-141905531D01*
X118827119Y-141582408D01*
X119118974Y-141199667D01*
X119039424Y-140981800D01*
X118133000Y-140981800D01*
X117117000Y-140981800D01*
X116210576Y-140981800D01*
X116131026Y-141199667D01*
X93253840Y-141199667D01*
X92944016Y-140735984D01*
X92253968Y-140274908D01*
X91440000Y-140113000D01*
X90626032Y-140274908D01*
X90427000Y-140407897D01*
X90427000Y-140366998D01*
X89800000Y-140366998D01*
X89800000Y-140939498D01*
X89754296Y-141007899D01*
X89572732Y-140869139D01*
X89350000Y-140937528D01*
X89350000Y-141790000D01*
X89402510Y-141790000D01*
X89313000Y-142240000D01*
X89313000Y-153670000D01*
X89474908Y-154483968D01*
X89935984Y-155174016D01*
X94380984Y-159619016D01*
X95071032Y-160080092D01*
X95885000Y-160242000D01*
X121793000Y-160242000D01*
X121793000Y-161358000D01*
X78299198Y-161358000D01*
X79012703Y-161063186D01*
X79780490Y-160296738D01*
X80196526Y-159294814D01*
X80197472Y-158209946D01*
X79783186Y-157207297D01*
X79016738Y-156439510D01*
X78014814Y-156023474D01*
X76929946Y-156022528D01*
X75927297Y-156436814D01*
X75159510Y-157203262D01*
X74862000Y-157919744D01*
X74862000Y-141340000D01*
X84310921Y-141340000D01*
X84310921Y-143140000D01*
X84389506Y-143557641D01*
X84636331Y-143941219D01*
X85012944Y-144198548D01*
X85460000Y-144289079D01*
X87260000Y-144289079D01*
X87677641Y-144210494D01*
X87829148Y-144113002D01*
X88000000Y-144113002D01*
X88000000Y-144003062D01*
X88061219Y-143963669D01*
X88318548Y-143587056D01*
X88319460Y-143582554D01*
X88450000Y-143542472D01*
X88450000Y-142690000D01*
X88409079Y-142690000D01*
X88409079Y-141790000D01*
X88450000Y-141790000D01*
X88450000Y-140937528D01*
X88313233Y-140895534D01*
X88083669Y-140538781D01*
X88000000Y-140481612D01*
X88000000Y-140366998D01*
X87832257Y-140366998D01*
X87707056Y-140281452D01*
X87260000Y-140190921D01*
X85460000Y-140190921D01*
X85042359Y-140269506D01*
X84658781Y-140516331D01*
X84401452Y-140892944D01*
X84310921Y-141340000D01*
X74862000Y-141340000D01*
X74862000Y-120660160D01*
X99826440Y-120660160D01*
X100026408Y-121665469D01*
X100595870Y-122517730D01*
X101448131Y-123087192D01*
X102453440Y-123287160D01*
X107533440Y-123287160D01*
X108538749Y-123087192D01*
X109391010Y-122517730D01*
X109960472Y-121665469D01*
X110160440Y-120660160D01*
X109960472Y-119654851D01*
X109391010Y-118802590D01*
X108538749Y-118233128D01*
X107533440Y-118033160D01*
X102453440Y-118033160D01*
X101448131Y-118233128D01*
X100595870Y-118802590D01*
X100026408Y-119654851D01*
X99826440Y-120660160D01*
X74862000Y-120660160D01*
X74862000Y-112887166D01*
X75655186Y-113216526D01*
X76740054Y-113217472D01*
X77742703Y-112803186D01*
X78510490Y-112036738D01*
X78926526Y-111034814D01*
X78926890Y-110617000D01*
X93792888Y-110617000D01*
X93792528Y-111030054D01*
X94206814Y-112032703D01*
X94973262Y-112800490D01*
X95975186Y-113216526D01*
X97060054Y-113217472D01*
X98062703Y-112803186D01*
X98830490Y-112036738D01*
X99246526Y-111034814D01*
X99246890Y-110617000D01*
X100451056Y-110617000D01*
X100595870Y-110833730D01*
X101448131Y-111403192D01*
X102453440Y-111603160D01*
X107533440Y-111603160D01*
X108538749Y-111403192D01*
X109391010Y-110833730D01*
X109960472Y-109981469D01*
X110160440Y-108976160D01*
X109960472Y-107970851D01*
X109711076Y-107597603D01*
X110967752Y-107597603D01*
X111118000Y-107961229D01*
X111118000Y-135244263D01*
X110968248Y-135604907D01*
X110967752Y-136172603D01*
X111184543Y-136697275D01*
X111585614Y-137099047D01*
X112109907Y-137316752D01*
X112388000Y-137316995D01*
X112388000Y-137784263D01*
X112238248Y-138144907D01*
X112237752Y-138712603D01*
X112454543Y-139237275D01*
X112855614Y-139639047D01*
X113379907Y-139856752D01*
X113947603Y-139857248D01*
X114472275Y-139640457D01*
X114874047Y-139239386D01*
X115091752Y-138715093D01*
X115092248Y-138147397D01*
X114942000Y-137783771D01*
X114942000Y-132237007D01*
X115217603Y-132237248D01*
X115670450Y-132050135D01*
X115591541Y-132168230D01*
X115440016Y-132930000D01*
X115591541Y-133691770D01*
X115931130Y-134200000D01*
X115591541Y-134708230D01*
X115440016Y-135470000D01*
X115591541Y-136231770D01*
X115931130Y-136740000D01*
X115591541Y-137248230D01*
X115440016Y-138010000D01*
X115591541Y-138771770D01*
X115783729Y-139059400D01*
X115751998Y-139059400D01*
X115751998Y-139686400D01*
X116294158Y-139686400D01*
X116131026Y-139900333D01*
X116210576Y-140118200D01*
X117117000Y-140118200D01*
X117117000Y-139938218D01*
X117430616Y-140000600D01*
X117819384Y-140000600D01*
X118133000Y-139938218D01*
X118133000Y-140118200D01*
X119039424Y-140118200D01*
X119118974Y-139900333D01*
X118955842Y-139686400D01*
X119498002Y-139686400D01*
X119498002Y-139059400D01*
X119466271Y-139059400D01*
X119658459Y-138771770D01*
X119809984Y-138010000D01*
X119658459Y-137248230D01*
X119318870Y-136740000D01*
X119658459Y-136231770D01*
X119809984Y-135470000D01*
X119658459Y-134708230D01*
X119318870Y-134200000D01*
X119658459Y-133691770D01*
X119809984Y-132930000D01*
X119658459Y-132168230D01*
X119318870Y-131660000D01*
X119658459Y-131151770D01*
X119809984Y-130390000D01*
X119658459Y-129628230D01*
X119520818Y-129422236D01*
X119699548Y-129160656D01*
X119790079Y-128713600D01*
X119790079Y-126986400D01*
X119711494Y-126568759D01*
X119464669Y-126185181D01*
X119088056Y-125927852D01*
X118641000Y-125837321D01*
X116609000Y-125837321D01*
X116212000Y-125912022D01*
X116212000Y-120185000D01*
X116495921Y-120185000D01*
X116495921Y-122385000D01*
X116574506Y-122802641D01*
X116821331Y-123186219D01*
X117197944Y-123443548D01*
X117645000Y-123534079D01*
X119845000Y-123534079D01*
X120262641Y-123455494D01*
X120646219Y-123208669D01*
X120903548Y-122832056D01*
X120994079Y-122385000D01*
X120994079Y-120185000D01*
X120915494Y-119767359D01*
X120668669Y-119383781D01*
X120292056Y-119126452D01*
X119845000Y-119035921D01*
X117645000Y-119035921D01*
X117227359Y-119114506D01*
X116843781Y-119361331D01*
X116586452Y-119737944D01*
X116495921Y-120185000D01*
X116212000Y-120185000D01*
X116212000Y-109384330D01*
X117214078Y-109384330D01*
X117636503Y-109909343D01*
X117945676Y-110115885D01*
X118195000Y-110055777D01*
X118195000Y-109135000D01*
X119295000Y-109135000D01*
X119295000Y-110055777D01*
X119544324Y-110115885D01*
X119853497Y-109909343D01*
X120275922Y-109384330D01*
X120225367Y-109135000D01*
X119295000Y-109135000D01*
X118195000Y-109135000D01*
X117264633Y-109135000D01*
X117214078Y-109384330D01*
X116212000Y-109384330D01*
X116212000Y-107785670D01*
X117214078Y-107785670D01*
X117264633Y-108035000D01*
X118195000Y-108035000D01*
X118195000Y-107114223D01*
X119295000Y-107114223D01*
X119295000Y-108035000D01*
X120225367Y-108035000D01*
X120275922Y-107785670D01*
X119853497Y-107260657D01*
X119544324Y-107054115D01*
X119295000Y-107114223D01*
X118195000Y-107114223D01*
X117945676Y-107054115D01*
X117636503Y-107260657D01*
X117214078Y-107785670D01*
X116212000Y-107785670D01*
X116212000Y-103048002D01*
X116609000Y-103048002D01*
X116609000Y-102334020D01*
X116897872Y-102530531D01*
X117117000Y-102446999D01*
X117117000Y-101606800D01*
X118133000Y-101606800D01*
X118133000Y-102446999D01*
X118352128Y-102530531D01*
X118827119Y-102207408D01*
X119118974Y-101824667D01*
X119039424Y-101606800D01*
X118133000Y-101606800D01*
X117117000Y-101606800D01*
X116609000Y-101606800D01*
X116609000Y-100743200D01*
X117117000Y-100743200D01*
X117117000Y-100563218D01*
X117430616Y-100625600D01*
X117819384Y-100625600D01*
X118133000Y-100563218D01*
X118133000Y-100743200D01*
X119039424Y-100743200D01*
X119118974Y-100525333D01*
X118955842Y-100311400D01*
X119498002Y-100311400D01*
X119498002Y-99684400D01*
X119466271Y-99684400D01*
X119658459Y-99396770D01*
X119809984Y-98635000D01*
X119658459Y-97873230D01*
X119318870Y-97365000D01*
X119658459Y-96856770D01*
X119809984Y-96095000D01*
X119658459Y-95333230D01*
X119318870Y-94825000D01*
X119658459Y-94316770D01*
X119809984Y-93555000D01*
X119658459Y-92793230D01*
X119318870Y-92285000D01*
X119658459Y-91776770D01*
X119809984Y-91015000D01*
X119658459Y-90253230D01*
X119520818Y-90047236D01*
X119699548Y-89785656D01*
X119790079Y-89338600D01*
X119790079Y-87611400D01*
X119711494Y-87193759D01*
X119464669Y-86810181D01*
X119088056Y-86552852D01*
X118641000Y-86462321D01*
X116609000Y-86462321D01*
X116191359Y-86540906D01*
X115807781Y-86787731D01*
X115550452Y-87164344D01*
X115459921Y-87611400D01*
X115459921Y-89338600D01*
X115538506Y-89756241D01*
X115727436Y-90049848D01*
X115591541Y-90253230D01*
X115490623Y-90760582D01*
X115220093Y-90648248D01*
X114652397Y-90647752D01*
X114299781Y-90793451D01*
X113950093Y-90648248D01*
X113382397Y-90647752D01*
X112857725Y-90864543D01*
X112455953Y-91265614D01*
X112238248Y-91789907D01*
X112237752Y-92357603D01*
X112388000Y-92721229D01*
X112388000Y-97779263D01*
X112238248Y-98139907D01*
X112237752Y-98707603D01*
X112388000Y-99071229D01*
X112388000Y-105887993D01*
X112112397Y-105887752D01*
X111587725Y-106104543D01*
X111185953Y-106505614D01*
X110968248Y-107029907D01*
X110967752Y-107597603D01*
X109711076Y-107597603D01*
X109391010Y-107118590D01*
X109347000Y-107089183D01*
X109347000Y-83685137D01*
X109391010Y-83655730D01*
X109960472Y-82803469D01*
X110160440Y-81798160D01*
X110160440Y-72517000D01*
X114173000Y-72517000D01*
X114173000Y-82550000D01*
G36*
X123893000Y-111125000D02*
X123916096Y-111241111D01*
X123916096Y-111359499D01*
X124012769Y-111845506D01*
X124192246Y-112278802D01*
X124467547Y-112690820D01*
X124467548Y-112690821D01*
X124467549Y-112690823D01*
X124799177Y-113022451D01*
X124799179Y-113022452D01*
X124799180Y-113022453D01*
X125211197Y-113297754D01*
X125390674Y-113372095D01*
X125644493Y-113477231D01*
X126130501Y-113573904D01*
X126248889Y-113573904D01*
X126365000Y-113597000D01*
X127036656Y-113597000D01*
X126529510Y-114103262D01*
X126113474Y-115105186D01*
X126112528Y-116190054D01*
X126526814Y-117192703D01*
X127293262Y-117960490D01*
X128295186Y-118376526D01*
X129380054Y-118377472D01*
X130243000Y-118020910D01*
X130243000Y-121920000D01*
X130266096Y-122036111D01*
X130266096Y-122154499D01*
X130362769Y-122640506D01*
X130542246Y-123073802D01*
X130817547Y-123485820D01*
X130817548Y-123485821D01*
X130817549Y-123485823D01*
X131149177Y-123817451D01*
X131149179Y-123817452D01*
X131149180Y-123817453D01*
X131561197Y-124092754D01*
X131740674Y-124167095D01*
X131994493Y-124272231D01*
X132480501Y-124368904D01*
X132598889Y-124368904D01*
X132715000Y-124392000D01*
X140970000Y-124392000D01*
X141086111Y-124368904D01*
X141204499Y-124368904D01*
X141690506Y-124272231D01*
X142123802Y-124092754D01*
X142535820Y-123817453D01*
X142535821Y-123817452D01*
X142535823Y-123817451D01*
X142867451Y-123485823D01*
X142867452Y-123485821D01*
X142867453Y-123485820D01*
X143142754Y-123073803D01*
X143217095Y-122894326D01*
X143322231Y-122640507D01*
X143418904Y-122154499D01*
X143418904Y-122036111D01*
X143442000Y-121920000D01*
X143442000Y-120060000D01*
X144510921Y-120060000D01*
X144510921Y-123060000D01*
X144589506Y-123477641D01*
X144836331Y-123861219D01*
X145212944Y-124118548D01*
X145660000Y-124209079D01*
X148660000Y-124209079D01*
X149077641Y-124130494D01*
X149461219Y-123883669D01*
X149718548Y-123507056D01*
X149809079Y-123060000D01*
X149809079Y-120060000D01*
X149730494Y-119642359D01*
X149483669Y-119258781D01*
X149107056Y-119001452D01*
X148660000Y-118910921D01*
X145660000Y-118910921D01*
X145242359Y-118989506D01*
X144858781Y-119236331D01*
X144601452Y-119612944D01*
X144510921Y-120060000D01*
X143442000Y-120060000D01*
X143442000Y-113783388D01*
X143468933Y-113647988D01*
X143478568Y-113633567D01*
X143492987Y-113623933D01*
X143628387Y-113597000D01*
X147955000Y-113597000D01*
X148071111Y-113573904D01*
X148189499Y-113573904D01*
X148675506Y-113477231D01*
X149108802Y-113297754D01*
X149520820Y-113022453D01*
X149520821Y-113022452D01*
X149520823Y-113022451D01*
X149852451Y-112690823D01*
X149852452Y-112690821D01*
X149852453Y-112690820D01*
X150127754Y-112278803D01*
X150202157Y-112099177D01*
X150307231Y-111845507D01*
X150403904Y-111359499D01*
X150403904Y-111241111D01*
X150427000Y-111125000D01*
X150427000Y-100457000D01*
X165774968Y-100457000D01*
X163595984Y-102635984D01*
X163134908Y-103326032D01*
X162973000Y-104140000D01*
X162973000Y-131223000D01*
X149860000Y-131223000D01*
X149046032Y-131384908D01*
X148355984Y-131845984D01*
X147894908Y-132536032D01*
X147733000Y-133350000D01*
X147894908Y-134163968D01*
X148355984Y-134854016D01*
X149046032Y-135315092D01*
X149860000Y-135477000D01*
X162973000Y-135477000D01*
X162973000Y-137160000D01*
X163134908Y-137973968D01*
X163595984Y-138664016D01*
X166960984Y-142029016D01*
X167651032Y-142490092D01*
X168465000Y-142652000D01*
X170200000Y-142652000D01*
X171013968Y-142490092D01*
X171518000Y-142153308D01*
X171518000Y-159901612D01*
X171394395Y-160523019D01*
X171109457Y-160949457D01*
X170683019Y-161234395D01*
X170061613Y-161358000D01*
X166111070Y-161358000D01*
X166118548Y-161347056D01*
X166209079Y-160900000D01*
X166209079Y-155900000D01*
X166130494Y-155482359D01*
X165883669Y-155098781D01*
X165507056Y-154841452D01*
X165060000Y-154750921D01*
X164433002Y-154750921D01*
X164433002Y-154249126D01*
X164904514Y-153687770D01*
X165218857Y-152692538D01*
X165075135Y-152273000D01*
X163560000Y-152273000D01*
X163560000Y-152293000D01*
X161560000Y-152293000D01*
X161560000Y-152273000D01*
X160044865Y-152273000D01*
X160039945Y-152287361D01*
X159860000Y-152250921D01*
X155860000Y-152250921D01*
X155442359Y-152329506D01*
X155058781Y-152576331D01*
X154940560Y-152749354D01*
X154843669Y-152598781D01*
X154467056Y-152341452D01*
X154020000Y-152250921D01*
X150020000Y-152250921D01*
X149839224Y-152284937D01*
X149835135Y-152273000D01*
X148320000Y-152273000D01*
X148320000Y-152293000D01*
X146320000Y-152293000D01*
X146320000Y-152273000D01*
X144804865Y-152273000D01*
X144661143Y-152692538D01*
X144975486Y-153687770D01*
X145446998Y-154249126D01*
X145446998Y-154750921D01*
X144820000Y-154750921D01*
X144402359Y-154829506D01*
X144018781Y-155076331D01*
X143761452Y-155452944D01*
X143670921Y-155900000D01*
X143670921Y-160900000D01*
X143749506Y-161317641D01*
X143775476Y-161358000D01*
X136719198Y-161358000D01*
X137432703Y-161063186D01*
X138200490Y-160296738D01*
X138616526Y-159294814D01*
X138617472Y-158209946D01*
X138203186Y-157207297D01*
X137436738Y-156439510D01*
X136434814Y-156023474D01*
X135349946Y-156022528D01*
X134347297Y-156436814D01*
X133579510Y-157203262D01*
X133163474Y-158205186D01*
X133162528Y-159290054D01*
X133576814Y-160292703D01*
X134343262Y-161060490D01*
X135059744Y-161358000D01*
X123317000Y-161358000D01*
X123317000Y-148107462D01*
X144661143Y-148107462D01*
X144804865Y-148527000D01*
X146320000Y-148527000D01*
X148320000Y-148527000D01*
X149835135Y-148527000D01*
X149978857Y-148107462D01*
X159901143Y-148107462D01*
X160044865Y-148527000D01*
X161560000Y-148527000D01*
X163560000Y-148527000D01*
X165075135Y-148527000D01*
X165218857Y-148107462D01*
X164904514Y-147112230D01*
X164233240Y-146313049D01*
X163927703Y-146157118D01*
X163560000Y-146141209D01*
X163560000Y-148527000D01*
X161560000Y-148527000D01*
X161560000Y-146141209D01*
X161192297Y-146157118D01*
X160886760Y-146313049D01*
X160215486Y-147112230D01*
X159901143Y-148107462D01*
X149978857Y-148107462D01*
X149664514Y-147112230D01*
X148993240Y-146313049D01*
X148687703Y-146157118D01*
X148320000Y-146141209D01*
X148320000Y-148527000D01*
X146320000Y-148527000D01*
X146320000Y-146141209D01*
X145952297Y-146157118D01*
X145646760Y-146313049D01*
X144975486Y-147112230D01*
X144661143Y-148107462D01*
X123317000Y-148107462D01*
X123317000Y-123410429D01*
X126370231Y-123410429D01*
X126570706Y-123647071D01*
X127414251Y-123713715D01*
X127749294Y-123647071D01*
X127949769Y-123410429D01*
X127160000Y-122620660D01*
X126370231Y-123410429D01*
X123317000Y-123410429D01*
X123317000Y-121814251D01*
X125006285Y-121814251D01*
X125072929Y-122149294D01*
X125309571Y-122349769D01*
X126099340Y-121560000D01*
X128220660Y-121560000D01*
X129010429Y-122349769D01*
X129247071Y-122149294D01*
X129313715Y-121305749D01*
X129247071Y-120970706D01*
X129010429Y-120770231D01*
X128220660Y-121560000D01*
X126099340Y-121560000D01*
X125309571Y-120770231D01*
X125072929Y-120970706D01*
X125006285Y-121814251D01*
X123317000Y-121814251D01*
X123317000Y-119709571D01*
X126370231Y-119709571D01*
X127160000Y-120499340D01*
X127949769Y-119709571D01*
X127749294Y-119472929D01*
X126905749Y-119406285D01*
X126570706Y-119472929D01*
X126370231Y-119709571D01*
X123317000Y-119709571D01*
X123317000Y-100457000D01*
X123893000Y-100457000D01*
X123893000Y-111125000D01*
X123893000Y-111125000D01*
G37*
X123893000Y-111125000D02*
X123916096Y-111241111D01*
X123916096Y-111359499D01*
X124012769Y-111845506D01*
X124192246Y-112278802D01*
X124467547Y-112690820D01*
X124467548Y-112690821D01*
X124467549Y-112690823D01*
X124799177Y-113022451D01*
X124799179Y-113022452D01*
X124799180Y-113022453D01*
X125211197Y-113297754D01*
X125390674Y-113372095D01*
X125644493Y-113477231D01*
X126130501Y-113573904D01*
X126248889Y-113573904D01*
X126365000Y-113597000D01*
X127036656Y-113597000D01*
X126529510Y-114103262D01*
X126113474Y-115105186D01*
X126112528Y-116190054D01*
X126526814Y-117192703D01*
X127293262Y-117960490D01*
X128295186Y-118376526D01*
X129380054Y-118377472D01*
X130243000Y-118020910D01*
X130243000Y-121920000D01*
X130266096Y-122036111D01*
X130266096Y-122154499D01*
X130362769Y-122640506D01*
X130542246Y-123073802D01*
X130817547Y-123485820D01*
X130817548Y-123485821D01*
X130817549Y-123485823D01*
X131149177Y-123817451D01*
X131149179Y-123817452D01*
X131149180Y-123817453D01*
X131561197Y-124092754D01*
X131740674Y-124167095D01*
X131994493Y-124272231D01*
X132480501Y-124368904D01*
X132598889Y-124368904D01*
X132715000Y-124392000D01*
X140970000Y-124392000D01*
X141086111Y-124368904D01*
X141204499Y-124368904D01*
X141690506Y-124272231D01*
X142123802Y-124092754D01*
X142535820Y-123817453D01*
X142535821Y-123817452D01*
X142535823Y-123817451D01*
X142867451Y-123485823D01*
X142867452Y-123485821D01*
X142867453Y-123485820D01*
X143142754Y-123073803D01*
X143217095Y-122894326D01*
X143322231Y-122640507D01*
X143418904Y-122154499D01*
X143418904Y-122036111D01*
X143442000Y-121920000D01*
X143442000Y-120060000D01*
X144510921Y-120060000D01*
X144510921Y-123060000D01*
X144589506Y-123477641D01*
X144836331Y-123861219D01*
X145212944Y-124118548D01*
X145660000Y-124209079D01*
X148660000Y-124209079D01*
X149077641Y-124130494D01*
X149461219Y-123883669D01*
X149718548Y-123507056D01*
X149809079Y-123060000D01*
X149809079Y-120060000D01*
X149730494Y-119642359D01*
X149483669Y-119258781D01*
X149107056Y-119001452D01*
X148660000Y-118910921D01*
X145660000Y-118910921D01*
X145242359Y-118989506D01*
X144858781Y-119236331D01*
X144601452Y-119612944D01*
X144510921Y-120060000D01*
X143442000Y-120060000D01*
X143442000Y-113783388D01*
X143468933Y-113647988D01*
X143478568Y-113633567D01*
X143492987Y-113623933D01*
X143628387Y-113597000D01*
X147955000Y-113597000D01*
X148071111Y-113573904D01*
X148189499Y-113573904D01*
X148675506Y-113477231D01*
X149108802Y-113297754D01*
X149520820Y-113022453D01*
X149520821Y-113022452D01*
X149520823Y-113022451D01*
X149852451Y-112690823D01*
X149852452Y-112690821D01*
X149852453Y-112690820D01*
X150127754Y-112278803D01*
X150202157Y-112099177D01*
X150307231Y-111845507D01*
X150403904Y-111359499D01*
X150403904Y-111241111D01*
X150427000Y-111125000D01*
X150427000Y-100457000D01*
X165774968Y-100457000D01*
X163595984Y-102635984D01*
X163134908Y-103326032D01*
X162973000Y-104140000D01*
X162973000Y-131223000D01*
X149860000Y-131223000D01*
X149046032Y-131384908D01*
X148355984Y-131845984D01*
X147894908Y-132536032D01*
X147733000Y-133350000D01*
X147894908Y-134163968D01*
X148355984Y-134854016D01*
X149046032Y-135315092D01*
X149860000Y-135477000D01*
X162973000Y-135477000D01*
X162973000Y-137160000D01*
X163134908Y-137973968D01*
X163595984Y-138664016D01*
X166960984Y-142029016D01*
X167651032Y-142490092D01*
X168465000Y-142652000D01*
X170200000Y-142652000D01*
X171013968Y-142490092D01*
X171518000Y-142153308D01*
X171518000Y-159901612D01*
X171394395Y-160523019D01*
X171109457Y-160949457D01*
X170683019Y-161234395D01*
X170061613Y-161358000D01*
X166111070Y-161358000D01*
X166118548Y-161347056D01*
X166209079Y-160900000D01*
X166209079Y-155900000D01*
X166130494Y-155482359D01*
X165883669Y-155098781D01*
X165507056Y-154841452D01*
X165060000Y-154750921D01*
X164433002Y-154750921D01*
X164433002Y-154249126D01*
X164904514Y-153687770D01*
X165218857Y-152692538D01*
X165075135Y-152273000D01*
X163560000Y-152273000D01*
X163560000Y-152293000D01*
X161560000Y-152293000D01*
X161560000Y-152273000D01*
X160044865Y-152273000D01*
X160039945Y-152287361D01*
X159860000Y-152250921D01*
X155860000Y-152250921D01*
X155442359Y-152329506D01*
X155058781Y-152576331D01*
X154940560Y-152749354D01*
X154843669Y-152598781D01*
X154467056Y-152341452D01*
X154020000Y-152250921D01*
X150020000Y-152250921D01*
X149839224Y-152284937D01*
X149835135Y-152273000D01*
X148320000Y-152273000D01*
X148320000Y-152293000D01*
X146320000Y-152293000D01*
X146320000Y-152273000D01*
X144804865Y-152273000D01*
X144661143Y-152692538D01*
X144975486Y-153687770D01*
X145446998Y-154249126D01*
X145446998Y-154750921D01*
X144820000Y-154750921D01*
X144402359Y-154829506D01*
X144018781Y-155076331D01*
X143761452Y-155452944D01*
X143670921Y-155900000D01*
X143670921Y-160900000D01*
X143749506Y-161317641D01*
X143775476Y-161358000D01*
X136719198Y-161358000D01*
X137432703Y-161063186D01*
X138200490Y-160296738D01*
X138616526Y-159294814D01*
X138617472Y-158209946D01*
X138203186Y-157207297D01*
X137436738Y-156439510D01*
X136434814Y-156023474D01*
X135349946Y-156022528D01*
X134347297Y-156436814D01*
X133579510Y-157203262D01*
X133163474Y-158205186D01*
X133162528Y-159290054D01*
X133576814Y-160292703D01*
X134343262Y-161060490D01*
X135059744Y-161358000D01*
X123317000Y-161358000D01*
X123317000Y-148107462D01*
X144661143Y-148107462D01*
X144804865Y-148527000D01*
X146320000Y-148527000D01*
X148320000Y-148527000D01*
X149835135Y-148527000D01*
X149978857Y-148107462D01*
X159901143Y-148107462D01*
X160044865Y-148527000D01*
X161560000Y-148527000D01*
X163560000Y-148527000D01*
X165075135Y-148527000D01*
X165218857Y-148107462D01*
X164904514Y-147112230D01*
X164233240Y-146313049D01*
X163927703Y-146157118D01*
X163560000Y-146141209D01*
X163560000Y-148527000D01*
X161560000Y-148527000D01*
X161560000Y-146141209D01*
X161192297Y-146157118D01*
X160886760Y-146313049D01*
X160215486Y-147112230D01*
X159901143Y-148107462D01*
X149978857Y-148107462D01*
X149664514Y-147112230D01*
X148993240Y-146313049D01*
X148687703Y-146157118D01*
X148320000Y-146141209D01*
X148320000Y-148527000D01*
X146320000Y-148527000D01*
X146320000Y-146141209D01*
X145952297Y-146157118D01*
X145646760Y-146313049D01*
X144975486Y-147112230D01*
X144661143Y-148107462D01*
X123317000Y-148107462D01*
X123317000Y-123410429D01*
X126370231Y-123410429D01*
X126570706Y-123647071D01*
X127414251Y-123713715D01*
X127749294Y-123647071D01*
X127949769Y-123410429D01*
X127160000Y-122620660D01*
X126370231Y-123410429D01*
X123317000Y-123410429D01*
X123317000Y-121814251D01*
X125006285Y-121814251D01*
X125072929Y-122149294D01*
X125309571Y-122349769D01*
X126099340Y-121560000D01*
X128220660Y-121560000D01*
X129010429Y-122349769D01*
X129247071Y-122149294D01*
X129313715Y-121305749D01*
X129247071Y-120970706D01*
X129010429Y-120770231D01*
X128220660Y-121560000D01*
X126099340Y-121560000D01*
X125309571Y-120770231D01*
X125072929Y-120970706D01*
X125006285Y-121814251D01*
X123317000Y-121814251D01*
X123317000Y-119709571D01*
X126370231Y-119709571D01*
X127160000Y-120499340D01*
X127949769Y-119709571D01*
X127749294Y-119472929D01*
X126905749Y-119406285D01*
X126570706Y-119472929D01*
X126370231Y-119709571D01*
X123317000Y-119709571D01*
X123317000Y-100457000D01*
X123893000Y-100457000D01*
X123893000Y-111125000D01*
G36*
X134347297Y-64996814D02*
X133579510Y-65763262D01*
X133163474Y-66765186D01*
X133162528Y-67850054D01*
X133576814Y-68852703D01*
X134343262Y-69620490D01*
X135345186Y-70036526D01*
X136430054Y-70037472D01*
X137432703Y-69623186D01*
X138200490Y-68856738D01*
X138616526Y-67854814D01*
X138617472Y-66769946D01*
X138203186Y-65767297D01*
X137436738Y-64999510D01*
X136720256Y-64702000D01*
X168080802Y-64702000D01*
X167367297Y-64996814D01*
X166599510Y-65763262D01*
X166183474Y-66765186D01*
X166182528Y-67850054D01*
X166596814Y-68852703D01*
X167363262Y-69620490D01*
X168365186Y-70036526D01*
X169450054Y-70037472D01*
X170452703Y-69623186D01*
X171220490Y-68856738D01*
X171518000Y-68140256D01*
X171518000Y-86523477D01*
X171216000Y-86462321D01*
X169184000Y-86462321D01*
X168766359Y-86540906D01*
X168382781Y-86787731D01*
X168125452Y-87164344D01*
X168034921Y-87611400D01*
X168034921Y-89338600D01*
X168113506Y-89756241D01*
X168302436Y-90049848D01*
X168166541Y-90253230D01*
X168015016Y-91015000D01*
X168166541Y-91776770D01*
X168506130Y-92285000D01*
X168166541Y-92793230D01*
X168015016Y-93555000D01*
X168166541Y-94316770D01*
X168506130Y-94825000D01*
X168166541Y-95333230D01*
X168015016Y-96095000D01*
X168166541Y-96856770D01*
X168506130Y-97365000D01*
X168166541Y-97873230D01*
X168015016Y-98635000D01*
X168074292Y-98933000D01*
X150427000Y-98933000D01*
X150427000Y-85725000D01*
X150403904Y-85608889D01*
X150403904Y-85490501D01*
X150307231Y-85004493D01*
X150190622Y-84722975D01*
X150127754Y-84571197D01*
X149852453Y-84159180D01*
X149852451Y-84159178D01*
X149852451Y-84159177D01*
X149520823Y-83827549D01*
X149520821Y-83827548D01*
X149520820Y-83827547D01*
X149108802Y-83552246D01*
X148675506Y-83372769D01*
X148189499Y-83276096D01*
X148098032Y-83276096D01*
X148206526Y-83014814D01*
X148207472Y-81929946D01*
X147793186Y-80927297D01*
X147026738Y-80159510D01*
X146024814Y-79743474D01*
X144939946Y-79742528D01*
X144077000Y-80099090D01*
X144077000Y-76200000D01*
X144053904Y-76083889D01*
X144053904Y-75965501D01*
X143957231Y-75479493D01*
X143795689Y-75089497D01*
X143783472Y-75060000D01*
X144510921Y-75060000D01*
X144510921Y-78060000D01*
X144589506Y-78477641D01*
X144836331Y-78861219D01*
X145212944Y-79118548D01*
X145660000Y-79209079D01*
X148660000Y-79209079D01*
X149077641Y-79130494D01*
X149461219Y-78883669D01*
X149718548Y-78507056D01*
X149809079Y-78060000D01*
X149809079Y-75060000D01*
X149730494Y-74642359D01*
X149483669Y-74258781D01*
X149107056Y-74001452D01*
X148660000Y-73910921D01*
X145660000Y-73910921D01*
X145242359Y-73989506D01*
X144858781Y-74236331D01*
X144601452Y-74612944D01*
X144510921Y-75060000D01*
X143783472Y-75060000D01*
X143777754Y-75046197D01*
X143502453Y-74634180D01*
X143502451Y-74634178D01*
X143502451Y-74634177D01*
X143170823Y-74302549D01*
X143170821Y-74302548D01*
X143170820Y-74302547D01*
X142758802Y-74027246D01*
X142325506Y-73847769D01*
X141839499Y-73751096D01*
X141721111Y-73751096D01*
X141605000Y-73728000D01*
X133985000Y-73728000D01*
X133868889Y-73751096D01*
X133750501Y-73751096D01*
X133264493Y-73847769D01*
X133010674Y-73952905D01*
X132831197Y-74027246D01*
X132419180Y-74302547D01*
X132419179Y-74302548D01*
X132419177Y-74302549D01*
X132087549Y-74634177D01*
X132087549Y-74634178D01*
X132087547Y-74634180D01*
X131812246Y-75046198D01*
X131686383Y-75350058D01*
X131632769Y-75479494D01*
X131536096Y-75965501D01*
X131536096Y-76083889D01*
X131513000Y-76200000D01*
X131513000Y-83066613D01*
X131486067Y-83202013D01*
X131476433Y-83216432D01*
X131462012Y-83226067D01*
X131326612Y-83253000D01*
X126365000Y-83253000D01*
X126248889Y-83276096D01*
X126130501Y-83276096D01*
X125644493Y-83372769D01*
X125390674Y-83477905D01*
X125211197Y-83552246D01*
X124799180Y-83827547D01*
X124799179Y-83827548D01*
X124799177Y-83827549D01*
X124467549Y-84159177D01*
X124467549Y-84159178D01*
X124467547Y-84159180D01*
X124192246Y-84571198D01*
X124076799Y-84849912D01*
X124012769Y-85004494D01*
X123916096Y-85490501D01*
X123916096Y-85608889D01*
X123893000Y-85725000D01*
X123893000Y-98933000D01*
X123317000Y-98933000D01*
X123317000Y-81280000D01*
X123306994Y-81230590D01*
X123278553Y-81188965D01*
X123236159Y-81161685D01*
X123190000Y-81153000D01*
X115697000Y-81153000D01*
X115697000Y-78410429D01*
X126370231Y-78410429D01*
X126570706Y-78647071D01*
X127414251Y-78713715D01*
X127749294Y-78647071D01*
X127949769Y-78410429D01*
X127160000Y-77620660D01*
X126370231Y-78410429D01*
X115697000Y-78410429D01*
X115697000Y-76814251D01*
X125006285Y-76814251D01*
X125072929Y-77149294D01*
X125309571Y-77349769D01*
X126099340Y-76560000D01*
X128220660Y-76560000D01*
X129010429Y-77349769D01*
X129247071Y-77149294D01*
X129313715Y-76305749D01*
X129247071Y-75970706D01*
X129010429Y-75770231D01*
X128220660Y-76560000D01*
X126099340Y-76560000D01*
X125309571Y-75770231D01*
X125072929Y-75970706D01*
X125006285Y-76814251D01*
X115697000Y-76814251D01*
X115697000Y-74709571D01*
X126370231Y-74709571D01*
X127160000Y-75499340D01*
X127949769Y-74709571D01*
X127749294Y-74472929D01*
X126905749Y-74406285D01*
X126570706Y-74472929D01*
X126370231Y-74709571D01*
X115697000Y-74709571D01*
X115697000Y-71120000D01*
X115686994Y-71070590D01*
X115658553Y-71028965D01*
X115616159Y-71001685D01*
X115570000Y-70993000D01*
X107950000Y-70993000D01*
X107900590Y-71003006D01*
X107858965Y-71031447D01*
X107831685Y-71073841D01*
X107823000Y-71120000D01*
X107823000Y-79168468D01*
X107668654Y-79014122D01*
X107198977Y-79483798D01*
X107473555Y-79758376D01*
X107306729Y-79743921D01*
X106956771Y-79813533D01*
X106771842Y-80046613D01*
X107533440Y-80808211D01*
X107823000Y-80518651D01*
X107823000Y-82423000D01*
X106178381Y-82423000D01*
X106048516Y-82293135D01*
X106543491Y-81798160D01*
X105781893Y-81036562D01*
X105548813Y-81221491D01*
X105503207Y-81747826D01*
X105219078Y-81463697D01*
X104993440Y-81689335D01*
X104767802Y-81463697D01*
X104493224Y-81738275D01*
X104507679Y-81571449D01*
X104438067Y-81221491D01*
X104204987Y-81036562D01*
X103443389Y-81798160D01*
X103938364Y-82293135D01*
X103808499Y-82423000D01*
X102997000Y-82423000D01*
X102997000Y-80264651D01*
X103215038Y-80046613D01*
X103030109Y-79813533D01*
X102997000Y-79810664D01*
X102997000Y-70327878D01*
X103032649Y-70320787D01*
X103217578Y-70087707D01*
X106774382Y-70087707D01*
X106959311Y-70320787D01*
X107762691Y-70390399D01*
X108112649Y-70320787D01*
X108297578Y-70087707D01*
X107535980Y-69326109D01*
X106774382Y-70087707D01*
X103217578Y-70087707D01*
X102997000Y-69867129D01*
X102997000Y-69850000D01*
X102986994Y-69800590D01*
X102958553Y-69758965D01*
X102916159Y-69731685D01*
X102870000Y-69723000D01*
X102852871Y-69723000D01*
X102455980Y-69326109D01*
X102059089Y-69723000D01*
X101862921Y-69723000D01*
X101092000Y-68952079D01*
X101092000Y-68710191D01*
X101466031Y-68336160D01*
X103445929Y-68336160D01*
X104207527Y-69097758D01*
X104440607Y-68912829D01*
X104470930Y-68562871D01*
X105481741Y-68562871D01*
X105551353Y-68912829D01*
X105784433Y-69097758D01*
X106546031Y-68336160D01*
X108525929Y-68336160D01*
X109287527Y-69097758D01*
X109520607Y-68912829D01*
X109590219Y-68109449D01*
X109520607Y-67759491D01*
X109287527Y-67574562D01*
X108525929Y-68336160D01*
X106546031Y-68336160D01*
X105784433Y-67574562D01*
X105551353Y-67759491D01*
X105481741Y-68562871D01*
X104470930Y-68562871D01*
X104510219Y-68109449D01*
X104440607Y-67759491D01*
X104207527Y-67574562D01*
X103445929Y-68336160D01*
X101466031Y-68336160D01*
X101092000Y-67962129D01*
X101092000Y-67720241D01*
X101961005Y-66851236D01*
X102455980Y-67346211D01*
X103217578Y-66584613D01*
X106774382Y-66584613D01*
X107535980Y-67346211D01*
X108297578Y-66584613D01*
X108112649Y-66351533D01*
X107309269Y-66281921D01*
X106959311Y-66351533D01*
X106774382Y-66584613D01*
X103217578Y-66584613D01*
X103032649Y-66351533D01*
X102506314Y-66305927D01*
X102790443Y-66021798D01*
X102320766Y-65552122D01*
X101092000Y-66780888D01*
X101092000Y-64702000D01*
X135060802Y-64702000D01*
X134347297Y-64996814D01*
X134347297Y-64996814D01*
G37*
X134347297Y-64996814D02*
X133579510Y-65763262D01*
X133163474Y-66765186D01*
X133162528Y-67850054D01*
X133576814Y-68852703D01*
X134343262Y-69620490D01*
X135345186Y-70036526D01*
X136430054Y-70037472D01*
X137432703Y-69623186D01*
X138200490Y-68856738D01*
X138616526Y-67854814D01*
X138617472Y-66769946D01*
X138203186Y-65767297D01*
X137436738Y-64999510D01*
X136720256Y-64702000D01*
X168080802Y-64702000D01*
X167367297Y-64996814D01*
X166599510Y-65763262D01*
X166183474Y-66765186D01*
X166182528Y-67850054D01*
X166596814Y-68852703D01*
X167363262Y-69620490D01*
X168365186Y-70036526D01*
X169450054Y-70037472D01*
X170452703Y-69623186D01*
X171220490Y-68856738D01*
X171518000Y-68140256D01*
X171518000Y-86523477D01*
X171216000Y-86462321D01*
X169184000Y-86462321D01*
X168766359Y-86540906D01*
X168382781Y-86787731D01*
X168125452Y-87164344D01*
X168034921Y-87611400D01*
X168034921Y-89338600D01*
X168113506Y-89756241D01*
X168302436Y-90049848D01*
X168166541Y-90253230D01*
X168015016Y-91015000D01*
X168166541Y-91776770D01*
X168506130Y-92285000D01*
X168166541Y-92793230D01*
X168015016Y-93555000D01*
X168166541Y-94316770D01*
X168506130Y-94825000D01*
X168166541Y-95333230D01*
X168015016Y-96095000D01*
X168166541Y-96856770D01*
X168506130Y-97365000D01*
X168166541Y-97873230D01*
X168015016Y-98635000D01*
X168074292Y-98933000D01*
X150427000Y-98933000D01*
X150427000Y-85725000D01*
X150403904Y-85608889D01*
X150403904Y-85490501D01*
X150307231Y-85004493D01*
X150190622Y-84722975D01*
X150127754Y-84571197D01*
X149852453Y-84159180D01*
X149852451Y-84159178D01*
X149852451Y-84159177D01*
X149520823Y-83827549D01*
X149520821Y-83827548D01*
X149520820Y-83827547D01*
X149108802Y-83552246D01*
X148675506Y-83372769D01*
X148189499Y-83276096D01*
X148098032Y-83276096D01*
X148206526Y-83014814D01*
X148207472Y-81929946D01*
X147793186Y-80927297D01*
X147026738Y-80159510D01*
X146024814Y-79743474D01*
X144939946Y-79742528D01*
X144077000Y-80099090D01*
X144077000Y-76200000D01*
X144053904Y-76083889D01*
X144053904Y-75965501D01*
X143957231Y-75479493D01*
X143795689Y-75089497D01*
X143783472Y-75060000D01*
X144510921Y-75060000D01*
X144510921Y-78060000D01*
X144589506Y-78477641D01*
X144836331Y-78861219D01*
X145212944Y-79118548D01*
X145660000Y-79209079D01*
X148660000Y-79209079D01*
X149077641Y-79130494D01*
X149461219Y-78883669D01*
X149718548Y-78507056D01*
X149809079Y-78060000D01*
X149809079Y-75060000D01*
X149730494Y-74642359D01*
X149483669Y-74258781D01*
X149107056Y-74001452D01*
X148660000Y-73910921D01*
X145660000Y-73910921D01*
X145242359Y-73989506D01*
X144858781Y-74236331D01*
X144601452Y-74612944D01*
X144510921Y-75060000D01*
X143783472Y-75060000D01*
X143777754Y-75046197D01*
X143502453Y-74634180D01*
X143502451Y-74634178D01*
X143502451Y-74634177D01*
X143170823Y-74302549D01*
X143170821Y-74302548D01*
X143170820Y-74302547D01*
X142758802Y-74027246D01*
X142325506Y-73847769D01*
X141839499Y-73751096D01*
X141721111Y-73751096D01*
X141605000Y-73728000D01*
X133985000Y-73728000D01*
X133868889Y-73751096D01*
X133750501Y-73751096D01*
X133264493Y-73847769D01*
X133010674Y-73952905D01*
X132831197Y-74027246D01*
X132419180Y-74302547D01*
X132419179Y-74302548D01*
X132419177Y-74302549D01*
X132087549Y-74634177D01*
X132087549Y-74634178D01*
X132087547Y-74634180D01*
X131812246Y-75046198D01*
X131686383Y-75350058D01*
X131632769Y-75479494D01*
X131536096Y-75965501D01*
X131536096Y-76083889D01*
X131513000Y-76200000D01*
X131513000Y-83066613D01*
X131486067Y-83202013D01*
X131476433Y-83216432D01*
X131462012Y-83226067D01*
X131326612Y-83253000D01*
X126365000Y-83253000D01*
X126248889Y-83276096D01*
X126130501Y-83276096D01*
X125644493Y-83372769D01*
X125390674Y-83477905D01*
X125211197Y-83552246D01*
X124799180Y-83827547D01*
X124799179Y-83827548D01*
X124799177Y-83827549D01*
X124467549Y-84159177D01*
X124467549Y-84159178D01*
X124467547Y-84159180D01*
X124192246Y-84571198D01*
X124076799Y-84849912D01*
X124012769Y-85004494D01*
X123916096Y-85490501D01*
X123916096Y-85608889D01*
X123893000Y-85725000D01*
X123893000Y-98933000D01*
X123317000Y-98933000D01*
X123317000Y-81280000D01*
X123306994Y-81230590D01*
X123278553Y-81188965D01*
X123236159Y-81161685D01*
X123190000Y-81153000D01*
X115697000Y-81153000D01*
X115697000Y-78410429D01*
X126370231Y-78410429D01*
X126570706Y-78647071D01*
X127414251Y-78713715D01*
X127749294Y-78647071D01*
X127949769Y-78410429D01*
X127160000Y-77620660D01*
X126370231Y-78410429D01*
X115697000Y-78410429D01*
X115697000Y-76814251D01*
X125006285Y-76814251D01*
X125072929Y-77149294D01*
X125309571Y-77349769D01*
X126099340Y-76560000D01*
X128220660Y-76560000D01*
X129010429Y-77349769D01*
X129247071Y-77149294D01*
X129313715Y-76305749D01*
X129247071Y-75970706D01*
X129010429Y-75770231D01*
X128220660Y-76560000D01*
X126099340Y-76560000D01*
X125309571Y-75770231D01*
X125072929Y-75970706D01*
X125006285Y-76814251D01*
X115697000Y-76814251D01*
X115697000Y-74709571D01*
X126370231Y-74709571D01*
X127160000Y-75499340D01*
X127949769Y-74709571D01*
X127749294Y-74472929D01*
X126905749Y-74406285D01*
X126570706Y-74472929D01*
X126370231Y-74709571D01*
X115697000Y-74709571D01*
X115697000Y-71120000D01*
X115686994Y-71070590D01*
X115658553Y-71028965D01*
X115616159Y-71001685D01*
X115570000Y-70993000D01*
X107950000Y-70993000D01*
X107900590Y-71003006D01*
X107858965Y-71031447D01*
X107831685Y-71073841D01*
X107823000Y-71120000D01*
X107823000Y-79168468D01*
X107668654Y-79014122D01*
X107198977Y-79483798D01*
X107473555Y-79758376D01*
X107306729Y-79743921D01*
X106956771Y-79813533D01*
X106771842Y-80046613D01*
X107533440Y-80808211D01*
X107823000Y-80518651D01*
X107823000Y-82423000D01*
X106178381Y-82423000D01*
X106048516Y-82293135D01*
X106543491Y-81798160D01*
X105781893Y-81036562D01*
X105548813Y-81221491D01*
X105503207Y-81747826D01*
X105219078Y-81463697D01*
X104993440Y-81689335D01*
X104767802Y-81463697D01*
X104493224Y-81738275D01*
X104507679Y-81571449D01*
X104438067Y-81221491D01*
X104204987Y-81036562D01*
X103443389Y-81798160D01*
X103938364Y-82293135D01*
X103808499Y-82423000D01*
X102997000Y-82423000D01*
X102997000Y-80264651D01*
X103215038Y-80046613D01*
X103030109Y-79813533D01*
X102997000Y-79810664D01*
X102997000Y-70327878D01*
X103032649Y-70320787D01*
X103217578Y-70087707D01*
X106774382Y-70087707D01*
X106959311Y-70320787D01*
X107762691Y-70390399D01*
X108112649Y-70320787D01*
X108297578Y-70087707D01*
X107535980Y-69326109D01*
X106774382Y-70087707D01*
X103217578Y-70087707D01*
X102997000Y-69867129D01*
X102997000Y-69850000D01*
X102986994Y-69800590D01*
X102958553Y-69758965D01*
X102916159Y-69731685D01*
X102870000Y-69723000D01*
X102852871Y-69723000D01*
X102455980Y-69326109D01*
X102059089Y-69723000D01*
X101862921Y-69723000D01*
X101092000Y-68952079D01*
X101092000Y-68710191D01*
X101466031Y-68336160D01*
X103445929Y-68336160D01*
X104207527Y-69097758D01*
X104440607Y-68912829D01*
X104470930Y-68562871D01*
X105481741Y-68562871D01*
X105551353Y-68912829D01*
X105784433Y-69097758D01*
X106546031Y-68336160D01*
X108525929Y-68336160D01*
X109287527Y-69097758D01*
X109520607Y-68912829D01*
X109590219Y-68109449D01*
X109520607Y-67759491D01*
X109287527Y-67574562D01*
X108525929Y-68336160D01*
X106546031Y-68336160D01*
X105784433Y-67574562D01*
X105551353Y-67759491D01*
X105481741Y-68562871D01*
X104470930Y-68562871D01*
X104510219Y-68109449D01*
X104440607Y-67759491D01*
X104207527Y-67574562D01*
X103445929Y-68336160D01*
X101466031Y-68336160D01*
X101092000Y-67962129D01*
X101092000Y-67720241D01*
X101961005Y-66851236D01*
X102455980Y-67346211D01*
X103217578Y-66584613D01*
X106774382Y-66584613D01*
X107535980Y-67346211D01*
X108297578Y-66584613D01*
X108112649Y-66351533D01*
X107309269Y-66281921D01*
X106959311Y-66351533D01*
X106774382Y-66584613D01*
X103217578Y-66584613D01*
X103032649Y-66351533D01*
X102506314Y-66305927D01*
X102790443Y-66021798D01*
X102320766Y-65552122D01*
X101092000Y-66780888D01*
X101092000Y-64702000D01*
X135060802Y-64702000D01*
X134347297Y-64996814D01*
M02*
