G04 #@! TF.FileFunction,Copper,L1,Top,Signal*
%FSLAX46Y46*%
G04 Gerber Fmt 4.6, Leading zero omitted, Abs format (unit mm)*
G04 Created by KiCad (PCBNEW 4.0.4-stable) date 12/14/17 11:03:47*
%MOMM*%
%LPD*%
G01*
G04 APERTURE LIST*
%ADD10C,0.250000*%
%ADD11R,2.400000X1.700000*%
%ADD12O,2.400000X1.700000*%
%ADD13O,1.800000X1.700000*%
%ADD14C,3.000000*%
%ADD15R,3.000000X3.000000*%
%ADD16R,1.000000X1.600000*%
%ADD17R,1.000000X1.250000*%
%ADD18R,2.200000X2.200000*%
%ADD19O,2.200000X2.200000*%
%ADD20O,4.000000X8.000000*%
%ADD21R,5.000000X5.000000*%
%ADD22R,4.000000X4.000000*%
%ADD23O,2.032000X1.727200*%
%ADD24R,2.032000X1.727200*%
%ADD25C,2.800000*%
%ADD26R,0.900000X0.800000*%
%ADD27R,1.700000X0.900000*%
%ADD28R,1.800000X1.800000*%
%ADD29O,1.800000X1.800000*%
%ADD30R,1.200000X0.900000*%
%ADD31R,3.800000X2.000000*%
%ADD32R,1.500000X2.000000*%
%ADD33C,0.600000*%
%ADD34C,2.000000*%
%ADD35C,3.000000*%
%ADD36C,0.900000*%
%ADD37C,0.300000*%
%ADD38C,0.254000*%
G04 APERTURE END LIST*
D10*
D11*
X97790000Y-104140000D03*
D12*
X97790000Y-101600000D03*
X97790000Y-99060000D03*
X97790000Y-96520000D03*
X97790000Y-93980000D03*
D13*
X75180000Y-83820000D03*
D12*
X97790000Y-91440000D03*
X74930000Y-86360000D03*
X97790000Y-88900000D03*
X74930000Y-88900000D03*
D11*
X97790000Y-86360000D03*
D12*
X74930000Y-91440000D03*
X97790000Y-83820000D03*
D11*
X74930000Y-93980000D03*
D12*
X97790000Y-81280000D03*
X74930000Y-96520000D03*
X97790000Y-78740000D03*
X74930000Y-99060000D03*
X97790000Y-76200000D03*
X74930000Y-101600000D03*
X97790000Y-73660000D03*
D11*
X74930000Y-104140000D03*
D12*
X97790000Y-71120000D03*
X74930000Y-106680000D03*
X97790000Y-106680000D03*
D14*
X127160000Y-121560000D03*
D15*
X147160000Y-121560000D03*
X147160000Y-76560000D03*
D14*
X127160000Y-76560000D03*
D16*
X89130000Y-148590000D03*
X86130000Y-148590000D03*
D17*
X88630000Y-153670000D03*
X86630000Y-153670000D03*
D18*
X118745000Y-121285000D03*
D19*
X118745000Y-108585000D03*
D20*
X162560000Y-150400000D03*
D21*
X162560000Y-158400000D03*
D22*
X157860000Y-155400000D03*
D23*
X117625000Y-101175000D03*
X117625000Y-98635000D03*
X117625000Y-96095000D03*
X117625000Y-93555000D03*
X117625000Y-91015000D03*
D24*
X117625000Y-88475000D03*
D25*
X102455980Y-68336160D03*
X107535980Y-68336160D03*
X102453440Y-81798160D03*
X107533440Y-81798160D03*
X102453440Y-108976160D03*
X107533440Y-108976160D03*
X102453440Y-120660160D03*
X107533440Y-120660160D03*
X102453440Y-147584160D03*
X107533440Y-147584160D03*
D23*
X117625000Y-140550000D03*
X117625000Y-138010000D03*
X117625000Y-135470000D03*
X117625000Y-132930000D03*
X117625000Y-130390000D03*
D24*
X117625000Y-127850000D03*
D23*
X170200000Y-101175000D03*
X170200000Y-98635000D03*
X170200000Y-96095000D03*
X170200000Y-93555000D03*
X170200000Y-91015000D03*
D24*
X170200000Y-88475000D03*
D23*
X170200000Y-140525000D03*
X170200000Y-137985000D03*
X170200000Y-135445000D03*
X170200000Y-132905000D03*
X170200000Y-130365000D03*
D24*
X170200000Y-127825000D03*
D26*
X106950000Y-100650000D03*
X106950000Y-102550000D03*
X108950000Y-101600000D03*
X106950000Y-94300000D03*
X106950000Y-96200000D03*
X108950000Y-95250000D03*
X106950000Y-87950000D03*
X106950000Y-89850000D03*
X108950000Y-88900000D03*
X106950000Y-73980000D03*
X106950000Y-75880000D03*
X108950000Y-74930000D03*
D27*
X102870000Y-100150000D03*
X102870000Y-103050000D03*
X102870000Y-93800000D03*
X102870000Y-96700000D03*
X102870000Y-87450000D03*
X102870000Y-90350000D03*
X102870000Y-73480000D03*
X102870000Y-76380000D03*
X113030000Y-100150000D03*
X113030000Y-103050000D03*
X113030000Y-93800000D03*
X113030000Y-96700000D03*
X113030000Y-87450000D03*
X113030000Y-90350000D03*
X113030000Y-73480000D03*
X113030000Y-76380000D03*
D28*
X86360000Y-142240000D03*
D29*
X88900000Y-142240000D03*
X91440000Y-142240000D03*
D30*
X118745000Y-116585000D03*
X118745000Y-113285000D03*
D31*
X88900000Y-130200000D03*
D32*
X88900000Y-136500000D03*
X91200000Y-136500000D03*
X86600000Y-136500000D03*
D20*
X147320000Y-150400000D03*
D21*
X147320000Y-158400000D03*
D22*
X152020000Y-155400000D03*
D33*
X149860000Y-133350000D03*
X110490000Y-115570000D03*
X110490000Y-73406000D03*
X110490000Y-100076000D03*
X110490000Y-93726000D03*
X110490000Y-87376000D03*
X113665000Y-98425000D03*
X113665000Y-138430000D03*
X113665000Y-92075000D03*
X114935000Y-130810000D03*
X114935000Y-92075000D03*
X106934000Y-86614000D03*
X102870000Y-98679000D03*
X102870000Y-92202000D03*
X99949000Y-73533000D03*
X112395000Y-135890000D03*
X112395000Y-107315000D03*
D34*
X117625000Y-140550000D02*
X142660000Y-140550000D01*
X142660000Y-140550000D02*
X149860000Y-133350000D01*
X110490000Y-115570000D02*
X111760000Y-115570000D01*
X111760000Y-115570000D02*
X118745000Y-108585000D01*
D35*
X102453440Y-147584160D02*
X107533440Y-147584160D01*
D36*
X88630000Y-153670000D02*
X88630000Y-151400000D01*
X89130000Y-150900000D02*
X89130000Y-148590000D01*
X88630000Y-151400000D02*
X89130000Y-150900000D01*
X89130000Y-148590000D02*
X89130000Y-142470000D01*
X89130000Y-142470000D02*
X88900000Y-142240000D01*
X88900000Y-142240000D02*
X88900000Y-136500000D01*
X88900000Y-136500000D02*
X88900000Y-130200000D01*
X111760000Y-115570000D02*
X118745000Y-108585000D01*
X118745000Y-113285000D02*
X118745000Y-108585000D01*
D34*
X117625000Y-101175000D02*
X118745000Y-102295000D01*
X118745000Y-102295000D02*
X118745000Y-108585000D01*
D37*
X113030000Y-73480000D02*
X112956000Y-73406000D01*
X112956000Y-73406000D02*
X110490000Y-73406000D01*
X113030000Y-100150000D02*
X112956000Y-100076000D01*
X112956000Y-100076000D02*
X110490000Y-100076000D01*
X113030000Y-93800000D02*
X112956000Y-93726000D01*
X112956000Y-93726000D02*
X110490000Y-93726000D01*
X113030000Y-87450000D02*
X112956000Y-87376000D01*
X112956000Y-87376000D02*
X110490000Y-87376000D01*
X113030000Y-73480000D02*
X112850000Y-73660000D01*
X117625000Y-88475000D02*
X119590000Y-88475000D01*
X120650000Y-89535000D02*
X120650000Y-90805000D01*
X119590000Y-88475000D02*
X120650000Y-89535000D01*
X117625000Y-132930000D02*
X119800000Y-132930000D01*
X121285000Y-131445000D02*
X121285000Y-127850000D01*
X119800000Y-132930000D02*
X121285000Y-131445000D01*
X117625000Y-93555000D02*
X119805000Y-93555000D01*
X120650000Y-92710000D02*
X120650000Y-90805000D01*
X119805000Y-93555000D02*
X120650000Y-92710000D01*
D34*
X97790000Y-104140000D02*
X99060000Y-104140000D01*
X102453440Y-107533440D02*
X102453440Y-108976160D01*
X99060000Y-104140000D02*
X102453440Y-107533440D01*
X92710000Y-104140000D02*
X92710000Y-113030000D01*
X95250000Y-115570000D02*
X102453440Y-115570000D01*
X92710000Y-113030000D02*
X95250000Y-115570000D01*
X85725000Y-90170000D02*
X85725000Y-104140000D01*
X74930000Y-104140000D02*
X85725000Y-104140000D01*
X85725000Y-104140000D02*
X92710000Y-104140000D01*
X92710000Y-104140000D02*
X97790000Y-104140000D01*
X74930000Y-93980000D02*
X81915000Y-93980000D01*
X89535000Y-86360000D02*
X97790000Y-86360000D01*
X81915000Y-93980000D02*
X85725000Y-90170000D01*
X85725000Y-90170000D02*
X89535000Y-86360000D01*
X86360000Y-142240000D02*
X83185000Y-142240000D01*
X85079840Y-120660160D02*
X102453440Y-120660160D01*
X81915000Y-123825000D02*
X85079840Y-120660160D01*
X81915000Y-140970000D02*
X81915000Y-123825000D01*
X83185000Y-142240000D02*
X81915000Y-140970000D01*
D35*
X107533440Y-108976160D02*
X107533440Y-120660160D01*
X102453440Y-108976160D02*
X102453440Y-115570000D01*
X102453440Y-115570000D02*
X102453440Y-120660160D01*
D34*
X102453440Y-120660160D02*
X102453440Y-125313440D01*
X104990000Y-127850000D02*
X111340000Y-127850000D01*
X102453440Y-125313440D02*
X104990000Y-127850000D01*
X117625000Y-127850000D02*
X121285000Y-127850000D01*
X121285000Y-127850000D02*
X153450000Y-127850000D01*
X153450000Y-127850000D02*
X154940000Y-129340000D01*
D35*
X147320000Y-158400000D02*
X162560000Y-158400000D01*
X154940000Y-155400000D02*
X154940000Y-129340000D01*
X154940000Y-129340000D02*
X147160000Y-121560000D01*
D34*
X160020000Y-127825000D02*
X160020000Y-71374000D01*
X170200000Y-127825000D02*
X160020000Y-127825000D01*
D35*
X160020000Y-127825000D02*
X153425000Y-127825000D01*
D34*
X153425000Y-127825000D02*
X147160000Y-121560000D01*
X170200000Y-88475000D02*
X170200000Y-73680000D01*
X167894000Y-71374000D02*
X160020000Y-71374000D01*
X170200000Y-73680000D02*
X167894000Y-71374000D01*
X160020000Y-71374000D02*
X145288000Y-71374000D01*
D36*
X86130000Y-148590000D02*
X86130000Y-142470000D01*
X86130000Y-142470000D02*
X86360000Y-142240000D01*
X86630000Y-153670000D02*
X86630000Y-151400000D01*
X86130000Y-150900000D02*
X86130000Y-148590000D01*
X86630000Y-151400000D02*
X86130000Y-150900000D01*
X86360000Y-142240000D02*
X86360000Y-136740000D01*
X86360000Y-136740000D02*
X86600000Y-136500000D01*
D35*
X162560000Y-158400000D02*
X160860000Y-158400000D01*
X160860000Y-158400000D02*
X157860000Y-155400000D01*
X147320000Y-158400000D02*
X149020000Y-158400000D01*
X149020000Y-158400000D02*
X152020000Y-155400000D01*
X152020000Y-155400000D02*
X154940000Y-155400000D01*
X154940000Y-155400000D02*
X157860000Y-155400000D01*
D34*
X123444000Y-71374000D02*
X117625000Y-77193000D01*
X117625000Y-77193000D02*
X117625000Y-88475000D01*
X147160000Y-76560000D02*
X147160000Y-73246000D01*
X145288000Y-71374000D02*
X123444000Y-71374000D01*
X147160000Y-73246000D02*
X145288000Y-71374000D01*
X117625000Y-127850000D02*
X111340000Y-127850000D01*
X107533440Y-124043440D02*
X107533440Y-120660160D01*
X111340000Y-127850000D02*
X107533440Y-124043440D01*
D37*
X117625000Y-132930000D02*
X117205000Y-133350000D01*
D36*
X91440000Y-142240000D02*
X91440000Y-136740000D01*
X91440000Y-136740000D02*
X91200000Y-136500000D01*
D35*
X147320000Y-152400000D02*
X147320000Y-151130000D01*
D36*
X118745000Y-116585000D02*
X118745000Y-121285000D01*
D34*
X118745000Y-121285000D02*
X126885000Y-121285000D01*
X126885000Y-121285000D02*
X127160000Y-121560000D01*
D35*
X102453440Y-81798160D02*
X107533440Y-81798160D01*
X102455980Y-68336160D02*
X107535980Y-68336160D01*
D37*
X117625000Y-98635000D02*
X117415000Y-98425000D01*
X117415000Y-98425000D02*
X113665000Y-98425000D01*
X113030000Y-90350000D02*
X113665000Y-90985000D01*
X113665000Y-138430000D02*
X117205000Y-138430000D01*
X113665000Y-90985000D02*
X113665000Y-92075000D01*
X117205000Y-138430000D02*
X117625000Y-138010000D01*
X117205000Y-138430000D02*
X117625000Y-138010000D01*
X117625000Y-138010000D02*
X117205000Y-138430000D01*
X108950000Y-88900000D02*
X109855000Y-88900000D01*
X109855000Y-88900000D02*
X111305000Y-90350000D01*
X111305000Y-90350000D02*
X113030000Y-90350000D01*
X114935000Y-89535000D02*
X114935000Y-92075000D01*
X114935000Y-130810000D02*
X117205000Y-130810000D01*
X117205000Y-130810000D02*
X117625000Y-130390000D01*
X113030000Y-76380000D02*
X113030000Y-83820000D01*
X116415000Y-91015000D02*
X117625000Y-91015000D01*
X114935000Y-89535000D02*
X116415000Y-91015000D01*
X114935000Y-85725000D02*
X114935000Y-89535000D01*
X113030000Y-83820000D02*
X114935000Y-85725000D01*
X108950000Y-74930000D02*
X109855000Y-74930000D01*
X111305000Y-76380000D02*
X113030000Y-76380000D01*
X109855000Y-74930000D02*
X111305000Y-76380000D01*
X106934000Y-87934000D02*
X106934000Y-86614000D01*
X106950000Y-87950000D02*
X106934000Y-87934000D01*
X102870000Y-100150000D02*
X102870000Y-98679000D01*
X102870000Y-93800000D02*
X102870000Y-92202000D01*
X102870000Y-73480000D02*
X102817000Y-73533000D01*
X102817000Y-73533000D02*
X99949000Y-73533000D01*
X102870000Y-73480000D02*
X104595000Y-73480000D01*
X104595000Y-73480000D02*
X105095000Y-73980000D01*
X105095000Y-73980000D02*
X106950000Y-73980000D01*
X102870000Y-100150000D02*
X104595000Y-100150000D01*
X105095000Y-100650000D02*
X106950000Y-100650000D01*
X104595000Y-100150000D02*
X105095000Y-100650000D01*
X102870000Y-93800000D02*
X104595000Y-93800000D01*
X105095000Y-94300000D02*
X106950000Y-94300000D01*
X104595000Y-93800000D02*
X105095000Y-94300000D01*
X102870000Y-87450000D02*
X104595000Y-87450000D01*
X105095000Y-87950000D02*
X106950000Y-87950000D01*
X104595000Y-87450000D02*
X105095000Y-87950000D01*
X97790000Y-88900000D02*
X99568000Y-88900000D01*
X101018000Y-90350000D02*
X102870000Y-90350000D01*
X99568000Y-88900000D02*
X101018000Y-90350000D01*
D10*
X102870000Y-90350000D02*
X102817000Y-90297000D01*
D37*
X102870000Y-90350000D02*
X104595000Y-90350000D01*
X105095000Y-89850000D02*
X106950000Y-89850000D01*
X104595000Y-90350000D02*
X105095000Y-89850000D01*
X102870000Y-76380000D02*
X100510000Y-76380000D01*
X100510000Y-76380000D02*
X97790000Y-73660000D01*
X102870000Y-76380000D02*
X104595000Y-76380000D01*
X105095000Y-75880000D02*
X106950000Y-75880000D01*
X104595000Y-76380000D02*
X105095000Y-75880000D01*
X113030000Y-96700000D02*
X117020000Y-96700000D01*
X117020000Y-96700000D02*
X117625000Y-96095000D01*
X117020000Y-96700000D02*
X117625000Y-96095000D01*
X108950000Y-95250000D02*
X109855000Y-95250000D01*
X111305000Y-96700000D02*
X113030000Y-96700000D01*
X109855000Y-95250000D02*
X111305000Y-96700000D01*
X113030000Y-103050000D02*
X113030000Y-106680000D01*
X112395000Y-135890000D02*
X117205000Y-135890000D01*
X113030000Y-106680000D02*
X112395000Y-107315000D01*
X117205000Y-135890000D02*
X117625000Y-135470000D01*
X108950000Y-101600000D02*
X109855000Y-101600000D01*
X111305000Y-103050000D02*
X113030000Y-103050000D01*
X109855000Y-101600000D02*
X111305000Y-103050000D01*
X117625000Y-135470000D02*
X117205000Y-135890000D01*
X97790000Y-91440000D02*
X100076000Y-91440000D01*
X101780000Y-96700000D02*
X102870000Y-96700000D01*
X101092000Y-96012000D02*
X101780000Y-96700000D01*
X101092000Y-92456000D02*
X101092000Y-96012000D01*
X100076000Y-91440000D02*
X101092000Y-92456000D01*
X102870000Y-96700000D02*
X104595000Y-96700000D01*
X105095000Y-96200000D02*
X106950000Y-96200000D01*
X104595000Y-96700000D02*
X105095000Y-96200000D01*
X97790000Y-93980000D02*
X99060000Y-93980000D01*
X101526000Y-103050000D02*
X102870000Y-103050000D01*
X100076000Y-101600000D02*
X101526000Y-103050000D01*
X100076000Y-94996000D02*
X100076000Y-101600000D01*
X99060000Y-93980000D02*
X100076000Y-94996000D01*
D10*
X102870000Y-103050000D02*
X102817000Y-102997000D01*
D37*
X102870000Y-103050000D02*
X104595000Y-103050000D01*
X105095000Y-102550000D02*
X106950000Y-102550000D01*
X104595000Y-103050000D02*
X105095000Y-102550000D01*
D38*
G36*
X134347297Y-64996814D02*
X133579510Y-65763262D01*
X133163474Y-66765186D01*
X133162528Y-67850054D01*
X133576814Y-68852703D01*
X134343262Y-69620490D01*
X135345186Y-70036526D01*
X136430054Y-70037472D01*
X137432703Y-69623186D01*
X138200490Y-68856738D01*
X138616526Y-67854814D01*
X138617472Y-66769946D01*
X138203186Y-65767297D01*
X137436738Y-64999510D01*
X136720256Y-64702000D01*
X168080802Y-64702000D01*
X167367297Y-64996814D01*
X166599510Y-65763262D01*
X166183474Y-66765186D01*
X166182528Y-67850054D01*
X166596814Y-68852703D01*
X167363262Y-69620490D01*
X168365186Y-70036526D01*
X169450054Y-70037472D01*
X170452703Y-69623186D01*
X171220490Y-68856738D01*
X171518000Y-68140256D01*
X171518000Y-86601998D01*
X171216000Y-86601998D01*
X171216000Y-86984400D01*
X170864750Y-86984400D01*
X170708000Y-87141150D01*
X170708000Y-88043200D01*
X171216000Y-88043200D01*
X171216000Y-88906800D01*
X170708000Y-88906800D01*
X170708000Y-89086782D01*
X170394384Y-89024400D01*
X170005616Y-89024400D01*
X169692000Y-89086782D01*
X169692000Y-88906800D01*
X168713750Y-88906800D01*
X168557000Y-89063550D01*
X168557000Y-89338600D01*
X168326998Y-89338600D01*
X168326998Y-89965600D01*
X168358729Y-89965600D01*
X168166541Y-90253230D01*
X168015016Y-91015000D01*
X168166541Y-91776770D01*
X168506130Y-92285000D01*
X168166541Y-92793230D01*
X168015016Y-93555000D01*
X168166541Y-94316770D01*
X168506130Y-94825000D01*
X168166541Y-95333230D01*
X168015016Y-96095000D01*
X168166541Y-96856770D01*
X168506130Y-97365000D01*
X168166541Y-97873230D01*
X168015016Y-98635000D01*
X168166541Y-99396770D01*
X168506130Y-99905000D01*
X168166541Y-100413230D01*
X168015016Y-101175000D01*
X168166541Y-101936770D01*
X168598049Y-102582567D01*
X169243846Y-103014075D01*
X170005616Y-103165600D01*
X170394384Y-103165600D01*
X171156154Y-103014075D01*
X171518000Y-102772297D01*
X171518000Y-125951998D01*
X171216000Y-125951998D01*
X171216000Y-126334400D01*
X170864750Y-126334400D01*
X170708000Y-126491150D01*
X170708000Y-127393200D01*
X171216000Y-127393200D01*
X171216000Y-128256800D01*
X170708000Y-128256800D01*
X170708000Y-128436782D01*
X170394384Y-128374400D01*
X170005616Y-128374400D01*
X169692000Y-128436782D01*
X169692000Y-128256800D01*
X168713750Y-128256800D01*
X168557000Y-128413550D01*
X168557000Y-128688600D01*
X168326998Y-128688600D01*
X168326998Y-129315600D01*
X168358729Y-129315600D01*
X168166541Y-129603230D01*
X168015016Y-130365000D01*
X168166541Y-131126770D01*
X168506130Y-131635000D01*
X168166541Y-132143230D01*
X168015016Y-132905000D01*
X168166541Y-133666770D01*
X168506130Y-134175000D01*
X168166541Y-134683230D01*
X168015016Y-135445000D01*
X168166541Y-136206770D01*
X168506130Y-136715000D01*
X168166541Y-137223230D01*
X168015016Y-137985000D01*
X168166541Y-138746770D01*
X168506130Y-139255000D01*
X168166541Y-139763230D01*
X168015016Y-140525000D01*
X168166541Y-141286770D01*
X168598049Y-141932567D01*
X169243846Y-142364075D01*
X170005616Y-142515600D01*
X170394384Y-142515600D01*
X171156154Y-142364075D01*
X171518000Y-142122297D01*
X171518000Y-159901612D01*
X171394395Y-160523019D01*
X171109457Y-160949457D01*
X170683019Y-161234395D01*
X170061613Y-161358000D01*
X165488712Y-161358000D01*
X165591545Y-161255167D01*
X165687000Y-161024718D01*
X165687000Y-159806750D01*
X165530250Y-159650000D01*
X163810000Y-159650000D01*
X163810000Y-160293000D01*
X161310000Y-160293000D01*
X161310000Y-159650000D01*
X159589750Y-159650000D01*
X159433000Y-159806750D01*
X159433000Y-161024718D01*
X159528455Y-161255167D01*
X159631288Y-161358000D01*
X150248712Y-161358000D01*
X150351545Y-161255167D01*
X150447000Y-161024718D01*
X150447000Y-159806750D01*
X150290250Y-159650000D01*
X148570000Y-159650000D01*
X148570000Y-160293000D01*
X146070000Y-160293000D01*
X146070000Y-159650000D01*
X144349750Y-159650000D01*
X144193000Y-159806750D01*
X144193000Y-161024718D01*
X144288455Y-161255167D01*
X144391288Y-161358000D01*
X136719198Y-161358000D01*
X137432703Y-161063186D01*
X138200490Y-160296738D01*
X138616526Y-159294814D01*
X138617472Y-158209946D01*
X138203186Y-157207297D01*
X137436738Y-156439510D01*
X136434814Y-156023474D01*
X135349946Y-156022528D01*
X134347297Y-156436814D01*
X133579510Y-157203262D01*
X133163474Y-158205186D01*
X133162528Y-159290054D01*
X133576814Y-160292703D01*
X134343262Y-161060490D01*
X135059744Y-161358000D01*
X78299198Y-161358000D01*
X79012703Y-161063186D01*
X79780490Y-160296738D01*
X80196526Y-159294814D01*
X80197472Y-158209946D01*
X79783186Y-157207297D01*
X79016738Y-156439510D01*
X78014814Y-156023474D01*
X76929946Y-156022528D01*
X75927297Y-156436814D01*
X75159510Y-157203262D01*
X74862000Y-157919744D01*
X74862000Y-154139250D01*
X85503000Y-154139250D01*
X85503000Y-154419718D01*
X85598455Y-154650167D01*
X85774833Y-154826545D01*
X86005282Y-154922000D01*
X86223250Y-154922000D01*
X86380000Y-154765250D01*
X86380000Y-153982500D01*
X85659750Y-153982500D01*
X85503000Y-154139250D01*
X74862000Y-154139250D01*
X74862000Y-152920282D01*
X85503000Y-152920282D01*
X85503000Y-153200750D01*
X85659750Y-153357500D01*
X86380000Y-153357500D01*
X86380000Y-152574750D01*
X86223250Y-152418000D01*
X86005282Y-152418000D01*
X85774833Y-152513455D01*
X85598455Y-152689833D01*
X85503000Y-152920282D01*
X74862000Y-152920282D01*
X74862000Y-149146750D01*
X85003000Y-149146750D01*
X85003000Y-149514718D01*
X85098455Y-149745167D01*
X85274833Y-149921545D01*
X85505282Y-150017000D01*
X85723250Y-150017000D01*
X85880000Y-149860250D01*
X85880000Y-148990000D01*
X86380000Y-148990000D01*
X86380000Y-149860250D01*
X86536750Y-150017000D01*
X86754718Y-150017000D01*
X86985167Y-149921545D01*
X87161545Y-149745167D01*
X87257000Y-149514718D01*
X87257000Y-149146750D01*
X87100250Y-148990000D01*
X86380000Y-148990000D01*
X85880000Y-148990000D01*
X85159750Y-148990000D01*
X85003000Y-149146750D01*
X74862000Y-149146750D01*
X74862000Y-147665282D01*
X85003000Y-147665282D01*
X85003000Y-148033250D01*
X85159750Y-148190000D01*
X85880000Y-148190000D01*
X85880000Y-147319750D01*
X86380000Y-147319750D01*
X86380000Y-148190000D01*
X87100250Y-148190000D01*
X87257000Y-148033250D01*
X87257000Y-147665282D01*
X87161545Y-147434833D01*
X86985167Y-147258455D01*
X86754718Y-147163000D01*
X86536750Y-147163000D01*
X86380000Y-147319750D01*
X85880000Y-147319750D01*
X85723250Y-147163000D01*
X85505282Y-147163000D01*
X85274833Y-147258455D01*
X85098455Y-147434833D01*
X85003000Y-147665282D01*
X74862000Y-147665282D01*
X74862000Y-142846750D01*
X84833000Y-142846750D01*
X84833000Y-143264718D01*
X84928455Y-143495167D01*
X85104833Y-143671545D01*
X85335282Y-143767000D01*
X85753250Y-143767000D01*
X85910000Y-143610250D01*
X85910000Y-142690000D01*
X84989750Y-142690000D01*
X84833000Y-142846750D01*
X74862000Y-142846750D01*
X74862000Y-141215282D01*
X84833000Y-141215282D01*
X84833000Y-141633250D01*
X84989750Y-141790000D01*
X85910000Y-141790000D01*
X85910000Y-140869750D01*
X85753250Y-140713000D01*
X85335282Y-140713000D01*
X85104833Y-140808455D01*
X84928455Y-140984833D01*
X84833000Y-141215282D01*
X74862000Y-141215282D01*
X74862000Y-137156750D01*
X85223000Y-137156750D01*
X85223000Y-137624718D01*
X85318455Y-137855167D01*
X85494833Y-138031545D01*
X85725282Y-138127000D01*
X86068250Y-138127000D01*
X86225000Y-137970250D01*
X86225000Y-137000000D01*
X85379750Y-137000000D01*
X85223000Y-137156750D01*
X74862000Y-137156750D01*
X74862000Y-135375282D01*
X85223000Y-135375282D01*
X85223000Y-135843250D01*
X85379750Y-136000000D01*
X86225000Y-136000000D01*
X86225000Y-135029750D01*
X86068250Y-134873000D01*
X85725282Y-134873000D01*
X85494833Y-134968455D01*
X85318455Y-135144833D01*
X85223000Y-135375282D01*
X74862000Y-135375282D01*
X74862000Y-129200000D01*
X85850921Y-129200000D01*
X85850921Y-131200000D01*
X85929506Y-131617641D01*
X86176331Y-132001219D01*
X86552944Y-132258548D01*
X87000000Y-132349079D01*
X87323000Y-132349079D01*
X87323000Y-134714063D01*
X87214403Y-134873000D01*
X87131750Y-134873000D01*
X86975000Y-135029750D01*
X86975000Y-136000000D01*
X87000921Y-136000000D01*
X87000921Y-137000000D01*
X86975000Y-137000000D01*
X86975000Y-137970250D01*
X87131750Y-138127000D01*
X87214224Y-138127000D01*
X87323000Y-138296042D01*
X87323000Y-140366998D01*
X87260000Y-140366998D01*
X87260000Y-140713000D01*
X86966750Y-140713000D01*
X86810000Y-140869750D01*
X86810000Y-141790000D01*
X86922799Y-141790000D01*
X86833289Y-142240000D01*
X86922799Y-142690000D01*
X86810000Y-142690000D01*
X86810000Y-143610250D01*
X86966750Y-143767000D01*
X87260000Y-143767000D01*
X87260000Y-144113002D01*
X87553000Y-144113002D01*
X87553000Y-147434063D01*
X87480921Y-147790000D01*
X87480921Y-149390000D01*
X87553000Y-149773065D01*
X87553000Y-150246786D01*
X87514893Y-150284893D01*
X87173042Y-150796508D01*
X87053000Y-151400000D01*
X87053000Y-152418000D01*
X87036750Y-152418000D01*
X86880000Y-152574750D01*
X86880000Y-153357500D01*
X86980921Y-153357500D01*
X86980921Y-153982500D01*
X86880000Y-153982500D01*
X86880000Y-154765250D01*
X87036750Y-154922000D01*
X87130000Y-154922000D01*
X87130000Y-155543002D01*
X87757000Y-155543002D01*
X87757000Y-155368545D01*
X88130000Y-155444079D01*
X89130000Y-155444079D01*
X89547641Y-155365494D01*
X89931219Y-155118669D01*
X90188548Y-154742056D01*
X90279079Y-154295000D01*
X90279079Y-153045000D01*
X90207000Y-152661935D01*
X90207000Y-152053215D01*
X90245108Y-152015107D01*
X90450032Y-151708416D01*
X90586958Y-151503492D01*
X90707000Y-150900000D01*
X90707000Y-149745937D01*
X90779079Y-149390000D01*
X90779079Y-147790000D01*
X90740348Y-147584160D01*
X99826440Y-147584160D01*
X100026408Y-148589469D01*
X100595870Y-149441730D01*
X101448131Y-150011192D01*
X102453440Y-150211160D01*
X107533440Y-150211160D01*
X108538749Y-150011192D01*
X109391010Y-149441730D01*
X109960472Y-148589469D01*
X110018139Y-148299556D01*
X144193000Y-148299556D01*
X144193000Y-152500444D01*
X144431029Y-153697095D01*
X145108877Y-154711567D01*
X145949122Y-155273000D01*
X144695282Y-155273000D01*
X144464833Y-155368455D01*
X144288455Y-155544833D01*
X144193000Y-155775282D01*
X144193000Y-156993250D01*
X144349750Y-157150000D01*
X146070000Y-157150000D01*
X146070000Y-156507000D01*
X148570000Y-156507000D01*
X148570000Y-157150000D01*
X149393000Y-157150000D01*
X149393000Y-157524718D01*
X149488455Y-157755167D01*
X149664833Y-157931545D01*
X149895282Y-158027000D01*
X150863250Y-158027000D01*
X151020000Y-157870250D01*
X151020000Y-156400000D01*
X153020000Y-156400000D01*
X153020000Y-157870250D01*
X153176750Y-158027000D01*
X154144718Y-158027000D01*
X154375167Y-157931545D01*
X154551545Y-157755167D01*
X154647000Y-157524718D01*
X154647000Y-156556750D01*
X155233000Y-156556750D01*
X155233000Y-157524718D01*
X155328455Y-157755167D01*
X155504833Y-157931545D01*
X155735282Y-158027000D01*
X156703250Y-158027000D01*
X156860000Y-157870250D01*
X156860000Y-156400000D01*
X155389750Y-156400000D01*
X155233000Y-156556750D01*
X154647000Y-156556750D01*
X154490250Y-156400000D01*
X153020000Y-156400000D01*
X151020000Y-156400000D01*
X150447000Y-156400000D01*
X150447000Y-155775282D01*
X150351545Y-155544833D01*
X150175167Y-155368455D01*
X150127000Y-155348504D01*
X150127000Y-154400000D01*
X151020000Y-154400000D01*
X151020000Y-152929750D01*
X153020000Y-152929750D01*
X153020000Y-154400000D01*
X154490250Y-154400000D01*
X154647000Y-154243250D01*
X154647000Y-153275282D01*
X155233000Y-153275282D01*
X155233000Y-154243250D01*
X155389750Y-154400000D01*
X156860000Y-154400000D01*
X156860000Y-152929750D01*
X158860000Y-152929750D01*
X158860000Y-154400000D01*
X159753000Y-154400000D01*
X159753000Y-155348504D01*
X159704833Y-155368455D01*
X159528455Y-155544833D01*
X159433000Y-155775282D01*
X159433000Y-156400000D01*
X158860000Y-156400000D01*
X158860000Y-157870250D01*
X159016750Y-158027000D01*
X159984718Y-158027000D01*
X160215167Y-157931545D01*
X160391545Y-157755167D01*
X160487000Y-157524718D01*
X160487000Y-157150000D01*
X161310000Y-157150000D01*
X161310000Y-156507000D01*
X163810000Y-156507000D01*
X163810000Y-157150000D01*
X165530250Y-157150000D01*
X165687000Y-156993250D01*
X165687000Y-155775282D01*
X165591545Y-155544833D01*
X165415167Y-155368455D01*
X165184718Y-155273000D01*
X163930878Y-155273000D01*
X164771123Y-154711567D01*
X165448971Y-153697095D01*
X165687000Y-152500444D01*
X165687000Y-148299556D01*
X165448971Y-147102905D01*
X164771123Y-146088433D01*
X163756651Y-145410585D01*
X162560000Y-145172556D01*
X161363349Y-145410585D01*
X160348877Y-146088433D01*
X159671029Y-147102905D01*
X159433000Y-148299556D01*
X159433000Y-152500444D01*
X159487215Y-152773000D01*
X159016750Y-152773000D01*
X158860000Y-152929750D01*
X156860000Y-152929750D01*
X156703250Y-152773000D01*
X155735282Y-152773000D01*
X155504833Y-152868455D01*
X155328455Y-153044833D01*
X155233000Y-153275282D01*
X154647000Y-153275282D01*
X154551545Y-153044833D01*
X154375167Y-152868455D01*
X154144718Y-152773000D01*
X153176750Y-152773000D01*
X153020000Y-152929750D01*
X151020000Y-152929750D01*
X150863250Y-152773000D01*
X150392785Y-152773000D01*
X150447000Y-152500444D01*
X150447000Y-148299556D01*
X150208971Y-147102905D01*
X149531123Y-146088433D01*
X148516651Y-145410585D01*
X147320000Y-145172556D01*
X146123349Y-145410585D01*
X145108877Y-146088433D01*
X144431029Y-147102905D01*
X144193000Y-148299556D01*
X110018139Y-148299556D01*
X110160440Y-147584160D01*
X109960472Y-146578851D01*
X109391010Y-145726590D01*
X108538749Y-145157128D01*
X107533440Y-144957160D01*
X102453440Y-144957160D01*
X101448131Y-145157128D01*
X100595870Y-145726590D01*
X100026408Y-146578851D01*
X99826440Y-147584160D01*
X90740348Y-147584160D01*
X90707000Y-147406935D01*
X90707000Y-144129096D01*
X91400289Y-144267000D01*
X91479711Y-144267000D01*
X92255410Y-144112704D01*
X92913016Y-143673305D01*
X93352415Y-143015699D01*
X93506711Y-142240000D01*
X93352415Y-141464301D01*
X93017000Y-140962318D01*
X93017000Y-137905319D01*
X93099079Y-137500000D01*
X93099079Y-136172603D01*
X110967752Y-136172603D01*
X111184543Y-136697275D01*
X111585614Y-137099047D01*
X112109907Y-137316752D01*
X112677603Y-137317248D01*
X112817935Y-137259264D01*
X112455953Y-137620614D01*
X112238248Y-138144907D01*
X112237752Y-138712603D01*
X112454543Y-139237275D01*
X112855614Y-139639047D01*
X113379907Y-139856752D01*
X113947603Y-139857248D01*
X114311229Y-139707000D01*
X115645817Y-139707000D01*
X115591541Y-139788230D01*
X115440016Y-140550000D01*
X115591541Y-141311770D01*
X116023049Y-141957567D01*
X116083550Y-141997993D01*
X116120984Y-142054016D01*
X116811032Y-142515092D01*
X117625000Y-142677000D01*
X142660000Y-142677000D01*
X143473968Y-142515092D01*
X144164016Y-142054016D01*
X151364016Y-134854016D01*
X151825092Y-134163967D01*
X151987000Y-133350000D01*
X151825092Y-132536032D01*
X151364016Y-131845984D01*
X150673968Y-131384908D01*
X149860000Y-131223000D01*
X149046033Y-131384908D01*
X148355984Y-131845984D01*
X141778968Y-138423000D01*
X119727833Y-138423000D01*
X119809984Y-138010000D01*
X119658459Y-137248230D01*
X119318870Y-136740000D01*
X119658459Y-136231770D01*
X119809984Y-135470000D01*
X119658459Y-134708230D01*
X119466271Y-134420600D01*
X119498002Y-134420600D01*
X119498002Y-133793600D01*
X118955842Y-133793600D01*
X119118974Y-133579667D01*
X119039424Y-133361800D01*
X118133000Y-133361800D01*
X118133000Y-133541782D01*
X117819384Y-133479400D01*
X117430616Y-133479400D01*
X117117000Y-133541782D01*
X117117000Y-133361800D01*
X116210576Y-133361800D01*
X116131026Y-133579667D01*
X116294158Y-133793600D01*
X115751998Y-133793600D01*
X115751998Y-134420600D01*
X115783730Y-134420600D01*
X115655172Y-134613000D01*
X113040737Y-134613000D01*
X112680093Y-134463248D01*
X112112397Y-134462752D01*
X111587725Y-134679543D01*
X111185953Y-135080614D01*
X110968248Y-135604907D01*
X110967752Y-136172603D01*
X93099079Y-136172603D01*
X93099079Y-135500000D01*
X93020494Y-135082359D01*
X92773669Y-134698781D01*
X92397056Y-134441452D01*
X91950000Y-134350921D01*
X90477000Y-134350921D01*
X90477000Y-132349079D01*
X90800000Y-132349079D01*
X91217641Y-132270494D01*
X91601219Y-132023669D01*
X91858548Y-131647056D01*
X91949079Y-131200000D01*
X91949079Y-131092603D01*
X113507752Y-131092603D01*
X113724543Y-131617275D01*
X114125614Y-132019047D01*
X114649907Y-132236752D01*
X115217603Y-132237248D01*
X115581229Y-132087000D01*
X116278450Y-132087000D01*
X116131026Y-132280333D01*
X116210576Y-132498200D01*
X117117000Y-132498200D01*
X117117000Y-132318218D01*
X117430616Y-132380600D01*
X117819384Y-132380600D01*
X118133000Y-132318218D01*
X118133000Y-132498200D01*
X119039424Y-132498200D01*
X119118974Y-132280333D01*
X118955842Y-132066400D01*
X119498002Y-132066400D01*
X119498002Y-131439400D01*
X119466271Y-131439400D01*
X119658459Y-131151770D01*
X119809984Y-130390000D01*
X119658459Y-129628230D01*
X119466271Y-129340600D01*
X119498002Y-129340600D01*
X119498002Y-128713600D01*
X119268000Y-128713600D01*
X119268000Y-128438550D01*
X119111250Y-128281800D01*
X118133000Y-128281800D01*
X118133000Y-128461782D01*
X117819384Y-128399400D01*
X117430616Y-128399400D01*
X117117000Y-128461782D01*
X117117000Y-128281800D01*
X116138750Y-128281800D01*
X115982000Y-128438550D01*
X115982000Y-128713600D01*
X115751998Y-128713600D01*
X115751998Y-129340600D01*
X115783730Y-129340600D01*
X115655172Y-129533000D01*
X115580737Y-129533000D01*
X115220093Y-129383248D01*
X114652397Y-129382752D01*
X114127725Y-129599543D01*
X113725953Y-130000614D01*
X113508248Y-130524907D01*
X113507752Y-131092603D01*
X91949079Y-131092603D01*
X91949079Y-129200000D01*
X91870494Y-128782359D01*
X91623669Y-128398781D01*
X91247056Y-128141452D01*
X90800000Y-128050921D01*
X87000000Y-128050921D01*
X86582359Y-128129506D01*
X86198781Y-128376331D01*
X85941452Y-128752944D01*
X85850921Y-129200000D01*
X74862000Y-129200000D01*
X74862000Y-126861682D01*
X115982000Y-126861682D01*
X115982000Y-127261450D01*
X116138750Y-127418200D01*
X117117000Y-127418200D01*
X117117000Y-126516150D01*
X118133000Y-126516150D01*
X118133000Y-127418200D01*
X119111250Y-127418200D01*
X119268000Y-127261450D01*
X119268000Y-126861682D01*
X119257645Y-126836682D01*
X168557000Y-126836682D01*
X168557000Y-127236450D01*
X168713750Y-127393200D01*
X169692000Y-127393200D01*
X169692000Y-126491150D01*
X169535250Y-126334400D01*
X169059282Y-126334400D01*
X168828833Y-126429855D01*
X168652455Y-126606233D01*
X168557000Y-126836682D01*
X119257645Y-126836682D01*
X119172545Y-126631233D01*
X118996167Y-126454855D01*
X118765718Y-126359400D01*
X118289750Y-126359400D01*
X118133000Y-126516150D01*
X117117000Y-126516150D01*
X116960250Y-126359400D01*
X116484282Y-126359400D01*
X116253833Y-126454855D01*
X116077455Y-126631233D01*
X115982000Y-126861682D01*
X74862000Y-126861682D01*
X74862000Y-122411707D01*
X101691842Y-122411707D01*
X101876771Y-122644787D01*
X102680151Y-122714399D01*
X103030109Y-122644787D01*
X103215038Y-122411707D01*
X106771842Y-122411707D01*
X106956771Y-122644787D01*
X107760151Y-122714399D01*
X108110109Y-122644787D01*
X108295038Y-122411707D01*
X107533440Y-121650109D01*
X106771842Y-122411707D01*
X103215038Y-122411707D01*
X102453440Y-121650109D01*
X101691842Y-122411707D01*
X74862000Y-122411707D01*
X74862000Y-120886871D01*
X100399201Y-120886871D01*
X100468813Y-121236829D01*
X100701893Y-121421758D01*
X101463491Y-120660160D01*
X103443389Y-120660160D01*
X104204987Y-121421758D01*
X104438067Y-121236829D01*
X104468390Y-120886871D01*
X105479201Y-120886871D01*
X105548813Y-121236829D01*
X105781893Y-121421758D01*
X106543491Y-120660160D01*
X108523389Y-120660160D01*
X109284987Y-121421758D01*
X109518067Y-121236829D01*
X109587679Y-120433449D01*
X109538259Y-120185000D01*
X116495921Y-120185000D01*
X116495921Y-122385000D01*
X116574506Y-122802641D01*
X116821331Y-123186219D01*
X117197944Y-123443548D01*
X117645000Y-123534079D01*
X119845000Y-123534079D01*
X120262641Y-123455494D01*
X120330233Y-123412000D01*
X125296869Y-123412000D01*
X125669981Y-123785764D01*
X126635165Y-124186543D01*
X127680250Y-124187455D01*
X128646132Y-123788361D01*
X129385764Y-123050019D01*
X129786543Y-122084835D01*
X129787455Y-121039750D01*
X129388361Y-120073868D01*
X128650019Y-119334236D01*
X127684835Y-118933457D01*
X126639750Y-118932545D01*
X126094107Y-119158000D01*
X120338228Y-119158000D01*
X120322000Y-119146912D01*
X120322000Y-117601405D01*
X120403548Y-117482056D01*
X120494079Y-117035000D01*
X120494079Y-116135000D01*
X120415494Y-115717359D01*
X120168669Y-115333781D01*
X119792056Y-115076452D01*
X119345000Y-114985921D01*
X118145000Y-114985921D01*
X117727359Y-115064506D01*
X117343781Y-115311331D01*
X117086452Y-115687944D01*
X116995921Y-116135000D01*
X116995921Y-117035000D01*
X117074506Y-117452641D01*
X117168000Y-117597935D01*
X117168000Y-119152702D01*
X116843781Y-119361331D01*
X116586452Y-119737944D01*
X116495921Y-120185000D01*
X109538259Y-120185000D01*
X109518067Y-120083491D01*
X109284987Y-119898562D01*
X108523389Y-120660160D01*
X106543491Y-120660160D01*
X105781893Y-119898562D01*
X105548813Y-120083491D01*
X105479201Y-120886871D01*
X104468390Y-120886871D01*
X104507679Y-120433449D01*
X104438067Y-120083491D01*
X104204987Y-119898562D01*
X103443389Y-120660160D01*
X101463491Y-120660160D01*
X100701893Y-119898562D01*
X100468813Y-120083491D01*
X100399201Y-120886871D01*
X74862000Y-120886871D01*
X74862000Y-118908613D01*
X101691842Y-118908613D01*
X102453440Y-119670211D01*
X103215038Y-118908613D01*
X106771842Y-118908613D01*
X107533440Y-119670211D01*
X108295038Y-118908613D01*
X108110109Y-118675533D01*
X107306729Y-118605921D01*
X106956771Y-118675533D01*
X106771842Y-118908613D01*
X103215038Y-118908613D01*
X103030109Y-118675533D01*
X102226729Y-118605921D01*
X101876771Y-118675533D01*
X101691842Y-118908613D01*
X74862000Y-118908613D01*
X74862000Y-112887166D01*
X75655186Y-113216526D01*
X76740054Y-113217472D01*
X77742703Y-112803186D01*
X78510490Y-112036738D01*
X78926526Y-111034814D01*
X78926530Y-111030054D01*
X93792528Y-111030054D01*
X94206814Y-112032703D01*
X94973262Y-112800490D01*
X95975186Y-113216526D01*
X97060054Y-113217472D01*
X98062703Y-112803186D01*
X98830490Y-112036738D01*
X99246526Y-111034814D01*
X99246793Y-110727707D01*
X101691842Y-110727707D01*
X101876771Y-110960787D01*
X102680151Y-111030399D01*
X103030109Y-110960787D01*
X103215038Y-110727707D01*
X106771842Y-110727707D01*
X106956771Y-110960787D01*
X107760151Y-111030399D01*
X108110109Y-110960787D01*
X108295038Y-110727707D01*
X107533440Y-109966109D01*
X106771842Y-110727707D01*
X103215038Y-110727707D01*
X102453440Y-109966109D01*
X101691842Y-110727707D01*
X99246793Y-110727707D01*
X99247472Y-109949946D01*
X98938787Y-109202871D01*
X100399201Y-109202871D01*
X100468813Y-109552829D01*
X100701893Y-109737758D01*
X101463491Y-108976160D01*
X103443389Y-108976160D01*
X104204987Y-109737758D01*
X104438067Y-109552829D01*
X104468390Y-109202871D01*
X105479201Y-109202871D01*
X105548813Y-109552829D01*
X105781893Y-109737758D01*
X106543491Y-108976160D01*
X108523389Y-108976160D01*
X109284987Y-109737758D01*
X109518067Y-109552829D01*
X109587679Y-108749449D01*
X109518067Y-108399491D01*
X109284987Y-108214562D01*
X108523389Y-108976160D01*
X106543491Y-108976160D01*
X105781893Y-108214562D01*
X105548813Y-108399491D01*
X105479201Y-109202871D01*
X104468390Y-109202871D01*
X104507679Y-108749449D01*
X104438067Y-108399491D01*
X104204987Y-108214562D01*
X103443389Y-108976160D01*
X101463491Y-108976160D01*
X100701893Y-108214562D01*
X100468813Y-108399491D01*
X100399201Y-109202871D01*
X98938787Y-109202871D01*
X98833186Y-108947297D01*
X98484118Y-108597619D01*
X98942154Y-108506510D01*
X99583539Y-108077950D01*
X100012099Y-107436565D01*
X100054258Y-107224613D01*
X101691842Y-107224613D01*
X102453440Y-107986211D01*
X103215038Y-107224613D01*
X106771842Y-107224613D01*
X107533440Y-107986211D01*
X108295038Y-107224613D01*
X108110109Y-106991533D01*
X107306729Y-106921921D01*
X106956771Y-106991533D01*
X106771842Y-107224613D01*
X103215038Y-107224613D01*
X103030109Y-106991533D01*
X102226729Y-106921921D01*
X101876771Y-106991533D01*
X101691842Y-107224613D01*
X100054258Y-107224613D01*
X100162589Y-106680000D01*
X100012099Y-105923435D01*
X99663002Y-105400975D01*
X99663002Y-104990000D01*
X99617000Y-104990000D01*
X99617000Y-104721750D01*
X99460250Y-104565000D01*
X98390000Y-104565000D01*
X98390000Y-104743660D01*
X98185589Y-104703000D01*
X97394411Y-104703000D01*
X97190000Y-104743660D01*
X97190000Y-104565000D01*
X96119750Y-104565000D01*
X95963000Y-104721750D01*
X95963000Y-104990000D01*
X95916998Y-104990000D01*
X95916998Y-105400975D01*
X95567901Y-105923435D01*
X95417411Y-106680000D01*
X95567901Y-107436565D01*
X95827728Y-107825423D01*
X94977297Y-108176814D01*
X94209510Y-108943262D01*
X93793474Y-109945186D01*
X93792528Y-111030054D01*
X78926530Y-111030054D01*
X78927472Y-109949946D01*
X78513186Y-108947297D01*
X77746738Y-108179510D01*
X76892648Y-107824860D01*
X77152099Y-107436565D01*
X77302589Y-106680000D01*
X77152099Y-105923435D01*
X76803002Y-105400975D01*
X76803002Y-104990000D01*
X76757000Y-104990000D01*
X76757000Y-104721750D01*
X76600250Y-104565000D01*
X75530000Y-104565000D01*
X75530000Y-104743660D01*
X75325589Y-104703000D01*
X74862000Y-104703000D01*
X74862000Y-103577000D01*
X75325589Y-103577000D01*
X75530000Y-103536340D01*
X75530000Y-103715000D01*
X76600250Y-103715000D01*
X76757000Y-103558250D01*
X76757000Y-103290000D01*
X76803002Y-103290000D01*
X76803002Y-102879025D01*
X77152099Y-102356565D01*
X77302589Y-101600000D01*
X77152099Y-100843435D01*
X76809033Y-100330000D01*
X77152099Y-99816565D01*
X77302589Y-99060000D01*
X77152099Y-98303435D01*
X76809033Y-97790000D01*
X77152099Y-97276565D01*
X77302589Y-96520000D01*
X77152099Y-95763435D01*
X76803002Y-95240975D01*
X76803002Y-94830000D01*
X76757000Y-94830000D01*
X76757000Y-94561750D01*
X76600250Y-94405000D01*
X75530000Y-94405000D01*
X75530000Y-94583660D01*
X75325589Y-94543000D01*
X74862000Y-94543000D01*
X74862000Y-93417000D01*
X75325589Y-93417000D01*
X75530000Y-93376340D01*
X75530000Y-93555000D01*
X76600250Y-93555000D01*
X76757000Y-93398250D01*
X76757000Y-93130000D01*
X76803002Y-93130000D01*
X76803002Y-92719025D01*
X77152099Y-92196565D01*
X77302589Y-91440000D01*
X77152099Y-90683435D01*
X76809033Y-90170000D01*
X77152099Y-89656565D01*
X77302589Y-88900000D01*
X77152099Y-88143435D01*
X76809033Y-87630000D01*
X77152099Y-87116565D01*
X77302589Y-86360000D01*
X77152099Y-85603435D01*
X76809033Y-85090000D01*
X77152099Y-84576565D01*
X77302589Y-83820000D01*
X77289063Y-83752000D01*
X91440000Y-83752000D01*
X91556111Y-83728904D01*
X91674499Y-83728904D01*
X92646515Y-83535558D01*
X92973919Y-83399942D01*
X93079812Y-83356080D01*
X93903847Y-82805477D01*
X94032324Y-82677000D01*
X95826109Y-82677000D01*
X95567901Y-83063435D01*
X95417411Y-83820000D01*
X95567901Y-84576565D01*
X95916998Y-85099025D01*
X95916998Y-85510000D01*
X95963000Y-85510000D01*
X95963000Y-85778250D01*
X96119750Y-85935000D01*
X97190000Y-85935000D01*
X97190000Y-85756340D01*
X97394411Y-85797000D01*
X98185589Y-85797000D01*
X98390000Y-85756340D01*
X98390000Y-85935000D01*
X99460250Y-85935000D01*
X99617000Y-85778250D01*
X99617000Y-85510000D01*
X99663002Y-85510000D01*
X99663002Y-85099025D01*
X100012099Y-84576565D01*
X100162589Y-83820000D01*
X100012099Y-83063435D01*
X99753891Y-82677000D01*
X100001252Y-82677000D01*
X100026408Y-82803469D01*
X100595870Y-83655730D01*
X101448131Y-84225192D01*
X102453440Y-84425160D01*
X107533440Y-84425160D01*
X108538749Y-84225192D01*
X109391010Y-83655730D01*
X109960472Y-82803469D01*
X110160440Y-81798160D01*
X109960472Y-80792851D01*
X109391010Y-79940590D01*
X108538749Y-79371128D01*
X107533440Y-79171160D01*
X102453440Y-79171160D01*
X101448131Y-79371128D01*
X101092000Y-79609087D01*
X101092000Y-77657000D01*
X101234063Y-77657000D01*
X101572944Y-77888548D01*
X102020000Y-77979079D01*
X103720000Y-77979079D01*
X104137641Y-77900494D01*
X104516042Y-77657000D01*
X104595000Y-77657000D01*
X105083687Y-77559794D01*
X105497975Y-77282975D01*
X105623950Y-77157000D01*
X105787240Y-77157000D01*
X106052944Y-77338548D01*
X106500000Y-77429079D01*
X107400000Y-77429079D01*
X107817641Y-77350494D01*
X108201219Y-77103669D01*
X108458548Y-76727056D01*
X108508765Y-76479079D01*
X109400000Y-76479079D01*
X109566752Y-76447702D01*
X110402025Y-77282976D01*
X110650373Y-77448916D01*
X110816313Y-77559794D01*
X111305000Y-77657000D01*
X111394063Y-77657000D01*
X111732944Y-77888548D01*
X111753000Y-77892609D01*
X111753000Y-83820000D01*
X111850206Y-84308687D01*
X112054542Y-84614497D01*
X112127025Y-84722975D01*
X113254971Y-85850921D01*
X112180000Y-85850921D01*
X111762359Y-85929506D01*
X111498957Y-86099000D01*
X111135737Y-86099000D01*
X110775093Y-85949248D01*
X110207397Y-85948752D01*
X109682725Y-86165543D01*
X109280953Y-86566614D01*
X109063248Y-87090907D01*
X109063021Y-87350921D01*
X108511619Y-87350921D01*
X108470494Y-87132359D01*
X108344922Y-86937215D01*
X108360752Y-86899093D01*
X108361248Y-86331397D01*
X108144457Y-85806725D01*
X107743386Y-85404953D01*
X107219093Y-85187248D01*
X106651397Y-85186752D01*
X106126725Y-85403543D01*
X105724953Y-85804614D01*
X105507248Y-86328907D01*
X105507050Y-86556099D01*
X105497975Y-86547025D01*
X105304720Y-86417896D01*
X105083687Y-86270206D01*
X104595000Y-86173000D01*
X104505937Y-86173000D01*
X104167056Y-85941452D01*
X103720000Y-85850921D01*
X102020000Y-85850921D01*
X101602359Y-85929506D01*
X101218781Y-86176331D01*
X100961452Y-86552944D01*
X100870921Y-87000000D01*
X100870921Y-87900000D01*
X100949506Y-88317641D01*
X101196331Y-88701219D01*
X101489949Y-88901840D01*
X101420487Y-88946537D01*
X100470975Y-87997025D01*
X100383666Y-87938687D01*
X100056687Y-87720206D01*
X99679125Y-87645104D01*
X99663002Y-87620974D01*
X99663002Y-87210000D01*
X99617000Y-87210000D01*
X99617000Y-86941750D01*
X99460250Y-86785000D01*
X98390000Y-86785000D01*
X98390000Y-86963660D01*
X98185589Y-86923000D01*
X97394411Y-86923000D01*
X97190000Y-86963660D01*
X97190000Y-86785000D01*
X96119750Y-86785000D01*
X95963000Y-86941750D01*
X95963000Y-87210000D01*
X95916998Y-87210000D01*
X95916998Y-87620975D01*
X95567901Y-88143435D01*
X95417411Y-88900000D01*
X95567901Y-89656565D01*
X95910967Y-90170000D01*
X95567901Y-90683435D01*
X95417411Y-91440000D01*
X95567901Y-92196565D01*
X95910967Y-92710000D01*
X95567901Y-93223435D01*
X95417411Y-93980000D01*
X95567901Y-94736565D01*
X95910967Y-95250000D01*
X95567901Y-95763435D01*
X95417411Y-96520000D01*
X95567901Y-97276565D01*
X95910967Y-97790000D01*
X95567901Y-98303435D01*
X95417411Y-99060000D01*
X95567901Y-99816565D01*
X95910967Y-100330000D01*
X95567901Y-100843435D01*
X95417411Y-101600000D01*
X95567901Y-102356565D01*
X95916998Y-102879025D01*
X95916998Y-103290000D01*
X95963000Y-103290000D01*
X95963000Y-103558250D01*
X96119750Y-103715000D01*
X97190000Y-103715000D01*
X97190000Y-103536340D01*
X97394411Y-103577000D01*
X98185589Y-103577000D01*
X98390000Y-103536340D01*
X98390000Y-103715000D01*
X99460250Y-103715000D01*
X99617000Y-103558250D01*
X99617000Y-103290000D01*
X99663002Y-103290000D01*
X99663002Y-102992953D01*
X100623025Y-103952976D01*
X100871373Y-104118916D01*
X101037313Y-104229794D01*
X101166965Y-104255584D01*
X101196331Y-104301219D01*
X101572944Y-104558548D01*
X102020000Y-104649079D01*
X103720000Y-104649079D01*
X104137641Y-104570494D01*
X104516042Y-104327000D01*
X104595000Y-104327000D01*
X105083687Y-104229794D01*
X105497975Y-103952975D01*
X105623950Y-103827000D01*
X105787240Y-103827000D01*
X106052944Y-104008548D01*
X106500000Y-104099079D01*
X107400000Y-104099079D01*
X107817641Y-104020494D01*
X108201219Y-103773669D01*
X108458548Y-103397056D01*
X108508765Y-103149079D01*
X109400000Y-103149079D01*
X109566752Y-103117702D01*
X110402025Y-103952976D01*
X110650373Y-104118916D01*
X110816313Y-104229794D01*
X111305000Y-104327000D01*
X111394063Y-104327000D01*
X111732944Y-104558548D01*
X111753000Y-104562609D01*
X111753000Y-106036252D01*
X111587725Y-106104543D01*
X111185953Y-106505614D01*
X110968248Y-107029907D01*
X110967752Y-107597603D01*
X111184543Y-108122275D01*
X111585614Y-108524047D01*
X112109907Y-108741752D01*
X112677603Y-108742248D01*
X113202275Y-108525457D01*
X113604047Y-108124386D01*
X113754928Y-107761022D01*
X113932976Y-107582975D01*
X114209795Y-107168686D01*
X114307000Y-106680000D01*
X114307000Y-104564472D01*
X114681219Y-104323669D01*
X114938548Y-103947056D01*
X115029079Y-103500000D01*
X115029079Y-102600000D01*
X114950494Y-102182359D01*
X114703669Y-101798781D01*
X114410051Y-101598160D01*
X114681219Y-101423669D01*
X114938548Y-101047056D01*
X115029079Y-100600000D01*
X115029079Y-99702000D01*
X115795489Y-99702000D01*
X115931130Y-99905000D01*
X115591541Y-100413230D01*
X115440016Y-101175000D01*
X115591541Y-101936770D01*
X116023049Y-102582567D01*
X116083550Y-102622993D01*
X116120984Y-102679016D01*
X116618000Y-103176032D01*
X116618000Y-107703968D01*
X110878968Y-113443000D01*
X110490000Y-113443000D01*
X109676032Y-113604908D01*
X108985984Y-114065984D01*
X108524908Y-114756032D01*
X108363000Y-115570000D01*
X108524908Y-116383968D01*
X108985984Y-117074016D01*
X109676032Y-117535092D01*
X110490000Y-117697000D01*
X111760000Y-117697000D01*
X112573968Y-117535092D01*
X113264016Y-117074016D01*
X116995921Y-113342111D01*
X116995921Y-113735000D01*
X117074506Y-114152641D01*
X117321331Y-114536219D01*
X117697944Y-114793548D01*
X118145000Y-114884079D01*
X119345000Y-114884079D01*
X119762641Y-114805494D01*
X120146219Y-114558669D01*
X120403548Y-114182056D01*
X120494079Y-113735000D01*
X120494079Y-112835000D01*
X120415494Y-112417359D01*
X120322000Y-112272065D01*
X120322000Y-110199955D01*
X120802480Y-109480866D01*
X120972000Y-108628630D01*
X120972000Y-108541370D01*
X120872000Y-108038635D01*
X120872000Y-102295000D01*
X120710092Y-101481032D01*
X120249016Y-100790984D01*
X119336559Y-99878527D01*
X119658459Y-99396770D01*
X119809984Y-98635000D01*
X119658459Y-97873230D01*
X119318870Y-97365000D01*
X119658459Y-96856770D01*
X119809984Y-96095000D01*
X119658459Y-95333230D01*
X119466271Y-95045600D01*
X119498002Y-95045600D01*
X119498002Y-94418600D01*
X118955842Y-94418600D01*
X119118974Y-94204667D01*
X119039424Y-93986800D01*
X118133000Y-93986800D01*
X118133000Y-94166782D01*
X117819384Y-94104400D01*
X117430616Y-94104400D01*
X117117000Y-94166782D01*
X117117000Y-93986800D01*
X116210576Y-93986800D01*
X116131026Y-94204667D01*
X116294158Y-94418600D01*
X115751998Y-94418600D01*
X115751998Y-95045600D01*
X115783729Y-95045600D01*
X115591541Y-95333230D01*
X115573685Y-95423000D01*
X114665937Y-95423000D01*
X114410051Y-95248160D01*
X114681219Y-95073669D01*
X114938548Y-94697056D01*
X115029079Y-94250000D01*
X115029079Y-93502083D01*
X115217603Y-93502248D01*
X115742275Y-93285457D01*
X116144047Y-92884386D01*
X116224181Y-92691400D01*
X116294158Y-92691400D01*
X116131026Y-92905333D01*
X116210576Y-93123200D01*
X117117000Y-93123200D01*
X117117000Y-92943218D01*
X117430616Y-93005600D01*
X117819384Y-93005600D01*
X118133000Y-92943218D01*
X118133000Y-93123200D01*
X119039424Y-93123200D01*
X119118974Y-92905333D01*
X118955842Y-92691400D01*
X119498002Y-92691400D01*
X119498002Y-92064400D01*
X119466271Y-92064400D01*
X119658459Y-91776770D01*
X119809984Y-91015000D01*
X119658459Y-90253230D01*
X119466271Y-89965600D01*
X119498002Y-89965600D01*
X119498002Y-89338600D01*
X119268000Y-89338600D01*
X119268000Y-89063550D01*
X119111250Y-88906800D01*
X118133000Y-88906800D01*
X118133000Y-89086782D01*
X117819384Y-89024400D01*
X117430616Y-89024400D01*
X117117000Y-89086782D01*
X117117000Y-88906800D01*
X116609000Y-88906800D01*
X116609000Y-88043200D01*
X117117000Y-88043200D01*
X117117000Y-87141150D01*
X118133000Y-87141150D01*
X118133000Y-88043200D01*
X119111250Y-88043200D01*
X119268000Y-87886450D01*
X119268000Y-87486682D01*
X119172545Y-87256233D01*
X118996167Y-87079855D01*
X118765718Y-86984400D01*
X118289750Y-86984400D01*
X118133000Y-87141150D01*
X117117000Y-87141150D01*
X116960250Y-86984400D01*
X116609000Y-86984400D01*
X116609000Y-86601998D01*
X116212000Y-86601998D01*
X116212000Y-85725000D01*
X123893000Y-85725000D01*
X123893000Y-111125000D01*
X123916096Y-111241111D01*
X123916096Y-111359499D01*
X124012769Y-111845506D01*
X124192246Y-112278802D01*
X124467547Y-112690820D01*
X124467548Y-112690821D01*
X124467549Y-112690823D01*
X124799177Y-113022451D01*
X124799179Y-113022452D01*
X124799180Y-113022453D01*
X125211197Y-113297754D01*
X125390674Y-113372095D01*
X125644493Y-113477231D01*
X126130501Y-113573904D01*
X126248889Y-113573904D01*
X126365000Y-113597000D01*
X127036656Y-113597000D01*
X126529510Y-114103262D01*
X126113474Y-115105186D01*
X126112528Y-116190054D01*
X126526814Y-117192703D01*
X127293262Y-117960490D01*
X128295186Y-118376526D01*
X129380054Y-118377472D01*
X130243000Y-118020910D01*
X130243000Y-121920000D01*
X130266096Y-122036111D01*
X130266096Y-122154499D01*
X130362769Y-122640506D01*
X130542246Y-123073802D01*
X130817547Y-123485820D01*
X130817548Y-123485821D01*
X130817549Y-123485823D01*
X131149177Y-123817451D01*
X131149179Y-123817452D01*
X131149180Y-123817453D01*
X131561197Y-124092754D01*
X131740674Y-124167095D01*
X131994493Y-124272231D01*
X132480501Y-124368904D01*
X132598889Y-124368904D01*
X132715000Y-124392000D01*
X140970000Y-124392000D01*
X141086111Y-124368904D01*
X141204499Y-124368904D01*
X141690506Y-124272231D01*
X142123802Y-124092754D01*
X142535820Y-123817453D01*
X142535821Y-123817452D01*
X142535823Y-123817451D01*
X142867451Y-123485823D01*
X142867452Y-123485821D01*
X142867453Y-123485820D01*
X143142754Y-123073803D01*
X143230485Y-122862000D01*
X143322231Y-122640507D01*
X143356793Y-122466750D01*
X145033000Y-122466750D01*
X145033000Y-123184718D01*
X145128455Y-123415167D01*
X145304833Y-123591545D01*
X145535282Y-123687000D01*
X146253250Y-123687000D01*
X146410000Y-123530250D01*
X146410000Y-122310000D01*
X147910000Y-122310000D01*
X147910000Y-123530250D01*
X148066750Y-123687000D01*
X148784718Y-123687000D01*
X149015167Y-123591545D01*
X149191545Y-123415167D01*
X149287000Y-123184718D01*
X149287000Y-122466750D01*
X149130250Y-122310000D01*
X147910000Y-122310000D01*
X146410000Y-122310000D01*
X145189750Y-122310000D01*
X145033000Y-122466750D01*
X143356793Y-122466750D01*
X143418904Y-122154499D01*
X143418904Y-122036111D01*
X143442000Y-121920000D01*
X143442000Y-119935282D01*
X145033000Y-119935282D01*
X145033000Y-120653250D01*
X145189750Y-120810000D01*
X146410000Y-120810000D01*
X146410000Y-119589750D01*
X147910000Y-119589750D01*
X147910000Y-120810000D01*
X149130250Y-120810000D01*
X149287000Y-120653250D01*
X149287000Y-119935282D01*
X149191545Y-119704833D01*
X149015167Y-119528455D01*
X148784718Y-119433000D01*
X148066750Y-119433000D01*
X147910000Y-119589750D01*
X146410000Y-119589750D01*
X146253250Y-119433000D01*
X145535282Y-119433000D01*
X145304833Y-119528455D01*
X145128455Y-119704833D01*
X145033000Y-119935282D01*
X143442000Y-119935282D01*
X143442000Y-113783388D01*
X143468933Y-113647988D01*
X143478568Y-113633567D01*
X143492987Y-113623933D01*
X143628387Y-113597000D01*
X147955000Y-113597000D01*
X148071111Y-113573904D01*
X148189499Y-113573904D01*
X148675506Y-113477231D01*
X149108802Y-113297754D01*
X149520820Y-113022453D01*
X149520821Y-113022452D01*
X149520823Y-113022451D01*
X149852451Y-112690823D01*
X149852452Y-112690821D01*
X149852453Y-112690820D01*
X150127754Y-112278803D01*
X150202157Y-112099177D01*
X150307231Y-111845507D01*
X150403904Y-111359499D01*
X150403904Y-111241111D01*
X150427000Y-111125000D01*
X150427000Y-87486682D01*
X168557000Y-87486682D01*
X168557000Y-87886450D01*
X168713750Y-88043200D01*
X169692000Y-88043200D01*
X169692000Y-87141150D01*
X169535250Y-86984400D01*
X169059282Y-86984400D01*
X168828833Y-87079855D01*
X168652455Y-87256233D01*
X168557000Y-87486682D01*
X150427000Y-87486682D01*
X150427000Y-85725000D01*
X150403904Y-85608889D01*
X150403904Y-85490501D01*
X150307231Y-85004493D01*
X150168859Y-84670434D01*
X150127754Y-84571197D01*
X149852453Y-84159180D01*
X149852451Y-84159178D01*
X149852451Y-84159177D01*
X149520823Y-83827549D01*
X149520821Y-83827548D01*
X149520820Y-83827547D01*
X149108802Y-83552246D01*
X148675506Y-83372769D01*
X148189499Y-83276096D01*
X148098032Y-83276096D01*
X148206526Y-83014814D01*
X148207472Y-81929946D01*
X147793186Y-80927297D01*
X147026738Y-80159510D01*
X146024814Y-79743474D01*
X144939946Y-79742528D01*
X144077000Y-80099090D01*
X144077000Y-77466750D01*
X145033000Y-77466750D01*
X145033000Y-78184718D01*
X145128455Y-78415167D01*
X145304833Y-78591545D01*
X145535282Y-78687000D01*
X146253250Y-78687000D01*
X146410000Y-78530250D01*
X146410000Y-77310000D01*
X147910000Y-77310000D01*
X147910000Y-78530250D01*
X148066750Y-78687000D01*
X148784718Y-78687000D01*
X149015167Y-78591545D01*
X149191545Y-78415167D01*
X149287000Y-78184718D01*
X149287000Y-77466750D01*
X149130250Y-77310000D01*
X147910000Y-77310000D01*
X146410000Y-77310000D01*
X145189750Y-77310000D01*
X145033000Y-77466750D01*
X144077000Y-77466750D01*
X144077000Y-76200000D01*
X144053904Y-76083889D01*
X144053904Y-75965501D01*
X143957231Y-75479493D01*
X143811961Y-75128781D01*
X143777754Y-75046197D01*
X143703643Y-74935282D01*
X145033000Y-74935282D01*
X145033000Y-75653250D01*
X145189750Y-75810000D01*
X146410000Y-75810000D01*
X146410000Y-74589750D01*
X147910000Y-74589750D01*
X147910000Y-75810000D01*
X149130250Y-75810000D01*
X149287000Y-75653250D01*
X149287000Y-74935282D01*
X149191545Y-74704833D01*
X149015167Y-74528455D01*
X148784718Y-74433000D01*
X148066750Y-74433000D01*
X147910000Y-74589750D01*
X146410000Y-74589750D01*
X146253250Y-74433000D01*
X145535282Y-74433000D01*
X145304833Y-74528455D01*
X145128455Y-74704833D01*
X145033000Y-74935282D01*
X143703643Y-74935282D01*
X143502453Y-74634180D01*
X143502451Y-74634178D01*
X143502451Y-74634177D01*
X143170823Y-74302549D01*
X143170821Y-74302548D01*
X143170820Y-74302547D01*
X142758802Y-74027246D01*
X142325506Y-73847769D01*
X141839499Y-73751096D01*
X141721111Y-73751096D01*
X141605000Y-73728000D01*
X133985000Y-73728000D01*
X133868889Y-73751096D01*
X133750501Y-73751096D01*
X133264493Y-73847769D01*
X133010674Y-73952905D01*
X132831197Y-74027246D01*
X132419180Y-74302547D01*
X132419179Y-74302548D01*
X132419177Y-74302549D01*
X132087549Y-74634177D01*
X132087549Y-74634178D01*
X132087547Y-74634180D01*
X131812246Y-75046198D01*
X131657956Y-75418687D01*
X131632769Y-75479494D01*
X131536096Y-75965501D01*
X131536096Y-76083889D01*
X131513000Y-76200000D01*
X131513000Y-83066613D01*
X131486067Y-83202013D01*
X131476433Y-83216432D01*
X131462012Y-83226067D01*
X131326612Y-83253000D01*
X126365000Y-83253000D01*
X126248889Y-83276096D01*
X126130501Y-83276096D01*
X125644493Y-83372769D01*
X125390674Y-83477905D01*
X125211197Y-83552246D01*
X124799180Y-83827547D01*
X124799179Y-83827548D01*
X124799177Y-83827549D01*
X124467549Y-84159177D01*
X124467549Y-84159178D01*
X124467547Y-84159180D01*
X124192246Y-84571198D01*
X124049845Y-84914985D01*
X124012769Y-85004494D01*
X123916096Y-85490501D01*
X123916096Y-85608889D01*
X123893000Y-85725000D01*
X116212000Y-85725000D01*
X116114794Y-85236313D01*
X115837975Y-84822025D01*
X114307000Y-83291050D01*
X114307000Y-77894472D01*
X114681219Y-77653669D01*
X114938548Y-77277056D01*
X114978402Y-77080250D01*
X124532545Y-77080250D01*
X124931639Y-78046132D01*
X125669981Y-78785764D01*
X126635165Y-79186543D01*
X127680250Y-79187455D01*
X128646132Y-78788361D01*
X129385764Y-78050019D01*
X129786543Y-77084835D01*
X129787455Y-76039750D01*
X129388361Y-75073868D01*
X128650019Y-74334236D01*
X127684835Y-73933457D01*
X126639750Y-73932545D01*
X125673868Y-74331639D01*
X124934236Y-75069981D01*
X124533457Y-76035165D01*
X124532545Y-77080250D01*
X114978402Y-77080250D01*
X115029079Y-76830000D01*
X115029079Y-75930000D01*
X114950494Y-75512359D01*
X114703669Y-75128781D01*
X114410051Y-74928160D01*
X114681219Y-74753669D01*
X114938548Y-74377056D01*
X115029079Y-73930000D01*
X115029079Y-73030000D01*
X114950494Y-72612359D01*
X114703669Y-72228781D01*
X114327056Y-71971452D01*
X113880000Y-71880921D01*
X112180000Y-71880921D01*
X111762359Y-71959506D01*
X111498957Y-72129000D01*
X111135737Y-72129000D01*
X110775093Y-71979248D01*
X110207397Y-71978752D01*
X109682725Y-72195543D01*
X109280953Y-72596614D01*
X109063248Y-73120907D01*
X109063021Y-73380921D01*
X108511619Y-73380921D01*
X108470494Y-73162359D01*
X108223669Y-72778781D01*
X107847056Y-72521452D01*
X107400000Y-72430921D01*
X106500000Y-72430921D01*
X106082359Y-72509506D01*
X105781660Y-72703000D01*
X105623950Y-72703000D01*
X105497975Y-72577025D01*
X105207598Y-72383001D01*
X105083687Y-72300206D01*
X104595000Y-72203000D01*
X104505937Y-72203000D01*
X104167056Y-71971452D01*
X103720000Y-71880921D01*
X102020000Y-71880921D01*
X101602359Y-71959506D01*
X101218781Y-72206331D01*
X101184844Y-72256000D01*
X101092000Y-72256000D01*
X101092000Y-70523536D01*
X101450671Y-70763192D01*
X102455980Y-70963160D01*
X107535980Y-70963160D01*
X108541289Y-70763192D01*
X109393550Y-70193730D01*
X109963012Y-69341469D01*
X110162980Y-68336160D01*
X109963012Y-67330851D01*
X109393550Y-66478590D01*
X108541289Y-65909128D01*
X107535980Y-65709160D01*
X102455980Y-65709160D01*
X101450671Y-65909128D01*
X101092000Y-66148784D01*
X101092000Y-64702000D01*
X135060802Y-64702000D01*
X134347297Y-64996814D01*
X134347297Y-64996814D01*
G37*
X134347297Y-64996814D02*
X133579510Y-65763262D01*
X133163474Y-66765186D01*
X133162528Y-67850054D01*
X133576814Y-68852703D01*
X134343262Y-69620490D01*
X135345186Y-70036526D01*
X136430054Y-70037472D01*
X137432703Y-69623186D01*
X138200490Y-68856738D01*
X138616526Y-67854814D01*
X138617472Y-66769946D01*
X138203186Y-65767297D01*
X137436738Y-64999510D01*
X136720256Y-64702000D01*
X168080802Y-64702000D01*
X167367297Y-64996814D01*
X166599510Y-65763262D01*
X166183474Y-66765186D01*
X166182528Y-67850054D01*
X166596814Y-68852703D01*
X167363262Y-69620490D01*
X168365186Y-70036526D01*
X169450054Y-70037472D01*
X170452703Y-69623186D01*
X171220490Y-68856738D01*
X171518000Y-68140256D01*
X171518000Y-86601998D01*
X171216000Y-86601998D01*
X171216000Y-86984400D01*
X170864750Y-86984400D01*
X170708000Y-87141150D01*
X170708000Y-88043200D01*
X171216000Y-88043200D01*
X171216000Y-88906800D01*
X170708000Y-88906800D01*
X170708000Y-89086782D01*
X170394384Y-89024400D01*
X170005616Y-89024400D01*
X169692000Y-89086782D01*
X169692000Y-88906800D01*
X168713750Y-88906800D01*
X168557000Y-89063550D01*
X168557000Y-89338600D01*
X168326998Y-89338600D01*
X168326998Y-89965600D01*
X168358729Y-89965600D01*
X168166541Y-90253230D01*
X168015016Y-91015000D01*
X168166541Y-91776770D01*
X168506130Y-92285000D01*
X168166541Y-92793230D01*
X168015016Y-93555000D01*
X168166541Y-94316770D01*
X168506130Y-94825000D01*
X168166541Y-95333230D01*
X168015016Y-96095000D01*
X168166541Y-96856770D01*
X168506130Y-97365000D01*
X168166541Y-97873230D01*
X168015016Y-98635000D01*
X168166541Y-99396770D01*
X168506130Y-99905000D01*
X168166541Y-100413230D01*
X168015016Y-101175000D01*
X168166541Y-101936770D01*
X168598049Y-102582567D01*
X169243846Y-103014075D01*
X170005616Y-103165600D01*
X170394384Y-103165600D01*
X171156154Y-103014075D01*
X171518000Y-102772297D01*
X171518000Y-125951998D01*
X171216000Y-125951998D01*
X171216000Y-126334400D01*
X170864750Y-126334400D01*
X170708000Y-126491150D01*
X170708000Y-127393200D01*
X171216000Y-127393200D01*
X171216000Y-128256800D01*
X170708000Y-128256800D01*
X170708000Y-128436782D01*
X170394384Y-128374400D01*
X170005616Y-128374400D01*
X169692000Y-128436782D01*
X169692000Y-128256800D01*
X168713750Y-128256800D01*
X168557000Y-128413550D01*
X168557000Y-128688600D01*
X168326998Y-128688600D01*
X168326998Y-129315600D01*
X168358729Y-129315600D01*
X168166541Y-129603230D01*
X168015016Y-130365000D01*
X168166541Y-131126770D01*
X168506130Y-131635000D01*
X168166541Y-132143230D01*
X168015016Y-132905000D01*
X168166541Y-133666770D01*
X168506130Y-134175000D01*
X168166541Y-134683230D01*
X168015016Y-135445000D01*
X168166541Y-136206770D01*
X168506130Y-136715000D01*
X168166541Y-137223230D01*
X168015016Y-137985000D01*
X168166541Y-138746770D01*
X168506130Y-139255000D01*
X168166541Y-139763230D01*
X168015016Y-140525000D01*
X168166541Y-141286770D01*
X168598049Y-141932567D01*
X169243846Y-142364075D01*
X170005616Y-142515600D01*
X170394384Y-142515600D01*
X171156154Y-142364075D01*
X171518000Y-142122297D01*
X171518000Y-159901612D01*
X171394395Y-160523019D01*
X171109457Y-160949457D01*
X170683019Y-161234395D01*
X170061613Y-161358000D01*
X165488712Y-161358000D01*
X165591545Y-161255167D01*
X165687000Y-161024718D01*
X165687000Y-159806750D01*
X165530250Y-159650000D01*
X163810000Y-159650000D01*
X163810000Y-160293000D01*
X161310000Y-160293000D01*
X161310000Y-159650000D01*
X159589750Y-159650000D01*
X159433000Y-159806750D01*
X159433000Y-161024718D01*
X159528455Y-161255167D01*
X159631288Y-161358000D01*
X150248712Y-161358000D01*
X150351545Y-161255167D01*
X150447000Y-161024718D01*
X150447000Y-159806750D01*
X150290250Y-159650000D01*
X148570000Y-159650000D01*
X148570000Y-160293000D01*
X146070000Y-160293000D01*
X146070000Y-159650000D01*
X144349750Y-159650000D01*
X144193000Y-159806750D01*
X144193000Y-161024718D01*
X144288455Y-161255167D01*
X144391288Y-161358000D01*
X136719198Y-161358000D01*
X137432703Y-161063186D01*
X138200490Y-160296738D01*
X138616526Y-159294814D01*
X138617472Y-158209946D01*
X138203186Y-157207297D01*
X137436738Y-156439510D01*
X136434814Y-156023474D01*
X135349946Y-156022528D01*
X134347297Y-156436814D01*
X133579510Y-157203262D01*
X133163474Y-158205186D01*
X133162528Y-159290054D01*
X133576814Y-160292703D01*
X134343262Y-161060490D01*
X135059744Y-161358000D01*
X78299198Y-161358000D01*
X79012703Y-161063186D01*
X79780490Y-160296738D01*
X80196526Y-159294814D01*
X80197472Y-158209946D01*
X79783186Y-157207297D01*
X79016738Y-156439510D01*
X78014814Y-156023474D01*
X76929946Y-156022528D01*
X75927297Y-156436814D01*
X75159510Y-157203262D01*
X74862000Y-157919744D01*
X74862000Y-154139250D01*
X85503000Y-154139250D01*
X85503000Y-154419718D01*
X85598455Y-154650167D01*
X85774833Y-154826545D01*
X86005282Y-154922000D01*
X86223250Y-154922000D01*
X86380000Y-154765250D01*
X86380000Y-153982500D01*
X85659750Y-153982500D01*
X85503000Y-154139250D01*
X74862000Y-154139250D01*
X74862000Y-152920282D01*
X85503000Y-152920282D01*
X85503000Y-153200750D01*
X85659750Y-153357500D01*
X86380000Y-153357500D01*
X86380000Y-152574750D01*
X86223250Y-152418000D01*
X86005282Y-152418000D01*
X85774833Y-152513455D01*
X85598455Y-152689833D01*
X85503000Y-152920282D01*
X74862000Y-152920282D01*
X74862000Y-149146750D01*
X85003000Y-149146750D01*
X85003000Y-149514718D01*
X85098455Y-149745167D01*
X85274833Y-149921545D01*
X85505282Y-150017000D01*
X85723250Y-150017000D01*
X85880000Y-149860250D01*
X85880000Y-148990000D01*
X86380000Y-148990000D01*
X86380000Y-149860250D01*
X86536750Y-150017000D01*
X86754718Y-150017000D01*
X86985167Y-149921545D01*
X87161545Y-149745167D01*
X87257000Y-149514718D01*
X87257000Y-149146750D01*
X87100250Y-148990000D01*
X86380000Y-148990000D01*
X85880000Y-148990000D01*
X85159750Y-148990000D01*
X85003000Y-149146750D01*
X74862000Y-149146750D01*
X74862000Y-147665282D01*
X85003000Y-147665282D01*
X85003000Y-148033250D01*
X85159750Y-148190000D01*
X85880000Y-148190000D01*
X85880000Y-147319750D01*
X86380000Y-147319750D01*
X86380000Y-148190000D01*
X87100250Y-148190000D01*
X87257000Y-148033250D01*
X87257000Y-147665282D01*
X87161545Y-147434833D01*
X86985167Y-147258455D01*
X86754718Y-147163000D01*
X86536750Y-147163000D01*
X86380000Y-147319750D01*
X85880000Y-147319750D01*
X85723250Y-147163000D01*
X85505282Y-147163000D01*
X85274833Y-147258455D01*
X85098455Y-147434833D01*
X85003000Y-147665282D01*
X74862000Y-147665282D01*
X74862000Y-142846750D01*
X84833000Y-142846750D01*
X84833000Y-143264718D01*
X84928455Y-143495167D01*
X85104833Y-143671545D01*
X85335282Y-143767000D01*
X85753250Y-143767000D01*
X85910000Y-143610250D01*
X85910000Y-142690000D01*
X84989750Y-142690000D01*
X84833000Y-142846750D01*
X74862000Y-142846750D01*
X74862000Y-141215282D01*
X84833000Y-141215282D01*
X84833000Y-141633250D01*
X84989750Y-141790000D01*
X85910000Y-141790000D01*
X85910000Y-140869750D01*
X85753250Y-140713000D01*
X85335282Y-140713000D01*
X85104833Y-140808455D01*
X84928455Y-140984833D01*
X84833000Y-141215282D01*
X74862000Y-141215282D01*
X74862000Y-137156750D01*
X85223000Y-137156750D01*
X85223000Y-137624718D01*
X85318455Y-137855167D01*
X85494833Y-138031545D01*
X85725282Y-138127000D01*
X86068250Y-138127000D01*
X86225000Y-137970250D01*
X86225000Y-137000000D01*
X85379750Y-137000000D01*
X85223000Y-137156750D01*
X74862000Y-137156750D01*
X74862000Y-135375282D01*
X85223000Y-135375282D01*
X85223000Y-135843250D01*
X85379750Y-136000000D01*
X86225000Y-136000000D01*
X86225000Y-135029750D01*
X86068250Y-134873000D01*
X85725282Y-134873000D01*
X85494833Y-134968455D01*
X85318455Y-135144833D01*
X85223000Y-135375282D01*
X74862000Y-135375282D01*
X74862000Y-129200000D01*
X85850921Y-129200000D01*
X85850921Y-131200000D01*
X85929506Y-131617641D01*
X86176331Y-132001219D01*
X86552944Y-132258548D01*
X87000000Y-132349079D01*
X87323000Y-132349079D01*
X87323000Y-134714063D01*
X87214403Y-134873000D01*
X87131750Y-134873000D01*
X86975000Y-135029750D01*
X86975000Y-136000000D01*
X87000921Y-136000000D01*
X87000921Y-137000000D01*
X86975000Y-137000000D01*
X86975000Y-137970250D01*
X87131750Y-138127000D01*
X87214224Y-138127000D01*
X87323000Y-138296042D01*
X87323000Y-140366998D01*
X87260000Y-140366998D01*
X87260000Y-140713000D01*
X86966750Y-140713000D01*
X86810000Y-140869750D01*
X86810000Y-141790000D01*
X86922799Y-141790000D01*
X86833289Y-142240000D01*
X86922799Y-142690000D01*
X86810000Y-142690000D01*
X86810000Y-143610250D01*
X86966750Y-143767000D01*
X87260000Y-143767000D01*
X87260000Y-144113002D01*
X87553000Y-144113002D01*
X87553000Y-147434063D01*
X87480921Y-147790000D01*
X87480921Y-149390000D01*
X87553000Y-149773065D01*
X87553000Y-150246786D01*
X87514893Y-150284893D01*
X87173042Y-150796508D01*
X87053000Y-151400000D01*
X87053000Y-152418000D01*
X87036750Y-152418000D01*
X86880000Y-152574750D01*
X86880000Y-153357500D01*
X86980921Y-153357500D01*
X86980921Y-153982500D01*
X86880000Y-153982500D01*
X86880000Y-154765250D01*
X87036750Y-154922000D01*
X87130000Y-154922000D01*
X87130000Y-155543002D01*
X87757000Y-155543002D01*
X87757000Y-155368545D01*
X88130000Y-155444079D01*
X89130000Y-155444079D01*
X89547641Y-155365494D01*
X89931219Y-155118669D01*
X90188548Y-154742056D01*
X90279079Y-154295000D01*
X90279079Y-153045000D01*
X90207000Y-152661935D01*
X90207000Y-152053215D01*
X90245108Y-152015107D01*
X90450032Y-151708416D01*
X90586958Y-151503492D01*
X90707000Y-150900000D01*
X90707000Y-149745937D01*
X90779079Y-149390000D01*
X90779079Y-147790000D01*
X90740348Y-147584160D01*
X99826440Y-147584160D01*
X100026408Y-148589469D01*
X100595870Y-149441730D01*
X101448131Y-150011192D01*
X102453440Y-150211160D01*
X107533440Y-150211160D01*
X108538749Y-150011192D01*
X109391010Y-149441730D01*
X109960472Y-148589469D01*
X110018139Y-148299556D01*
X144193000Y-148299556D01*
X144193000Y-152500444D01*
X144431029Y-153697095D01*
X145108877Y-154711567D01*
X145949122Y-155273000D01*
X144695282Y-155273000D01*
X144464833Y-155368455D01*
X144288455Y-155544833D01*
X144193000Y-155775282D01*
X144193000Y-156993250D01*
X144349750Y-157150000D01*
X146070000Y-157150000D01*
X146070000Y-156507000D01*
X148570000Y-156507000D01*
X148570000Y-157150000D01*
X149393000Y-157150000D01*
X149393000Y-157524718D01*
X149488455Y-157755167D01*
X149664833Y-157931545D01*
X149895282Y-158027000D01*
X150863250Y-158027000D01*
X151020000Y-157870250D01*
X151020000Y-156400000D01*
X153020000Y-156400000D01*
X153020000Y-157870250D01*
X153176750Y-158027000D01*
X154144718Y-158027000D01*
X154375167Y-157931545D01*
X154551545Y-157755167D01*
X154647000Y-157524718D01*
X154647000Y-156556750D01*
X155233000Y-156556750D01*
X155233000Y-157524718D01*
X155328455Y-157755167D01*
X155504833Y-157931545D01*
X155735282Y-158027000D01*
X156703250Y-158027000D01*
X156860000Y-157870250D01*
X156860000Y-156400000D01*
X155389750Y-156400000D01*
X155233000Y-156556750D01*
X154647000Y-156556750D01*
X154490250Y-156400000D01*
X153020000Y-156400000D01*
X151020000Y-156400000D01*
X150447000Y-156400000D01*
X150447000Y-155775282D01*
X150351545Y-155544833D01*
X150175167Y-155368455D01*
X150127000Y-155348504D01*
X150127000Y-154400000D01*
X151020000Y-154400000D01*
X151020000Y-152929750D01*
X153020000Y-152929750D01*
X153020000Y-154400000D01*
X154490250Y-154400000D01*
X154647000Y-154243250D01*
X154647000Y-153275282D01*
X155233000Y-153275282D01*
X155233000Y-154243250D01*
X155389750Y-154400000D01*
X156860000Y-154400000D01*
X156860000Y-152929750D01*
X158860000Y-152929750D01*
X158860000Y-154400000D01*
X159753000Y-154400000D01*
X159753000Y-155348504D01*
X159704833Y-155368455D01*
X159528455Y-155544833D01*
X159433000Y-155775282D01*
X159433000Y-156400000D01*
X158860000Y-156400000D01*
X158860000Y-157870250D01*
X159016750Y-158027000D01*
X159984718Y-158027000D01*
X160215167Y-157931545D01*
X160391545Y-157755167D01*
X160487000Y-157524718D01*
X160487000Y-157150000D01*
X161310000Y-157150000D01*
X161310000Y-156507000D01*
X163810000Y-156507000D01*
X163810000Y-157150000D01*
X165530250Y-157150000D01*
X165687000Y-156993250D01*
X165687000Y-155775282D01*
X165591545Y-155544833D01*
X165415167Y-155368455D01*
X165184718Y-155273000D01*
X163930878Y-155273000D01*
X164771123Y-154711567D01*
X165448971Y-153697095D01*
X165687000Y-152500444D01*
X165687000Y-148299556D01*
X165448971Y-147102905D01*
X164771123Y-146088433D01*
X163756651Y-145410585D01*
X162560000Y-145172556D01*
X161363349Y-145410585D01*
X160348877Y-146088433D01*
X159671029Y-147102905D01*
X159433000Y-148299556D01*
X159433000Y-152500444D01*
X159487215Y-152773000D01*
X159016750Y-152773000D01*
X158860000Y-152929750D01*
X156860000Y-152929750D01*
X156703250Y-152773000D01*
X155735282Y-152773000D01*
X155504833Y-152868455D01*
X155328455Y-153044833D01*
X155233000Y-153275282D01*
X154647000Y-153275282D01*
X154551545Y-153044833D01*
X154375167Y-152868455D01*
X154144718Y-152773000D01*
X153176750Y-152773000D01*
X153020000Y-152929750D01*
X151020000Y-152929750D01*
X150863250Y-152773000D01*
X150392785Y-152773000D01*
X150447000Y-152500444D01*
X150447000Y-148299556D01*
X150208971Y-147102905D01*
X149531123Y-146088433D01*
X148516651Y-145410585D01*
X147320000Y-145172556D01*
X146123349Y-145410585D01*
X145108877Y-146088433D01*
X144431029Y-147102905D01*
X144193000Y-148299556D01*
X110018139Y-148299556D01*
X110160440Y-147584160D01*
X109960472Y-146578851D01*
X109391010Y-145726590D01*
X108538749Y-145157128D01*
X107533440Y-144957160D01*
X102453440Y-144957160D01*
X101448131Y-145157128D01*
X100595870Y-145726590D01*
X100026408Y-146578851D01*
X99826440Y-147584160D01*
X90740348Y-147584160D01*
X90707000Y-147406935D01*
X90707000Y-144129096D01*
X91400289Y-144267000D01*
X91479711Y-144267000D01*
X92255410Y-144112704D01*
X92913016Y-143673305D01*
X93352415Y-143015699D01*
X93506711Y-142240000D01*
X93352415Y-141464301D01*
X93017000Y-140962318D01*
X93017000Y-137905319D01*
X93099079Y-137500000D01*
X93099079Y-136172603D01*
X110967752Y-136172603D01*
X111184543Y-136697275D01*
X111585614Y-137099047D01*
X112109907Y-137316752D01*
X112677603Y-137317248D01*
X112817935Y-137259264D01*
X112455953Y-137620614D01*
X112238248Y-138144907D01*
X112237752Y-138712603D01*
X112454543Y-139237275D01*
X112855614Y-139639047D01*
X113379907Y-139856752D01*
X113947603Y-139857248D01*
X114311229Y-139707000D01*
X115645817Y-139707000D01*
X115591541Y-139788230D01*
X115440016Y-140550000D01*
X115591541Y-141311770D01*
X116023049Y-141957567D01*
X116083550Y-141997993D01*
X116120984Y-142054016D01*
X116811032Y-142515092D01*
X117625000Y-142677000D01*
X142660000Y-142677000D01*
X143473968Y-142515092D01*
X144164016Y-142054016D01*
X151364016Y-134854016D01*
X151825092Y-134163967D01*
X151987000Y-133350000D01*
X151825092Y-132536032D01*
X151364016Y-131845984D01*
X150673968Y-131384908D01*
X149860000Y-131223000D01*
X149046033Y-131384908D01*
X148355984Y-131845984D01*
X141778968Y-138423000D01*
X119727833Y-138423000D01*
X119809984Y-138010000D01*
X119658459Y-137248230D01*
X119318870Y-136740000D01*
X119658459Y-136231770D01*
X119809984Y-135470000D01*
X119658459Y-134708230D01*
X119466271Y-134420600D01*
X119498002Y-134420600D01*
X119498002Y-133793600D01*
X118955842Y-133793600D01*
X119118974Y-133579667D01*
X119039424Y-133361800D01*
X118133000Y-133361800D01*
X118133000Y-133541782D01*
X117819384Y-133479400D01*
X117430616Y-133479400D01*
X117117000Y-133541782D01*
X117117000Y-133361800D01*
X116210576Y-133361800D01*
X116131026Y-133579667D01*
X116294158Y-133793600D01*
X115751998Y-133793600D01*
X115751998Y-134420600D01*
X115783730Y-134420600D01*
X115655172Y-134613000D01*
X113040737Y-134613000D01*
X112680093Y-134463248D01*
X112112397Y-134462752D01*
X111587725Y-134679543D01*
X111185953Y-135080614D01*
X110968248Y-135604907D01*
X110967752Y-136172603D01*
X93099079Y-136172603D01*
X93099079Y-135500000D01*
X93020494Y-135082359D01*
X92773669Y-134698781D01*
X92397056Y-134441452D01*
X91950000Y-134350921D01*
X90477000Y-134350921D01*
X90477000Y-132349079D01*
X90800000Y-132349079D01*
X91217641Y-132270494D01*
X91601219Y-132023669D01*
X91858548Y-131647056D01*
X91949079Y-131200000D01*
X91949079Y-131092603D01*
X113507752Y-131092603D01*
X113724543Y-131617275D01*
X114125614Y-132019047D01*
X114649907Y-132236752D01*
X115217603Y-132237248D01*
X115581229Y-132087000D01*
X116278450Y-132087000D01*
X116131026Y-132280333D01*
X116210576Y-132498200D01*
X117117000Y-132498200D01*
X117117000Y-132318218D01*
X117430616Y-132380600D01*
X117819384Y-132380600D01*
X118133000Y-132318218D01*
X118133000Y-132498200D01*
X119039424Y-132498200D01*
X119118974Y-132280333D01*
X118955842Y-132066400D01*
X119498002Y-132066400D01*
X119498002Y-131439400D01*
X119466271Y-131439400D01*
X119658459Y-131151770D01*
X119809984Y-130390000D01*
X119658459Y-129628230D01*
X119466271Y-129340600D01*
X119498002Y-129340600D01*
X119498002Y-128713600D01*
X119268000Y-128713600D01*
X119268000Y-128438550D01*
X119111250Y-128281800D01*
X118133000Y-128281800D01*
X118133000Y-128461782D01*
X117819384Y-128399400D01*
X117430616Y-128399400D01*
X117117000Y-128461782D01*
X117117000Y-128281800D01*
X116138750Y-128281800D01*
X115982000Y-128438550D01*
X115982000Y-128713600D01*
X115751998Y-128713600D01*
X115751998Y-129340600D01*
X115783730Y-129340600D01*
X115655172Y-129533000D01*
X115580737Y-129533000D01*
X115220093Y-129383248D01*
X114652397Y-129382752D01*
X114127725Y-129599543D01*
X113725953Y-130000614D01*
X113508248Y-130524907D01*
X113507752Y-131092603D01*
X91949079Y-131092603D01*
X91949079Y-129200000D01*
X91870494Y-128782359D01*
X91623669Y-128398781D01*
X91247056Y-128141452D01*
X90800000Y-128050921D01*
X87000000Y-128050921D01*
X86582359Y-128129506D01*
X86198781Y-128376331D01*
X85941452Y-128752944D01*
X85850921Y-129200000D01*
X74862000Y-129200000D01*
X74862000Y-126861682D01*
X115982000Y-126861682D01*
X115982000Y-127261450D01*
X116138750Y-127418200D01*
X117117000Y-127418200D01*
X117117000Y-126516150D01*
X118133000Y-126516150D01*
X118133000Y-127418200D01*
X119111250Y-127418200D01*
X119268000Y-127261450D01*
X119268000Y-126861682D01*
X119257645Y-126836682D01*
X168557000Y-126836682D01*
X168557000Y-127236450D01*
X168713750Y-127393200D01*
X169692000Y-127393200D01*
X169692000Y-126491150D01*
X169535250Y-126334400D01*
X169059282Y-126334400D01*
X168828833Y-126429855D01*
X168652455Y-126606233D01*
X168557000Y-126836682D01*
X119257645Y-126836682D01*
X119172545Y-126631233D01*
X118996167Y-126454855D01*
X118765718Y-126359400D01*
X118289750Y-126359400D01*
X118133000Y-126516150D01*
X117117000Y-126516150D01*
X116960250Y-126359400D01*
X116484282Y-126359400D01*
X116253833Y-126454855D01*
X116077455Y-126631233D01*
X115982000Y-126861682D01*
X74862000Y-126861682D01*
X74862000Y-122411707D01*
X101691842Y-122411707D01*
X101876771Y-122644787D01*
X102680151Y-122714399D01*
X103030109Y-122644787D01*
X103215038Y-122411707D01*
X106771842Y-122411707D01*
X106956771Y-122644787D01*
X107760151Y-122714399D01*
X108110109Y-122644787D01*
X108295038Y-122411707D01*
X107533440Y-121650109D01*
X106771842Y-122411707D01*
X103215038Y-122411707D01*
X102453440Y-121650109D01*
X101691842Y-122411707D01*
X74862000Y-122411707D01*
X74862000Y-120886871D01*
X100399201Y-120886871D01*
X100468813Y-121236829D01*
X100701893Y-121421758D01*
X101463491Y-120660160D01*
X103443389Y-120660160D01*
X104204987Y-121421758D01*
X104438067Y-121236829D01*
X104468390Y-120886871D01*
X105479201Y-120886871D01*
X105548813Y-121236829D01*
X105781893Y-121421758D01*
X106543491Y-120660160D01*
X108523389Y-120660160D01*
X109284987Y-121421758D01*
X109518067Y-121236829D01*
X109587679Y-120433449D01*
X109538259Y-120185000D01*
X116495921Y-120185000D01*
X116495921Y-122385000D01*
X116574506Y-122802641D01*
X116821331Y-123186219D01*
X117197944Y-123443548D01*
X117645000Y-123534079D01*
X119845000Y-123534079D01*
X120262641Y-123455494D01*
X120330233Y-123412000D01*
X125296869Y-123412000D01*
X125669981Y-123785764D01*
X126635165Y-124186543D01*
X127680250Y-124187455D01*
X128646132Y-123788361D01*
X129385764Y-123050019D01*
X129786543Y-122084835D01*
X129787455Y-121039750D01*
X129388361Y-120073868D01*
X128650019Y-119334236D01*
X127684835Y-118933457D01*
X126639750Y-118932545D01*
X126094107Y-119158000D01*
X120338228Y-119158000D01*
X120322000Y-119146912D01*
X120322000Y-117601405D01*
X120403548Y-117482056D01*
X120494079Y-117035000D01*
X120494079Y-116135000D01*
X120415494Y-115717359D01*
X120168669Y-115333781D01*
X119792056Y-115076452D01*
X119345000Y-114985921D01*
X118145000Y-114985921D01*
X117727359Y-115064506D01*
X117343781Y-115311331D01*
X117086452Y-115687944D01*
X116995921Y-116135000D01*
X116995921Y-117035000D01*
X117074506Y-117452641D01*
X117168000Y-117597935D01*
X117168000Y-119152702D01*
X116843781Y-119361331D01*
X116586452Y-119737944D01*
X116495921Y-120185000D01*
X109538259Y-120185000D01*
X109518067Y-120083491D01*
X109284987Y-119898562D01*
X108523389Y-120660160D01*
X106543491Y-120660160D01*
X105781893Y-119898562D01*
X105548813Y-120083491D01*
X105479201Y-120886871D01*
X104468390Y-120886871D01*
X104507679Y-120433449D01*
X104438067Y-120083491D01*
X104204987Y-119898562D01*
X103443389Y-120660160D01*
X101463491Y-120660160D01*
X100701893Y-119898562D01*
X100468813Y-120083491D01*
X100399201Y-120886871D01*
X74862000Y-120886871D01*
X74862000Y-118908613D01*
X101691842Y-118908613D01*
X102453440Y-119670211D01*
X103215038Y-118908613D01*
X106771842Y-118908613D01*
X107533440Y-119670211D01*
X108295038Y-118908613D01*
X108110109Y-118675533D01*
X107306729Y-118605921D01*
X106956771Y-118675533D01*
X106771842Y-118908613D01*
X103215038Y-118908613D01*
X103030109Y-118675533D01*
X102226729Y-118605921D01*
X101876771Y-118675533D01*
X101691842Y-118908613D01*
X74862000Y-118908613D01*
X74862000Y-112887166D01*
X75655186Y-113216526D01*
X76740054Y-113217472D01*
X77742703Y-112803186D01*
X78510490Y-112036738D01*
X78926526Y-111034814D01*
X78926530Y-111030054D01*
X93792528Y-111030054D01*
X94206814Y-112032703D01*
X94973262Y-112800490D01*
X95975186Y-113216526D01*
X97060054Y-113217472D01*
X98062703Y-112803186D01*
X98830490Y-112036738D01*
X99246526Y-111034814D01*
X99246793Y-110727707D01*
X101691842Y-110727707D01*
X101876771Y-110960787D01*
X102680151Y-111030399D01*
X103030109Y-110960787D01*
X103215038Y-110727707D01*
X106771842Y-110727707D01*
X106956771Y-110960787D01*
X107760151Y-111030399D01*
X108110109Y-110960787D01*
X108295038Y-110727707D01*
X107533440Y-109966109D01*
X106771842Y-110727707D01*
X103215038Y-110727707D01*
X102453440Y-109966109D01*
X101691842Y-110727707D01*
X99246793Y-110727707D01*
X99247472Y-109949946D01*
X98938787Y-109202871D01*
X100399201Y-109202871D01*
X100468813Y-109552829D01*
X100701893Y-109737758D01*
X101463491Y-108976160D01*
X103443389Y-108976160D01*
X104204987Y-109737758D01*
X104438067Y-109552829D01*
X104468390Y-109202871D01*
X105479201Y-109202871D01*
X105548813Y-109552829D01*
X105781893Y-109737758D01*
X106543491Y-108976160D01*
X108523389Y-108976160D01*
X109284987Y-109737758D01*
X109518067Y-109552829D01*
X109587679Y-108749449D01*
X109518067Y-108399491D01*
X109284987Y-108214562D01*
X108523389Y-108976160D01*
X106543491Y-108976160D01*
X105781893Y-108214562D01*
X105548813Y-108399491D01*
X105479201Y-109202871D01*
X104468390Y-109202871D01*
X104507679Y-108749449D01*
X104438067Y-108399491D01*
X104204987Y-108214562D01*
X103443389Y-108976160D01*
X101463491Y-108976160D01*
X100701893Y-108214562D01*
X100468813Y-108399491D01*
X100399201Y-109202871D01*
X98938787Y-109202871D01*
X98833186Y-108947297D01*
X98484118Y-108597619D01*
X98942154Y-108506510D01*
X99583539Y-108077950D01*
X100012099Y-107436565D01*
X100054258Y-107224613D01*
X101691842Y-107224613D01*
X102453440Y-107986211D01*
X103215038Y-107224613D01*
X106771842Y-107224613D01*
X107533440Y-107986211D01*
X108295038Y-107224613D01*
X108110109Y-106991533D01*
X107306729Y-106921921D01*
X106956771Y-106991533D01*
X106771842Y-107224613D01*
X103215038Y-107224613D01*
X103030109Y-106991533D01*
X102226729Y-106921921D01*
X101876771Y-106991533D01*
X101691842Y-107224613D01*
X100054258Y-107224613D01*
X100162589Y-106680000D01*
X100012099Y-105923435D01*
X99663002Y-105400975D01*
X99663002Y-104990000D01*
X99617000Y-104990000D01*
X99617000Y-104721750D01*
X99460250Y-104565000D01*
X98390000Y-104565000D01*
X98390000Y-104743660D01*
X98185589Y-104703000D01*
X97394411Y-104703000D01*
X97190000Y-104743660D01*
X97190000Y-104565000D01*
X96119750Y-104565000D01*
X95963000Y-104721750D01*
X95963000Y-104990000D01*
X95916998Y-104990000D01*
X95916998Y-105400975D01*
X95567901Y-105923435D01*
X95417411Y-106680000D01*
X95567901Y-107436565D01*
X95827728Y-107825423D01*
X94977297Y-108176814D01*
X94209510Y-108943262D01*
X93793474Y-109945186D01*
X93792528Y-111030054D01*
X78926530Y-111030054D01*
X78927472Y-109949946D01*
X78513186Y-108947297D01*
X77746738Y-108179510D01*
X76892648Y-107824860D01*
X77152099Y-107436565D01*
X77302589Y-106680000D01*
X77152099Y-105923435D01*
X76803002Y-105400975D01*
X76803002Y-104990000D01*
X76757000Y-104990000D01*
X76757000Y-104721750D01*
X76600250Y-104565000D01*
X75530000Y-104565000D01*
X75530000Y-104743660D01*
X75325589Y-104703000D01*
X74862000Y-104703000D01*
X74862000Y-103577000D01*
X75325589Y-103577000D01*
X75530000Y-103536340D01*
X75530000Y-103715000D01*
X76600250Y-103715000D01*
X76757000Y-103558250D01*
X76757000Y-103290000D01*
X76803002Y-103290000D01*
X76803002Y-102879025D01*
X77152099Y-102356565D01*
X77302589Y-101600000D01*
X77152099Y-100843435D01*
X76809033Y-100330000D01*
X77152099Y-99816565D01*
X77302589Y-99060000D01*
X77152099Y-98303435D01*
X76809033Y-97790000D01*
X77152099Y-97276565D01*
X77302589Y-96520000D01*
X77152099Y-95763435D01*
X76803002Y-95240975D01*
X76803002Y-94830000D01*
X76757000Y-94830000D01*
X76757000Y-94561750D01*
X76600250Y-94405000D01*
X75530000Y-94405000D01*
X75530000Y-94583660D01*
X75325589Y-94543000D01*
X74862000Y-94543000D01*
X74862000Y-93417000D01*
X75325589Y-93417000D01*
X75530000Y-93376340D01*
X75530000Y-93555000D01*
X76600250Y-93555000D01*
X76757000Y-93398250D01*
X76757000Y-93130000D01*
X76803002Y-93130000D01*
X76803002Y-92719025D01*
X77152099Y-92196565D01*
X77302589Y-91440000D01*
X77152099Y-90683435D01*
X76809033Y-90170000D01*
X77152099Y-89656565D01*
X77302589Y-88900000D01*
X77152099Y-88143435D01*
X76809033Y-87630000D01*
X77152099Y-87116565D01*
X77302589Y-86360000D01*
X77152099Y-85603435D01*
X76809033Y-85090000D01*
X77152099Y-84576565D01*
X77302589Y-83820000D01*
X77289063Y-83752000D01*
X91440000Y-83752000D01*
X91556111Y-83728904D01*
X91674499Y-83728904D01*
X92646515Y-83535558D01*
X92973919Y-83399942D01*
X93079812Y-83356080D01*
X93903847Y-82805477D01*
X94032324Y-82677000D01*
X95826109Y-82677000D01*
X95567901Y-83063435D01*
X95417411Y-83820000D01*
X95567901Y-84576565D01*
X95916998Y-85099025D01*
X95916998Y-85510000D01*
X95963000Y-85510000D01*
X95963000Y-85778250D01*
X96119750Y-85935000D01*
X97190000Y-85935000D01*
X97190000Y-85756340D01*
X97394411Y-85797000D01*
X98185589Y-85797000D01*
X98390000Y-85756340D01*
X98390000Y-85935000D01*
X99460250Y-85935000D01*
X99617000Y-85778250D01*
X99617000Y-85510000D01*
X99663002Y-85510000D01*
X99663002Y-85099025D01*
X100012099Y-84576565D01*
X100162589Y-83820000D01*
X100012099Y-83063435D01*
X99753891Y-82677000D01*
X100001252Y-82677000D01*
X100026408Y-82803469D01*
X100595870Y-83655730D01*
X101448131Y-84225192D01*
X102453440Y-84425160D01*
X107533440Y-84425160D01*
X108538749Y-84225192D01*
X109391010Y-83655730D01*
X109960472Y-82803469D01*
X110160440Y-81798160D01*
X109960472Y-80792851D01*
X109391010Y-79940590D01*
X108538749Y-79371128D01*
X107533440Y-79171160D01*
X102453440Y-79171160D01*
X101448131Y-79371128D01*
X101092000Y-79609087D01*
X101092000Y-77657000D01*
X101234063Y-77657000D01*
X101572944Y-77888548D01*
X102020000Y-77979079D01*
X103720000Y-77979079D01*
X104137641Y-77900494D01*
X104516042Y-77657000D01*
X104595000Y-77657000D01*
X105083687Y-77559794D01*
X105497975Y-77282975D01*
X105623950Y-77157000D01*
X105787240Y-77157000D01*
X106052944Y-77338548D01*
X106500000Y-77429079D01*
X107400000Y-77429079D01*
X107817641Y-77350494D01*
X108201219Y-77103669D01*
X108458548Y-76727056D01*
X108508765Y-76479079D01*
X109400000Y-76479079D01*
X109566752Y-76447702D01*
X110402025Y-77282976D01*
X110650373Y-77448916D01*
X110816313Y-77559794D01*
X111305000Y-77657000D01*
X111394063Y-77657000D01*
X111732944Y-77888548D01*
X111753000Y-77892609D01*
X111753000Y-83820000D01*
X111850206Y-84308687D01*
X112054542Y-84614497D01*
X112127025Y-84722975D01*
X113254971Y-85850921D01*
X112180000Y-85850921D01*
X111762359Y-85929506D01*
X111498957Y-86099000D01*
X111135737Y-86099000D01*
X110775093Y-85949248D01*
X110207397Y-85948752D01*
X109682725Y-86165543D01*
X109280953Y-86566614D01*
X109063248Y-87090907D01*
X109063021Y-87350921D01*
X108511619Y-87350921D01*
X108470494Y-87132359D01*
X108344922Y-86937215D01*
X108360752Y-86899093D01*
X108361248Y-86331397D01*
X108144457Y-85806725D01*
X107743386Y-85404953D01*
X107219093Y-85187248D01*
X106651397Y-85186752D01*
X106126725Y-85403543D01*
X105724953Y-85804614D01*
X105507248Y-86328907D01*
X105507050Y-86556099D01*
X105497975Y-86547025D01*
X105304720Y-86417896D01*
X105083687Y-86270206D01*
X104595000Y-86173000D01*
X104505937Y-86173000D01*
X104167056Y-85941452D01*
X103720000Y-85850921D01*
X102020000Y-85850921D01*
X101602359Y-85929506D01*
X101218781Y-86176331D01*
X100961452Y-86552944D01*
X100870921Y-87000000D01*
X100870921Y-87900000D01*
X100949506Y-88317641D01*
X101196331Y-88701219D01*
X101489949Y-88901840D01*
X101420487Y-88946537D01*
X100470975Y-87997025D01*
X100383666Y-87938687D01*
X100056687Y-87720206D01*
X99679125Y-87645104D01*
X99663002Y-87620974D01*
X99663002Y-87210000D01*
X99617000Y-87210000D01*
X99617000Y-86941750D01*
X99460250Y-86785000D01*
X98390000Y-86785000D01*
X98390000Y-86963660D01*
X98185589Y-86923000D01*
X97394411Y-86923000D01*
X97190000Y-86963660D01*
X97190000Y-86785000D01*
X96119750Y-86785000D01*
X95963000Y-86941750D01*
X95963000Y-87210000D01*
X95916998Y-87210000D01*
X95916998Y-87620975D01*
X95567901Y-88143435D01*
X95417411Y-88900000D01*
X95567901Y-89656565D01*
X95910967Y-90170000D01*
X95567901Y-90683435D01*
X95417411Y-91440000D01*
X95567901Y-92196565D01*
X95910967Y-92710000D01*
X95567901Y-93223435D01*
X95417411Y-93980000D01*
X95567901Y-94736565D01*
X95910967Y-95250000D01*
X95567901Y-95763435D01*
X95417411Y-96520000D01*
X95567901Y-97276565D01*
X95910967Y-97790000D01*
X95567901Y-98303435D01*
X95417411Y-99060000D01*
X95567901Y-99816565D01*
X95910967Y-100330000D01*
X95567901Y-100843435D01*
X95417411Y-101600000D01*
X95567901Y-102356565D01*
X95916998Y-102879025D01*
X95916998Y-103290000D01*
X95963000Y-103290000D01*
X95963000Y-103558250D01*
X96119750Y-103715000D01*
X97190000Y-103715000D01*
X97190000Y-103536340D01*
X97394411Y-103577000D01*
X98185589Y-103577000D01*
X98390000Y-103536340D01*
X98390000Y-103715000D01*
X99460250Y-103715000D01*
X99617000Y-103558250D01*
X99617000Y-103290000D01*
X99663002Y-103290000D01*
X99663002Y-102992953D01*
X100623025Y-103952976D01*
X100871373Y-104118916D01*
X101037313Y-104229794D01*
X101166965Y-104255584D01*
X101196331Y-104301219D01*
X101572944Y-104558548D01*
X102020000Y-104649079D01*
X103720000Y-104649079D01*
X104137641Y-104570494D01*
X104516042Y-104327000D01*
X104595000Y-104327000D01*
X105083687Y-104229794D01*
X105497975Y-103952975D01*
X105623950Y-103827000D01*
X105787240Y-103827000D01*
X106052944Y-104008548D01*
X106500000Y-104099079D01*
X107400000Y-104099079D01*
X107817641Y-104020494D01*
X108201219Y-103773669D01*
X108458548Y-103397056D01*
X108508765Y-103149079D01*
X109400000Y-103149079D01*
X109566752Y-103117702D01*
X110402025Y-103952976D01*
X110650373Y-104118916D01*
X110816313Y-104229794D01*
X111305000Y-104327000D01*
X111394063Y-104327000D01*
X111732944Y-104558548D01*
X111753000Y-104562609D01*
X111753000Y-106036252D01*
X111587725Y-106104543D01*
X111185953Y-106505614D01*
X110968248Y-107029907D01*
X110967752Y-107597603D01*
X111184543Y-108122275D01*
X111585614Y-108524047D01*
X112109907Y-108741752D01*
X112677603Y-108742248D01*
X113202275Y-108525457D01*
X113604047Y-108124386D01*
X113754928Y-107761022D01*
X113932976Y-107582975D01*
X114209795Y-107168686D01*
X114307000Y-106680000D01*
X114307000Y-104564472D01*
X114681219Y-104323669D01*
X114938548Y-103947056D01*
X115029079Y-103500000D01*
X115029079Y-102600000D01*
X114950494Y-102182359D01*
X114703669Y-101798781D01*
X114410051Y-101598160D01*
X114681219Y-101423669D01*
X114938548Y-101047056D01*
X115029079Y-100600000D01*
X115029079Y-99702000D01*
X115795489Y-99702000D01*
X115931130Y-99905000D01*
X115591541Y-100413230D01*
X115440016Y-101175000D01*
X115591541Y-101936770D01*
X116023049Y-102582567D01*
X116083550Y-102622993D01*
X116120984Y-102679016D01*
X116618000Y-103176032D01*
X116618000Y-107703968D01*
X110878968Y-113443000D01*
X110490000Y-113443000D01*
X109676032Y-113604908D01*
X108985984Y-114065984D01*
X108524908Y-114756032D01*
X108363000Y-115570000D01*
X108524908Y-116383968D01*
X108985984Y-117074016D01*
X109676032Y-117535092D01*
X110490000Y-117697000D01*
X111760000Y-117697000D01*
X112573968Y-117535092D01*
X113264016Y-117074016D01*
X116995921Y-113342111D01*
X116995921Y-113735000D01*
X117074506Y-114152641D01*
X117321331Y-114536219D01*
X117697944Y-114793548D01*
X118145000Y-114884079D01*
X119345000Y-114884079D01*
X119762641Y-114805494D01*
X120146219Y-114558669D01*
X120403548Y-114182056D01*
X120494079Y-113735000D01*
X120494079Y-112835000D01*
X120415494Y-112417359D01*
X120322000Y-112272065D01*
X120322000Y-110199955D01*
X120802480Y-109480866D01*
X120972000Y-108628630D01*
X120972000Y-108541370D01*
X120872000Y-108038635D01*
X120872000Y-102295000D01*
X120710092Y-101481032D01*
X120249016Y-100790984D01*
X119336559Y-99878527D01*
X119658459Y-99396770D01*
X119809984Y-98635000D01*
X119658459Y-97873230D01*
X119318870Y-97365000D01*
X119658459Y-96856770D01*
X119809984Y-96095000D01*
X119658459Y-95333230D01*
X119466271Y-95045600D01*
X119498002Y-95045600D01*
X119498002Y-94418600D01*
X118955842Y-94418600D01*
X119118974Y-94204667D01*
X119039424Y-93986800D01*
X118133000Y-93986800D01*
X118133000Y-94166782D01*
X117819384Y-94104400D01*
X117430616Y-94104400D01*
X117117000Y-94166782D01*
X117117000Y-93986800D01*
X116210576Y-93986800D01*
X116131026Y-94204667D01*
X116294158Y-94418600D01*
X115751998Y-94418600D01*
X115751998Y-95045600D01*
X115783729Y-95045600D01*
X115591541Y-95333230D01*
X115573685Y-95423000D01*
X114665937Y-95423000D01*
X114410051Y-95248160D01*
X114681219Y-95073669D01*
X114938548Y-94697056D01*
X115029079Y-94250000D01*
X115029079Y-93502083D01*
X115217603Y-93502248D01*
X115742275Y-93285457D01*
X116144047Y-92884386D01*
X116224181Y-92691400D01*
X116294158Y-92691400D01*
X116131026Y-92905333D01*
X116210576Y-93123200D01*
X117117000Y-93123200D01*
X117117000Y-92943218D01*
X117430616Y-93005600D01*
X117819384Y-93005600D01*
X118133000Y-92943218D01*
X118133000Y-93123200D01*
X119039424Y-93123200D01*
X119118974Y-92905333D01*
X118955842Y-92691400D01*
X119498002Y-92691400D01*
X119498002Y-92064400D01*
X119466271Y-92064400D01*
X119658459Y-91776770D01*
X119809984Y-91015000D01*
X119658459Y-90253230D01*
X119466271Y-89965600D01*
X119498002Y-89965600D01*
X119498002Y-89338600D01*
X119268000Y-89338600D01*
X119268000Y-89063550D01*
X119111250Y-88906800D01*
X118133000Y-88906800D01*
X118133000Y-89086782D01*
X117819384Y-89024400D01*
X117430616Y-89024400D01*
X117117000Y-89086782D01*
X117117000Y-88906800D01*
X116609000Y-88906800D01*
X116609000Y-88043200D01*
X117117000Y-88043200D01*
X117117000Y-87141150D01*
X118133000Y-87141150D01*
X118133000Y-88043200D01*
X119111250Y-88043200D01*
X119268000Y-87886450D01*
X119268000Y-87486682D01*
X119172545Y-87256233D01*
X118996167Y-87079855D01*
X118765718Y-86984400D01*
X118289750Y-86984400D01*
X118133000Y-87141150D01*
X117117000Y-87141150D01*
X116960250Y-86984400D01*
X116609000Y-86984400D01*
X116609000Y-86601998D01*
X116212000Y-86601998D01*
X116212000Y-85725000D01*
X123893000Y-85725000D01*
X123893000Y-111125000D01*
X123916096Y-111241111D01*
X123916096Y-111359499D01*
X124012769Y-111845506D01*
X124192246Y-112278802D01*
X124467547Y-112690820D01*
X124467548Y-112690821D01*
X124467549Y-112690823D01*
X124799177Y-113022451D01*
X124799179Y-113022452D01*
X124799180Y-113022453D01*
X125211197Y-113297754D01*
X125390674Y-113372095D01*
X125644493Y-113477231D01*
X126130501Y-113573904D01*
X126248889Y-113573904D01*
X126365000Y-113597000D01*
X127036656Y-113597000D01*
X126529510Y-114103262D01*
X126113474Y-115105186D01*
X126112528Y-116190054D01*
X126526814Y-117192703D01*
X127293262Y-117960490D01*
X128295186Y-118376526D01*
X129380054Y-118377472D01*
X130243000Y-118020910D01*
X130243000Y-121920000D01*
X130266096Y-122036111D01*
X130266096Y-122154499D01*
X130362769Y-122640506D01*
X130542246Y-123073802D01*
X130817547Y-123485820D01*
X130817548Y-123485821D01*
X130817549Y-123485823D01*
X131149177Y-123817451D01*
X131149179Y-123817452D01*
X131149180Y-123817453D01*
X131561197Y-124092754D01*
X131740674Y-124167095D01*
X131994493Y-124272231D01*
X132480501Y-124368904D01*
X132598889Y-124368904D01*
X132715000Y-124392000D01*
X140970000Y-124392000D01*
X141086111Y-124368904D01*
X141204499Y-124368904D01*
X141690506Y-124272231D01*
X142123802Y-124092754D01*
X142535820Y-123817453D01*
X142535821Y-123817452D01*
X142535823Y-123817451D01*
X142867451Y-123485823D01*
X142867452Y-123485821D01*
X142867453Y-123485820D01*
X143142754Y-123073803D01*
X143230485Y-122862000D01*
X143322231Y-122640507D01*
X143356793Y-122466750D01*
X145033000Y-122466750D01*
X145033000Y-123184718D01*
X145128455Y-123415167D01*
X145304833Y-123591545D01*
X145535282Y-123687000D01*
X146253250Y-123687000D01*
X146410000Y-123530250D01*
X146410000Y-122310000D01*
X147910000Y-122310000D01*
X147910000Y-123530250D01*
X148066750Y-123687000D01*
X148784718Y-123687000D01*
X149015167Y-123591545D01*
X149191545Y-123415167D01*
X149287000Y-123184718D01*
X149287000Y-122466750D01*
X149130250Y-122310000D01*
X147910000Y-122310000D01*
X146410000Y-122310000D01*
X145189750Y-122310000D01*
X145033000Y-122466750D01*
X143356793Y-122466750D01*
X143418904Y-122154499D01*
X143418904Y-122036111D01*
X143442000Y-121920000D01*
X143442000Y-119935282D01*
X145033000Y-119935282D01*
X145033000Y-120653250D01*
X145189750Y-120810000D01*
X146410000Y-120810000D01*
X146410000Y-119589750D01*
X147910000Y-119589750D01*
X147910000Y-120810000D01*
X149130250Y-120810000D01*
X149287000Y-120653250D01*
X149287000Y-119935282D01*
X149191545Y-119704833D01*
X149015167Y-119528455D01*
X148784718Y-119433000D01*
X148066750Y-119433000D01*
X147910000Y-119589750D01*
X146410000Y-119589750D01*
X146253250Y-119433000D01*
X145535282Y-119433000D01*
X145304833Y-119528455D01*
X145128455Y-119704833D01*
X145033000Y-119935282D01*
X143442000Y-119935282D01*
X143442000Y-113783388D01*
X143468933Y-113647988D01*
X143478568Y-113633567D01*
X143492987Y-113623933D01*
X143628387Y-113597000D01*
X147955000Y-113597000D01*
X148071111Y-113573904D01*
X148189499Y-113573904D01*
X148675506Y-113477231D01*
X149108802Y-113297754D01*
X149520820Y-113022453D01*
X149520821Y-113022452D01*
X149520823Y-113022451D01*
X149852451Y-112690823D01*
X149852452Y-112690821D01*
X149852453Y-112690820D01*
X150127754Y-112278803D01*
X150202157Y-112099177D01*
X150307231Y-111845507D01*
X150403904Y-111359499D01*
X150403904Y-111241111D01*
X150427000Y-111125000D01*
X150427000Y-87486682D01*
X168557000Y-87486682D01*
X168557000Y-87886450D01*
X168713750Y-88043200D01*
X169692000Y-88043200D01*
X169692000Y-87141150D01*
X169535250Y-86984400D01*
X169059282Y-86984400D01*
X168828833Y-87079855D01*
X168652455Y-87256233D01*
X168557000Y-87486682D01*
X150427000Y-87486682D01*
X150427000Y-85725000D01*
X150403904Y-85608889D01*
X150403904Y-85490501D01*
X150307231Y-85004493D01*
X150168859Y-84670434D01*
X150127754Y-84571197D01*
X149852453Y-84159180D01*
X149852451Y-84159178D01*
X149852451Y-84159177D01*
X149520823Y-83827549D01*
X149520821Y-83827548D01*
X149520820Y-83827547D01*
X149108802Y-83552246D01*
X148675506Y-83372769D01*
X148189499Y-83276096D01*
X148098032Y-83276096D01*
X148206526Y-83014814D01*
X148207472Y-81929946D01*
X147793186Y-80927297D01*
X147026738Y-80159510D01*
X146024814Y-79743474D01*
X144939946Y-79742528D01*
X144077000Y-80099090D01*
X144077000Y-77466750D01*
X145033000Y-77466750D01*
X145033000Y-78184718D01*
X145128455Y-78415167D01*
X145304833Y-78591545D01*
X145535282Y-78687000D01*
X146253250Y-78687000D01*
X146410000Y-78530250D01*
X146410000Y-77310000D01*
X147910000Y-77310000D01*
X147910000Y-78530250D01*
X148066750Y-78687000D01*
X148784718Y-78687000D01*
X149015167Y-78591545D01*
X149191545Y-78415167D01*
X149287000Y-78184718D01*
X149287000Y-77466750D01*
X149130250Y-77310000D01*
X147910000Y-77310000D01*
X146410000Y-77310000D01*
X145189750Y-77310000D01*
X145033000Y-77466750D01*
X144077000Y-77466750D01*
X144077000Y-76200000D01*
X144053904Y-76083889D01*
X144053904Y-75965501D01*
X143957231Y-75479493D01*
X143811961Y-75128781D01*
X143777754Y-75046197D01*
X143703643Y-74935282D01*
X145033000Y-74935282D01*
X145033000Y-75653250D01*
X145189750Y-75810000D01*
X146410000Y-75810000D01*
X146410000Y-74589750D01*
X147910000Y-74589750D01*
X147910000Y-75810000D01*
X149130250Y-75810000D01*
X149287000Y-75653250D01*
X149287000Y-74935282D01*
X149191545Y-74704833D01*
X149015167Y-74528455D01*
X148784718Y-74433000D01*
X148066750Y-74433000D01*
X147910000Y-74589750D01*
X146410000Y-74589750D01*
X146253250Y-74433000D01*
X145535282Y-74433000D01*
X145304833Y-74528455D01*
X145128455Y-74704833D01*
X145033000Y-74935282D01*
X143703643Y-74935282D01*
X143502453Y-74634180D01*
X143502451Y-74634178D01*
X143502451Y-74634177D01*
X143170823Y-74302549D01*
X143170821Y-74302548D01*
X143170820Y-74302547D01*
X142758802Y-74027246D01*
X142325506Y-73847769D01*
X141839499Y-73751096D01*
X141721111Y-73751096D01*
X141605000Y-73728000D01*
X133985000Y-73728000D01*
X133868889Y-73751096D01*
X133750501Y-73751096D01*
X133264493Y-73847769D01*
X133010674Y-73952905D01*
X132831197Y-74027246D01*
X132419180Y-74302547D01*
X132419179Y-74302548D01*
X132419177Y-74302549D01*
X132087549Y-74634177D01*
X132087549Y-74634178D01*
X132087547Y-74634180D01*
X131812246Y-75046198D01*
X131657956Y-75418687D01*
X131632769Y-75479494D01*
X131536096Y-75965501D01*
X131536096Y-76083889D01*
X131513000Y-76200000D01*
X131513000Y-83066613D01*
X131486067Y-83202013D01*
X131476433Y-83216432D01*
X131462012Y-83226067D01*
X131326612Y-83253000D01*
X126365000Y-83253000D01*
X126248889Y-83276096D01*
X126130501Y-83276096D01*
X125644493Y-83372769D01*
X125390674Y-83477905D01*
X125211197Y-83552246D01*
X124799180Y-83827547D01*
X124799179Y-83827548D01*
X124799177Y-83827549D01*
X124467549Y-84159177D01*
X124467549Y-84159178D01*
X124467547Y-84159180D01*
X124192246Y-84571198D01*
X124049845Y-84914985D01*
X124012769Y-85004494D01*
X123916096Y-85490501D01*
X123916096Y-85608889D01*
X123893000Y-85725000D01*
X116212000Y-85725000D01*
X116114794Y-85236313D01*
X115837975Y-84822025D01*
X114307000Y-83291050D01*
X114307000Y-77894472D01*
X114681219Y-77653669D01*
X114938548Y-77277056D01*
X114978402Y-77080250D01*
X124532545Y-77080250D01*
X124931639Y-78046132D01*
X125669981Y-78785764D01*
X126635165Y-79186543D01*
X127680250Y-79187455D01*
X128646132Y-78788361D01*
X129385764Y-78050019D01*
X129786543Y-77084835D01*
X129787455Y-76039750D01*
X129388361Y-75073868D01*
X128650019Y-74334236D01*
X127684835Y-73933457D01*
X126639750Y-73932545D01*
X125673868Y-74331639D01*
X124934236Y-75069981D01*
X124533457Y-76035165D01*
X124532545Y-77080250D01*
X114978402Y-77080250D01*
X115029079Y-76830000D01*
X115029079Y-75930000D01*
X114950494Y-75512359D01*
X114703669Y-75128781D01*
X114410051Y-74928160D01*
X114681219Y-74753669D01*
X114938548Y-74377056D01*
X115029079Y-73930000D01*
X115029079Y-73030000D01*
X114950494Y-72612359D01*
X114703669Y-72228781D01*
X114327056Y-71971452D01*
X113880000Y-71880921D01*
X112180000Y-71880921D01*
X111762359Y-71959506D01*
X111498957Y-72129000D01*
X111135737Y-72129000D01*
X110775093Y-71979248D01*
X110207397Y-71978752D01*
X109682725Y-72195543D01*
X109280953Y-72596614D01*
X109063248Y-73120907D01*
X109063021Y-73380921D01*
X108511619Y-73380921D01*
X108470494Y-73162359D01*
X108223669Y-72778781D01*
X107847056Y-72521452D01*
X107400000Y-72430921D01*
X106500000Y-72430921D01*
X106082359Y-72509506D01*
X105781660Y-72703000D01*
X105623950Y-72703000D01*
X105497975Y-72577025D01*
X105207598Y-72383001D01*
X105083687Y-72300206D01*
X104595000Y-72203000D01*
X104505937Y-72203000D01*
X104167056Y-71971452D01*
X103720000Y-71880921D01*
X102020000Y-71880921D01*
X101602359Y-71959506D01*
X101218781Y-72206331D01*
X101184844Y-72256000D01*
X101092000Y-72256000D01*
X101092000Y-70523536D01*
X101450671Y-70763192D01*
X102455980Y-70963160D01*
X107535980Y-70963160D01*
X108541289Y-70763192D01*
X109393550Y-70193730D01*
X109963012Y-69341469D01*
X110162980Y-68336160D01*
X109963012Y-67330851D01*
X109393550Y-66478590D01*
X108541289Y-65909128D01*
X107535980Y-65709160D01*
X102455980Y-65709160D01*
X101450671Y-65909128D01*
X101092000Y-66148784D01*
X101092000Y-64702000D01*
X135060802Y-64702000D01*
X134347297Y-64996814D01*
M02*
