G04 #@! TF.FileFunction,Other,User*
%FSLAX46Y46*%
G04 Gerber Fmt 4.6, Leading zero omitted, Abs format (unit mm)*
G04 Created by KiCad (PCBNEW 4.0.4-stable) date 12/14/17 11:03:47*
%MOMM*%
%LPD*%
G01*
G04 APERTURE LIST*
%ADD10C,0.250000*%
%ADD11C,0.050000*%
G04 APERTURE END LIST*
D10*
D11*
X139340000Y-67310000D02*
G75*
G03X139340000Y-67310000I-3450000J0D01*
G01*
X139340000Y-158750000D02*
G75*
G03X139340000Y-158750000I-3450000J0D01*
G01*
X80920000Y-158750000D02*
G75*
G03X80920000Y-158750000I-3450000J0D01*
G01*
X89880000Y-149640000D02*
X85380000Y-149640000D01*
X89880000Y-149640000D02*
X89880000Y-147540000D01*
X85380000Y-147540000D02*
X85380000Y-149640000D01*
X85380000Y-147540000D02*
X89880000Y-147540000D01*
X89380000Y-154550000D02*
X85880000Y-154550000D01*
X89380000Y-154550000D02*
X89380000Y-152800000D01*
X85880000Y-152800000D02*
X85880000Y-154550000D01*
X85880000Y-152800000D02*
X89380000Y-152800000D01*
X117045000Y-122635000D02*
X120445000Y-122635000D01*
X120445000Y-122635000D02*
X120445000Y-107235000D01*
X120445000Y-107235000D02*
X117045000Y-107235000D01*
X117045000Y-107235000D02*
X117045000Y-122635000D01*
X106250000Y-99850000D02*
X109650000Y-99850000D01*
X109650000Y-99850000D02*
X109650000Y-103350000D01*
X109650000Y-103350000D02*
X106250000Y-103350000D01*
X106250000Y-103350000D02*
X106250000Y-99850000D01*
X106250000Y-93500000D02*
X109650000Y-93500000D01*
X109650000Y-93500000D02*
X109650000Y-97000000D01*
X109650000Y-97000000D02*
X106250000Y-97000000D01*
X106250000Y-97000000D02*
X106250000Y-93500000D01*
X106250000Y-87150000D02*
X109650000Y-87150000D01*
X109650000Y-87150000D02*
X109650000Y-90650000D01*
X109650000Y-90650000D02*
X106250000Y-90650000D01*
X106250000Y-90650000D02*
X106250000Y-87150000D01*
X106250000Y-73180000D02*
X109650000Y-73180000D01*
X109650000Y-73180000D02*
X109650000Y-76680000D01*
X109650000Y-76680000D02*
X106250000Y-76680000D01*
X106250000Y-76680000D02*
X106250000Y-73180000D01*
X103980000Y-99450000D02*
X103980000Y-103750000D01*
X103980000Y-99450000D02*
X101770000Y-99450000D01*
X101770000Y-103750000D02*
X103980000Y-103750000D01*
X101770000Y-103750000D02*
X101770000Y-99450000D01*
X103980000Y-93100000D02*
X103980000Y-97400000D01*
X103980000Y-93100000D02*
X101770000Y-93100000D01*
X101770000Y-97400000D02*
X103980000Y-97400000D01*
X101770000Y-97400000D02*
X101770000Y-93100000D01*
X103980000Y-86750000D02*
X103980000Y-91050000D01*
X103980000Y-86750000D02*
X101770000Y-86750000D01*
X101770000Y-91050000D02*
X103980000Y-91050000D01*
X101770000Y-91050000D02*
X101770000Y-86750000D01*
X103980000Y-72780000D02*
X103980000Y-77080000D01*
X103980000Y-72780000D02*
X101770000Y-72780000D01*
X101770000Y-77080000D02*
X103980000Y-77080000D01*
X101770000Y-77080000D02*
X101770000Y-72780000D01*
X114140000Y-99450000D02*
X114140000Y-103750000D01*
X114140000Y-99450000D02*
X111930000Y-99450000D01*
X111930000Y-103750000D02*
X114140000Y-103750000D01*
X111930000Y-103750000D02*
X111930000Y-99450000D01*
X114140000Y-93100000D02*
X114140000Y-97400000D01*
X114140000Y-93100000D02*
X111930000Y-93100000D01*
X111930000Y-97400000D02*
X114140000Y-97400000D01*
X111930000Y-97400000D02*
X111930000Y-93100000D01*
X114140000Y-86750000D02*
X114140000Y-91050000D01*
X114140000Y-86750000D02*
X111930000Y-86750000D01*
X111930000Y-91050000D02*
X114140000Y-91050000D01*
X111930000Y-91050000D02*
X111930000Y-86750000D01*
X114140000Y-72780000D02*
X114140000Y-77080000D01*
X114140000Y-72780000D02*
X111930000Y-72780000D01*
X111930000Y-77080000D02*
X114140000Y-77080000D01*
X111930000Y-77080000D02*
X111930000Y-72780000D01*
X83650000Y-122530000D02*
X83650000Y-143390000D01*
X83650000Y-143390000D02*
X94150000Y-143390000D01*
X94150000Y-143390000D02*
X94150000Y-122530000D01*
X94150000Y-122530000D02*
X83650000Y-122530000D01*
X117595000Y-117285000D02*
X117595000Y-112585000D01*
X117595000Y-112585000D02*
X119895000Y-112585000D01*
X119895000Y-112585000D02*
X119895000Y-117285000D01*
X117595000Y-117285000D02*
X119895000Y-117285000D01*
X85300000Y-128950000D02*
X85300000Y-137750000D01*
X92500000Y-128950000D02*
X85300000Y-128950000D01*
X92500000Y-137750000D02*
X92500000Y-128950000D01*
X85300000Y-137750000D02*
X92500000Y-137750000D01*
X142820000Y-151400000D02*
X142570000Y-151400000D01*
X142570000Y-151400000D02*
X142570000Y-166400000D01*
X142820000Y-151400000D02*
X145320000Y-151400000D01*
X145320000Y-151400000D02*
X145320000Y-150400000D01*
X145320000Y-150400000D02*
X149320000Y-150400000D01*
X149320000Y-150400000D02*
X149320000Y-151400000D01*
X149320000Y-151400000D02*
X152070000Y-151400000D01*
X152070000Y-151400000D02*
X152070000Y-153400000D01*
X152070000Y-153400000D02*
X154070000Y-153400000D01*
X154070000Y-153400000D02*
X154070000Y-157400000D01*
X154070000Y-157400000D02*
X152070000Y-157400000D01*
X152070000Y-157400000D02*
X152070000Y-166400000D01*
X152070000Y-166400000D02*
X142570000Y-166400000D01*
X172360000Y-67310000D02*
G75*
G03X172360000Y-67310000I-3450000J0D01*
G01*
M02*
