G04 #@! TF.FileFunction,Other,Fab,Bot*
%FSLAX46Y46*%
G04 Gerber Fmt 4.6, Leading zero omitted, Abs format (unit mm)*
G04 Created by KiCad (PCBNEW 4.0.4-stable) date 12/10/17 00:47:25*
%MOMM*%
%LPD*%
G01*
G04 APERTURE LIST*
%ADD10C,0.250000*%
%ADD11C,0.100000*%
%ADD12C,0.150000*%
G04 APERTURE END LIST*
D10*
D11*
X190540000Y-86305000D02*
X190540000Y-95305000D01*
X194040000Y-86305000D02*
X194040000Y-95305000D01*
X194040000Y-95305000D02*
X179540000Y-95305000D01*
X179540000Y-95305000D02*
X179540000Y-86305000D01*
X179540000Y-86305000D02*
X194040000Y-86305000D01*
D12*
X121082143Y-97436905D02*
X121129762Y-97389286D01*
X121177381Y-97246429D01*
X121177381Y-97151191D01*
X121129762Y-97008333D01*
X121034524Y-96913095D01*
X120939286Y-96865476D01*
X120748810Y-96817857D01*
X120605952Y-96817857D01*
X120415476Y-96865476D01*
X120320238Y-96913095D01*
X120225000Y-97008333D01*
X120177381Y-97151191D01*
X120177381Y-97246429D01*
X120225000Y-97389286D01*
X120272619Y-97436905D01*
X121177381Y-98008333D02*
X121129762Y-97913095D01*
X121082143Y-97865476D01*
X120986905Y-97817857D01*
X120701190Y-97817857D01*
X120605952Y-97865476D01*
X120558333Y-97913095D01*
X120510714Y-98008333D01*
X120510714Y-98151191D01*
X120558333Y-98246429D01*
X120605952Y-98294048D01*
X120701190Y-98341667D01*
X120986905Y-98341667D01*
X121082143Y-98294048D01*
X121129762Y-98246429D01*
X121177381Y-98151191D01*
X121177381Y-98008333D01*
X120510714Y-98770238D02*
X121177381Y-98770238D01*
X120605952Y-98770238D02*
X120558333Y-98817857D01*
X120510714Y-98913095D01*
X120510714Y-99055953D01*
X120558333Y-99151191D01*
X120653571Y-99198810D01*
X121177381Y-99198810D01*
X120510714Y-99675000D02*
X121177381Y-99675000D01*
X120605952Y-99675000D02*
X120558333Y-99722619D01*
X120510714Y-99817857D01*
X120510714Y-99960715D01*
X120558333Y-100055953D01*
X120653571Y-100103572D01*
X121177381Y-100103572D01*
X121272619Y-100341667D02*
X121272619Y-101103572D01*
X120177381Y-101532143D02*
X120177381Y-101627382D01*
X120225000Y-101722620D01*
X120272619Y-101770239D01*
X120367857Y-101817858D01*
X120558333Y-101865477D01*
X120796429Y-101865477D01*
X120986905Y-101817858D01*
X121082143Y-101770239D01*
X121129762Y-101722620D01*
X121177381Y-101627382D01*
X121177381Y-101532143D01*
X121129762Y-101436905D01*
X121082143Y-101389286D01*
X120986905Y-101341667D01*
X120796429Y-101294048D01*
X120558333Y-101294048D01*
X120367857Y-101341667D01*
X120272619Y-101389286D01*
X120225000Y-101436905D01*
X120177381Y-101532143D01*
X121177381Y-102817858D02*
X121177381Y-102246429D01*
X121177381Y-102532143D02*
X120177381Y-102532143D01*
X120320238Y-102436905D01*
X120415476Y-102341667D01*
X120463095Y-102246429D01*
X121177381Y-103151191D02*
X120510714Y-103675001D01*
X120510714Y-103151191D02*
X121177381Y-103675001D01*
X120177381Y-104246429D02*
X120177381Y-104341668D01*
X120225000Y-104436906D01*
X120272619Y-104484525D01*
X120367857Y-104532144D01*
X120558333Y-104579763D01*
X120796429Y-104579763D01*
X120986905Y-104532144D01*
X121082143Y-104484525D01*
X121129762Y-104436906D01*
X121177381Y-104341668D01*
X121177381Y-104246429D01*
X121129762Y-104151191D01*
X121082143Y-104103572D01*
X120986905Y-104055953D01*
X120796429Y-104008334D01*
X120558333Y-104008334D01*
X120367857Y-104055953D01*
X120272619Y-104103572D01*
X120225000Y-104151191D01*
X120177381Y-104246429D01*
X120177381Y-105436906D02*
X120177381Y-105246429D01*
X120225000Y-105151191D01*
X120272619Y-105103572D01*
X120415476Y-105008334D01*
X120605952Y-104960715D01*
X120986905Y-104960715D01*
X121082143Y-105008334D01*
X121129762Y-105055953D01*
X121177381Y-105151191D01*
X121177381Y-105341668D01*
X121129762Y-105436906D01*
X121082143Y-105484525D01*
X120986905Y-105532144D01*
X120748810Y-105532144D01*
X120653571Y-105484525D01*
X120605952Y-105436906D01*
X120558333Y-105341668D01*
X120558333Y-105151191D01*
X120605952Y-105055953D01*
X120653571Y-105008334D01*
X120748810Y-104960715D01*
X108734075Y-71538103D02*
X108781694Y-71585722D01*
X108924551Y-71633341D01*
X109019789Y-71633341D01*
X109162647Y-71585722D01*
X109257885Y-71490484D01*
X109305504Y-71395246D01*
X109353123Y-71204770D01*
X109353123Y-71061912D01*
X109305504Y-70871436D01*
X109257885Y-70776198D01*
X109162647Y-70680960D01*
X109019789Y-70633341D01*
X108924551Y-70633341D01*
X108781694Y-70680960D01*
X108734075Y-70728579D01*
X108162647Y-71633341D02*
X108257885Y-71585722D01*
X108305504Y-71538103D01*
X108353123Y-71442865D01*
X108353123Y-71157150D01*
X108305504Y-71061912D01*
X108257885Y-71014293D01*
X108162647Y-70966674D01*
X108019789Y-70966674D01*
X107924551Y-71014293D01*
X107876932Y-71061912D01*
X107829313Y-71157150D01*
X107829313Y-71442865D01*
X107876932Y-71538103D01*
X107924551Y-71585722D01*
X108019789Y-71633341D01*
X108162647Y-71633341D01*
X107400742Y-70966674D02*
X107400742Y-71633341D01*
X107400742Y-71061912D02*
X107353123Y-71014293D01*
X107257885Y-70966674D01*
X107115027Y-70966674D01*
X107019789Y-71014293D01*
X106972170Y-71109531D01*
X106972170Y-71633341D01*
X106495980Y-70966674D02*
X106495980Y-71633341D01*
X106495980Y-71061912D02*
X106448361Y-71014293D01*
X106353123Y-70966674D01*
X106210265Y-70966674D01*
X106115027Y-71014293D01*
X106067408Y-71109531D01*
X106067408Y-71633341D01*
X105829313Y-71728579D02*
X105067408Y-71728579D01*
X104638837Y-70633341D02*
X104543598Y-70633341D01*
X104448360Y-70680960D01*
X104400741Y-70728579D01*
X104353122Y-70823817D01*
X104305503Y-71014293D01*
X104305503Y-71252389D01*
X104353122Y-71442865D01*
X104400741Y-71538103D01*
X104448360Y-71585722D01*
X104543598Y-71633341D01*
X104638837Y-71633341D01*
X104734075Y-71585722D01*
X104781694Y-71538103D01*
X104829313Y-71442865D01*
X104876932Y-71252389D01*
X104876932Y-71014293D01*
X104829313Y-70823817D01*
X104781694Y-70728579D01*
X104734075Y-70680960D01*
X104638837Y-70633341D01*
X103353122Y-71633341D02*
X103924551Y-71633341D01*
X103638837Y-71633341D02*
X103638837Y-70633341D01*
X103734075Y-70776198D01*
X103829313Y-70871436D01*
X103924551Y-70919055D01*
X103019789Y-71633341D02*
X102495979Y-70966674D01*
X103019789Y-70966674D02*
X102495979Y-71633341D01*
X101924551Y-70633341D02*
X101829312Y-70633341D01*
X101734074Y-70680960D01*
X101686455Y-70728579D01*
X101638836Y-70823817D01*
X101591217Y-71014293D01*
X101591217Y-71252389D01*
X101638836Y-71442865D01*
X101686455Y-71538103D01*
X101734074Y-71585722D01*
X101829312Y-71633341D01*
X101924551Y-71633341D01*
X102019789Y-71585722D01*
X102067408Y-71538103D01*
X102115027Y-71442865D01*
X102162646Y-71252389D01*
X102162646Y-71014293D01*
X102115027Y-70823817D01*
X102067408Y-70728579D01*
X102019789Y-70680960D01*
X101924551Y-70633341D01*
X100638836Y-71633341D02*
X101210265Y-71633341D01*
X100924551Y-71633341D02*
X100924551Y-70633341D01*
X101019789Y-70776198D01*
X101115027Y-70871436D01*
X101210265Y-70919055D01*
X108731535Y-85000103D02*
X108779154Y-85047722D01*
X108922011Y-85095341D01*
X109017249Y-85095341D01*
X109160107Y-85047722D01*
X109255345Y-84952484D01*
X109302964Y-84857246D01*
X109350583Y-84666770D01*
X109350583Y-84523912D01*
X109302964Y-84333436D01*
X109255345Y-84238198D01*
X109160107Y-84142960D01*
X109017249Y-84095341D01*
X108922011Y-84095341D01*
X108779154Y-84142960D01*
X108731535Y-84190579D01*
X108160107Y-85095341D02*
X108255345Y-85047722D01*
X108302964Y-85000103D01*
X108350583Y-84904865D01*
X108350583Y-84619150D01*
X108302964Y-84523912D01*
X108255345Y-84476293D01*
X108160107Y-84428674D01*
X108017249Y-84428674D01*
X107922011Y-84476293D01*
X107874392Y-84523912D01*
X107826773Y-84619150D01*
X107826773Y-84904865D01*
X107874392Y-85000103D01*
X107922011Y-85047722D01*
X108017249Y-85095341D01*
X108160107Y-85095341D01*
X107398202Y-84428674D02*
X107398202Y-85095341D01*
X107398202Y-84523912D02*
X107350583Y-84476293D01*
X107255345Y-84428674D01*
X107112487Y-84428674D01*
X107017249Y-84476293D01*
X106969630Y-84571531D01*
X106969630Y-85095341D01*
X106493440Y-84428674D02*
X106493440Y-85095341D01*
X106493440Y-84523912D02*
X106445821Y-84476293D01*
X106350583Y-84428674D01*
X106207725Y-84428674D01*
X106112487Y-84476293D01*
X106064868Y-84571531D01*
X106064868Y-85095341D01*
X105826773Y-85190579D02*
X105064868Y-85190579D01*
X104636297Y-84095341D02*
X104541058Y-84095341D01*
X104445820Y-84142960D01*
X104398201Y-84190579D01*
X104350582Y-84285817D01*
X104302963Y-84476293D01*
X104302963Y-84714389D01*
X104350582Y-84904865D01*
X104398201Y-85000103D01*
X104445820Y-85047722D01*
X104541058Y-85095341D01*
X104636297Y-85095341D01*
X104731535Y-85047722D01*
X104779154Y-85000103D01*
X104826773Y-84904865D01*
X104874392Y-84714389D01*
X104874392Y-84476293D01*
X104826773Y-84285817D01*
X104779154Y-84190579D01*
X104731535Y-84142960D01*
X104636297Y-84095341D01*
X103350582Y-85095341D02*
X103922011Y-85095341D01*
X103636297Y-85095341D02*
X103636297Y-84095341D01*
X103731535Y-84238198D01*
X103826773Y-84333436D01*
X103922011Y-84381055D01*
X103017249Y-85095341D02*
X102493439Y-84428674D01*
X103017249Y-84428674D02*
X102493439Y-85095341D01*
X101922011Y-84095341D02*
X101826772Y-84095341D01*
X101731534Y-84142960D01*
X101683915Y-84190579D01*
X101636296Y-84285817D01*
X101588677Y-84476293D01*
X101588677Y-84714389D01*
X101636296Y-84904865D01*
X101683915Y-85000103D01*
X101731534Y-85047722D01*
X101826772Y-85095341D01*
X101922011Y-85095341D01*
X102017249Y-85047722D01*
X102064868Y-85000103D01*
X102112487Y-84904865D01*
X102160106Y-84714389D01*
X102160106Y-84476293D01*
X102112487Y-84285817D01*
X102064868Y-84190579D01*
X102017249Y-84142960D01*
X101922011Y-84095341D01*
X100636296Y-85095341D02*
X101207725Y-85095341D01*
X100922011Y-85095341D02*
X100922011Y-84095341D01*
X101017249Y-84238198D01*
X101112487Y-84333436D01*
X101207725Y-84381055D01*
X108731535Y-112178103D02*
X108779154Y-112225722D01*
X108922011Y-112273341D01*
X109017249Y-112273341D01*
X109160107Y-112225722D01*
X109255345Y-112130484D01*
X109302964Y-112035246D01*
X109350583Y-111844770D01*
X109350583Y-111701912D01*
X109302964Y-111511436D01*
X109255345Y-111416198D01*
X109160107Y-111320960D01*
X109017249Y-111273341D01*
X108922011Y-111273341D01*
X108779154Y-111320960D01*
X108731535Y-111368579D01*
X108160107Y-112273341D02*
X108255345Y-112225722D01*
X108302964Y-112178103D01*
X108350583Y-112082865D01*
X108350583Y-111797150D01*
X108302964Y-111701912D01*
X108255345Y-111654293D01*
X108160107Y-111606674D01*
X108017249Y-111606674D01*
X107922011Y-111654293D01*
X107874392Y-111701912D01*
X107826773Y-111797150D01*
X107826773Y-112082865D01*
X107874392Y-112178103D01*
X107922011Y-112225722D01*
X108017249Y-112273341D01*
X108160107Y-112273341D01*
X107398202Y-111606674D02*
X107398202Y-112273341D01*
X107398202Y-111701912D02*
X107350583Y-111654293D01*
X107255345Y-111606674D01*
X107112487Y-111606674D01*
X107017249Y-111654293D01*
X106969630Y-111749531D01*
X106969630Y-112273341D01*
X106493440Y-111606674D02*
X106493440Y-112273341D01*
X106493440Y-111701912D02*
X106445821Y-111654293D01*
X106350583Y-111606674D01*
X106207725Y-111606674D01*
X106112487Y-111654293D01*
X106064868Y-111749531D01*
X106064868Y-112273341D01*
X105826773Y-112368579D02*
X105064868Y-112368579D01*
X104636297Y-111273341D02*
X104541058Y-111273341D01*
X104445820Y-111320960D01*
X104398201Y-111368579D01*
X104350582Y-111463817D01*
X104302963Y-111654293D01*
X104302963Y-111892389D01*
X104350582Y-112082865D01*
X104398201Y-112178103D01*
X104445820Y-112225722D01*
X104541058Y-112273341D01*
X104636297Y-112273341D01*
X104731535Y-112225722D01*
X104779154Y-112178103D01*
X104826773Y-112082865D01*
X104874392Y-111892389D01*
X104874392Y-111654293D01*
X104826773Y-111463817D01*
X104779154Y-111368579D01*
X104731535Y-111320960D01*
X104636297Y-111273341D01*
X103350582Y-112273341D02*
X103922011Y-112273341D01*
X103636297Y-112273341D02*
X103636297Y-111273341D01*
X103731535Y-111416198D01*
X103826773Y-111511436D01*
X103922011Y-111559055D01*
X103017249Y-112273341D02*
X102493439Y-111606674D01*
X103017249Y-111606674D02*
X102493439Y-112273341D01*
X101922011Y-111273341D02*
X101826772Y-111273341D01*
X101731534Y-111320960D01*
X101683915Y-111368579D01*
X101636296Y-111463817D01*
X101588677Y-111654293D01*
X101588677Y-111892389D01*
X101636296Y-112082865D01*
X101683915Y-112178103D01*
X101731534Y-112225722D01*
X101826772Y-112273341D01*
X101922011Y-112273341D01*
X102017249Y-112225722D01*
X102064868Y-112178103D01*
X102112487Y-112082865D01*
X102160106Y-111892389D01*
X102160106Y-111654293D01*
X102112487Y-111463817D01*
X102064868Y-111368579D01*
X102017249Y-111320960D01*
X101922011Y-111273341D01*
X100636296Y-112273341D02*
X101207725Y-112273341D01*
X100922011Y-112273341D02*
X100922011Y-111273341D01*
X101017249Y-111416198D01*
X101112487Y-111511436D01*
X101207725Y-111559055D01*
X108731535Y-123862103D02*
X108779154Y-123909722D01*
X108922011Y-123957341D01*
X109017249Y-123957341D01*
X109160107Y-123909722D01*
X109255345Y-123814484D01*
X109302964Y-123719246D01*
X109350583Y-123528770D01*
X109350583Y-123385912D01*
X109302964Y-123195436D01*
X109255345Y-123100198D01*
X109160107Y-123004960D01*
X109017249Y-122957341D01*
X108922011Y-122957341D01*
X108779154Y-123004960D01*
X108731535Y-123052579D01*
X108160107Y-123957341D02*
X108255345Y-123909722D01*
X108302964Y-123862103D01*
X108350583Y-123766865D01*
X108350583Y-123481150D01*
X108302964Y-123385912D01*
X108255345Y-123338293D01*
X108160107Y-123290674D01*
X108017249Y-123290674D01*
X107922011Y-123338293D01*
X107874392Y-123385912D01*
X107826773Y-123481150D01*
X107826773Y-123766865D01*
X107874392Y-123862103D01*
X107922011Y-123909722D01*
X108017249Y-123957341D01*
X108160107Y-123957341D01*
X107398202Y-123290674D02*
X107398202Y-123957341D01*
X107398202Y-123385912D02*
X107350583Y-123338293D01*
X107255345Y-123290674D01*
X107112487Y-123290674D01*
X107017249Y-123338293D01*
X106969630Y-123433531D01*
X106969630Y-123957341D01*
X106493440Y-123290674D02*
X106493440Y-123957341D01*
X106493440Y-123385912D02*
X106445821Y-123338293D01*
X106350583Y-123290674D01*
X106207725Y-123290674D01*
X106112487Y-123338293D01*
X106064868Y-123433531D01*
X106064868Y-123957341D01*
X105826773Y-124052579D02*
X105064868Y-124052579D01*
X104636297Y-122957341D02*
X104541058Y-122957341D01*
X104445820Y-123004960D01*
X104398201Y-123052579D01*
X104350582Y-123147817D01*
X104302963Y-123338293D01*
X104302963Y-123576389D01*
X104350582Y-123766865D01*
X104398201Y-123862103D01*
X104445820Y-123909722D01*
X104541058Y-123957341D01*
X104636297Y-123957341D01*
X104731535Y-123909722D01*
X104779154Y-123862103D01*
X104826773Y-123766865D01*
X104874392Y-123576389D01*
X104874392Y-123338293D01*
X104826773Y-123147817D01*
X104779154Y-123052579D01*
X104731535Y-123004960D01*
X104636297Y-122957341D01*
X103350582Y-123957341D02*
X103922011Y-123957341D01*
X103636297Y-123957341D02*
X103636297Y-122957341D01*
X103731535Y-123100198D01*
X103826773Y-123195436D01*
X103922011Y-123243055D01*
X103017249Y-123957341D02*
X102493439Y-123290674D01*
X103017249Y-123290674D02*
X102493439Y-123957341D01*
X101922011Y-122957341D02*
X101826772Y-122957341D01*
X101731534Y-123004960D01*
X101683915Y-123052579D01*
X101636296Y-123147817D01*
X101588677Y-123338293D01*
X101588677Y-123576389D01*
X101636296Y-123766865D01*
X101683915Y-123862103D01*
X101731534Y-123909722D01*
X101826772Y-123957341D01*
X101922011Y-123957341D01*
X102017249Y-123909722D01*
X102064868Y-123862103D01*
X102112487Y-123766865D01*
X102160106Y-123576389D01*
X102160106Y-123338293D01*
X102112487Y-123147817D01*
X102064868Y-123052579D01*
X102017249Y-123004960D01*
X101922011Y-122957341D01*
X100636296Y-123957341D02*
X101207725Y-123957341D01*
X100922011Y-123957341D02*
X100922011Y-122957341D01*
X101017249Y-123100198D01*
X101112487Y-123195436D01*
X101207725Y-123243055D01*
X108731535Y-150786103D02*
X108779154Y-150833722D01*
X108922011Y-150881341D01*
X109017249Y-150881341D01*
X109160107Y-150833722D01*
X109255345Y-150738484D01*
X109302964Y-150643246D01*
X109350583Y-150452770D01*
X109350583Y-150309912D01*
X109302964Y-150119436D01*
X109255345Y-150024198D01*
X109160107Y-149928960D01*
X109017249Y-149881341D01*
X108922011Y-149881341D01*
X108779154Y-149928960D01*
X108731535Y-149976579D01*
X108160107Y-150881341D02*
X108255345Y-150833722D01*
X108302964Y-150786103D01*
X108350583Y-150690865D01*
X108350583Y-150405150D01*
X108302964Y-150309912D01*
X108255345Y-150262293D01*
X108160107Y-150214674D01*
X108017249Y-150214674D01*
X107922011Y-150262293D01*
X107874392Y-150309912D01*
X107826773Y-150405150D01*
X107826773Y-150690865D01*
X107874392Y-150786103D01*
X107922011Y-150833722D01*
X108017249Y-150881341D01*
X108160107Y-150881341D01*
X107398202Y-150214674D02*
X107398202Y-150881341D01*
X107398202Y-150309912D02*
X107350583Y-150262293D01*
X107255345Y-150214674D01*
X107112487Y-150214674D01*
X107017249Y-150262293D01*
X106969630Y-150357531D01*
X106969630Y-150881341D01*
X106493440Y-150214674D02*
X106493440Y-150881341D01*
X106493440Y-150309912D02*
X106445821Y-150262293D01*
X106350583Y-150214674D01*
X106207725Y-150214674D01*
X106112487Y-150262293D01*
X106064868Y-150357531D01*
X106064868Y-150881341D01*
X105826773Y-150976579D02*
X105064868Y-150976579D01*
X104636297Y-149881341D02*
X104541058Y-149881341D01*
X104445820Y-149928960D01*
X104398201Y-149976579D01*
X104350582Y-150071817D01*
X104302963Y-150262293D01*
X104302963Y-150500389D01*
X104350582Y-150690865D01*
X104398201Y-150786103D01*
X104445820Y-150833722D01*
X104541058Y-150881341D01*
X104636297Y-150881341D01*
X104731535Y-150833722D01*
X104779154Y-150786103D01*
X104826773Y-150690865D01*
X104874392Y-150500389D01*
X104874392Y-150262293D01*
X104826773Y-150071817D01*
X104779154Y-149976579D01*
X104731535Y-149928960D01*
X104636297Y-149881341D01*
X103350582Y-150881341D02*
X103922011Y-150881341D01*
X103636297Y-150881341D02*
X103636297Y-149881341D01*
X103731535Y-150024198D01*
X103826773Y-150119436D01*
X103922011Y-150167055D01*
X103017249Y-150881341D02*
X102493439Y-150214674D01*
X103017249Y-150214674D02*
X102493439Y-150881341D01*
X101922011Y-149881341D02*
X101826772Y-149881341D01*
X101731534Y-149928960D01*
X101683915Y-149976579D01*
X101636296Y-150071817D01*
X101588677Y-150262293D01*
X101588677Y-150500389D01*
X101636296Y-150690865D01*
X101683915Y-150786103D01*
X101731534Y-150833722D01*
X101826772Y-150881341D01*
X101922011Y-150881341D01*
X102017249Y-150833722D01*
X102064868Y-150786103D01*
X102112487Y-150690865D01*
X102160106Y-150500389D01*
X102160106Y-150262293D01*
X102112487Y-150071817D01*
X102064868Y-149976579D01*
X102017249Y-149928960D01*
X101922011Y-149881341D01*
X100636296Y-150881341D02*
X101207725Y-150881341D01*
X100922011Y-150881341D02*
X100922011Y-149881341D01*
X101017249Y-150024198D01*
X101112487Y-150119436D01*
X101207725Y-150167055D01*
X187979535Y-71538103D02*
X188027154Y-71585722D01*
X188170011Y-71633341D01*
X188265249Y-71633341D01*
X188408107Y-71585722D01*
X188503345Y-71490484D01*
X188550964Y-71395246D01*
X188598583Y-71204770D01*
X188598583Y-71061912D01*
X188550964Y-70871436D01*
X188503345Y-70776198D01*
X188408107Y-70680960D01*
X188265249Y-70633341D01*
X188170011Y-70633341D01*
X188027154Y-70680960D01*
X187979535Y-70728579D01*
X187408107Y-71633341D02*
X187503345Y-71585722D01*
X187550964Y-71538103D01*
X187598583Y-71442865D01*
X187598583Y-71157150D01*
X187550964Y-71061912D01*
X187503345Y-71014293D01*
X187408107Y-70966674D01*
X187265249Y-70966674D01*
X187170011Y-71014293D01*
X187122392Y-71061912D01*
X187074773Y-71157150D01*
X187074773Y-71442865D01*
X187122392Y-71538103D01*
X187170011Y-71585722D01*
X187265249Y-71633341D01*
X187408107Y-71633341D01*
X186646202Y-70966674D02*
X186646202Y-71633341D01*
X186646202Y-71061912D02*
X186598583Y-71014293D01*
X186503345Y-70966674D01*
X186360487Y-70966674D01*
X186265249Y-71014293D01*
X186217630Y-71109531D01*
X186217630Y-71633341D01*
X185741440Y-70966674D02*
X185741440Y-71633341D01*
X185741440Y-71061912D02*
X185693821Y-71014293D01*
X185598583Y-70966674D01*
X185455725Y-70966674D01*
X185360487Y-71014293D01*
X185312868Y-71109531D01*
X185312868Y-71633341D01*
X185074773Y-71728579D02*
X184312868Y-71728579D01*
X183884297Y-70633341D02*
X183789058Y-70633341D01*
X183693820Y-70680960D01*
X183646201Y-70728579D01*
X183598582Y-70823817D01*
X183550963Y-71014293D01*
X183550963Y-71252389D01*
X183598582Y-71442865D01*
X183646201Y-71538103D01*
X183693820Y-71585722D01*
X183789058Y-71633341D01*
X183884297Y-71633341D01*
X183979535Y-71585722D01*
X184027154Y-71538103D01*
X184074773Y-71442865D01*
X184122392Y-71252389D01*
X184122392Y-71014293D01*
X184074773Y-70823817D01*
X184027154Y-70728579D01*
X183979535Y-70680960D01*
X183884297Y-70633341D01*
X182598582Y-71633341D02*
X183170011Y-71633341D01*
X182884297Y-71633341D02*
X182884297Y-70633341D01*
X182979535Y-70776198D01*
X183074773Y-70871436D01*
X183170011Y-70919055D01*
X182265249Y-71633341D02*
X181741439Y-70966674D01*
X182265249Y-70966674D02*
X181741439Y-71633341D01*
X181170011Y-70633341D02*
X181074772Y-70633341D01*
X180979534Y-70680960D01*
X180931915Y-70728579D01*
X180884296Y-70823817D01*
X180836677Y-71014293D01*
X180836677Y-71252389D01*
X180884296Y-71442865D01*
X180931915Y-71538103D01*
X180979534Y-71585722D01*
X181074772Y-71633341D01*
X181170011Y-71633341D01*
X181265249Y-71585722D01*
X181312868Y-71538103D01*
X181360487Y-71442865D01*
X181408106Y-71252389D01*
X181408106Y-71014293D01*
X181360487Y-70823817D01*
X181312868Y-70728579D01*
X181265249Y-70680960D01*
X181170011Y-70633341D01*
X179884296Y-71633341D02*
X180455725Y-71633341D01*
X180170011Y-71633341D02*
X180170011Y-70633341D01*
X180265249Y-70776198D01*
X180360487Y-70871436D01*
X180455725Y-70919055D01*
X187979535Y-85000103D02*
X188027154Y-85047722D01*
X188170011Y-85095341D01*
X188265249Y-85095341D01*
X188408107Y-85047722D01*
X188503345Y-84952484D01*
X188550964Y-84857246D01*
X188598583Y-84666770D01*
X188598583Y-84523912D01*
X188550964Y-84333436D01*
X188503345Y-84238198D01*
X188408107Y-84142960D01*
X188265249Y-84095341D01*
X188170011Y-84095341D01*
X188027154Y-84142960D01*
X187979535Y-84190579D01*
X187408107Y-85095341D02*
X187503345Y-85047722D01*
X187550964Y-85000103D01*
X187598583Y-84904865D01*
X187598583Y-84619150D01*
X187550964Y-84523912D01*
X187503345Y-84476293D01*
X187408107Y-84428674D01*
X187265249Y-84428674D01*
X187170011Y-84476293D01*
X187122392Y-84523912D01*
X187074773Y-84619150D01*
X187074773Y-84904865D01*
X187122392Y-85000103D01*
X187170011Y-85047722D01*
X187265249Y-85095341D01*
X187408107Y-85095341D01*
X186646202Y-84428674D02*
X186646202Y-85095341D01*
X186646202Y-84523912D02*
X186598583Y-84476293D01*
X186503345Y-84428674D01*
X186360487Y-84428674D01*
X186265249Y-84476293D01*
X186217630Y-84571531D01*
X186217630Y-85095341D01*
X185741440Y-84428674D02*
X185741440Y-85095341D01*
X185741440Y-84523912D02*
X185693821Y-84476293D01*
X185598583Y-84428674D01*
X185455725Y-84428674D01*
X185360487Y-84476293D01*
X185312868Y-84571531D01*
X185312868Y-85095341D01*
X185074773Y-85190579D02*
X184312868Y-85190579D01*
X183884297Y-84095341D02*
X183789058Y-84095341D01*
X183693820Y-84142960D01*
X183646201Y-84190579D01*
X183598582Y-84285817D01*
X183550963Y-84476293D01*
X183550963Y-84714389D01*
X183598582Y-84904865D01*
X183646201Y-85000103D01*
X183693820Y-85047722D01*
X183789058Y-85095341D01*
X183884297Y-85095341D01*
X183979535Y-85047722D01*
X184027154Y-85000103D01*
X184074773Y-84904865D01*
X184122392Y-84714389D01*
X184122392Y-84476293D01*
X184074773Y-84285817D01*
X184027154Y-84190579D01*
X183979535Y-84142960D01*
X183884297Y-84095341D01*
X182598582Y-85095341D02*
X183170011Y-85095341D01*
X182884297Y-85095341D02*
X182884297Y-84095341D01*
X182979535Y-84238198D01*
X183074773Y-84333436D01*
X183170011Y-84381055D01*
X182265249Y-85095341D02*
X181741439Y-84428674D01*
X182265249Y-84428674D02*
X181741439Y-85095341D01*
X181170011Y-84095341D02*
X181074772Y-84095341D01*
X180979534Y-84142960D01*
X180931915Y-84190579D01*
X180884296Y-84285817D01*
X180836677Y-84476293D01*
X180836677Y-84714389D01*
X180884296Y-84904865D01*
X180931915Y-85000103D01*
X180979534Y-85047722D01*
X181074772Y-85095341D01*
X181170011Y-85095341D01*
X181265249Y-85047722D01*
X181312868Y-85000103D01*
X181360487Y-84904865D01*
X181408106Y-84714389D01*
X181408106Y-84476293D01*
X181360487Y-84285817D01*
X181312868Y-84190579D01*
X181265249Y-84142960D01*
X181170011Y-84095341D01*
X179884296Y-85095341D02*
X180455725Y-85095341D01*
X180170011Y-85095341D02*
X180170011Y-84095341D01*
X180265249Y-84238198D01*
X180360487Y-84333436D01*
X180455725Y-84381055D01*
X187979535Y-112178103D02*
X188027154Y-112225722D01*
X188170011Y-112273341D01*
X188265249Y-112273341D01*
X188408107Y-112225722D01*
X188503345Y-112130484D01*
X188550964Y-112035246D01*
X188598583Y-111844770D01*
X188598583Y-111701912D01*
X188550964Y-111511436D01*
X188503345Y-111416198D01*
X188408107Y-111320960D01*
X188265249Y-111273341D01*
X188170011Y-111273341D01*
X188027154Y-111320960D01*
X187979535Y-111368579D01*
X187408107Y-112273341D02*
X187503345Y-112225722D01*
X187550964Y-112178103D01*
X187598583Y-112082865D01*
X187598583Y-111797150D01*
X187550964Y-111701912D01*
X187503345Y-111654293D01*
X187408107Y-111606674D01*
X187265249Y-111606674D01*
X187170011Y-111654293D01*
X187122392Y-111701912D01*
X187074773Y-111797150D01*
X187074773Y-112082865D01*
X187122392Y-112178103D01*
X187170011Y-112225722D01*
X187265249Y-112273341D01*
X187408107Y-112273341D01*
X186646202Y-111606674D02*
X186646202Y-112273341D01*
X186646202Y-111701912D02*
X186598583Y-111654293D01*
X186503345Y-111606674D01*
X186360487Y-111606674D01*
X186265249Y-111654293D01*
X186217630Y-111749531D01*
X186217630Y-112273341D01*
X185741440Y-111606674D02*
X185741440Y-112273341D01*
X185741440Y-111701912D02*
X185693821Y-111654293D01*
X185598583Y-111606674D01*
X185455725Y-111606674D01*
X185360487Y-111654293D01*
X185312868Y-111749531D01*
X185312868Y-112273341D01*
X185074773Y-112368579D02*
X184312868Y-112368579D01*
X183884297Y-111273341D02*
X183789058Y-111273341D01*
X183693820Y-111320960D01*
X183646201Y-111368579D01*
X183598582Y-111463817D01*
X183550963Y-111654293D01*
X183550963Y-111892389D01*
X183598582Y-112082865D01*
X183646201Y-112178103D01*
X183693820Y-112225722D01*
X183789058Y-112273341D01*
X183884297Y-112273341D01*
X183979535Y-112225722D01*
X184027154Y-112178103D01*
X184074773Y-112082865D01*
X184122392Y-111892389D01*
X184122392Y-111654293D01*
X184074773Y-111463817D01*
X184027154Y-111368579D01*
X183979535Y-111320960D01*
X183884297Y-111273341D01*
X182598582Y-112273341D02*
X183170011Y-112273341D01*
X182884297Y-112273341D02*
X182884297Y-111273341D01*
X182979535Y-111416198D01*
X183074773Y-111511436D01*
X183170011Y-111559055D01*
X182265249Y-112273341D02*
X181741439Y-111606674D01*
X182265249Y-111606674D02*
X181741439Y-112273341D01*
X181170011Y-111273341D02*
X181074772Y-111273341D01*
X180979534Y-111320960D01*
X180931915Y-111368579D01*
X180884296Y-111463817D01*
X180836677Y-111654293D01*
X180836677Y-111892389D01*
X180884296Y-112082865D01*
X180931915Y-112178103D01*
X180979534Y-112225722D01*
X181074772Y-112273341D01*
X181170011Y-112273341D01*
X181265249Y-112225722D01*
X181312868Y-112178103D01*
X181360487Y-112082865D01*
X181408106Y-111892389D01*
X181408106Y-111654293D01*
X181360487Y-111463817D01*
X181312868Y-111368579D01*
X181265249Y-111320960D01*
X181170011Y-111273341D01*
X179884296Y-112273341D02*
X180455725Y-112273341D01*
X180170011Y-112273341D02*
X180170011Y-111273341D01*
X180265249Y-111416198D01*
X180360487Y-111511436D01*
X180455725Y-111559055D01*
X187979535Y-123862103D02*
X188027154Y-123909722D01*
X188170011Y-123957341D01*
X188265249Y-123957341D01*
X188408107Y-123909722D01*
X188503345Y-123814484D01*
X188550964Y-123719246D01*
X188598583Y-123528770D01*
X188598583Y-123385912D01*
X188550964Y-123195436D01*
X188503345Y-123100198D01*
X188408107Y-123004960D01*
X188265249Y-122957341D01*
X188170011Y-122957341D01*
X188027154Y-123004960D01*
X187979535Y-123052579D01*
X187408107Y-123957341D02*
X187503345Y-123909722D01*
X187550964Y-123862103D01*
X187598583Y-123766865D01*
X187598583Y-123481150D01*
X187550964Y-123385912D01*
X187503345Y-123338293D01*
X187408107Y-123290674D01*
X187265249Y-123290674D01*
X187170011Y-123338293D01*
X187122392Y-123385912D01*
X187074773Y-123481150D01*
X187074773Y-123766865D01*
X187122392Y-123862103D01*
X187170011Y-123909722D01*
X187265249Y-123957341D01*
X187408107Y-123957341D01*
X186646202Y-123290674D02*
X186646202Y-123957341D01*
X186646202Y-123385912D02*
X186598583Y-123338293D01*
X186503345Y-123290674D01*
X186360487Y-123290674D01*
X186265249Y-123338293D01*
X186217630Y-123433531D01*
X186217630Y-123957341D01*
X185741440Y-123290674D02*
X185741440Y-123957341D01*
X185741440Y-123385912D02*
X185693821Y-123338293D01*
X185598583Y-123290674D01*
X185455725Y-123290674D01*
X185360487Y-123338293D01*
X185312868Y-123433531D01*
X185312868Y-123957341D01*
X185074773Y-124052579D02*
X184312868Y-124052579D01*
X183884297Y-122957341D02*
X183789058Y-122957341D01*
X183693820Y-123004960D01*
X183646201Y-123052579D01*
X183598582Y-123147817D01*
X183550963Y-123338293D01*
X183550963Y-123576389D01*
X183598582Y-123766865D01*
X183646201Y-123862103D01*
X183693820Y-123909722D01*
X183789058Y-123957341D01*
X183884297Y-123957341D01*
X183979535Y-123909722D01*
X184027154Y-123862103D01*
X184074773Y-123766865D01*
X184122392Y-123576389D01*
X184122392Y-123338293D01*
X184074773Y-123147817D01*
X184027154Y-123052579D01*
X183979535Y-123004960D01*
X183884297Y-122957341D01*
X182598582Y-123957341D02*
X183170011Y-123957341D01*
X182884297Y-123957341D02*
X182884297Y-122957341D01*
X182979535Y-123100198D01*
X183074773Y-123195436D01*
X183170011Y-123243055D01*
X182265249Y-123957341D02*
X181741439Y-123290674D01*
X182265249Y-123290674D02*
X181741439Y-123957341D01*
X181170011Y-122957341D02*
X181074772Y-122957341D01*
X180979534Y-123004960D01*
X180931915Y-123052579D01*
X180884296Y-123147817D01*
X180836677Y-123338293D01*
X180836677Y-123576389D01*
X180884296Y-123766865D01*
X180931915Y-123862103D01*
X180979534Y-123909722D01*
X181074772Y-123957341D01*
X181170011Y-123957341D01*
X181265249Y-123909722D01*
X181312868Y-123862103D01*
X181360487Y-123766865D01*
X181408106Y-123576389D01*
X181408106Y-123338293D01*
X181360487Y-123147817D01*
X181312868Y-123052579D01*
X181265249Y-123004960D01*
X181170011Y-122957341D01*
X179884296Y-123957341D02*
X180455725Y-123957341D01*
X180170011Y-123957341D02*
X180170011Y-122957341D01*
X180265249Y-123100198D01*
X180360487Y-123195436D01*
X180455725Y-123243055D01*
X187979535Y-150786103D02*
X188027154Y-150833722D01*
X188170011Y-150881341D01*
X188265249Y-150881341D01*
X188408107Y-150833722D01*
X188503345Y-150738484D01*
X188550964Y-150643246D01*
X188598583Y-150452770D01*
X188598583Y-150309912D01*
X188550964Y-150119436D01*
X188503345Y-150024198D01*
X188408107Y-149928960D01*
X188265249Y-149881341D01*
X188170011Y-149881341D01*
X188027154Y-149928960D01*
X187979535Y-149976579D01*
X187408107Y-150881341D02*
X187503345Y-150833722D01*
X187550964Y-150786103D01*
X187598583Y-150690865D01*
X187598583Y-150405150D01*
X187550964Y-150309912D01*
X187503345Y-150262293D01*
X187408107Y-150214674D01*
X187265249Y-150214674D01*
X187170011Y-150262293D01*
X187122392Y-150309912D01*
X187074773Y-150405150D01*
X187074773Y-150690865D01*
X187122392Y-150786103D01*
X187170011Y-150833722D01*
X187265249Y-150881341D01*
X187408107Y-150881341D01*
X186646202Y-150214674D02*
X186646202Y-150881341D01*
X186646202Y-150309912D02*
X186598583Y-150262293D01*
X186503345Y-150214674D01*
X186360487Y-150214674D01*
X186265249Y-150262293D01*
X186217630Y-150357531D01*
X186217630Y-150881341D01*
X185741440Y-150214674D02*
X185741440Y-150881341D01*
X185741440Y-150309912D02*
X185693821Y-150262293D01*
X185598583Y-150214674D01*
X185455725Y-150214674D01*
X185360487Y-150262293D01*
X185312868Y-150357531D01*
X185312868Y-150881341D01*
X185074773Y-150976579D02*
X184312868Y-150976579D01*
X183884297Y-149881341D02*
X183789058Y-149881341D01*
X183693820Y-149928960D01*
X183646201Y-149976579D01*
X183598582Y-150071817D01*
X183550963Y-150262293D01*
X183550963Y-150500389D01*
X183598582Y-150690865D01*
X183646201Y-150786103D01*
X183693820Y-150833722D01*
X183789058Y-150881341D01*
X183884297Y-150881341D01*
X183979535Y-150833722D01*
X184027154Y-150786103D01*
X184074773Y-150690865D01*
X184122392Y-150500389D01*
X184122392Y-150262293D01*
X184074773Y-150071817D01*
X184027154Y-149976579D01*
X183979535Y-149928960D01*
X183884297Y-149881341D01*
X182598582Y-150881341D02*
X183170011Y-150881341D01*
X182884297Y-150881341D02*
X182884297Y-149881341D01*
X182979535Y-150024198D01*
X183074773Y-150119436D01*
X183170011Y-150167055D01*
X182265249Y-150881341D02*
X181741439Y-150214674D01*
X182265249Y-150214674D02*
X181741439Y-150881341D01*
X181170011Y-149881341D02*
X181074772Y-149881341D01*
X180979534Y-149928960D01*
X180931915Y-149976579D01*
X180884296Y-150071817D01*
X180836677Y-150262293D01*
X180836677Y-150500389D01*
X180884296Y-150690865D01*
X180931915Y-150786103D01*
X180979534Y-150833722D01*
X181074772Y-150881341D01*
X181170011Y-150881341D01*
X181265249Y-150833722D01*
X181312868Y-150786103D01*
X181360487Y-150690865D01*
X181408106Y-150500389D01*
X181408106Y-150262293D01*
X181360487Y-150071817D01*
X181312868Y-149976579D01*
X181265249Y-149928960D01*
X181170011Y-149881341D01*
X179884296Y-150881341D02*
X180455725Y-150881341D01*
X180170011Y-150881341D02*
X180170011Y-149881341D01*
X180265249Y-150024198D01*
X180360487Y-150119436D01*
X180455725Y-150167055D01*
X121082143Y-136811905D02*
X121129762Y-136764286D01*
X121177381Y-136621429D01*
X121177381Y-136526191D01*
X121129762Y-136383333D01*
X121034524Y-136288095D01*
X120939286Y-136240476D01*
X120748810Y-136192857D01*
X120605952Y-136192857D01*
X120415476Y-136240476D01*
X120320238Y-136288095D01*
X120225000Y-136383333D01*
X120177381Y-136526191D01*
X120177381Y-136621429D01*
X120225000Y-136764286D01*
X120272619Y-136811905D01*
X121177381Y-137383333D02*
X121129762Y-137288095D01*
X121082143Y-137240476D01*
X120986905Y-137192857D01*
X120701190Y-137192857D01*
X120605952Y-137240476D01*
X120558333Y-137288095D01*
X120510714Y-137383333D01*
X120510714Y-137526191D01*
X120558333Y-137621429D01*
X120605952Y-137669048D01*
X120701190Y-137716667D01*
X120986905Y-137716667D01*
X121082143Y-137669048D01*
X121129762Y-137621429D01*
X121177381Y-137526191D01*
X121177381Y-137383333D01*
X120510714Y-138145238D02*
X121177381Y-138145238D01*
X120605952Y-138145238D02*
X120558333Y-138192857D01*
X120510714Y-138288095D01*
X120510714Y-138430953D01*
X120558333Y-138526191D01*
X120653571Y-138573810D01*
X121177381Y-138573810D01*
X120510714Y-139050000D02*
X121177381Y-139050000D01*
X120605952Y-139050000D02*
X120558333Y-139097619D01*
X120510714Y-139192857D01*
X120510714Y-139335715D01*
X120558333Y-139430953D01*
X120653571Y-139478572D01*
X121177381Y-139478572D01*
X121272619Y-139716667D02*
X121272619Y-140478572D01*
X120177381Y-140907143D02*
X120177381Y-141002382D01*
X120225000Y-141097620D01*
X120272619Y-141145239D01*
X120367857Y-141192858D01*
X120558333Y-141240477D01*
X120796429Y-141240477D01*
X120986905Y-141192858D01*
X121082143Y-141145239D01*
X121129762Y-141097620D01*
X121177381Y-141002382D01*
X121177381Y-140907143D01*
X121129762Y-140811905D01*
X121082143Y-140764286D01*
X120986905Y-140716667D01*
X120796429Y-140669048D01*
X120558333Y-140669048D01*
X120367857Y-140716667D01*
X120272619Y-140764286D01*
X120225000Y-140811905D01*
X120177381Y-140907143D01*
X121177381Y-142192858D02*
X121177381Y-141621429D01*
X121177381Y-141907143D02*
X120177381Y-141907143D01*
X120320238Y-141811905D01*
X120415476Y-141716667D01*
X120463095Y-141621429D01*
X121177381Y-142526191D02*
X120510714Y-143050001D01*
X120510714Y-142526191D02*
X121177381Y-143050001D01*
X120177381Y-143621429D02*
X120177381Y-143716668D01*
X120225000Y-143811906D01*
X120272619Y-143859525D01*
X120367857Y-143907144D01*
X120558333Y-143954763D01*
X120796429Y-143954763D01*
X120986905Y-143907144D01*
X121082143Y-143859525D01*
X121129762Y-143811906D01*
X121177381Y-143716668D01*
X121177381Y-143621429D01*
X121129762Y-143526191D01*
X121082143Y-143478572D01*
X120986905Y-143430953D01*
X120796429Y-143383334D01*
X120558333Y-143383334D01*
X120367857Y-143430953D01*
X120272619Y-143478572D01*
X120225000Y-143526191D01*
X120177381Y-143621429D01*
X120177381Y-144811906D02*
X120177381Y-144621429D01*
X120225000Y-144526191D01*
X120272619Y-144478572D01*
X120415476Y-144383334D01*
X120605952Y-144335715D01*
X120986905Y-144335715D01*
X121082143Y-144383334D01*
X121129762Y-144430953D01*
X121177381Y-144526191D01*
X121177381Y-144716668D01*
X121129762Y-144811906D01*
X121082143Y-144859525D01*
X120986905Y-144907144D01*
X120748810Y-144907144D01*
X120653571Y-144859525D01*
X120605952Y-144811906D01*
X120558333Y-144716668D01*
X120558333Y-144526191D01*
X120605952Y-144430953D01*
X120653571Y-144383334D01*
X120748810Y-144335715D01*
X173657143Y-97436905D02*
X173704762Y-97389286D01*
X173752381Y-97246429D01*
X173752381Y-97151191D01*
X173704762Y-97008333D01*
X173609524Y-96913095D01*
X173514286Y-96865476D01*
X173323810Y-96817857D01*
X173180952Y-96817857D01*
X172990476Y-96865476D01*
X172895238Y-96913095D01*
X172800000Y-97008333D01*
X172752381Y-97151191D01*
X172752381Y-97246429D01*
X172800000Y-97389286D01*
X172847619Y-97436905D01*
X173752381Y-98008333D02*
X173704762Y-97913095D01*
X173657143Y-97865476D01*
X173561905Y-97817857D01*
X173276190Y-97817857D01*
X173180952Y-97865476D01*
X173133333Y-97913095D01*
X173085714Y-98008333D01*
X173085714Y-98151191D01*
X173133333Y-98246429D01*
X173180952Y-98294048D01*
X173276190Y-98341667D01*
X173561905Y-98341667D01*
X173657143Y-98294048D01*
X173704762Y-98246429D01*
X173752381Y-98151191D01*
X173752381Y-98008333D01*
X173085714Y-98770238D02*
X173752381Y-98770238D01*
X173180952Y-98770238D02*
X173133333Y-98817857D01*
X173085714Y-98913095D01*
X173085714Y-99055953D01*
X173133333Y-99151191D01*
X173228571Y-99198810D01*
X173752381Y-99198810D01*
X173085714Y-99675000D02*
X173752381Y-99675000D01*
X173180952Y-99675000D02*
X173133333Y-99722619D01*
X173085714Y-99817857D01*
X173085714Y-99960715D01*
X173133333Y-100055953D01*
X173228571Y-100103572D01*
X173752381Y-100103572D01*
X173847619Y-100341667D02*
X173847619Y-101103572D01*
X172752381Y-101532143D02*
X172752381Y-101627382D01*
X172800000Y-101722620D01*
X172847619Y-101770239D01*
X172942857Y-101817858D01*
X173133333Y-101865477D01*
X173371429Y-101865477D01*
X173561905Y-101817858D01*
X173657143Y-101770239D01*
X173704762Y-101722620D01*
X173752381Y-101627382D01*
X173752381Y-101532143D01*
X173704762Y-101436905D01*
X173657143Y-101389286D01*
X173561905Y-101341667D01*
X173371429Y-101294048D01*
X173133333Y-101294048D01*
X172942857Y-101341667D01*
X172847619Y-101389286D01*
X172800000Y-101436905D01*
X172752381Y-101532143D01*
X173752381Y-102817858D02*
X173752381Y-102246429D01*
X173752381Y-102532143D02*
X172752381Y-102532143D01*
X172895238Y-102436905D01*
X172990476Y-102341667D01*
X173038095Y-102246429D01*
X173752381Y-103151191D02*
X173085714Y-103675001D01*
X173085714Y-103151191D02*
X173752381Y-103675001D01*
X172752381Y-104246429D02*
X172752381Y-104341668D01*
X172800000Y-104436906D01*
X172847619Y-104484525D01*
X172942857Y-104532144D01*
X173133333Y-104579763D01*
X173371429Y-104579763D01*
X173561905Y-104532144D01*
X173657143Y-104484525D01*
X173704762Y-104436906D01*
X173752381Y-104341668D01*
X173752381Y-104246429D01*
X173704762Y-104151191D01*
X173657143Y-104103572D01*
X173561905Y-104055953D01*
X173371429Y-104008334D01*
X173133333Y-104008334D01*
X172942857Y-104055953D01*
X172847619Y-104103572D01*
X172800000Y-104151191D01*
X172752381Y-104246429D01*
X172752381Y-105436906D02*
X172752381Y-105246429D01*
X172800000Y-105151191D01*
X172847619Y-105103572D01*
X172990476Y-105008334D01*
X173180952Y-104960715D01*
X173561905Y-104960715D01*
X173657143Y-105008334D01*
X173704762Y-105055953D01*
X173752381Y-105151191D01*
X173752381Y-105341668D01*
X173704762Y-105436906D01*
X173657143Y-105484525D01*
X173561905Y-105532144D01*
X173323810Y-105532144D01*
X173228571Y-105484525D01*
X173180952Y-105436906D01*
X173133333Y-105341668D01*
X173133333Y-105151191D01*
X173180952Y-105055953D01*
X173228571Y-105008334D01*
X173323810Y-104960715D01*
X173657143Y-136786905D02*
X173704762Y-136739286D01*
X173752381Y-136596429D01*
X173752381Y-136501191D01*
X173704762Y-136358333D01*
X173609524Y-136263095D01*
X173514286Y-136215476D01*
X173323810Y-136167857D01*
X173180952Y-136167857D01*
X172990476Y-136215476D01*
X172895238Y-136263095D01*
X172800000Y-136358333D01*
X172752381Y-136501191D01*
X172752381Y-136596429D01*
X172800000Y-136739286D01*
X172847619Y-136786905D01*
X173752381Y-137358333D02*
X173704762Y-137263095D01*
X173657143Y-137215476D01*
X173561905Y-137167857D01*
X173276190Y-137167857D01*
X173180952Y-137215476D01*
X173133333Y-137263095D01*
X173085714Y-137358333D01*
X173085714Y-137501191D01*
X173133333Y-137596429D01*
X173180952Y-137644048D01*
X173276190Y-137691667D01*
X173561905Y-137691667D01*
X173657143Y-137644048D01*
X173704762Y-137596429D01*
X173752381Y-137501191D01*
X173752381Y-137358333D01*
X173085714Y-138120238D02*
X173752381Y-138120238D01*
X173180952Y-138120238D02*
X173133333Y-138167857D01*
X173085714Y-138263095D01*
X173085714Y-138405953D01*
X173133333Y-138501191D01*
X173228571Y-138548810D01*
X173752381Y-138548810D01*
X173085714Y-139025000D02*
X173752381Y-139025000D01*
X173180952Y-139025000D02*
X173133333Y-139072619D01*
X173085714Y-139167857D01*
X173085714Y-139310715D01*
X173133333Y-139405953D01*
X173228571Y-139453572D01*
X173752381Y-139453572D01*
X173847619Y-139691667D02*
X173847619Y-140453572D01*
X172752381Y-140882143D02*
X172752381Y-140977382D01*
X172800000Y-141072620D01*
X172847619Y-141120239D01*
X172942857Y-141167858D01*
X173133333Y-141215477D01*
X173371429Y-141215477D01*
X173561905Y-141167858D01*
X173657143Y-141120239D01*
X173704762Y-141072620D01*
X173752381Y-140977382D01*
X173752381Y-140882143D01*
X173704762Y-140786905D01*
X173657143Y-140739286D01*
X173561905Y-140691667D01*
X173371429Y-140644048D01*
X173133333Y-140644048D01*
X172942857Y-140691667D01*
X172847619Y-140739286D01*
X172800000Y-140786905D01*
X172752381Y-140882143D01*
X173752381Y-142167858D02*
X173752381Y-141596429D01*
X173752381Y-141882143D02*
X172752381Y-141882143D01*
X172895238Y-141786905D01*
X172990476Y-141691667D01*
X173038095Y-141596429D01*
X173752381Y-142501191D02*
X173085714Y-143025001D01*
X173085714Y-142501191D02*
X173752381Y-143025001D01*
X172752381Y-143596429D02*
X172752381Y-143691668D01*
X172800000Y-143786906D01*
X172847619Y-143834525D01*
X172942857Y-143882144D01*
X173133333Y-143929763D01*
X173371429Y-143929763D01*
X173561905Y-143882144D01*
X173657143Y-143834525D01*
X173704762Y-143786906D01*
X173752381Y-143691668D01*
X173752381Y-143596429D01*
X173704762Y-143501191D01*
X173657143Y-143453572D01*
X173561905Y-143405953D01*
X173371429Y-143358334D01*
X173133333Y-143358334D01*
X172942857Y-143405953D01*
X172847619Y-143453572D01*
X172800000Y-143501191D01*
X172752381Y-143596429D01*
X172752381Y-144786906D02*
X172752381Y-144596429D01*
X172800000Y-144501191D01*
X172847619Y-144453572D01*
X172990476Y-144358334D01*
X173180952Y-144310715D01*
X173561905Y-144310715D01*
X173657143Y-144358334D01*
X173704762Y-144405953D01*
X173752381Y-144501191D01*
X173752381Y-144691668D01*
X173704762Y-144786906D01*
X173657143Y-144834525D01*
X173561905Y-144882144D01*
X173323810Y-144882144D01*
X173228571Y-144834525D01*
X173180952Y-144786906D01*
X173133333Y-144691668D01*
X173133333Y-144501191D01*
X173180952Y-144405953D01*
X173228571Y-144358334D01*
X173323810Y-144310715D01*
X190278096Y-85233571D02*
X190135239Y-85281190D01*
X190087620Y-85328810D01*
X190040001Y-85424048D01*
X190040001Y-85566905D01*
X190087620Y-85662143D01*
X190135239Y-85709762D01*
X190230477Y-85757381D01*
X190611430Y-85757381D01*
X190611430Y-84757381D01*
X190278096Y-84757381D01*
X190182858Y-84805000D01*
X190135239Y-84852619D01*
X190087620Y-84947857D01*
X190087620Y-85043095D01*
X190135239Y-85138333D01*
X190182858Y-85185952D01*
X190278096Y-85233571D01*
X190611430Y-85233571D01*
X189182858Y-85757381D02*
X189182858Y-85233571D01*
X189230477Y-85138333D01*
X189325715Y-85090714D01*
X189516192Y-85090714D01*
X189611430Y-85138333D01*
X189182858Y-85709762D02*
X189278096Y-85757381D01*
X189516192Y-85757381D01*
X189611430Y-85709762D01*
X189659049Y-85614524D01*
X189659049Y-85519286D01*
X189611430Y-85424048D01*
X189516192Y-85376429D01*
X189278096Y-85376429D01*
X189182858Y-85328810D01*
X188706668Y-85757381D02*
X188706668Y-85090714D01*
X188706668Y-85281190D02*
X188659049Y-85185952D01*
X188611430Y-85138333D01*
X188516192Y-85090714D01*
X188420953Y-85090714D01*
X188087620Y-85757381D02*
X188087620Y-85090714D01*
X188087620Y-85281190D02*
X188040001Y-85185952D01*
X187992382Y-85138333D01*
X187897144Y-85090714D01*
X187801905Y-85090714D01*
X187087619Y-85709762D02*
X187182857Y-85757381D01*
X187373334Y-85757381D01*
X187468572Y-85709762D01*
X187516191Y-85614524D01*
X187516191Y-85233571D01*
X187468572Y-85138333D01*
X187373334Y-85090714D01*
X187182857Y-85090714D01*
X187087619Y-85138333D01*
X187040000Y-85233571D01*
X187040000Y-85328810D01*
X187516191Y-85424048D01*
X186468572Y-85757381D02*
X186563810Y-85709762D01*
X186611429Y-85614524D01*
X186611429Y-84757381D01*
X186325714Y-85852619D02*
X185563809Y-85852619D01*
X185039999Y-84757381D02*
X185039999Y-85471667D01*
X185087619Y-85614524D01*
X185182857Y-85709762D01*
X185325714Y-85757381D01*
X185420952Y-85757381D01*
X184135237Y-85757381D02*
X184135237Y-85233571D01*
X184182856Y-85138333D01*
X184278094Y-85090714D01*
X184468571Y-85090714D01*
X184563809Y-85138333D01*
X184135237Y-85709762D02*
X184230475Y-85757381D01*
X184468571Y-85757381D01*
X184563809Y-85709762D01*
X184611428Y-85614524D01*
X184611428Y-85519286D01*
X184563809Y-85424048D01*
X184468571Y-85376429D01*
X184230475Y-85376429D01*
X184135237Y-85328810D01*
X183230475Y-85709762D02*
X183325713Y-85757381D01*
X183516190Y-85757381D01*
X183611428Y-85709762D01*
X183659047Y-85662143D01*
X183706666Y-85566905D01*
X183706666Y-85281190D01*
X183659047Y-85185952D01*
X183611428Y-85138333D01*
X183516190Y-85090714D01*
X183325713Y-85090714D01*
X183230475Y-85138333D01*
X182801904Y-85757381D02*
X182801904Y-84757381D01*
X182706666Y-85376429D02*
X182420951Y-85757381D01*
X182420951Y-85090714D02*
X182801904Y-85471667D01*
M02*
