G04 #@! TF.FileFunction,Soldermask,Top*
%FSLAX46Y46*%
G04 Gerber Fmt 4.6, Leading zero omitted, Abs format (unit mm)*
G04 Created by KiCad (PCBNEW 4.0.4-stable) date 12/10/17 00:47:25*
%MOMM*%
%LPD*%
G01*
G04 APERTURE LIST*
%ADD10C,0.250000*%
%ADD11C,3.600000*%
%ADD12C,2.100000*%
%ADD13R,1.400000X2.000000*%
%ADD14R,1.400000X1.650000*%
%ADD15R,2.600000X2.600000*%
%ADD16O,2.600000X2.600000*%
%ADD17O,8.400000X4.400000*%
%ADD18R,5.400000X5.400000*%
%ADD19R,4.400000X4.400000*%
%ADD20O,2.432000X2.127200*%
%ADD21R,2.432000X2.127200*%
%ADD22C,3.200000*%
%ADD23R,1.300000X1.200000*%
%ADD24R,2.100000X1.300000*%
%ADD25R,2.200000X2.200000*%
%ADD26O,2.200000X2.200000*%
%ADD27O,2.800000X2.100000*%
%ADD28R,2.800000X2.100000*%
%ADD29R,1.600000X1.300000*%
%ADD30R,4.200000X2.400000*%
%ADD31R,1.900000X2.400000*%
G04 APERTURE END LIST*
D10*
D11*
X128840000Y-115650000D03*
X145480000Y-82470000D03*
D12*
X127160000Y-121560000D03*
X147160000Y-121560000D03*
X147160000Y-76560000D03*
X127160000Y-76560000D03*
D13*
X175030000Y-118745000D03*
X178030000Y-118745000D03*
D14*
X175530000Y-113665000D03*
X177530000Y-113665000D03*
D15*
X118745000Y-121285000D03*
D16*
X118745000Y-108585000D03*
D17*
X178340000Y-100330000D03*
D18*
X186340000Y-100330000D03*
D19*
X183340000Y-95630000D03*
D20*
X117625000Y-101175000D03*
X117625000Y-98635000D03*
X117625000Y-96095000D03*
X117625000Y-93555000D03*
X117625000Y-91015000D03*
D21*
X117625000Y-88475000D03*
D22*
X102455980Y-68336160D03*
X107535980Y-68336160D03*
X102453440Y-81798160D03*
X107533440Y-81798160D03*
X102453440Y-108976160D03*
X107533440Y-108976160D03*
X102453440Y-120660160D03*
X107533440Y-120660160D03*
X102453440Y-147584160D03*
X107533440Y-147584160D03*
X181701440Y-68336160D03*
X186781440Y-68336160D03*
X181701440Y-81798160D03*
X186781440Y-81798160D03*
X181701440Y-108976160D03*
X186781440Y-108976160D03*
X181701440Y-120660160D03*
X186781440Y-120660160D03*
X181701440Y-147584160D03*
X186781440Y-147584160D03*
D20*
X117625000Y-140550000D03*
X117625000Y-138010000D03*
X117625000Y-135470000D03*
X117625000Y-132930000D03*
X117625000Y-130390000D03*
D21*
X117625000Y-127850000D03*
D20*
X170200000Y-101175000D03*
X170200000Y-98635000D03*
X170200000Y-96095000D03*
X170200000Y-93555000D03*
X170200000Y-91015000D03*
D21*
X170200000Y-88475000D03*
D20*
X170200000Y-140525000D03*
X170200000Y-137985000D03*
X170200000Y-135445000D03*
X170200000Y-132905000D03*
X170200000Y-130365000D03*
D21*
X170200000Y-127825000D03*
D23*
X106950000Y-100650000D03*
X106950000Y-102550000D03*
X108950000Y-101600000D03*
X106950000Y-94300000D03*
X106950000Y-96200000D03*
X108950000Y-95250000D03*
X106950000Y-87950000D03*
X106950000Y-89850000D03*
X108950000Y-88900000D03*
X106950000Y-73980000D03*
X106950000Y-75880000D03*
X108950000Y-74930000D03*
D24*
X102870000Y-100150000D03*
X102870000Y-103050000D03*
X102870000Y-93800000D03*
X102870000Y-96700000D03*
X102870000Y-87450000D03*
X102870000Y-90350000D03*
X102870000Y-73480000D03*
X102870000Y-76380000D03*
X113030000Y-100150000D03*
X113030000Y-103050000D03*
X113030000Y-93800000D03*
X113030000Y-96700000D03*
X113030000Y-87450000D03*
X113030000Y-90350000D03*
X113030000Y-73480000D03*
X113030000Y-76380000D03*
D25*
X181610000Y-125095000D03*
D26*
X179070000Y-125095000D03*
X176530000Y-125095000D03*
D27*
X74930000Y-71120000D03*
D28*
X97790000Y-104140000D03*
D27*
X74930000Y-73660000D03*
X97790000Y-101600000D03*
X74930000Y-76200000D03*
X97790000Y-99060000D03*
X74930000Y-78740000D03*
X97790000Y-96520000D03*
X74930000Y-81280000D03*
X97790000Y-93980000D03*
X74930000Y-83820000D03*
X97790000Y-91440000D03*
X74930000Y-86360000D03*
X97790000Y-88900000D03*
X74930000Y-88900000D03*
D28*
X97790000Y-86360000D03*
D27*
X74930000Y-91440000D03*
X97790000Y-83820000D03*
D28*
X74930000Y-93980000D03*
D27*
X97790000Y-81280000D03*
X74930000Y-96520000D03*
X97790000Y-78740000D03*
X74930000Y-99060000D03*
X97790000Y-76200000D03*
X74930000Y-101600000D03*
X97790000Y-73660000D03*
D28*
X74930000Y-104140000D03*
D27*
X97790000Y-71120000D03*
X74930000Y-106680000D03*
X97790000Y-106680000D03*
D11*
X96520000Y-67310000D03*
X96520000Y-110490000D03*
X76200000Y-110490000D03*
D29*
X118745000Y-116585000D03*
X118745000Y-113285000D03*
D30*
X179070000Y-136500000D03*
D31*
X179070000Y-130200000D03*
X176770000Y-130200000D03*
X181370000Y-130200000D03*
D17*
X178340000Y-90805000D03*
D18*
X186340000Y-90805000D03*
M02*
