G04 #@! TF.FileFunction,Copper,L2,Bot,Signal*
%FSLAX46Y46*%
G04 Gerber Fmt 4.6, Leading zero omitted, Abs format (unit mm)*
G04 Created by KiCad (PCBNEW 4.0.4-stable) date 12/10/17 00:47:25*
%MOMM*%
%LPD*%
G01*
G04 APERTURE LIST*
%ADD10C,0.250000*%
%ADD11C,1.700000*%
%ADD12R,2.200000X2.200000*%
%ADD13O,2.200000X2.200000*%
%ADD14O,8.000000X4.000000*%
%ADD15R,5.000000X5.000000*%
%ADD16R,4.000000X4.000000*%
%ADD17O,2.032000X1.727200*%
%ADD18R,2.032000X1.727200*%
%ADD19C,2.800000*%
%ADD20R,1.800000X1.800000*%
%ADD21O,1.800000X1.800000*%
%ADD22O,2.400000X1.700000*%
%ADD23R,2.400000X1.700000*%
%ADD24C,0.600000*%
%ADD25C,0.900000*%
%ADD26C,3.000000*%
%ADD27C,2.000000*%
%ADD28C,0.300000*%
%ADD29C,0.600000*%
%ADD30C,0.254000*%
G04 APERTURE END LIST*
D10*
D11*
X127160000Y-121560000D03*
X147160000Y-121560000D03*
X147160000Y-76560000D03*
X127160000Y-76560000D03*
D12*
X118745000Y-121285000D03*
D13*
X118745000Y-108585000D03*
D14*
X178340000Y-100330000D03*
D15*
X186340000Y-100330000D03*
D16*
X183340000Y-95630000D03*
D17*
X117625000Y-101175000D03*
X117625000Y-98635000D03*
X117625000Y-96095000D03*
X117625000Y-93555000D03*
X117625000Y-91015000D03*
D18*
X117625000Y-88475000D03*
D19*
X102455980Y-68336160D03*
X107535980Y-68336160D03*
X102453440Y-81798160D03*
X107533440Y-81798160D03*
X102453440Y-108976160D03*
X107533440Y-108976160D03*
X102453440Y-120660160D03*
X107533440Y-120660160D03*
X102453440Y-147584160D03*
X107533440Y-147584160D03*
X181701440Y-68336160D03*
X186781440Y-68336160D03*
X181701440Y-81798160D03*
X186781440Y-81798160D03*
X181701440Y-108976160D03*
X186781440Y-108976160D03*
X181701440Y-120660160D03*
X186781440Y-120660160D03*
X181701440Y-147584160D03*
X186781440Y-147584160D03*
D17*
X117625000Y-140550000D03*
X117625000Y-138010000D03*
X117625000Y-135470000D03*
X117625000Y-132930000D03*
X117625000Y-130390000D03*
D18*
X117625000Y-127850000D03*
D17*
X170200000Y-101175000D03*
X170200000Y-98635000D03*
X170200000Y-96095000D03*
X170200000Y-93555000D03*
X170200000Y-91015000D03*
D18*
X170200000Y-88475000D03*
D17*
X170200000Y-140525000D03*
X170200000Y-137985000D03*
X170200000Y-135445000D03*
X170200000Y-132905000D03*
X170200000Y-130365000D03*
D18*
X170200000Y-127825000D03*
D20*
X181610000Y-125095000D03*
D21*
X179070000Y-125095000D03*
X176530000Y-125095000D03*
D22*
X74930000Y-71120000D03*
D23*
X97790000Y-104140000D03*
D22*
X74930000Y-73660000D03*
X97790000Y-101600000D03*
X74930000Y-76200000D03*
X97790000Y-99060000D03*
X74930000Y-78740000D03*
X97790000Y-96520000D03*
X74930000Y-81280000D03*
X97790000Y-93980000D03*
X74930000Y-83820000D03*
X97790000Y-91440000D03*
X74930000Y-86360000D03*
X97790000Y-88900000D03*
X74930000Y-88900000D03*
D23*
X97790000Y-86360000D03*
D22*
X74930000Y-91440000D03*
X97790000Y-83820000D03*
D23*
X74930000Y-93980000D03*
D22*
X97790000Y-81280000D03*
X74930000Y-96520000D03*
X97790000Y-78740000D03*
X74930000Y-99060000D03*
X97790000Y-76200000D03*
X74930000Y-101600000D03*
X97790000Y-73660000D03*
D23*
X74930000Y-104140000D03*
D22*
X97790000Y-71120000D03*
X74930000Y-106680000D03*
X97790000Y-106680000D03*
D14*
X178340000Y-90805000D03*
D15*
X186340000Y-90805000D03*
D24*
X110490000Y-73406000D03*
X110490000Y-100076000D03*
X110490000Y-93726000D03*
X110490000Y-87376000D03*
X86360000Y-100965000D03*
X106934000Y-86614000D03*
X102870000Y-98679000D03*
X102870000Y-92202000D03*
X99949000Y-73533000D03*
X101092000Y-102997000D03*
X99822000Y-90297000D03*
D25*
X118745000Y-108585000D02*
X113665000Y-108585000D01*
X113665000Y-108585000D02*
X110490000Y-105410000D01*
X110490000Y-105410000D02*
X110490000Y-100076000D01*
X110490000Y-100076000D02*
X110490000Y-93726000D01*
X110490000Y-93726000D02*
X110490000Y-87376000D01*
X110490000Y-87376000D02*
X110490000Y-73406000D01*
D26*
X102453440Y-108976160D02*
X102453440Y-120660160D01*
X107533440Y-108976160D02*
X107533440Y-120660160D01*
X183340000Y-95630000D02*
X186340000Y-95630000D01*
X186085000Y-95885000D02*
X186340000Y-95885000D01*
X186340000Y-95630000D02*
X186085000Y-95885000D01*
X186340000Y-90805000D02*
X186340000Y-95885000D01*
X186340000Y-95885000D02*
X186340000Y-100330000D01*
D27*
X170200000Y-127825000D02*
X185230000Y-127825000D01*
X186781440Y-126273560D02*
X186781440Y-120660160D01*
X185230000Y-127825000D02*
X186781440Y-126273560D01*
D25*
X107533440Y-108976160D02*
X107706160Y-108976160D01*
D27*
X176530000Y-125095000D02*
X174625000Y-125095000D01*
X174625000Y-125095000D02*
X163195000Y-113665000D01*
D26*
X180340000Y-100330000D02*
X177165000Y-97155000D01*
X177165000Y-97155000D02*
X177165000Y-92710000D01*
X177165000Y-92710000D02*
X179070000Y-90805000D01*
X179070000Y-90805000D02*
X180340000Y-90805000D01*
X174625000Y-95885000D02*
X174625000Y-102235000D01*
X174625000Y-102235000D02*
X171450000Y-105410000D01*
X180340000Y-100330000D02*
X176530000Y-100330000D01*
X176530000Y-100330000D02*
X171450000Y-105410000D01*
X171450000Y-105410000D02*
X163195000Y-113665000D01*
X163195000Y-113665000D02*
X149860000Y-127000000D01*
X127160000Y-124620000D02*
X127160000Y-121560000D01*
X129540000Y-127000000D02*
X127160000Y-124620000D01*
X149860000Y-127000000D02*
X129540000Y-127000000D01*
X176530000Y-100330000D02*
X174625000Y-98425000D01*
X180340000Y-90805000D02*
X175895000Y-90805000D01*
X175895000Y-90805000D02*
X174625000Y-92075000D01*
X174625000Y-92075000D02*
X174625000Y-95885000D01*
X174625000Y-95885000D02*
X174625000Y-98425000D01*
X180340000Y-100330000D02*
X179705000Y-100330000D01*
D27*
X176530000Y-125095000D02*
X175895000Y-125095000D01*
D26*
X127160000Y-76560000D02*
X127160000Y-68336160D01*
X127127000Y-69342000D02*
X127127000Y-68336160D01*
X127127000Y-68369160D02*
X127127000Y-69342000D01*
X127160000Y-68336160D02*
X127127000Y-68369160D01*
X107535980Y-68336160D02*
X127127000Y-68336160D01*
X127127000Y-68336160D02*
X181701440Y-68336160D01*
D27*
X186781440Y-68336160D02*
X186781440Y-81798160D01*
X181701440Y-68336160D02*
X181701440Y-81798160D01*
X107533440Y-81798160D02*
X107533440Y-68338700D01*
X107533440Y-68338700D02*
X107535980Y-68336160D01*
X102453440Y-81798160D02*
X102453440Y-68338700D01*
X102453440Y-68338700D02*
X102455980Y-68336160D01*
D25*
X81915000Y-96520000D02*
X74930000Y-96520000D01*
X86360000Y-100965000D02*
X81915000Y-96520000D01*
D28*
X105537000Y-86614000D02*
X105410000Y-86614000D01*
X105410000Y-86614000D02*
X105537000Y-86614000D01*
X106934000Y-86614000D02*
X105410000Y-86614000D01*
D25*
X105410000Y-86614000D02*
X105410000Y-86360000D01*
X97790000Y-106680000D02*
X99695000Y-106680000D01*
D28*
X102870000Y-98679000D02*
X105410000Y-98679000D01*
X105410000Y-98679000D02*
X105283000Y-98679000D01*
X105283000Y-98679000D02*
X105410000Y-98679000D01*
X102870000Y-92202000D02*
X105410000Y-92202000D01*
X105410000Y-92202000D02*
X105283000Y-92202000D01*
X105283000Y-92202000D02*
X105410000Y-92202000D01*
D29*
X99949000Y-73533000D02*
X99949000Y-83820000D01*
D28*
X99949000Y-83820000D02*
X100076000Y-83820000D01*
X100076000Y-83820000D02*
X99949000Y-83820000D01*
D25*
X99695000Y-106680000D02*
X100965000Y-105410000D01*
X100965000Y-105410000D02*
X104140000Y-105410000D01*
X104140000Y-105410000D02*
X105410000Y-104140000D01*
X105410000Y-104140000D02*
X105410000Y-98679000D01*
X105410000Y-98679000D02*
X105410000Y-92202000D01*
X105410000Y-92202000D02*
X105410000Y-86614000D01*
X105410000Y-86360000D02*
X105283000Y-86233000D01*
X100330000Y-83820000D02*
X99949000Y-83820000D01*
X105283000Y-86233000D02*
X104140000Y-85090000D01*
X104140000Y-85090000D02*
X101600000Y-85090000D01*
X101600000Y-85090000D02*
X100330000Y-83820000D01*
X99949000Y-83820000D02*
X97790000Y-83820000D01*
D28*
X101092000Y-90043000D02*
X101092000Y-89789000D01*
X100203000Y-88900000D02*
X97790000Y-88900000D01*
X101092000Y-89789000D02*
X100203000Y-88900000D01*
X101092000Y-102997000D02*
X101092000Y-90043000D01*
D10*
X99187000Y-96520000D02*
X97790000Y-96520000D01*
X99822000Y-95885000D02*
X99187000Y-96520000D01*
D28*
X99822000Y-90297000D02*
X99822000Y-95885000D01*
D30*
G36*
X186669211Y-66244032D02*
X186721555Y-66296376D01*
X186554729Y-66281921D01*
X186204771Y-66351533D01*
X186019842Y-66584613D01*
X186781440Y-67346211D01*
X187276415Y-66851236D01*
X188266364Y-67841185D01*
X187771389Y-68336160D01*
X188532987Y-69097758D01*
X188766067Y-68912829D01*
X188811673Y-68386494D01*
X189025967Y-68600788D01*
X189298000Y-69968388D01*
X189298000Y-87253930D01*
X189287056Y-87246452D01*
X188840000Y-87155921D01*
X183840000Y-87155921D01*
X183422359Y-87234506D01*
X183038781Y-87481331D01*
X182781452Y-87857944D01*
X182690921Y-88305000D01*
X182690921Y-88652774D01*
X182651567Y-88593877D01*
X181637095Y-87916029D01*
X180440444Y-87678000D01*
X176239556Y-87678000D01*
X175042905Y-87916029D01*
X174028433Y-88593877D01*
X173350585Y-89608349D01*
X173344147Y-89640713D01*
X172767430Y-90217430D01*
X172350465Y-90841462D01*
X172233459Y-90253230D01*
X172095818Y-90047236D01*
X172274548Y-89785656D01*
X172365079Y-89338600D01*
X172365079Y-87611400D01*
X172286494Y-87193759D01*
X172039669Y-86810181D01*
X171663056Y-86552852D01*
X171216000Y-86462321D01*
X169184000Y-86462321D01*
X168766359Y-86540906D01*
X168382781Y-86787731D01*
X168125452Y-87164344D01*
X168034921Y-87611400D01*
X168034921Y-89338600D01*
X168113506Y-89756241D01*
X168302436Y-90049848D01*
X168166541Y-90253230D01*
X168015016Y-91015000D01*
X168166541Y-91776770D01*
X168506130Y-92285000D01*
X168166541Y-92793230D01*
X168015016Y-93555000D01*
X168074292Y-93853000D01*
X150427000Y-93853000D01*
X150427000Y-85725000D01*
X150403904Y-85608889D01*
X150403904Y-85490501D01*
X150307231Y-85004493D01*
X150168859Y-84670434D01*
X150127754Y-84571197D01*
X149852453Y-84159180D01*
X149852451Y-84159178D01*
X149852451Y-84159177D01*
X149520823Y-83827549D01*
X149520821Y-83827548D01*
X149520820Y-83827547D01*
X149108802Y-83552246D01*
X149102673Y-83549707D01*
X180939842Y-83549707D01*
X181124771Y-83782787D01*
X181928151Y-83852399D01*
X182278109Y-83782787D01*
X182463038Y-83549707D01*
X186019842Y-83549707D01*
X186204771Y-83782787D01*
X187008151Y-83852399D01*
X187358109Y-83782787D01*
X187543038Y-83549707D01*
X186781440Y-82788109D01*
X186019842Y-83549707D01*
X182463038Y-83549707D01*
X181701440Y-82788109D01*
X180939842Y-83549707D01*
X149102673Y-83549707D01*
X148675506Y-83372769D01*
X148189499Y-83276096D01*
X148098032Y-83276096D01*
X148206526Y-83014814D01*
X148207389Y-82024871D01*
X179647201Y-82024871D01*
X179716813Y-82374829D01*
X179949893Y-82559758D01*
X180711491Y-81798160D01*
X182691389Y-81798160D01*
X183452987Y-82559758D01*
X183686067Y-82374829D01*
X183716390Y-82024871D01*
X184727201Y-82024871D01*
X184796813Y-82374829D01*
X185029893Y-82559758D01*
X185791491Y-81798160D01*
X187771389Y-81798160D01*
X188532987Y-82559758D01*
X188766067Y-82374829D01*
X188835679Y-81571449D01*
X188766067Y-81221491D01*
X188532987Y-81036562D01*
X187771389Y-81798160D01*
X185791491Y-81798160D01*
X185029893Y-81036562D01*
X184796813Y-81221491D01*
X184727201Y-82024871D01*
X183716390Y-82024871D01*
X183755679Y-81571449D01*
X183686067Y-81221491D01*
X183452987Y-81036562D01*
X182691389Y-81798160D01*
X180711491Y-81798160D01*
X179949893Y-81036562D01*
X179716813Y-81221491D01*
X179647201Y-82024871D01*
X148207389Y-82024871D01*
X148207472Y-81929946D01*
X147793186Y-80927297D01*
X147026738Y-80159510D01*
X146754853Y-80046613D01*
X180939842Y-80046613D01*
X181701440Y-80808211D01*
X182463038Y-80046613D01*
X186019842Y-80046613D01*
X186781440Y-80808211D01*
X187543038Y-80046613D01*
X187358109Y-79813533D01*
X186554729Y-79743921D01*
X186204771Y-79813533D01*
X186019842Y-80046613D01*
X182463038Y-80046613D01*
X182278109Y-79813533D01*
X181474729Y-79743921D01*
X181124771Y-79813533D01*
X180939842Y-80046613D01*
X146754853Y-80046613D01*
X146024814Y-79743474D01*
X144939946Y-79742528D01*
X144077000Y-80099090D01*
X144077000Y-76951524D01*
X145182657Y-76951524D01*
X145483003Y-77678418D01*
X146038657Y-78235042D01*
X146765025Y-78536656D01*
X147551524Y-78537343D01*
X148278418Y-78236997D01*
X148835042Y-77681343D01*
X149136656Y-76954975D01*
X149137343Y-76168476D01*
X148836997Y-75441582D01*
X148281343Y-74884958D01*
X147554975Y-74583344D01*
X146768476Y-74582657D01*
X146041582Y-74883003D01*
X145484958Y-75438657D01*
X145183344Y-76165025D01*
X145182657Y-76951524D01*
X144077000Y-76951524D01*
X144077000Y-76200000D01*
X144053904Y-76083889D01*
X144053904Y-75965501D01*
X143957231Y-75479493D01*
X143795689Y-75089497D01*
X143777754Y-75046197D01*
X143502453Y-74634180D01*
X143502451Y-74634178D01*
X143502451Y-74634177D01*
X143170823Y-74302549D01*
X143170821Y-74302548D01*
X143170820Y-74302547D01*
X142758802Y-74027246D01*
X142325506Y-73847769D01*
X141839499Y-73751096D01*
X141721111Y-73751096D01*
X141605000Y-73728000D01*
X133985000Y-73728000D01*
X133868889Y-73751096D01*
X133750501Y-73751096D01*
X133264493Y-73847769D01*
X133010674Y-73952905D01*
X132831197Y-74027246D01*
X132419180Y-74302547D01*
X132419179Y-74302548D01*
X132419177Y-74302549D01*
X132087549Y-74634177D01*
X132087549Y-74634178D01*
X132087547Y-74634180D01*
X131812246Y-75046198D01*
X131686383Y-75350058D01*
X131632769Y-75479494D01*
X131536096Y-75965501D01*
X131536096Y-76083889D01*
X131513000Y-76200000D01*
X131513000Y-83066613D01*
X131486067Y-83202013D01*
X131476433Y-83216432D01*
X131462012Y-83226067D01*
X131326612Y-83253000D01*
X126365000Y-83253000D01*
X126248889Y-83276096D01*
X126130501Y-83276096D01*
X125644493Y-83372769D01*
X125390674Y-83477905D01*
X125211197Y-83552246D01*
X124799180Y-83827547D01*
X124799179Y-83827548D01*
X124799177Y-83827549D01*
X124467549Y-84159177D01*
X124467549Y-84159178D01*
X124467547Y-84159180D01*
X124192246Y-84571198D01*
X124076799Y-84849912D01*
X124012769Y-85004494D01*
X123916096Y-85490501D01*
X123916096Y-85608889D01*
X123893000Y-85725000D01*
X123893000Y-93853000D01*
X119750708Y-93853000D01*
X119809984Y-93555000D01*
X119658459Y-92793230D01*
X119318870Y-92285000D01*
X119658459Y-91776770D01*
X119809984Y-91015000D01*
X119658459Y-90253230D01*
X119520818Y-90047236D01*
X119699548Y-89785656D01*
X119790079Y-89338600D01*
X119790079Y-87611400D01*
X119711494Y-87193759D01*
X119464669Y-86810181D01*
X119088056Y-86552852D01*
X118641000Y-86462321D01*
X116609000Y-86462321D01*
X116191359Y-86540906D01*
X115807781Y-86787731D01*
X115550452Y-87164344D01*
X115459921Y-87611400D01*
X115459921Y-89338600D01*
X115538506Y-89756241D01*
X115727436Y-90049848D01*
X115591541Y-90253230D01*
X115440016Y-91015000D01*
X115591541Y-91776770D01*
X115931130Y-92285000D01*
X115591541Y-92793230D01*
X115440016Y-93555000D01*
X115499292Y-93853000D01*
X112067000Y-93853000D01*
X112067000Y-77765970D01*
X126555071Y-77765970D01*
X126654647Y-77978612D01*
X127235994Y-78064018D01*
X127665353Y-77978612D01*
X127764929Y-77765970D01*
X127160000Y-77161041D01*
X126555071Y-77765970D01*
X112067000Y-77765970D01*
X112067000Y-76635994D01*
X125655982Y-76635994D01*
X125741388Y-77065353D01*
X125954030Y-77164929D01*
X126558959Y-76560000D01*
X127761041Y-76560000D01*
X128365970Y-77164929D01*
X128578612Y-77065353D01*
X128664018Y-76484006D01*
X128578612Y-76054647D01*
X128365970Y-75955071D01*
X127761041Y-76560000D01*
X126558959Y-76560000D01*
X125954030Y-75955071D01*
X125741388Y-76054647D01*
X125655982Y-76635994D01*
X112067000Y-76635994D01*
X112067000Y-75354030D01*
X126555071Y-75354030D01*
X127160000Y-75958959D01*
X127764929Y-75354030D01*
X127665353Y-75141388D01*
X127084006Y-75055982D01*
X126654647Y-75141388D01*
X126555071Y-75354030D01*
X112067000Y-75354030D01*
X112067000Y-73406000D01*
X111946958Y-72802508D01*
X111605107Y-72290893D01*
X111093492Y-71949042D01*
X110490000Y-71829000D01*
X109886508Y-71949042D01*
X109374893Y-72290893D01*
X109033042Y-72802508D01*
X108913000Y-73406000D01*
X108913000Y-80258468D01*
X107668654Y-79014122D01*
X107198977Y-79483798D01*
X107473555Y-79758376D01*
X107306729Y-79743921D01*
X106956771Y-79813533D01*
X106771842Y-80046613D01*
X107533440Y-80808211D01*
X108028415Y-80313236D01*
X108913000Y-81197821D01*
X108913000Y-81408549D01*
X108523389Y-81798160D01*
X108913000Y-82187771D01*
X108913000Y-82398499D01*
X108028415Y-83283084D01*
X107533440Y-82788109D01*
X106771842Y-83549707D01*
X106956771Y-83782787D01*
X107483106Y-83828393D01*
X107198977Y-84112522D01*
X107668654Y-84582198D01*
X108913000Y-83337852D01*
X108913000Y-93853000D01*
X106987000Y-93853000D01*
X106987000Y-88041047D01*
X107216603Y-88041248D01*
X107741275Y-87824457D01*
X108143047Y-87423386D01*
X108360752Y-86899093D01*
X108361248Y-86331397D01*
X108144457Y-85806725D01*
X107743386Y-85404953D01*
X107219093Y-85187248D01*
X106651397Y-85186752D01*
X106520890Y-85240676D01*
X105255107Y-83974893D01*
X104743492Y-83633042D01*
X104140000Y-83513000D01*
X103178331Y-83513000D01*
X102453440Y-82788109D01*
X101990882Y-83250667D01*
X101727000Y-82986785D01*
X101727000Y-81798160D01*
X103443389Y-81798160D01*
X104204987Y-82559758D01*
X104438067Y-82374829D01*
X104468390Y-82024871D01*
X105479201Y-82024871D01*
X105548813Y-82374829D01*
X105781893Y-82559758D01*
X106543491Y-81798160D01*
X105781893Y-81036562D01*
X105548813Y-81221491D01*
X105479201Y-82024871D01*
X104468390Y-82024871D01*
X104507679Y-81571449D01*
X104438067Y-81221491D01*
X104204987Y-81036562D01*
X103443389Y-81798160D01*
X101727000Y-81798160D01*
X101727000Y-80544701D01*
X101958465Y-80313236D01*
X102453440Y-80808211D01*
X103215038Y-80046613D01*
X103030109Y-79813533D01*
X102503774Y-79767927D01*
X102787903Y-79483798D01*
X102318226Y-79014122D01*
X101727000Y-79605348D01*
X101727000Y-70526432D01*
X102320766Y-71120198D01*
X102790443Y-70650522D01*
X102515865Y-70375944D01*
X102682691Y-70390399D01*
X103032649Y-70320787D01*
X103217578Y-70087707D01*
X106774382Y-70087707D01*
X106959311Y-70320787D01*
X107762691Y-70390399D01*
X108112649Y-70320787D01*
X108297578Y-70087707D01*
X180939842Y-70087707D01*
X181124771Y-70320787D01*
X181928151Y-70390399D01*
X182278109Y-70320787D01*
X182463038Y-70087707D01*
X186019842Y-70087707D01*
X186204771Y-70320787D01*
X187008151Y-70390399D01*
X187358109Y-70320787D01*
X187543038Y-70087707D01*
X186781440Y-69326109D01*
X186019842Y-70087707D01*
X182463038Y-70087707D01*
X181701440Y-69326109D01*
X180939842Y-70087707D01*
X108297578Y-70087707D01*
X107535980Y-69326109D01*
X106774382Y-70087707D01*
X103217578Y-70087707D01*
X102455980Y-69326109D01*
X101961005Y-69821084D01*
X101727000Y-69587079D01*
X101727000Y-68336160D01*
X103445929Y-68336160D01*
X104207527Y-69097758D01*
X104440607Y-68912829D01*
X104470930Y-68562871D01*
X105481741Y-68562871D01*
X105551353Y-68912829D01*
X105784433Y-69097758D01*
X106546031Y-68336160D01*
X108525929Y-68336160D01*
X109287527Y-69097758D01*
X109520607Y-68912829D01*
X109550930Y-68562871D01*
X179647201Y-68562871D01*
X179716813Y-68912829D01*
X179949893Y-69097758D01*
X180711491Y-68336160D01*
X182691389Y-68336160D01*
X183452987Y-69097758D01*
X183686067Y-68912829D01*
X183716390Y-68562871D01*
X184727201Y-68562871D01*
X184796813Y-68912829D01*
X185029893Y-69097758D01*
X185791491Y-68336160D01*
X185029893Y-67574562D01*
X184796813Y-67759491D01*
X184727201Y-68562871D01*
X183716390Y-68562871D01*
X183755679Y-68109449D01*
X183686067Y-67759491D01*
X183452987Y-67574562D01*
X182691389Y-68336160D01*
X180711491Y-68336160D01*
X179949893Y-67574562D01*
X179716813Y-67759491D01*
X179647201Y-68562871D01*
X109550930Y-68562871D01*
X109590219Y-68109449D01*
X109520607Y-67759491D01*
X109287527Y-67574562D01*
X108525929Y-68336160D01*
X106546031Y-68336160D01*
X105784433Y-67574562D01*
X105551353Y-67759491D01*
X105481741Y-68562871D01*
X104470930Y-68562871D01*
X104510219Y-68109449D01*
X104440607Y-67759491D01*
X104207527Y-67574562D01*
X103445929Y-68336160D01*
X101727000Y-68336160D01*
X101727000Y-67085241D01*
X101961005Y-66851236D01*
X102455980Y-67346211D01*
X103217578Y-66584613D01*
X106774382Y-66584613D01*
X107535980Y-67346211D01*
X108297578Y-66584613D01*
X180939842Y-66584613D01*
X181701440Y-67346211D01*
X182463038Y-66584613D01*
X182278109Y-66351533D01*
X181474729Y-66281921D01*
X181124771Y-66351533D01*
X180939842Y-66584613D01*
X108297578Y-66584613D01*
X108112649Y-66351533D01*
X107309269Y-66281921D01*
X106959311Y-66351533D01*
X106774382Y-66584613D01*
X103217578Y-66584613D01*
X103032649Y-66351533D01*
X102506314Y-66305927D01*
X102790443Y-66021798D01*
X102740645Y-65972000D01*
X185301612Y-65972000D01*
X186669211Y-66244032D01*
X186669211Y-66244032D01*
G37*
X186669211Y-66244032D02*
X186721555Y-66296376D01*
X186554729Y-66281921D01*
X186204771Y-66351533D01*
X186019842Y-66584613D01*
X186781440Y-67346211D01*
X187276415Y-66851236D01*
X188266364Y-67841185D01*
X187771389Y-68336160D01*
X188532987Y-69097758D01*
X188766067Y-68912829D01*
X188811673Y-68386494D01*
X189025967Y-68600788D01*
X189298000Y-69968388D01*
X189298000Y-87253930D01*
X189287056Y-87246452D01*
X188840000Y-87155921D01*
X183840000Y-87155921D01*
X183422359Y-87234506D01*
X183038781Y-87481331D01*
X182781452Y-87857944D01*
X182690921Y-88305000D01*
X182690921Y-88652774D01*
X182651567Y-88593877D01*
X181637095Y-87916029D01*
X180440444Y-87678000D01*
X176239556Y-87678000D01*
X175042905Y-87916029D01*
X174028433Y-88593877D01*
X173350585Y-89608349D01*
X173344147Y-89640713D01*
X172767430Y-90217430D01*
X172350465Y-90841462D01*
X172233459Y-90253230D01*
X172095818Y-90047236D01*
X172274548Y-89785656D01*
X172365079Y-89338600D01*
X172365079Y-87611400D01*
X172286494Y-87193759D01*
X172039669Y-86810181D01*
X171663056Y-86552852D01*
X171216000Y-86462321D01*
X169184000Y-86462321D01*
X168766359Y-86540906D01*
X168382781Y-86787731D01*
X168125452Y-87164344D01*
X168034921Y-87611400D01*
X168034921Y-89338600D01*
X168113506Y-89756241D01*
X168302436Y-90049848D01*
X168166541Y-90253230D01*
X168015016Y-91015000D01*
X168166541Y-91776770D01*
X168506130Y-92285000D01*
X168166541Y-92793230D01*
X168015016Y-93555000D01*
X168074292Y-93853000D01*
X150427000Y-93853000D01*
X150427000Y-85725000D01*
X150403904Y-85608889D01*
X150403904Y-85490501D01*
X150307231Y-85004493D01*
X150168859Y-84670434D01*
X150127754Y-84571197D01*
X149852453Y-84159180D01*
X149852451Y-84159178D01*
X149852451Y-84159177D01*
X149520823Y-83827549D01*
X149520821Y-83827548D01*
X149520820Y-83827547D01*
X149108802Y-83552246D01*
X149102673Y-83549707D01*
X180939842Y-83549707D01*
X181124771Y-83782787D01*
X181928151Y-83852399D01*
X182278109Y-83782787D01*
X182463038Y-83549707D01*
X186019842Y-83549707D01*
X186204771Y-83782787D01*
X187008151Y-83852399D01*
X187358109Y-83782787D01*
X187543038Y-83549707D01*
X186781440Y-82788109D01*
X186019842Y-83549707D01*
X182463038Y-83549707D01*
X181701440Y-82788109D01*
X180939842Y-83549707D01*
X149102673Y-83549707D01*
X148675506Y-83372769D01*
X148189499Y-83276096D01*
X148098032Y-83276096D01*
X148206526Y-83014814D01*
X148207389Y-82024871D01*
X179647201Y-82024871D01*
X179716813Y-82374829D01*
X179949893Y-82559758D01*
X180711491Y-81798160D01*
X182691389Y-81798160D01*
X183452987Y-82559758D01*
X183686067Y-82374829D01*
X183716390Y-82024871D01*
X184727201Y-82024871D01*
X184796813Y-82374829D01*
X185029893Y-82559758D01*
X185791491Y-81798160D01*
X187771389Y-81798160D01*
X188532987Y-82559758D01*
X188766067Y-82374829D01*
X188835679Y-81571449D01*
X188766067Y-81221491D01*
X188532987Y-81036562D01*
X187771389Y-81798160D01*
X185791491Y-81798160D01*
X185029893Y-81036562D01*
X184796813Y-81221491D01*
X184727201Y-82024871D01*
X183716390Y-82024871D01*
X183755679Y-81571449D01*
X183686067Y-81221491D01*
X183452987Y-81036562D01*
X182691389Y-81798160D01*
X180711491Y-81798160D01*
X179949893Y-81036562D01*
X179716813Y-81221491D01*
X179647201Y-82024871D01*
X148207389Y-82024871D01*
X148207472Y-81929946D01*
X147793186Y-80927297D01*
X147026738Y-80159510D01*
X146754853Y-80046613D01*
X180939842Y-80046613D01*
X181701440Y-80808211D01*
X182463038Y-80046613D01*
X186019842Y-80046613D01*
X186781440Y-80808211D01*
X187543038Y-80046613D01*
X187358109Y-79813533D01*
X186554729Y-79743921D01*
X186204771Y-79813533D01*
X186019842Y-80046613D01*
X182463038Y-80046613D01*
X182278109Y-79813533D01*
X181474729Y-79743921D01*
X181124771Y-79813533D01*
X180939842Y-80046613D01*
X146754853Y-80046613D01*
X146024814Y-79743474D01*
X144939946Y-79742528D01*
X144077000Y-80099090D01*
X144077000Y-76951524D01*
X145182657Y-76951524D01*
X145483003Y-77678418D01*
X146038657Y-78235042D01*
X146765025Y-78536656D01*
X147551524Y-78537343D01*
X148278418Y-78236997D01*
X148835042Y-77681343D01*
X149136656Y-76954975D01*
X149137343Y-76168476D01*
X148836997Y-75441582D01*
X148281343Y-74884958D01*
X147554975Y-74583344D01*
X146768476Y-74582657D01*
X146041582Y-74883003D01*
X145484958Y-75438657D01*
X145183344Y-76165025D01*
X145182657Y-76951524D01*
X144077000Y-76951524D01*
X144077000Y-76200000D01*
X144053904Y-76083889D01*
X144053904Y-75965501D01*
X143957231Y-75479493D01*
X143795689Y-75089497D01*
X143777754Y-75046197D01*
X143502453Y-74634180D01*
X143502451Y-74634178D01*
X143502451Y-74634177D01*
X143170823Y-74302549D01*
X143170821Y-74302548D01*
X143170820Y-74302547D01*
X142758802Y-74027246D01*
X142325506Y-73847769D01*
X141839499Y-73751096D01*
X141721111Y-73751096D01*
X141605000Y-73728000D01*
X133985000Y-73728000D01*
X133868889Y-73751096D01*
X133750501Y-73751096D01*
X133264493Y-73847769D01*
X133010674Y-73952905D01*
X132831197Y-74027246D01*
X132419180Y-74302547D01*
X132419179Y-74302548D01*
X132419177Y-74302549D01*
X132087549Y-74634177D01*
X132087549Y-74634178D01*
X132087547Y-74634180D01*
X131812246Y-75046198D01*
X131686383Y-75350058D01*
X131632769Y-75479494D01*
X131536096Y-75965501D01*
X131536096Y-76083889D01*
X131513000Y-76200000D01*
X131513000Y-83066613D01*
X131486067Y-83202013D01*
X131476433Y-83216432D01*
X131462012Y-83226067D01*
X131326612Y-83253000D01*
X126365000Y-83253000D01*
X126248889Y-83276096D01*
X126130501Y-83276096D01*
X125644493Y-83372769D01*
X125390674Y-83477905D01*
X125211197Y-83552246D01*
X124799180Y-83827547D01*
X124799179Y-83827548D01*
X124799177Y-83827549D01*
X124467549Y-84159177D01*
X124467549Y-84159178D01*
X124467547Y-84159180D01*
X124192246Y-84571198D01*
X124076799Y-84849912D01*
X124012769Y-85004494D01*
X123916096Y-85490501D01*
X123916096Y-85608889D01*
X123893000Y-85725000D01*
X123893000Y-93853000D01*
X119750708Y-93853000D01*
X119809984Y-93555000D01*
X119658459Y-92793230D01*
X119318870Y-92285000D01*
X119658459Y-91776770D01*
X119809984Y-91015000D01*
X119658459Y-90253230D01*
X119520818Y-90047236D01*
X119699548Y-89785656D01*
X119790079Y-89338600D01*
X119790079Y-87611400D01*
X119711494Y-87193759D01*
X119464669Y-86810181D01*
X119088056Y-86552852D01*
X118641000Y-86462321D01*
X116609000Y-86462321D01*
X116191359Y-86540906D01*
X115807781Y-86787731D01*
X115550452Y-87164344D01*
X115459921Y-87611400D01*
X115459921Y-89338600D01*
X115538506Y-89756241D01*
X115727436Y-90049848D01*
X115591541Y-90253230D01*
X115440016Y-91015000D01*
X115591541Y-91776770D01*
X115931130Y-92285000D01*
X115591541Y-92793230D01*
X115440016Y-93555000D01*
X115499292Y-93853000D01*
X112067000Y-93853000D01*
X112067000Y-77765970D01*
X126555071Y-77765970D01*
X126654647Y-77978612D01*
X127235994Y-78064018D01*
X127665353Y-77978612D01*
X127764929Y-77765970D01*
X127160000Y-77161041D01*
X126555071Y-77765970D01*
X112067000Y-77765970D01*
X112067000Y-76635994D01*
X125655982Y-76635994D01*
X125741388Y-77065353D01*
X125954030Y-77164929D01*
X126558959Y-76560000D01*
X127761041Y-76560000D01*
X128365970Y-77164929D01*
X128578612Y-77065353D01*
X128664018Y-76484006D01*
X128578612Y-76054647D01*
X128365970Y-75955071D01*
X127761041Y-76560000D01*
X126558959Y-76560000D01*
X125954030Y-75955071D01*
X125741388Y-76054647D01*
X125655982Y-76635994D01*
X112067000Y-76635994D01*
X112067000Y-75354030D01*
X126555071Y-75354030D01*
X127160000Y-75958959D01*
X127764929Y-75354030D01*
X127665353Y-75141388D01*
X127084006Y-75055982D01*
X126654647Y-75141388D01*
X126555071Y-75354030D01*
X112067000Y-75354030D01*
X112067000Y-73406000D01*
X111946958Y-72802508D01*
X111605107Y-72290893D01*
X111093492Y-71949042D01*
X110490000Y-71829000D01*
X109886508Y-71949042D01*
X109374893Y-72290893D01*
X109033042Y-72802508D01*
X108913000Y-73406000D01*
X108913000Y-80258468D01*
X107668654Y-79014122D01*
X107198977Y-79483798D01*
X107473555Y-79758376D01*
X107306729Y-79743921D01*
X106956771Y-79813533D01*
X106771842Y-80046613D01*
X107533440Y-80808211D01*
X108028415Y-80313236D01*
X108913000Y-81197821D01*
X108913000Y-81408549D01*
X108523389Y-81798160D01*
X108913000Y-82187771D01*
X108913000Y-82398499D01*
X108028415Y-83283084D01*
X107533440Y-82788109D01*
X106771842Y-83549707D01*
X106956771Y-83782787D01*
X107483106Y-83828393D01*
X107198977Y-84112522D01*
X107668654Y-84582198D01*
X108913000Y-83337852D01*
X108913000Y-93853000D01*
X106987000Y-93853000D01*
X106987000Y-88041047D01*
X107216603Y-88041248D01*
X107741275Y-87824457D01*
X108143047Y-87423386D01*
X108360752Y-86899093D01*
X108361248Y-86331397D01*
X108144457Y-85806725D01*
X107743386Y-85404953D01*
X107219093Y-85187248D01*
X106651397Y-85186752D01*
X106520890Y-85240676D01*
X105255107Y-83974893D01*
X104743492Y-83633042D01*
X104140000Y-83513000D01*
X103178331Y-83513000D01*
X102453440Y-82788109D01*
X101990882Y-83250667D01*
X101727000Y-82986785D01*
X101727000Y-81798160D01*
X103443389Y-81798160D01*
X104204987Y-82559758D01*
X104438067Y-82374829D01*
X104468390Y-82024871D01*
X105479201Y-82024871D01*
X105548813Y-82374829D01*
X105781893Y-82559758D01*
X106543491Y-81798160D01*
X105781893Y-81036562D01*
X105548813Y-81221491D01*
X105479201Y-82024871D01*
X104468390Y-82024871D01*
X104507679Y-81571449D01*
X104438067Y-81221491D01*
X104204987Y-81036562D01*
X103443389Y-81798160D01*
X101727000Y-81798160D01*
X101727000Y-80544701D01*
X101958465Y-80313236D01*
X102453440Y-80808211D01*
X103215038Y-80046613D01*
X103030109Y-79813533D01*
X102503774Y-79767927D01*
X102787903Y-79483798D01*
X102318226Y-79014122D01*
X101727000Y-79605348D01*
X101727000Y-70526432D01*
X102320766Y-71120198D01*
X102790443Y-70650522D01*
X102515865Y-70375944D01*
X102682691Y-70390399D01*
X103032649Y-70320787D01*
X103217578Y-70087707D01*
X106774382Y-70087707D01*
X106959311Y-70320787D01*
X107762691Y-70390399D01*
X108112649Y-70320787D01*
X108297578Y-70087707D01*
X180939842Y-70087707D01*
X181124771Y-70320787D01*
X181928151Y-70390399D01*
X182278109Y-70320787D01*
X182463038Y-70087707D01*
X186019842Y-70087707D01*
X186204771Y-70320787D01*
X187008151Y-70390399D01*
X187358109Y-70320787D01*
X187543038Y-70087707D01*
X186781440Y-69326109D01*
X186019842Y-70087707D01*
X182463038Y-70087707D01*
X181701440Y-69326109D01*
X180939842Y-70087707D01*
X108297578Y-70087707D01*
X107535980Y-69326109D01*
X106774382Y-70087707D01*
X103217578Y-70087707D01*
X102455980Y-69326109D01*
X101961005Y-69821084D01*
X101727000Y-69587079D01*
X101727000Y-68336160D01*
X103445929Y-68336160D01*
X104207527Y-69097758D01*
X104440607Y-68912829D01*
X104470930Y-68562871D01*
X105481741Y-68562871D01*
X105551353Y-68912829D01*
X105784433Y-69097758D01*
X106546031Y-68336160D01*
X108525929Y-68336160D01*
X109287527Y-69097758D01*
X109520607Y-68912829D01*
X109550930Y-68562871D01*
X179647201Y-68562871D01*
X179716813Y-68912829D01*
X179949893Y-69097758D01*
X180711491Y-68336160D01*
X182691389Y-68336160D01*
X183452987Y-69097758D01*
X183686067Y-68912829D01*
X183716390Y-68562871D01*
X184727201Y-68562871D01*
X184796813Y-68912829D01*
X185029893Y-69097758D01*
X185791491Y-68336160D01*
X185029893Y-67574562D01*
X184796813Y-67759491D01*
X184727201Y-68562871D01*
X183716390Y-68562871D01*
X183755679Y-68109449D01*
X183686067Y-67759491D01*
X183452987Y-67574562D01*
X182691389Y-68336160D01*
X180711491Y-68336160D01*
X179949893Y-67574562D01*
X179716813Y-67759491D01*
X179647201Y-68562871D01*
X109550930Y-68562871D01*
X109590219Y-68109449D01*
X109520607Y-67759491D01*
X109287527Y-67574562D01*
X108525929Y-68336160D01*
X106546031Y-68336160D01*
X105784433Y-67574562D01*
X105551353Y-67759491D01*
X105481741Y-68562871D01*
X104470930Y-68562871D01*
X104510219Y-68109449D01*
X104440607Y-67759491D01*
X104207527Y-67574562D01*
X103445929Y-68336160D01*
X101727000Y-68336160D01*
X101727000Y-67085241D01*
X101961005Y-66851236D01*
X102455980Y-67346211D01*
X103217578Y-66584613D01*
X106774382Y-66584613D01*
X107535980Y-67346211D01*
X108297578Y-66584613D01*
X180939842Y-66584613D01*
X181701440Y-67346211D01*
X182463038Y-66584613D01*
X182278109Y-66351533D01*
X181474729Y-66281921D01*
X181124771Y-66351533D01*
X180939842Y-66584613D01*
X108297578Y-66584613D01*
X108112649Y-66351533D01*
X107309269Y-66281921D01*
X106959311Y-66351533D01*
X106774382Y-66584613D01*
X103217578Y-66584613D01*
X103032649Y-66351533D01*
X102506314Y-66305927D01*
X102790443Y-66021798D01*
X102740645Y-65972000D01*
X185301612Y-65972000D01*
X186669211Y-66244032D01*
G36*
X108913000Y-105410000D02*
X109033042Y-106013492D01*
X109374893Y-106525107D01*
X112549893Y-109700107D01*
X113061508Y-110041958D01*
X113665000Y-110162000D01*
X117142639Y-110162000D01*
X117170273Y-110203357D01*
X117892764Y-110686110D01*
X118745000Y-110855630D01*
X119597236Y-110686110D01*
X120319727Y-110203357D01*
X120802480Y-109480866D01*
X120972000Y-108628630D01*
X120972000Y-108541370D01*
X120802480Y-107689134D01*
X120319727Y-106966643D01*
X119597236Y-106483890D01*
X118745000Y-106314370D01*
X117892764Y-106483890D01*
X117170273Y-106966643D01*
X117142639Y-107008000D01*
X114318214Y-107008000D01*
X112067000Y-104756786D01*
X112067000Y-95377000D01*
X115582835Y-95377000D01*
X115440016Y-96095000D01*
X115591541Y-96856770D01*
X115931130Y-97365000D01*
X115591541Y-97873230D01*
X115440016Y-98635000D01*
X115591541Y-99396770D01*
X115931130Y-99905000D01*
X115591541Y-100413230D01*
X115440016Y-101175000D01*
X115591541Y-101936770D01*
X116023049Y-102582567D01*
X116668846Y-103014075D01*
X117430616Y-103165600D01*
X117819384Y-103165600D01*
X118581154Y-103014075D01*
X119226951Y-102582567D01*
X119658459Y-101936770D01*
X119809984Y-101175000D01*
X119658459Y-100413230D01*
X119318870Y-99905000D01*
X119658459Y-99396770D01*
X119809984Y-98635000D01*
X119658459Y-97873230D01*
X119318870Y-97365000D01*
X119658459Y-96856770D01*
X119809984Y-96095000D01*
X119667165Y-95377000D01*
X123893000Y-95377000D01*
X123893000Y-111125000D01*
X123916096Y-111241111D01*
X123916096Y-111359499D01*
X124012769Y-111845506D01*
X124192246Y-112278802D01*
X124467547Y-112690820D01*
X124467548Y-112690821D01*
X124467549Y-112690823D01*
X124799177Y-113022451D01*
X124799179Y-113022452D01*
X124799180Y-113022453D01*
X125211197Y-113297754D01*
X125390674Y-113372095D01*
X125644493Y-113477231D01*
X126130501Y-113573904D01*
X126248889Y-113573904D01*
X126365000Y-113597000D01*
X127036656Y-113597000D01*
X126529510Y-114103262D01*
X126113474Y-115105186D01*
X126112528Y-116190054D01*
X126526814Y-117192703D01*
X127293262Y-117960490D01*
X128295186Y-118376526D01*
X129380054Y-118377472D01*
X130243000Y-118020910D01*
X130243000Y-121920000D01*
X130266096Y-122036111D01*
X130266096Y-122154499D01*
X130362769Y-122640506D01*
X130542246Y-123073802D01*
X130817547Y-123485820D01*
X130817548Y-123485821D01*
X130817549Y-123485823D01*
X131149177Y-123817451D01*
X131149179Y-123817452D01*
X131149180Y-123817453D01*
X131561197Y-124092754D01*
X131691100Y-124146561D01*
X131994493Y-124272231D01*
X132480501Y-124368904D01*
X132598889Y-124368904D01*
X132715000Y-124392000D01*
X140970000Y-124392000D01*
X141086111Y-124368904D01*
X141204499Y-124368904D01*
X141690506Y-124272231D01*
X142123802Y-124092754D01*
X142535820Y-123817453D01*
X142535821Y-123817452D01*
X142535823Y-123817451D01*
X142867451Y-123485823D01*
X142867452Y-123485821D01*
X142867453Y-123485820D01*
X143142754Y-123073803D01*
X143217095Y-122894326D01*
X143322231Y-122640507D01*
X143418904Y-122154499D01*
X143418904Y-122036111D01*
X143435729Y-121951524D01*
X145182657Y-121951524D01*
X145483003Y-122678418D01*
X146038657Y-123235042D01*
X146765025Y-123536656D01*
X147551524Y-123537343D01*
X148278418Y-123236997D01*
X148835042Y-122681343D01*
X149136656Y-121954975D01*
X149137343Y-121168476D01*
X148836997Y-120441582D01*
X148281343Y-119884958D01*
X147554975Y-119583344D01*
X146768476Y-119582657D01*
X146041582Y-119883003D01*
X145484958Y-120438657D01*
X145183344Y-121165025D01*
X145182657Y-121951524D01*
X143435729Y-121951524D01*
X143442000Y-121920000D01*
X143442000Y-113783388D01*
X143468933Y-113647988D01*
X143478568Y-113633567D01*
X143492987Y-113623933D01*
X143628387Y-113597000D01*
X147955000Y-113597000D01*
X148071111Y-113573904D01*
X148189499Y-113573904D01*
X148675506Y-113477231D01*
X149108802Y-113297754D01*
X149520820Y-113022453D01*
X149520821Y-113022452D01*
X149520823Y-113022451D01*
X149852451Y-112690823D01*
X149852452Y-112690821D01*
X149852453Y-112690820D01*
X150127754Y-112278803D01*
X150202157Y-112099177D01*
X150307231Y-111845507D01*
X150403904Y-111359499D01*
X150403904Y-111241111D01*
X150427000Y-111125000D01*
X150427000Y-109476606D01*
X179174002Y-109476606D01*
X179557904Y-110405721D01*
X180268140Y-111117197D01*
X181196583Y-111502721D01*
X182201886Y-111503598D01*
X183131001Y-111119696D01*
X183842477Y-110409460D01*
X184228001Y-109481017D01*
X184228878Y-108475714D01*
X183844976Y-107546599D01*
X183134740Y-106835123D01*
X182206297Y-106449599D01*
X181200994Y-106448722D01*
X180271879Y-106832624D01*
X179560403Y-107542860D01*
X179174879Y-108471303D01*
X179174002Y-109476606D01*
X150427000Y-109476606D01*
X150427000Y-95377000D01*
X168157835Y-95377000D01*
X168015016Y-96095000D01*
X168166541Y-96856770D01*
X168506130Y-97365000D01*
X168166541Y-97873230D01*
X168015016Y-98635000D01*
X168166541Y-99396770D01*
X168506130Y-99905000D01*
X168166541Y-100413230D01*
X168015016Y-101175000D01*
X168166541Y-101936770D01*
X168598049Y-102582567D01*
X169243846Y-103014075D01*
X170005616Y-103165600D01*
X170394384Y-103165600D01*
X171156154Y-103014075D01*
X171801951Y-102582567D01*
X172233459Y-101936770D01*
X172354152Y-101330000D01*
X174081209Y-101330000D01*
X174097118Y-101697703D01*
X174253049Y-102003240D01*
X175052230Y-102674514D01*
X176047462Y-102988857D01*
X176467000Y-102845135D01*
X176467000Y-101330000D01*
X174081209Y-101330000D01*
X172354152Y-101330000D01*
X172384984Y-101175000D01*
X172233459Y-100413230D01*
X171893870Y-99905000D01*
X172233459Y-99396770D01*
X172246740Y-99330000D01*
X174081209Y-99330000D01*
X176467000Y-99330000D01*
X176467000Y-97814865D01*
X176047462Y-97671143D01*
X175052230Y-97985486D01*
X174253049Y-98656760D01*
X174097118Y-98962297D01*
X174081209Y-99330000D01*
X172246740Y-99330000D01*
X172384984Y-98635000D01*
X172233459Y-97873230D01*
X171893870Y-97365000D01*
X172233459Y-96856770D01*
X172384984Y-96095000D01*
X172242165Y-95377000D01*
X180190921Y-95377000D01*
X180190921Y-97630000D01*
X180224937Y-97810776D01*
X180213000Y-97814865D01*
X180213000Y-99330000D01*
X180233000Y-99330000D01*
X180233000Y-101330000D01*
X180213000Y-101330000D01*
X180213000Y-102845135D01*
X180632538Y-102988857D01*
X181627770Y-102674514D01*
X182189126Y-102203002D01*
X182690921Y-102203002D01*
X182690921Y-102830000D01*
X182769506Y-103247641D01*
X183016331Y-103631219D01*
X183392944Y-103888548D01*
X183840000Y-103979079D01*
X188840000Y-103979079D01*
X189257641Y-103900494D01*
X189298000Y-103874524D01*
X189298000Y-108449387D01*
X188924976Y-107546599D01*
X188214740Y-106835123D01*
X187286297Y-106449599D01*
X186280994Y-106448722D01*
X185351879Y-106832624D01*
X184640403Y-107542860D01*
X184254879Y-108471303D01*
X184254002Y-109476606D01*
X184637904Y-110405721D01*
X185348140Y-111117197D01*
X186276583Y-111502721D01*
X187281886Y-111503598D01*
X188211001Y-111119696D01*
X188922477Y-110409460D01*
X189298000Y-109505102D01*
X189298000Y-120133387D01*
X188924976Y-119230599D01*
X188214740Y-118519123D01*
X187286297Y-118133599D01*
X186280994Y-118132722D01*
X185351879Y-118516624D01*
X184640403Y-119226860D01*
X184254879Y-120155303D01*
X184254002Y-121160606D01*
X184637904Y-122089721D01*
X184654440Y-122106286D01*
X184654440Y-125392528D01*
X184348968Y-125698000D01*
X183659079Y-125698000D01*
X183659079Y-124195000D01*
X183580494Y-123777359D01*
X183333669Y-123393781D01*
X182957056Y-123136452D01*
X182533335Y-123050646D01*
X183131001Y-122803696D01*
X183842477Y-122093460D01*
X184228001Y-121165017D01*
X184228878Y-120159714D01*
X183844976Y-119230599D01*
X183134740Y-118519123D01*
X182206297Y-118133599D01*
X181200994Y-118132722D01*
X180271879Y-118516624D01*
X179560403Y-119226860D01*
X179174879Y-120155303D01*
X179174002Y-121160606D01*
X179557904Y-122089721D01*
X180268140Y-122801197D01*
X180857500Y-123045921D01*
X180710000Y-123045921D01*
X180292359Y-123124506D01*
X180010499Y-123305878D01*
X179885410Y-123222296D01*
X179109711Y-123068000D01*
X179030289Y-123068000D01*
X178254590Y-123222296D01*
X178057000Y-123354322D01*
X178057000Y-123221998D01*
X177430000Y-123221998D01*
X177430000Y-123897828D01*
X177202732Y-123724139D01*
X176980000Y-123792528D01*
X176980000Y-124645000D01*
X177092799Y-124645000D01*
X177003289Y-125095000D01*
X177092799Y-125545000D01*
X176980000Y-125545000D01*
X176980000Y-125698000D01*
X176080000Y-125698000D01*
X176080000Y-125545000D01*
X175235749Y-125545000D01*
X175183146Y-125698000D01*
X170200000Y-125698000D01*
X169625268Y-125812321D01*
X169184000Y-125812321D01*
X168766359Y-125890906D01*
X168382781Y-126137731D01*
X168125452Y-126514344D01*
X168034921Y-126961400D01*
X168034921Y-128688600D01*
X168113506Y-129106241D01*
X168302436Y-129399848D01*
X168166541Y-129603230D01*
X168015016Y-130365000D01*
X168166541Y-131126770D01*
X168506130Y-131635000D01*
X168293649Y-131953000D01*
X119514647Y-131953000D01*
X119318870Y-131660000D01*
X119658459Y-131151770D01*
X119809984Y-130390000D01*
X119658459Y-129628230D01*
X119520818Y-129422236D01*
X119699548Y-129160656D01*
X119790079Y-128713600D01*
X119790079Y-126986400D01*
X119711494Y-126568759D01*
X119464669Y-126185181D01*
X119088056Y-125927852D01*
X118641000Y-125837321D01*
X116609000Y-125837321D01*
X116191359Y-125915906D01*
X115807781Y-126162731D01*
X115550452Y-126539344D01*
X115459921Y-126986400D01*
X115459921Y-128713600D01*
X115538506Y-129131241D01*
X115727436Y-129424848D01*
X115591541Y-129628230D01*
X115440016Y-130390000D01*
X115591541Y-131151770D01*
X115931130Y-131660000D01*
X115735353Y-131953000D01*
X101727000Y-131953000D01*
X101727000Y-124422273D01*
X175159173Y-124422273D01*
X175235749Y-124645000D01*
X176080000Y-124645000D01*
X176080000Y-123792528D01*
X175857268Y-123724139D01*
X175383871Y-124085933D01*
X175159173Y-124422273D01*
X101727000Y-124422273D01*
X101727000Y-123142662D01*
X102453440Y-123287160D01*
X103458749Y-123087192D01*
X104311010Y-122517730D01*
X104880472Y-121665469D01*
X104993440Y-121097539D01*
X105106408Y-121665469D01*
X105675870Y-122517730D01*
X106528131Y-123087192D01*
X107533440Y-123287160D01*
X108538749Y-123087192D01*
X109391010Y-122517730D01*
X109742458Y-121991750D01*
X117018000Y-121991750D01*
X117018000Y-122509718D01*
X117113455Y-122740167D01*
X117289833Y-122916545D01*
X117520282Y-123012000D01*
X118038250Y-123012000D01*
X118195000Y-122855250D01*
X118195000Y-121835000D01*
X119295000Y-121835000D01*
X119295000Y-122855250D01*
X119451750Y-123012000D01*
X119969718Y-123012000D01*
X120200167Y-122916545D01*
X120350742Y-122765970D01*
X126555071Y-122765970D01*
X126654647Y-122978612D01*
X127235994Y-123064018D01*
X127665353Y-122978612D01*
X127764929Y-122765970D01*
X127160000Y-122161041D01*
X126555071Y-122765970D01*
X120350742Y-122765970D01*
X120376545Y-122740167D01*
X120472000Y-122509718D01*
X120472000Y-121991750D01*
X120315250Y-121835000D01*
X119295000Y-121835000D01*
X118195000Y-121835000D01*
X117174750Y-121835000D01*
X117018000Y-121991750D01*
X109742458Y-121991750D01*
X109960472Y-121665469D01*
X109966334Y-121635994D01*
X125655982Y-121635994D01*
X125741388Y-122065353D01*
X125954030Y-122164929D01*
X126558959Y-121560000D01*
X127761041Y-121560000D01*
X128365970Y-122164929D01*
X128578612Y-122065353D01*
X128664018Y-121484006D01*
X128578612Y-121054647D01*
X128365970Y-120955071D01*
X127761041Y-121560000D01*
X126558959Y-121560000D01*
X125954030Y-120955071D01*
X125741388Y-121054647D01*
X125655982Y-121635994D01*
X109966334Y-121635994D01*
X110160440Y-120660160D01*
X110160440Y-120060282D01*
X117018000Y-120060282D01*
X117018000Y-120578250D01*
X117174750Y-120735000D01*
X118195000Y-120735000D01*
X118195000Y-119714750D01*
X119295000Y-119714750D01*
X119295000Y-120735000D01*
X120315250Y-120735000D01*
X120472000Y-120578250D01*
X120472000Y-120354030D01*
X126555071Y-120354030D01*
X127160000Y-120958959D01*
X127764929Y-120354030D01*
X127665353Y-120141388D01*
X127084006Y-120055982D01*
X126654647Y-120141388D01*
X126555071Y-120354030D01*
X120472000Y-120354030D01*
X120472000Y-120060282D01*
X120376545Y-119829833D01*
X120200167Y-119653455D01*
X119969718Y-119558000D01*
X119451750Y-119558000D01*
X119295000Y-119714750D01*
X118195000Y-119714750D01*
X118038250Y-119558000D01*
X117520282Y-119558000D01*
X117289833Y-119653455D01*
X117113455Y-119829833D01*
X117018000Y-120060282D01*
X110160440Y-120060282D01*
X110160440Y-108976160D01*
X109960472Y-107970851D01*
X109391010Y-107118590D01*
X108538749Y-106549128D01*
X107533440Y-106349160D01*
X106528131Y-106549128D01*
X105675870Y-107118590D01*
X105106408Y-107970851D01*
X104993440Y-108538781D01*
X104880472Y-107970851D01*
X104311010Y-107118590D01*
X104114071Y-106987000D01*
X104140000Y-106987000D01*
X104743492Y-106866958D01*
X105255107Y-106525107D01*
X106525107Y-105255108D01*
X106866958Y-104743492D01*
X106987000Y-104140000D01*
X106987000Y-95377000D01*
X108913000Y-95377000D01*
X108913000Y-105410000D01*
X108913000Y-105410000D01*
G37*
X108913000Y-105410000D02*
X109033042Y-106013492D01*
X109374893Y-106525107D01*
X112549893Y-109700107D01*
X113061508Y-110041958D01*
X113665000Y-110162000D01*
X117142639Y-110162000D01*
X117170273Y-110203357D01*
X117892764Y-110686110D01*
X118745000Y-110855630D01*
X119597236Y-110686110D01*
X120319727Y-110203357D01*
X120802480Y-109480866D01*
X120972000Y-108628630D01*
X120972000Y-108541370D01*
X120802480Y-107689134D01*
X120319727Y-106966643D01*
X119597236Y-106483890D01*
X118745000Y-106314370D01*
X117892764Y-106483890D01*
X117170273Y-106966643D01*
X117142639Y-107008000D01*
X114318214Y-107008000D01*
X112067000Y-104756786D01*
X112067000Y-95377000D01*
X115582835Y-95377000D01*
X115440016Y-96095000D01*
X115591541Y-96856770D01*
X115931130Y-97365000D01*
X115591541Y-97873230D01*
X115440016Y-98635000D01*
X115591541Y-99396770D01*
X115931130Y-99905000D01*
X115591541Y-100413230D01*
X115440016Y-101175000D01*
X115591541Y-101936770D01*
X116023049Y-102582567D01*
X116668846Y-103014075D01*
X117430616Y-103165600D01*
X117819384Y-103165600D01*
X118581154Y-103014075D01*
X119226951Y-102582567D01*
X119658459Y-101936770D01*
X119809984Y-101175000D01*
X119658459Y-100413230D01*
X119318870Y-99905000D01*
X119658459Y-99396770D01*
X119809984Y-98635000D01*
X119658459Y-97873230D01*
X119318870Y-97365000D01*
X119658459Y-96856770D01*
X119809984Y-96095000D01*
X119667165Y-95377000D01*
X123893000Y-95377000D01*
X123893000Y-111125000D01*
X123916096Y-111241111D01*
X123916096Y-111359499D01*
X124012769Y-111845506D01*
X124192246Y-112278802D01*
X124467547Y-112690820D01*
X124467548Y-112690821D01*
X124467549Y-112690823D01*
X124799177Y-113022451D01*
X124799179Y-113022452D01*
X124799180Y-113022453D01*
X125211197Y-113297754D01*
X125390674Y-113372095D01*
X125644493Y-113477231D01*
X126130501Y-113573904D01*
X126248889Y-113573904D01*
X126365000Y-113597000D01*
X127036656Y-113597000D01*
X126529510Y-114103262D01*
X126113474Y-115105186D01*
X126112528Y-116190054D01*
X126526814Y-117192703D01*
X127293262Y-117960490D01*
X128295186Y-118376526D01*
X129380054Y-118377472D01*
X130243000Y-118020910D01*
X130243000Y-121920000D01*
X130266096Y-122036111D01*
X130266096Y-122154499D01*
X130362769Y-122640506D01*
X130542246Y-123073802D01*
X130817547Y-123485820D01*
X130817548Y-123485821D01*
X130817549Y-123485823D01*
X131149177Y-123817451D01*
X131149179Y-123817452D01*
X131149180Y-123817453D01*
X131561197Y-124092754D01*
X131691100Y-124146561D01*
X131994493Y-124272231D01*
X132480501Y-124368904D01*
X132598889Y-124368904D01*
X132715000Y-124392000D01*
X140970000Y-124392000D01*
X141086111Y-124368904D01*
X141204499Y-124368904D01*
X141690506Y-124272231D01*
X142123802Y-124092754D01*
X142535820Y-123817453D01*
X142535821Y-123817452D01*
X142535823Y-123817451D01*
X142867451Y-123485823D01*
X142867452Y-123485821D01*
X142867453Y-123485820D01*
X143142754Y-123073803D01*
X143217095Y-122894326D01*
X143322231Y-122640507D01*
X143418904Y-122154499D01*
X143418904Y-122036111D01*
X143435729Y-121951524D01*
X145182657Y-121951524D01*
X145483003Y-122678418D01*
X146038657Y-123235042D01*
X146765025Y-123536656D01*
X147551524Y-123537343D01*
X148278418Y-123236997D01*
X148835042Y-122681343D01*
X149136656Y-121954975D01*
X149137343Y-121168476D01*
X148836997Y-120441582D01*
X148281343Y-119884958D01*
X147554975Y-119583344D01*
X146768476Y-119582657D01*
X146041582Y-119883003D01*
X145484958Y-120438657D01*
X145183344Y-121165025D01*
X145182657Y-121951524D01*
X143435729Y-121951524D01*
X143442000Y-121920000D01*
X143442000Y-113783388D01*
X143468933Y-113647988D01*
X143478568Y-113633567D01*
X143492987Y-113623933D01*
X143628387Y-113597000D01*
X147955000Y-113597000D01*
X148071111Y-113573904D01*
X148189499Y-113573904D01*
X148675506Y-113477231D01*
X149108802Y-113297754D01*
X149520820Y-113022453D01*
X149520821Y-113022452D01*
X149520823Y-113022451D01*
X149852451Y-112690823D01*
X149852452Y-112690821D01*
X149852453Y-112690820D01*
X150127754Y-112278803D01*
X150202157Y-112099177D01*
X150307231Y-111845507D01*
X150403904Y-111359499D01*
X150403904Y-111241111D01*
X150427000Y-111125000D01*
X150427000Y-109476606D01*
X179174002Y-109476606D01*
X179557904Y-110405721D01*
X180268140Y-111117197D01*
X181196583Y-111502721D01*
X182201886Y-111503598D01*
X183131001Y-111119696D01*
X183842477Y-110409460D01*
X184228001Y-109481017D01*
X184228878Y-108475714D01*
X183844976Y-107546599D01*
X183134740Y-106835123D01*
X182206297Y-106449599D01*
X181200994Y-106448722D01*
X180271879Y-106832624D01*
X179560403Y-107542860D01*
X179174879Y-108471303D01*
X179174002Y-109476606D01*
X150427000Y-109476606D01*
X150427000Y-95377000D01*
X168157835Y-95377000D01*
X168015016Y-96095000D01*
X168166541Y-96856770D01*
X168506130Y-97365000D01*
X168166541Y-97873230D01*
X168015016Y-98635000D01*
X168166541Y-99396770D01*
X168506130Y-99905000D01*
X168166541Y-100413230D01*
X168015016Y-101175000D01*
X168166541Y-101936770D01*
X168598049Y-102582567D01*
X169243846Y-103014075D01*
X170005616Y-103165600D01*
X170394384Y-103165600D01*
X171156154Y-103014075D01*
X171801951Y-102582567D01*
X172233459Y-101936770D01*
X172354152Y-101330000D01*
X174081209Y-101330000D01*
X174097118Y-101697703D01*
X174253049Y-102003240D01*
X175052230Y-102674514D01*
X176047462Y-102988857D01*
X176467000Y-102845135D01*
X176467000Y-101330000D01*
X174081209Y-101330000D01*
X172354152Y-101330000D01*
X172384984Y-101175000D01*
X172233459Y-100413230D01*
X171893870Y-99905000D01*
X172233459Y-99396770D01*
X172246740Y-99330000D01*
X174081209Y-99330000D01*
X176467000Y-99330000D01*
X176467000Y-97814865D01*
X176047462Y-97671143D01*
X175052230Y-97985486D01*
X174253049Y-98656760D01*
X174097118Y-98962297D01*
X174081209Y-99330000D01*
X172246740Y-99330000D01*
X172384984Y-98635000D01*
X172233459Y-97873230D01*
X171893870Y-97365000D01*
X172233459Y-96856770D01*
X172384984Y-96095000D01*
X172242165Y-95377000D01*
X180190921Y-95377000D01*
X180190921Y-97630000D01*
X180224937Y-97810776D01*
X180213000Y-97814865D01*
X180213000Y-99330000D01*
X180233000Y-99330000D01*
X180233000Y-101330000D01*
X180213000Y-101330000D01*
X180213000Y-102845135D01*
X180632538Y-102988857D01*
X181627770Y-102674514D01*
X182189126Y-102203002D01*
X182690921Y-102203002D01*
X182690921Y-102830000D01*
X182769506Y-103247641D01*
X183016331Y-103631219D01*
X183392944Y-103888548D01*
X183840000Y-103979079D01*
X188840000Y-103979079D01*
X189257641Y-103900494D01*
X189298000Y-103874524D01*
X189298000Y-108449387D01*
X188924976Y-107546599D01*
X188214740Y-106835123D01*
X187286297Y-106449599D01*
X186280994Y-106448722D01*
X185351879Y-106832624D01*
X184640403Y-107542860D01*
X184254879Y-108471303D01*
X184254002Y-109476606D01*
X184637904Y-110405721D01*
X185348140Y-111117197D01*
X186276583Y-111502721D01*
X187281886Y-111503598D01*
X188211001Y-111119696D01*
X188922477Y-110409460D01*
X189298000Y-109505102D01*
X189298000Y-120133387D01*
X188924976Y-119230599D01*
X188214740Y-118519123D01*
X187286297Y-118133599D01*
X186280994Y-118132722D01*
X185351879Y-118516624D01*
X184640403Y-119226860D01*
X184254879Y-120155303D01*
X184254002Y-121160606D01*
X184637904Y-122089721D01*
X184654440Y-122106286D01*
X184654440Y-125392528D01*
X184348968Y-125698000D01*
X183659079Y-125698000D01*
X183659079Y-124195000D01*
X183580494Y-123777359D01*
X183333669Y-123393781D01*
X182957056Y-123136452D01*
X182533335Y-123050646D01*
X183131001Y-122803696D01*
X183842477Y-122093460D01*
X184228001Y-121165017D01*
X184228878Y-120159714D01*
X183844976Y-119230599D01*
X183134740Y-118519123D01*
X182206297Y-118133599D01*
X181200994Y-118132722D01*
X180271879Y-118516624D01*
X179560403Y-119226860D01*
X179174879Y-120155303D01*
X179174002Y-121160606D01*
X179557904Y-122089721D01*
X180268140Y-122801197D01*
X180857500Y-123045921D01*
X180710000Y-123045921D01*
X180292359Y-123124506D01*
X180010499Y-123305878D01*
X179885410Y-123222296D01*
X179109711Y-123068000D01*
X179030289Y-123068000D01*
X178254590Y-123222296D01*
X178057000Y-123354322D01*
X178057000Y-123221998D01*
X177430000Y-123221998D01*
X177430000Y-123897828D01*
X177202732Y-123724139D01*
X176980000Y-123792528D01*
X176980000Y-124645000D01*
X177092799Y-124645000D01*
X177003289Y-125095000D01*
X177092799Y-125545000D01*
X176980000Y-125545000D01*
X176980000Y-125698000D01*
X176080000Y-125698000D01*
X176080000Y-125545000D01*
X175235749Y-125545000D01*
X175183146Y-125698000D01*
X170200000Y-125698000D01*
X169625268Y-125812321D01*
X169184000Y-125812321D01*
X168766359Y-125890906D01*
X168382781Y-126137731D01*
X168125452Y-126514344D01*
X168034921Y-126961400D01*
X168034921Y-128688600D01*
X168113506Y-129106241D01*
X168302436Y-129399848D01*
X168166541Y-129603230D01*
X168015016Y-130365000D01*
X168166541Y-131126770D01*
X168506130Y-131635000D01*
X168293649Y-131953000D01*
X119514647Y-131953000D01*
X119318870Y-131660000D01*
X119658459Y-131151770D01*
X119809984Y-130390000D01*
X119658459Y-129628230D01*
X119520818Y-129422236D01*
X119699548Y-129160656D01*
X119790079Y-128713600D01*
X119790079Y-126986400D01*
X119711494Y-126568759D01*
X119464669Y-126185181D01*
X119088056Y-125927852D01*
X118641000Y-125837321D01*
X116609000Y-125837321D01*
X116191359Y-125915906D01*
X115807781Y-126162731D01*
X115550452Y-126539344D01*
X115459921Y-126986400D01*
X115459921Y-128713600D01*
X115538506Y-129131241D01*
X115727436Y-129424848D01*
X115591541Y-129628230D01*
X115440016Y-130390000D01*
X115591541Y-131151770D01*
X115931130Y-131660000D01*
X115735353Y-131953000D01*
X101727000Y-131953000D01*
X101727000Y-124422273D01*
X175159173Y-124422273D01*
X175235749Y-124645000D01*
X176080000Y-124645000D01*
X176080000Y-123792528D01*
X175857268Y-123724139D01*
X175383871Y-124085933D01*
X175159173Y-124422273D01*
X101727000Y-124422273D01*
X101727000Y-123142662D01*
X102453440Y-123287160D01*
X103458749Y-123087192D01*
X104311010Y-122517730D01*
X104880472Y-121665469D01*
X104993440Y-121097539D01*
X105106408Y-121665469D01*
X105675870Y-122517730D01*
X106528131Y-123087192D01*
X107533440Y-123287160D01*
X108538749Y-123087192D01*
X109391010Y-122517730D01*
X109742458Y-121991750D01*
X117018000Y-121991750D01*
X117018000Y-122509718D01*
X117113455Y-122740167D01*
X117289833Y-122916545D01*
X117520282Y-123012000D01*
X118038250Y-123012000D01*
X118195000Y-122855250D01*
X118195000Y-121835000D01*
X119295000Y-121835000D01*
X119295000Y-122855250D01*
X119451750Y-123012000D01*
X119969718Y-123012000D01*
X120200167Y-122916545D01*
X120350742Y-122765970D01*
X126555071Y-122765970D01*
X126654647Y-122978612D01*
X127235994Y-123064018D01*
X127665353Y-122978612D01*
X127764929Y-122765970D01*
X127160000Y-122161041D01*
X126555071Y-122765970D01*
X120350742Y-122765970D01*
X120376545Y-122740167D01*
X120472000Y-122509718D01*
X120472000Y-121991750D01*
X120315250Y-121835000D01*
X119295000Y-121835000D01*
X118195000Y-121835000D01*
X117174750Y-121835000D01*
X117018000Y-121991750D01*
X109742458Y-121991750D01*
X109960472Y-121665469D01*
X109966334Y-121635994D01*
X125655982Y-121635994D01*
X125741388Y-122065353D01*
X125954030Y-122164929D01*
X126558959Y-121560000D01*
X127761041Y-121560000D01*
X128365970Y-122164929D01*
X128578612Y-122065353D01*
X128664018Y-121484006D01*
X128578612Y-121054647D01*
X128365970Y-120955071D01*
X127761041Y-121560000D01*
X126558959Y-121560000D01*
X125954030Y-120955071D01*
X125741388Y-121054647D01*
X125655982Y-121635994D01*
X109966334Y-121635994D01*
X110160440Y-120660160D01*
X110160440Y-120060282D01*
X117018000Y-120060282D01*
X117018000Y-120578250D01*
X117174750Y-120735000D01*
X118195000Y-120735000D01*
X118195000Y-119714750D01*
X119295000Y-119714750D01*
X119295000Y-120735000D01*
X120315250Y-120735000D01*
X120472000Y-120578250D01*
X120472000Y-120354030D01*
X126555071Y-120354030D01*
X127160000Y-120958959D01*
X127764929Y-120354030D01*
X127665353Y-120141388D01*
X127084006Y-120055982D01*
X126654647Y-120141388D01*
X126555071Y-120354030D01*
X120472000Y-120354030D01*
X120472000Y-120060282D01*
X120376545Y-119829833D01*
X120200167Y-119653455D01*
X119969718Y-119558000D01*
X119451750Y-119558000D01*
X119295000Y-119714750D01*
X118195000Y-119714750D01*
X118038250Y-119558000D01*
X117520282Y-119558000D01*
X117289833Y-119653455D01*
X117113455Y-119829833D01*
X117018000Y-120060282D01*
X110160440Y-120060282D01*
X110160440Y-108976160D01*
X109960472Y-107970851D01*
X109391010Y-107118590D01*
X108538749Y-106549128D01*
X107533440Y-106349160D01*
X106528131Y-106549128D01*
X105675870Y-107118590D01*
X105106408Y-107970851D01*
X104993440Y-108538781D01*
X104880472Y-107970851D01*
X104311010Y-107118590D01*
X104114071Y-106987000D01*
X104140000Y-106987000D01*
X104743492Y-106866958D01*
X105255107Y-106525107D01*
X106525107Y-105255108D01*
X106866958Y-104743492D01*
X106987000Y-104140000D01*
X106987000Y-95377000D01*
X108913000Y-95377000D01*
X108913000Y-105410000D01*
G36*
X95567901Y-76956565D02*
X95910967Y-77470000D01*
X95567901Y-77983435D01*
X95417411Y-78740000D01*
X95567901Y-79496565D01*
X95910967Y-80010000D01*
X95567901Y-80523435D01*
X95417411Y-81280000D01*
X95567901Y-82036565D01*
X95910967Y-82550000D01*
X95567901Y-83063435D01*
X95417411Y-83820000D01*
X95567901Y-84576565D01*
X95916998Y-85099025D01*
X95916998Y-85510000D01*
X95963000Y-85510000D01*
X95963000Y-85778250D01*
X96119750Y-85935000D01*
X97190000Y-85935000D01*
X97190000Y-85756340D01*
X97394411Y-85797000D01*
X98185589Y-85797000D01*
X98390000Y-85756340D01*
X98390000Y-85935000D01*
X99460250Y-85935000D01*
X99617000Y-85778250D01*
X99617000Y-85510000D01*
X99663002Y-85510000D01*
X99663002Y-85397000D01*
X99676786Y-85397000D01*
X100203000Y-85923215D01*
X100203000Y-87623000D01*
X99664355Y-87623000D01*
X99663002Y-87620975D01*
X99663002Y-87210000D01*
X99617000Y-87210000D01*
X99617000Y-86941750D01*
X99460250Y-86785000D01*
X98390000Y-86785000D01*
X98390000Y-86963660D01*
X98185589Y-86923000D01*
X97394411Y-86923000D01*
X97190000Y-86963660D01*
X97190000Y-86785000D01*
X96119750Y-86785000D01*
X95963000Y-86941750D01*
X95963000Y-87210000D01*
X95916998Y-87210000D01*
X95916998Y-87620975D01*
X95567901Y-88143435D01*
X95417411Y-88900000D01*
X95567901Y-89656565D01*
X95910967Y-90170000D01*
X95567901Y-90683435D01*
X95417411Y-91440000D01*
X95567901Y-92196565D01*
X95910967Y-92710000D01*
X95567901Y-93223435D01*
X95417411Y-93980000D01*
X95567901Y-94736565D01*
X95910967Y-95250000D01*
X95567901Y-95763435D01*
X95417411Y-96520000D01*
X95567901Y-97276565D01*
X95910967Y-97790000D01*
X95567901Y-98303435D01*
X95417411Y-99060000D01*
X95567901Y-99816565D01*
X95910967Y-100330000D01*
X95567901Y-100843435D01*
X95417411Y-101600000D01*
X95567901Y-102356565D01*
X95916998Y-102879025D01*
X95916998Y-103290000D01*
X95963000Y-103290000D01*
X95963000Y-103558250D01*
X96119750Y-103715000D01*
X97190000Y-103715000D01*
X97190000Y-103536340D01*
X97394411Y-103577000D01*
X98185589Y-103577000D01*
X98390000Y-103536340D01*
X98390000Y-103715000D01*
X99460250Y-103715000D01*
X99617000Y-103558250D01*
X99617000Y-103290000D01*
X99663002Y-103290000D01*
X99663002Y-102879025D01*
X99665105Y-102875878D01*
X99664752Y-103279603D01*
X99881543Y-103804275D01*
X100162675Y-104085898D01*
X99849892Y-104294893D01*
X99520018Y-104624768D01*
X99460250Y-104565000D01*
X98390000Y-104565000D01*
X98390000Y-104743660D01*
X98185589Y-104703000D01*
X97394411Y-104703000D01*
X97190000Y-104743660D01*
X97190000Y-104565000D01*
X96119750Y-104565000D01*
X95963000Y-104721750D01*
X95963000Y-104990000D01*
X95916998Y-104990000D01*
X95916998Y-105400975D01*
X95567901Y-105923435D01*
X95417411Y-106680000D01*
X95567901Y-107436565D01*
X95827728Y-107825423D01*
X94977297Y-108176814D01*
X94209510Y-108943262D01*
X93793474Y-109945186D01*
X93792528Y-111030054D01*
X94206814Y-112032703D01*
X94973262Y-112800490D01*
X95975186Y-113216526D01*
X97060054Y-113217472D01*
X98062703Y-112803186D01*
X98830490Y-112036738D01*
X99246526Y-111034814D01*
X99247472Y-109949946D01*
X98833186Y-108947297D01*
X98484118Y-108597619D01*
X98942154Y-108506510D01*
X99315572Y-108257000D01*
X99695000Y-108257000D01*
X100203000Y-108155953D01*
X100203000Y-108307348D01*
X99669402Y-108840946D01*
X99804616Y-108976160D01*
X99669402Y-109111374D01*
X100203000Y-109644972D01*
X100203000Y-119991348D01*
X99669402Y-120524946D01*
X99804616Y-120660160D01*
X99669402Y-120795374D01*
X100203000Y-121328972D01*
X100203000Y-133350000D01*
X100213006Y-133399410D01*
X100241447Y-133441035D01*
X100283841Y-133468315D01*
X100330000Y-133477000D01*
X115548821Y-133477000D01*
X115591541Y-133691770D01*
X115931130Y-134200000D01*
X115591541Y-134708230D01*
X115440016Y-135470000D01*
X115591541Y-136231770D01*
X115931130Y-136740000D01*
X115591541Y-137248230D01*
X115440016Y-138010000D01*
X115591541Y-138771770D01*
X115931130Y-139280000D01*
X115591541Y-139788230D01*
X115440016Y-140550000D01*
X115591541Y-141311770D01*
X116023049Y-141957567D01*
X116668846Y-142389075D01*
X117430616Y-142540600D01*
X117819384Y-142540600D01*
X118581154Y-142389075D01*
X119226951Y-141957567D01*
X119658459Y-141311770D01*
X119809984Y-140550000D01*
X119658459Y-139788230D01*
X119318870Y-139280000D01*
X119658459Y-138771770D01*
X119809984Y-138010000D01*
X119658459Y-137248230D01*
X119318870Y-136740000D01*
X119658459Y-136231770D01*
X119809984Y-135470000D01*
X119658459Y-134708230D01*
X119318870Y-134200000D01*
X119658459Y-133691770D01*
X119701179Y-133477000D01*
X168128794Y-133477000D01*
X168166541Y-133666770D01*
X168506130Y-134175000D01*
X168166541Y-134683230D01*
X168015016Y-135445000D01*
X168166541Y-136206770D01*
X168506130Y-136715000D01*
X168166541Y-137223230D01*
X168015016Y-137985000D01*
X168166541Y-138746770D01*
X168506130Y-139255000D01*
X168166541Y-139763230D01*
X168015016Y-140525000D01*
X168166541Y-141286770D01*
X168598049Y-141932567D01*
X169243846Y-142364075D01*
X170005616Y-142515600D01*
X170394384Y-142515600D01*
X171156154Y-142364075D01*
X171801951Y-141932567D01*
X172233459Y-141286770D01*
X172384984Y-140525000D01*
X172233459Y-139763230D01*
X171893870Y-139255000D01*
X172233459Y-138746770D01*
X172384984Y-137985000D01*
X172233459Y-137223230D01*
X171893870Y-136715000D01*
X172233459Y-136206770D01*
X172384984Y-135445000D01*
X172233459Y-134683230D01*
X171893870Y-134175000D01*
X172233459Y-133666770D01*
X172271206Y-133477000D01*
X189298000Y-133477000D01*
X189298000Y-145931612D01*
X189146839Y-146691549D01*
X188924976Y-146154599D01*
X188214740Y-145443123D01*
X187286297Y-145057599D01*
X186280994Y-145056722D01*
X185351879Y-145440624D01*
X184640403Y-146150860D01*
X184254879Y-147079303D01*
X184254002Y-148084606D01*
X184637904Y-149013721D01*
X185348140Y-149725197D01*
X185663288Y-149856058D01*
X185301612Y-149928000D01*
X182646228Y-149928000D01*
X183131001Y-149727696D01*
X183842477Y-149017460D01*
X184228001Y-148089017D01*
X184228878Y-147083714D01*
X183844976Y-146154599D01*
X183134740Y-145443123D01*
X182206297Y-145057599D01*
X181200994Y-145056722D01*
X180271879Y-145440624D01*
X179560403Y-146150860D01*
X179174879Y-147079303D01*
X179174002Y-148084606D01*
X179557904Y-149013721D01*
X180268140Y-149725197D01*
X180756543Y-149928000D01*
X108478228Y-149928000D01*
X108963001Y-149727696D01*
X109674477Y-149017460D01*
X110060001Y-148089017D01*
X110060878Y-147083714D01*
X109676976Y-146154599D01*
X108966740Y-145443123D01*
X108038297Y-145057599D01*
X107032994Y-145056722D01*
X106103879Y-145440624D01*
X105392403Y-146150860D01*
X105006879Y-147079303D01*
X105006002Y-148084606D01*
X105389904Y-149013721D01*
X106100140Y-149725197D01*
X106588543Y-149928000D01*
X103398228Y-149928000D01*
X103883001Y-149727696D01*
X104594477Y-149017460D01*
X104980001Y-148089017D01*
X104980878Y-147083714D01*
X104596976Y-146154599D01*
X103886740Y-145443123D01*
X102958297Y-145057599D01*
X101952994Y-145056722D01*
X101023879Y-145440624D01*
X100312403Y-146150860D01*
X99926879Y-147079303D01*
X99926002Y-148084606D01*
X100309904Y-149013721D01*
X101020140Y-149725197D01*
X101508543Y-149928000D01*
X78858388Y-149928000D01*
X77264964Y-149611048D01*
X76014492Y-148775509D01*
X75178951Y-147525035D01*
X74862000Y-145931612D01*
X74862000Y-112887166D01*
X75655186Y-113216526D01*
X76740054Y-113217472D01*
X77742703Y-112803186D01*
X78510490Y-112036738D01*
X78926526Y-111034814D01*
X78927472Y-109949946D01*
X78513186Y-108947297D01*
X77746738Y-108179510D01*
X76892648Y-107824860D01*
X77152099Y-107436565D01*
X77302589Y-106680000D01*
X77152099Y-105923435D01*
X76803002Y-105400975D01*
X76803002Y-104990000D01*
X76757000Y-104990000D01*
X76757000Y-104721750D01*
X76600250Y-104565000D01*
X75530000Y-104565000D01*
X75530000Y-104743660D01*
X75325589Y-104703000D01*
X74862000Y-104703000D01*
X74862000Y-103577000D01*
X75325589Y-103577000D01*
X75530000Y-103536340D01*
X75530000Y-103715000D01*
X76600250Y-103715000D01*
X76757000Y-103558250D01*
X76757000Y-103290000D01*
X76803002Y-103290000D01*
X76803002Y-102879025D01*
X77152099Y-102356565D01*
X77302589Y-101600000D01*
X77152099Y-100843435D01*
X76809033Y-100330000D01*
X77152099Y-99816565D01*
X77302589Y-99060000D01*
X77152099Y-98303435D01*
X77014163Y-98097000D01*
X81261786Y-98097000D01*
X85244892Y-102080107D01*
X85756508Y-102421958D01*
X86360000Y-102541999D01*
X86963491Y-102421958D01*
X87475107Y-102080107D01*
X87816958Y-101568491D01*
X87936999Y-100965000D01*
X87816958Y-100361508D01*
X87475107Y-99849892D01*
X83030107Y-95404893D01*
X82518492Y-95063042D01*
X81915000Y-94943000D01*
X76803002Y-94943000D01*
X76803002Y-94830000D01*
X76757000Y-94830000D01*
X76757000Y-94561750D01*
X76600250Y-94405000D01*
X75530000Y-94405000D01*
X75530000Y-94583660D01*
X75325589Y-94543000D01*
X74862000Y-94543000D01*
X74862000Y-93417000D01*
X75325589Y-93417000D01*
X75530000Y-93376340D01*
X75530000Y-93555000D01*
X76600250Y-93555000D01*
X76757000Y-93398250D01*
X76757000Y-93130000D01*
X76803002Y-93130000D01*
X76803002Y-92719025D01*
X77152099Y-92196565D01*
X77302589Y-91440000D01*
X77152099Y-90683435D01*
X76809033Y-90170000D01*
X77152099Y-89656565D01*
X77302589Y-88900000D01*
X77152099Y-88143435D01*
X76809033Y-87630000D01*
X77152099Y-87116565D01*
X77302589Y-86360000D01*
X77152099Y-85603435D01*
X76809033Y-85090000D01*
X77152099Y-84576565D01*
X77302589Y-83820000D01*
X77152099Y-83063435D01*
X76809033Y-82550000D01*
X77152099Y-82036565D01*
X77302589Y-81280000D01*
X77152099Y-80523435D01*
X76809033Y-80010000D01*
X77152099Y-79496565D01*
X77302589Y-78740000D01*
X77152099Y-77983435D01*
X76809033Y-77470000D01*
X77152099Y-76956565D01*
X77277327Y-76327000D01*
X95442673Y-76327000D01*
X95567901Y-76956565D01*
X95567901Y-76956565D01*
G37*
X95567901Y-76956565D02*
X95910967Y-77470000D01*
X95567901Y-77983435D01*
X95417411Y-78740000D01*
X95567901Y-79496565D01*
X95910967Y-80010000D01*
X95567901Y-80523435D01*
X95417411Y-81280000D01*
X95567901Y-82036565D01*
X95910967Y-82550000D01*
X95567901Y-83063435D01*
X95417411Y-83820000D01*
X95567901Y-84576565D01*
X95916998Y-85099025D01*
X95916998Y-85510000D01*
X95963000Y-85510000D01*
X95963000Y-85778250D01*
X96119750Y-85935000D01*
X97190000Y-85935000D01*
X97190000Y-85756340D01*
X97394411Y-85797000D01*
X98185589Y-85797000D01*
X98390000Y-85756340D01*
X98390000Y-85935000D01*
X99460250Y-85935000D01*
X99617000Y-85778250D01*
X99617000Y-85510000D01*
X99663002Y-85510000D01*
X99663002Y-85397000D01*
X99676786Y-85397000D01*
X100203000Y-85923215D01*
X100203000Y-87623000D01*
X99664355Y-87623000D01*
X99663002Y-87620975D01*
X99663002Y-87210000D01*
X99617000Y-87210000D01*
X99617000Y-86941750D01*
X99460250Y-86785000D01*
X98390000Y-86785000D01*
X98390000Y-86963660D01*
X98185589Y-86923000D01*
X97394411Y-86923000D01*
X97190000Y-86963660D01*
X97190000Y-86785000D01*
X96119750Y-86785000D01*
X95963000Y-86941750D01*
X95963000Y-87210000D01*
X95916998Y-87210000D01*
X95916998Y-87620975D01*
X95567901Y-88143435D01*
X95417411Y-88900000D01*
X95567901Y-89656565D01*
X95910967Y-90170000D01*
X95567901Y-90683435D01*
X95417411Y-91440000D01*
X95567901Y-92196565D01*
X95910967Y-92710000D01*
X95567901Y-93223435D01*
X95417411Y-93980000D01*
X95567901Y-94736565D01*
X95910967Y-95250000D01*
X95567901Y-95763435D01*
X95417411Y-96520000D01*
X95567901Y-97276565D01*
X95910967Y-97790000D01*
X95567901Y-98303435D01*
X95417411Y-99060000D01*
X95567901Y-99816565D01*
X95910967Y-100330000D01*
X95567901Y-100843435D01*
X95417411Y-101600000D01*
X95567901Y-102356565D01*
X95916998Y-102879025D01*
X95916998Y-103290000D01*
X95963000Y-103290000D01*
X95963000Y-103558250D01*
X96119750Y-103715000D01*
X97190000Y-103715000D01*
X97190000Y-103536340D01*
X97394411Y-103577000D01*
X98185589Y-103577000D01*
X98390000Y-103536340D01*
X98390000Y-103715000D01*
X99460250Y-103715000D01*
X99617000Y-103558250D01*
X99617000Y-103290000D01*
X99663002Y-103290000D01*
X99663002Y-102879025D01*
X99665105Y-102875878D01*
X99664752Y-103279603D01*
X99881543Y-103804275D01*
X100162675Y-104085898D01*
X99849892Y-104294893D01*
X99520018Y-104624768D01*
X99460250Y-104565000D01*
X98390000Y-104565000D01*
X98390000Y-104743660D01*
X98185589Y-104703000D01*
X97394411Y-104703000D01*
X97190000Y-104743660D01*
X97190000Y-104565000D01*
X96119750Y-104565000D01*
X95963000Y-104721750D01*
X95963000Y-104990000D01*
X95916998Y-104990000D01*
X95916998Y-105400975D01*
X95567901Y-105923435D01*
X95417411Y-106680000D01*
X95567901Y-107436565D01*
X95827728Y-107825423D01*
X94977297Y-108176814D01*
X94209510Y-108943262D01*
X93793474Y-109945186D01*
X93792528Y-111030054D01*
X94206814Y-112032703D01*
X94973262Y-112800490D01*
X95975186Y-113216526D01*
X97060054Y-113217472D01*
X98062703Y-112803186D01*
X98830490Y-112036738D01*
X99246526Y-111034814D01*
X99247472Y-109949946D01*
X98833186Y-108947297D01*
X98484118Y-108597619D01*
X98942154Y-108506510D01*
X99315572Y-108257000D01*
X99695000Y-108257000D01*
X100203000Y-108155953D01*
X100203000Y-108307348D01*
X99669402Y-108840946D01*
X99804616Y-108976160D01*
X99669402Y-109111374D01*
X100203000Y-109644972D01*
X100203000Y-119991348D01*
X99669402Y-120524946D01*
X99804616Y-120660160D01*
X99669402Y-120795374D01*
X100203000Y-121328972D01*
X100203000Y-133350000D01*
X100213006Y-133399410D01*
X100241447Y-133441035D01*
X100283841Y-133468315D01*
X100330000Y-133477000D01*
X115548821Y-133477000D01*
X115591541Y-133691770D01*
X115931130Y-134200000D01*
X115591541Y-134708230D01*
X115440016Y-135470000D01*
X115591541Y-136231770D01*
X115931130Y-136740000D01*
X115591541Y-137248230D01*
X115440016Y-138010000D01*
X115591541Y-138771770D01*
X115931130Y-139280000D01*
X115591541Y-139788230D01*
X115440016Y-140550000D01*
X115591541Y-141311770D01*
X116023049Y-141957567D01*
X116668846Y-142389075D01*
X117430616Y-142540600D01*
X117819384Y-142540600D01*
X118581154Y-142389075D01*
X119226951Y-141957567D01*
X119658459Y-141311770D01*
X119809984Y-140550000D01*
X119658459Y-139788230D01*
X119318870Y-139280000D01*
X119658459Y-138771770D01*
X119809984Y-138010000D01*
X119658459Y-137248230D01*
X119318870Y-136740000D01*
X119658459Y-136231770D01*
X119809984Y-135470000D01*
X119658459Y-134708230D01*
X119318870Y-134200000D01*
X119658459Y-133691770D01*
X119701179Y-133477000D01*
X168128794Y-133477000D01*
X168166541Y-133666770D01*
X168506130Y-134175000D01*
X168166541Y-134683230D01*
X168015016Y-135445000D01*
X168166541Y-136206770D01*
X168506130Y-136715000D01*
X168166541Y-137223230D01*
X168015016Y-137985000D01*
X168166541Y-138746770D01*
X168506130Y-139255000D01*
X168166541Y-139763230D01*
X168015016Y-140525000D01*
X168166541Y-141286770D01*
X168598049Y-141932567D01*
X169243846Y-142364075D01*
X170005616Y-142515600D01*
X170394384Y-142515600D01*
X171156154Y-142364075D01*
X171801951Y-141932567D01*
X172233459Y-141286770D01*
X172384984Y-140525000D01*
X172233459Y-139763230D01*
X171893870Y-139255000D01*
X172233459Y-138746770D01*
X172384984Y-137985000D01*
X172233459Y-137223230D01*
X171893870Y-136715000D01*
X172233459Y-136206770D01*
X172384984Y-135445000D01*
X172233459Y-134683230D01*
X171893870Y-134175000D01*
X172233459Y-133666770D01*
X172271206Y-133477000D01*
X189298000Y-133477000D01*
X189298000Y-145931612D01*
X189146839Y-146691549D01*
X188924976Y-146154599D01*
X188214740Y-145443123D01*
X187286297Y-145057599D01*
X186280994Y-145056722D01*
X185351879Y-145440624D01*
X184640403Y-146150860D01*
X184254879Y-147079303D01*
X184254002Y-148084606D01*
X184637904Y-149013721D01*
X185348140Y-149725197D01*
X185663288Y-149856058D01*
X185301612Y-149928000D01*
X182646228Y-149928000D01*
X183131001Y-149727696D01*
X183842477Y-149017460D01*
X184228001Y-148089017D01*
X184228878Y-147083714D01*
X183844976Y-146154599D01*
X183134740Y-145443123D01*
X182206297Y-145057599D01*
X181200994Y-145056722D01*
X180271879Y-145440624D01*
X179560403Y-146150860D01*
X179174879Y-147079303D01*
X179174002Y-148084606D01*
X179557904Y-149013721D01*
X180268140Y-149725197D01*
X180756543Y-149928000D01*
X108478228Y-149928000D01*
X108963001Y-149727696D01*
X109674477Y-149017460D01*
X110060001Y-148089017D01*
X110060878Y-147083714D01*
X109676976Y-146154599D01*
X108966740Y-145443123D01*
X108038297Y-145057599D01*
X107032994Y-145056722D01*
X106103879Y-145440624D01*
X105392403Y-146150860D01*
X105006879Y-147079303D01*
X105006002Y-148084606D01*
X105389904Y-149013721D01*
X106100140Y-149725197D01*
X106588543Y-149928000D01*
X103398228Y-149928000D01*
X103883001Y-149727696D01*
X104594477Y-149017460D01*
X104980001Y-148089017D01*
X104980878Y-147083714D01*
X104596976Y-146154599D01*
X103886740Y-145443123D01*
X102958297Y-145057599D01*
X101952994Y-145056722D01*
X101023879Y-145440624D01*
X100312403Y-146150860D01*
X99926879Y-147079303D01*
X99926002Y-148084606D01*
X100309904Y-149013721D01*
X101020140Y-149725197D01*
X101508543Y-149928000D01*
X78858388Y-149928000D01*
X77264964Y-149611048D01*
X76014492Y-148775509D01*
X75178951Y-147525035D01*
X74862000Y-145931612D01*
X74862000Y-112887166D01*
X75655186Y-113216526D01*
X76740054Y-113217472D01*
X77742703Y-112803186D01*
X78510490Y-112036738D01*
X78926526Y-111034814D01*
X78927472Y-109949946D01*
X78513186Y-108947297D01*
X77746738Y-108179510D01*
X76892648Y-107824860D01*
X77152099Y-107436565D01*
X77302589Y-106680000D01*
X77152099Y-105923435D01*
X76803002Y-105400975D01*
X76803002Y-104990000D01*
X76757000Y-104990000D01*
X76757000Y-104721750D01*
X76600250Y-104565000D01*
X75530000Y-104565000D01*
X75530000Y-104743660D01*
X75325589Y-104703000D01*
X74862000Y-104703000D01*
X74862000Y-103577000D01*
X75325589Y-103577000D01*
X75530000Y-103536340D01*
X75530000Y-103715000D01*
X76600250Y-103715000D01*
X76757000Y-103558250D01*
X76757000Y-103290000D01*
X76803002Y-103290000D01*
X76803002Y-102879025D01*
X77152099Y-102356565D01*
X77302589Y-101600000D01*
X77152099Y-100843435D01*
X76809033Y-100330000D01*
X77152099Y-99816565D01*
X77302589Y-99060000D01*
X77152099Y-98303435D01*
X77014163Y-98097000D01*
X81261786Y-98097000D01*
X85244892Y-102080107D01*
X85756508Y-102421958D01*
X86360000Y-102541999D01*
X86963491Y-102421958D01*
X87475107Y-102080107D01*
X87816958Y-101568491D01*
X87936999Y-100965000D01*
X87816958Y-100361508D01*
X87475107Y-99849892D01*
X83030107Y-95404893D01*
X82518492Y-95063042D01*
X81915000Y-94943000D01*
X76803002Y-94943000D01*
X76803002Y-94830000D01*
X76757000Y-94830000D01*
X76757000Y-94561750D01*
X76600250Y-94405000D01*
X75530000Y-94405000D01*
X75530000Y-94583660D01*
X75325589Y-94543000D01*
X74862000Y-94543000D01*
X74862000Y-93417000D01*
X75325589Y-93417000D01*
X75530000Y-93376340D01*
X75530000Y-93555000D01*
X76600250Y-93555000D01*
X76757000Y-93398250D01*
X76757000Y-93130000D01*
X76803002Y-93130000D01*
X76803002Y-92719025D01*
X77152099Y-92196565D01*
X77302589Y-91440000D01*
X77152099Y-90683435D01*
X76809033Y-90170000D01*
X77152099Y-89656565D01*
X77302589Y-88900000D01*
X77152099Y-88143435D01*
X76809033Y-87630000D01*
X77152099Y-87116565D01*
X77302589Y-86360000D01*
X77152099Y-85603435D01*
X76809033Y-85090000D01*
X77152099Y-84576565D01*
X77302589Y-83820000D01*
X77152099Y-83063435D01*
X76809033Y-82550000D01*
X77152099Y-82036565D01*
X77302589Y-81280000D01*
X77152099Y-80523435D01*
X76809033Y-80010000D01*
X77152099Y-79496565D01*
X77302589Y-78740000D01*
X77152099Y-77983435D01*
X76809033Y-77470000D01*
X77152099Y-76956565D01*
X77277327Y-76327000D01*
X95442673Y-76327000D01*
X95567901Y-76956565D01*
M02*
