G04 #@! TF.FileFunction,Legend,Bot*
%FSLAX46Y46*%
G04 Gerber Fmt 4.6, Leading zero omitted, Abs format (unit mm)*
G04 Created by KiCad (PCBNEW 4.0.4-stable) date 12/10/17 00:47:25*
%MOMM*%
%LPD*%
G01*
G04 APERTURE LIST*
%ADD10C,0.250000*%
%ADD11C,0.300000*%
%ADD12C,0.150000*%
%ADD13C,0.100000*%
%ADD14C,0.120000*%
G04 APERTURE END LIST*
D10*
D11*
X186288570Y-85538571D02*
X186574284Y-85538571D01*
X186717141Y-85610000D01*
X186788570Y-85681429D01*
X186931427Y-85895714D01*
X187002856Y-86181429D01*
X187002856Y-86752857D01*
X186931427Y-86895714D01*
X186859999Y-86967143D01*
X186717141Y-87038571D01*
X186431427Y-87038571D01*
X186288570Y-86967143D01*
X186217141Y-86895714D01*
X186145713Y-86752857D01*
X186145713Y-86395714D01*
X186217141Y-86252857D01*
X186288570Y-86181429D01*
X186431427Y-86110000D01*
X186717141Y-86110000D01*
X186859999Y-86181429D01*
X186931427Y-86252857D01*
X187002856Y-86395714D01*
X185717142Y-85538571D02*
X185217142Y-87038571D01*
X184717142Y-85538571D01*
X183288571Y-86038571D02*
X182717142Y-86038571D01*
X183074285Y-85538571D02*
X183074285Y-86824286D01*
X183002857Y-86967143D01*
X182859999Y-87038571D01*
X182717142Y-87038571D01*
X182002856Y-87038571D02*
X182145714Y-86967143D01*
X182217142Y-86895714D01*
X182288571Y-86752857D01*
X182288571Y-86324286D01*
X182217142Y-86181429D01*
X182145714Y-86110000D01*
X182002856Y-86038571D01*
X181788571Y-86038571D01*
X181645714Y-86110000D01*
X181574285Y-86181429D01*
X181502856Y-86324286D01*
X181502856Y-86752857D01*
X181574285Y-86895714D01*
X181645714Y-86967143D01*
X181788571Y-87038571D01*
X182002856Y-87038571D01*
X179788571Y-85681429D02*
X179717142Y-85610000D01*
X179574285Y-85538571D01*
X179217142Y-85538571D01*
X179074285Y-85610000D01*
X179002856Y-85681429D01*
X178931428Y-85824286D01*
X178931428Y-85967143D01*
X179002856Y-86181429D01*
X179859999Y-87038571D01*
X178931428Y-87038571D01*
X178002857Y-85538571D02*
X177860000Y-85538571D01*
X177717143Y-85610000D01*
X177645714Y-85681429D01*
X177574285Y-85824286D01*
X177502857Y-86110000D01*
X177502857Y-86467143D01*
X177574285Y-86752857D01*
X177645714Y-86895714D01*
X177717143Y-86967143D01*
X177860000Y-87038571D01*
X178002857Y-87038571D01*
X178145714Y-86967143D01*
X178217143Y-86895714D01*
X178288571Y-86752857D01*
X178360000Y-86467143D01*
X178360000Y-86110000D01*
X178288571Y-85824286D01*
X178217143Y-85681429D01*
X178145714Y-85610000D01*
X178002857Y-85538571D01*
X177074286Y-85538571D02*
X176574286Y-87038571D01*
X176074286Y-85538571D01*
D12*
X116355000Y-99905000D02*
X116355000Y-87205000D01*
X116355000Y-87205000D02*
X118895000Y-87205000D01*
X118895000Y-87205000D02*
X118895000Y-99905000D01*
X116075000Y-102725000D02*
X116075000Y-101175000D01*
X116355000Y-99905000D02*
X118895000Y-99905000D01*
X119175000Y-101175000D02*
X119175000Y-102725000D01*
X119175000Y-102725000D02*
X116075000Y-102725000D01*
D13*
X105757980Y-68640960D02*
X104233980Y-68640960D01*
X104995980Y-68894960D02*
X104995980Y-68386960D01*
X105523909Y-67142360D02*
G75*
G03X104468051Y-67142360I-527929J-304800D01*
G01*
X105523909Y-67142360D02*
X106037173Y-68031360D01*
X106037174Y-68031360D02*
G75*
G03X106565103Y-68336160I527929J304800D01*
G01*
X106565103Y-68336160D02*
X107891580Y-68336160D01*
X108501179Y-68944696D02*
G75*
G03X107891580Y-68336160I-609599J-1064D01*
G01*
X105897680Y-68945760D02*
G75*
G03X108501180Y-68945760I1301750J0D01*
G01*
X103426857Y-68336160D02*
X102100380Y-68336160D01*
X101490780Y-68945760D02*
G75*
G03X104094280Y-68945760I1301750J0D01*
G01*
X104468051Y-67142360D02*
X103954787Y-68031360D01*
X103426857Y-68336161D02*
G75*
G03X103954787Y-68031360I0J609601D01*
G01*
X102100380Y-68336160D02*
G75*
G03X101490780Y-68945760I0J-609600D01*
G01*
X105755440Y-82102960D02*
X104231440Y-82102960D01*
X104993440Y-82356960D02*
X104993440Y-81848960D01*
X105521369Y-80604360D02*
G75*
G03X104465511Y-80604360I-527929J-304800D01*
G01*
X105521369Y-80604360D02*
X106034633Y-81493360D01*
X106034634Y-81493360D02*
G75*
G03X106562563Y-81798160I527929J304800D01*
G01*
X106562563Y-81798160D02*
X107889040Y-81798160D01*
X108498639Y-82406696D02*
G75*
G03X107889040Y-81798160I-609599J-1064D01*
G01*
X105895140Y-82407760D02*
G75*
G03X108498640Y-82407760I1301750J0D01*
G01*
X103424317Y-81798160D02*
X102097840Y-81798160D01*
X101488240Y-82407760D02*
G75*
G03X104091740Y-82407760I1301750J0D01*
G01*
X104465511Y-80604360D02*
X103952247Y-81493360D01*
X103424317Y-81798161D02*
G75*
G03X103952247Y-81493360I0J609601D01*
G01*
X102097840Y-81798160D02*
G75*
G03X101488240Y-82407760I0J-609600D01*
G01*
X105755440Y-109280960D02*
X104231440Y-109280960D01*
X104993440Y-109534960D02*
X104993440Y-109026960D01*
X105521369Y-107782360D02*
G75*
G03X104465511Y-107782360I-527929J-304800D01*
G01*
X105521369Y-107782360D02*
X106034633Y-108671360D01*
X106034634Y-108671360D02*
G75*
G03X106562563Y-108976160I527929J304800D01*
G01*
X106562563Y-108976160D02*
X107889040Y-108976160D01*
X108498639Y-109584696D02*
G75*
G03X107889040Y-108976160I-609599J-1064D01*
G01*
X105895140Y-109585760D02*
G75*
G03X108498640Y-109585760I1301750J0D01*
G01*
X103424317Y-108976160D02*
X102097840Y-108976160D01*
X101488240Y-109585760D02*
G75*
G03X104091740Y-109585760I1301750J0D01*
G01*
X104465511Y-107782360D02*
X103952247Y-108671360D01*
X103424317Y-108976161D02*
G75*
G03X103952247Y-108671360I0J609601D01*
G01*
X102097840Y-108976160D02*
G75*
G03X101488240Y-109585760I0J-609600D01*
G01*
X105755440Y-120964960D02*
X104231440Y-120964960D01*
X104993440Y-121218960D02*
X104993440Y-120710960D01*
X105521369Y-119466360D02*
G75*
G03X104465511Y-119466360I-527929J-304800D01*
G01*
X105521369Y-119466360D02*
X106034633Y-120355360D01*
X106034634Y-120355360D02*
G75*
G03X106562563Y-120660160I527929J304800D01*
G01*
X106562563Y-120660160D02*
X107889040Y-120660160D01*
X108498639Y-121268696D02*
G75*
G03X107889040Y-120660160I-609599J-1064D01*
G01*
X105895140Y-121269760D02*
G75*
G03X108498640Y-121269760I1301750J0D01*
G01*
X103424317Y-120660160D02*
X102097840Y-120660160D01*
X101488240Y-121269760D02*
G75*
G03X104091740Y-121269760I1301750J0D01*
G01*
X104465511Y-119466360D02*
X103952247Y-120355360D01*
X103424317Y-120660161D02*
G75*
G03X103952247Y-120355360I0J609601D01*
G01*
X102097840Y-120660160D02*
G75*
G03X101488240Y-121269760I0J-609600D01*
G01*
X105755440Y-147888960D02*
X104231440Y-147888960D01*
X104993440Y-148142960D02*
X104993440Y-147634960D01*
X105521369Y-146390360D02*
G75*
G03X104465511Y-146390360I-527929J-304800D01*
G01*
X105521369Y-146390360D02*
X106034633Y-147279360D01*
X106034634Y-147279360D02*
G75*
G03X106562563Y-147584160I527929J304800D01*
G01*
X106562563Y-147584160D02*
X107889040Y-147584160D01*
X108498639Y-148192696D02*
G75*
G03X107889040Y-147584160I-609599J-1064D01*
G01*
X105895140Y-148193760D02*
G75*
G03X108498640Y-148193760I1301750J0D01*
G01*
X103424317Y-147584160D02*
X102097840Y-147584160D01*
X101488240Y-148193760D02*
G75*
G03X104091740Y-148193760I1301750J0D01*
G01*
X104465511Y-146390360D02*
X103952247Y-147279360D01*
X103424317Y-147584161D02*
G75*
G03X103952247Y-147279360I0J609601D01*
G01*
X102097840Y-147584160D02*
G75*
G03X101488240Y-148193760I0J-609600D01*
G01*
X185003440Y-68640960D02*
X183479440Y-68640960D01*
X184241440Y-68894960D02*
X184241440Y-68386960D01*
X184769369Y-67142360D02*
G75*
G03X183713511Y-67142360I-527929J-304800D01*
G01*
X184769369Y-67142360D02*
X185282633Y-68031360D01*
X185282634Y-68031360D02*
G75*
G03X185810563Y-68336160I527929J304800D01*
G01*
X185810563Y-68336160D02*
X187137040Y-68336160D01*
X187746639Y-68944696D02*
G75*
G03X187137040Y-68336160I-609599J-1064D01*
G01*
X185143140Y-68945760D02*
G75*
G03X187746640Y-68945760I1301750J0D01*
G01*
X182672317Y-68336160D02*
X181345840Y-68336160D01*
X180736240Y-68945760D02*
G75*
G03X183339740Y-68945760I1301750J0D01*
G01*
X183713511Y-67142360D02*
X183200247Y-68031360D01*
X182672317Y-68336161D02*
G75*
G03X183200247Y-68031360I0J609601D01*
G01*
X181345840Y-68336160D02*
G75*
G03X180736240Y-68945760I0J-609600D01*
G01*
X185003440Y-82102960D02*
X183479440Y-82102960D01*
X184241440Y-82356960D02*
X184241440Y-81848960D01*
X184769369Y-80604360D02*
G75*
G03X183713511Y-80604360I-527929J-304800D01*
G01*
X184769369Y-80604360D02*
X185282633Y-81493360D01*
X185282634Y-81493360D02*
G75*
G03X185810563Y-81798160I527929J304800D01*
G01*
X185810563Y-81798160D02*
X187137040Y-81798160D01*
X187746639Y-82406696D02*
G75*
G03X187137040Y-81798160I-609599J-1064D01*
G01*
X185143140Y-82407760D02*
G75*
G03X187746640Y-82407760I1301750J0D01*
G01*
X182672317Y-81798160D02*
X181345840Y-81798160D01*
X180736240Y-82407760D02*
G75*
G03X183339740Y-82407760I1301750J0D01*
G01*
X183713511Y-80604360D02*
X183200247Y-81493360D01*
X182672317Y-81798161D02*
G75*
G03X183200247Y-81493360I0J609601D01*
G01*
X181345840Y-81798160D02*
G75*
G03X180736240Y-82407760I0J-609600D01*
G01*
X185003440Y-109280960D02*
X183479440Y-109280960D01*
X184241440Y-109534960D02*
X184241440Y-109026960D01*
X184769369Y-107782360D02*
G75*
G03X183713511Y-107782360I-527929J-304800D01*
G01*
X184769369Y-107782360D02*
X185282633Y-108671360D01*
X185282634Y-108671360D02*
G75*
G03X185810563Y-108976160I527929J304800D01*
G01*
X185810563Y-108976160D02*
X187137040Y-108976160D01*
X187746639Y-109584696D02*
G75*
G03X187137040Y-108976160I-609599J-1064D01*
G01*
X185143140Y-109585760D02*
G75*
G03X187746640Y-109585760I1301750J0D01*
G01*
X182672317Y-108976160D02*
X181345840Y-108976160D01*
X180736240Y-109585760D02*
G75*
G03X183339740Y-109585760I1301750J0D01*
G01*
X183713511Y-107782360D02*
X183200247Y-108671360D01*
X182672317Y-108976161D02*
G75*
G03X183200247Y-108671360I0J609601D01*
G01*
X181345840Y-108976160D02*
G75*
G03X180736240Y-109585760I0J-609600D01*
G01*
X185003440Y-120964960D02*
X183479440Y-120964960D01*
X184241440Y-121218960D02*
X184241440Y-120710960D01*
X184769369Y-119466360D02*
G75*
G03X183713511Y-119466360I-527929J-304800D01*
G01*
X184769369Y-119466360D02*
X185282633Y-120355360D01*
X185282634Y-120355360D02*
G75*
G03X185810563Y-120660160I527929J304800D01*
G01*
X185810563Y-120660160D02*
X187137040Y-120660160D01*
X187746639Y-121268696D02*
G75*
G03X187137040Y-120660160I-609599J-1064D01*
G01*
X185143140Y-121269760D02*
G75*
G03X187746640Y-121269760I1301750J0D01*
G01*
X182672317Y-120660160D02*
X181345840Y-120660160D01*
X180736240Y-121269760D02*
G75*
G03X183339740Y-121269760I1301750J0D01*
G01*
X183713511Y-119466360D02*
X183200247Y-120355360D01*
X182672317Y-120660161D02*
G75*
G03X183200247Y-120355360I0J609601D01*
G01*
X181345840Y-120660160D02*
G75*
G03X180736240Y-121269760I0J-609600D01*
G01*
X185003440Y-147888960D02*
X183479440Y-147888960D01*
X184241440Y-148142960D02*
X184241440Y-147634960D01*
X184769369Y-146390360D02*
G75*
G03X183713511Y-146390360I-527929J-304800D01*
G01*
X184769369Y-146390360D02*
X185282633Y-147279360D01*
X185282634Y-147279360D02*
G75*
G03X185810563Y-147584160I527929J304800D01*
G01*
X185810563Y-147584160D02*
X187137040Y-147584160D01*
X187746639Y-148192696D02*
G75*
G03X187137040Y-147584160I-609599J-1064D01*
G01*
X185143140Y-148193760D02*
G75*
G03X187746640Y-148193760I1301750J0D01*
G01*
X182672317Y-147584160D02*
X181345840Y-147584160D01*
X180736240Y-148193760D02*
G75*
G03X183339740Y-148193760I1301750J0D01*
G01*
X183713511Y-146390360D02*
X183200247Y-147279360D01*
X182672317Y-147584161D02*
G75*
G03X183200247Y-147279360I0J609601D01*
G01*
X181345840Y-147584160D02*
G75*
G03X180736240Y-148193760I0J-609600D01*
G01*
D12*
X116355000Y-139280000D02*
X116355000Y-126580000D01*
X116355000Y-126580000D02*
X118895000Y-126580000D01*
X118895000Y-126580000D02*
X118895000Y-139280000D01*
X116075000Y-142100000D02*
X116075000Y-140550000D01*
X116355000Y-139280000D02*
X118895000Y-139280000D01*
X119175000Y-140550000D02*
X119175000Y-142100000D01*
X119175000Y-142100000D02*
X116075000Y-142100000D01*
X168930000Y-99905000D02*
X168930000Y-87205000D01*
X168930000Y-87205000D02*
X171470000Y-87205000D01*
X171470000Y-87205000D02*
X171470000Y-99905000D01*
X168650000Y-102725000D02*
X168650000Y-101175000D01*
X168930000Y-99905000D02*
X171470000Y-99905000D01*
X171750000Y-101175000D02*
X171750000Y-102725000D01*
X171750000Y-102725000D02*
X168650000Y-102725000D01*
X168930000Y-139255000D02*
X168930000Y-126555000D01*
X168930000Y-126555000D02*
X171470000Y-126555000D01*
X171470000Y-126555000D02*
X171470000Y-139255000D01*
X168650000Y-142075000D02*
X168650000Y-140525000D01*
X168930000Y-139255000D02*
X171470000Y-139255000D01*
X171750000Y-140525000D02*
X171750000Y-142075000D01*
X171750000Y-142075000D02*
X168650000Y-142075000D01*
D14*
X185340000Y-95405000D02*
X194140000Y-95405000D01*
X194140000Y-95405000D02*
X194140000Y-86205000D01*
X179440000Y-92705000D02*
X179440000Y-95405000D01*
X179440000Y-95405000D02*
X181340000Y-95405000D01*
X194140000Y-86205000D02*
X179440000Y-86205000D01*
X179440000Y-86205000D02*
X179440000Y-88805000D01*
D12*
X122177381Y-100841667D02*
X122891667Y-100841667D01*
X123034524Y-100794047D01*
X123129762Y-100698809D01*
X123177381Y-100555952D01*
X123177381Y-100460714D01*
X122177381Y-101746429D02*
X122177381Y-101555952D01*
X122225000Y-101460714D01*
X122272619Y-101413095D01*
X122415476Y-101317857D01*
X122605952Y-101270238D01*
X122986905Y-101270238D01*
X123082143Y-101317857D01*
X123129762Y-101365476D01*
X123177381Y-101460714D01*
X123177381Y-101651191D01*
X123129762Y-101746429D01*
X123082143Y-101794048D01*
X122986905Y-101841667D01*
X122748810Y-101841667D01*
X122653571Y-101794048D01*
X122605952Y-101746429D01*
X122558333Y-101651191D01*
X122558333Y-101460714D01*
X122605952Y-101365476D01*
X122653571Y-101317857D01*
X122748810Y-101270238D01*
X105329313Y-65553341D02*
X105329313Y-66267627D01*
X105376933Y-66410484D01*
X105472171Y-66505722D01*
X105615028Y-66553341D01*
X105710266Y-66553341D01*
X104948361Y-65553341D02*
X104281694Y-65553341D01*
X104710266Y-66553341D01*
X105326773Y-79015341D02*
X105326773Y-79729627D01*
X105374393Y-79872484D01*
X105469631Y-79967722D01*
X105612488Y-80015341D01*
X105707726Y-80015341D01*
X104707726Y-79443912D02*
X104802964Y-79396293D01*
X104850583Y-79348674D01*
X104898202Y-79253436D01*
X104898202Y-79205817D01*
X104850583Y-79110579D01*
X104802964Y-79062960D01*
X104707726Y-79015341D01*
X104517249Y-79015341D01*
X104422011Y-79062960D01*
X104374392Y-79110579D01*
X104326773Y-79205817D01*
X104326773Y-79253436D01*
X104374392Y-79348674D01*
X104422011Y-79396293D01*
X104517249Y-79443912D01*
X104707726Y-79443912D01*
X104802964Y-79491531D01*
X104850583Y-79539150D01*
X104898202Y-79634389D01*
X104898202Y-79824865D01*
X104850583Y-79920103D01*
X104802964Y-79967722D01*
X104707726Y-80015341D01*
X104517249Y-80015341D01*
X104422011Y-79967722D01*
X104374392Y-79920103D01*
X104326773Y-79824865D01*
X104326773Y-79634389D01*
X104374392Y-79539150D01*
X104422011Y-79491531D01*
X104517249Y-79443912D01*
X105326773Y-106193341D02*
X105326773Y-106907627D01*
X105374393Y-107050484D01*
X105469631Y-107145722D01*
X105612488Y-107193341D01*
X105707726Y-107193341D01*
X104802964Y-107193341D02*
X104612488Y-107193341D01*
X104517249Y-107145722D01*
X104469630Y-107098103D01*
X104374392Y-106955246D01*
X104326773Y-106764770D01*
X104326773Y-106383817D01*
X104374392Y-106288579D01*
X104422011Y-106240960D01*
X104517249Y-106193341D01*
X104707726Y-106193341D01*
X104802964Y-106240960D01*
X104850583Y-106288579D01*
X104898202Y-106383817D01*
X104898202Y-106621912D01*
X104850583Y-106717150D01*
X104802964Y-106764770D01*
X104707726Y-106812389D01*
X104517249Y-106812389D01*
X104422011Y-106764770D01*
X104374392Y-106717150D01*
X104326773Y-106621912D01*
X105802963Y-117877341D02*
X105802963Y-118591627D01*
X105850583Y-118734484D01*
X105945821Y-118829722D01*
X106088678Y-118877341D01*
X106183916Y-118877341D01*
X104802963Y-118877341D02*
X105374392Y-118877341D01*
X105088678Y-118877341D02*
X105088678Y-117877341D01*
X105183916Y-118020198D01*
X105279154Y-118115436D01*
X105374392Y-118163055D01*
X104183916Y-117877341D02*
X104088677Y-117877341D01*
X103993439Y-117924960D01*
X103945820Y-117972579D01*
X103898201Y-118067817D01*
X103850582Y-118258293D01*
X103850582Y-118496389D01*
X103898201Y-118686865D01*
X103945820Y-118782103D01*
X103993439Y-118829722D01*
X104088677Y-118877341D01*
X104183916Y-118877341D01*
X104279154Y-118829722D01*
X104326773Y-118782103D01*
X104374392Y-118686865D01*
X104422011Y-118496389D01*
X104422011Y-118258293D01*
X104374392Y-118067817D01*
X104326773Y-117972579D01*
X104279154Y-117924960D01*
X104183916Y-117877341D01*
X105802963Y-144801341D02*
X105802963Y-145515627D01*
X105850583Y-145658484D01*
X105945821Y-145753722D01*
X106088678Y-145801341D01*
X106183916Y-145801341D01*
X104802963Y-145801341D02*
X105374392Y-145801341D01*
X105088678Y-145801341D02*
X105088678Y-144801341D01*
X105183916Y-144944198D01*
X105279154Y-145039436D01*
X105374392Y-145087055D01*
X103850582Y-145801341D02*
X104422011Y-145801341D01*
X104136297Y-145801341D02*
X104136297Y-144801341D01*
X104231535Y-144944198D01*
X104326773Y-145039436D01*
X104422011Y-145087055D01*
X185050963Y-65553341D02*
X185050963Y-66267627D01*
X185098583Y-66410484D01*
X185193821Y-66505722D01*
X185336678Y-66553341D01*
X185431916Y-66553341D01*
X184050963Y-66553341D02*
X184622392Y-66553341D01*
X184336678Y-66553341D02*
X184336678Y-65553341D01*
X184431916Y-65696198D01*
X184527154Y-65791436D01*
X184622392Y-65839055D01*
X183670011Y-65648579D02*
X183622392Y-65600960D01*
X183527154Y-65553341D01*
X183289058Y-65553341D01*
X183193820Y-65600960D01*
X183146201Y-65648579D01*
X183098582Y-65743817D01*
X183098582Y-65839055D01*
X183146201Y-65981912D01*
X183717630Y-66553341D01*
X183098582Y-66553341D01*
X185050963Y-79015341D02*
X185050963Y-79729627D01*
X185098583Y-79872484D01*
X185193821Y-79967722D01*
X185336678Y-80015341D01*
X185431916Y-80015341D01*
X184050963Y-80015341D02*
X184622392Y-80015341D01*
X184336678Y-80015341D02*
X184336678Y-79015341D01*
X184431916Y-79158198D01*
X184527154Y-79253436D01*
X184622392Y-79301055D01*
X183717630Y-79015341D02*
X183098582Y-79015341D01*
X183431916Y-79396293D01*
X183289058Y-79396293D01*
X183193820Y-79443912D01*
X183146201Y-79491531D01*
X183098582Y-79586770D01*
X183098582Y-79824865D01*
X183146201Y-79920103D01*
X183193820Y-79967722D01*
X183289058Y-80015341D01*
X183574773Y-80015341D01*
X183670011Y-79967722D01*
X183717630Y-79920103D01*
X185050963Y-106193341D02*
X185050963Y-106907627D01*
X185098583Y-107050484D01*
X185193821Y-107145722D01*
X185336678Y-107193341D01*
X185431916Y-107193341D01*
X184050963Y-107193341D02*
X184622392Y-107193341D01*
X184336678Y-107193341D02*
X184336678Y-106193341D01*
X184431916Y-106336198D01*
X184527154Y-106431436D01*
X184622392Y-106479055D01*
X183193820Y-106526674D02*
X183193820Y-107193341D01*
X183431916Y-106145722D02*
X183670011Y-106860008D01*
X183050963Y-106860008D01*
X185050963Y-117877341D02*
X185050963Y-118591627D01*
X185098583Y-118734484D01*
X185193821Y-118829722D01*
X185336678Y-118877341D01*
X185431916Y-118877341D01*
X184050963Y-118877341D02*
X184622392Y-118877341D01*
X184336678Y-118877341D02*
X184336678Y-117877341D01*
X184431916Y-118020198D01*
X184527154Y-118115436D01*
X184622392Y-118163055D01*
X183146201Y-117877341D02*
X183622392Y-117877341D01*
X183670011Y-118353531D01*
X183622392Y-118305912D01*
X183527154Y-118258293D01*
X183289058Y-118258293D01*
X183193820Y-118305912D01*
X183146201Y-118353531D01*
X183098582Y-118448770D01*
X183098582Y-118686865D01*
X183146201Y-118782103D01*
X183193820Y-118829722D01*
X183289058Y-118877341D01*
X183527154Y-118877341D01*
X183622392Y-118829722D01*
X183670011Y-118782103D01*
X185050963Y-144801341D02*
X185050963Y-145515627D01*
X185098583Y-145658484D01*
X185193821Y-145753722D01*
X185336678Y-145801341D01*
X185431916Y-145801341D01*
X184050963Y-145801341D02*
X184622392Y-145801341D01*
X184336678Y-145801341D02*
X184336678Y-144801341D01*
X184431916Y-144944198D01*
X184527154Y-145039436D01*
X184622392Y-145087055D01*
X183193820Y-144801341D02*
X183384297Y-144801341D01*
X183479535Y-144848960D01*
X183527154Y-144896579D01*
X183622392Y-145039436D01*
X183670011Y-145229912D01*
X183670011Y-145610865D01*
X183622392Y-145706103D01*
X183574773Y-145753722D01*
X183479535Y-145801341D01*
X183289058Y-145801341D01*
X183193820Y-145753722D01*
X183146201Y-145706103D01*
X183098582Y-145610865D01*
X183098582Y-145372770D01*
X183146201Y-145277531D01*
X183193820Y-145229912D01*
X183289058Y-145182293D01*
X183479535Y-145182293D01*
X183574773Y-145229912D01*
X183622392Y-145277531D01*
X183670011Y-145372770D01*
X122177381Y-139740477D02*
X122891667Y-139740477D01*
X123034524Y-139692857D01*
X123129762Y-139597619D01*
X123177381Y-139454762D01*
X123177381Y-139359524D01*
X123177381Y-140740477D02*
X123177381Y-140169048D01*
X123177381Y-140454762D02*
X122177381Y-140454762D01*
X122320238Y-140359524D01*
X122415476Y-140264286D01*
X122463095Y-140169048D01*
X122177381Y-141073810D02*
X122177381Y-141740477D01*
X123177381Y-141311905D01*
X174752381Y-100365477D02*
X175466667Y-100365477D01*
X175609524Y-100317857D01*
X175704762Y-100222619D01*
X175752381Y-100079762D01*
X175752381Y-99984524D01*
X175752381Y-101365477D02*
X175752381Y-100794048D01*
X175752381Y-101079762D02*
X174752381Y-101079762D01*
X174895238Y-100984524D01*
X174990476Y-100889286D01*
X175038095Y-100794048D01*
X175180952Y-101936905D02*
X175133333Y-101841667D01*
X175085714Y-101794048D01*
X174990476Y-101746429D01*
X174942857Y-101746429D01*
X174847619Y-101794048D01*
X174800000Y-101841667D01*
X174752381Y-101936905D01*
X174752381Y-102127382D01*
X174800000Y-102222620D01*
X174847619Y-102270239D01*
X174942857Y-102317858D01*
X174990476Y-102317858D01*
X175085714Y-102270239D01*
X175133333Y-102222620D01*
X175180952Y-102127382D01*
X175180952Y-101936905D01*
X175228571Y-101841667D01*
X175276190Y-101794048D01*
X175371429Y-101746429D01*
X175561905Y-101746429D01*
X175657143Y-101794048D01*
X175704762Y-101841667D01*
X175752381Y-101936905D01*
X175752381Y-102127382D01*
X175704762Y-102222620D01*
X175657143Y-102270239D01*
X175561905Y-102317858D01*
X175371429Y-102317858D01*
X175276190Y-102270239D01*
X175228571Y-102222620D01*
X175180952Y-102127382D01*
X174752381Y-139715477D02*
X175466667Y-139715477D01*
X175609524Y-139667857D01*
X175704762Y-139572619D01*
X175752381Y-139429762D01*
X175752381Y-139334524D01*
X175752381Y-140715477D02*
X175752381Y-140144048D01*
X175752381Y-140429762D02*
X174752381Y-140429762D01*
X174895238Y-140334524D01*
X174990476Y-140239286D01*
X175038095Y-140144048D01*
X175752381Y-141191667D02*
X175752381Y-141382143D01*
X175704762Y-141477382D01*
X175657143Y-141525001D01*
X175514286Y-141620239D01*
X175323810Y-141667858D01*
X174942857Y-141667858D01*
X174847619Y-141620239D01*
X174800000Y-141572620D01*
X174752381Y-141477382D01*
X174752381Y-141286905D01*
X174800000Y-141191667D01*
X174847619Y-141144048D01*
X174942857Y-141096429D01*
X175180952Y-141096429D01*
X175276190Y-141144048D01*
X175323810Y-141191667D01*
X175371429Y-141286905D01*
X175371429Y-141477382D01*
X175323810Y-141572620D01*
X175276190Y-141620239D01*
X175180952Y-141667858D01*
X189123333Y-96007381D02*
X189123333Y-96721667D01*
X189170953Y-96864524D01*
X189266191Y-96959762D01*
X189409048Y-97007381D01*
X189504286Y-97007381D01*
X188694762Y-96102619D02*
X188647143Y-96055000D01*
X188551905Y-96007381D01*
X188313809Y-96007381D01*
X188218571Y-96055000D01*
X188170952Y-96102619D01*
X188123333Y-96197857D01*
X188123333Y-96293095D01*
X188170952Y-96435952D01*
X188742381Y-97007381D01*
X188123333Y-97007381D01*
M02*
