G04 #@! TF.FileFunction,Other,User*
%FSLAX46Y46*%
G04 Gerber Fmt 4.6, Leading zero omitted, Abs format (unit mm)*
G04 Created by KiCad (PCBNEW 4.0.4-stable) date 12/10/17 00:47:25*
%MOMM*%
%LPD*%
G01*
G04 APERTURE LIST*
%ADD10C,0.250000*%
%ADD11C,0.050000*%
G04 APERTURE END LIST*
D10*
D11*
X119375000Y-102925000D02*
X115875000Y-102925000D01*
X119375000Y-86725000D02*
X115875000Y-86725000D01*
X119375000Y-102925000D02*
X119375000Y-86725000D01*
X115875000Y-102925000D02*
X115875000Y-86725000D01*
X119375000Y-142300000D02*
X115875000Y-142300000D01*
X119375000Y-126100000D02*
X115875000Y-126100000D01*
X119375000Y-142300000D02*
X119375000Y-126100000D01*
X115875000Y-142300000D02*
X115875000Y-126100000D01*
X171950000Y-102925000D02*
X168450000Y-102925000D01*
X171950000Y-86725000D02*
X168450000Y-86725000D01*
X171950000Y-102925000D02*
X171950000Y-86725000D01*
X168450000Y-102925000D02*
X168450000Y-86725000D01*
X171950000Y-142275000D02*
X168450000Y-142275000D01*
X171950000Y-126075000D02*
X168450000Y-126075000D01*
X171950000Y-142275000D02*
X171950000Y-126075000D01*
X168450000Y-142275000D02*
X168450000Y-126075000D01*
X179340000Y-86305000D02*
X179340000Y-86055000D01*
X179340000Y-86055000D02*
X194340000Y-86055000D01*
X179340000Y-86305000D02*
X179340000Y-88805000D01*
X179340000Y-88805000D02*
X178340000Y-88805000D01*
X178340000Y-88805000D02*
X178340000Y-92805000D01*
X178340000Y-92805000D02*
X179340000Y-92805000D01*
X179340000Y-92805000D02*
X179340000Y-95555000D01*
X179340000Y-95555000D02*
X181340000Y-95555000D01*
X181340000Y-95555000D02*
X181340000Y-97555000D01*
X181340000Y-97555000D02*
X185340000Y-97555000D01*
X185340000Y-97555000D02*
X185340000Y-95555000D01*
X185340000Y-95555000D02*
X194340000Y-95555000D01*
X194340000Y-95555000D02*
X194340000Y-86055000D01*
M02*
