G04 #@! TF.FileFunction,Copper,L1,Top,Signal*
%FSLAX46Y46*%
G04 Gerber Fmt 4.6, Leading zero omitted, Abs format (unit mm)*
G04 Created by KiCad (PCBNEW 4.0.4-stable) date 12/10/17 00:47:25*
%MOMM*%
%LPD*%
G01*
G04 APERTURE LIST*
%ADD10C,0.250000*%
%ADD11C,1.700000*%
%ADD12R,1.000000X1.600000*%
%ADD13R,1.000000X1.250000*%
%ADD14R,2.200000X2.200000*%
%ADD15O,2.200000X2.200000*%
%ADD16O,8.000000X4.000000*%
%ADD17R,5.000000X5.000000*%
%ADD18R,4.000000X4.000000*%
%ADD19O,2.032000X1.727200*%
%ADD20R,2.032000X1.727200*%
%ADD21C,2.800000*%
%ADD22R,0.900000X0.800000*%
%ADD23R,1.700000X0.900000*%
%ADD24R,1.800000X1.800000*%
%ADD25O,1.800000X1.800000*%
%ADD26O,2.400000X1.700000*%
%ADD27R,2.400000X1.700000*%
%ADD28R,1.200000X0.900000*%
%ADD29R,3.800000X2.000000*%
%ADD30R,1.500000X2.000000*%
%ADD31C,0.600000*%
%ADD32C,0.900000*%
%ADD33C,3.000000*%
%ADD34C,2.000000*%
%ADD35C,0.300000*%
%ADD36C,0.254000*%
G04 APERTURE END LIST*
D10*
D11*
X127160000Y-121560000D03*
X147160000Y-121560000D03*
X147160000Y-76560000D03*
X127160000Y-76560000D03*
D12*
X175030000Y-118745000D03*
X178030000Y-118745000D03*
D13*
X175530000Y-113665000D03*
X177530000Y-113665000D03*
D14*
X118745000Y-121285000D03*
D15*
X118745000Y-108585000D03*
D16*
X178340000Y-100330000D03*
D17*
X186340000Y-100330000D03*
D18*
X183340000Y-95630000D03*
D19*
X117625000Y-101175000D03*
X117625000Y-98635000D03*
X117625000Y-96095000D03*
X117625000Y-93555000D03*
X117625000Y-91015000D03*
D20*
X117625000Y-88475000D03*
D21*
X102455980Y-68336160D03*
X107535980Y-68336160D03*
X102453440Y-81798160D03*
X107533440Y-81798160D03*
X102453440Y-108976160D03*
X107533440Y-108976160D03*
X102453440Y-120660160D03*
X107533440Y-120660160D03*
X102453440Y-147584160D03*
X107533440Y-147584160D03*
X181701440Y-68336160D03*
X186781440Y-68336160D03*
X181701440Y-81798160D03*
X186781440Y-81798160D03*
X181701440Y-108976160D03*
X186781440Y-108976160D03*
X181701440Y-120660160D03*
X186781440Y-120660160D03*
X181701440Y-147584160D03*
X186781440Y-147584160D03*
D19*
X117625000Y-140550000D03*
X117625000Y-138010000D03*
X117625000Y-135470000D03*
X117625000Y-132930000D03*
X117625000Y-130390000D03*
D20*
X117625000Y-127850000D03*
D19*
X170200000Y-101175000D03*
X170200000Y-98635000D03*
X170200000Y-96095000D03*
X170200000Y-93555000D03*
X170200000Y-91015000D03*
D20*
X170200000Y-88475000D03*
D19*
X170200000Y-140525000D03*
X170200000Y-137985000D03*
X170200000Y-135445000D03*
X170200000Y-132905000D03*
X170200000Y-130365000D03*
D20*
X170200000Y-127825000D03*
D22*
X106950000Y-100650000D03*
X106950000Y-102550000D03*
X108950000Y-101600000D03*
X106950000Y-94300000D03*
X106950000Y-96200000D03*
X108950000Y-95250000D03*
X106950000Y-87950000D03*
X106950000Y-89850000D03*
X108950000Y-88900000D03*
X106950000Y-73980000D03*
X106950000Y-75880000D03*
X108950000Y-74930000D03*
D23*
X102870000Y-100150000D03*
X102870000Y-103050000D03*
X102870000Y-93800000D03*
X102870000Y-96700000D03*
X102870000Y-87450000D03*
X102870000Y-90350000D03*
X102870000Y-73480000D03*
X102870000Y-76380000D03*
X113030000Y-100150000D03*
X113030000Y-103050000D03*
X113030000Y-93800000D03*
X113030000Y-96700000D03*
X113030000Y-87450000D03*
X113030000Y-90350000D03*
X113030000Y-73480000D03*
X113030000Y-76380000D03*
D24*
X181610000Y-125095000D03*
D25*
X179070000Y-125095000D03*
X176530000Y-125095000D03*
D26*
X74930000Y-71120000D03*
D27*
X97790000Y-104140000D03*
D26*
X74930000Y-73660000D03*
X97790000Y-101600000D03*
X74930000Y-76200000D03*
X97790000Y-99060000D03*
X74930000Y-78740000D03*
X97790000Y-96520000D03*
X74930000Y-81280000D03*
X97790000Y-93980000D03*
X74930000Y-83820000D03*
X97790000Y-91440000D03*
X74930000Y-86360000D03*
X97790000Y-88900000D03*
X74930000Y-88900000D03*
D27*
X97790000Y-86360000D03*
D26*
X74930000Y-91440000D03*
X97790000Y-83820000D03*
D27*
X74930000Y-93980000D03*
D26*
X97790000Y-81280000D03*
X74930000Y-96520000D03*
X97790000Y-78740000D03*
X74930000Y-99060000D03*
X97790000Y-76200000D03*
X74930000Y-101600000D03*
X97790000Y-73660000D03*
D27*
X74930000Y-104140000D03*
D26*
X97790000Y-71120000D03*
X74930000Y-106680000D03*
X97790000Y-106680000D03*
D28*
X118745000Y-116585000D03*
X118745000Y-113285000D03*
D29*
X179070000Y-136500000D03*
D30*
X179070000Y-130200000D03*
X176770000Y-130200000D03*
X181370000Y-130200000D03*
D16*
X178340000Y-90805000D03*
D17*
X186340000Y-90805000D03*
D31*
X110490000Y-73406000D03*
X110490000Y-100076000D03*
X110490000Y-93726000D03*
X110490000Y-87376000D03*
X86360000Y-100965000D03*
X106934000Y-86614000D03*
X102870000Y-98679000D03*
X102870000Y-92202000D03*
X99949000Y-73533000D03*
X101092000Y-102997000D03*
X99822000Y-90297000D03*
D32*
X175530000Y-113665000D02*
X167640000Y-113665000D01*
X83820000Y-115570000D02*
X111760000Y-115570000D01*
X111760000Y-115570000D02*
X118745000Y-108585000D01*
D33*
X179070000Y-147584160D02*
X179070000Y-136500000D01*
D32*
X118745000Y-113285000D02*
X118745000Y-108585000D01*
D34*
X117625000Y-101175000D02*
X118745000Y-102295000D01*
X118745000Y-102295000D02*
X118745000Y-108585000D01*
X74930000Y-106680000D02*
X81280000Y-106680000D01*
X89164160Y-147584160D02*
X102453440Y-147584160D01*
X83820000Y-142240000D02*
X89164160Y-147584160D01*
X83820000Y-109220000D02*
X83820000Y-115570000D01*
X83820000Y-115570000D02*
X83820000Y-142240000D01*
X81280000Y-106680000D02*
X83820000Y-109220000D01*
X117625000Y-140550000D02*
X117625000Y-147584160D01*
X116840000Y-147320000D02*
X116840000Y-147584160D01*
X117360840Y-147320000D02*
X116840000Y-147320000D01*
X117625000Y-147584160D02*
X117360840Y-147320000D01*
D33*
X181701440Y-147584160D02*
X179070000Y-147584160D01*
X179070000Y-147584160D02*
X116840000Y-147584160D01*
X116840000Y-147584160D02*
X107533440Y-147584160D01*
D32*
X179070000Y-130200000D02*
X179070000Y-125095000D01*
X179070000Y-130200000D02*
X179070000Y-136500000D01*
X170200000Y-140525000D02*
X171895000Y-140525000D01*
X175920000Y-136500000D02*
X179070000Y-136500000D01*
X171895000Y-140525000D02*
X175920000Y-136500000D01*
X175530000Y-113665000D02*
X175530000Y-116570000D01*
X175030000Y-117070000D02*
X175030000Y-118745000D01*
X175530000Y-116570000D02*
X175030000Y-117070000D01*
X175030000Y-118745000D02*
X175030000Y-119785000D01*
X175030000Y-119785000D02*
X179070000Y-123825000D01*
X179070000Y-123825000D02*
X179070000Y-125095000D01*
D35*
X113030000Y-73480000D02*
X112956000Y-73406000D01*
X112956000Y-73406000D02*
X110490000Y-73406000D01*
X113030000Y-100150000D02*
X112956000Y-100076000D01*
X112956000Y-100076000D02*
X110490000Y-100076000D01*
X113030000Y-93800000D02*
X112956000Y-93726000D01*
X112956000Y-93726000D02*
X110490000Y-93726000D01*
X113030000Y-87450000D02*
X112956000Y-87376000D01*
X112956000Y-87376000D02*
X110490000Y-87376000D01*
X113030000Y-73480000D02*
X112850000Y-73660000D01*
D34*
X160020000Y-140550000D02*
X170175000Y-140550000D01*
D35*
X170175000Y-140550000D02*
X170200000Y-140525000D01*
D34*
X117625000Y-140550000D02*
X160020000Y-140550000D01*
D35*
X160020000Y-140550000D02*
X164250000Y-140550000D01*
D34*
X167640000Y-137160000D02*
X167640000Y-113665000D01*
X164250000Y-140550000D02*
X167640000Y-137160000D01*
X167640000Y-113665000D02*
X167640000Y-103735000D01*
X167640000Y-103735000D02*
X170200000Y-101175000D01*
D33*
X102453440Y-147584160D02*
X107533440Y-147584160D01*
X181701440Y-147584160D02*
X186781440Y-147584160D01*
X186340000Y-100330000D02*
X186340000Y-108534720D01*
X186340000Y-108534720D02*
X186781440Y-108976160D01*
D34*
X170200000Y-88475000D02*
X170200000Y-85725000D01*
X170200000Y-85725000D02*
X170180000Y-85725000D01*
D33*
X186340000Y-90805000D02*
X186340000Y-88550000D01*
X186340000Y-88550000D02*
X183515000Y-85725000D01*
X183515000Y-85725000D02*
X170180000Y-85725000D01*
X164105000Y-85725000D02*
X154940000Y-76560000D01*
X170180000Y-85725000D02*
X164105000Y-85725000D01*
D34*
X123444000Y-71374000D02*
X117625000Y-77193000D01*
X117625000Y-77193000D02*
X117625000Y-88475000D01*
X147160000Y-76560000D02*
X147160000Y-73246000D01*
X145288000Y-71374000D02*
X123444000Y-71374000D01*
X147160000Y-73246000D02*
X145288000Y-71374000D01*
X154940000Y-82550000D02*
X154940000Y-76560000D01*
X154940000Y-76560000D02*
X154940000Y-76835000D01*
X154940000Y-76835000D02*
X154940000Y-76560000D01*
D33*
X154940000Y-76560000D02*
X147160000Y-76560000D01*
D32*
X178030000Y-118745000D02*
X181701440Y-118745000D01*
X181701440Y-118745000D02*
X181610000Y-118745000D01*
X181610000Y-118745000D02*
X181701440Y-118745000D01*
X177530000Y-113665000D02*
X181701440Y-113665000D01*
X181701440Y-113665000D02*
X181610000Y-113665000D01*
X181610000Y-113665000D02*
X181701440Y-113665000D01*
D34*
X186781440Y-108976160D02*
X186781440Y-120660160D01*
X181701440Y-108976160D02*
X181701440Y-113665000D01*
X181701440Y-113665000D02*
X181701440Y-118745000D01*
X181701440Y-118745000D02*
X181701440Y-120660160D01*
X117625000Y-127850000D02*
X111340000Y-127850000D01*
X107533440Y-124043440D02*
X107533440Y-120660160D01*
X111340000Y-127850000D02*
X107533440Y-124043440D01*
X154940000Y-92710000D02*
X154940000Y-88265000D01*
X154940000Y-88265000D02*
X154940000Y-82550000D01*
X147160000Y-121560000D02*
X147160000Y-127850000D01*
X147320000Y-127635000D02*
X147320000Y-127850000D01*
X147320000Y-127690000D02*
X147320000Y-127635000D01*
X147160000Y-127850000D02*
X147320000Y-127690000D01*
X181370000Y-130200000D02*
X181370000Y-125335000D01*
D32*
X181370000Y-125335000D02*
X181610000Y-125095000D01*
X177530000Y-113665000D02*
X177530000Y-116570000D01*
X178030000Y-117070000D02*
X178030000Y-118745000D01*
X177530000Y-116570000D02*
X178030000Y-117070000D01*
D34*
X181610000Y-125095000D02*
X181610000Y-120751600D01*
D32*
X181610000Y-120751600D02*
X181701440Y-120660160D01*
D34*
X117625000Y-127850000D02*
X147320000Y-127850000D01*
X147320000Y-127850000D02*
X151550000Y-127850000D01*
X154940000Y-124460000D02*
X154940000Y-92710000D01*
X151550000Y-127850000D02*
X154940000Y-124460000D01*
D35*
X169775000Y-88900000D02*
X170200000Y-88475000D01*
D33*
X102453440Y-108976160D02*
X107533440Y-108976160D01*
X102453440Y-120660160D02*
X107533440Y-120660160D01*
X181701440Y-120660160D02*
X186781440Y-120660160D01*
X181701440Y-108976160D02*
X186781440Y-108976160D01*
D32*
X118745000Y-116585000D02*
X118745000Y-121285000D01*
D34*
X118745000Y-121285000D02*
X126885000Y-121285000D01*
X126885000Y-121285000D02*
X127160000Y-121560000D01*
D32*
X176770000Y-130200000D02*
X176770000Y-125335000D01*
X176770000Y-125335000D02*
X176530000Y-125095000D01*
D33*
X181701440Y-68336160D02*
X186781440Y-68336160D01*
X181701440Y-81798160D02*
X186781440Y-81798160D01*
X102453440Y-81798160D02*
X107533440Y-81798160D01*
X102455980Y-68336160D02*
X107535980Y-68336160D01*
D35*
X113030000Y-103050000D02*
X114120000Y-103050000D01*
X115360000Y-98635000D02*
X117625000Y-98635000D01*
X114935000Y-99060000D02*
X115360000Y-98635000D01*
X114935000Y-102235000D02*
X114935000Y-99060000D01*
X114120000Y-103050000D02*
X114935000Y-102235000D01*
X108950000Y-101600000D02*
X109855000Y-101600000D01*
X111305000Y-103050000D02*
X113030000Y-103050000D01*
X109855000Y-101600000D02*
X111305000Y-103050000D01*
X113030000Y-96700000D02*
X114755000Y-96700000D01*
X115360000Y-96095000D02*
X117625000Y-96095000D01*
X114755000Y-96700000D02*
X115360000Y-96095000D01*
X108950000Y-95250000D02*
X109855000Y-95250000D01*
X111305000Y-96700000D02*
X113030000Y-96700000D01*
X109855000Y-95250000D02*
X111305000Y-96700000D01*
X117625000Y-93555000D02*
X115780000Y-93555000D01*
X113030000Y-90805000D02*
X113030000Y-90350000D01*
X115780000Y-93555000D02*
X113030000Y-90805000D01*
X108950000Y-88900000D02*
X109855000Y-88900000D01*
X109855000Y-88900000D02*
X111305000Y-90350000D01*
X111305000Y-90350000D02*
X113030000Y-90350000D01*
X117625000Y-91015000D02*
X115780000Y-91015000D01*
X114935000Y-90170000D02*
X114935000Y-88900000D01*
X115780000Y-91015000D02*
X114935000Y-90170000D01*
X114480000Y-76380000D02*
X113030000Y-76380000D01*
X114935000Y-76835000D02*
X114480000Y-76380000D01*
X114935000Y-88900000D02*
X114935000Y-76835000D01*
X108950000Y-74930000D02*
X109855000Y-74930000D01*
X109855000Y-74930000D02*
X111305000Y-76380000D01*
X111305000Y-76380000D02*
X113030000Y-76380000D01*
X117625000Y-138010000D02*
X161710000Y-138010000D01*
X168065000Y-98635000D02*
X170200000Y-98635000D01*
X165100000Y-101600000D02*
X168065000Y-98635000D01*
X165100000Y-134620000D02*
X165100000Y-101600000D01*
X161710000Y-138010000D02*
X165100000Y-134620000D01*
X117625000Y-138010000D02*
X117205000Y-138430000D01*
X169775000Y-99060000D02*
X170200000Y-98635000D01*
X117625000Y-135470000D02*
X159170000Y-135470000D01*
X165525000Y-96095000D02*
X170200000Y-96095000D01*
X162560000Y-99060000D02*
X165525000Y-96095000D01*
X162560000Y-132080000D02*
X162560000Y-99060000D01*
X159170000Y-135470000D02*
X162560000Y-132080000D01*
X117625000Y-135470000D02*
X117205000Y-135890000D01*
X169775000Y-96520000D02*
X170200000Y-96095000D01*
X117625000Y-132930000D02*
X156630000Y-132930000D01*
X160020000Y-129540000D02*
X160020000Y-127000000D01*
X156630000Y-132930000D02*
X160020000Y-129540000D01*
X162985000Y-93555000D02*
X170200000Y-93555000D01*
X160020000Y-127000000D02*
X160020000Y-96520000D01*
X160020000Y-96520000D02*
X162985000Y-93555000D01*
X117625000Y-132930000D02*
X117205000Y-133350000D01*
X169775000Y-93980000D02*
X170200000Y-93555000D01*
X117625000Y-130390000D02*
X154090000Y-130390000D01*
X160445000Y-91015000D02*
X170200000Y-91015000D01*
X157480000Y-93980000D02*
X160445000Y-91015000D01*
X157480000Y-127000000D02*
X157480000Y-93980000D01*
X154090000Y-130390000D02*
X157480000Y-127000000D01*
D32*
X97790000Y-106680000D02*
X92075000Y-106680000D01*
X92075000Y-106680000D02*
X86360000Y-100965000D01*
D35*
X106934000Y-87934000D02*
X106934000Y-86614000D01*
X106950000Y-87950000D02*
X106934000Y-87934000D01*
X102870000Y-100150000D02*
X102870000Y-98679000D01*
X102870000Y-93800000D02*
X102870000Y-92202000D01*
X102870000Y-73480000D02*
X102817000Y-73533000D01*
X102817000Y-73533000D02*
X99949000Y-73533000D01*
X102870000Y-73480000D02*
X104595000Y-73480000D01*
X104595000Y-73480000D02*
X105095000Y-73980000D01*
X105095000Y-73980000D02*
X106950000Y-73980000D01*
X102870000Y-100150000D02*
X104595000Y-100150000D01*
X105095000Y-100650000D02*
X106950000Y-100650000D01*
X104595000Y-100150000D02*
X105095000Y-100650000D01*
X102870000Y-93800000D02*
X104595000Y-93800000D01*
X105095000Y-94300000D02*
X106950000Y-94300000D01*
X104595000Y-93800000D02*
X105095000Y-94300000D01*
X102870000Y-87450000D02*
X104595000Y-87450000D01*
X105095000Y-87950000D02*
X106950000Y-87950000D01*
X104595000Y-87450000D02*
X105095000Y-87950000D01*
D10*
X102870000Y-103050000D02*
X102817000Y-102997000D01*
D35*
X102817000Y-102997000D02*
X101092000Y-102997000D01*
X102870000Y-103050000D02*
X104595000Y-103050000D01*
X105095000Y-102550000D02*
X106950000Y-102550000D01*
X104595000Y-103050000D02*
X105095000Y-102550000D01*
X102870000Y-96700000D02*
X100510000Y-96700000D01*
X100510000Y-96700000D02*
X97790000Y-93980000D01*
X102870000Y-96700000D02*
X104595000Y-96700000D01*
X105095000Y-96200000D02*
X106950000Y-96200000D01*
X104595000Y-96700000D02*
X105095000Y-96200000D01*
D10*
X102870000Y-90350000D02*
X102817000Y-90297000D01*
D35*
X102817000Y-90297000D02*
X99822000Y-90297000D01*
X102870000Y-90350000D02*
X104595000Y-90350000D01*
X105095000Y-89850000D02*
X106950000Y-89850000D01*
X104595000Y-90350000D02*
X105095000Y-89850000D01*
X102870000Y-76380000D02*
X100510000Y-76380000D01*
X100510000Y-76380000D02*
X97790000Y-73660000D01*
X102870000Y-76380000D02*
X104595000Y-76380000D01*
X105095000Y-75880000D02*
X106950000Y-75880000D01*
X104595000Y-76380000D02*
X105095000Y-75880000D01*
D36*
G36*
X179843870Y-66478590D02*
X179274408Y-67330851D01*
X179074440Y-68336160D01*
X179274408Y-69341469D01*
X179843870Y-70193730D01*
X180696131Y-70763192D01*
X181701440Y-70963160D01*
X186781440Y-70963160D01*
X187786749Y-70763192D01*
X188639010Y-70193730D01*
X189181367Y-69382034D01*
X189298000Y-69968388D01*
X189298000Y-81242940D01*
X189208472Y-80792851D01*
X188639010Y-79940590D01*
X187786749Y-79371128D01*
X186781440Y-79171160D01*
X181701440Y-79171160D01*
X180696131Y-79371128D01*
X179843870Y-79940590D01*
X179274408Y-80792851D01*
X179074440Y-81798160D01*
X179274408Y-82803469D01*
X179843870Y-83655730D01*
X180696131Y-84225192D01*
X181701440Y-84425160D01*
X186781440Y-84425160D01*
X187786749Y-84225192D01*
X188639010Y-83655730D01*
X189208472Y-82803469D01*
X189298000Y-82353380D01*
X189298000Y-87876288D01*
X189195167Y-87773455D01*
X188964718Y-87678000D01*
X187746750Y-87678000D01*
X187590000Y-87834750D01*
X187590000Y-89555000D01*
X188233000Y-89555000D01*
X188233000Y-92055000D01*
X187590000Y-92055000D01*
X187590000Y-93775250D01*
X187746750Y-93932000D01*
X188964718Y-93932000D01*
X189195167Y-93836545D01*
X189298000Y-93733712D01*
X189298000Y-97401288D01*
X189195167Y-97298455D01*
X188964718Y-97203000D01*
X187746750Y-97203000D01*
X187590000Y-97359750D01*
X187590000Y-98933000D01*
X185090000Y-98933000D01*
X185090000Y-98257000D01*
X185464718Y-98257000D01*
X185695167Y-98161545D01*
X185871545Y-97985167D01*
X185967000Y-97754718D01*
X185967000Y-96786750D01*
X185810250Y-96630000D01*
X184340000Y-96630000D01*
X184340000Y-97203000D01*
X183715282Y-97203000D01*
X183484833Y-97298455D01*
X183308455Y-97474833D01*
X183288504Y-97523000D01*
X182340000Y-97523000D01*
X182340000Y-96630000D01*
X180869750Y-96630000D01*
X180713000Y-96786750D01*
X180713000Y-97257215D01*
X180440444Y-97203000D01*
X176239556Y-97203000D01*
X175042905Y-97441029D01*
X174028433Y-98118877D01*
X173484454Y-98933000D01*
X172325708Y-98933000D01*
X172384984Y-98635000D01*
X172233459Y-97873230D01*
X171893870Y-97365000D01*
X172233459Y-96856770D01*
X172384984Y-96095000D01*
X172233459Y-95333230D01*
X171893870Y-94825000D01*
X172233459Y-94316770D01*
X172384984Y-93555000D01*
X172233459Y-92793230D01*
X171893870Y-92285000D01*
X172233459Y-91776770D01*
X172384984Y-91015000D01*
X172343213Y-90805000D01*
X173112556Y-90805000D01*
X173350585Y-92001651D01*
X174028433Y-93016123D01*
X175042905Y-93693971D01*
X176239556Y-93932000D01*
X180440444Y-93932000D01*
X180713000Y-93877785D01*
X180713000Y-94473250D01*
X180869750Y-94630000D01*
X182340000Y-94630000D01*
X182340000Y-93737000D01*
X183385288Y-93737000D01*
X183484833Y-93836545D01*
X183715282Y-93932000D01*
X184340000Y-93932000D01*
X184340000Y-94630000D01*
X185810250Y-94630000D01*
X185967000Y-94473250D01*
X185967000Y-93505282D01*
X185871545Y-93274833D01*
X185695167Y-93098455D01*
X185464718Y-93003000D01*
X185090000Y-93003000D01*
X185090000Y-92055000D01*
X184447000Y-92055000D01*
X184447000Y-89555000D01*
X185090000Y-89555000D01*
X185090000Y-87834750D01*
X184933250Y-87678000D01*
X183715282Y-87678000D01*
X183484833Y-87773455D01*
X183308455Y-87949833D01*
X183213000Y-88180282D01*
X183213000Y-89434122D01*
X182651567Y-88593877D01*
X181637095Y-87916029D01*
X180440444Y-87678000D01*
X176239556Y-87678000D01*
X175042905Y-87916029D01*
X174028433Y-88593877D01*
X173350585Y-89608349D01*
X173112556Y-90805000D01*
X172343213Y-90805000D01*
X172233459Y-90253230D01*
X172041271Y-89965600D01*
X172073002Y-89965600D01*
X172073002Y-89338600D01*
X171843000Y-89338600D01*
X171843000Y-89063550D01*
X171686250Y-88906800D01*
X170708000Y-88906800D01*
X170708000Y-89086782D01*
X170394384Y-89024400D01*
X170005616Y-89024400D01*
X169692000Y-89086782D01*
X169692000Y-88906800D01*
X168713750Y-88906800D01*
X168557000Y-89063550D01*
X168557000Y-89338600D01*
X168326998Y-89338600D01*
X168326998Y-89738000D01*
X160445000Y-89738000D01*
X160043412Y-89817881D01*
X159956313Y-89835206D01*
X159542024Y-90112025D01*
X156577025Y-93077025D01*
X156300206Y-93491313D01*
X156203000Y-93980000D01*
X156203000Y-126471050D01*
X153561050Y-129113000D01*
X119498002Y-129113000D01*
X119498002Y-128713600D01*
X119268000Y-128713600D01*
X119268000Y-128438550D01*
X119111250Y-128281800D01*
X118133000Y-128281800D01*
X118133000Y-128461782D01*
X117819384Y-128399400D01*
X117430616Y-128399400D01*
X117117000Y-128461782D01*
X117117000Y-128281800D01*
X116138750Y-128281800D01*
X115982000Y-128438550D01*
X115982000Y-128713600D01*
X115751998Y-128713600D01*
X115751998Y-129340600D01*
X115783729Y-129340600D01*
X115591541Y-129628230D01*
X115440016Y-130390000D01*
X115591541Y-131151770D01*
X115931130Y-131660000D01*
X115735353Y-131953000D01*
X91567000Y-131953000D01*
X91567000Y-126861682D01*
X115982000Y-126861682D01*
X115982000Y-127261450D01*
X116138750Y-127418200D01*
X117117000Y-127418200D01*
X117117000Y-126516150D01*
X118133000Y-126516150D01*
X118133000Y-127418200D01*
X119111250Y-127418200D01*
X119268000Y-127261450D01*
X119268000Y-126861682D01*
X119172545Y-126631233D01*
X118996167Y-126454855D01*
X118765718Y-126359400D01*
X118289750Y-126359400D01*
X118133000Y-126516150D01*
X117117000Y-126516150D01*
X116960250Y-126359400D01*
X116484282Y-126359400D01*
X116253833Y-126454855D01*
X116077455Y-126631233D01*
X115982000Y-126861682D01*
X91567000Y-126861682D01*
X91567000Y-122411707D01*
X101691842Y-122411707D01*
X101876771Y-122644787D01*
X102680151Y-122714399D01*
X103030109Y-122644787D01*
X103215038Y-122411707D01*
X106771842Y-122411707D01*
X106956771Y-122644787D01*
X107760151Y-122714399D01*
X108110109Y-122644787D01*
X108295038Y-122411707D01*
X107533440Y-121650109D01*
X106771842Y-122411707D01*
X103215038Y-122411707D01*
X102453440Y-121650109D01*
X101691842Y-122411707D01*
X91567000Y-122411707D01*
X91567000Y-120886871D01*
X100399201Y-120886871D01*
X100468813Y-121236829D01*
X100701893Y-121421758D01*
X101463491Y-120660160D01*
X103443389Y-120660160D01*
X104204987Y-121421758D01*
X104438067Y-121236829D01*
X104468390Y-120886871D01*
X105479201Y-120886871D01*
X105548813Y-121236829D01*
X105781893Y-121421758D01*
X106543491Y-120660160D01*
X108523389Y-120660160D01*
X109284987Y-121421758D01*
X109518067Y-121236829D01*
X109587679Y-120433449D01*
X109538259Y-120185000D01*
X116495921Y-120185000D01*
X116495921Y-122385000D01*
X116574506Y-122802641D01*
X116821331Y-123186219D01*
X117197944Y-123443548D01*
X117645000Y-123534079D01*
X119845000Y-123534079D01*
X120262641Y-123455494D01*
X120330233Y-123412000D01*
X126176779Y-123412000D01*
X126346033Y-123525092D01*
X127160000Y-123687000D01*
X127973968Y-123525092D01*
X128664016Y-123064016D01*
X129125092Y-122373968D01*
X129287000Y-121560000D01*
X129125092Y-120746033D01*
X128664016Y-120055984D01*
X128389016Y-119780984D01*
X127698968Y-119319908D01*
X126885000Y-119158000D01*
X120338228Y-119158000D01*
X120322000Y-119146912D01*
X120322000Y-117601405D01*
X120403548Y-117482056D01*
X120494079Y-117035000D01*
X120494079Y-116135000D01*
X120415494Y-115717359D01*
X120168669Y-115333781D01*
X119792056Y-115076452D01*
X119345000Y-114985921D01*
X118145000Y-114985921D01*
X117727359Y-115064506D01*
X117343781Y-115311331D01*
X117086452Y-115687944D01*
X116995921Y-116135000D01*
X116995921Y-117035000D01*
X117074506Y-117452641D01*
X117168000Y-117597935D01*
X117168000Y-119152702D01*
X116843781Y-119361331D01*
X116586452Y-119737944D01*
X116495921Y-120185000D01*
X109538259Y-120185000D01*
X109518067Y-120083491D01*
X109284987Y-119898562D01*
X108523389Y-120660160D01*
X106543491Y-120660160D01*
X105781893Y-119898562D01*
X105548813Y-120083491D01*
X105479201Y-120886871D01*
X104468390Y-120886871D01*
X104507679Y-120433449D01*
X104438067Y-120083491D01*
X104204987Y-119898562D01*
X103443389Y-120660160D01*
X101463491Y-120660160D01*
X100701893Y-119898562D01*
X100468813Y-120083491D01*
X100399201Y-120886871D01*
X91567000Y-120886871D01*
X91567000Y-118908613D01*
X101691842Y-118908613D01*
X102453440Y-119670211D01*
X103215038Y-118908613D01*
X106771842Y-118908613D01*
X107533440Y-119670211D01*
X108295038Y-118908613D01*
X108110109Y-118675533D01*
X107306729Y-118605921D01*
X106956771Y-118675533D01*
X106771842Y-118908613D01*
X103215038Y-118908613D01*
X103030109Y-118675533D01*
X102226729Y-118605921D01*
X101876771Y-118675533D01*
X101691842Y-118908613D01*
X91567000Y-118908613D01*
X91567000Y-117147000D01*
X111760000Y-117147000D01*
X112363492Y-117026958D01*
X112875107Y-116685107D01*
X117064660Y-112495554D01*
X116995921Y-112835000D01*
X116995921Y-113735000D01*
X117074506Y-114152641D01*
X117321331Y-114536219D01*
X117697944Y-114793548D01*
X118145000Y-114884079D01*
X119345000Y-114884079D01*
X119762641Y-114805494D01*
X120146219Y-114558669D01*
X120403548Y-114182056D01*
X120494079Y-113735000D01*
X120494079Y-112835000D01*
X120415494Y-112417359D01*
X120322000Y-112272065D01*
X120322000Y-110199955D01*
X120802480Y-109480866D01*
X120972000Y-108628630D01*
X120972000Y-108541370D01*
X120872000Y-108038635D01*
X120872000Y-102295000D01*
X120710092Y-101481032D01*
X120249016Y-100790984D01*
X119336559Y-99878527D01*
X119658459Y-99396770D01*
X119809984Y-98635000D01*
X119658459Y-97873230D01*
X119318870Y-97365000D01*
X119658459Y-96856770D01*
X119809984Y-96095000D01*
X119658459Y-95333230D01*
X119318870Y-94825000D01*
X119658459Y-94316770D01*
X119809984Y-93555000D01*
X119658459Y-92793230D01*
X119318870Y-92285000D01*
X119658459Y-91776770D01*
X119809984Y-91015000D01*
X119658459Y-90253230D01*
X119466271Y-89965600D01*
X119498002Y-89965600D01*
X119498002Y-89338600D01*
X119268000Y-89338600D01*
X119268000Y-89063550D01*
X119111250Y-88906800D01*
X118133000Y-88906800D01*
X118133000Y-89086782D01*
X117819384Y-89024400D01*
X117430616Y-89024400D01*
X117117000Y-89086782D01*
X117117000Y-88906800D01*
X116609000Y-88906800D01*
X116609000Y-88043200D01*
X117117000Y-88043200D01*
X117117000Y-87141150D01*
X118133000Y-87141150D01*
X118133000Y-88043200D01*
X119111250Y-88043200D01*
X119268000Y-87886450D01*
X119268000Y-87486682D01*
X119172545Y-87256233D01*
X118996167Y-87079855D01*
X118765718Y-86984400D01*
X118289750Y-86984400D01*
X118133000Y-87141150D01*
X117117000Y-87141150D01*
X116960250Y-86984400D01*
X116609000Y-86984400D01*
X116609000Y-86601998D01*
X116212000Y-86601998D01*
X116212000Y-85725000D01*
X123893000Y-85725000D01*
X123893000Y-111125000D01*
X123916096Y-111241111D01*
X123916096Y-111359499D01*
X124012769Y-111845506D01*
X124192246Y-112278802D01*
X124467547Y-112690820D01*
X124467548Y-112690821D01*
X124467549Y-112690823D01*
X124799177Y-113022451D01*
X124799179Y-113022452D01*
X124799180Y-113022453D01*
X125211197Y-113297754D01*
X125343367Y-113352500D01*
X125644493Y-113477231D01*
X126130501Y-113573904D01*
X126248889Y-113573904D01*
X126365000Y-113597000D01*
X127036656Y-113597000D01*
X126529510Y-114103262D01*
X126113474Y-115105186D01*
X126112528Y-116190054D01*
X126526814Y-117192703D01*
X127293262Y-117960490D01*
X128295186Y-118376526D01*
X129380054Y-118377472D01*
X130243000Y-118020910D01*
X130243000Y-121920000D01*
X130266096Y-122036111D01*
X130266096Y-122154499D01*
X130362769Y-122640506D01*
X130542246Y-123073802D01*
X130817547Y-123485820D01*
X130817548Y-123485821D01*
X130817549Y-123485823D01*
X131149177Y-123817451D01*
X131149179Y-123817452D01*
X131149180Y-123817453D01*
X131561197Y-124092754D01*
X131740674Y-124167095D01*
X131994493Y-124272231D01*
X132480501Y-124368904D01*
X132598889Y-124368904D01*
X132715000Y-124392000D01*
X140970000Y-124392000D01*
X141086111Y-124368904D01*
X141204499Y-124368904D01*
X141690506Y-124272231D01*
X142123802Y-124092754D01*
X142535820Y-123817453D01*
X142535821Y-123817452D01*
X142535823Y-123817451D01*
X142867451Y-123485823D01*
X142867452Y-123485821D01*
X142867453Y-123485820D01*
X143142754Y-123073803D01*
X143230485Y-122862000D01*
X143270262Y-122765970D01*
X146555071Y-122765970D01*
X146654647Y-122978612D01*
X147235994Y-123064018D01*
X147665353Y-122978612D01*
X147764929Y-122765970D01*
X147160000Y-122161041D01*
X146555071Y-122765970D01*
X143270262Y-122765970D01*
X143322231Y-122640507D01*
X143418904Y-122154499D01*
X143418904Y-122036111D01*
X143442000Y-121920000D01*
X143442000Y-121635994D01*
X145655982Y-121635994D01*
X145741388Y-122065353D01*
X145954030Y-122164929D01*
X146558959Y-121560000D01*
X147761041Y-121560000D01*
X148365970Y-122164929D01*
X148578612Y-122065353D01*
X148664018Y-121484006D01*
X148578612Y-121054647D01*
X148365970Y-120955071D01*
X147761041Y-121560000D01*
X146558959Y-121560000D01*
X145954030Y-120955071D01*
X145741388Y-121054647D01*
X145655982Y-121635994D01*
X143442000Y-121635994D01*
X143442000Y-120354030D01*
X146555071Y-120354030D01*
X147160000Y-120958959D01*
X147764929Y-120354030D01*
X147665353Y-120141388D01*
X147084006Y-120055982D01*
X146654647Y-120141388D01*
X146555071Y-120354030D01*
X143442000Y-120354030D01*
X143442000Y-113783388D01*
X143468933Y-113647988D01*
X143478568Y-113633567D01*
X143492987Y-113623933D01*
X143628387Y-113597000D01*
X147955000Y-113597000D01*
X148071111Y-113573904D01*
X148189499Y-113573904D01*
X148675506Y-113477231D01*
X149108802Y-113297754D01*
X149520820Y-113022453D01*
X149520821Y-113022452D01*
X149520823Y-113022451D01*
X149852451Y-112690823D01*
X149852452Y-112690821D01*
X149852453Y-112690820D01*
X150127754Y-112278803D01*
X150206787Y-112088000D01*
X150307231Y-111845507D01*
X150403904Y-111359499D01*
X150403904Y-111241111D01*
X150427000Y-111125000D01*
X150427000Y-87486682D01*
X168557000Y-87486682D01*
X168557000Y-87886450D01*
X168713750Y-88043200D01*
X169692000Y-88043200D01*
X169692000Y-87141150D01*
X170708000Y-87141150D01*
X170708000Y-88043200D01*
X171686250Y-88043200D01*
X171843000Y-87886450D01*
X171843000Y-87486682D01*
X171747545Y-87256233D01*
X171571167Y-87079855D01*
X171340718Y-86984400D01*
X170864750Y-86984400D01*
X170708000Y-87141150D01*
X169692000Y-87141150D01*
X169535250Y-86984400D01*
X169059282Y-86984400D01*
X168828833Y-87079855D01*
X168652455Y-87256233D01*
X168557000Y-87486682D01*
X150427000Y-87486682D01*
X150427000Y-85725000D01*
X150403904Y-85608889D01*
X150403904Y-85490501D01*
X150307231Y-85004493D01*
X150145689Y-84614497D01*
X150127754Y-84571197D01*
X149852453Y-84159180D01*
X149852451Y-84159178D01*
X149852451Y-84159177D01*
X149520823Y-83827549D01*
X149520821Y-83827548D01*
X149520820Y-83827547D01*
X149108802Y-83552246D01*
X148675506Y-83372769D01*
X148189499Y-83276096D01*
X148098032Y-83276096D01*
X148206526Y-83014814D01*
X148207472Y-81929946D01*
X147793186Y-80927297D01*
X147026738Y-80159510D01*
X146024814Y-79743474D01*
X144939946Y-79742528D01*
X144077000Y-80099090D01*
X144077000Y-77765970D01*
X146555071Y-77765970D01*
X146654647Y-77978612D01*
X147235994Y-78064018D01*
X147665353Y-77978612D01*
X147764929Y-77765970D01*
X147160000Y-77161041D01*
X146555071Y-77765970D01*
X144077000Y-77765970D01*
X144077000Y-76635994D01*
X145655982Y-76635994D01*
X145741388Y-77065353D01*
X145954030Y-77164929D01*
X146558959Y-76560000D01*
X147761041Y-76560000D01*
X148365970Y-77164929D01*
X148578612Y-77065353D01*
X148664018Y-76484006D01*
X148578612Y-76054647D01*
X148365970Y-75955071D01*
X147761041Y-76560000D01*
X146558959Y-76560000D01*
X145954030Y-75955071D01*
X145741388Y-76054647D01*
X145655982Y-76635994D01*
X144077000Y-76635994D01*
X144077000Y-76200000D01*
X144053904Y-76083889D01*
X144053904Y-75965501D01*
X143957231Y-75479493D01*
X143905263Y-75354030D01*
X146555071Y-75354030D01*
X147160000Y-75958959D01*
X147764929Y-75354030D01*
X147665353Y-75141388D01*
X147084006Y-75055982D01*
X146654647Y-75141388D01*
X146555071Y-75354030D01*
X143905263Y-75354030D01*
X143811961Y-75128781D01*
X143777754Y-75046197D01*
X143502453Y-74634180D01*
X143502451Y-74634178D01*
X143502451Y-74634177D01*
X143170823Y-74302549D01*
X143170821Y-74302548D01*
X143170820Y-74302547D01*
X142758802Y-74027246D01*
X142325506Y-73847769D01*
X141839499Y-73751096D01*
X141721111Y-73751096D01*
X141605000Y-73728000D01*
X133985000Y-73728000D01*
X133868889Y-73751096D01*
X133750501Y-73751096D01*
X133264493Y-73847769D01*
X133010674Y-73952905D01*
X132831197Y-74027246D01*
X132419180Y-74302547D01*
X132419179Y-74302548D01*
X132419177Y-74302549D01*
X132087549Y-74634177D01*
X132087549Y-74634178D01*
X132087547Y-74634180D01*
X131812246Y-75046198D01*
X131657956Y-75418687D01*
X131632769Y-75479494D01*
X131536096Y-75965501D01*
X131536096Y-76083889D01*
X131513000Y-76200000D01*
X131513000Y-83066613D01*
X131486067Y-83202013D01*
X131476433Y-83216432D01*
X131462012Y-83226067D01*
X131326612Y-83253000D01*
X126365000Y-83253000D01*
X126248889Y-83276096D01*
X126130501Y-83276096D01*
X125644493Y-83372769D01*
X125390674Y-83477905D01*
X125211197Y-83552246D01*
X124799180Y-83827547D01*
X124799179Y-83827548D01*
X124799177Y-83827549D01*
X124467549Y-84159177D01*
X124467549Y-84159178D01*
X124467547Y-84159180D01*
X124192246Y-84571198D01*
X124049845Y-84914985D01*
X124012769Y-85004494D01*
X123916096Y-85490501D01*
X123916096Y-85608889D01*
X123893000Y-85725000D01*
X116212000Y-85725000D01*
X116212000Y-76951524D01*
X125182657Y-76951524D01*
X125483003Y-77678418D01*
X126038657Y-78235042D01*
X126765025Y-78536656D01*
X127551524Y-78537343D01*
X128278418Y-78236997D01*
X128835042Y-77681343D01*
X129136656Y-76954975D01*
X129137343Y-76168476D01*
X128836997Y-75441582D01*
X128281343Y-74884958D01*
X127554975Y-74583344D01*
X126768476Y-74582657D01*
X126041582Y-74883003D01*
X125484958Y-75438657D01*
X125183344Y-76165025D01*
X125182657Y-76951524D01*
X116212000Y-76951524D01*
X116212000Y-76835000D01*
X116114794Y-76346313D01*
X115837975Y-75932025D01*
X115382975Y-75477025D01*
X115295666Y-75418687D01*
X114968687Y-75200206D01*
X114717475Y-75150237D01*
X114703669Y-75128781D01*
X114410051Y-74928160D01*
X114681219Y-74753669D01*
X114938548Y-74377056D01*
X115029079Y-73930000D01*
X115029079Y-73030000D01*
X114950494Y-72612359D01*
X114703669Y-72228781D01*
X114327056Y-71971452D01*
X113880000Y-71880921D01*
X112180000Y-71880921D01*
X111762359Y-71959506D01*
X111498957Y-72129000D01*
X111135737Y-72129000D01*
X110775093Y-71979248D01*
X110207397Y-71978752D01*
X109682725Y-72195543D01*
X109280953Y-72596614D01*
X109063248Y-73120907D01*
X109063021Y-73380921D01*
X108511619Y-73380921D01*
X108470494Y-73162359D01*
X108223669Y-72778781D01*
X107847056Y-72521452D01*
X107400000Y-72430921D01*
X106500000Y-72430921D01*
X106082359Y-72509506D01*
X105781660Y-72703000D01*
X105623950Y-72703000D01*
X105497975Y-72577025D01*
X105207598Y-72383001D01*
X105083687Y-72300206D01*
X104595000Y-72203000D01*
X104505937Y-72203000D01*
X104167056Y-71971452D01*
X103720000Y-71880921D01*
X102020000Y-71880921D01*
X101727000Y-71936053D01*
X101727000Y-70818157D01*
X102455980Y-70963160D01*
X107535980Y-70963160D01*
X108541289Y-70763192D01*
X109393550Y-70193730D01*
X109963012Y-69341469D01*
X110162980Y-68336160D01*
X109963012Y-67330851D01*
X109393550Y-66478590D01*
X108635384Y-65972000D01*
X180602036Y-65972000D01*
X179843870Y-66478590D01*
X179843870Y-66478590D01*
G37*
X179843870Y-66478590D02*
X179274408Y-67330851D01*
X179074440Y-68336160D01*
X179274408Y-69341469D01*
X179843870Y-70193730D01*
X180696131Y-70763192D01*
X181701440Y-70963160D01*
X186781440Y-70963160D01*
X187786749Y-70763192D01*
X188639010Y-70193730D01*
X189181367Y-69382034D01*
X189298000Y-69968388D01*
X189298000Y-81242940D01*
X189208472Y-80792851D01*
X188639010Y-79940590D01*
X187786749Y-79371128D01*
X186781440Y-79171160D01*
X181701440Y-79171160D01*
X180696131Y-79371128D01*
X179843870Y-79940590D01*
X179274408Y-80792851D01*
X179074440Y-81798160D01*
X179274408Y-82803469D01*
X179843870Y-83655730D01*
X180696131Y-84225192D01*
X181701440Y-84425160D01*
X186781440Y-84425160D01*
X187786749Y-84225192D01*
X188639010Y-83655730D01*
X189208472Y-82803469D01*
X189298000Y-82353380D01*
X189298000Y-87876288D01*
X189195167Y-87773455D01*
X188964718Y-87678000D01*
X187746750Y-87678000D01*
X187590000Y-87834750D01*
X187590000Y-89555000D01*
X188233000Y-89555000D01*
X188233000Y-92055000D01*
X187590000Y-92055000D01*
X187590000Y-93775250D01*
X187746750Y-93932000D01*
X188964718Y-93932000D01*
X189195167Y-93836545D01*
X189298000Y-93733712D01*
X189298000Y-97401288D01*
X189195167Y-97298455D01*
X188964718Y-97203000D01*
X187746750Y-97203000D01*
X187590000Y-97359750D01*
X187590000Y-98933000D01*
X185090000Y-98933000D01*
X185090000Y-98257000D01*
X185464718Y-98257000D01*
X185695167Y-98161545D01*
X185871545Y-97985167D01*
X185967000Y-97754718D01*
X185967000Y-96786750D01*
X185810250Y-96630000D01*
X184340000Y-96630000D01*
X184340000Y-97203000D01*
X183715282Y-97203000D01*
X183484833Y-97298455D01*
X183308455Y-97474833D01*
X183288504Y-97523000D01*
X182340000Y-97523000D01*
X182340000Y-96630000D01*
X180869750Y-96630000D01*
X180713000Y-96786750D01*
X180713000Y-97257215D01*
X180440444Y-97203000D01*
X176239556Y-97203000D01*
X175042905Y-97441029D01*
X174028433Y-98118877D01*
X173484454Y-98933000D01*
X172325708Y-98933000D01*
X172384984Y-98635000D01*
X172233459Y-97873230D01*
X171893870Y-97365000D01*
X172233459Y-96856770D01*
X172384984Y-96095000D01*
X172233459Y-95333230D01*
X171893870Y-94825000D01*
X172233459Y-94316770D01*
X172384984Y-93555000D01*
X172233459Y-92793230D01*
X171893870Y-92285000D01*
X172233459Y-91776770D01*
X172384984Y-91015000D01*
X172343213Y-90805000D01*
X173112556Y-90805000D01*
X173350585Y-92001651D01*
X174028433Y-93016123D01*
X175042905Y-93693971D01*
X176239556Y-93932000D01*
X180440444Y-93932000D01*
X180713000Y-93877785D01*
X180713000Y-94473250D01*
X180869750Y-94630000D01*
X182340000Y-94630000D01*
X182340000Y-93737000D01*
X183385288Y-93737000D01*
X183484833Y-93836545D01*
X183715282Y-93932000D01*
X184340000Y-93932000D01*
X184340000Y-94630000D01*
X185810250Y-94630000D01*
X185967000Y-94473250D01*
X185967000Y-93505282D01*
X185871545Y-93274833D01*
X185695167Y-93098455D01*
X185464718Y-93003000D01*
X185090000Y-93003000D01*
X185090000Y-92055000D01*
X184447000Y-92055000D01*
X184447000Y-89555000D01*
X185090000Y-89555000D01*
X185090000Y-87834750D01*
X184933250Y-87678000D01*
X183715282Y-87678000D01*
X183484833Y-87773455D01*
X183308455Y-87949833D01*
X183213000Y-88180282D01*
X183213000Y-89434122D01*
X182651567Y-88593877D01*
X181637095Y-87916029D01*
X180440444Y-87678000D01*
X176239556Y-87678000D01*
X175042905Y-87916029D01*
X174028433Y-88593877D01*
X173350585Y-89608349D01*
X173112556Y-90805000D01*
X172343213Y-90805000D01*
X172233459Y-90253230D01*
X172041271Y-89965600D01*
X172073002Y-89965600D01*
X172073002Y-89338600D01*
X171843000Y-89338600D01*
X171843000Y-89063550D01*
X171686250Y-88906800D01*
X170708000Y-88906800D01*
X170708000Y-89086782D01*
X170394384Y-89024400D01*
X170005616Y-89024400D01*
X169692000Y-89086782D01*
X169692000Y-88906800D01*
X168713750Y-88906800D01*
X168557000Y-89063550D01*
X168557000Y-89338600D01*
X168326998Y-89338600D01*
X168326998Y-89738000D01*
X160445000Y-89738000D01*
X160043412Y-89817881D01*
X159956313Y-89835206D01*
X159542024Y-90112025D01*
X156577025Y-93077025D01*
X156300206Y-93491313D01*
X156203000Y-93980000D01*
X156203000Y-126471050D01*
X153561050Y-129113000D01*
X119498002Y-129113000D01*
X119498002Y-128713600D01*
X119268000Y-128713600D01*
X119268000Y-128438550D01*
X119111250Y-128281800D01*
X118133000Y-128281800D01*
X118133000Y-128461782D01*
X117819384Y-128399400D01*
X117430616Y-128399400D01*
X117117000Y-128461782D01*
X117117000Y-128281800D01*
X116138750Y-128281800D01*
X115982000Y-128438550D01*
X115982000Y-128713600D01*
X115751998Y-128713600D01*
X115751998Y-129340600D01*
X115783729Y-129340600D01*
X115591541Y-129628230D01*
X115440016Y-130390000D01*
X115591541Y-131151770D01*
X115931130Y-131660000D01*
X115735353Y-131953000D01*
X91567000Y-131953000D01*
X91567000Y-126861682D01*
X115982000Y-126861682D01*
X115982000Y-127261450D01*
X116138750Y-127418200D01*
X117117000Y-127418200D01*
X117117000Y-126516150D01*
X118133000Y-126516150D01*
X118133000Y-127418200D01*
X119111250Y-127418200D01*
X119268000Y-127261450D01*
X119268000Y-126861682D01*
X119172545Y-126631233D01*
X118996167Y-126454855D01*
X118765718Y-126359400D01*
X118289750Y-126359400D01*
X118133000Y-126516150D01*
X117117000Y-126516150D01*
X116960250Y-126359400D01*
X116484282Y-126359400D01*
X116253833Y-126454855D01*
X116077455Y-126631233D01*
X115982000Y-126861682D01*
X91567000Y-126861682D01*
X91567000Y-122411707D01*
X101691842Y-122411707D01*
X101876771Y-122644787D01*
X102680151Y-122714399D01*
X103030109Y-122644787D01*
X103215038Y-122411707D01*
X106771842Y-122411707D01*
X106956771Y-122644787D01*
X107760151Y-122714399D01*
X108110109Y-122644787D01*
X108295038Y-122411707D01*
X107533440Y-121650109D01*
X106771842Y-122411707D01*
X103215038Y-122411707D01*
X102453440Y-121650109D01*
X101691842Y-122411707D01*
X91567000Y-122411707D01*
X91567000Y-120886871D01*
X100399201Y-120886871D01*
X100468813Y-121236829D01*
X100701893Y-121421758D01*
X101463491Y-120660160D01*
X103443389Y-120660160D01*
X104204987Y-121421758D01*
X104438067Y-121236829D01*
X104468390Y-120886871D01*
X105479201Y-120886871D01*
X105548813Y-121236829D01*
X105781893Y-121421758D01*
X106543491Y-120660160D01*
X108523389Y-120660160D01*
X109284987Y-121421758D01*
X109518067Y-121236829D01*
X109587679Y-120433449D01*
X109538259Y-120185000D01*
X116495921Y-120185000D01*
X116495921Y-122385000D01*
X116574506Y-122802641D01*
X116821331Y-123186219D01*
X117197944Y-123443548D01*
X117645000Y-123534079D01*
X119845000Y-123534079D01*
X120262641Y-123455494D01*
X120330233Y-123412000D01*
X126176779Y-123412000D01*
X126346033Y-123525092D01*
X127160000Y-123687000D01*
X127973968Y-123525092D01*
X128664016Y-123064016D01*
X129125092Y-122373968D01*
X129287000Y-121560000D01*
X129125092Y-120746033D01*
X128664016Y-120055984D01*
X128389016Y-119780984D01*
X127698968Y-119319908D01*
X126885000Y-119158000D01*
X120338228Y-119158000D01*
X120322000Y-119146912D01*
X120322000Y-117601405D01*
X120403548Y-117482056D01*
X120494079Y-117035000D01*
X120494079Y-116135000D01*
X120415494Y-115717359D01*
X120168669Y-115333781D01*
X119792056Y-115076452D01*
X119345000Y-114985921D01*
X118145000Y-114985921D01*
X117727359Y-115064506D01*
X117343781Y-115311331D01*
X117086452Y-115687944D01*
X116995921Y-116135000D01*
X116995921Y-117035000D01*
X117074506Y-117452641D01*
X117168000Y-117597935D01*
X117168000Y-119152702D01*
X116843781Y-119361331D01*
X116586452Y-119737944D01*
X116495921Y-120185000D01*
X109538259Y-120185000D01*
X109518067Y-120083491D01*
X109284987Y-119898562D01*
X108523389Y-120660160D01*
X106543491Y-120660160D01*
X105781893Y-119898562D01*
X105548813Y-120083491D01*
X105479201Y-120886871D01*
X104468390Y-120886871D01*
X104507679Y-120433449D01*
X104438067Y-120083491D01*
X104204987Y-119898562D01*
X103443389Y-120660160D01*
X101463491Y-120660160D01*
X100701893Y-119898562D01*
X100468813Y-120083491D01*
X100399201Y-120886871D01*
X91567000Y-120886871D01*
X91567000Y-118908613D01*
X101691842Y-118908613D01*
X102453440Y-119670211D01*
X103215038Y-118908613D01*
X106771842Y-118908613D01*
X107533440Y-119670211D01*
X108295038Y-118908613D01*
X108110109Y-118675533D01*
X107306729Y-118605921D01*
X106956771Y-118675533D01*
X106771842Y-118908613D01*
X103215038Y-118908613D01*
X103030109Y-118675533D01*
X102226729Y-118605921D01*
X101876771Y-118675533D01*
X101691842Y-118908613D01*
X91567000Y-118908613D01*
X91567000Y-117147000D01*
X111760000Y-117147000D01*
X112363492Y-117026958D01*
X112875107Y-116685107D01*
X117064660Y-112495554D01*
X116995921Y-112835000D01*
X116995921Y-113735000D01*
X117074506Y-114152641D01*
X117321331Y-114536219D01*
X117697944Y-114793548D01*
X118145000Y-114884079D01*
X119345000Y-114884079D01*
X119762641Y-114805494D01*
X120146219Y-114558669D01*
X120403548Y-114182056D01*
X120494079Y-113735000D01*
X120494079Y-112835000D01*
X120415494Y-112417359D01*
X120322000Y-112272065D01*
X120322000Y-110199955D01*
X120802480Y-109480866D01*
X120972000Y-108628630D01*
X120972000Y-108541370D01*
X120872000Y-108038635D01*
X120872000Y-102295000D01*
X120710092Y-101481032D01*
X120249016Y-100790984D01*
X119336559Y-99878527D01*
X119658459Y-99396770D01*
X119809984Y-98635000D01*
X119658459Y-97873230D01*
X119318870Y-97365000D01*
X119658459Y-96856770D01*
X119809984Y-96095000D01*
X119658459Y-95333230D01*
X119318870Y-94825000D01*
X119658459Y-94316770D01*
X119809984Y-93555000D01*
X119658459Y-92793230D01*
X119318870Y-92285000D01*
X119658459Y-91776770D01*
X119809984Y-91015000D01*
X119658459Y-90253230D01*
X119466271Y-89965600D01*
X119498002Y-89965600D01*
X119498002Y-89338600D01*
X119268000Y-89338600D01*
X119268000Y-89063550D01*
X119111250Y-88906800D01*
X118133000Y-88906800D01*
X118133000Y-89086782D01*
X117819384Y-89024400D01*
X117430616Y-89024400D01*
X117117000Y-89086782D01*
X117117000Y-88906800D01*
X116609000Y-88906800D01*
X116609000Y-88043200D01*
X117117000Y-88043200D01*
X117117000Y-87141150D01*
X118133000Y-87141150D01*
X118133000Y-88043200D01*
X119111250Y-88043200D01*
X119268000Y-87886450D01*
X119268000Y-87486682D01*
X119172545Y-87256233D01*
X118996167Y-87079855D01*
X118765718Y-86984400D01*
X118289750Y-86984400D01*
X118133000Y-87141150D01*
X117117000Y-87141150D01*
X116960250Y-86984400D01*
X116609000Y-86984400D01*
X116609000Y-86601998D01*
X116212000Y-86601998D01*
X116212000Y-85725000D01*
X123893000Y-85725000D01*
X123893000Y-111125000D01*
X123916096Y-111241111D01*
X123916096Y-111359499D01*
X124012769Y-111845506D01*
X124192246Y-112278802D01*
X124467547Y-112690820D01*
X124467548Y-112690821D01*
X124467549Y-112690823D01*
X124799177Y-113022451D01*
X124799179Y-113022452D01*
X124799180Y-113022453D01*
X125211197Y-113297754D01*
X125343367Y-113352500D01*
X125644493Y-113477231D01*
X126130501Y-113573904D01*
X126248889Y-113573904D01*
X126365000Y-113597000D01*
X127036656Y-113597000D01*
X126529510Y-114103262D01*
X126113474Y-115105186D01*
X126112528Y-116190054D01*
X126526814Y-117192703D01*
X127293262Y-117960490D01*
X128295186Y-118376526D01*
X129380054Y-118377472D01*
X130243000Y-118020910D01*
X130243000Y-121920000D01*
X130266096Y-122036111D01*
X130266096Y-122154499D01*
X130362769Y-122640506D01*
X130542246Y-123073802D01*
X130817547Y-123485820D01*
X130817548Y-123485821D01*
X130817549Y-123485823D01*
X131149177Y-123817451D01*
X131149179Y-123817452D01*
X131149180Y-123817453D01*
X131561197Y-124092754D01*
X131740674Y-124167095D01*
X131994493Y-124272231D01*
X132480501Y-124368904D01*
X132598889Y-124368904D01*
X132715000Y-124392000D01*
X140970000Y-124392000D01*
X141086111Y-124368904D01*
X141204499Y-124368904D01*
X141690506Y-124272231D01*
X142123802Y-124092754D01*
X142535820Y-123817453D01*
X142535821Y-123817452D01*
X142535823Y-123817451D01*
X142867451Y-123485823D01*
X142867452Y-123485821D01*
X142867453Y-123485820D01*
X143142754Y-123073803D01*
X143230485Y-122862000D01*
X143270262Y-122765970D01*
X146555071Y-122765970D01*
X146654647Y-122978612D01*
X147235994Y-123064018D01*
X147665353Y-122978612D01*
X147764929Y-122765970D01*
X147160000Y-122161041D01*
X146555071Y-122765970D01*
X143270262Y-122765970D01*
X143322231Y-122640507D01*
X143418904Y-122154499D01*
X143418904Y-122036111D01*
X143442000Y-121920000D01*
X143442000Y-121635994D01*
X145655982Y-121635994D01*
X145741388Y-122065353D01*
X145954030Y-122164929D01*
X146558959Y-121560000D01*
X147761041Y-121560000D01*
X148365970Y-122164929D01*
X148578612Y-122065353D01*
X148664018Y-121484006D01*
X148578612Y-121054647D01*
X148365970Y-120955071D01*
X147761041Y-121560000D01*
X146558959Y-121560000D01*
X145954030Y-120955071D01*
X145741388Y-121054647D01*
X145655982Y-121635994D01*
X143442000Y-121635994D01*
X143442000Y-120354030D01*
X146555071Y-120354030D01*
X147160000Y-120958959D01*
X147764929Y-120354030D01*
X147665353Y-120141388D01*
X147084006Y-120055982D01*
X146654647Y-120141388D01*
X146555071Y-120354030D01*
X143442000Y-120354030D01*
X143442000Y-113783388D01*
X143468933Y-113647988D01*
X143478568Y-113633567D01*
X143492987Y-113623933D01*
X143628387Y-113597000D01*
X147955000Y-113597000D01*
X148071111Y-113573904D01*
X148189499Y-113573904D01*
X148675506Y-113477231D01*
X149108802Y-113297754D01*
X149520820Y-113022453D01*
X149520821Y-113022452D01*
X149520823Y-113022451D01*
X149852451Y-112690823D01*
X149852452Y-112690821D01*
X149852453Y-112690820D01*
X150127754Y-112278803D01*
X150206787Y-112088000D01*
X150307231Y-111845507D01*
X150403904Y-111359499D01*
X150403904Y-111241111D01*
X150427000Y-111125000D01*
X150427000Y-87486682D01*
X168557000Y-87486682D01*
X168557000Y-87886450D01*
X168713750Y-88043200D01*
X169692000Y-88043200D01*
X169692000Y-87141150D01*
X170708000Y-87141150D01*
X170708000Y-88043200D01*
X171686250Y-88043200D01*
X171843000Y-87886450D01*
X171843000Y-87486682D01*
X171747545Y-87256233D01*
X171571167Y-87079855D01*
X171340718Y-86984400D01*
X170864750Y-86984400D01*
X170708000Y-87141150D01*
X169692000Y-87141150D01*
X169535250Y-86984400D01*
X169059282Y-86984400D01*
X168828833Y-87079855D01*
X168652455Y-87256233D01*
X168557000Y-87486682D01*
X150427000Y-87486682D01*
X150427000Y-85725000D01*
X150403904Y-85608889D01*
X150403904Y-85490501D01*
X150307231Y-85004493D01*
X150145689Y-84614497D01*
X150127754Y-84571197D01*
X149852453Y-84159180D01*
X149852451Y-84159178D01*
X149852451Y-84159177D01*
X149520823Y-83827549D01*
X149520821Y-83827548D01*
X149520820Y-83827547D01*
X149108802Y-83552246D01*
X148675506Y-83372769D01*
X148189499Y-83276096D01*
X148098032Y-83276096D01*
X148206526Y-83014814D01*
X148207472Y-81929946D01*
X147793186Y-80927297D01*
X147026738Y-80159510D01*
X146024814Y-79743474D01*
X144939946Y-79742528D01*
X144077000Y-80099090D01*
X144077000Y-77765970D01*
X146555071Y-77765970D01*
X146654647Y-77978612D01*
X147235994Y-78064018D01*
X147665353Y-77978612D01*
X147764929Y-77765970D01*
X147160000Y-77161041D01*
X146555071Y-77765970D01*
X144077000Y-77765970D01*
X144077000Y-76635994D01*
X145655982Y-76635994D01*
X145741388Y-77065353D01*
X145954030Y-77164929D01*
X146558959Y-76560000D01*
X147761041Y-76560000D01*
X148365970Y-77164929D01*
X148578612Y-77065353D01*
X148664018Y-76484006D01*
X148578612Y-76054647D01*
X148365970Y-75955071D01*
X147761041Y-76560000D01*
X146558959Y-76560000D01*
X145954030Y-75955071D01*
X145741388Y-76054647D01*
X145655982Y-76635994D01*
X144077000Y-76635994D01*
X144077000Y-76200000D01*
X144053904Y-76083889D01*
X144053904Y-75965501D01*
X143957231Y-75479493D01*
X143905263Y-75354030D01*
X146555071Y-75354030D01*
X147160000Y-75958959D01*
X147764929Y-75354030D01*
X147665353Y-75141388D01*
X147084006Y-75055982D01*
X146654647Y-75141388D01*
X146555071Y-75354030D01*
X143905263Y-75354030D01*
X143811961Y-75128781D01*
X143777754Y-75046197D01*
X143502453Y-74634180D01*
X143502451Y-74634178D01*
X143502451Y-74634177D01*
X143170823Y-74302549D01*
X143170821Y-74302548D01*
X143170820Y-74302547D01*
X142758802Y-74027246D01*
X142325506Y-73847769D01*
X141839499Y-73751096D01*
X141721111Y-73751096D01*
X141605000Y-73728000D01*
X133985000Y-73728000D01*
X133868889Y-73751096D01*
X133750501Y-73751096D01*
X133264493Y-73847769D01*
X133010674Y-73952905D01*
X132831197Y-74027246D01*
X132419180Y-74302547D01*
X132419179Y-74302548D01*
X132419177Y-74302549D01*
X132087549Y-74634177D01*
X132087549Y-74634178D01*
X132087547Y-74634180D01*
X131812246Y-75046198D01*
X131657956Y-75418687D01*
X131632769Y-75479494D01*
X131536096Y-75965501D01*
X131536096Y-76083889D01*
X131513000Y-76200000D01*
X131513000Y-83066613D01*
X131486067Y-83202013D01*
X131476433Y-83216432D01*
X131462012Y-83226067D01*
X131326612Y-83253000D01*
X126365000Y-83253000D01*
X126248889Y-83276096D01*
X126130501Y-83276096D01*
X125644493Y-83372769D01*
X125390674Y-83477905D01*
X125211197Y-83552246D01*
X124799180Y-83827547D01*
X124799179Y-83827548D01*
X124799177Y-83827549D01*
X124467549Y-84159177D01*
X124467549Y-84159178D01*
X124467547Y-84159180D01*
X124192246Y-84571198D01*
X124049845Y-84914985D01*
X124012769Y-85004494D01*
X123916096Y-85490501D01*
X123916096Y-85608889D01*
X123893000Y-85725000D01*
X116212000Y-85725000D01*
X116212000Y-76951524D01*
X125182657Y-76951524D01*
X125483003Y-77678418D01*
X126038657Y-78235042D01*
X126765025Y-78536656D01*
X127551524Y-78537343D01*
X128278418Y-78236997D01*
X128835042Y-77681343D01*
X129136656Y-76954975D01*
X129137343Y-76168476D01*
X128836997Y-75441582D01*
X128281343Y-74884958D01*
X127554975Y-74583344D01*
X126768476Y-74582657D01*
X126041582Y-74883003D01*
X125484958Y-75438657D01*
X125183344Y-76165025D01*
X125182657Y-76951524D01*
X116212000Y-76951524D01*
X116212000Y-76835000D01*
X116114794Y-76346313D01*
X115837975Y-75932025D01*
X115382975Y-75477025D01*
X115295666Y-75418687D01*
X114968687Y-75200206D01*
X114717475Y-75150237D01*
X114703669Y-75128781D01*
X114410051Y-74928160D01*
X114681219Y-74753669D01*
X114938548Y-74377056D01*
X115029079Y-73930000D01*
X115029079Y-73030000D01*
X114950494Y-72612359D01*
X114703669Y-72228781D01*
X114327056Y-71971452D01*
X113880000Y-71880921D01*
X112180000Y-71880921D01*
X111762359Y-71959506D01*
X111498957Y-72129000D01*
X111135737Y-72129000D01*
X110775093Y-71979248D01*
X110207397Y-71978752D01*
X109682725Y-72195543D01*
X109280953Y-72596614D01*
X109063248Y-73120907D01*
X109063021Y-73380921D01*
X108511619Y-73380921D01*
X108470494Y-73162359D01*
X108223669Y-72778781D01*
X107847056Y-72521452D01*
X107400000Y-72430921D01*
X106500000Y-72430921D01*
X106082359Y-72509506D01*
X105781660Y-72703000D01*
X105623950Y-72703000D01*
X105497975Y-72577025D01*
X105207598Y-72383001D01*
X105083687Y-72300206D01*
X104595000Y-72203000D01*
X104505937Y-72203000D01*
X104167056Y-71971452D01*
X103720000Y-71880921D01*
X102020000Y-71880921D01*
X101727000Y-71936053D01*
X101727000Y-70818157D01*
X102455980Y-70963160D01*
X107535980Y-70963160D01*
X108541289Y-70763192D01*
X109393550Y-70193730D01*
X109963012Y-69341469D01*
X110162980Y-68336160D01*
X109963012Y-67330851D01*
X109393550Y-66478590D01*
X108635384Y-65972000D01*
X180602036Y-65972000D01*
X179843870Y-66478590D01*
G36*
X95567901Y-76956565D02*
X95910967Y-77470000D01*
X95567901Y-77983435D01*
X95417411Y-78740000D01*
X95567901Y-79496565D01*
X95910967Y-80010000D01*
X95567901Y-80523435D01*
X95417411Y-81280000D01*
X95567901Y-82036565D01*
X95910967Y-82550000D01*
X95567901Y-83063435D01*
X95417411Y-83820000D01*
X95567901Y-84576565D01*
X95916998Y-85099025D01*
X95916998Y-85510000D01*
X95963000Y-85510000D01*
X95963000Y-85778250D01*
X96119750Y-85935000D01*
X97190000Y-85935000D01*
X97190000Y-85756340D01*
X97394411Y-85797000D01*
X98185589Y-85797000D01*
X98390000Y-85756340D01*
X98390000Y-85935000D01*
X99460250Y-85935000D01*
X99617000Y-85778250D01*
X99617000Y-85510000D01*
X99663002Y-85510000D01*
X99663002Y-85099025D01*
X100012099Y-84576565D01*
X100162589Y-83820000D01*
X100012099Y-83063435D01*
X99669033Y-82550000D01*
X99905573Y-82195992D01*
X100026408Y-82803469D01*
X100595870Y-83655730D01*
X101448131Y-84225192D01*
X102453440Y-84425160D01*
X107533440Y-84425160D01*
X108538749Y-84225192D01*
X109391010Y-83655730D01*
X109960472Y-82803469D01*
X110160440Y-81798160D01*
X109960472Y-80792851D01*
X109391010Y-79940590D01*
X108538749Y-79371128D01*
X107533440Y-79171160D01*
X102453440Y-79171160D01*
X101448131Y-79371128D01*
X100595870Y-79940590D01*
X100056678Y-80747549D01*
X100012099Y-80523435D01*
X99669033Y-80010000D01*
X100012099Y-79496565D01*
X100162589Y-78740000D01*
X100012099Y-77983435D01*
X99669033Y-77470000D01*
X99736288Y-77369346D01*
X100021313Y-77559794D01*
X100510000Y-77657000D01*
X101234063Y-77657000D01*
X101572944Y-77888548D01*
X102020000Y-77979079D01*
X103720000Y-77979079D01*
X104137641Y-77900494D01*
X104516042Y-77657000D01*
X104595000Y-77657000D01*
X105083687Y-77559794D01*
X105497975Y-77282975D01*
X105623950Y-77157000D01*
X105787240Y-77157000D01*
X106052944Y-77338548D01*
X106500000Y-77429079D01*
X107400000Y-77429079D01*
X107817641Y-77350494D01*
X108201219Y-77103669D01*
X108458548Y-76727056D01*
X108508765Y-76479079D01*
X109400000Y-76479079D01*
X109566752Y-76447702D01*
X110402025Y-77282976D01*
X110650373Y-77448916D01*
X110816313Y-77559794D01*
X111305000Y-77657000D01*
X111394063Y-77657000D01*
X111732944Y-77888548D01*
X112180000Y-77979079D01*
X113658000Y-77979079D01*
X113658000Y-85850921D01*
X112180000Y-85850921D01*
X111762359Y-85929506D01*
X111498957Y-86099000D01*
X111135737Y-86099000D01*
X110775093Y-85949248D01*
X110207397Y-85948752D01*
X109682725Y-86165543D01*
X109280953Y-86566614D01*
X109063248Y-87090907D01*
X109063021Y-87350921D01*
X108511619Y-87350921D01*
X108470494Y-87132359D01*
X108344922Y-86937215D01*
X108360752Y-86899093D01*
X108361248Y-86331397D01*
X108144457Y-85806725D01*
X107743386Y-85404953D01*
X107219093Y-85187248D01*
X106651397Y-85186752D01*
X106126725Y-85403543D01*
X105724953Y-85804614D01*
X105507248Y-86328907D01*
X105507050Y-86556099D01*
X105497975Y-86547025D01*
X105304720Y-86417896D01*
X105083687Y-86270206D01*
X104595000Y-86173000D01*
X104505937Y-86173000D01*
X104167056Y-85941452D01*
X103720000Y-85850921D01*
X102020000Y-85850921D01*
X101602359Y-85929506D01*
X101218781Y-86176331D01*
X100961452Y-86552944D01*
X100870921Y-87000000D01*
X100870921Y-87900000D01*
X100949506Y-88317641D01*
X101196331Y-88701219D01*
X101489949Y-88901840D01*
X101306322Y-89020000D01*
X100467737Y-89020000D01*
X100161135Y-88892688D01*
X100012099Y-88143435D01*
X99663002Y-87620975D01*
X99663002Y-87210000D01*
X99617000Y-87210000D01*
X99617000Y-86941750D01*
X99460250Y-86785000D01*
X98390000Y-86785000D01*
X98390000Y-86963660D01*
X98185589Y-86923000D01*
X97394411Y-86923000D01*
X97190000Y-86963660D01*
X97190000Y-86785000D01*
X96119750Y-86785000D01*
X95963000Y-86941750D01*
X95963000Y-87210000D01*
X95916998Y-87210000D01*
X95916998Y-87620975D01*
X95567901Y-88143435D01*
X95417411Y-88900000D01*
X95567901Y-89656565D01*
X95910967Y-90170000D01*
X95567901Y-90683435D01*
X95417411Y-91440000D01*
X95567901Y-92196565D01*
X95910967Y-92710000D01*
X95567901Y-93223435D01*
X95417411Y-93980000D01*
X95567901Y-94736565D01*
X95910967Y-95250000D01*
X95567901Y-95763435D01*
X95417411Y-96520000D01*
X95567901Y-97276565D01*
X95910967Y-97790000D01*
X95567901Y-98303435D01*
X95417411Y-99060000D01*
X95567901Y-99816565D01*
X95910967Y-100330000D01*
X95567901Y-100843435D01*
X95417411Y-101600000D01*
X95567901Y-102356565D01*
X95916998Y-102879025D01*
X95916998Y-103290000D01*
X95963000Y-103290000D01*
X95963000Y-103558250D01*
X96119750Y-103715000D01*
X97190000Y-103715000D01*
X97190000Y-103536340D01*
X97394411Y-103577000D01*
X98185589Y-103577000D01*
X98390000Y-103536340D01*
X98390000Y-103715000D01*
X99460250Y-103715000D01*
X99617000Y-103558250D01*
X99617000Y-103290000D01*
X99663002Y-103290000D01*
X99663002Y-102879025D01*
X99665105Y-102875878D01*
X99664752Y-103279603D01*
X99881543Y-103804275D01*
X100282614Y-104206047D01*
X100806907Y-104423752D01*
X101374603Y-104424248D01*
X101375716Y-104423788D01*
X101572944Y-104558548D01*
X102020000Y-104649079D01*
X103720000Y-104649079D01*
X104137641Y-104570494D01*
X104516042Y-104327000D01*
X104595000Y-104327000D01*
X105083687Y-104229794D01*
X105497975Y-103952975D01*
X105623950Y-103827000D01*
X105787240Y-103827000D01*
X106052944Y-104008548D01*
X106500000Y-104099079D01*
X107400000Y-104099079D01*
X107817641Y-104020494D01*
X108201219Y-103773669D01*
X108458548Y-103397056D01*
X108508765Y-103149079D01*
X109400000Y-103149079D01*
X109566752Y-103117702D01*
X110402025Y-103952976D01*
X110650373Y-104118916D01*
X110816313Y-104229794D01*
X111305000Y-104327000D01*
X111394063Y-104327000D01*
X111732944Y-104558548D01*
X112180000Y-104649079D01*
X113880000Y-104649079D01*
X114297641Y-104570494D01*
X114681219Y-104323669D01*
X114860180Y-104061752D01*
X115022975Y-103952975D01*
X115837975Y-103137975D01*
X115883064Y-103070494D01*
X116114794Y-102723687D01*
X116123232Y-102681264D01*
X116618000Y-103176032D01*
X116618000Y-108038635D01*
X116518000Y-108541370D01*
X116518000Y-108581785D01*
X111106786Y-113993000D01*
X91567000Y-113993000D01*
X91567000Y-108155953D01*
X92075000Y-108257000D01*
X94896971Y-108257000D01*
X94209510Y-108943262D01*
X93793474Y-109945186D01*
X93792528Y-111030054D01*
X94206814Y-112032703D01*
X94973262Y-112800490D01*
X95975186Y-113216526D01*
X97060054Y-113217472D01*
X98062703Y-112803186D01*
X98830490Y-112036738D01*
X99246526Y-111034814D01*
X99246793Y-110727707D01*
X101691842Y-110727707D01*
X101876771Y-110960787D01*
X102680151Y-111030399D01*
X103030109Y-110960787D01*
X103215038Y-110727707D01*
X106771842Y-110727707D01*
X106956771Y-110960787D01*
X107760151Y-111030399D01*
X108110109Y-110960787D01*
X108295038Y-110727707D01*
X107533440Y-109966109D01*
X106771842Y-110727707D01*
X103215038Y-110727707D01*
X102453440Y-109966109D01*
X101691842Y-110727707D01*
X99246793Y-110727707D01*
X99247472Y-109949946D01*
X98938787Y-109202871D01*
X100399201Y-109202871D01*
X100468813Y-109552829D01*
X100701893Y-109737758D01*
X101463491Y-108976160D01*
X103443389Y-108976160D01*
X104204987Y-109737758D01*
X104438067Y-109552829D01*
X104468390Y-109202871D01*
X105479201Y-109202871D01*
X105548813Y-109552829D01*
X105781893Y-109737758D01*
X106543491Y-108976160D01*
X108523389Y-108976160D01*
X109284987Y-109737758D01*
X109518067Y-109552829D01*
X109587679Y-108749449D01*
X109518067Y-108399491D01*
X109284987Y-108214562D01*
X108523389Y-108976160D01*
X106543491Y-108976160D01*
X105781893Y-108214562D01*
X105548813Y-108399491D01*
X105479201Y-109202871D01*
X104468390Y-109202871D01*
X104507679Y-108749449D01*
X104438067Y-108399491D01*
X104204987Y-108214562D01*
X103443389Y-108976160D01*
X101463491Y-108976160D01*
X100701893Y-108214562D01*
X100468813Y-108399491D01*
X100399201Y-109202871D01*
X98938787Y-109202871D01*
X98833186Y-108947297D01*
X98484118Y-108597619D01*
X98942154Y-108506510D01*
X99583539Y-108077950D01*
X100012099Y-107436565D01*
X100054258Y-107224613D01*
X101691842Y-107224613D01*
X102453440Y-107986211D01*
X103215038Y-107224613D01*
X106771842Y-107224613D01*
X107533440Y-107986211D01*
X108295038Y-107224613D01*
X108110109Y-106991533D01*
X107306729Y-106921921D01*
X106956771Y-106991533D01*
X106771842Y-107224613D01*
X103215038Y-107224613D01*
X103030109Y-106991533D01*
X102226729Y-106921921D01*
X101876771Y-106991533D01*
X101691842Y-107224613D01*
X100054258Y-107224613D01*
X100162589Y-106680000D01*
X100012099Y-105923435D01*
X99663002Y-105400975D01*
X99663002Y-104990000D01*
X99617000Y-104990000D01*
X99617000Y-104721750D01*
X99460250Y-104565000D01*
X98390000Y-104565000D01*
X98390000Y-104743660D01*
X98185589Y-104703000D01*
X97394411Y-104703000D01*
X97190000Y-104743660D01*
X97190000Y-104565000D01*
X96119750Y-104565000D01*
X95963000Y-104721750D01*
X95963000Y-104990000D01*
X95916998Y-104990000D01*
X95916998Y-105103000D01*
X92728215Y-105103000D01*
X87475107Y-99849893D01*
X86963492Y-99508042D01*
X86360000Y-99388001D01*
X85756508Y-99508042D01*
X85244893Y-99849893D01*
X84903042Y-100361508D01*
X84783001Y-100965000D01*
X84903042Y-101568492D01*
X85244893Y-102080107D01*
X87177786Y-104013000D01*
X76757000Y-104013000D01*
X76757000Y-103290000D01*
X76803002Y-103290000D01*
X76803002Y-102879025D01*
X77152099Y-102356565D01*
X77302589Y-101600000D01*
X77152099Y-100843435D01*
X76809033Y-100330000D01*
X77152099Y-99816565D01*
X77302589Y-99060000D01*
X77152099Y-98303435D01*
X76809033Y-97790000D01*
X77152099Y-97276565D01*
X77302589Y-96520000D01*
X77152099Y-95763435D01*
X76803002Y-95240975D01*
X76803002Y-94830000D01*
X76757000Y-94830000D01*
X76757000Y-94561750D01*
X76600250Y-94405000D01*
X75530000Y-94405000D01*
X75530000Y-94583660D01*
X75325589Y-94543000D01*
X74862000Y-94543000D01*
X74862000Y-93417000D01*
X75325589Y-93417000D01*
X75530000Y-93376340D01*
X75530000Y-93555000D01*
X76600250Y-93555000D01*
X76757000Y-93398250D01*
X76757000Y-93130000D01*
X76803002Y-93130000D01*
X76803002Y-92719025D01*
X77152099Y-92196565D01*
X77302589Y-91440000D01*
X77152099Y-90683435D01*
X76809033Y-90170000D01*
X77152099Y-89656565D01*
X77302589Y-88900000D01*
X77152099Y-88143435D01*
X76809033Y-87630000D01*
X77152099Y-87116565D01*
X77302589Y-86360000D01*
X77152099Y-85603435D01*
X76809033Y-85090000D01*
X77152099Y-84576565D01*
X77302589Y-83820000D01*
X77152099Y-83063435D01*
X76809033Y-82550000D01*
X77152099Y-82036565D01*
X77302589Y-81280000D01*
X77152099Y-80523435D01*
X76809033Y-80010000D01*
X77152099Y-79496565D01*
X77302589Y-78740000D01*
X77152099Y-77983435D01*
X76809033Y-77470000D01*
X77152099Y-76956565D01*
X77277327Y-76327000D01*
X95442673Y-76327000D01*
X95567901Y-76956565D01*
X95567901Y-76956565D01*
G37*
X95567901Y-76956565D02*
X95910967Y-77470000D01*
X95567901Y-77983435D01*
X95417411Y-78740000D01*
X95567901Y-79496565D01*
X95910967Y-80010000D01*
X95567901Y-80523435D01*
X95417411Y-81280000D01*
X95567901Y-82036565D01*
X95910967Y-82550000D01*
X95567901Y-83063435D01*
X95417411Y-83820000D01*
X95567901Y-84576565D01*
X95916998Y-85099025D01*
X95916998Y-85510000D01*
X95963000Y-85510000D01*
X95963000Y-85778250D01*
X96119750Y-85935000D01*
X97190000Y-85935000D01*
X97190000Y-85756340D01*
X97394411Y-85797000D01*
X98185589Y-85797000D01*
X98390000Y-85756340D01*
X98390000Y-85935000D01*
X99460250Y-85935000D01*
X99617000Y-85778250D01*
X99617000Y-85510000D01*
X99663002Y-85510000D01*
X99663002Y-85099025D01*
X100012099Y-84576565D01*
X100162589Y-83820000D01*
X100012099Y-83063435D01*
X99669033Y-82550000D01*
X99905573Y-82195992D01*
X100026408Y-82803469D01*
X100595870Y-83655730D01*
X101448131Y-84225192D01*
X102453440Y-84425160D01*
X107533440Y-84425160D01*
X108538749Y-84225192D01*
X109391010Y-83655730D01*
X109960472Y-82803469D01*
X110160440Y-81798160D01*
X109960472Y-80792851D01*
X109391010Y-79940590D01*
X108538749Y-79371128D01*
X107533440Y-79171160D01*
X102453440Y-79171160D01*
X101448131Y-79371128D01*
X100595870Y-79940590D01*
X100056678Y-80747549D01*
X100012099Y-80523435D01*
X99669033Y-80010000D01*
X100012099Y-79496565D01*
X100162589Y-78740000D01*
X100012099Y-77983435D01*
X99669033Y-77470000D01*
X99736288Y-77369346D01*
X100021313Y-77559794D01*
X100510000Y-77657000D01*
X101234063Y-77657000D01*
X101572944Y-77888548D01*
X102020000Y-77979079D01*
X103720000Y-77979079D01*
X104137641Y-77900494D01*
X104516042Y-77657000D01*
X104595000Y-77657000D01*
X105083687Y-77559794D01*
X105497975Y-77282975D01*
X105623950Y-77157000D01*
X105787240Y-77157000D01*
X106052944Y-77338548D01*
X106500000Y-77429079D01*
X107400000Y-77429079D01*
X107817641Y-77350494D01*
X108201219Y-77103669D01*
X108458548Y-76727056D01*
X108508765Y-76479079D01*
X109400000Y-76479079D01*
X109566752Y-76447702D01*
X110402025Y-77282976D01*
X110650373Y-77448916D01*
X110816313Y-77559794D01*
X111305000Y-77657000D01*
X111394063Y-77657000D01*
X111732944Y-77888548D01*
X112180000Y-77979079D01*
X113658000Y-77979079D01*
X113658000Y-85850921D01*
X112180000Y-85850921D01*
X111762359Y-85929506D01*
X111498957Y-86099000D01*
X111135737Y-86099000D01*
X110775093Y-85949248D01*
X110207397Y-85948752D01*
X109682725Y-86165543D01*
X109280953Y-86566614D01*
X109063248Y-87090907D01*
X109063021Y-87350921D01*
X108511619Y-87350921D01*
X108470494Y-87132359D01*
X108344922Y-86937215D01*
X108360752Y-86899093D01*
X108361248Y-86331397D01*
X108144457Y-85806725D01*
X107743386Y-85404953D01*
X107219093Y-85187248D01*
X106651397Y-85186752D01*
X106126725Y-85403543D01*
X105724953Y-85804614D01*
X105507248Y-86328907D01*
X105507050Y-86556099D01*
X105497975Y-86547025D01*
X105304720Y-86417896D01*
X105083687Y-86270206D01*
X104595000Y-86173000D01*
X104505937Y-86173000D01*
X104167056Y-85941452D01*
X103720000Y-85850921D01*
X102020000Y-85850921D01*
X101602359Y-85929506D01*
X101218781Y-86176331D01*
X100961452Y-86552944D01*
X100870921Y-87000000D01*
X100870921Y-87900000D01*
X100949506Y-88317641D01*
X101196331Y-88701219D01*
X101489949Y-88901840D01*
X101306322Y-89020000D01*
X100467737Y-89020000D01*
X100161135Y-88892688D01*
X100012099Y-88143435D01*
X99663002Y-87620975D01*
X99663002Y-87210000D01*
X99617000Y-87210000D01*
X99617000Y-86941750D01*
X99460250Y-86785000D01*
X98390000Y-86785000D01*
X98390000Y-86963660D01*
X98185589Y-86923000D01*
X97394411Y-86923000D01*
X97190000Y-86963660D01*
X97190000Y-86785000D01*
X96119750Y-86785000D01*
X95963000Y-86941750D01*
X95963000Y-87210000D01*
X95916998Y-87210000D01*
X95916998Y-87620975D01*
X95567901Y-88143435D01*
X95417411Y-88900000D01*
X95567901Y-89656565D01*
X95910967Y-90170000D01*
X95567901Y-90683435D01*
X95417411Y-91440000D01*
X95567901Y-92196565D01*
X95910967Y-92710000D01*
X95567901Y-93223435D01*
X95417411Y-93980000D01*
X95567901Y-94736565D01*
X95910967Y-95250000D01*
X95567901Y-95763435D01*
X95417411Y-96520000D01*
X95567901Y-97276565D01*
X95910967Y-97790000D01*
X95567901Y-98303435D01*
X95417411Y-99060000D01*
X95567901Y-99816565D01*
X95910967Y-100330000D01*
X95567901Y-100843435D01*
X95417411Y-101600000D01*
X95567901Y-102356565D01*
X95916998Y-102879025D01*
X95916998Y-103290000D01*
X95963000Y-103290000D01*
X95963000Y-103558250D01*
X96119750Y-103715000D01*
X97190000Y-103715000D01*
X97190000Y-103536340D01*
X97394411Y-103577000D01*
X98185589Y-103577000D01*
X98390000Y-103536340D01*
X98390000Y-103715000D01*
X99460250Y-103715000D01*
X99617000Y-103558250D01*
X99617000Y-103290000D01*
X99663002Y-103290000D01*
X99663002Y-102879025D01*
X99665105Y-102875878D01*
X99664752Y-103279603D01*
X99881543Y-103804275D01*
X100282614Y-104206047D01*
X100806907Y-104423752D01*
X101374603Y-104424248D01*
X101375716Y-104423788D01*
X101572944Y-104558548D01*
X102020000Y-104649079D01*
X103720000Y-104649079D01*
X104137641Y-104570494D01*
X104516042Y-104327000D01*
X104595000Y-104327000D01*
X105083687Y-104229794D01*
X105497975Y-103952975D01*
X105623950Y-103827000D01*
X105787240Y-103827000D01*
X106052944Y-104008548D01*
X106500000Y-104099079D01*
X107400000Y-104099079D01*
X107817641Y-104020494D01*
X108201219Y-103773669D01*
X108458548Y-103397056D01*
X108508765Y-103149079D01*
X109400000Y-103149079D01*
X109566752Y-103117702D01*
X110402025Y-103952976D01*
X110650373Y-104118916D01*
X110816313Y-104229794D01*
X111305000Y-104327000D01*
X111394063Y-104327000D01*
X111732944Y-104558548D01*
X112180000Y-104649079D01*
X113880000Y-104649079D01*
X114297641Y-104570494D01*
X114681219Y-104323669D01*
X114860180Y-104061752D01*
X115022975Y-103952975D01*
X115837975Y-103137975D01*
X115883064Y-103070494D01*
X116114794Y-102723687D01*
X116123232Y-102681264D01*
X116618000Y-103176032D01*
X116618000Y-108038635D01*
X116518000Y-108541370D01*
X116518000Y-108581785D01*
X111106786Y-113993000D01*
X91567000Y-113993000D01*
X91567000Y-108155953D01*
X92075000Y-108257000D01*
X94896971Y-108257000D01*
X94209510Y-108943262D01*
X93793474Y-109945186D01*
X93792528Y-111030054D01*
X94206814Y-112032703D01*
X94973262Y-112800490D01*
X95975186Y-113216526D01*
X97060054Y-113217472D01*
X98062703Y-112803186D01*
X98830490Y-112036738D01*
X99246526Y-111034814D01*
X99246793Y-110727707D01*
X101691842Y-110727707D01*
X101876771Y-110960787D01*
X102680151Y-111030399D01*
X103030109Y-110960787D01*
X103215038Y-110727707D01*
X106771842Y-110727707D01*
X106956771Y-110960787D01*
X107760151Y-111030399D01*
X108110109Y-110960787D01*
X108295038Y-110727707D01*
X107533440Y-109966109D01*
X106771842Y-110727707D01*
X103215038Y-110727707D01*
X102453440Y-109966109D01*
X101691842Y-110727707D01*
X99246793Y-110727707D01*
X99247472Y-109949946D01*
X98938787Y-109202871D01*
X100399201Y-109202871D01*
X100468813Y-109552829D01*
X100701893Y-109737758D01*
X101463491Y-108976160D01*
X103443389Y-108976160D01*
X104204987Y-109737758D01*
X104438067Y-109552829D01*
X104468390Y-109202871D01*
X105479201Y-109202871D01*
X105548813Y-109552829D01*
X105781893Y-109737758D01*
X106543491Y-108976160D01*
X108523389Y-108976160D01*
X109284987Y-109737758D01*
X109518067Y-109552829D01*
X109587679Y-108749449D01*
X109518067Y-108399491D01*
X109284987Y-108214562D01*
X108523389Y-108976160D01*
X106543491Y-108976160D01*
X105781893Y-108214562D01*
X105548813Y-108399491D01*
X105479201Y-109202871D01*
X104468390Y-109202871D01*
X104507679Y-108749449D01*
X104438067Y-108399491D01*
X104204987Y-108214562D01*
X103443389Y-108976160D01*
X101463491Y-108976160D01*
X100701893Y-108214562D01*
X100468813Y-108399491D01*
X100399201Y-109202871D01*
X98938787Y-109202871D01*
X98833186Y-108947297D01*
X98484118Y-108597619D01*
X98942154Y-108506510D01*
X99583539Y-108077950D01*
X100012099Y-107436565D01*
X100054258Y-107224613D01*
X101691842Y-107224613D01*
X102453440Y-107986211D01*
X103215038Y-107224613D01*
X106771842Y-107224613D01*
X107533440Y-107986211D01*
X108295038Y-107224613D01*
X108110109Y-106991533D01*
X107306729Y-106921921D01*
X106956771Y-106991533D01*
X106771842Y-107224613D01*
X103215038Y-107224613D01*
X103030109Y-106991533D01*
X102226729Y-106921921D01*
X101876771Y-106991533D01*
X101691842Y-107224613D01*
X100054258Y-107224613D01*
X100162589Y-106680000D01*
X100012099Y-105923435D01*
X99663002Y-105400975D01*
X99663002Y-104990000D01*
X99617000Y-104990000D01*
X99617000Y-104721750D01*
X99460250Y-104565000D01*
X98390000Y-104565000D01*
X98390000Y-104743660D01*
X98185589Y-104703000D01*
X97394411Y-104703000D01*
X97190000Y-104743660D01*
X97190000Y-104565000D01*
X96119750Y-104565000D01*
X95963000Y-104721750D01*
X95963000Y-104990000D01*
X95916998Y-104990000D01*
X95916998Y-105103000D01*
X92728215Y-105103000D01*
X87475107Y-99849893D01*
X86963492Y-99508042D01*
X86360000Y-99388001D01*
X85756508Y-99508042D01*
X85244893Y-99849893D01*
X84903042Y-100361508D01*
X84783001Y-100965000D01*
X84903042Y-101568492D01*
X85244893Y-102080107D01*
X87177786Y-104013000D01*
X76757000Y-104013000D01*
X76757000Y-103290000D01*
X76803002Y-103290000D01*
X76803002Y-102879025D01*
X77152099Y-102356565D01*
X77302589Y-101600000D01*
X77152099Y-100843435D01*
X76809033Y-100330000D01*
X77152099Y-99816565D01*
X77302589Y-99060000D01*
X77152099Y-98303435D01*
X76809033Y-97790000D01*
X77152099Y-97276565D01*
X77302589Y-96520000D01*
X77152099Y-95763435D01*
X76803002Y-95240975D01*
X76803002Y-94830000D01*
X76757000Y-94830000D01*
X76757000Y-94561750D01*
X76600250Y-94405000D01*
X75530000Y-94405000D01*
X75530000Y-94583660D01*
X75325589Y-94543000D01*
X74862000Y-94543000D01*
X74862000Y-93417000D01*
X75325589Y-93417000D01*
X75530000Y-93376340D01*
X75530000Y-93555000D01*
X76600250Y-93555000D01*
X76757000Y-93398250D01*
X76757000Y-93130000D01*
X76803002Y-93130000D01*
X76803002Y-92719025D01*
X77152099Y-92196565D01*
X77302589Y-91440000D01*
X77152099Y-90683435D01*
X76809033Y-90170000D01*
X77152099Y-89656565D01*
X77302589Y-88900000D01*
X77152099Y-88143435D01*
X76809033Y-87630000D01*
X77152099Y-87116565D01*
X77302589Y-86360000D01*
X77152099Y-85603435D01*
X76809033Y-85090000D01*
X77152099Y-84576565D01*
X77302589Y-83820000D01*
X77152099Y-83063435D01*
X76809033Y-82550000D01*
X77152099Y-82036565D01*
X77302589Y-81280000D01*
X77152099Y-80523435D01*
X76809033Y-80010000D01*
X77152099Y-79496565D01*
X77302589Y-78740000D01*
X77152099Y-77983435D01*
X76809033Y-77470000D01*
X77152099Y-76956565D01*
X77277327Y-76327000D01*
X95442673Y-76327000D01*
X95567901Y-76956565D01*
G36*
X168706026Y-100525333D02*
X168785576Y-100743200D01*
X169692000Y-100743200D01*
X169692000Y-100563218D01*
X170005616Y-100625600D01*
X170394384Y-100625600D01*
X170708000Y-100563218D01*
X170708000Y-100743200D01*
X171614424Y-100743200D01*
X171693974Y-100525333D01*
X171641867Y-100457000D01*
X173137818Y-100457000D01*
X173350585Y-101526651D01*
X174028433Y-102541123D01*
X175042905Y-103218971D01*
X176239556Y-103457000D01*
X180440444Y-103457000D01*
X181637095Y-103218971D01*
X182651567Y-102541123D01*
X182690921Y-102482226D01*
X182690921Y-102830000D01*
X182769506Y-103247641D01*
X183016331Y-103631219D01*
X183392944Y-103888548D01*
X183713000Y-103953361D01*
X183713000Y-106349160D01*
X181701440Y-106349160D01*
X180696131Y-106549128D01*
X179843870Y-107118590D01*
X179274408Y-107970851D01*
X179074440Y-108976160D01*
X179274408Y-109981469D01*
X179574440Y-110430499D01*
X179574440Y-112088000D01*
X178632994Y-112088000D01*
X178477056Y-111981452D01*
X178030000Y-111890921D01*
X177030000Y-111890921D01*
X176657000Y-111961106D01*
X176657000Y-111791998D01*
X176030000Y-111791998D01*
X176030000Y-112413000D01*
X175936750Y-112413000D01*
X175780000Y-112569750D01*
X175780000Y-113352500D01*
X175880921Y-113352500D01*
X175880921Y-113977500D01*
X175780000Y-113977500D01*
X175780000Y-114760250D01*
X175936750Y-114917000D01*
X175953000Y-114917000D01*
X175953000Y-116570000D01*
X176045494Y-117035000D01*
X176073042Y-117173492D01*
X176414893Y-117685107D01*
X176430409Y-117700623D01*
X176380921Y-117945000D01*
X176380921Y-119545000D01*
X176459506Y-119962641D01*
X176706331Y-120346219D01*
X177082944Y-120603548D01*
X177530000Y-120694079D01*
X178530000Y-120694079D01*
X178947641Y-120615494D01*
X179103241Y-120515369D01*
X179074440Y-120660160D01*
X179274408Y-121665469D01*
X179483000Y-121977649D01*
X179483000Y-124404159D01*
X179404908Y-124521032D01*
X179243000Y-125335000D01*
X179243000Y-130200000D01*
X179404908Y-131013968D01*
X179445000Y-131073970D01*
X179445000Y-131670250D01*
X179601750Y-131827000D01*
X179684224Y-131827000D01*
X179796331Y-132001219D01*
X179820000Y-132017391D01*
X179820000Y-132073002D01*
X179901389Y-132073002D01*
X180172944Y-132258548D01*
X180620000Y-132349079D01*
X182120000Y-132349079D01*
X182537641Y-132270494D01*
X182921219Y-132023669D01*
X183178548Y-131647056D01*
X183269079Y-131200000D01*
X183269079Y-131112763D01*
X183335092Y-131013968D01*
X183497000Y-130200000D01*
X183497000Y-126546770D01*
X183568548Y-126442056D01*
X183659079Y-125995000D01*
X183659079Y-125486736D01*
X183737000Y-125095000D01*
X183737000Y-123287160D01*
X186781440Y-123287160D01*
X187786749Y-123087192D01*
X188639010Y-122517730D01*
X189208472Y-121665469D01*
X189298000Y-121215380D01*
X189298000Y-145931612D01*
X189020922Y-147324577D01*
X188821224Y-147524275D01*
X188835679Y-147357449D01*
X188766067Y-147007491D01*
X188532987Y-146822562D01*
X187771389Y-147584160D01*
X188266364Y-148079135D01*
X187276415Y-149069084D01*
X186781440Y-148574109D01*
X186019842Y-149335707D01*
X186204771Y-149568787D01*
X186731105Y-149614394D01*
X186694576Y-149650923D01*
X185301612Y-149928000D01*
X78858388Y-149928000D01*
X77264964Y-149611048D01*
X76852888Y-149335707D01*
X101691842Y-149335707D01*
X101876771Y-149568787D01*
X102680151Y-149638399D01*
X103030109Y-149568787D01*
X103215038Y-149335707D01*
X106771842Y-149335707D01*
X106956771Y-149568787D01*
X107760151Y-149638399D01*
X108110109Y-149568787D01*
X108295038Y-149335707D01*
X180939842Y-149335707D01*
X181124771Y-149568787D01*
X181928151Y-149638399D01*
X182278109Y-149568787D01*
X182463038Y-149335707D01*
X181701440Y-148574109D01*
X180939842Y-149335707D01*
X108295038Y-149335707D01*
X107533440Y-148574109D01*
X106771842Y-149335707D01*
X103215038Y-149335707D01*
X102453440Y-148574109D01*
X101691842Y-149335707D01*
X76852888Y-149335707D01*
X76014492Y-148775509D01*
X75369941Y-147810871D01*
X100399201Y-147810871D01*
X100468813Y-148160829D01*
X100701893Y-148345758D01*
X101463491Y-147584160D01*
X103443389Y-147584160D01*
X104204987Y-148345758D01*
X104438067Y-148160829D01*
X104468390Y-147810871D01*
X105479201Y-147810871D01*
X105548813Y-148160829D01*
X105781893Y-148345758D01*
X106543491Y-147584160D01*
X108523389Y-147584160D01*
X109284987Y-148345758D01*
X109518067Y-148160829D01*
X109548390Y-147810871D01*
X179647201Y-147810871D01*
X179716813Y-148160829D01*
X179949893Y-148345758D01*
X180711491Y-147584160D01*
X182691389Y-147584160D01*
X183452987Y-148345758D01*
X183686067Y-148160829D01*
X183716390Y-147810871D01*
X184727201Y-147810871D01*
X184796813Y-148160829D01*
X185029893Y-148345758D01*
X185791491Y-147584160D01*
X185029893Y-146822562D01*
X184796813Y-147007491D01*
X184727201Y-147810871D01*
X183716390Y-147810871D01*
X183755679Y-147357449D01*
X183686067Y-147007491D01*
X183452987Y-146822562D01*
X182691389Y-147584160D01*
X180711491Y-147584160D01*
X179949893Y-146822562D01*
X179716813Y-147007491D01*
X179647201Y-147810871D01*
X109548390Y-147810871D01*
X109587679Y-147357449D01*
X109518067Y-147007491D01*
X109284987Y-146822562D01*
X108523389Y-147584160D01*
X106543491Y-147584160D01*
X105781893Y-146822562D01*
X105548813Y-147007491D01*
X105479201Y-147810871D01*
X104468390Y-147810871D01*
X104507679Y-147357449D01*
X104438067Y-147007491D01*
X104204987Y-146822562D01*
X103443389Y-147584160D01*
X101463491Y-147584160D01*
X100701893Y-146822562D01*
X100468813Y-147007491D01*
X100399201Y-147810871D01*
X75369941Y-147810871D01*
X75178951Y-147525035D01*
X74862000Y-145931612D01*
X74862000Y-145832613D01*
X101691842Y-145832613D01*
X102453440Y-146594211D01*
X103215038Y-145832613D01*
X106771842Y-145832613D01*
X107533440Y-146594211D01*
X108295038Y-145832613D01*
X180939842Y-145832613D01*
X181701440Y-146594211D01*
X182463038Y-145832613D01*
X186019842Y-145832613D01*
X186781440Y-146594211D01*
X187543038Y-145832613D01*
X187358109Y-145599533D01*
X186554729Y-145529921D01*
X186204771Y-145599533D01*
X186019842Y-145832613D01*
X182463038Y-145832613D01*
X182278109Y-145599533D01*
X181474729Y-145529921D01*
X181124771Y-145599533D01*
X180939842Y-145832613D01*
X108295038Y-145832613D01*
X108110109Y-145599533D01*
X107306729Y-145529921D01*
X106956771Y-145599533D01*
X106771842Y-145832613D01*
X103215038Y-145832613D01*
X103030109Y-145599533D01*
X102226729Y-145529921D01*
X101876771Y-145599533D01*
X101691842Y-145832613D01*
X74862000Y-145832613D01*
X74862000Y-141199667D01*
X116131026Y-141199667D01*
X116422881Y-141582408D01*
X116897872Y-141905531D01*
X117117000Y-141821999D01*
X117117000Y-140981800D01*
X118133000Y-140981800D01*
X118133000Y-141821999D01*
X118352128Y-141905531D01*
X118827119Y-141582408D01*
X119118974Y-141199667D01*
X119109846Y-141174667D01*
X168706026Y-141174667D01*
X168997881Y-141557408D01*
X169472872Y-141880531D01*
X169692000Y-141796999D01*
X169692000Y-140956800D01*
X170708000Y-140956800D01*
X170708000Y-141796999D01*
X170927128Y-141880531D01*
X171402119Y-141557408D01*
X171693974Y-141174667D01*
X171614424Y-140956800D01*
X170708000Y-140956800D01*
X169692000Y-140956800D01*
X168785576Y-140956800D01*
X168706026Y-141174667D01*
X119109846Y-141174667D01*
X119039424Y-140981800D01*
X118133000Y-140981800D01*
X117117000Y-140981800D01*
X116210576Y-140981800D01*
X116131026Y-141199667D01*
X74862000Y-141199667D01*
X74862000Y-112887166D01*
X75655186Y-113216526D01*
X76740054Y-113217472D01*
X77742703Y-112803186D01*
X78510490Y-112036738D01*
X78926526Y-111034814D01*
X78927472Y-109949946D01*
X78513186Y-108947297D01*
X77746738Y-108179510D01*
X76803002Y-107787636D01*
X76803002Y-107530000D01*
X76435071Y-107530000D01*
X76610633Y-107321049D01*
X76529974Y-107105000D01*
X75530000Y-107105000D01*
X75530000Y-107530000D01*
X74862000Y-107530000D01*
X74862000Y-106139079D01*
X75530000Y-106139079D01*
X75530000Y-106255000D01*
X76529974Y-106255000D01*
X76610633Y-106038951D01*
X76600276Y-106026624D01*
X76931219Y-105813669D01*
X77120259Y-105537000D01*
X88701785Y-105537000D01*
X90043000Y-106878215D01*
X90043000Y-133350000D01*
X90053006Y-133399410D01*
X90081447Y-133441035D01*
X90123841Y-133468315D01*
X90170000Y-133477000D01*
X115548821Y-133477000D01*
X115591541Y-133691770D01*
X115931130Y-134200000D01*
X115591541Y-134708230D01*
X115440016Y-135470000D01*
X115591541Y-136231770D01*
X115931130Y-136740000D01*
X115591541Y-137248230D01*
X115440016Y-138010000D01*
X115591541Y-138771770D01*
X115783729Y-139059400D01*
X115751998Y-139059400D01*
X115751998Y-139686400D01*
X116294158Y-139686400D01*
X116131026Y-139900333D01*
X116210576Y-140118200D01*
X117117000Y-140118200D01*
X117117000Y-139938218D01*
X117430616Y-140000600D01*
X117819384Y-140000600D01*
X118133000Y-139938218D01*
X118133000Y-140118200D01*
X119039424Y-140118200D01*
X119118974Y-139900333D01*
X118955842Y-139686400D01*
X119498002Y-139686400D01*
X119498002Y-139287000D01*
X161710000Y-139287000D01*
X162198687Y-139189794D01*
X162612975Y-138912975D01*
X166002975Y-135522975D01*
X166084266Y-135401314D01*
X166279794Y-135108687D01*
X166377000Y-134620000D01*
X166377000Y-130365000D01*
X168015016Y-130365000D01*
X168166541Y-131126770D01*
X168506130Y-131635000D01*
X168166541Y-132143230D01*
X168015016Y-132905000D01*
X168166541Y-133666770D01*
X168506130Y-134175000D01*
X168166541Y-134683230D01*
X168015016Y-135445000D01*
X168166541Y-136206770D01*
X168506130Y-136715000D01*
X168166541Y-137223230D01*
X168015016Y-137985000D01*
X168166541Y-138746770D01*
X168358729Y-139034400D01*
X168326998Y-139034400D01*
X168326998Y-139661400D01*
X168869158Y-139661400D01*
X168706026Y-139875333D01*
X168785576Y-140093200D01*
X169692000Y-140093200D01*
X169692000Y-139913218D01*
X170005616Y-139975600D01*
X170394384Y-139975600D01*
X170708000Y-139913218D01*
X170708000Y-140093200D01*
X171614424Y-140093200D01*
X171693974Y-139875333D01*
X171530842Y-139661400D01*
X172073002Y-139661400D01*
X172073002Y-139034400D01*
X172041271Y-139034400D01*
X172233459Y-138746770D01*
X172384984Y-137985000D01*
X172233459Y-137223230D01*
X172189039Y-137156750D01*
X176543000Y-137156750D01*
X176543000Y-137624718D01*
X176638455Y-137855167D01*
X176814833Y-138031545D01*
X177045282Y-138127000D01*
X177963250Y-138127000D01*
X178120000Y-137970250D01*
X178120000Y-137000000D01*
X180020000Y-137000000D01*
X180020000Y-137970250D01*
X180176750Y-138127000D01*
X181094718Y-138127000D01*
X181325167Y-138031545D01*
X181501545Y-137855167D01*
X181597000Y-137624718D01*
X181597000Y-137156750D01*
X181440250Y-137000000D01*
X180020000Y-137000000D01*
X178120000Y-137000000D01*
X176699750Y-137000000D01*
X176543000Y-137156750D01*
X172189039Y-137156750D01*
X171893870Y-136715000D01*
X172233459Y-136206770D01*
X172384984Y-135445000D01*
X172371117Y-135375282D01*
X176543000Y-135375282D01*
X176543000Y-135843250D01*
X176699750Y-136000000D01*
X178120000Y-136000000D01*
X178120000Y-135029750D01*
X180020000Y-135029750D01*
X180020000Y-136000000D01*
X181440250Y-136000000D01*
X181597000Y-135843250D01*
X181597000Y-135375282D01*
X181501545Y-135144833D01*
X181325167Y-134968455D01*
X181094718Y-134873000D01*
X180176750Y-134873000D01*
X180020000Y-135029750D01*
X178120000Y-135029750D01*
X177963250Y-134873000D01*
X177045282Y-134873000D01*
X176814833Y-134968455D01*
X176638455Y-135144833D01*
X176543000Y-135375282D01*
X172371117Y-135375282D01*
X172233459Y-134683230D01*
X171893870Y-134175000D01*
X172233459Y-133666770D01*
X172384984Y-132905000D01*
X172233459Y-132143230D01*
X171893870Y-131635000D01*
X172233459Y-131126770D01*
X172384984Y-130365000D01*
X172233459Y-129603230D01*
X172095818Y-129397236D01*
X172274548Y-129135656D01*
X172365079Y-128688600D01*
X172365079Y-126961400D01*
X172286494Y-126543759D01*
X172039669Y-126160181D01*
X171663056Y-125902852D01*
X171216000Y-125812321D01*
X169184000Y-125812321D01*
X168766359Y-125890906D01*
X168382781Y-126137731D01*
X168125452Y-126514344D01*
X168034921Y-126961400D01*
X168034921Y-128688600D01*
X168113506Y-129106241D01*
X168302436Y-129399848D01*
X168166541Y-129603230D01*
X168015016Y-130365000D01*
X166377000Y-130365000D01*
X166377000Y-125095000D01*
X174463289Y-125095000D01*
X174617585Y-125870699D01*
X175056984Y-126528305D01*
X175193000Y-126619188D01*
X175193000Y-128414063D01*
X174961452Y-128752944D01*
X174870921Y-129200000D01*
X174870921Y-131200000D01*
X174949506Y-131617641D01*
X175196331Y-132001219D01*
X175572944Y-132258548D01*
X176020000Y-132349079D01*
X177520000Y-132349079D01*
X177937641Y-132270494D01*
X178244553Y-132073002D01*
X178320000Y-132073002D01*
X178320000Y-132024453D01*
X178321219Y-132023669D01*
X178455597Y-131827000D01*
X178538250Y-131827000D01*
X178695000Y-131670250D01*
X178695000Y-130700000D01*
X178669079Y-130700000D01*
X178669079Y-129700000D01*
X178695000Y-129700000D01*
X178695000Y-128729750D01*
X178538250Y-128573000D01*
X178455776Y-128573000D01*
X178347000Y-128403958D01*
X178347000Y-126427444D01*
X178397268Y-126465861D01*
X178620000Y-126397472D01*
X178620000Y-125545000D01*
X178507201Y-125545000D01*
X178596711Y-125095000D01*
X178507201Y-124645000D01*
X178620000Y-124645000D01*
X178620000Y-123792528D01*
X178397268Y-123724139D01*
X178170000Y-123897828D01*
X178170000Y-123221998D01*
X177543000Y-123221998D01*
X177543000Y-123354322D01*
X177345410Y-123222296D01*
X176569711Y-123068000D01*
X176490289Y-123068000D01*
X175714590Y-123222296D01*
X175056984Y-123661695D01*
X174617585Y-124319301D01*
X174463289Y-125095000D01*
X166377000Y-125095000D01*
X166377000Y-119301750D01*
X173903000Y-119301750D01*
X173903000Y-119669718D01*
X173998455Y-119900167D01*
X174174833Y-120076545D01*
X174405282Y-120172000D01*
X174623250Y-120172000D01*
X174780000Y-120015250D01*
X174780000Y-119145000D01*
X175280000Y-119145000D01*
X175280000Y-120015250D01*
X175436750Y-120172000D01*
X175654718Y-120172000D01*
X175885167Y-120076545D01*
X176061545Y-119900167D01*
X176157000Y-119669718D01*
X176157000Y-119301750D01*
X176000250Y-119145000D01*
X175280000Y-119145000D01*
X174780000Y-119145000D01*
X174059750Y-119145000D01*
X173903000Y-119301750D01*
X166377000Y-119301750D01*
X166377000Y-117820282D01*
X173903000Y-117820282D01*
X173903000Y-118188250D01*
X174059750Y-118345000D01*
X174780000Y-118345000D01*
X174780000Y-117474750D01*
X175280000Y-117474750D01*
X175280000Y-118345000D01*
X176000250Y-118345000D01*
X176157000Y-118188250D01*
X176157000Y-117820282D01*
X176061545Y-117589833D01*
X175885167Y-117413455D01*
X175654718Y-117318000D01*
X175436750Y-117318000D01*
X175280000Y-117474750D01*
X174780000Y-117474750D01*
X174623250Y-117318000D01*
X174405282Y-117318000D01*
X174174833Y-117413455D01*
X173998455Y-117589833D01*
X173903000Y-117820282D01*
X166377000Y-117820282D01*
X166377000Y-114134250D01*
X174403000Y-114134250D01*
X174403000Y-114414718D01*
X174498455Y-114645167D01*
X174674833Y-114821545D01*
X174905282Y-114917000D01*
X175123250Y-114917000D01*
X175280000Y-114760250D01*
X175280000Y-113977500D01*
X174559750Y-113977500D01*
X174403000Y-114134250D01*
X166377000Y-114134250D01*
X166377000Y-112915282D01*
X174403000Y-112915282D01*
X174403000Y-113195750D01*
X174559750Y-113352500D01*
X175280000Y-113352500D01*
X175280000Y-112569750D01*
X175123250Y-112413000D01*
X174905282Y-112413000D01*
X174674833Y-112508455D01*
X174498455Y-112684833D01*
X174403000Y-112915282D01*
X166377000Y-112915282D01*
X166377000Y-102128950D01*
X166681283Y-101824667D01*
X168706026Y-101824667D01*
X168997881Y-102207408D01*
X169472872Y-102530531D01*
X169692000Y-102446999D01*
X169692000Y-101606800D01*
X170708000Y-101606800D01*
X170708000Y-102446999D01*
X170927128Y-102530531D01*
X171402119Y-102207408D01*
X171693974Y-101824667D01*
X171614424Y-101606800D01*
X170708000Y-101606800D01*
X169692000Y-101606800D01*
X168785576Y-101606800D01*
X168706026Y-101824667D01*
X166681283Y-101824667D01*
X168048951Y-100457000D01*
X168758133Y-100457000D01*
X168706026Y-100525333D01*
X168706026Y-100525333D01*
G37*
X168706026Y-100525333D02*
X168785576Y-100743200D01*
X169692000Y-100743200D01*
X169692000Y-100563218D01*
X170005616Y-100625600D01*
X170394384Y-100625600D01*
X170708000Y-100563218D01*
X170708000Y-100743200D01*
X171614424Y-100743200D01*
X171693974Y-100525333D01*
X171641867Y-100457000D01*
X173137818Y-100457000D01*
X173350585Y-101526651D01*
X174028433Y-102541123D01*
X175042905Y-103218971D01*
X176239556Y-103457000D01*
X180440444Y-103457000D01*
X181637095Y-103218971D01*
X182651567Y-102541123D01*
X182690921Y-102482226D01*
X182690921Y-102830000D01*
X182769506Y-103247641D01*
X183016331Y-103631219D01*
X183392944Y-103888548D01*
X183713000Y-103953361D01*
X183713000Y-106349160D01*
X181701440Y-106349160D01*
X180696131Y-106549128D01*
X179843870Y-107118590D01*
X179274408Y-107970851D01*
X179074440Y-108976160D01*
X179274408Y-109981469D01*
X179574440Y-110430499D01*
X179574440Y-112088000D01*
X178632994Y-112088000D01*
X178477056Y-111981452D01*
X178030000Y-111890921D01*
X177030000Y-111890921D01*
X176657000Y-111961106D01*
X176657000Y-111791998D01*
X176030000Y-111791998D01*
X176030000Y-112413000D01*
X175936750Y-112413000D01*
X175780000Y-112569750D01*
X175780000Y-113352500D01*
X175880921Y-113352500D01*
X175880921Y-113977500D01*
X175780000Y-113977500D01*
X175780000Y-114760250D01*
X175936750Y-114917000D01*
X175953000Y-114917000D01*
X175953000Y-116570000D01*
X176045494Y-117035000D01*
X176073042Y-117173492D01*
X176414893Y-117685107D01*
X176430409Y-117700623D01*
X176380921Y-117945000D01*
X176380921Y-119545000D01*
X176459506Y-119962641D01*
X176706331Y-120346219D01*
X177082944Y-120603548D01*
X177530000Y-120694079D01*
X178530000Y-120694079D01*
X178947641Y-120615494D01*
X179103241Y-120515369D01*
X179074440Y-120660160D01*
X179274408Y-121665469D01*
X179483000Y-121977649D01*
X179483000Y-124404159D01*
X179404908Y-124521032D01*
X179243000Y-125335000D01*
X179243000Y-130200000D01*
X179404908Y-131013968D01*
X179445000Y-131073970D01*
X179445000Y-131670250D01*
X179601750Y-131827000D01*
X179684224Y-131827000D01*
X179796331Y-132001219D01*
X179820000Y-132017391D01*
X179820000Y-132073002D01*
X179901389Y-132073002D01*
X180172944Y-132258548D01*
X180620000Y-132349079D01*
X182120000Y-132349079D01*
X182537641Y-132270494D01*
X182921219Y-132023669D01*
X183178548Y-131647056D01*
X183269079Y-131200000D01*
X183269079Y-131112763D01*
X183335092Y-131013968D01*
X183497000Y-130200000D01*
X183497000Y-126546770D01*
X183568548Y-126442056D01*
X183659079Y-125995000D01*
X183659079Y-125486736D01*
X183737000Y-125095000D01*
X183737000Y-123287160D01*
X186781440Y-123287160D01*
X187786749Y-123087192D01*
X188639010Y-122517730D01*
X189208472Y-121665469D01*
X189298000Y-121215380D01*
X189298000Y-145931612D01*
X189020922Y-147324577D01*
X188821224Y-147524275D01*
X188835679Y-147357449D01*
X188766067Y-147007491D01*
X188532987Y-146822562D01*
X187771389Y-147584160D01*
X188266364Y-148079135D01*
X187276415Y-149069084D01*
X186781440Y-148574109D01*
X186019842Y-149335707D01*
X186204771Y-149568787D01*
X186731105Y-149614394D01*
X186694576Y-149650923D01*
X185301612Y-149928000D01*
X78858388Y-149928000D01*
X77264964Y-149611048D01*
X76852888Y-149335707D01*
X101691842Y-149335707D01*
X101876771Y-149568787D01*
X102680151Y-149638399D01*
X103030109Y-149568787D01*
X103215038Y-149335707D01*
X106771842Y-149335707D01*
X106956771Y-149568787D01*
X107760151Y-149638399D01*
X108110109Y-149568787D01*
X108295038Y-149335707D01*
X180939842Y-149335707D01*
X181124771Y-149568787D01*
X181928151Y-149638399D01*
X182278109Y-149568787D01*
X182463038Y-149335707D01*
X181701440Y-148574109D01*
X180939842Y-149335707D01*
X108295038Y-149335707D01*
X107533440Y-148574109D01*
X106771842Y-149335707D01*
X103215038Y-149335707D01*
X102453440Y-148574109D01*
X101691842Y-149335707D01*
X76852888Y-149335707D01*
X76014492Y-148775509D01*
X75369941Y-147810871D01*
X100399201Y-147810871D01*
X100468813Y-148160829D01*
X100701893Y-148345758D01*
X101463491Y-147584160D01*
X103443389Y-147584160D01*
X104204987Y-148345758D01*
X104438067Y-148160829D01*
X104468390Y-147810871D01*
X105479201Y-147810871D01*
X105548813Y-148160829D01*
X105781893Y-148345758D01*
X106543491Y-147584160D01*
X108523389Y-147584160D01*
X109284987Y-148345758D01*
X109518067Y-148160829D01*
X109548390Y-147810871D01*
X179647201Y-147810871D01*
X179716813Y-148160829D01*
X179949893Y-148345758D01*
X180711491Y-147584160D01*
X182691389Y-147584160D01*
X183452987Y-148345758D01*
X183686067Y-148160829D01*
X183716390Y-147810871D01*
X184727201Y-147810871D01*
X184796813Y-148160829D01*
X185029893Y-148345758D01*
X185791491Y-147584160D01*
X185029893Y-146822562D01*
X184796813Y-147007491D01*
X184727201Y-147810871D01*
X183716390Y-147810871D01*
X183755679Y-147357449D01*
X183686067Y-147007491D01*
X183452987Y-146822562D01*
X182691389Y-147584160D01*
X180711491Y-147584160D01*
X179949893Y-146822562D01*
X179716813Y-147007491D01*
X179647201Y-147810871D01*
X109548390Y-147810871D01*
X109587679Y-147357449D01*
X109518067Y-147007491D01*
X109284987Y-146822562D01*
X108523389Y-147584160D01*
X106543491Y-147584160D01*
X105781893Y-146822562D01*
X105548813Y-147007491D01*
X105479201Y-147810871D01*
X104468390Y-147810871D01*
X104507679Y-147357449D01*
X104438067Y-147007491D01*
X104204987Y-146822562D01*
X103443389Y-147584160D01*
X101463491Y-147584160D01*
X100701893Y-146822562D01*
X100468813Y-147007491D01*
X100399201Y-147810871D01*
X75369941Y-147810871D01*
X75178951Y-147525035D01*
X74862000Y-145931612D01*
X74862000Y-145832613D01*
X101691842Y-145832613D01*
X102453440Y-146594211D01*
X103215038Y-145832613D01*
X106771842Y-145832613D01*
X107533440Y-146594211D01*
X108295038Y-145832613D01*
X180939842Y-145832613D01*
X181701440Y-146594211D01*
X182463038Y-145832613D01*
X186019842Y-145832613D01*
X186781440Y-146594211D01*
X187543038Y-145832613D01*
X187358109Y-145599533D01*
X186554729Y-145529921D01*
X186204771Y-145599533D01*
X186019842Y-145832613D01*
X182463038Y-145832613D01*
X182278109Y-145599533D01*
X181474729Y-145529921D01*
X181124771Y-145599533D01*
X180939842Y-145832613D01*
X108295038Y-145832613D01*
X108110109Y-145599533D01*
X107306729Y-145529921D01*
X106956771Y-145599533D01*
X106771842Y-145832613D01*
X103215038Y-145832613D01*
X103030109Y-145599533D01*
X102226729Y-145529921D01*
X101876771Y-145599533D01*
X101691842Y-145832613D01*
X74862000Y-145832613D01*
X74862000Y-141199667D01*
X116131026Y-141199667D01*
X116422881Y-141582408D01*
X116897872Y-141905531D01*
X117117000Y-141821999D01*
X117117000Y-140981800D01*
X118133000Y-140981800D01*
X118133000Y-141821999D01*
X118352128Y-141905531D01*
X118827119Y-141582408D01*
X119118974Y-141199667D01*
X119109846Y-141174667D01*
X168706026Y-141174667D01*
X168997881Y-141557408D01*
X169472872Y-141880531D01*
X169692000Y-141796999D01*
X169692000Y-140956800D01*
X170708000Y-140956800D01*
X170708000Y-141796999D01*
X170927128Y-141880531D01*
X171402119Y-141557408D01*
X171693974Y-141174667D01*
X171614424Y-140956800D01*
X170708000Y-140956800D01*
X169692000Y-140956800D01*
X168785576Y-140956800D01*
X168706026Y-141174667D01*
X119109846Y-141174667D01*
X119039424Y-140981800D01*
X118133000Y-140981800D01*
X117117000Y-140981800D01*
X116210576Y-140981800D01*
X116131026Y-141199667D01*
X74862000Y-141199667D01*
X74862000Y-112887166D01*
X75655186Y-113216526D01*
X76740054Y-113217472D01*
X77742703Y-112803186D01*
X78510490Y-112036738D01*
X78926526Y-111034814D01*
X78927472Y-109949946D01*
X78513186Y-108947297D01*
X77746738Y-108179510D01*
X76803002Y-107787636D01*
X76803002Y-107530000D01*
X76435071Y-107530000D01*
X76610633Y-107321049D01*
X76529974Y-107105000D01*
X75530000Y-107105000D01*
X75530000Y-107530000D01*
X74862000Y-107530000D01*
X74862000Y-106139079D01*
X75530000Y-106139079D01*
X75530000Y-106255000D01*
X76529974Y-106255000D01*
X76610633Y-106038951D01*
X76600276Y-106026624D01*
X76931219Y-105813669D01*
X77120259Y-105537000D01*
X88701785Y-105537000D01*
X90043000Y-106878215D01*
X90043000Y-133350000D01*
X90053006Y-133399410D01*
X90081447Y-133441035D01*
X90123841Y-133468315D01*
X90170000Y-133477000D01*
X115548821Y-133477000D01*
X115591541Y-133691770D01*
X115931130Y-134200000D01*
X115591541Y-134708230D01*
X115440016Y-135470000D01*
X115591541Y-136231770D01*
X115931130Y-136740000D01*
X115591541Y-137248230D01*
X115440016Y-138010000D01*
X115591541Y-138771770D01*
X115783729Y-139059400D01*
X115751998Y-139059400D01*
X115751998Y-139686400D01*
X116294158Y-139686400D01*
X116131026Y-139900333D01*
X116210576Y-140118200D01*
X117117000Y-140118200D01*
X117117000Y-139938218D01*
X117430616Y-140000600D01*
X117819384Y-140000600D01*
X118133000Y-139938218D01*
X118133000Y-140118200D01*
X119039424Y-140118200D01*
X119118974Y-139900333D01*
X118955842Y-139686400D01*
X119498002Y-139686400D01*
X119498002Y-139287000D01*
X161710000Y-139287000D01*
X162198687Y-139189794D01*
X162612975Y-138912975D01*
X166002975Y-135522975D01*
X166084266Y-135401314D01*
X166279794Y-135108687D01*
X166377000Y-134620000D01*
X166377000Y-130365000D01*
X168015016Y-130365000D01*
X168166541Y-131126770D01*
X168506130Y-131635000D01*
X168166541Y-132143230D01*
X168015016Y-132905000D01*
X168166541Y-133666770D01*
X168506130Y-134175000D01*
X168166541Y-134683230D01*
X168015016Y-135445000D01*
X168166541Y-136206770D01*
X168506130Y-136715000D01*
X168166541Y-137223230D01*
X168015016Y-137985000D01*
X168166541Y-138746770D01*
X168358729Y-139034400D01*
X168326998Y-139034400D01*
X168326998Y-139661400D01*
X168869158Y-139661400D01*
X168706026Y-139875333D01*
X168785576Y-140093200D01*
X169692000Y-140093200D01*
X169692000Y-139913218D01*
X170005616Y-139975600D01*
X170394384Y-139975600D01*
X170708000Y-139913218D01*
X170708000Y-140093200D01*
X171614424Y-140093200D01*
X171693974Y-139875333D01*
X171530842Y-139661400D01*
X172073002Y-139661400D01*
X172073002Y-139034400D01*
X172041271Y-139034400D01*
X172233459Y-138746770D01*
X172384984Y-137985000D01*
X172233459Y-137223230D01*
X172189039Y-137156750D01*
X176543000Y-137156750D01*
X176543000Y-137624718D01*
X176638455Y-137855167D01*
X176814833Y-138031545D01*
X177045282Y-138127000D01*
X177963250Y-138127000D01*
X178120000Y-137970250D01*
X178120000Y-137000000D01*
X180020000Y-137000000D01*
X180020000Y-137970250D01*
X180176750Y-138127000D01*
X181094718Y-138127000D01*
X181325167Y-138031545D01*
X181501545Y-137855167D01*
X181597000Y-137624718D01*
X181597000Y-137156750D01*
X181440250Y-137000000D01*
X180020000Y-137000000D01*
X178120000Y-137000000D01*
X176699750Y-137000000D01*
X176543000Y-137156750D01*
X172189039Y-137156750D01*
X171893870Y-136715000D01*
X172233459Y-136206770D01*
X172384984Y-135445000D01*
X172371117Y-135375282D01*
X176543000Y-135375282D01*
X176543000Y-135843250D01*
X176699750Y-136000000D01*
X178120000Y-136000000D01*
X178120000Y-135029750D01*
X180020000Y-135029750D01*
X180020000Y-136000000D01*
X181440250Y-136000000D01*
X181597000Y-135843250D01*
X181597000Y-135375282D01*
X181501545Y-135144833D01*
X181325167Y-134968455D01*
X181094718Y-134873000D01*
X180176750Y-134873000D01*
X180020000Y-135029750D01*
X178120000Y-135029750D01*
X177963250Y-134873000D01*
X177045282Y-134873000D01*
X176814833Y-134968455D01*
X176638455Y-135144833D01*
X176543000Y-135375282D01*
X172371117Y-135375282D01*
X172233459Y-134683230D01*
X171893870Y-134175000D01*
X172233459Y-133666770D01*
X172384984Y-132905000D01*
X172233459Y-132143230D01*
X171893870Y-131635000D01*
X172233459Y-131126770D01*
X172384984Y-130365000D01*
X172233459Y-129603230D01*
X172095818Y-129397236D01*
X172274548Y-129135656D01*
X172365079Y-128688600D01*
X172365079Y-126961400D01*
X172286494Y-126543759D01*
X172039669Y-126160181D01*
X171663056Y-125902852D01*
X171216000Y-125812321D01*
X169184000Y-125812321D01*
X168766359Y-125890906D01*
X168382781Y-126137731D01*
X168125452Y-126514344D01*
X168034921Y-126961400D01*
X168034921Y-128688600D01*
X168113506Y-129106241D01*
X168302436Y-129399848D01*
X168166541Y-129603230D01*
X168015016Y-130365000D01*
X166377000Y-130365000D01*
X166377000Y-125095000D01*
X174463289Y-125095000D01*
X174617585Y-125870699D01*
X175056984Y-126528305D01*
X175193000Y-126619188D01*
X175193000Y-128414063D01*
X174961452Y-128752944D01*
X174870921Y-129200000D01*
X174870921Y-131200000D01*
X174949506Y-131617641D01*
X175196331Y-132001219D01*
X175572944Y-132258548D01*
X176020000Y-132349079D01*
X177520000Y-132349079D01*
X177937641Y-132270494D01*
X178244553Y-132073002D01*
X178320000Y-132073002D01*
X178320000Y-132024453D01*
X178321219Y-132023669D01*
X178455597Y-131827000D01*
X178538250Y-131827000D01*
X178695000Y-131670250D01*
X178695000Y-130700000D01*
X178669079Y-130700000D01*
X178669079Y-129700000D01*
X178695000Y-129700000D01*
X178695000Y-128729750D01*
X178538250Y-128573000D01*
X178455776Y-128573000D01*
X178347000Y-128403958D01*
X178347000Y-126427444D01*
X178397268Y-126465861D01*
X178620000Y-126397472D01*
X178620000Y-125545000D01*
X178507201Y-125545000D01*
X178596711Y-125095000D01*
X178507201Y-124645000D01*
X178620000Y-124645000D01*
X178620000Y-123792528D01*
X178397268Y-123724139D01*
X178170000Y-123897828D01*
X178170000Y-123221998D01*
X177543000Y-123221998D01*
X177543000Y-123354322D01*
X177345410Y-123222296D01*
X176569711Y-123068000D01*
X176490289Y-123068000D01*
X175714590Y-123222296D01*
X175056984Y-123661695D01*
X174617585Y-124319301D01*
X174463289Y-125095000D01*
X166377000Y-125095000D01*
X166377000Y-119301750D01*
X173903000Y-119301750D01*
X173903000Y-119669718D01*
X173998455Y-119900167D01*
X174174833Y-120076545D01*
X174405282Y-120172000D01*
X174623250Y-120172000D01*
X174780000Y-120015250D01*
X174780000Y-119145000D01*
X175280000Y-119145000D01*
X175280000Y-120015250D01*
X175436750Y-120172000D01*
X175654718Y-120172000D01*
X175885167Y-120076545D01*
X176061545Y-119900167D01*
X176157000Y-119669718D01*
X176157000Y-119301750D01*
X176000250Y-119145000D01*
X175280000Y-119145000D01*
X174780000Y-119145000D01*
X174059750Y-119145000D01*
X173903000Y-119301750D01*
X166377000Y-119301750D01*
X166377000Y-117820282D01*
X173903000Y-117820282D01*
X173903000Y-118188250D01*
X174059750Y-118345000D01*
X174780000Y-118345000D01*
X174780000Y-117474750D01*
X175280000Y-117474750D01*
X175280000Y-118345000D01*
X176000250Y-118345000D01*
X176157000Y-118188250D01*
X176157000Y-117820282D01*
X176061545Y-117589833D01*
X175885167Y-117413455D01*
X175654718Y-117318000D01*
X175436750Y-117318000D01*
X175280000Y-117474750D01*
X174780000Y-117474750D01*
X174623250Y-117318000D01*
X174405282Y-117318000D01*
X174174833Y-117413455D01*
X173998455Y-117589833D01*
X173903000Y-117820282D01*
X166377000Y-117820282D01*
X166377000Y-114134250D01*
X174403000Y-114134250D01*
X174403000Y-114414718D01*
X174498455Y-114645167D01*
X174674833Y-114821545D01*
X174905282Y-114917000D01*
X175123250Y-114917000D01*
X175280000Y-114760250D01*
X175280000Y-113977500D01*
X174559750Y-113977500D01*
X174403000Y-114134250D01*
X166377000Y-114134250D01*
X166377000Y-112915282D01*
X174403000Y-112915282D01*
X174403000Y-113195750D01*
X174559750Y-113352500D01*
X175280000Y-113352500D01*
X175280000Y-112569750D01*
X175123250Y-112413000D01*
X174905282Y-112413000D01*
X174674833Y-112508455D01*
X174498455Y-112684833D01*
X174403000Y-112915282D01*
X166377000Y-112915282D01*
X166377000Y-102128950D01*
X166681283Y-101824667D01*
X168706026Y-101824667D01*
X168997881Y-102207408D01*
X169472872Y-102530531D01*
X169692000Y-102446999D01*
X169692000Y-101606800D01*
X170708000Y-101606800D01*
X170708000Y-102446999D01*
X170927128Y-102530531D01*
X171402119Y-102207408D01*
X171693974Y-101824667D01*
X171614424Y-101606800D01*
X170708000Y-101606800D01*
X169692000Y-101606800D01*
X168785576Y-101606800D01*
X168706026Y-101824667D01*
X166681283Y-101824667D01*
X168048951Y-100457000D01*
X168758133Y-100457000D01*
X168706026Y-100525333D01*
M02*
