G04 #@! TF.FileFunction,Profile,NP*
%FSLAX46Y46*%
G04 Gerber Fmt 4.6, Leading zero omitted, Abs format (unit mm)*
G04 Created by KiCad (PCBNEW 4.0.4-stable) date 12/10/17 00:47:25*
%MOMM*%
%LPD*%
G01*
G04 APERTURE LIST*
%ADD10C,0.250000*%
%ADD11C,0.150000*%
G04 APERTURE END LIST*
D10*
D11*
X142875000Y-83185000D02*
X142875000Y-76200000D01*
X147955000Y-84455000D02*
X144145000Y-84455000D01*
X149225000Y-111125000D02*
X149225000Y-85725000D01*
X143510000Y-112395000D02*
X147955000Y-112395000D01*
X142240000Y-121920000D02*
X142240000Y-113665000D01*
X132715000Y-123190000D02*
X140970000Y-123190000D01*
X131445000Y-113665000D02*
X131445000Y-121920000D01*
X126365000Y-112395000D02*
X130175000Y-112395000D01*
X125095000Y-85725000D02*
X125095000Y-111125000D01*
X131445000Y-84455000D02*
X126365000Y-84455000D01*
X132715000Y-76200000D02*
X132715000Y-83185000D01*
X141605000Y-74930000D02*
X133985000Y-74930000D01*
X142875000Y-76200000D02*
G75*
G03X141605000Y-74930000I-1270000J0D01*
G01*
X142875000Y-83185000D02*
G75*
G03X144145000Y-84455000I1270000J0D01*
G01*
X149225000Y-85725000D02*
G75*
G03X147955000Y-84455000I-1270000J0D01*
G01*
X147955000Y-112395000D02*
G75*
G03X149225000Y-111125000I0J1270000D01*
G01*
X143510000Y-112395000D02*
G75*
G03X142240000Y-113665000I0J-1270000D01*
G01*
X140970000Y-123190000D02*
G75*
G03X142240000Y-121920000I0J1270000D01*
G01*
X131445000Y-121920000D02*
G75*
G03X132715000Y-123190000I1270000J0D01*
G01*
X131445000Y-113665000D02*
G75*
G03X130175000Y-112395000I-1270000J0D01*
G01*
X125095000Y-111125000D02*
G75*
G03X126365000Y-112395000I1270000J0D01*
G01*
X126365000Y-84455000D02*
G75*
G03X125095000Y-85725000I0J-1270000D01*
G01*
X131445000Y-84455000D02*
G75*
G03X132715000Y-83185000I0J1270000D01*
G01*
X133985000Y-74930000D02*
G75*
G03X132715000Y-76200000I0J-1270000D01*
G01*
X78740000Y-151130000D02*
X185420000Y-151130000D01*
X185420000Y-64770000D02*
X78740000Y-64770000D01*
X73660000Y-69850000D02*
X73660000Y-146050000D01*
X190500000Y-146050000D02*
X190500000Y-69850000D01*
X73660000Y-146050000D02*
G75*
G03X78740000Y-151130000I5080000J0D01*
G01*
X185420000Y-151130000D02*
G75*
G03X190500000Y-146050000I0J5080000D01*
G01*
X78740000Y-64770000D02*
G75*
G03X73660000Y-69850000I0J-5080000D01*
G01*
X190500000Y-69850000D02*
G75*
G03X185420000Y-64770000I-5080000J0D01*
G01*
M02*
