M48
;DRILL file {KiCad 4.0.4-stable} date 12/10/17 00:47:28
;FORMAT={-:-/ absolute / inch / decimal}
FMAT,2
INCH,TZ
T1C0.016
T2C0.033
T3C0.039
T4C0.040
T5C0.043
T6C0.055
T7C0.118
T8C0.126
%
G90
G05
M72
T1
X3.4Y-3.975
X3.93Y-3.555
X3.935Y-2.895
X3.98Y-4.055
X4.05Y-3.63
X4.05Y-3.885
X4.21Y-3.41
X4.35Y-2.89
X4.35Y-3.44
X4.35Y-3.69
X4.35Y-3.94
T2
X2.95Y-2.8
X2.95Y-2.9
X2.95Y-3.
X2.95Y-3.1
X2.95Y-3.2
X2.95Y-3.3
X2.95Y-3.4
X2.95Y-3.5
X2.95Y-3.6
X2.95Y-3.7
X2.95Y-3.8
X2.95Y-3.9
X2.95Y-4.
X2.95Y-4.1
X2.95Y-4.2
X3.85Y-2.8
X3.85Y-2.9
X3.85Y-3.
X3.85Y-3.1
X3.85Y-3.2
X3.85Y-3.3
X3.85Y-3.4
X3.85Y-3.5
X3.85Y-3.6
X3.85Y-3.7
X3.85Y-3.8
X3.85Y-3.9
X3.85Y-4.
X3.85Y-4.1
X3.85Y-4.2
X5.0063Y-3.0142
X5.0063Y-4.7858
X5.7937Y-3.0142
X5.7937Y-4.7858
T3
X6.95Y-4.925
X7.05Y-4.925
X7.15Y-4.925
T4
X4.6309Y-3.4833
X4.6309Y-3.5833
X4.6309Y-3.6833
X4.6309Y-3.7833
X4.6309Y-3.8833
X4.6309Y-3.9833
X4.6309Y-5.0335
X4.6309Y-5.1335
X4.6309Y-5.2335
X4.6309Y-5.3335
X4.6309Y-5.4335
X4.6309Y-5.5335
X6.7008Y-3.4833
X6.7008Y-3.5833
X6.7008Y-3.6833
X6.7008Y-3.7833
X6.7008Y-3.8833
X6.7008Y-3.9833
X6.7008Y-5.0325
X6.7008Y-5.1325
X6.7008Y-5.2325
X6.7008Y-5.3325
X6.7008Y-5.4325
X6.7008Y-5.5325
T5
X4.675Y-4.275
X4.675Y-4.775
T6
X4.0336Y-3.2204
X4.0336Y-4.2904
X4.0336Y-4.7504
X4.0336Y-5.8104
X4.0337Y-2.6904
X4.2336Y-3.2204
X4.2336Y-4.2904
X4.2336Y-4.7504
X4.2336Y-5.8104
X4.2337Y-2.6904
X7.1536Y-2.6904
X7.1536Y-3.2204
X7.1536Y-4.2904
X7.1536Y-4.7504
X7.1536Y-5.8104
X7.3536Y-2.6904
X7.3536Y-3.2204
X7.3536Y-4.2904
X7.3536Y-4.7504
X7.3536Y-5.8104
T7
X7.1Y-3.575
X7.1Y-3.95
X7.2181Y-3.765
X7.3362Y-3.575
X7.3362Y-3.95
T8
X3.Y-4.35
X3.8Y-2.65
X3.8Y-4.35
X5.0724Y-4.5531
X5.7276Y-3.2469
T0
M30
