G04 #@! TF.FileFunction,Other,User*
%FSLAX46Y46*%
G04 Gerber Fmt 4.6, Leading zero omitted, Abs format (unit mm)*
G04 Created by KiCad (PCBNEW 4.0.4-stable) date 12/10/17 00:47:25*
%MOMM*%
%LPD*%
G01*
G04 APERTURE LIST*
%ADD10C,0.250000*%
%ADD11C,0.050000*%
G04 APERTURE END LIST*
D10*
D11*
X174280000Y-117695000D02*
X178780000Y-117695000D01*
X174280000Y-117695000D02*
X174280000Y-119795000D01*
X178780000Y-119795000D02*
X178780000Y-117695000D01*
X178780000Y-119795000D02*
X174280000Y-119795000D01*
X174780000Y-112785000D02*
X178280000Y-112785000D01*
X174780000Y-112785000D02*
X174780000Y-114535000D01*
X178280000Y-114535000D02*
X178280000Y-112785000D01*
X178280000Y-114535000D02*
X174780000Y-114535000D01*
X117045000Y-122635000D02*
X120445000Y-122635000D01*
X120445000Y-122635000D02*
X120445000Y-107235000D01*
X120445000Y-107235000D02*
X117045000Y-107235000D01*
X117045000Y-107235000D02*
X117045000Y-122635000D01*
X179340000Y-104830000D02*
X179340000Y-105080000D01*
X179340000Y-105080000D02*
X194340000Y-105080000D01*
X179340000Y-104830000D02*
X179340000Y-102330000D01*
X179340000Y-102330000D02*
X178340000Y-102330000D01*
X178340000Y-102330000D02*
X178340000Y-98330000D01*
X178340000Y-98330000D02*
X179340000Y-98330000D01*
X179340000Y-98330000D02*
X179340000Y-95580000D01*
X179340000Y-95580000D02*
X181340000Y-95580000D01*
X181340000Y-95580000D02*
X181340000Y-93580000D01*
X181340000Y-93580000D02*
X185340000Y-93580000D01*
X185340000Y-93580000D02*
X185340000Y-95580000D01*
X185340000Y-95580000D02*
X194340000Y-95580000D01*
X194340000Y-95580000D02*
X194340000Y-105080000D01*
X106250000Y-99850000D02*
X109650000Y-99850000D01*
X109650000Y-99850000D02*
X109650000Y-103350000D01*
X109650000Y-103350000D02*
X106250000Y-103350000D01*
X106250000Y-103350000D02*
X106250000Y-99850000D01*
X106250000Y-93500000D02*
X109650000Y-93500000D01*
X109650000Y-93500000D02*
X109650000Y-97000000D01*
X109650000Y-97000000D02*
X106250000Y-97000000D01*
X106250000Y-97000000D02*
X106250000Y-93500000D01*
X106250000Y-87150000D02*
X109650000Y-87150000D01*
X109650000Y-87150000D02*
X109650000Y-90650000D01*
X109650000Y-90650000D02*
X106250000Y-90650000D01*
X106250000Y-90650000D02*
X106250000Y-87150000D01*
X106250000Y-73180000D02*
X109650000Y-73180000D01*
X109650000Y-73180000D02*
X109650000Y-76680000D01*
X109650000Y-76680000D02*
X106250000Y-76680000D01*
X106250000Y-76680000D02*
X106250000Y-73180000D01*
X103980000Y-99450000D02*
X103980000Y-103750000D01*
X103980000Y-99450000D02*
X101770000Y-99450000D01*
X101770000Y-103750000D02*
X103980000Y-103750000D01*
X101770000Y-103750000D02*
X101770000Y-99450000D01*
X103980000Y-93100000D02*
X103980000Y-97400000D01*
X103980000Y-93100000D02*
X101770000Y-93100000D01*
X101770000Y-97400000D02*
X103980000Y-97400000D01*
X101770000Y-97400000D02*
X101770000Y-93100000D01*
X103980000Y-86750000D02*
X103980000Y-91050000D01*
X103980000Y-86750000D02*
X101770000Y-86750000D01*
X101770000Y-91050000D02*
X103980000Y-91050000D01*
X101770000Y-91050000D02*
X101770000Y-86750000D01*
X103980000Y-72780000D02*
X103980000Y-77080000D01*
X103980000Y-72780000D02*
X101770000Y-72780000D01*
X101770000Y-77080000D02*
X103980000Y-77080000D01*
X101770000Y-77080000D02*
X101770000Y-72780000D01*
X114140000Y-99450000D02*
X114140000Y-103750000D01*
X114140000Y-99450000D02*
X111930000Y-99450000D01*
X111930000Y-103750000D02*
X114140000Y-103750000D01*
X111930000Y-103750000D02*
X111930000Y-99450000D01*
X114140000Y-93100000D02*
X114140000Y-97400000D01*
X114140000Y-93100000D02*
X111930000Y-93100000D01*
X111930000Y-97400000D02*
X114140000Y-97400000D01*
X111930000Y-97400000D02*
X111930000Y-93100000D01*
X114140000Y-86750000D02*
X114140000Y-91050000D01*
X114140000Y-86750000D02*
X111930000Y-86750000D01*
X111930000Y-91050000D02*
X114140000Y-91050000D01*
X111930000Y-91050000D02*
X111930000Y-86750000D01*
X114140000Y-72780000D02*
X114140000Y-77080000D01*
X114140000Y-72780000D02*
X111930000Y-72780000D01*
X111930000Y-77080000D02*
X114140000Y-77080000D01*
X111930000Y-77080000D02*
X111930000Y-72780000D01*
X184320000Y-144805000D02*
X184320000Y-123945000D01*
X184320000Y-123945000D02*
X173820000Y-123945000D01*
X173820000Y-123945000D02*
X173820000Y-144805000D01*
X173820000Y-144805000D02*
X184320000Y-144805000D01*
X117595000Y-117285000D02*
X117595000Y-112585000D01*
X117595000Y-112585000D02*
X119895000Y-112585000D01*
X119895000Y-112585000D02*
X119895000Y-117285000D01*
X117595000Y-117285000D02*
X119895000Y-117285000D01*
X182670000Y-137750000D02*
X182670000Y-128950000D01*
X175470000Y-137750000D02*
X182670000Y-137750000D01*
X175470000Y-128950000D02*
X175470000Y-137750000D01*
X182670000Y-128950000D02*
X175470000Y-128950000D01*
M02*
