G04 #@! TF.FileFunction,Legend,Top*
%FSLAX46Y46*%
G04 Gerber Fmt 4.6, Leading zero omitted, Abs format (unit mm)*
G04 Created by KiCad (PCBNEW 4.0.4-stable) date 12/10/17 00:47:25*
%MOMM*%
%LPD*%
G01*
G04 APERTURE LIST*
%ADD10C,0.250000*%
%ADD11C,0.300000*%
%ADD12C,0.100000*%
%ADD13C,0.120000*%
%ADD14C,0.150000*%
G04 APERTURE END LIST*
D10*
D11*
X77261429Y-130198571D02*
X77261429Y-128698571D01*
X77261429Y-129412857D02*
X78118572Y-129412857D01*
X78118572Y-130198571D02*
X78118572Y-128698571D01*
X79475715Y-130198571D02*
X79475715Y-129412857D01*
X79404286Y-129270000D01*
X79261429Y-129198571D01*
X78975715Y-129198571D01*
X78832858Y-129270000D01*
X79475715Y-130127143D02*
X79332858Y-130198571D01*
X78975715Y-130198571D01*
X78832858Y-130127143D01*
X78761429Y-129984286D01*
X78761429Y-129841429D01*
X78832858Y-129698571D01*
X78975715Y-129627143D01*
X79332858Y-129627143D01*
X79475715Y-129555714D01*
X80190001Y-129198571D02*
X80190001Y-130198571D01*
X80190001Y-129341429D02*
X80261429Y-129270000D01*
X80404287Y-129198571D01*
X80618572Y-129198571D01*
X80761429Y-129270000D01*
X80832858Y-129412857D01*
X80832858Y-130198571D01*
X82190001Y-129198571D02*
X82190001Y-130412857D01*
X82118572Y-130555714D01*
X82047144Y-130627143D01*
X81904287Y-130698571D01*
X81690001Y-130698571D01*
X81547144Y-130627143D01*
X82190001Y-130127143D02*
X82047144Y-130198571D01*
X81761430Y-130198571D01*
X81618572Y-130127143D01*
X81547144Y-130055714D01*
X81475715Y-129912857D01*
X81475715Y-129484286D01*
X81547144Y-129341429D01*
X81618572Y-129270000D01*
X81761430Y-129198571D01*
X82047144Y-129198571D01*
X82190001Y-129270000D01*
X83547144Y-129198571D02*
X83547144Y-130198571D01*
X82904287Y-129198571D02*
X82904287Y-129984286D01*
X82975715Y-130127143D01*
X83118573Y-130198571D01*
X83332858Y-130198571D01*
X83475715Y-130127143D01*
X83547144Y-130055714D01*
X84475716Y-130198571D02*
X84332858Y-130127143D01*
X84261430Y-129984286D01*
X84261430Y-128698571D01*
X86047144Y-128698571D02*
X86404287Y-130198571D01*
X86690001Y-129127143D01*
X86975715Y-130198571D01*
X87332858Y-128698571D01*
X88118573Y-130198571D02*
X87975715Y-130127143D01*
X87904287Y-130055714D01*
X87832858Y-129912857D01*
X87832858Y-129484286D01*
X87904287Y-129341429D01*
X87975715Y-129270000D01*
X88118573Y-129198571D01*
X88332858Y-129198571D01*
X88475715Y-129270000D01*
X88547144Y-129341429D01*
X88618573Y-129484286D01*
X88618573Y-129912857D01*
X88547144Y-130055714D01*
X88475715Y-130127143D01*
X88332858Y-130198571D01*
X88118573Y-130198571D01*
X89261430Y-130198571D02*
X89261430Y-129198571D01*
X89261430Y-129484286D02*
X89332858Y-129341429D01*
X89404287Y-129270000D01*
X89547144Y-129198571D01*
X89690001Y-129198571D01*
X90832858Y-130198571D02*
X90832858Y-128698571D01*
X90832858Y-130127143D02*
X90690001Y-130198571D01*
X90404287Y-130198571D01*
X90261429Y-130127143D01*
X90190001Y-130055714D01*
X90118572Y-129912857D01*
X90118572Y-129484286D01*
X90190001Y-129341429D01*
X90261429Y-129270000D01*
X90404287Y-129198571D01*
X90690001Y-129198571D01*
X90832858Y-129270000D01*
X93547144Y-130055714D02*
X93475715Y-130127143D01*
X93261429Y-130198571D01*
X93118572Y-130198571D01*
X92904287Y-130127143D01*
X92761429Y-129984286D01*
X92690001Y-129841429D01*
X92618572Y-129555714D01*
X92618572Y-129341429D01*
X92690001Y-129055714D01*
X92761429Y-128912857D01*
X92904287Y-128770000D01*
X93118572Y-128698571D01*
X93261429Y-128698571D01*
X93475715Y-128770000D01*
X93547144Y-128841429D01*
X94404287Y-130198571D02*
X94261429Y-130127143D01*
X94190001Y-129984286D01*
X94190001Y-128698571D01*
X95190001Y-130198571D02*
X95047143Y-130127143D01*
X94975715Y-130055714D01*
X94904286Y-129912857D01*
X94904286Y-129484286D01*
X94975715Y-129341429D01*
X95047143Y-129270000D01*
X95190001Y-129198571D01*
X95404286Y-129198571D01*
X95547143Y-129270000D01*
X95618572Y-129341429D01*
X95690001Y-129484286D01*
X95690001Y-129912857D01*
X95618572Y-130055714D01*
X95547143Y-130127143D01*
X95404286Y-130198571D01*
X95190001Y-130198571D01*
X96975715Y-130127143D02*
X96832858Y-130198571D01*
X96547144Y-130198571D01*
X96404286Y-130127143D01*
X96332858Y-130055714D01*
X96261429Y-129912857D01*
X96261429Y-129484286D01*
X96332858Y-129341429D01*
X96404286Y-129270000D01*
X96547144Y-129198571D01*
X96832858Y-129198571D01*
X96975715Y-129270000D01*
X97618572Y-130198571D02*
X97618572Y-128698571D01*
X97761429Y-129627143D02*
X98190000Y-130198571D01*
X98190000Y-129198571D02*
X97618572Y-129770000D01*
X100832858Y-130198571D02*
X100332858Y-129484286D01*
X99975715Y-130198571D02*
X99975715Y-128698571D01*
X100547143Y-128698571D01*
X100690001Y-128770000D01*
X100761429Y-128841429D01*
X100832858Y-128984286D01*
X100832858Y-129198571D01*
X100761429Y-129341429D01*
X100690001Y-129412857D01*
X100547143Y-129484286D01*
X99975715Y-129484286D01*
X102047143Y-130127143D02*
X101904286Y-130198571D01*
X101618572Y-130198571D01*
X101475715Y-130127143D01*
X101404286Y-129984286D01*
X101404286Y-129412857D01*
X101475715Y-129270000D01*
X101618572Y-129198571D01*
X101904286Y-129198571D01*
X102047143Y-129270000D01*
X102118572Y-129412857D01*
X102118572Y-129555714D01*
X101404286Y-129698571D01*
X102618572Y-129198571D02*
X102975715Y-130198571D01*
X103332857Y-129198571D01*
X104975714Y-129770000D02*
X105690000Y-129770000D01*
X104832857Y-130198571D02*
X105332857Y-128698571D01*
X105832857Y-130198571D01*
X85332857Y-132748571D02*
X85332857Y-131248571D01*
X86190000Y-132748571D01*
X86190000Y-131248571D01*
X87118572Y-132748571D02*
X86975714Y-132677143D01*
X86904286Y-132605714D01*
X86832857Y-132462857D01*
X86832857Y-132034286D01*
X86904286Y-131891429D01*
X86975714Y-131820000D01*
X87118572Y-131748571D01*
X87332857Y-131748571D01*
X87475714Y-131820000D01*
X87547143Y-131891429D01*
X87618572Y-132034286D01*
X87618572Y-132462857D01*
X87547143Y-132605714D01*
X87475714Y-132677143D01*
X87332857Y-132748571D01*
X87118572Y-132748571D01*
X88904286Y-132748571D02*
X88904286Y-131248571D01*
X88904286Y-132677143D02*
X88761429Y-132748571D01*
X88475715Y-132748571D01*
X88332857Y-132677143D01*
X88261429Y-132605714D01*
X88190000Y-132462857D01*
X88190000Y-132034286D01*
X88261429Y-131891429D01*
X88332857Y-131820000D01*
X88475715Y-131748571D01*
X88761429Y-131748571D01*
X88904286Y-131820000D01*
X90190000Y-132677143D02*
X90047143Y-132748571D01*
X89761429Y-132748571D01*
X89618572Y-132677143D01*
X89547143Y-132534286D01*
X89547143Y-131962857D01*
X89618572Y-131820000D01*
X89761429Y-131748571D01*
X90047143Y-131748571D01*
X90190000Y-131820000D01*
X90261429Y-131962857D01*
X90261429Y-132105714D01*
X89547143Y-132248571D01*
X90904286Y-132748571D02*
X90904286Y-131248571D01*
X91404286Y-132320000D01*
X91904286Y-131248571D01*
X91904286Y-132748571D01*
X93475715Y-132605714D02*
X93404286Y-132677143D01*
X93190000Y-132748571D01*
X93047143Y-132748571D01*
X92832858Y-132677143D01*
X92690000Y-132534286D01*
X92618572Y-132391429D01*
X92547143Y-132105714D01*
X92547143Y-131891429D01*
X92618572Y-131605714D01*
X92690000Y-131462857D01*
X92832858Y-131320000D01*
X93047143Y-131248571D01*
X93190000Y-131248571D01*
X93404286Y-131320000D01*
X93475715Y-131391429D01*
X94118572Y-131248571D02*
X94118572Y-132462857D01*
X94190000Y-132605714D01*
X94261429Y-132677143D01*
X94404286Y-132748571D01*
X94690000Y-132748571D01*
X94832858Y-132677143D01*
X94904286Y-132605714D01*
X94975715Y-132462857D01*
X94975715Y-131248571D01*
X95547144Y-131748571D02*
X95904287Y-132748571D01*
X96261429Y-131748571D01*
X96761429Y-131391429D02*
X96832858Y-131320000D01*
X96975715Y-131248571D01*
X97332858Y-131248571D01*
X97475715Y-131320000D01*
X97547144Y-131391429D01*
X97618572Y-131534286D01*
X97618572Y-131677143D01*
X97547144Y-131891429D01*
X96690001Y-132748571D01*
X97618572Y-132748571D01*
X82654287Y-135298571D02*
X82654287Y-133798571D01*
X83154287Y-134870000D01*
X83654287Y-133798571D01*
X83654287Y-135298571D01*
X84868573Y-134512857D02*
X85082859Y-134584286D01*
X85154287Y-134655714D01*
X85225716Y-134798571D01*
X85225716Y-135012857D01*
X85154287Y-135155714D01*
X85082859Y-135227143D01*
X84940001Y-135298571D01*
X84368573Y-135298571D01*
X84368573Y-133798571D01*
X84868573Y-133798571D01*
X85011430Y-133870000D01*
X85082859Y-133941429D01*
X85154287Y-134084286D01*
X85154287Y-134227143D01*
X85082859Y-134370000D01*
X85011430Y-134441429D01*
X84868573Y-134512857D01*
X84368573Y-134512857D01*
X85868573Y-135298571D02*
X85868573Y-133798571D01*
X87297145Y-133798571D02*
X86582859Y-133798571D01*
X86511430Y-134512857D01*
X86582859Y-134441429D01*
X86725716Y-134370000D01*
X87082859Y-134370000D01*
X87225716Y-134441429D01*
X87297145Y-134512857D01*
X87368573Y-134655714D01*
X87368573Y-135012857D01*
X87297145Y-135155714D01*
X87225716Y-135227143D01*
X87082859Y-135298571D01*
X86725716Y-135298571D01*
X86582859Y-135227143D01*
X86511430Y-135155714D01*
X88297144Y-133798571D02*
X88440001Y-133798571D01*
X88582858Y-133870000D01*
X88654287Y-133941429D01*
X88725716Y-134084286D01*
X88797144Y-134370000D01*
X88797144Y-134727143D01*
X88725716Y-135012857D01*
X88654287Y-135155714D01*
X88582858Y-135227143D01*
X88440001Y-135298571D01*
X88297144Y-135298571D01*
X88154287Y-135227143D01*
X88082858Y-135155714D01*
X88011430Y-135012857D01*
X87940001Y-134727143D01*
X87940001Y-134370000D01*
X88011430Y-134084286D01*
X88082858Y-133941429D01*
X88154287Y-133870000D01*
X88297144Y-133798571D01*
X89368572Y-133941429D02*
X89440001Y-133870000D01*
X89582858Y-133798571D01*
X89940001Y-133798571D01*
X90082858Y-133870000D01*
X90154287Y-133941429D01*
X90225715Y-134084286D01*
X90225715Y-134227143D01*
X90154287Y-134441429D01*
X89297144Y-135298571D01*
X90225715Y-135298571D01*
X91511429Y-133798571D02*
X91225715Y-133798571D01*
X91082858Y-133870000D01*
X91011429Y-133941429D01*
X90868572Y-134155714D01*
X90797143Y-134441429D01*
X90797143Y-135012857D01*
X90868572Y-135155714D01*
X90940000Y-135227143D01*
X91082858Y-135298571D01*
X91368572Y-135298571D01*
X91511429Y-135227143D01*
X91582858Y-135155714D01*
X91654286Y-135012857D01*
X91654286Y-134655714D01*
X91582858Y-134512857D01*
X91511429Y-134441429D01*
X91368572Y-134370000D01*
X91082858Y-134370000D01*
X90940000Y-134441429D01*
X90868572Y-134512857D01*
X90797143Y-134655714D01*
X93440000Y-135298571D02*
X93440000Y-133798571D01*
X94011428Y-133798571D01*
X94154286Y-133870000D01*
X94225714Y-133941429D01*
X94297143Y-134084286D01*
X94297143Y-134298571D01*
X94225714Y-134441429D01*
X94154286Y-134512857D01*
X94011428Y-134584286D01*
X93440000Y-134584286D01*
X95582857Y-135298571D02*
X95582857Y-134512857D01*
X95511428Y-134370000D01*
X95368571Y-134298571D01*
X95082857Y-134298571D01*
X94940000Y-134370000D01*
X95582857Y-135227143D02*
X95440000Y-135298571D01*
X95082857Y-135298571D01*
X94940000Y-135227143D01*
X94868571Y-135084286D01*
X94868571Y-134941429D01*
X94940000Y-134798571D01*
X95082857Y-134727143D01*
X95440000Y-134727143D01*
X95582857Y-134655714D01*
X96297143Y-134298571D02*
X96297143Y-135298571D01*
X96297143Y-134441429D02*
X96368571Y-134370000D01*
X96511429Y-134298571D01*
X96725714Y-134298571D01*
X96868571Y-134370000D01*
X96940000Y-134512857D01*
X96940000Y-135298571D01*
X98225714Y-135227143D02*
X98082857Y-135298571D01*
X97797143Y-135298571D01*
X97654286Y-135227143D01*
X97582857Y-135084286D01*
X97582857Y-134512857D01*
X97654286Y-134370000D01*
X97797143Y-134298571D01*
X98082857Y-134298571D01*
X98225714Y-134370000D01*
X98297143Y-134512857D01*
X98297143Y-134655714D01*
X97582857Y-134798571D01*
X99154286Y-135298571D02*
X99011428Y-135227143D01*
X98940000Y-135084286D01*
X98940000Y-133798571D01*
X99654285Y-135227143D02*
X99797142Y-135298571D01*
X100082857Y-135298571D01*
X100225714Y-135227143D01*
X100297142Y-135084286D01*
X100297142Y-135012857D01*
X100225714Y-134870000D01*
X100082857Y-134798571D01*
X99868571Y-134798571D01*
X99725714Y-134727143D01*
X99654285Y-134584286D01*
X99654285Y-134512857D01*
X99725714Y-134370000D01*
X99868571Y-134298571D01*
X100082857Y-134298571D01*
X100225714Y-134370000D01*
X83047143Y-137848571D02*
X83047143Y-136348571D01*
X83547143Y-137420000D01*
X84047143Y-136348571D01*
X84047143Y-137848571D01*
X85404286Y-137848571D02*
X85404286Y-137062857D01*
X85332857Y-136920000D01*
X85190000Y-136848571D01*
X84904286Y-136848571D01*
X84761429Y-136920000D01*
X85404286Y-137777143D02*
X85261429Y-137848571D01*
X84904286Y-137848571D01*
X84761429Y-137777143D01*
X84690000Y-137634286D01*
X84690000Y-137491429D01*
X84761429Y-137348571D01*
X84904286Y-137277143D01*
X85261429Y-137277143D01*
X85404286Y-137205714D01*
X85904286Y-136848571D02*
X86475715Y-136848571D01*
X86118572Y-136348571D02*
X86118572Y-137634286D01*
X86190000Y-137777143D01*
X86332858Y-137848571D01*
X86475715Y-137848571D01*
X86761429Y-136848571D02*
X87332858Y-136848571D01*
X86975715Y-136348571D02*
X86975715Y-137634286D01*
X87047143Y-137777143D01*
X87190001Y-137848571D01*
X87332858Y-137848571D01*
X87832858Y-137848571D02*
X87832858Y-136348571D01*
X88475715Y-137848571D02*
X88475715Y-137062857D01*
X88404286Y-136920000D01*
X88261429Y-136848571D01*
X88047144Y-136848571D01*
X87904286Y-136920000D01*
X87832858Y-136991429D01*
X89761429Y-137777143D02*
X89618572Y-137848571D01*
X89332858Y-137848571D01*
X89190001Y-137777143D01*
X89118572Y-137634286D01*
X89118572Y-137062857D01*
X89190001Y-136920000D01*
X89332858Y-136848571D01*
X89618572Y-136848571D01*
X89761429Y-136920000D01*
X89832858Y-137062857D01*
X89832858Y-137205714D01*
X89118572Y-137348571D01*
X90332858Y-136848571D02*
X90618572Y-137848571D01*
X90904286Y-137134286D01*
X91190001Y-137848571D01*
X91475715Y-136848571D01*
X93118572Y-137777143D02*
X93332858Y-137848571D01*
X93690001Y-137848571D01*
X93832858Y-137777143D01*
X93904287Y-137705714D01*
X93975715Y-137562857D01*
X93975715Y-137420000D01*
X93904287Y-137277143D01*
X93832858Y-137205714D01*
X93690001Y-137134286D01*
X93404287Y-137062857D01*
X93261429Y-136991429D01*
X93190001Y-136920000D01*
X93118572Y-136777143D01*
X93118572Y-136634286D01*
X93190001Y-136491429D01*
X93261429Y-136420000D01*
X93404287Y-136348571D01*
X93761429Y-136348571D01*
X93975715Y-136420000D01*
X94475715Y-136848571D02*
X94761429Y-137848571D01*
X95047143Y-137134286D01*
X95332858Y-137848571D01*
X95618572Y-136848571D01*
X96832858Y-137848571D02*
X96832858Y-137062857D01*
X96761429Y-136920000D01*
X96618572Y-136848571D01*
X96332858Y-136848571D01*
X96190001Y-136920000D01*
X96832858Y-137777143D02*
X96690001Y-137848571D01*
X96332858Y-137848571D01*
X96190001Y-137777143D01*
X96118572Y-137634286D01*
X96118572Y-137491429D01*
X96190001Y-137348571D01*
X96332858Y-137277143D01*
X96690001Y-137277143D01*
X96832858Y-137205714D01*
X97547144Y-137848571D02*
X97547144Y-136848571D01*
X97547144Y-137134286D02*
X97618572Y-136991429D01*
X97690001Y-136920000D01*
X97832858Y-136848571D01*
X97975715Y-136848571D01*
X98261429Y-136848571D02*
X98832858Y-136848571D01*
X98475715Y-136348571D02*
X98475715Y-137634286D01*
X98547143Y-137777143D01*
X98690001Y-137848571D01*
X98832858Y-137848571D01*
X99261429Y-137777143D02*
X99404286Y-137848571D01*
X99690001Y-137848571D01*
X99832858Y-137777143D01*
X99904286Y-137634286D01*
X99904286Y-137562857D01*
X99832858Y-137420000D01*
X99690001Y-137348571D01*
X99475715Y-137348571D01*
X99332858Y-137277143D01*
X99261429Y-137134286D01*
X99261429Y-137062857D01*
X99332858Y-136920000D01*
X99475715Y-136848571D01*
X99690001Y-136848571D01*
X99832858Y-136920000D01*
X85297144Y-139041429D02*
X85368573Y-138970000D01*
X85511430Y-138898571D01*
X85868573Y-138898571D01*
X86011430Y-138970000D01*
X86082859Y-139041429D01*
X86154287Y-139184286D01*
X86154287Y-139327143D01*
X86082859Y-139541429D01*
X85225716Y-140398571D01*
X86154287Y-140398571D01*
X87082858Y-138898571D02*
X87225715Y-138898571D01*
X87368572Y-138970000D01*
X87440001Y-139041429D01*
X87511430Y-139184286D01*
X87582858Y-139470000D01*
X87582858Y-139827143D01*
X87511430Y-140112857D01*
X87440001Y-140255714D01*
X87368572Y-140327143D01*
X87225715Y-140398571D01*
X87082858Y-140398571D01*
X86940001Y-140327143D01*
X86868572Y-140255714D01*
X86797144Y-140112857D01*
X86725715Y-139827143D01*
X86725715Y-139470000D01*
X86797144Y-139184286D01*
X86868572Y-139041429D01*
X86940001Y-138970000D01*
X87082858Y-138898571D01*
X89011429Y-140398571D02*
X88154286Y-140398571D01*
X88582858Y-140398571D02*
X88582858Y-138898571D01*
X88440001Y-139112857D01*
X88297143Y-139255714D01*
X88154286Y-139327143D01*
X89511429Y-138898571D02*
X90511429Y-138898571D01*
X89868572Y-140398571D01*
X91082857Y-140255714D02*
X91154285Y-140327143D01*
X91082857Y-140398571D01*
X91011428Y-140327143D01*
X91082857Y-140255714D01*
X91082857Y-140398571D01*
X92582857Y-140398571D02*
X91725714Y-140398571D01*
X92154286Y-140398571D02*
X92154286Y-138898571D01*
X92011429Y-139112857D01*
X91868571Y-139255714D01*
X91725714Y-139327143D01*
X93154285Y-139041429D02*
X93225714Y-138970000D01*
X93368571Y-138898571D01*
X93725714Y-138898571D01*
X93868571Y-138970000D01*
X93940000Y-139041429D01*
X94011428Y-139184286D01*
X94011428Y-139327143D01*
X93940000Y-139541429D01*
X93082857Y-140398571D01*
X94011428Y-140398571D01*
X94654285Y-140255714D02*
X94725713Y-140327143D01*
X94654285Y-140398571D01*
X94582856Y-140327143D01*
X94654285Y-140255714D01*
X94654285Y-140398571D01*
X96154285Y-140398571D02*
X95297142Y-140398571D01*
X95725714Y-140398571D02*
X95725714Y-138898571D01*
X95582857Y-139112857D01*
X95439999Y-139255714D01*
X95297142Y-139327143D01*
X97082856Y-138898571D02*
X97225713Y-138898571D01*
X97368570Y-138970000D01*
X97439999Y-139041429D01*
X97511428Y-139184286D01*
X97582856Y-139470000D01*
X97582856Y-139827143D01*
X97511428Y-140112857D01*
X97439999Y-140255714D01*
X97368570Y-140327143D01*
X97225713Y-140398571D01*
X97082856Y-140398571D01*
X96939999Y-140327143D01*
X96868570Y-140255714D01*
X96797142Y-140112857D01*
X96725713Y-139827143D01*
X96725713Y-139470000D01*
X96797142Y-139184286D01*
X96868570Y-139041429D01*
X96939999Y-138970000D01*
X97082856Y-138898571D01*
X122710715Y-71655714D02*
X122639286Y-71727143D01*
X122425000Y-71798571D01*
X122282143Y-71798571D01*
X122067858Y-71727143D01*
X121925000Y-71584286D01*
X121853572Y-71441429D01*
X121782143Y-71155714D01*
X121782143Y-70941429D01*
X121853572Y-70655714D01*
X121925000Y-70512857D01*
X122067858Y-70370000D01*
X122282143Y-70298571D01*
X122425000Y-70298571D01*
X122639286Y-70370000D01*
X122710715Y-70441429D01*
X123996429Y-71798571D02*
X123996429Y-71012857D01*
X123925000Y-70870000D01*
X123782143Y-70798571D01*
X123496429Y-70798571D01*
X123353572Y-70870000D01*
X123996429Y-71727143D02*
X123853572Y-71798571D01*
X123496429Y-71798571D01*
X123353572Y-71727143D01*
X123282143Y-71584286D01*
X123282143Y-71441429D01*
X123353572Y-71298571D01*
X123496429Y-71227143D01*
X123853572Y-71227143D01*
X123996429Y-71155714D01*
X124925001Y-71798571D02*
X124782143Y-71727143D01*
X124710715Y-71584286D01*
X124710715Y-70298571D01*
X125496429Y-71798571D02*
X125496429Y-70798571D01*
X125496429Y-70298571D02*
X125425000Y-70370000D01*
X125496429Y-70441429D01*
X125567857Y-70370000D01*
X125496429Y-70298571D01*
X125496429Y-70441429D01*
X126210715Y-71798571D02*
X126210715Y-70298571D01*
X126210715Y-70870000D02*
X126353572Y-70798571D01*
X126639286Y-70798571D01*
X126782143Y-70870000D01*
X126853572Y-70941429D01*
X126925001Y-71084286D01*
X126925001Y-71512857D01*
X126853572Y-71655714D01*
X126782143Y-71727143D01*
X126639286Y-71798571D01*
X126353572Y-71798571D01*
X126210715Y-71727143D01*
X127567858Y-71798571D02*
X127567858Y-70798571D01*
X127567858Y-71084286D02*
X127639286Y-70941429D01*
X127710715Y-70870000D01*
X127853572Y-70798571D01*
X127996429Y-70798571D01*
X129139286Y-71798571D02*
X129139286Y-71012857D01*
X129067857Y-70870000D01*
X128925000Y-70798571D01*
X128639286Y-70798571D01*
X128496429Y-70870000D01*
X129139286Y-71727143D02*
X128996429Y-71798571D01*
X128639286Y-71798571D01*
X128496429Y-71727143D01*
X128425000Y-71584286D01*
X128425000Y-71441429D01*
X128496429Y-71298571D01*
X128639286Y-71227143D01*
X128996429Y-71227143D01*
X129139286Y-71155714D01*
X129639286Y-70798571D02*
X130210715Y-70798571D01*
X129853572Y-70298571D02*
X129853572Y-71584286D01*
X129925000Y-71727143D01*
X130067858Y-71798571D01*
X130210715Y-71798571D01*
X131282143Y-71727143D02*
X131139286Y-71798571D01*
X130853572Y-71798571D01*
X130710715Y-71727143D01*
X130639286Y-71584286D01*
X130639286Y-71012857D01*
X130710715Y-70870000D01*
X130853572Y-70798571D01*
X131139286Y-70798571D01*
X131282143Y-70870000D01*
X131353572Y-71012857D01*
X131353572Y-71155714D01*
X130639286Y-71298571D01*
X132925000Y-70798571D02*
X133496429Y-70798571D01*
X133139286Y-70298571D02*
X133139286Y-71584286D01*
X133210714Y-71727143D01*
X133353572Y-71798571D01*
X133496429Y-71798571D01*
X134210715Y-71798571D02*
X134067857Y-71727143D01*
X133996429Y-71655714D01*
X133925000Y-71512857D01*
X133925000Y-71084286D01*
X133996429Y-70941429D01*
X134067857Y-70870000D01*
X134210715Y-70798571D01*
X134425000Y-70798571D01*
X134567857Y-70870000D01*
X134639286Y-70941429D01*
X134710715Y-71084286D01*
X134710715Y-71512857D01*
X134639286Y-71655714D01*
X134567857Y-71727143D01*
X134425000Y-71798571D01*
X134210715Y-71798571D01*
X136353572Y-70298571D02*
X137282143Y-70298571D01*
X136782143Y-70870000D01*
X136996429Y-70870000D01*
X137139286Y-70941429D01*
X137210715Y-71012857D01*
X137282143Y-71155714D01*
X137282143Y-71512857D01*
X137210715Y-71655714D01*
X137139286Y-71727143D01*
X136996429Y-71798571D01*
X136567857Y-71798571D01*
X136425000Y-71727143D01*
X136353572Y-71655714D01*
X137710714Y-70298571D02*
X138210714Y-71798571D01*
X138710714Y-70298571D01*
X125206428Y-72838571D02*
X125492142Y-72838571D01*
X125635000Y-72910000D01*
X125777857Y-73052857D01*
X125849285Y-73338571D01*
X125849285Y-73838571D01*
X125777857Y-74124286D01*
X125635000Y-74267143D01*
X125492142Y-74338571D01*
X125206428Y-74338571D01*
X125063571Y-74267143D01*
X124920714Y-74124286D01*
X124849285Y-73838571D01*
X124849285Y-73338571D01*
X124920714Y-73052857D01*
X125063571Y-72910000D01*
X125206428Y-72838571D01*
X126492143Y-72838571D02*
X126492143Y-74052857D01*
X126563571Y-74195714D01*
X126635000Y-74267143D01*
X126777857Y-74338571D01*
X127063571Y-74338571D01*
X127206429Y-74267143D01*
X127277857Y-74195714D01*
X127349286Y-74052857D01*
X127349286Y-72838571D01*
X127849286Y-72838571D02*
X128706429Y-72838571D01*
X128277858Y-74338571D02*
X128277858Y-72838571D01*
X129206429Y-73767143D02*
X130349286Y-73767143D01*
X129777857Y-74338571D02*
X129777857Y-73195714D01*
X145526428Y-72838571D02*
X145812142Y-72838571D01*
X145955000Y-72910000D01*
X146097857Y-73052857D01*
X146169285Y-73338571D01*
X146169285Y-73838571D01*
X146097857Y-74124286D01*
X145955000Y-74267143D01*
X145812142Y-74338571D01*
X145526428Y-74338571D01*
X145383571Y-74267143D01*
X145240714Y-74124286D01*
X145169285Y-73838571D01*
X145169285Y-73338571D01*
X145240714Y-73052857D01*
X145383571Y-72910000D01*
X145526428Y-72838571D01*
X146812143Y-72838571D02*
X146812143Y-74052857D01*
X146883571Y-74195714D01*
X146955000Y-74267143D01*
X147097857Y-74338571D01*
X147383571Y-74338571D01*
X147526429Y-74267143D01*
X147597857Y-74195714D01*
X147669286Y-74052857D01*
X147669286Y-72838571D01*
X148169286Y-72838571D02*
X149026429Y-72838571D01*
X148597858Y-74338571D02*
X148597858Y-72838571D01*
X149526429Y-73767143D02*
X150669286Y-73767143D01*
X145605714Y-125138571D02*
X145605714Y-123638571D01*
X146320000Y-125138571D02*
X146320000Y-123638571D01*
X147177143Y-125138571D01*
X147177143Y-123638571D01*
X147891429Y-124567143D02*
X149034286Y-124567143D01*
X125920714Y-125138571D02*
X125920714Y-123638571D01*
X126635000Y-125138571D02*
X126635000Y-123638571D01*
X127492143Y-125138571D01*
X127492143Y-123638571D01*
X128206429Y-124567143D02*
X129349286Y-124567143D01*
X128777857Y-125138571D02*
X128777857Y-123995714D01*
X176931430Y-85538571D02*
X176645716Y-85538571D01*
X176502859Y-85610000D01*
X176431430Y-85681429D01*
X176288573Y-85895714D01*
X176217144Y-86181429D01*
X176217144Y-86752857D01*
X176288573Y-86895714D01*
X176360001Y-86967143D01*
X176502859Y-87038571D01*
X176788573Y-87038571D01*
X176931430Y-86967143D01*
X177002859Y-86895714D01*
X177074287Y-86752857D01*
X177074287Y-86395714D01*
X177002859Y-86252857D01*
X176931430Y-86181429D01*
X176788573Y-86110000D01*
X176502859Y-86110000D01*
X176360001Y-86181429D01*
X176288573Y-86252857D01*
X176217144Y-86395714D01*
X177502858Y-85538571D02*
X178002858Y-87038571D01*
X178502858Y-85538571D01*
X179931429Y-86038571D02*
X180502858Y-86038571D01*
X180145715Y-85538571D02*
X180145715Y-86824286D01*
X180217143Y-86967143D01*
X180360001Y-87038571D01*
X180502858Y-87038571D01*
X181217144Y-87038571D02*
X181074286Y-86967143D01*
X181002858Y-86895714D01*
X180931429Y-86752857D01*
X180931429Y-86324286D01*
X181002858Y-86181429D01*
X181074286Y-86110000D01*
X181217144Y-86038571D01*
X181431429Y-86038571D01*
X181574286Y-86110000D01*
X181645715Y-86181429D01*
X181717144Y-86324286D01*
X181717144Y-86752857D01*
X181645715Y-86895714D01*
X181574286Y-86967143D01*
X181431429Y-87038571D01*
X181217144Y-87038571D01*
X183431429Y-85681429D02*
X183502858Y-85610000D01*
X183645715Y-85538571D01*
X184002858Y-85538571D01*
X184145715Y-85610000D01*
X184217144Y-85681429D01*
X184288572Y-85824286D01*
X184288572Y-85967143D01*
X184217144Y-86181429D01*
X183360001Y-87038571D01*
X184288572Y-87038571D01*
X185217143Y-85538571D02*
X185360000Y-85538571D01*
X185502857Y-85610000D01*
X185574286Y-85681429D01*
X185645715Y-85824286D01*
X185717143Y-86110000D01*
X185717143Y-86467143D01*
X185645715Y-86752857D01*
X185574286Y-86895714D01*
X185502857Y-86967143D01*
X185360000Y-87038571D01*
X185217143Y-87038571D01*
X185074286Y-86967143D01*
X185002857Y-86895714D01*
X184931429Y-86752857D01*
X184860000Y-86467143D01*
X184860000Y-86110000D01*
X184931429Y-85824286D01*
X185002857Y-85681429D01*
X185074286Y-85610000D01*
X185217143Y-85538571D01*
X186145714Y-85538571D02*
X186645714Y-87038571D01*
X187145714Y-85538571D01*
D12*
X128009232Y-86276927D02*
X133139874Y-86276927D01*
X133139232Y-86276969D02*
X133139232Y-96276927D01*
X125660000Y-75060000D02*
X125660000Y-123060000D01*
X148660000Y-75060000D02*
X125660000Y-75060000D01*
X148660000Y-123060000D02*
X148660000Y-75060000D01*
X125660000Y-123060000D02*
X148660000Y-123060000D01*
X137160000Y-100330000D02*
X137160000Y-97790000D01*
X135890000Y-99060000D02*
X138430000Y-99060000D01*
X132501779Y-114838364D02*
X132501779Y-122101697D01*
X132501779Y-122101697D02*
X140847000Y-122101697D01*
X140847000Y-122101697D02*
X140847000Y-113632073D01*
X140847000Y-113632073D02*
X133708069Y-113632073D01*
X133708069Y-113632073D02*
X132501779Y-114838364D01*
X142107751Y-83374351D02*
X142107751Y-76111017D01*
X142107751Y-76111017D02*
X133762530Y-76111017D01*
X133762530Y-76111017D02*
X133762530Y-84580642D01*
X133762530Y-84580642D02*
X140901460Y-84580642D01*
X140901460Y-84580642D02*
X142107751Y-83374351D01*
X134519689Y-98456448D02*
X146691168Y-98456448D01*
X146691168Y-98456448D02*
X146691168Y-86249811D01*
X146691168Y-86249811D02*
X134519689Y-86249811D01*
X134519689Y-86249811D02*
X134519689Y-98456448D01*
X128009232Y-96276927D02*
X133139874Y-96276927D01*
X128009232Y-86276969D02*
X128009232Y-96276927D01*
X130165714Y-94866348D02*
G75*
G03X130165714Y-94866348I-782895J0D01*
G01*
X140559875Y-117866885D02*
G75*
G03X140559875Y-117866885I-3885486J0D01*
G01*
X141820627Y-80345830D02*
G75*
G03X141820627Y-80345830I-3885487J0D01*
G01*
D13*
X177530000Y-117725000D02*
X175530000Y-117725000D01*
X175530000Y-119765000D02*
X177530000Y-119765000D01*
X177030000Y-112815000D02*
X176030000Y-112815000D01*
X176030000Y-114515000D02*
X177030000Y-114515000D01*
X117335000Y-117595000D02*
X120155000Y-117595000D01*
X120155000Y-117595000D02*
X120155000Y-112275000D01*
X120155000Y-112275000D02*
X117335000Y-112275000D01*
X117335000Y-112275000D02*
X117335000Y-117595000D01*
X118745000Y-120005000D02*
X118745000Y-117595000D01*
X118745000Y-109865000D02*
X118745000Y-112275000D01*
X117335000Y-116755000D02*
X120155000Y-116755000D01*
X185340000Y-95730000D02*
X194140000Y-95730000D01*
X194140000Y-95730000D02*
X194140000Y-104930000D01*
X179440000Y-98430000D02*
X179440000Y-95730000D01*
X179440000Y-95730000D02*
X181340000Y-95730000D01*
X194140000Y-104930000D02*
X179440000Y-104930000D01*
X179440000Y-104930000D02*
X179440000Y-102330000D01*
X108710000Y-103180000D02*
X108710000Y-102250000D01*
X108710000Y-100020000D02*
X108710000Y-100950000D01*
X108710000Y-100020000D02*
X106550000Y-100020000D01*
X108710000Y-103180000D02*
X107250000Y-103180000D01*
X108710000Y-96830000D02*
X108710000Y-95900000D01*
X108710000Y-93670000D02*
X108710000Y-94600000D01*
X108710000Y-93670000D02*
X106550000Y-93670000D01*
X108710000Y-96830000D02*
X107250000Y-96830000D01*
X108710000Y-90480000D02*
X108710000Y-89550000D01*
X108710000Y-87320000D02*
X108710000Y-88250000D01*
X108710000Y-87320000D02*
X106550000Y-87320000D01*
X108710000Y-90480000D02*
X107250000Y-90480000D01*
X108710000Y-76510000D02*
X108710000Y-75580000D01*
X108710000Y-73350000D02*
X108710000Y-74280000D01*
X108710000Y-73350000D02*
X106550000Y-73350000D01*
X108710000Y-76510000D02*
X107250000Y-76510000D01*
X101800000Y-102600000D02*
X101800000Y-100600000D01*
X103940000Y-100600000D02*
X103940000Y-102600000D01*
X101800000Y-96250000D02*
X101800000Y-94250000D01*
X103940000Y-94250000D02*
X103940000Y-96250000D01*
X101800000Y-89900000D02*
X101800000Y-87900000D01*
X103940000Y-87900000D02*
X103940000Y-89900000D01*
X101800000Y-75930000D02*
X101800000Y-73930000D01*
X103940000Y-73930000D02*
X103940000Y-75930000D01*
X111960000Y-102600000D02*
X111960000Y-100600000D01*
X114100000Y-100600000D02*
X114100000Y-102600000D01*
X111960000Y-96250000D02*
X111960000Y-94250000D01*
X114100000Y-94250000D02*
X114100000Y-96250000D01*
X111960000Y-89900000D02*
X111960000Y-87900000D01*
X114100000Y-87900000D02*
X114100000Y-89900000D01*
X111960000Y-75930000D02*
X111960000Y-73930000D01*
X114100000Y-73930000D02*
X114100000Y-75930000D01*
X184190000Y-128785000D02*
X173950000Y-128785000D01*
X184190000Y-144675000D02*
X173950000Y-144675000D01*
X184190000Y-144675000D02*
X184190000Y-128785000D01*
X173950000Y-144675000D02*
X173950000Y-128785000D01*
X181610000Y-128785000D02*
X181610000Y-126145000D01*
X179070000Y-128785000D02*
X179070000Y-126161000D01*
X176530000Y-128785000D02*
X176530000Y-126161000D01*
D12*
X85090000Y-88900000D02*
X87630000Y-88900000D01*
X86360000Y-87630000D02*
X86360000Y-90170000D01*
X78740000Y-64770000D02*
X78740000Y-71120000D01*
X78740000Y-71120000D02*
X93980000Y-71120000D01*
X93980000Y-71120000D02*
X93980000Y-64770000D01*
X90170000Y-113030000D02*
X96520000Y-113030000D01*
X76200000Y-113030000D02*
X82550000Y-113030000D01*
X82550000Y-110490000D02*
X82550000Y-114300000D01*
X82550000Y-114300000D02*
X90170000Y-114300000D01*
X90170000Y-114300000D02*
X90170000Y-110490000D01*
X90170000Y-110490000D02*
X82550000Y-110490000D01*
X99060000Y-69850000D02*
X96520000Y-69850000D01*
X96520000Y-69850000D02*
X96520000Y-107950000D01*
X96520000Y-107950000D02*
X99060000Y-107950000D01*
X73660000Y-69850000D02*
X76200000Y-69850000D01*
X76200000Y-69850000D02*
X76200000Y-107950000D01*
X76200000Y-107950000D02*
X73660000Y-107950000D01*
X96520000Y-64770000D02*
X76200000Y-64770000D01*
X99060000Y-110490000D02*
X99060000Y-67310000D01*
X73660000Y-67310000D02*
X73660000Y-110490000D01*
X99060000Y-67310000D02*
G75*
G03X96520000Y-64770000I-2540000J0D01*
G01*
X76200000Y-64770000D02*
G75*
G03X73660000Y-67310000I0J-2540000D01*
G01*
X96520000Y-113030000D02*
G75*
G03X99060000Y-110490000I0J2540000D01*
G01*
X73660000Y-110490000D02*
G75*
G03X76200000Y-113030000I2540000J0D01*
G01*
D13*
X117745000Y-117185000D02*
X119745000Y-117185000D01*
X119745000Y-117185000D02*
X119745000Y-113285000D01*
X117745000Y-117185000D02*
X117745000Y-113285000D01*
X175660000Y-135260000D02*
X176920000Y-135260000D01*
X182480000Y-135260000D02*
X181220000Y-135260000D01*
X175660000Y-131500000D02*
X175660000Y-135260000D01*
X182480000Y-129250000D02*
X182480000Y-135260000D01*
D14*
X122642381Y-99821905D02*
X123451905Y-99821905D01*
X123547143Y-99774286D01*
X123594762Y-99726667D01*
X123642381Y-99631429D01*
X123642381Y-99440952D01*
X123594762Y-99345714D01*
X123547143Y-99298095D01*
X123451905Y-99250476D01*
X122642381Y-99250476D01*
X122642381Y-98869524D02*
X122642381Y-98250476D01*
X123023333Y-98583810D01*
X123023333Y-98440952D01*
X123070952Y-98345714D01*
X123118571Y-98298095D01*
X123213810Y-98250476D01*
X123451905Y-98250476D01*
X123547143Y-98298095D01*
X123594762Y-98345714D01*
X123642381Y-98440952D01*
X123642381Y-98726667D01*
X123594762Y-98821905D01*
X123547143Y-98869524D01*
X151693571Y-106702858D02*
X151741190Y-106560001D01*
X151788810Y-106512382D01*
X151884048Y-106464763D01*
X152026905Y-106464763D01*
X152122143Y-106512382D01*
X152169762Y-106560001D01*
X152217381Y-106655239D01*
X152217381Y-107036192D01*
X151217381Y-107036192D01*
X151217381Y-106702858D01*
X151265000Y-106607620D01*
X151312619Y-106560001D01*
X151407857Y-106512382D01*
X151503095Y-106512382D01*
X151598333Y-106560001D01*
X151645952Y-106607620D01*
X151693571Y-106702858D01*
X151693571Y-107036192D01*
X151550714Y-105607620D02*
X152217381Y-105607620D01*
X151550714Y-106036192D02*
X152074524Y-106036192D01*
X152169762Y-105988573D01*
X152217381Y-105893335D01*
X152217381Y-105750477D01*
X152169762Y-105655239D01*
X152122143Y-105607620D01*
X152169762Y-104702858D02*
X152217381Y-104798096D01*
X152217381Y-104988573D01*
X152169762Y-105083811D01*
X152122143Y-105131430D01*
X152026905Y-105179049D01*
X151741190Y-105179049D01*
X151645952Y-105131430D01*
X151598333Y-105083811D01*
X151550714Y-104988573D01*
X151550714Y-104798096D01*
X151598333Y-104702858D01*
X152217381Y-104274287D02*
X151217381Y-104274287D01*
X151836429Y-104179049D02*
X152217381Y-103893334D01*
X151550714Y-103893334D02*
X151931667Y-104274287D01*
X152122143Y-102893334D02*
X152169762Y-102940953D01*
X152217381Y-103083810D01*
X152217381Y-103179048D01*
X152169762Y-103321906D01*
X152074524Y-103417144D01*
X151979286Y-103464763D01*
X151788810Y-103512382D01*
X151645952Y-103512382D01*
X151455476Y-103464763D01*
X151360238Y-103417144D01*
X151265000Y-103321906D01*
X151217381Y-103179048D01*
X151217381Y-103083810D01*
X151265000Y-102940953D01*
X151312619Y-102893334D01*
X152217381Y-102321906D02*
X152169762Y-102417144D01*
X152122143Y-102464763D01*
X152026905Y-102512382D01*
X151741190Y-102512382D01*
X151645952Y-102464763D01*
X151598333Y-102417144D01*
X151550714Y-102321906D01*
X151550714Y-102179048D01*
X151598333Y-102083810D01*
X151645952Y-102036191D01*
X151741190Y-101988572D01*
X152026905Y-101988572D01*
X152122143Y-102036191D01*
X152169762Y-102083810D01*
X152217381Y-102179048D01*
X152217381Y-102321906D01*
X151550714Y-101560001D02*
X152217381Y-101560001D01*
X151645952Y-101560001D02*
X151598333Y-101512382D01*
X151550714Y-101417144D01*
X151550714Y-101274286D01*
X151598333Y-101179048D01*
X151693571Y-101131429D01*
X152217381Y-101131429D01*
X151550714Y-100750477D02*
X152217381Y-100512382D01*
X151550714Y-100274286D01*
X152169762Y-99512381D02*
X152217381Y-99607619D01*
X152217381Y-99798096D01*
X152169762Y-99893334D01*
X152074524Y-99940953D01*
X151693571Y-99940953D01*
X151598333Y-99893334D01*
X151550714Y-99798096D01*
X151550714Y-99607619D01*
X151598333Y-99512381D01*
X151693571Y-99464762D01*
X151788810Y-99464762D01*
X151884048Y-99940953D01*
X152217381Y-99036191D02*
X151550714Y-99036191D01*
X151741190Y-99036191D02*
X151645952Y-98988572D01*
X151598333Y-98940953D01*
X151550714Y-98845715D01*
X151550714Y-98750476D01*
X151550714Y-98560000D02*
X151550714Y-98179048D01*
X151217381Y-98417143D02*
X152074524Y-98417143D01*
X152169762Y-98369524D01*
X152217381Y-98274286D01*
X152217381Y-98179048D01*
X152169762Y-97464761D02*
X152217381Y-97559999D01*
X152217381Y-97750476D01*
X152169762Y-97845714D01*
X152074524Y-97893333D01*
X151693571Y-97893333D01*
X151598333Y-97845714D01*
X151550714Y-97750476D01*
X151550714Y-97559999D01*
X151598333Y-97464761D01*
X151693571Y-97417142D01*
X151788810Y-97417142D01*
X151884048Y-97893333D01*
X152217381Y-96988571D02*
X151550714Y-96988571D01*
X151741190Y-96988571D02*
X151645952Y-96940952D01*
X151598333Y-96893333D01*
X151550714Y-96798095D01*
X151550714Y-96702856D01*
X152217381Y-95893332D02*
X152217381Y-96369523D01*
X151217381Y-96369523D01*
X152217381Y-95559999D02*
X151217381Y-95559999D01*
X151931667Y-95226665D01*
X151217381Y-94893332D01*
X152217381Y-94893332D01*
X151312619Y-94464761D02*
X151265000Y-94417142D01*
X151217381Y-94321904D01*
X151217381Y-94083808D01*
X151265000Y-93988570D01*
X151312619Y-93940951D01*
X151407857Y-93893332D01*
X151503095Y-93893332D01*
X151645952Y-93940951D01*
X152217381Y-94512380D01*
X152217381Y-93893332D01*
X151217381Y-92988570D02*
X151217381Y-93464761D01*
X151693571Y-93512380D01*
X151645952Y-93464761D01*
X151598333Y-93369523D01*
X151598333Y-93131427D01*
X151645952Y-93036189D01*
X151693571Y-92988570D01*
X151788810Y-92940951D01*
X152026905Y-92940951D01*
X152122143Y-92988570D01*
X152169762Y-93036189D01*
X152217381Y-93131427D01*
X152217381Y-93369523D01*
X152169762Y-93464761D01*
X152122143Y-93512380D01*
X152217381Y-92464761D02*
X152217381Y-92274285D01*
X152169762Y-92179046D01*
X152122143Y-92131427D01*
X151979286Y-92036189D01*
X151788810Y-91988570D01*
X151407857Y-91988570D01*
X151312619Y-92036189D01*
X151265000Y-92083808D01*
X151217381Y-92179046D01*
X151217381Y-92369523D01*
X151265000Y-92464761D01*
X151312619Y-92512380D01*
X151407857Y-92559999D01*
X151645952Y-92559999D01*
X151741190Y-92512380D01*
X151788810Y-92464761D01*
X151836429Y-92369523D01*
X151836429Y-92179046D01*
X151788810Y-92083808D01*
X151741190Y-92036189D01*
X151645952Y-91988570D01*
X151217381Y-91131427D02*
X151217381Y-91321904D01*
X151265000Y-91417142D01*
X151312619Y-91464761D01*
X151455476Y-91559999D01*
X151645952Y-91607618D01*
X152026905Y-91607618D01*
X152122143Y-91559999D01*
X152169762Y-91512380D01*
X152217381Y-91417142D01*
X152217381Y-91226665D01*
X152169762Y-91131427D01*
X152122143Y-91083808D01*
X152026905Y-91036189D01*
X151788810Y-91036189D01*
X151693571Y-91083808D01*
X151645952Y-91131427D01*
X151598333Y-91226665D01*
X151598333Y-91417142D01*
X151645952Y-91512380D01*
X151693571Y-91559999D01*
X151788810Y-91607618D01*
X176363334Y-117352143D02*
X176315715Y-117399762D01*
X176172858Y-117447381D01*
X176077620Y-117447381D01*
X175934762Y-117399762D01*
X175839524Y-117304524D01*
X175791905Y-117209286D01*
X175744286Y-117018810D01*
X175744286Y-116875952D01*
X175791905Y-116685476D01*
X175839524Y-116590238D01*
X175934762Y-116495000D01*
X176077620Y-116447381D01*
X176172858Y-116447381D01*
X176315715Y-116495000D01*
X176363334Y-116542619D01*
X177315715Y-117447381D02*
X176744286Y-117447381D01*
X177030000Y-117447381D02*
X177030000Y-116447381D01*
X176934762Y-116590238D01*
X176839524Y-116685476D01*
X176744286Y-116733095D01*
D12*
X175994286Y-120471190D02*
X175708572Y-120471190D01*
X175851429Y-120471190D02*
X175851429Y-119971190D01*
X175803810Y-120042619D01*
X175756191Y-120090238D01*
X175708572Y-120114048D01*
X176303810Y-119971190D02*
X176351429Y-119971190D01*
X176399048Y-119995000D01*
X176422857Y-120018810D01*
X176446667Y-120066429D01*
X176470476Y-120161667D01*
X176470476Y-120280714D01*
X176446667Y-120375952D01*
X176422857Y-120423571D01*
X176399048Y-120447381D01*
X176351429Y-120471190D01*
X176303810Y-120471190D01*
X176256191Y-120447381D01*
X176232381Y-120423571D01*
X176208572Y-120375952D01*
X176184762Y-120280714D01*
X176184762Y-120161667D01*
X176208572Y-120066429D01*
X176232381Y-120018810D01*
X176256191Y-119995000D01*
X176303810Y-119971190D01*
X176899047Y-120137857D02*
X176899047Y-120471190D01*
X176684762Y-120137857D02*
X176684762Y-120399762D01*
X176708571Y-120447381D01*
X176756190Y-120471190D01*
X176827619Y-120471190D01*
X176875238Y-120447381D01*
X176899047Y-120423571D01*
X177303809Y-120209286D02*
X177137143Y-120209286D01*
X177137143Y-120471190D02*
X177137143Y-119971190D01*
X177375238Y-119971190D01*
D14*
X176363334Y-112522143D02*
X176315715Y-112569762D01*
X176172858Y-112617381D01*
X176077620Y-112617381D01*
X175934762Y-112569762D01*
X175839524Y-112474524D01*
X175791905Y-112379286D01*
X175744286Y-112188810D01*
X175744286Y-112045952D01*
X175791905Y-111855476D01*
X175839524Y-111760238D01*
X175934762Y-111665000D01*
X176077620Y-111617381D01*
X176172858Y-111617381D01*
X176315715Y-111665000D01*
X176363334Y-111712619D01*
X176744286Y-111712619D02*
X176791905Y-111665000D01*
X176887143Y-111617381D01*
X177125239Y-111617381D01*
X177220477Y-111665000D01*
X177268096Y-111712619D01*
X177315715Y-111807857D01*
X177315715Y-111903095D01*
X177268096Y-112045952D01*
X176696667Y-112617381D01*
X177315715Y-112617381D01*
D12*
X175708573Y-114891190D02*
X175756192Y-114891190D01*
X175803811Y-114915000D01*
X175827620Y-114938810D01*
X175851430Y-114986429D01*
X175875239Y-115081667D01*
X175875239Y-115200714D01*
X175851430Y-115295952D01*
X175827620Y-115343571D01*
X175803811Y-115367381D01*
X175756192Y-115391190D01*
X175708573Y-115391190D01*
X175660954Y-115367381D01*
X175637144Y-115343571D01*
X175613335Y-115295952D01*
X175589525Y-115200714D01*
X175589525Y-115081667D01*
X175613335Y-114986429D01*
X175637144Y-114938810D01*
X175660954Y-114915000D01*
X175708573Y-114891190D01*
X176089525Y-115343571D02*
X176113334Y-115367381D01*
X176089525Y-115391190D01*
X176065715Y-115367381D01*
X176089525Y-115343571D01*
X176089525Y-115391190D01*
X176589524Y-115391190D02*
X176303810Y-115391190D01*
X176446667Y-115391190D02*
X176446667Y-114891190D01*
X176399048Y-114962619D01*
X176351429Y-115010238D01*
X176303810Y-115034048D01*
X177018095Y-115057857D02*
X177018095Y-115391190D01*
X176803810Y-115057857D02*
X176803810Y-115319762D01*
X176827619Y-115367381D01*
X176875238Y-115391190D01*
X176946667Y-115391190D01*
X176994286Y-115367381D01*
X177018095Y-115343571D01*
X177422857Y-115129286D02*
X177256191Y-115129286D01*
X177256191Y-115391190D02*
X177256191Y-114891190D01*
X177494286Y-114891190D01*
D14*
X116787381Y-115673095D02*
X115787381Y-115673095D01*
X115787381Y-115435000D01*
X115835000Y-115292142D01*
X115930238Y-115196904D01*
X116025476Y-115149285D01*
X116215952Y-115101666D01*
X116358810Y-115101666D01*
X116549286Y-115149285D01*
X116644524Y-115196904D01*
X116739762Y-115292142D01*
X116787381Y-115435000D01*
X116787381Y-115673095D01*
X116787381Y-114149285D02*
X116787381Y-114720714D01*
X116787381Y-114435000D02*
X115787381Y-114435000D01*
X115930238Y-114530238D01*
X116025476Y-114625476D01*
X116073095Y-114720714D01*
X188456667Y-94032381D02*
X188456667Y-94746667D01*
X188409047Y-94889524D01*
X188313809Y-94984762D01*
X188170952Y-95032381D01*
X188075714Y-95032381D01*
X189456667Y-95032381D02*
X188885238Y-95032381D01*
X189170952Y-95032381D02*
X189170952Y-94032381D01*
X189075714Y-94175238D01*
X188980476Y-94270476D01*
X188885238Y-94318095D01*
X107854762Y-99647619D02*
X107759524Y-99600000D01*
X107664286Y-99504762D01*
X107521429Y-99361905D01*
X107426190Y-99314286D01*
X107330952Y-99314286D01*
X107378571Y-99552381D02*
X107283333Y-99504762D01*
X107188095Y-99409524D01*
X107140476Y-99219048D01*
X107140476Y-98885714D01*
X107188095Y-98695238D01*
X107283333Y-98600000D01*
X107378571Y-98552381D01*
X107569048Y-98552381D01*
X107664286Y-98600000D01*
X107759524Y-98695238D01*
X107807143Y-98885714D01*
X107807143Y-99219048D01*
X107759524Y-99409524D01*
X107664286Y-99504762D01*
X107569048Y-99552381D01*
X107378571Y-99552381D01*
X108759524Y-99552381D02*
X108188095Y-99552381D01*
X108473809Y-99552381D02*
X108473809Y-98552381D01*
X108378571Y-98695238D01*
X108283333Y-98790476D01*
X108188095Y-98838095D01*
D12*
X106795239Y-104064286D02*
X106866668Y-104088095D01*
X106890477Y-104111905D01*
X106914287Y-104159524D01*
X106914287Y-104230952D01*
X106890477Y-104278571D01*
X106866668Y-104302381D01*
X106819049Y-104326190D01*
X106628573Y-104326190D01*
X106628573Y-103826190D01*
X106795239Y-103826190D01*
X106842858Y-103850000D01*
X106866668Y-103873810D01*
X106890477Y-103921429D01*
X106890477Y-103969048D01*
X106866668Y-104016667D01*
X106842858Y-104040476D01*
X106795239Y-104064286D01*
X106628573Y-104064286D01*
X107104763Y-104302381D02*
X107176192Y-104326190D01*
X107295239Y-104326190D01*
X107342858Y-104302381D01*
X107366668Y-104278571D01*
X107390477Y-104230952D01*
X107390477Y-104183333D01*
X107366668Y-104135714D01*
X107342858Y-104111905D01*
X107295239Y-104088095D01*
X107200001Y-104064286D01*
X107152382Y-104040476D01*
X107128573Y-104016667D01*
X107104763Y-103969048D01*
X107104763Y-103921429D01*
X107128573Y-103873810D01*
X107152382Y-103850000D01*
X107200001Y-103826190D01*
X107319049Y-103826190D01*
X107390477Y-103850000D01*
X107580953Y-104302381D02*
X107652382Y-104326190D01*
X107771429Y-104326190D01*
X107819048Y-104302381D01*
X107842858Y-104278571D01*
X107866667Y-104230952D01*
X107866667Y-104183333D01*
X107842858Y-104135714D01*
X107819048Y-104111905D01*
X107771429Y-104088095D01*
X107676191Y-104064286D01*
X107628572Y-104040476D01*
X107604763Y-104016667D01*
X107580953Y-103969048D01*
X107580953Y-103921429D01*
X107604763Y-103873810D01*
X107628572Y-103850000D01*
X107676191Y-103826190D01*
X107795239Y-103826190D01*
X107866667Y-103850000D01*
X108342857Y-104326190D02*
X108057143Y-104326190D01*
X108200000Y-104326190D02*
X108200000Y-103826190D01*
X108152381Y-103897619D01*
X108104762Y-103945238D01*
X108057143Y-103969048D01*
X108509524Y-103826190D02*
X108819047Y-103826190D01*
X108652381Y-104016667D01*
X108723809Y-104016667D01*
X108771428Y-104040476D01*
X108795238Y-104064286D01*
X108819047Y-104111905D01*
X108819047Y-104230952D01*
X108795238Y-104278571D01*
X108771428Y-104302381D01*
X108723809Y-104326190D01*
X108580952Y-104326190D01*
X108533333Y-104302381D01*
X108509524Y-104278571D01*
X109104761Y-104040476D02*
X109057142Y-104016667D01*
X109033333Y-103992857D01*
X109009523Y-103945238D01*
X109009523Y-103921429D01*
X109033333Y-103873810D01*
X109057142Y-103850000D01*
X109104761Y-103826190D01*
X109199999Y-103826190D01*
X109247618Y-103850000D01*
X109271428Y-103873810D01*
X109295237Y-103921429D01*
X109295237Y-103945238D01*
X109271428Y-103992857D01*
X109247618Y-104016667D01*
X109199999Y-104040476D01*
X109104761Y-104040476D01*
X109057142Y-104064286D01*
X109033333Y-104088095D01*
X109009523Y-104135714D01*
X109009523Y-104230952D01*
X109033333Y-104278571D01*
X109057142Y-104302381D01*
X109104761Y-104326190D01*
X109199999Y-104326190D01*
X109247618Y-104302381D01*
X109271428Y-104278571D01*
X109295237Y-104230952D01*
X109295237Y-104135714D01*
X109271428Y-104088095D01*
X109247618Y-104064286D01*
X109199999Y-104040476D01*
D14*
X107854762Y-93297619D02*
X107759524Y-93250000D01*
X107664286Y-93154762D01*
X107521429Y-93011905D01*
X107426190Y-92964286D01*
X107330952Y-92964286D01*
X107378571Y-93202381D02*
X107283333Y-93154762D01*
X107188095Y-93059524D01*
X107140476Y-92869048D01*
X107140476Y-92535714D01*
X107188095Y-92345238D01*
X107283333Y-92250000D01*
X107378571Y-92202381D01*
X107569048Y-92202381D01*
X107664286Y-92250000D01*
X107759524Y-92345238D01*
X107807143Y-92535714D01*
X107807143Y-92869048D01*
X107759524Y-93059524D01*
X107664286Y-93154762D01*
X107569048Y-93202381D01*
X107378571Y-93202381D01*
X108188095Y-92297619D02*
X108235714Y-92250000D01*
X108330952Y-92202381D01*
X108569048Y-92202381D01*
X108664286Y-92250000D01*
X108711905Y-92297619D01*
X108759524Y-92392857D01*
X108759524Y-92488095D01*
X108711905Y-92630952D01*
X108140476Y-93202381D01*
X108759524Y-93202381D01*
D12*
X106795239Y-97714286D02*
X106866668Y-97738095D01*
X106890477Y-97761905D01*
X106914287Y-97809524D01*
X106914287Y-97880952D01*
X106890477Y-97928571D01*
X106866668Y-97952381D01*
X106819049Y-97976190D01*
X106628573Y-97976190D01*
X106628573Y-97476190D01*
X106795239Y-97476190D01*
X106842858Y-97500000D01*
X106866668Y-97523810D01*
X106890477Y-97571429D01*
X106890477Y-97619048D01*
X106866668Y-97666667D01*
X106842858Y-97690476D01*
X106795239Y-97714286D01*
X106628573Y-97714286D01*
X107104763Y-97952381D02*
X107176192Y-97976190D01*
X107295239Y-97976190D01*
X107342858Y-97952381D01*
X107366668Y-97928571D01*
X107390477Y-97880952D01*
X107390477Y-97833333D01*
X107366668Y-97785714D01*
X107342858Y-97761905D01*
X107295239Y-97738095D01*
X107200001Y-97714286D01*
X107152382Y-97690476D01*
X107128573Y-97666667D01*
X107104763Y-97619048D01*
X107104763Y-97571429D01*
X107128573Y-97523810D01*
X107152382Y-97500000D01*
X107200001Y-97476190D01*
X107319049Y-97476190D01*
X107390477Y-97500000D01*
X107580953Y-97952381D02*
X107652382Y-97976190D01*
X107771429Y-97976190D01*
X107819048Y-97952381D01*
X107842858Y-97928571D01*
X107866667Y-97880952D01*
X107866667Y-97833333D01*
X107842858Y-97785714D01*
X107819048Y-97761905D01*
X107771429Y-97738095D01*
X107676191Y-97714286D01*
X107628572Y-97690476D01*
X107604763Y-97666667D01*
X107580953Y-97619048D01*
X107580953Y-97571429D01*
X107604763Y-97523810D01*
X107628572Y-97500000D01*
X107676191Y-97476190D01*
X107795239Y-97476190D01*
X107866667Y-97500000D01*
X108342857Y-97976190D02*
X108057143Y-97976190D01*
X108200000Y-97976190D02*
X108200000Y-97476190D01*
X108152381Y-97547619D01*
X108104762Y-97595238D01*
X108057143Y-97619048D01*
X108509524Y-97476190D02*
X108819047Y-97476190D01*
X108652381Y-97666667D01*
X108723809Y-97666667D01*
X108771428Y-97690476D01*
X108795238Y-97714286D01*
X108819047Y-97761905D01*
X108819047Y-97880952D01*
X108795238Y-97928571D01*
X108771428Y-97952381D01*
X108723809Y-97976190D01*
X108580952Y-97976190D01*
X108533333Y-97952381D01*
X108509524Y-97928571D01*
X109104761Y-97690476D02*
X109057142Y-97666667D01*
X109033333Y-97642857D01*
X109009523Y-97595238D01*
X109009523Y-97571429D01*
X109033333Y-97523810D01*
X109057142Y-97500000D01*
X109104761Y-97476190D01*
X109199999Y-97476190D01*
X109247618Y-97500000D01*
X109271428Y-97523810D01*
X109295237Y-97571429D01*
X109295237Y-97595238D01*
X109271428Y-97642857D01*
X109247618Y-97666667D01*
X109199999Y-97690476D01*
X109104761Y-97690476D01*
X109057142Y-97714286D01*
X109033333Y-97738095D01*
X109009523Y-97785714D01*
X109009523Y-97880952D01*
X109033333Y-97928571D01*
X109057142Y-97952381D01*
X109104761Y-97976190D01*
X109199999Y-97976190D01*
X109247618Y-97952381D01*
X109271428Y-97928571D01*
X109295237Y-97880952D01*
X109295237Y-97785714D01*
X109271428Y-97738095D01*
X109247618Y-97714286D01*
X109199999Y-97690476D01*
D14*
X107854762Y-86947619D02*
X107759524Y-86900000D01*
X107664286Y-86804762D01*
X107521429Y-86661905D01*
X107426190Y-86614286D01*
X107330952Y-86614286D01*
X107378571Y-86852381D02*
X107283333Y-86804762D01*
X107188095Y-86709524D01*
X107140476Y-86519048D01*
X107140476Y-86185714D01*
X107188095Y-85995238D01*
X107283333Y-85900000D01*
X107378571Y-85852381D01*
X107569048Y-85852381D01*
X107664286Y-85900000D01*
X107759524Y-85995238D01*
X107807143Y-86185714D01*
X107807143Y-86519048D01*
X107759524Y-86709524D01*
X107664286Y-86804762D01*
X107569048Y-86852381D01*
X107378571Y-86852381D01*
X108140476Y-85852381D02*
X108759524Y-85852381D01*
X108426190Y-86233333D01*
X108569048Y-86233333D01*
X108664286Y-86280952D01*
X108711905Y-86328571D01*
X108759524Y-86423810D01*
X108759524Y-86661905D01*
X108711905Y-86757143D01*
X108664286Y-86804762D01*
X108569048Y-86852381D01*
X108283333Y-86852381D01*
X108188095Y-86804762D01*
X108140476Y-86757143D01*
D12*
X106795239Y-91364286D02*
X106866668Y-91388095D01*
X106890477Y-91411905D01*
X106914287Y-91459524D01*
X106914287Y-91530952D01*
X106890477Y-91578571D01*
X106866668Y-91602381D01*
X106819049Y-91626190D01*
X106628573Y-91626190D01*
X106628573Y-91126190D01*
X106795239Y-91126190D01*
X106842858Y-91150000D01*
X106866668Y-91173810D01*
X106890477Y-91221429D01*
X106890477Y-91269048D01*
X106866668Y-91316667D01*
X106842858Y-91340476D01*
X106795239Y-91364286D01*
X106628573Y-91364286D01*
X107104763Y-91602381D02*
X107176192Y-91626190D01*
X107295239Y-91626190D01*
X107342858Y-91602381D01*
X107366668Y-91578571D01*
X107390477Y-91530952D01*
X107390477Y-91483333D01*
X107366668Y-91435714D01*
X107342858Y-91411905D01*
X107295239Y-91388095D01*
X107200001Y-91364286D01*
X107152382Y-91340476D01*
X107128573Y-91316667D01*
X107104763Y-91269048D01*
X107104763Y-91221429D01*
X107128573Y-91173810D01*
X107152382Y-91150000D01*
X107200001Y-91126190D01*
X107319049Y-91126190D01*
X107390477Y-91150000D01*
X107580953Y-91602381D02*
X107652382Y-91626190D01*
X107771429Y-91626190D01*
X107819048Y-91602381D01*
X107842858Y-91578571D01*
X107866667Y-91530952D01*
X107866667Y-91483333D01*
X107842858Y-91435714D01*
X107819048Y-91411905D01*
X107771429Y-91388095D01*
X107676191Y-91364286D01*
X107628572Y-91340476D01*
X107604763Y-91316667D01*
X107580953Y-91269048D01*
X107580953Y-91221429D01*
X107604763Y-91173810D01*
X107628572Y-91150000D01*
X107676191Y-91126190D01*
X107795239Y-91126190D01*
X107866667Y-91150000D01*
X108342857Y-91626190D02*
X108057143Y-91626190D01*
X108200000Y-91626190D02*
X108200000Y-91126190D01*
X108152381Y-91197619D01*
X108104762Y-91245238D01*
X108057143Y-91269048D01*
X108509524Y-91126190D02*
X108819047Y-91126190D01*
X108652381Y-91316667D01*
X108723809Y-91316667D01*
X108771428Y-91340476D01*
X108795238Y-91364286D01*
X108819047Y-91411905D01*
X108819047Y-91530952D01*
X108795238Y-91578571D01*
X108771428Y-91602381D01*
X108723809Y-91626190D01*
X108580952Y-91626190D01*
X108533333Y-91602381D01*
X108509524Y-91578571D01*
X109104761Y-91340476D02*
X109057142Y-91316667D01*
X109033333Y-91292857D01*
X109009523Y-91245238D01*
X109009523Y-91221429D01*
X109033333Y-91173810D01*
X109057142Y-91150000D01*
X109104761Y-91126190D01*
X109199999Y-91126190D01*
X109247618Y-91150000D01*
X109271428Y-91173810D01*
X109295237Y-91221429D01*
X109295237Y-91245238D01*
X109271428Y-91292857D01*
X109247618Y-91316667D01*
X109199999Y-91340476D01*
X109104761Y-91340476D01*
X109057142Y-91364286D01*
X109033333Y-91388095D01*
X109009523Y-91435714D01*
X109009523Y-91530952D01*
X109033333Y-91578571D01*
X109057142Y-91602381D01*
X109104761Y-91626190D01*
X109199999Y-91626190D01*
X109247618Y-91602381D01*
X109271428Y-91578571D01*
X109295237Y-91530952D01*
X109295237Y-91435714D01*
X109271428Y-91388095D01*
X109247618Y-91364286D01*
X109199999Y-91340476D01*
D14*
X107854762Y-72977619D02*
X107759524Y-72930000D01*
X107664286Y-72834762D01*
X107521429Y-72691905D01*
X107426190Y-72644286D01*
X107330952Y-72644286D01*
X107378571Y-72882381D02*
X107283333Y-72834762D01*
X107188095Y-72739524D01*
X107140476Y-72549048D01*
X107140476Y-72215714D01*
X107188095Y-72025238D01*
X107283333Y-71930000D01*
X107378571Y-71882381D01*
X107569048Y-71882381D01*
X107664286Y-71930000D01*
X107759524Y-72025238D01*
X107807143Y-72215714D01*
X107807143Y-72549048D01*
X107759524Y-72739524D01*
X107664286Y-72834762D01*
X107569048Y-72882381D01*
X107378571Y-72882381D01*
X108664286Y-72215714D02*
X108664286Y-72882381D01*
X108426190Y-71834762D02*
X108188095Y-72549048D01*
X108807143Y-72549048D01*
D12*
X106795239Y-77394286D02*
X106866668Y-77418095D01*
X106890477Y-77441905D01*
X106914287Y-77489524D01*
X106914287Y-77560952D01*
X106890477Y-77608571D01*
X106866668Y-77632381D01*
X106819049Y-77656190D01*
X106628573Y-77656190D01*
X106628573Y-77156190D01*
X106795239Y-77156190D01*
X106842858Y-77180000D01*
X106866668Y-77203810D01*
X106890477Y-77251429D01*
X106890477Y-77299048D01*
X106866668Y-77346667D01*
X106842858Y-77370476D01*
X106795239Y-77394286D01*
X106628573Y-77394286D01*
X107104763Y-77632381D02*
X107176192Y-77656190D01*
X107295239Y-77656190D01*
X107342858Y-77632381D01*
X107366668Y-77608571D01*
X107390477Y-77560952D01*
X107390477Y-77513333D01*
X107366668Y-77465714D01*
X107342858Y-77441905D01*
X107295239Y-77418095D01*
X107200001Y-77394286D01*
X107152382Y-77370476D01*
X107128573Y-77346667D01*
X107104763Y-77299048D01*
X107104763Y-77251429D01*
X107128573Y-77203810D01*
X107152382Y-77180000D01*
X107200001Y-77156190D01*
X107319049Y-77156190D01*
X107390477Y-77180000D01*
X107580953Y-77632381D02*
X107652382Y-77656190D01*
X107771429Y-77656190D01*
X107819048Y-77632381D01*
X107842858Y-77608571D01*
X107866667Y-77560952D01*
X107866667Y-77513333D01*
X107842858Y-77465714D01*
X107819048Y-77441905D01*
X107771429Y-77418095D01*
X107676191Y-77394286D01*
X107628572Y-77370476D01*
X107604763Y-77346667D01*
X107580953Y-77299048D01*
X107580953Y-77251429D01*
X107604763Y-77203810D01*
X107628572Y-77180000D01*
X107676191Y-77156190D01*
X107795239Y-77156190D01*
X107866667Y-77180000D01*
X108342857Y-77656190D02*
X108057143Y-77656190D01*
X108200000Y-77656190D02*
X108200000Y-77156190D01*
X108152381Y-77227619D01*
X108104762Y-77275238D01*
X108057143Y-77299048D01*
X108509524Y-77156190D02*
X108819047Y-77156190D01*
X108652381Y-77346667D01*
X108723809Y-77346667D01*
X108771428Y-77370476D01*
X108795238Y-77394286D01*
X108819047Y-77441905D01*
X108819047Y-77560952D01*
X108795238Y-77608571D01*
X108771428Y-77632381D01*
X108723809Y-77656190D01*
X108580952Y-77656190D01*
X108533333Y-77632381D01*
X108509524Y-77608571D01*
X109104761Y-77370476D02*
X109057142Y-77346667D01*
X109033333Y-77322857D01*
X109009523Y-77275238D01*
X109009523Y-77251429D01*
X109033333Y-77203810D01*
X109057142Y-77180000D01*
X109104761Y-77156190D01*
X109199999Y-77156190D01*
X109247618Y-77180000D01*
X109271428Y-77203810D01*
X109295237Y-77251429D01*
X109295237Y-77275238D01*
X109271428Y-77322857D01*
X109247618Y-77346667D01*
X109199999Y-77370476D01*
X109104761Y-77370476D01*
X109057142Y-77394286D01*
X109033333Y-77418095D01*
X109009523Y-77465714D01*
X109009523Y-77560952D01*
X109033333Y-77608571D01*
X109057142Y-77632381D01*
X109104761Y-77656190D01*
X109199999Y-77656190D01*
X109247618Y-77632381D01*
X109271428Y-77608571D01*
X109295237Y-77560952D01*
X109295237Y-77465714D01*
X109271428Y-77418095D01*
X109247618Y-77394286D01*
X109199999Y-77370476D01*
D14*
X105172381Y-101766666D02*
X104696190Y-102100000D01*
X105172381Y-102338095D02*
X104172381Y-102338095D01*
X104172381Y-101957142D01*
X104220000Y-101861904D01*
X104267619Y-101814285D01*
X104362857Y-101766666D01*
X104505714Y-101766666D01*
X104600952Y-101814285D01*
X104648571Y-101861904D01*
X104696190Y-101957142D01*
X104696190Y-102338095D01*
X105172381Y-100814285D02*
X105172381Y-101385714D01*
X105172381Y-101100000D02*
X104172381Y-101100000D01*
X104315238Y-101195238D01*
X104410476Y-101290476D01*
X104458095Y-101385714D01*
D12*
X103096190Y-101707143D02*
X103096190Y-101992857D01*
X103096190Y-101850000D02*
X102596190Y-101850000D01*
X102667619Y-101897619D01*
X102715238Y-101945238D01*
X102739048Y-101992857D01*
X103096190Y-101492857D02*
X102596190Y-101492857D01*
X103096190Y-101207143D02*
X102810476Y-101421429D01*
X102596190Y-101207143D02*
X102881905Y-101492857D01*
D14*
X105172381Y-95416666D02*
X104696190Y-95750000D01*
X105172381Y-95988095D02*
X104172381Y-95988095D01*
X104172381Y-95607142D01*
X104220000Y-95511904D01*
X104267619Y-95464285D01*
X104362857Y-95416666D01*
X104505714Y-95416666D01*
X104600952Y-95464285D01*
X104648571Y-95511904D01*
X104696190Y-95607142D01*
X104696190Y-95988095D01*
X104267619Y-95035714D02*
X104220000Y-94988095D01*
X104172381Y-94892857D01*
X104172381Y-94654761D01*
X104220000Y-94559523D01*
X104267619Y-94511904D01*
X104362857Y-94464285D01*
X104458095Y-94464285D01*
X104600952Y-94511904D01*
X105172381Y-95083333D01*
X105172381Y-94464285D01*
D12*
X103096190Y-95357143D02*
X103096190Y-95642857D01*
X103096190Y-95500000D02*
X102596190Y-95500000D01*
X102667619Y-95547619D01*
X102715238Y-95595238D01*
X102739048Y-95642857D01*
X103096190Y-95142857D02*
X102596190Y-95142857D01*
X103096190Y-94857143D02*
X102810476Y-95071429D01*
X102596190Y-94857143D02*
X102881905Y-95142857D01*
D14*
X105172381Y-89066666D02*
X104696190Y-89400000D01*
X105172381Y-89638095D02*
X104172381Y-89638095D01*
X104172381Y-89257142D01*
X104220000Y-89161904D01*
X104267619Y-89114285D01*
X104362857Y-89066666D01*
X104505714Y-89066666D01*
X104600952Y-89114285D01*
X104648571Y-89161904D01*
X104696190Y-89257142D01*
X104696190Y-89638095D01*
X104172381Y-88733333D02*
X104172381Y-88114285D01*
X104553333Y-88447619D01*
X104553333Y-88304761D01*
X104600952Y-88209523D01*
X104648571Y-88161904D01*
X104743810Y-88114285D01*
X104981905Y-88114285D01*
X105077143Y-88161904D01*
X105124762Y-88209523D01*
X105172381Y-88304761D01*
X105172381Y-88590476D01*
X105124762Y-88685714D01*
X105077143Y-88733333D01*
D12*
X103096190Y-89007143D02*
X103096190Y-89292857D01*
X103096190Y-89150000D02*
X102596190Y-89150000D01*
X102667619Y-89197619D01*
X102715238Y-89245238D01*
X102739048Y-89292857D01*
X103096190Y-88792857D02*
X102596190Y-88792857D01*
X103096190Y-88507143D02*
X102810476Y-88721429D01*
X102596190Y-88507143D02*
X102881905Y-88792857D01*
D14*
X105172381Y-75096666D02*
X104696190Y-75430000D01*
X105172381Y-75668095D02*
X104172381Y-75668095D01*
X104172381Y-75287142D01*
X104220000Y-75191904D01*
X104267619Y-75144285D01*
X104362857Y-75096666D01*
X104505714Y-75096666D01*
X104600952Y-75144285D01*
X104648571Y-75191904D01*
X104696190Y-75287142D01*
X104696190Y-75668095D01*
X104505714Y-74239523D02*
X105172381Y-74239523D01*
X104124762Y-74477619D02*
X104839048Y-74715714D01*
X104839048Y-74096666D01*
D12*
X103096190Y-75037143D02*
X103096190Y-75322857D01*
X103096190Y-75180000D02*
X102596190Y-75180000D01*
X102667619Y-75227619D01*
X102715238Y-75275238D01*
X102739048Y-75322857D01*
X103096190Y-74822857D02*
X102596190Y-74822857D01*
X103096190Y-74537143D02*
X102810476Y-74751429D01*
X102596190Y-74537143D02*
X102881905Y-74822857D01*
D14*
X115332381Y-101766666D02*
X114856190Y-102100000D01*
X115332381Y-102338095D02*
X114332381Y-102338095D01*
X114332381Y-101957142D01*
X114380000Y-101861904D01*
X114427619Y-101814285D01*
X114522857Y-101766666D01*
X114665714Y-101766666D01*
X114760952Y-101814285D01*
X114808571Y-101861904D01*
X114856190Y-101957142D01*
X114856190Y-102338095D01*
X114332381Y-100861904D02*
X114332381Y-101338095D01*
X114808571Y-101385714D01*
X114760952Y-101338095D01*
X114713333Y-101242857D01*
X114713333Y-101004761D01*
X114760952Y-100909523D01*
X114808571Y-100861904D01*
X114903810Y-100814285D01*
X115141905Y-100814285D01*
X115237143Y-100861904D01*
X115284762Y-100909523D01*
X115332381Y-101004761D01*
X115332381Y-101242857D01*
X115284762Y-101338095D01*
X115237143Y-101385714D01*
D12*
X113256190Y-101707143D02*
X113256190Y-101992857D01*
X113256190Y-101850000D02*
X112756190Y-101850000D01*
X112827619Y-101897619D01*
X112875238Y-101945238D01*
X112899048Y-101992857D01*
X113256190Y-101492857D02*
X112756190Y-101492857D01*
X113256190Y-101207143D02*
X112970476Y-101421429D01*
X112756190Y-101207143D02*
X113041905Y-101492857D01*
D14*
X115332381Y-95416666D02*
X114856190Y-95750000D01*
X115332381Y-95988095D02*
X114332381Y-95988095D01*
X114332381Y-95607142D01*
X114380000Y-95511904D01*
X114427619Y-95464285D01*
X114522857Y-95416666D01*
X114665714Y-95416666D01*
X114760952Y-95464285D01*
X114808571Y-95511904D01*
X114856190Y-95607142D01*
X114856190Y-95988095D01*
X114332381Y-94559523D02*
X114332381Y-94750000D01*
X114380000Y-94845238D01*
X114427619Y-94892857D01*
X114570476Y-94988095D01*
X114760952Y-95035714D01*
X115141905Y-95035714D01*
X115237143Y-94988095D01*
X115284762Y-94940476D01*
X115332381Y-94845238D01*
X115332381Y-94654761D01*
X115284762Y-94559523D01*
X115237143Y-94511904D01*
X115141905Y-94464285D01*
X114903810Y-94464285D01*
X114808571Y-94511904D01*
X114760952Y-94559523D01*
X114713333Y-94654761D01*
X114713333Y-94845238D01*
X114760952Y-94940476D01*
X114808571Y-94988095D01*
X114903810Y-95035714D01*
D12*
X113256190Y-95357143D02*
X113256190Y-95642857D01*
X113256190Y-95500000D02*
X112756190Y-95500000D01*
X112827619Y-95547619D01*
X112875238Y-95595238D01*
X112899048Y-95642857D01*
X113256190Y-95142857D02*
X112756190Y-95142857D01*
X113256190Y-94857143D02*
X112970476Y-95071429D01*
X112756190Y-94857143D02*
X113041905Y-95142857D01*
D14*
X115332381Y-89066666D02*
X114856190Y-89400000D01*
X115332381Y-89638095D02*
X114332381Y-89638095D01*
X114332381Y-89257142D01*
X114380000Y-89161904D01*
X114427619Y-89114285D01*
X114522857Y-89066666D01*
X114665714Y-89066666D01*
X114760952Y-89114285D01*
X114808571Y-89161904D01*
X114856190Y-89257142D01*
X114856190Y-89638095D01*
X114332381Y-88733333D02*
X114332381Y-88066666D01*
X115332381Y-88495238D01*
D12*
X113256190Y-89007143D02*
X113256190Y-89292857D01*
X113256190Y-89150000D02*
X112756190Y-89150000D01*
X112827619Y-89197619D01*
X112875238Y-89245238D01*
X112899048Y-89292857D01*
X113256190Y-88792857D02*
X112756190Y-88792857D01*
X113256190Y-88507143D02*
X112970476Y-88721429D01*
X112756190Y-88507143D02*
X113041905Y-88792857D01*
D14*
X115332381Y-75096666D02*
X114856190Y-75430000D01*
X115332381Y-75668095D02*
X114332381Y-75668095D01*
X114332381Y-75287142D01*
X114380000Y-75191904D01*
X114427619Y-75144285D01*
X114522857Y-75096666D01*
X114665714Y-75096666D01*
X114760952Y-75144285D01*
X114808571Y-75191904D01*
X114856190Y-75287142D01*
X114856190Y-75668095D01*
X114760952Y-74525238D02*
X114713333Y-74620476D01*
X114665714Y-74668095D01*
X114570476Y-74715714D01*
X114522857Y-74715714D01*
X114427619Y-74668095D01*
X114380000Y-74620476D01*
X114332381Y-74525238D01*
X114332381Y-74334761D01*
X114380000Y-74239523D01*
X114427619Y-74191904D01*
X114522857Y-74144285D01*
X114570476Y-74144285D01*
X114665714Y-74191904D01*
X114713333Y-74239523D01*
X114760952Y-74334761D01*
X114760952Y-74525238D01*
X114808571Y-74620476D01*
X114856190Y-74668095D01*
X114951429Y-74715714D01*
X115141905Y-74715714D01*
X115237143Y-74668095D01*
X115284762Y-74620476D01*
X115332381Y-74525238D01*
X115332381Y-74334761D01*
X115284762Y-74239523D01*
X115237143Y-74191904D01*
X115141905Y-74144285D01*
X114951429Y-74144285D01*
X114856190Y-74191904D01*
X114808571Y-74239523D01*
X114760952Y-74334761D01*
D12*
X113256190Y-75037143D02*
X113256190Y-75322857D01*
X113256190Y-75180000D02*
X112756190Y-75180000D01*
X112827619Y-75227619D01*
X112875238Y-75275238D01*
X112899048Y-75322857D01*
X113256190Y-74822857D02*
X112756190Y-74822857D01*
X113256190Y-74537143D02*
X112970476Y-74751429D01*
X112756190Y-74537143D02*
X113041905Y-74822857D01*
D14*
X178308095Y-145127381D02*
X178308095Y-145936905D01*
X178355714Y-146032143D01*
X178403333Y-146079762D01*
X178498571Y-146127381D01*
X178689048Y-146127381D01*
X178784286Y-146079762D01*
X178831905Y-146032143D01*
X178879524Y-145936905D01*
X178879524Y-145127381D01*
X179879524Y-146127381D02*
X179308095Y-146127381D01*
X179593809Y-146127381D02*
X179593809Y-145127381D01*
X179498571Y-145270238D01*
X179403333Y-145365476D01*
X179308095Y-145413095D01*
X85598095Y-65492381D02*
X85598095Y-66301905D01*
X85645714Y-66397143D01*
X85693333Y-66444762D01*
X85788571Y-66492381D01*
X85979048Y-66492381D01*
X86074286Y-66444762D01*
X86121905Y-66397143D01*
X86169524Y-66301905D01*
X86169524Y-65492381D01*
X86598095Y-65587619D02*
X86645714Y-65540000D01*
X86740952Y-65492381D01*
X86979048Y-65492381D01*
X87074286Y-65540000D01*
X87121905Y-65587619D01*
X87169524Y-65682857D01*
X87169524Y-65778095D01*
X87121905Y-65920952D01*
X86550476Y-66492381D01*
X87169524Y-66492381D01*
X82288571Y-74112381D02*
X82288571Y-73112381D01*
X82860000Y-74112381D01*
X82860000Y-73112381D01*
X83479047Y-74112381D02*
X83383809Y-74064762D01*
X83336190Y-74017143D01*
X83288571Y-73921905D01*
X83288571Y-73636190D01*
X83336190Y-73540952D01*
X83383809Y-73493333D01*
X83479047Y-73445714D01*
X83621905Y-73445714D01*
X83717143Y-73493333D01*
X83764762Y-73540952D01*
X83812381Y-73636190D01*
X83812381Y-73921905D01*
X83764762Y-74017143D01*
X83717143Y-74064762D01*
X83621905Y-74112381D01*
X83479047Y-74112381D01*
X84669524Y-74112381D02*
X84669524Y-73112381D01*
X84669524Y-74064762D02*
X84574286Y-74112381D01*
X84383809Y-74112381D01*
X84288571Y-74064762D01*
X84240952Y-74017143D01*
X84193333Y-73921905D01*
X84193333Y-73636190D01*
X84240952Y-73540952D01*
X84288571Y-73493333D01*
X84383809Y-73445714D01*
X84574286Y-73445714D01*
X84669524Y-73493333D01*
X85526667Y-74064762D02*
X85431429Y-74112381D01*
X85240952Y-74112381D01*
X85145714Y-74064762D01*
X85098095Y-73969524D01*
X85098095Y-73588571D01*
X85145714Y-73493333D01*
X85240952Y-73445714D01*
X85431429Y-73445714D01*
X85526667Y-73493333D01*
X85574286Y-73588571D01*
X85574286Y-73683810D01*
X85098095Y-73779048D01*
X86002857Y-74112381D02*
X86002857Y-73112381D01*
X86336191Y-73826667D01*
X86669524Y-73112381D01*
X86669524Y-74112381D01*
X87717143Y-74017143D02*
X87669524Y-74064762D01*
X87526667Y-74112381D01*
X87431429Y-74112381D01*
X87288571Y-74064762D01*
X87193333Y-73969524D01*
X87145714Y-73874286D01*
X87098095Y-73683810D01*
X87098095Y-73540952D01*
X87145714Y-73350476D01*
X87193333Y-73255238D01*
X87288571Y-73160000D01*
X87431429Y-73112381D01*
X87526667Y-73112381D01*
X87669524Y-73160000D01*
X87717143Y-73207619D01*
X88145714Y-73112381D02*
X88145714Y-73921905D01*
X88193333Y-74017143D01*
X88240952Y-74064762D01*
X88336190Y-74112381D01*
X88526667Y-74112381D01*
X88621905Y-74064762D01*
X88669524Y-74017143D01*
X88717143Y-73921905D01*
X88717143Y-73112381D01*
X89098095Y-73445714D02*
X89336190Y-74112381D01*
X89574286Y-73445714D01*
X89907619Y-73207619D02*
X89955238Y-73160000D01*
X90050476Y-73112381D01*
X90288572Y-73112381D01*
X90383810Y-73160000D01*
X90431429Y-73207619D01*
X90479048Y-73302857D01*
X90479048Y-73398095D01*
X90431429Y-73540952D01*
X89860000Y-74112381D01*
X90479048Y-74112381D01*
X77755715Y-71572381D02*
X77184286Y-71572381D01*
X77470000Y-71572381D02*
X77470000Y-70572381D01*
X77374762Y-70715238D01*
X77279524Y-70810476D01*
X77184286Y-70858095D01*
X117197381Y-115673095D02*
X116197381Y-115673095D01*
X116197381Y-115435000D01*
X116245000Y-115292142D01*
X116340238Y-115196904D01*
X116435476Y-115149285D01*
X116625952Y-115101666D01*
X116768810Y-115101666D01*
X116959286Y-115149285D01*
X117054524Y-115196904D01*
X117149762Y-115292142D01*
X117197381Y-115435000D01*
X117197381Y-115673095D01*
X116292619Y-114720714D02*
X116245000Y-114673095D01*
X116197381Y-114577857D01*
X116197381Y-114339761D01*
X116245000Y-114244523D01*
X116292619Y-114196904D01*
X116387857Y-114149285D01*
X116483095Y-114149285D01*
X116625952Y-114196904D01*
X117197381Y-114768333D01*
X117197381Y-114149285D01*
X183022381Y-134111905D02*
X183831905Y-134111905D01*
X183927143Y-134064286D01*
X183974762Y-134016667D01*
X184022381Y-133921429D01*
X184022381Y-133730952D01*
X183974762Y-133635714D01*
X183927143Y-133588095D01*
X183831905Y-133540476D01*
X183022381Y-133540476D01*
X183355714Y-132635714D02*
X184022381Y-132635714D01*
X182974762Y-132873810D02*
X183689048Y-133111905D01*
X183689048Y-132492857D01*
D12*
X174796190Y-135338094D02*
X174796190Y-135576189D01*
X174296190Y-135576189D01*
X174796190Y-135171427D02*
X174296190Y-135171427D01*
X174653333Y-135004761D01*
X174296190Y-134838094D01*
X174796190Y-134838094D01*
X174796190Y-134338094D02*
X174796190Y-134623808D01*
X174796190Y-134480951D02*
X174296190Y-134480951D01*
X174367619Y-134528570D01*
X174415238Y-134576189D01*
X174439048Y-134623808D01*
X174796190Y-133861904D02*
X174796190Y-134147618D01*
X174796190Y-134004761D02*
X174296190Y-134004761D01*
X174367619Y-134052380D01*
X174415238Y-134099999D01*
X174439048Y-134147618D01*
X174796190Y-133385714D02*
X174796190Y-133671428D01*
X174796190Y-133528571D02*
X174296190Y-133528571D01*
X174367619Y-133576190D01*
X174415238Y-133623809D01*
X174439048Y-133671428D01*
X174296190Y-133219047D02*
X174296190Y-132885714D01*
X174796190Y-133100000D01*
X174605714Y-132695238D02*
X174605714Y-132314286D01*
X174296190Y-131838095D02*
X174296190Y-132076190D01*
X174534286Y-132100000D01*
X174510476Y-132076190D01*
X174486667Y-132028571D01*
X174486667Y-131909524D01*
X174510476Y-131861905D01*
X174534286Y-131838095D01*
X174581905Y-131814286D01*
X174700952Y-131814286D01*
X174748571Y-131838095D01*
X174772381Y-131861905D01*
X174796190Y-131909524D01*
X174796190Y-132028571D01*
X174772381Y-132076190D01*
X174748571Y-132100000D01*
X174748571Y-131600000D02*
X174772381Y-131576191D01*
X174796190Y-131600000D01*
X174772381Y-131623810D01*
X174748571Y-131600000D01*
X174796190Y-131600000D01*
X174296190Y-131266667D02*
X174296190Y-131219048D01*
X174320000Y-131171429D01*
X174343810Y-131147620D01*
X174391429Y-131123810D01*
X174486667Y-131100001D01*
X174605714Y-131100001D01*
X174700952Y-131123810D01*
X174748571Y-131147620D01*
X174772381Y-131171429D01*
X174796190Y-131219048D01*
X174796190Y-131266667D01*
X174772381Y-131314286D01*
X174748571Y-131338096D01*
X174700952Y-131361905D01*
X174605714Y-131385715D01*
X174486667Y-131385715D01*
X174391429Y-131361905D01*
X174343810Y-131338096D01*
X174320000Y-131314286D01*
X174296190Y-131266667D01*
M02*
